<?xml version="1.0" encoding="UTF-8" standalone="no"?>
<!-- Created with Inkscape (http://www.inkscape.org/) -->

<svg
   width="64mm"
   height="40mm"
   viewBox="0 0 64 40"
   version="1.1"
   id="svg918"
   inkscape:version="1.1 (c68e22c387, 2021-05-23)"
   sodipodi:docname="dom1.svg"
   xmlns:inkscape="http://www.inkscape.org/namespaces/inkscape"
   xmlns:sodipodi="http://sodipodi.sourceforge.net/DTD/sodipodi-0.dtd"
   xmlns="http://www.w3.org/2000/svg"
   xmlns:svg="http://www.w3.org/2000/svg">
  <sodipodi:namedview
     id="namedview920"
     pagecolor="#ffffff"
     bordercolor="#666666"
     borderopacity="1.0"
     inkscape:pageshadow="2"
     inkscape:pageopacity="0.0"
     inkscape:pagecheckerboard="0"
     inkscape:document-units="mm"
     showgrid="false"
     width="64mm"
     inkscape:zoom="2.04"
     inkscape:cx="271"
     inkscape:cy="7.84"
     inkscape:window-width="1853"
     inkscape:window-height="1030"
     inkscape:window-x="18"
     inkscape:window-y="0"
     inkscape:window-maximized="0"
     inkscape:current-layer="layer1" />
  <defs
     id="defs915" />
  <g
     inkscape:label="Layer 1"
     inkscape:groupmode="layer"
     id="layer1">
    <path
       style="fill:#00ff00;stroke:#9b3300;stroke-width:0.26534px;stroke-linecap:butt;stroke-linejoin:miter;stroke-opacity:1"
       d="m 30.9,7.93 c 0.7,-3.26 2.9,-5.43 4.9,-4.34 0.7,1.08 -0.9,-0.55 0.8,-2.19 1.5,-1.632 6.6,3.27 5.9,1.64 -1.2,-3.822 1.1,-2.733 3.7,-2.733 1.5,0.55 2.7,1.643 3.1,2.733 0.2,1.63 0.1,2.72 -0.5,3.27 -1.1,0.54 -4.7,0 -4.7,0 0,0 3.5,2.72 0.7,3.27 -2.9,1.12 -5.1,-2.2 -5.1,-2.2 0,0 1.2,4.42 -0.7,4.42 -2,0.5 -8.1,-3.87 -8.1,-3.87 z"
       id="path16418"
       sodipodi:nodetypes="csssssscscsc" />
    <path
       style="fill:#00ff00;stroke:#228b22;stroke-width:0.26534px;stroke-linecap:butt;stroke-linejoin:miter;stroke-opacity:1"
       d="m 31,7.38 c 2.2,0 18.3,-4.34 18.3,-4.34 L 31.6,8.23 Z"
       id="path17209"
       sodipodi:nodetypes="cccc" />
    <path
       style="fill:#aa4400;stroke:#9b3300;stroke-width:0.26534px;stroke-linecap:butt;stroke-linejoin:miter;stroke-opacity:1"
       d="M 30.9,7.93 C 29.7,6.31 31.5,6.31 28.8,4.12 27,3.04 23.7,5.22 23.7,5.22 c -0.1,-1.1 0.3,1.09 0.2,-1.1 0,0 3.6,-1.62 5.5,-0.53 1.9,1.08 1.5,3.79 1.5,4.34"
       id="path17815"
       sodipodi:nodetypes="csccsc" />
    <path
       style="fill:#ffd700;stroke:#9b3300;stroke-width:0.265535px;stroke-linecap:butt;stroke-linejoin:miter;stroke-opacity:1"
       d="M -0.003,18.3 29.1,19.4 63.2,19.9 C 53.1,13.9 40.1,17.2 30.9,7.93 16.9,17.2 9.91,15.1 -0.003,18.3 Z"
       id="path15689"
       sodipodi:nodetypes="ccccc" />
    <path
       style="fill:#ffff00;stroke:#9b3300;stroke-width:0.265535px;stroke-linecap:butt;stroke-linejoin:miter;stroke-opacity:1"
       d="m 3.49,18.3 c 0,0 -2.913,19.4 23.31,20.3 1.8,0 2.9,1.4 4.7,1.4 1.6,0 3.5,-1.7 5.2,-1.7 C 63.8,38.3 60,19.9 60,19.9 Z"
       id="path16416"
       sodipodi:nodetypes="cssscc" />
    <path
       style="fill:#4d4d4d;stroke:#4d4d4d;stroke-width:0.264936px;stroke-linecap:butt;stroke-linejoin:miter;stroke-opacity:1"
       d="m 6.89,20.5 2,5.7 3.61,-8.4 -3.41,5.7 z"
       id="path862" />
    <ellipse
       style="fill:none;stroke:#4d4d4d;stroke-width:0.665784"
       id="path1032"
       cx="9.09"
       cy="25.8"
       rx="2.38"
       ry="1.96" />
  </g>
</svg>
