<?xml version="1.0" encoding="UTF-8" standalone="no"?>
<!-- Created with Inkscape (http://www.inkscape.org/) -->

<svg
   width="210mm"
   height="297mm"
   viewBox="0 0 210 297"
   version="1.1"
   id="svg5"
   inkscape:version="1.1 (c68e22c387, 2021-05-23)"
   sodipodi:docname="moonsky.svg"
   xmlns:inkscape="http://www.inkscape.org/namespaces/inkscape"
   xmlns:sodipodi="http://sodipodi.sourceforge.net/DTD/sodipodi-0.dtd"
   xmlns="http://www.w3.org/2000/svg"
   xmlns:svg="http://www.w3.org/2000/svg">
  <sodipodi:namedview
     id="namedview7"
     pagecolor="#ffffff"
     bordercolor="#666666"
     borderopacity="1.0"
     inkscape:pageshadow="2"
     inkscape:pageopacity="0.0"
     inkscape:pagecheckerboard="0"
     inkscape:document-units="mm"
     showgrid="false"
     inkscape:zoom="4.22"
     inkscape:cx="122"
     inkscape:cy="166"
     inkscape:window-width="1920"
     inkscape:window-height="1001"
     inkscape:window-x="-9"
     inkscape:window-y="-9"
     inkscape:window-maximized="1"
     inkscape:current-layer="layer1" />
  <defs
     id="defs2" />
  <g
     inkscape:label="Layer 1"
     inkscape:groupmode="layer"
     id="layer1">
    <path
       style="fill:#ffff00;stroke:#ffff00;stroke-width:0.265px;stroke-linecap:butt;stroke-linejoin:miter;stroke-opacity:1"
       d="M 40.8,64.6 C 12.4,55 11,35.4 29.9,21.3 c 0,0 -5.1,15.9 -1,22.9 l 3.4,5.9 z"
       id="path1759"
       sodipodi:nodetypes="csscc" />
    <path
       sodipodi:type="star"
       style="fill:#ffff00;stroke:#ffff00;stroke-width:6.07732"
       id="path2709"
       inkscape:flatsided="false"
       sodipodi:sides="5"
       sodipodi:cx="367"
       sodipodi:cy="77.7"
       sodipodi:r1="38.1"
       sodipodi:r2="19.1"
       sodipodi:arg1="1.25"
       sodipodi:arg2="1.88"
       inkscape:rounded="0"
       inkscape:randomized="0"
       d="m 379,114 -18,-18.1 -25,4.1 12,-22.2 -12,-22.3 25,4.1 18,-18.2 3,25 23,11 -22,11.4 z"
       transform="matrix(0.106,0,0,0.114,32.7,12.9)"
       inkscape:transform-center-x="-0.57"
       inkscape:transform-center-y="-0.00966" />
    <path
       sodipodi:type="star"
       style="fill:#ffff00;stroke:#ffff00;stroke-width:6.07732"
       id="path2709-8"
       inkscape:flatsided="false"
       sodipodi:sides="5"
       sodipodi:cx="367"
       sodipodi:cy="77.7"
       sodipodi:r1="38.1"
       sodipodi:r2="19.1"
       sodipodi:arg1="1.25"
       sodipodi:arg2="1.88"
       inkscape:rounded="0"
       inkscape:randomized="0"
       transform="matrix(0.106,0,0,0.114,73,33)"
       inkscape:transform-center-x="-0.57"
       inkscape:transform-center-y="-0.00966"
       d="m 379,114 -18,-18.1 -25,4.1 12,-22.2 -12,-22.3 25,4.1 18,-18.2 3,25 23,11 -22,11.4 z" />
    <path
       sodipodi:type="star"
       style="fill:#ffff00;stroke:#ffff00;stroke-width:8.29151"
       id="path2711"
       inkscape:flatsided="false"
       sodipodi:sides="5"
       sodipodi:cx="517"
       sodipodi:cy="198"
       sodipodi:r1="54.1"
       sodipodi:r2="27.1"
       sodipodi:arg1="0.838"
       sodipodi:arg2="1.47"
       inkscape:rounded="0"
       inkscape:randomized="0"
       d="m 553,238 -33,-13 -30,20 2,-36 -28,-22 35,-9 12,-34 20,31 35,1 -23,28 z"
       transform="matrix(0.079,0,0,0.082,102,-0.544)"
       inkscape:transform-center-x="0.237"
       inkscape:transform-center-y="-0.212" />
    <path
       sodipodi:type="star"
       style="fill:#ffff00;stroke:#ffff00;stroke-width:3.81333"
       id="path2713"
       inkscape:flatsided="false"
       sodipodi:sides="5"
       sodipodi:cx="288"
       sodipodi:cy="320"
       sodipodi:r1="30.5"
       sodipodi:r2="15.3"
       sodipodi:arg1="0.91"
       sodipodi:arg2="1.54"
       inkscape:rounded="0"
       inkscape:randomized="0"
       d="m 307,344 -19,-9 -17,10 3,-20 -15,-13 20,-4 8,-18 10,17 20,3 -14,14 z"
       transform="matrix(0.173,0,0,0.176,19.1,-1.83)"
       inkscape:transform-center-x="0.0721"
       inkscape:transform-center-y="-0.308" />
    <path
       sodipodi:type="star"
       style="fill:#ffff00;stroke:#ffff00;stroke-width:8.16049"
       id="path2715"
       inkscape:flatsided="false"
       sodipodi:sides="5"
       sodipodi:cx="445"
       sodipodi:cy="375"
       sodipodi:r1="65.4"
       sodipodi:r2="32.8"
       sodipodi:arg1="0.742"
       sodipodi:arg2="1.37"
       inkscape:rounded="0"
       inkscape:randomized="0"
       d="m 493,419 -41,-12 -34,28 -2,-44 -36,-23 41,-15 11,-42 27,34 43,-2 -24,36 z"
       transform="matrix(0.077,0,0,0.087,147,15.6)"
       inkscape:transform-center-x="-0.405"
       inkscape:transform-center-y="-0.165" />
  </g>
</svg>
