<?xml version="1.0" encoding="UTF-8"?>
<!DOCTYPE svg PUBLIC "-//W3C//DTD SVG 1.1//EN" "http://www.w3.org/Graphics/SVG/1.1/DTD/svg11.dtd">
<!-- Creator: CorelDRAW 2019 (64-Bit) -->
<svg xmlns="http://www.w3.org/2000/svg" xml:space="preserve" width="100mm" height="100mm" version="1.1" style="shape-rendering:geometricPrecision; text-rendering:geometricPrecision; image-rendering:optimizeQuality; fill-rule:evenodd; clip-rule:evenodd"
viewBox="0 0 100 100"
 xmlns:xlink="http://www.w3.org/1999/xlink"
 xmlns:xodm="http://www.corel.com/coreldraw/odm/2003">
 <defs>
  <style type="text/css">
   <![CDATA[
    .str0 {stroke:#2B2A29;stroke-width:0.2;stroke-miterlimit:22.9256}
    .str2 {stroke:#5C4023;stroke-width:0.2;stroke-miterlimit:22.9256}
    .str1 {stroke:#E28E62;stroke-width:0.2;stroke-miterlimit:22.9256}
    .fil5 {fill:none}
    .fil14 {fill:#2B2A29}
    .fil9 {fill:#FDFBF8}
    .fil11 {fill:#2F2818}
    .fil35 {fill:#413E31}
    .fil32 {fill:#474441}
    .fil27 {fill:#474642}
    .fil34 {fill:#505654}
    .fil33 {fill:#5C4023}
    .fil22 {fill:#76C2A4}
    .fil13 {fill:#8E5E36}
    .fil4 {fill:#9C501B}
    .fil0 {fill:#AAEAD2}
    .fil7 {fill:#AF7F4F}
    .fil19 {fill:#B5340D}
    .fil21 {fill:#BA3919}
    .fil15 {fill:#C13D30}
    .fil18 {fill:#CC3812}
    .fil17 {fill:#E28E62}
    .fil26 {fill:#E83E24}
    .fil20 {fill:#E93E22}
    .fil24 {fill:#E99C26}
    .fil10 {fill:#EA491D}
    .fil6 {fill:#EB481F}
    .fil1 {fill:#F1BC86}
    .fil30 {fill:#F3AB5D}
    .fil16 {fill:#F3BA83}
    .fil2 {fill:#F4BC83}
    .fil25 {fill:#F5BA6A}
    .fil29 {fill:#F6A75D}
    .fil3 {fill:#F6B985}
    .fil12 {fill:#F7BC82}
    .fil8 {fill:#F8B980}
    .fil31 {fill:#F8BA6E}
    .fil28 {fill:#FBB96B}
    .fil23 {fill:#FDB66C}
   ]]>
  </style>
 </defs>
 <g id="Layer_x0020_1">
  <metadata id="CorelCorpID_0Corel-Layer"/>
  <g id="_2170628686752">
   <path class="fil0 str0" d="M93.5278 75.4243c0,0 0.5897,-13.1214 -0.6389,-14.3991 -1.2285,-1.2778 -1.9166,-1.9166 -1.9166,-1.9166 0,0 -0.3932,-3.9316 -1.6709,-5.7991 -1.2777,-1.8674 -4.2264,-3.2435 -4.6687,-3.2435 -0.4423,0 -32.1892,0.1472 -33.3687,0.0981 -1.1795,-0.0492 -2.3589,0.8845 -3.7841,2.408 -1.4252,1.5235 -2.2607,6.6345 -2.2115,6.9294 0.0491,0.2948 -1.2778,-0.639 -1.9166,-0.639 -0.6389,0 -4.2756,0 -4.6687,0.0983 -0.3932,0.0983 -2.0641,-0.1966 -3.6858,1.8675 -1.6218,2.0641 0.4544,14.4484 0.4544,14.4484l7.2612 0.1842 0.2949 -6.143 37.3006 -0.0492 -0.0983 6.0939 8.9443 -0.0493 4.3734 0.111z"/>
   <path class="fil1 str0" d="M51.5674 57.3844c0,0 -1.5358,4.2755 -1.6709,4.4107 -0.1351,0.1352 -1.3145,1.9903 -1.5725,1.978 -0.258,-0.0123 -0.7249,-0.0492 -0.8355,0.1352 -0.1106,0.1843 0.9338,0.3562 0.9338,0.3562 0,0 2.8995,-1.7077 2.9241,-2.0026 0.0245,-0.2948 1.0197,-2.6906 1.0197,-2.6906l0.4177 -2.0641 -1.2164 -0.1228z"/>
   <path class="fil2 str0" d="M64.1727 50c0,0 -0.4947,0.2634 -0.5315,0.6443 -0.0369,0.3808 -0.5655,5.6024 -1.0077,5.5778 -0.4423,-0.0245 -2.7275,-4.7423 -3.0224,-5.0372 -0.2948,-0.2949 -1.5972,-0.3686 -1.8183,-0.344 -0.2211,0.0245 -0.7126,0.2703 -0.7126,0.2703l0.2583 0.9357c0,0 0.872,-0.4197 1.0932,-0.1249 0.2211,0.2949 2.703,6.7329 3.8824,6.9048 1.1794,0.172 1.962,-1.6563 2.2606,-1.892 0.2985,-0.2357 0.3194,-4.0299 0.3194,-4.0299l-0.7214 -2.9049z"/>
   <path class="fil3 str0" d="M56.0206 57.6553c-0.2949,0.2949 -1.2891,1.2712 -1.7446,1.1549 -0.4555,-0.1163 -1.5726,-2.6046 -1.8675,-3.6858 -0.2948,-1.0812 -0.4177,-2.8258 0.1229,-3.3418 0.5406,-0.516 1.7691,-1.0321 2.3835,-0.9583 0.6143,0.0737 2.4081,0.7617 2.4326,1.2777 0.0246,0.516 0.7863,3.047 0.2703,3.5875 -0.516,0.5406 -1.5972,1.9658 -1.5972,1.9658z"/>
   <path class="fil4 str0" d="M53.8205 58.6939c0,0 0.1106,-0.2089 -0.0491,-0.344 -0.1597,-0.1351 -0.4669,-0.1474 -0.7372,-0.5651 -0.2703,-0.4178 0.0122,-0.6635 -0.2089,-0.7863 -0.2211,-0.1229 -0.4913,0.0245 -0.6757,0.1474 -0.1843,0.1229 -0.5651,0.688 -0.688,0.6757 -0.1229,-0.0123 -0.4423,-0.4423 -0.4177,-0.9952 0.0246,-0.5528 0.688,-0.9091 0.4914,-1.2654 -0.1966,-0.3563 -0.4116,-0.9339 -0.4362,-1.5973 -0.0246,-0.6635 0.1475,-0.6513 0.0737,-1.1427 -0.0737,-0.4914 0.2088,-1.72 0.8968,-2.1869 0.688,-0.4669 1.1548,-0.9582 2.2483,-1.0197 1.0935,-0.0614 2.0273,0.1352 2.6047,0.8846 0.5775,0.7494 0.9337,0.9952 1.0197,1.6217 0.0861,0.6266 -0.3069,1.5481 -0.227,1.8983 0.0798,0.3501 0.8477,1.3453 0.9706,1.72 0.1228,0.3748 -0.6384,1.1487 -0.7552,1.4927 -0.1167,0.344 0.0369,0.9583 0.3502,1.3146 0.3133,0.3563 0.1289,0.344 -0.0369,0.258 -0.1658,-0.086 -0.8355,-0.7249 -0.9215,-1.0074 -0.086,-0.2826 -0.0676,-0.4915 -0.2825,-0.5591 -0.215,-0.0675 -0.209,0.0738 -0.6451,-0.0552 -0.4361,-0.129 -1.1057,0.1474 -1.0136,-0.2765 0.0922,-0.4239 -0.0369,-0.5282 0.258,-0.6941 0.2949,-0.1659 0.3686,-0.3378 0.6696,-0.5775 0.301,-0.2396 0.9281,-0.6145 1.051,-0.9831 0.1229,-0.3685 -0.0368,-0.688 -0.2088,-1.118 -0.1721,-0.43 -0.1106,-0.4914 -0.1721,-0.9952 -0.0614,-0.5037 -0.2211,-0.3562 -0.3194,-0.4668 -0.0982,-0.1106 -0.9092,-0.5283 -0.9092,-0.5283l0.5406 0.5529c0,0 -0.3072,0.0614 -0.516,0.0982 -0.2088,0.0369 -0.3931,0.3563 -0.6757,0.2335 -0.2826,-0.1229 -0.4669,-0.0614 -0.7495,-0.086 -0.2825,-0.0246 -0.5651,0.2826 -0.8845,0.1843 -0.3195,-0.0983 -0.2949,0.2825 -0.2949,0.2825 0,0 -0.0984,0.1352 0.1351,0.5775 0.2335,0.4423 0.1352,0.6634 0.2335,0.7863 0.0983,0.1228 0.1842,-0.0245 0.3808,0.1597 0.1966,0.1843 0.5283,0.3072 0.6389,0.688 0.1106,0.3809 -0.1351,0.9707 -0.4177,1.2532 -0.2826,0.2826 -0.3687,0.1844 -0.4055,0.6021 -0.0368,0.4177 -0.295,0.3133 -0.1107,0.6327 0.1844,0.3195 0.0616,0.1106 0.2827,0.4546 0.2212,0.3439 -0.087,0.7313 -0.087,0.7313z"/>
   <path class="fil5 str0" d="M53.9688 53.6008c0.0737,-0.0368 0.1229,-0.0614 0.43,-0.1965 0.3072,-0.1352 0.4178,-0.0738 0.5406,-0.0124"/>
   <path class="fil5 str0" d="M56.0697 53.1831c0.0983,-0.1229 0.424,-0.3686 0.5652,-0.2181"/>
   <path class="fil5 str0" d="M54.0426 52.9926c0,0 0.4176,0.0246 0.602,-0.0983 0.1843,-0.1229 0.2027,-0.3317 0.2027,-0.3317"/>
   <path class="fil5 str0" d="M55.9286 52.4889c0,0 0.172,0.0614 0.4055,0.086 0.2334,0.0246 0.4177,0.0368 0.4177,0.0368"/>
   <path class="fil5 str0" d="M55.6951 53.3489c0,0 0.258,0.1843 0.3809,0.3317 0.1229,0.1475 0.1843,0.2089 0,0.2949"/>
   <path class="fil6 str0" d="M55.5908 55.3146c-0.0245,-0.2334 -0.0123,-0.7617 0.3809,-0.9091 0.3932,-0.1475 0.7126,0.3563 0.688,0.4914 -0.0246,0.1352 -1.0689,0.4177 -1.0689,0.4177z"/>
   <polygon class="fil7 str0" points="39.2617,75.3734 39.604,80.6692 42.8967,80.792 42.6264,77.3765 77.3715,77.4012 77.347,80.571 81.0327,80.3744 80.9835,77.3275 89.1416,77.4749 89.4365,80.8658 93.024,80.9641 92.9748,77.524 93.712,77.2783 93.5323,75.3202 80.2101,75.3626 80.2021,69.2688 43.0078,69.3179 42.7129,75.4609 "/>
   <path class="fil1 str0" d="M56.5028 57.3593c0,0 2.1255,4.2633 2.1992,4.4476 0.0738,0.1843 -0.2444,1.2605 -0.2444,1.2605l-2.5199 -3.9143 0.5651 -1.7938z"/>
   <path class="fil8 str0" d="M65.4582 80.2166c0.1044,0.1352 0.0061,0.258 0.2149,0.344 0.2089,0.086 0.5283,0.2457 0.7556,0.0553 0.2273,-0.1904 1.204,-2.6108 1.4128,-2.9179 0.2089,-0.3072 0.6266,-0.3808 0.4792,-0.6266 -0.1475,-0.2457 -7.8632,-10.6275 -7.7956,-11.1251 0.0675,-0.4976 2.5737,-3.0408 2.7088,-3.2497 0.1352,-0.2088 -1.7937,0.2089 -1.7937,0.2089 0,0 -2.7951,0.7679 -3.176,2.4879 -0.3809,1.7201 8.3173,11.4749 8.3665,12.1875 0.0491,0.7126 -1.1725,2.6357 -1.1725,2.6357z"/>
   <path class="fil9 str0" d="M52.1693 57.2065l-0.2149 4.7854c0,0 0.7371,0.7617 1.8675,0.7126 1.1303,-0.0492 2.3098,-0.4423 2.6538,-0.6389 0.344,-0.1966 0.2518,-5.0065 0.2518,-5.0065l-0.9337 -0.1229c0,0 -0.2334,1.3761 -1.3146,1.4375 -1.0811,0.0614 -1.29,-1.7201 -1.29,-1.7201l-1.0396 0.4923 0.0197 0.0606z"/>
   <path class="fil10 str0" d="M54.2705 61.1012c0,0 -1.4498,-1.3638 -0.9338,-1.6832 0.516,-0.3195 1.0099,0.2622 1.0099,0.2622 0,0 0.2802,-0.6677 0.7348,-0.3974 0.4546,0.2703 0.5651,0.7986 -0.8109,1.8184z"/>
   <path class="fil11 str0" d="M52.5222 62.3985c0,0 -1.63,-0.2905 -1.8327,-0.2905 -0.2027,0 -1.4742,0.0369 -1.7691,0.258 -0.2949,0.2212 -0.5897,0.5528 -0.6266,0.7618 -0.0369,0.2089 0.2826,1.548 0.4669,1.6463 0.1842,0.0983 0.7003,-0.0369 0.602,-0.2211 -0.0983,-0.1843 -0.6635,-0.8846 -0.2949,-1.3146 0.3686,-0.43 0.8757,-0.745 1.3392,-0.639 0.4635,0.1061 2.9364,0.9952 3.305,1.0198 0.3685,0.0246 2.7522,-0.8108 3.1944,-0.8108 0.4423,0 1.2286,-0.1966 1.4006,-0.0738 0.172,0.1229 0.1475,0.5222 0.2397,0.6942 0.0921,0.172 0.0246,0.946 -0.2273,1.0873 -0.2519,0.1413 0.3441,0.1168 0.5652,-0.0368 0.2211,-0.1536 0.5713,-0.7557 0.5221,-0.9891 -0.0491,-0.2334 -0.0123,-0.731 -0.3317,-0.9583 -0.3195,-0.2273 -0.7245,-0.2826 -0.9641,-0.3563 -0.2396,-0.0738 -0.7679,-0.0615 -1.0812,-0.0922 -0.3133,-0.0307 -4.5075,0.3151 -4.5075,0.3151z"/>
   <path class="fil1 str0" d="M50.1745 64.8232c0,0 -0.6091,-0.0368 -0.8022,-0.2027 -0.193,-0.1659 -0.6516,-1.0477 -0.3045,-1.3821 0.3472,-0.3345 0.8119,-0.6636 1.1559,-0.5899 0.3439,0.0737 2.6565,0.7471 2.7929,0.7887 0.1364,0.0417 0.591,0.3815 0.591,0.3815l-3.4718 1.0016 0.0387 0.0029z"/>
   <path class="fil1 str0" d="M54.0042 64.9381c0.3845,0.1923 2.5278,1.1723 2.7375,1.1198 0.2098,-0.0524 0.236,-0.0371 0.236,-0.0371 0,0 -0.2402,-0.1485 -0.2009,-0.201 0.0393,-0.0524 0.3233,0.0961 0.3845,0.0131 0.0612,-0.083 -0.2185,-0.2491 -0.2185,-0.2491 0,0 0.4544,0.1792 0.5069,0.1005 0.0525,-0.0786 -0.3321,-0.249 -0.3321,-0.249 0,0 0.5157,0.1485 0.5725,0.0568 0.0567,-0.0918 -0.2928,-0.2098 -0.2928,-0.2098 0,0 0.3802,0.2316 0.5637,0.0568 0.1836,-0.1748 -0.4544,-0.3845 -0.6816,-0.4107 -0.2273,-0.0263 -0.5943,-0.0787 -0.8478,-0.07 -0.2534,0.0087 -0.4019,0.0089 -0.5243,-0.0349l-1.9031 0.1146z"/>
   <path class="fil1 str0" d="M58.1978 62.7346c0,0 -1.1811,0.0368 -1.557,0.1597 -0.3759,0.1228 -2.1503,0.4259 -2.5241,0.643 -0.3737,0.217 -1.0649,0.5856 -1.2589,0.6224 -0.194,0.0369 -1.0062,0.0185 -1.3942,0.0063 -0.3881,-0.0123 -0.776,0.1597 -1.0185,0.2825 -0.2425,0.1229 -0.6205,0.2826 -0.4608,0.5529 0.1598,0.2703 0.5092,-0.0921 0.5578,-0.0491 0.0484,0.043 -0.2485,0.2273 -0.1879,0.301 0.0605,0.0737 0.3575,-0.1351 0.3575,-0.1351 0,0 -0.1588,0.2767 -0.0861,0.3136 0.0727,0.0369 0.4092,-0.2337 0.4455,-0.2215 0.0364,0.0122 -0.1503,0.2809 -0.1079,0.3423 0.0424,0.0614 0.4184,-0.2747 0.4366,-0.2257 0.0182,0.0491 -0.1826,0.2434 -0.1037,0.2803 0.0788,0.0369 0.5501,0.0086 0.6895,-0.0836 0.1394,-0.0922 0.6723,-0.3256 0.8178,-0.3993 0.1455,-0.0737 1.0186,-0.086 1.2974,-0.0737 0.2789,0.0122 1.7581,-0.0001 2.3277,-0.1106 0.4915,-0.1106 0.3195,0 1.2778,-0.2826 0.9583,-0.2826 0.8797,-0.9707 0.8797,-0.9707l-0.3882 -0.9521z"/>
   <path class="fil12 str0" d="M65.0201 48.6855c0,0 -0.123,3.4401 0.6388,3.5998 0.7618,0.1597 2.5064,0.0124 2.9978,-0.4422 0.4914,-0.4546 1.5726,-2.8382 1.6954,-3.7228 0.1229,-0.8846 0.3379,-2.5738 0.3011,-2.7397 -0.0368,-0.1659 -0.4117,-1.9413 -0.5346,-2.2669 -0.1229,-0.3256 -0.8294,-1.7077 -1.8615,-2.494 -1.032,-0.7863 -3.1452,0.0245 -4.0052,0.7372 -0.86,0.7126 -1.0075,1.7938 -0.8232,2.2606 0.1843,0.4669 0.0981,3.526 0.5649,4.0912 0.4668,0.5652 1.0265,0.9768 1.0265,0.9768z"/>
   <path class="fil13 str0" d="M63.8412 49.8649c-0.4423,-0.9092 -0.8109,-1.548 -0.7372,-2.4204 0.0737,-0.8723 0.4299,-2.2851 0.1351,-2.8012 -0.2949,-0.516 -0.9583,-1.032 -0.7863,-1.9166 0.172,-0.8846 0.2211,-1.8184 0.7863,-2.3835 0.5652,-0.5652 1.6709,-0.7864 2.752,-1.0812 1.0812,-0.2948 2.6784,-0.3686 3.2927,0 0.6143,0.3686 1.118,1.9904 1.204,2.2484 0.0861,0.258 -0.0736,1.2409 0.2581,1.5234 0.3317,0.2826 0.516,2.5187 0.4914,2.8627 -0.0246,0.344 -0.0737,1.7691 0.0983,2.1869 0.172,0.4177 0.7863,0.5652 0.3932,1.1549 -0.3932,0.5898 -2.2238,-0.2089 -2.5433,-0.4177 -0.3194,-0.2089 -0.6143,-1.6832 -0.5283,-2.0026 0.0861,-0.3195 0.4055,-0.4177 0.4792,-0.8109 0.0737,-0.3932 0.0982,-0.6757 0.2088,-0.7986 0.1106,-0.1229 0.4792,-0.2088 0.6389,-0.5529 0.1597,-0.344 0.3441,-0.5529 0.0492,-0.9091 -0.2949,-0.3563 -0.8846,-0.2213 -1.1058,-0.2581 -0.2211,-0.0368 -1.3146,-0.7865 -1.3883,-1.0444 -0.0738,-0.258 0.0368,-0.7863 -0.4423,-0.9584 -0.4792,-0.172 -0.9215,0.8109 -1.2286,0.9584 -0.3072,0.1474 -1.9167,0.5774 -2.0641,0.6511 -0.1474,0.0737 -0.086,1.7323 0.3195,2.5309 0.4054,0.7986 0.7125,2.0518 1.0934,2.2115 0.3809,0.1597 1.2286,0.1598 1.3392,0.2212 0.1106,0.0614 0.1228,0.5407 -0.1721,0.7249 -0.2949,0.1843 -1.9904,1.2409 -2.2115,1.2164 -0.2211,-0.0246 -0.3315,-0.1351 -0.3315,-0.1351z"/>
   <path class="fil5 str0" d="M65.6767 44.158c-0.0368,0.2088 -0.1473,0.688 -0.3808,0.9829 -0.2335,0.2948 -0.2212,0.3931 0.0245,0.5159 0.2457,0.1229 0.7126,-0.1842 0.7126,-0.1842"/>
   <ellipse class="fil14 str0" cx="67.2248" cy="44.1088" rx="0.2088" ry="0.2457"/>
   <circle class="fil14 str0" cx="64.614" cy="44.4098" r="0.215"/>
   <path class="fil5 str0" d="M64.0304 43.728c0,0 0.3072,-0.4178 0.8232,-0.3195"/>
   <path class="fil5 str0" d="M66.4016 43.2365c0,0 0.2704,-0.43 0.8355,-0.1106"/>
   <path class="fil15 str0" d="M65.2099 46.2836c0,0 1.4252,-0.0246 1.7077,-0.0615 0.2826,-0.0368 -0.2949,0.7126 -0.8109,0.7249 -0.516,0.0123 -0.9829,-0.4055 -0.8968,-0.6634z"/>
   <path class="fil2 str0" d="M70.6563 49.3857c0,0 1.5849,0.7426 2.7398,4.5021 1.1549,3.7595 1.1548,3.9807 0.8108,4.6687 -0.3439,0.688 -1.2324,1.5742 -1.7691,1.8183 -0.5368,0.2442 -1.9167,1.0567 -1.9167,1.0567l-0.6142 -1.3761c0,0 2.064,-1.2777 2.236,-2.1132 0.172,-0.8355 -0.2948,-2.4572 -0.5897,-3.2435 -0.2949,-0.7863 -1.2286,-2.1378 -1.5972,-2.7767 -0.3686,-0.6388 0.7003,-2.5363 0.7003,-2.5363z"/>
   <path class="fil16 str0" d="M68.0267 65.7192c0,0 -3.735,0.5284 -3.6121,0.7618 0.1229,0.2334 7.0642,10.1973 6.7939,11.0573 -0.2703,0.86 -1.4006,2.752 -1.6709,2.7766 -0.2703,0.0246 -1.2286,-0.0983 -1.2286,-0.0983 0,0 1.4744,-1.5972 1.3515,-2.2606 -0.1229,-0.6635 -9.2637,-11.2294 -8.9197,-12.0649 0.344,-0.8354 2.1132,-2.9241 3.2927,-3.2435 1.1795,-0.3195 3.9932,3.0716 3.9932,3.0716z"/>
   <path class="fil17 str1" d="M67.1013 47.979c0.1966,-0.1352 1.1617,-0.9537 1.3515,-0.9584 0.1898,-0.0046 0.4791,0.946 0.2949,1.0689 -0.1843,0.1229 -1.4375,0.3195 -1.6095,0.2212 -0.172,-0.0983 -0.0369,-0.3317 -0.0369,-0.3317z"/>
   <path class="fil18 str0" d="M64.3001 49.7482l1.3023 -0.6881c0,0 -0.4792,2.703 0.774,2.531 1.2532,-0.172 1.3761,-0.1229 1.9535,-0.7249 0.5775,-0.602 1.4006,-2.0149 1.4006,-2.0149l0.9583 0.2826c0,0 -0.1966,1.5234 -0.258,1.9903 -0.0614,0.4669 -0.0492,3.3294 0.0982,4.3369 0.1474,1.0074 -0.0984,1.3268 0.5896,3.2926 0.6881,1.9657 1.7692,3.3909 1.4744,4.7178 -0.2949,1.3269 -0.7618,1.7692 -1.6218,2.1869 -0.86,0.4178 -3.6858,1.0075 -4.0053,0.9829 -0.3194,-0.0245 0.172,-1.1057 -0.344,-1.8183 -0.516,-0.7126 -0.8354,-1.0321 -1.5234,-1.4498 -0.688,-0.4177 -1.0566,-0.2457 -2.015,-0.3685 -0.9583,-0.1229 -2.8012,0.2703 -2.8012,0.2703 0,0 4.2756,-1.5727 4.9145,-2.2115 0.6388,-0.6389 0.4913,-1.0075 0.3931,-1.7446 -0.0983,-0.7372 -0.3194,-1.9412 -0.5897,-2.4327 -0.2703,-0.4914 -1.1303,-1.0319 -1.4006,-1.7691 -0.2703,-0.7373 0.0491,-1.1549 0.3194,-2.1378 0.2703,-0.9829 0.3315,-1.7324 0.3193,-2.1747 -0.0123,-0.4423 0.0618,-1.0564 0.0618,-1.0564z"/>
   <path class="fil5 str0" d="M67.0883 55.1907c0.3439,0.1351 0.7739,0.1719 1.2777,0.0614 0.5037,-0.1106 0.9706,-0.4914 1.2655,-0.774"/>
   <path class="fil19 str0" d="M68.1529 77.0772c0,0 -0.4542,0.9542 -0.6754,1.372 -0.2211,0.4177 -1.2048,2.0989 -1.2969,2.1173 -0.0921,0.0184 -0.6266,-0.3378 -0.7986,-0.2519 -0.172,0.086 -0.7066,0.1966 -0.6329,0.5652 0.0738,0.3686 0.0369,0.6019 0.3932,0.6634 0.3563,0.0615 1.3392,0.172 1.7078,-0.0123 0.3685,-0.1842 1.8306,-2.752 1.8675,-3.1452 0.0368,-0.3932 0.1841,-0.8848 -0.0983,-1.0198 -0.2825,-0.1349 -0.4664,-0.2887 -0.4664,-0.2887z"/>
   <path class="fil20 str0" d="M16.6545 58.3577c0,0 -6.6678,-3.2821 -7.3067,-1.7585 -0.6388,1.5235 -0.3193,7.7157 1.2533,10.5169 1.5726,2.8011 3.1944,4.4721 5.0618,5.3075 1.8675,0.8355 4.4229,1.0321 6.0447,1.0321 1.6218,0 8.7968,-1.1796 9.19,-1.671 0.3932,-0.4914 1.2778,-1.2777 0.1966,-1.4251 -1.0812,-0.1475 -0.0737,-1.6218 -0.0737,-1.6218l-14.366 -10.3801z"/>
   <path class="fil21 str0" d="M71.2669 77.5686c0,0 0.3563,0.2704 0.3195,0.5222 -0.0368,0.2519 -1.1857,1.9166 -1.3086,2.2115 -0.1229,0.2949 -0.0859,1.0321 -0.2457,1.1058 -0.1597,0.0737 -2.1378,0.086 -2.3589,-0.0246 -0.2212,-0.1105 -0.1843,-0.4669 0.0491,-0.6757 0.2334,-0.2089 0.4339,-0.3193 0.5867,-0.4912 0.1528,-0.1719 0.9368,-0.0862 1.1702,-0.1845 0.2335,-0.0983 0.9092,-1.1549 0.9952,-1.3269 0.086,-0.1721 0.7925,-1.1366 0.7925,-1.1366z"/>
   <path class="fil0 str0" d="M80.2101 75.3626l-0.008 -6.0938c0,0 -0.9861,-9.5752 4.1363,-9.9274 7.8631,-0.5405 3.9929,6.6837 4.816,15.9719l-8.9443 0.0493z"/>
   <path class="fil5 str0" d="M38.6831 58.9608l4.6687 -0.0983 1.9166 0.639c0,0 3.2555,3.4638 2.2235,3.8324 -1.0321,0.3686 -1.6709,0.4669 -2.3098,1.0811 -0.6389,0.6143 -1.9166,2.4572 -2.0149,2.6293 -0.0983,0.172 0.0983,-3.4401 -0.2703,-4.5213 -0.3686,-1.0812 -0.4669,-1.5971 -1.2778,-2.236 -0.8108,-0.6389 -1.7325,-1.0328 -2.3343,-1.1795 -0.6017,-0.1467 -0.6017,-0.1467 -0.6017,-0.1467z"/>
   <path class="fil22 str0" d="M81.2286 50.0804c0,0 2.507,0.7463 3.4408,2.0731 0.9337,1.3269 1.2777,2.9978 1.4251,3.6858 0.1475,0.688 0.6152,3.6376 0.6152,3.6376 0,0 1.4213,0.4575 2.031,1.4016 0.6097,0.9441 0.7159,3.1697 0.6245,4.7101 -0.0915,1.5405 -0.1298,3.7045 -0.312,5.4242 -0.1821,1.7197 0.0859,4.1218 0.0859,4.1218l4.3932 0.1856c0,0 0.2395,-13.1576 -0.4628,-13.9952 -0.7023,-0.8377 -2.0972,-2.2164 -2.0972,-2.2164 0,0 -0.5778,-4.9033 -1.8555,-6.304 -1.2777,-1.4006 -4.4841,-2.7386 -4.4841,-2.7386l-3.4041 0.0144z"/>
   <path class="fil23 str0" d="M16.9368 50.1629l0.0983 2.0887c0,0 2.6045,2.4202 2.9731,2.5799 0.3686,0.1597 0.8355,-0.3931 0.7126,-0.602 -0.1229,-0.2088 -1.5235,-1.3883 -1.5726,-1.6463 -0.0491,-0.2581 -0.0983,-1.4007 -0.1229,-1.6464 -0.0245,-0.2457 -2.1135,-0.9089 -2.1135,-0.9089l0.025 0.135z"/>
   <path class="fil24 str0" d="M73.5627 62.6826c0,0 3.3418,-5.2092 6.3888,-6.4378 3.0469,-1.2287 8.6985,-0.5405 9.4357,0.4914 0.7371,1.032 -1.9454,2.2015 -2.7311,2.4047 -0.7857,0.2032 -3.1662,-0.439 -4.3457,0.4948 -1.1794,0.9337 -1.3446,4.6627 -1.9746,4.8868 -0.6301,0.2242 -4.6598,-0.2181 -6.7731,-1.8399z"/>
   <path class="fil25 str0" d="M19.3078 51.0599c-0.9583,-0.0738 -1.5971,-0.0492 -2.4571,-1.1058 -0.8601,-1.0566 -1.1304,-1.3023 -1.1304,-1.3023 0,0 -0.7127,0.2211 -0.8478,-0.4669 -0.1351,-0.688 -0.1719,-1.0934 0.086,-1.1426 0.258,-0.0491 0.6021,0.172 0.9092,0.1843 0.3072,0.0123 0.5283,-0.1351 0.7863,-0.4423 0.258,-0.3072 0.5284,-0.5651 0.5406,-1.032 0.0123,-0.4669 0.0737,-0.774 0.0614,-0.9092 -0.0123,-0.1352 0.7986,0.4423 1.2655,0.6635 0.4669,0.2211 1.9658,0.4053 2.2975,0.4668 0.3317,0.0615 0.4424,0.2581 0.4546,0.3809 0.0123,0.1228 -0.086,1.9781 -0.2211,2.5064 -0.1352,0.5283 -0.1475,0.7986 -0.4424,1.2286 -0.2948,0.43 -0.2825,0.5652 -0.688,0.7249 -0.4054,0.1597 -0.3194,0.1597 -0.6143,0.2457z"/>
   <path class="fil5 str0" d="M19.357 47.2757c0.0246,0.1106 0.2581,0.3687 0.4178,0.6758 0.1597,0.3071 0.4177,0.4177 0.0246,0.5406 -0.3932,0.1228 -0.4424,-0.0983 -0.4424,-0.0983"/>
   <ellipse class="fil14 str0" cx="17.9564" cy="47.4047" rx="0.2457" ry="0.2887"/>
   <ellipse class="fil14 str0" cx="20.5119" cy="47.3617" rx="0.2088" ry="0.258"/>
   <path class="fil5 str0" d="M17.4404 46.6c0.1475,-0.3195 0.7003,-0.3563 0.9338,-0.2457"/>
   <path class="fil5 str0" d="M20.0328 46.4034c0,0 0.5651,-0.1597 0.7617,0.1351"/>
   <path class="fil26 str2" d="M18.4725 49.3521c0,0 0.5405,0.6143 0.9214,0.6511 0.3809,0.0369 0.7126,-0.4668 0.7986,-0.6388 0.086,-0.172 -0.2334,-0.2089 -0.6143,-0.1966 -0.3809,0.0123 -1.1057,0.1843 -1.1057,0.1843z"/>
   <path class="fil27 str0" d="M28.0466 58.5037c0,0 3.4892,-2.9487 3.6735,-2.9978 0.1843,-0.0492 2.8381,-0.0983 2.8381,-0.0983l-4.9022 3.9315 -1.6094 -0.8354z"/>
   <path class="fil28 str0" d="M16.0647 53.6767c0.2948,-0.0737 1.0073,-0.2826 1.5234,0.4791 0.516,0.7618 1.7938,6.4624 2.7398,6.7204 0.946,0.258 5.8851,-1.4005 6.2045,-1.7691 0.3194,-0.3686 0.1106,-0.6511 0.7003,-0.86 0.5897,-0.2089 1.2163,-0.4792 1.3638,-0.3932 0.1474,0.086 -0.8846,0.6757 -0.7495,0.86 0.1351,0.1844 2.1993,-0.2089 2.4081,-0.1228 0.2089,0.086 -0.2335,0.3931 -0.2335,0.3931 0,0 0.2212,0.0615 0.2703,0.1966 0.0492,0.1352 -0.2948,0.1966 -0.3686,0.2703 -0.0737,0.0737 -0.1105,0.1352 -0.3562,0.2089 -0.2458,0.0737 -1.6709,0.688 -1.9289,0.7371 -0.2581,0.0492 -5.5778,2.531 -6.1675,2.5556 -0.5898,0.0245 -1.0566,0.2703 -2.3589,-1.0321 -1.3024,-1.3023 -1.6218,-1.8674 -2.4573,-3.5629 -0.8354,-1.6955 -1.3268,-2.8504 -1.3023,-3.4647 0.0246,-0.6143 1.0074,-1.4252 0.7125,-1.2163z"/>
   <path class="fil29 str0" d="M22.6809 57.8847c0,0 1.0689,1.0566 1.5173,0.9338 0.4485,-0.1229 3.1271,-5.7991 3.4342,-5.9465 0.3072,-0.1474 1.5973,0.258 2.0151,0.1598 0.4177,-0.0983 1.1425,-0.6881 1.462,-0.7741 0.3195,-0.086 0.4177,-0.2948 0.5529,-0.1105 0.1352,0.1842 -1.0689,1.7568 -1.6218,1.9288 -0.5528,0.1721 -1.4743,-0.1106 -1.6094,0.1229 -0.1352,0.2335 -1.936,4.5686 -2.0393,4.816 -0.1034,0.2475 -3.7351,1.6955 -3.907,1.757 -0.172,0.0614 0.196,-2.8872 0.196,-2.8872z"/>
   <path class="fil30 str0" d="M29.6234 62.9217c0,0 3.7416,-0.1299 4.2636,0.1351 0.5221,0.265 4.7425,15.6032 5.0374,16.6353 0.2949,1.032 0.86,1.4989 0.3686,1.5726 -0.4914,0.0737 -1.2531,-0.4669 -1.376,-0.6881 -0.1229,-0.2211 -4.9635,-14.3746 -5.8236,-14.7678 -0.86,-0.3931 -3.6858,-0.8354 -3.7841,-1.0074 -0.0982,-0.172 1.3141,-1.8797 1.3141,-1.8797z"/>
   <path class="fil31 str0" d="M29.6234 62.9217c-0.1228,0.2703 -0.6634,1.3023 -0.4914,2.3098 0.172,1.0075 0.6388,2.3835 0.8108,2.6292 0.1721,0.2457 0.8109,-0.5897 1.0812,-0.3931 0.2703,0.1966 4.8286,13.6251 5.0498,13.7726 0.2212,0.1474 0.7617,0.0982 0.8355,-0.0983 0.0737,-0.1965 -3.9069,-17.2742 -4.3983,-17.7165 -0.4915,-0.4422 -2.8876,-0.5037 -2.8876,-0.5037z"/>
   <path class="fil32 str0" d="M17.0351 52.2516l-0.9869 1.2586c0,0 0.9338,-0.0245 1.2655,0.2089 0.3317,0.2334 2.2262,6.8384 2.795,7.0104 0.5689,0.172 2.2467,-0.1235 2.2915,-0.2778 0.0448,-0.1543 0.1682,-2.2837 0.2807,-2.567 0.1125,-0.2833 0.2722,-0.9836 0.0757,-1.5119 -0.1966,-0.5283 -1.2041,-1.499 -1.4621,-1.6833 -0.258,-0.1843 -1.3759,-0.6145 -2.0149,-0.9953 -0.6389,-0.3809 -2.2445,-1.4426 -2.2445,-1.4426z"/>
   <path class="fil27 str0" d="M30.1776 68.5724c0,0 -2.2361,0.6635 -3.0224,0.4669 -0.7863,-0.1966 -7.5191,-4.3492 -7.814,-5.3812 -0.2949,-1.0321 -0.0909,-1.6017 -0.0909,-1.6017 0,0 0.757,0.8956 1.6403,0.9292 0.8833,0.0336 1.8907,-0.2121 2.2593,-0.335 0.3686,-0.1229 0.344,0.4914 0.9092,0.516 0.5652,0.0246 5.0865,-0.7126 5.455,-0.6634 0.3686,0.0491 -0.2826,1.6954 -0.2211,2.2483 0.0614,0.5529 0.8846,3.8209 0.8846,3.8209z"/>
   <path class="fil33 str0" d="M15.0289 46.8384c0,0 -0.0247,-1.978 -0.1475,-2.0763 -0.1228,-0.0983 -0.5774,0.5406 -1.0074,0.43 -0.43,-0.1105 -1.1057,-0.3685 -1.204,-1.6709 -0.0983,-1.3023 0.8599,-2.58 1.6217,-2.7766 0.7618,-0.1966 1.6218,-0.2948 2.0887,0.1474 0.4669,0.4423 0.2211,1.2286 0.3931,1.4252 0.1721,0.1966 1.4989,-0.2948 2.8258,0.2703 1.3269,0.5651 1.7692,1.0565 1.9904,1.5726 0.2211,0.516 0.2949,1.3023 0.2211,1.5726 -0.0737,0.2703 -1.0728,0.5695 -1.4252,0.344 -0.3523,-0.2254 -2.6466,-0.8503 -3.0433,-1.236 -0.3967,-0.3857 0.5464,0.5274 -0.4688,1.6844 -1.0151,1.1569 -1.8446,0.3133 -1.8446,0.3133z"/>
   <path class="fil34 str0" d="M15.9334 81.5153c0.5406,0.3931 2.3339,-2.8032 3.0469,-3.6367 0.713,-0.8334 2.4497,-3.2418 2.4573,-3.8332 0.0075,-0.5914 -2.3099,-2.2607 -5.5042,7.4699z"/>
   <path class="fil34 str0" d="M15.6629 72.4236c0,0 -6.4132,8.1578 -5.5286,8.7968 0.8846,0.6389 6.1921,-6.6345 6.6344,-6.7819 0.4424,-0.1474 7.3717,0.4423 7.7648,0.4423 0.3932,0 3.5876,6.9785 4.6196,6.7819 1.032,-0.1966 -2.6538,-7.0276 -2.2607,-7.2242 0.3932,-0.1966 0.4958,-1.7457 0.4958,-1.7457l-11.7253 -0.2692z"/>
   <path class="fil34 str0" d="M32.667 80.1639l-4.3247 -6.4379 1.6218 -0.9092c0,0 3.4155,5.971 3.3664,6.3887 -0.0492,0.4178 -0.1966,1.1058 -0.6635,0.9584z"/>
   <polygon class="fil34 str0" points="26.8924,74.4385 30.5293,73.554 30.1205,72.0998 27.3882,72.6928 "/>
   <path class="fil35 str0" d="M34.1171 82.0313l-0.5897 -4.4475 1.0446 -0.3708c0,0 1.062,3.9443 1.5018,4.0272 0.4398,0.0828 0.8355,-0.0983 0.8355,-0.0983 0,0 0.5496,0.1032 0.7216,0.398 0.172,0.2948 0.1229,0.4914 -0.344,0.5652 -0.4669,0.0737 -1.8429,0.1474 -2.0149,0 -0.172,-0.1475 -0.9337,-3.047 -0.9337,-3.047 0,0 0.4668,2.9732 0.1228,2.9732 -0.344,0 -0.344,0 -0.344,0z"/>
   <path class="fil35 str0" d="M36.7703 77.3716l-0.6743 -0.0101c0,0 0.7364,4.2029 0.9698,4.3504 0.2335,0.1474 1.5726,0.3317 1.806,0.3194 0.2335,-0.0122 0.9584,-0.0123 1.0812,-0.1474 0.1229,-0.1351 0.1352,-0.5651 -0.0245,-0.6634 -0.1597,-0.0983 -0.4793,-0.3072 -0.6512,-0.1966 -0.172,0.1105 -0.9461,0.2457 -1.3392,-0.1475 -0.3931,-0.3931 -0.5312,-2.3543 -0.7863,-2.752 -0.255,-0.3978 -0.3815,-0.7528 -0.3815,-0.7528z"/>
  </g>
 </g>
</svg>
