<?xml version="1.0" encoding="UTF-8"?>
<!DOCTYPE svg PUBLIC "-//W3C//DTD SVG 1.1//EN" "http://www.w3.org/Graphics/SVG/1.1/DTD/svg11.dtd">
<!-- Creator: CorelDRAW 2019 (64-Bit) -->
<svg xmlns="http://www.w3.org/2000/svg" xml:space="preserve" width="300mm" height="200mm" version="1.1" style="shape-rendering:geometricPrecision; text-rendering:geometricPrecision; image-rendering:optimizeQuality; fill-rule:evenodd; clip-rule:evenodd"
viewBox="0 0 300 200"
 xmlns:xlink="http://www.w3.org/1999/xlink"
 xmlns:xodm="http://www.corel.com/coreldraw/odm/2003">
 <defs>
  <style type="text/css">
   <![CDATA[
    .str0 {stroke:#2B2A29;stroke-width:0.2;stroke-miterlimit:22.9256}
    .str1 {stroke:#543834;stroke-width:0.2;stroke-miterlimit:22.9256}
    .fil3 {fill:none}
    .fil16 {fill:#FEFEFE}
    .fil1 {fill:#FEFEFE}
    .fil14 {fill:#5B5B5B}
    .fil2 {fill:#2B2A29}
    .fil9 {fill:#FFFBDB}
    .fil8 {fill:#A75F4A}
    .fil11 {fill:#61A375}
    .fil15 {fill:#008DD2}
    .fil17 {fill:#1C1B17}
    .fil12 {fill:#319990}
    .fil7 {fill:#543834}
    .fil10 {fill:#74C2E0}
    .fil0 {fill:#FA4270}
    .fil6 {fill:#FCF534}
    .fil4 {fill:#FEDE91}
    .fil13 {fill:#FF3F4B}
    .fil5 {fill:#FFA047}
   ]]>
  </style>
 </defs>
 <g id="Layer_x0020_1">
  <metadata id="CorelCorpID_0Corel-Layer"/>
  <g id="_2435576346928">
   <path class="fil0 str0" d="M47.0396 155.0884c0,0 -0.8328,0.7865 -2.3596,0.694 -1.5268,-0.0926 -2.4522,-0.9254 -3.0074,-0.8791 -0.5552,0.0463 -2.5446,3.1924 -4.4415,2.0357 -1.897,-1.1566 1.4342,-3.47 2.1745,-4.0252 0.7402,-0.5552 -5.9221,0.8328 -5.6908,-1.4805 0.2313,-2.3133 0.7865,-2.082 1.5268,-2.4521 0.7403,-0.3701 2.5909,0.9253 3.0998,0.5552 0.509,-0.3701 0.8791,-2.776 1.8507,-3.6088 0.9716,-0.8328 2.7297,-1.1567 2.7297,-1.1567 0,0 -2.5446,-1.8506 -1.8506,-2.3596 0.694,-0.5089 3.6088,1.5268 3.6088,1.5268 0,0 -2.4522,-2.5446 -1.0179,-3.6088 1.4343,-1.0641 2.1283,2.5447 2.4521,2.8223 0.3239,0.2776 0.1388,-3.8401 2.776,-2.8223 2.6372,1.0179 -0.3701,3.6551 -0.3701,4.164 0,0.509 2.9148,0.9254 2.9148,1.4343 0,0.5089 -3.0999,-0.0463 -2.8685,0.6477 0.2313,0.694 3.0535,3.5626 3.2386,4.5804 0.1851,1.0179 0.3239,3.5163 0,4.5341 -0.3238,1.0179 -1.2029,4.2566 -1.2029,4.9968 0,0.7403 2.082,0.8791 2.082,0.8791 0,0 1.2954,-3.4237 2.4984,-3.6088 1.2029,-0.1851 2.0357,0.2313 2.4521,0.694 0.4164,0.4627 1.388,-0.4627 2.082,0.4164 0.694,0.8791 -0.3239,3.0073 -0.3239,3.0073 0,0 0.7866,0.4164 0.694,1.6194 -0.0925,1.2029 -1.4342,1.6193 -1.4342,1.6193 0,0 0.3238,0.5552 0.185,0.879 -0.1388,0.3239 -6.9862,0.7866 -7.2638,1.2955 -0.2776,0.5089 0.3239,1.2955 1.4805,1.3417 1.1567,0.0463 3.9327,-0.1388 5.552,-1.388 1.6193,-1.2492 7.3101,-5.8758 9.022,-6.9862 1.7118,-1.1104 6.5236,-3.0536 7.5183,-3.123 0.9947,-0.0694 2.8454,-0.7865 3.3312,0.2314 0.4858,1.0178 1.1335,1.8044 0.8328,2.776 -0.3007,0.9715 -0.4164,1.3417 -1.1567,1.7581 -0.7402,0.4164 -1.2954,0.2313 -1.6887,0.185 -0.3933,-0.0462 0.7403,-0.7634 0.7403,-0.7634 0,0 0.8559,-0.6245 0.9022,-1.0178 0.0462,-0.3933 0.5089,-1.2723 0.2313,-1.735 -0.2776,-0.4627 -1.1104,-0.694 -2.7991,-0.1619 -1.6888,0.532 -4.3953,2.8685 -6.0609,4.3953 -1.6656,1.5268 -4.858,5.5057 -6.6162,6.6624 -1.7581,1.1567 -3.0536,3.4237 -6.8474,4.4416 -3.7939,1.0178 -8.4668,-0.7866 -8.6981,-1.0642 -0.2314,-0.2776 -2.9148,-1.3417 -4.8117,-1.8969 -1.897,-0.5552 -2.591,-0.6014 -3.285,-2.5446 -0.694,-1.9432 -1.9894,-3.979 -1.2492,-4.858 0.7403,-0.8791 0.1388,-0.6478 1.897,-2.082 1.7581,-1.4343 2.0357,-2.1283 3.5162,-3.1462 1.4806,-1.0178 1.9432,-1.0641 2.8685,-1.9894 0.9254,-0.9253 0.7866,-1.4343 0.7866,-1.4343z"/>
   <ellipse class="fil1 str0" cx="43.9166" cy="148.935" rx="1.5268" ry="1.4805"/>
   <ellipse class="fil2 str0" cx="44.1016" cy="148.8367" rx="0.5321" ry="0.48"/>
   <path class="fil3 str0" d="M53.4012 163.4049c1.0179,-0.6246 3.4469,-2.9611 3.7939,-3.4006"/>
   <path class="fil3 str0" d="M53.8639 164.7697c0.5783,-0.0231 4.164,-1.8969 4.6729,-2.267"/>
   <path class="fil3 str0" d="M53.008 166.2965c0.5552,-0.0231 3.8632,-0.3007 4.3953,-0.8559"/>
  </g>
  <g id="_2435576378928">
   <path class="fil4 str0" d="M95.6449 48.0908c0.5369,-0.2983 3.4226,-2.2205 5.5703,-2.7574 2.1477,-0.537 5.7761,0.5258 5.3042,1.635 -0.4719,1.1093 -1.9037,4.3905 -3.6934,3.7939 -1.7898,-0.5966 -7.1811,-2.6715 -7.1811,-2.6715z"/>
   <path class="fil5 str0" d="M85.5548 44.1701c0.7159,-3.1619 3.6988,-9.3665 7.0397,-11.8125 3.3409,-2.446 17.838,-9.3067 18.7925,-8.4119 0.9545,0.8949 1.9091,5.9063 3.1023,5.5483 1.1931,-0.3579 3.8778,-1.9687 4.2954,-2.9233 0.4176,-0.9545 3.6988,0.7756 4.4147,3.0426 0.7159,2.2671 2.1478,8.1733 0.8353,8.4716 -1.3125,0.2983 -4.8324,-1.0739 -5.4886,-0.2387 -0.6563,0.8353 1.1335,2.446 -0.537,3.2813 -1.6704,0.8352 -10.6789,4.534 -12.8863,5.071 -2.2073,0.5369 -4.8323,0.1789 -7.7556,1.3721 -2.9233,1.1932 -6.4432,0.8352 -8.2329,-0.1193 -1.7898,-0.9545 -4.1165,-1.0142 -3.5795,-3.2812z"/>
   <path class="fil4 str0" d="M92.8928 31.4031c0,0 2.2074,-3.2812 5.3693,-5.3096 3.1619,-2.0284 9.0681,-4.7131 10.4403,-4.5938 1.3721,0.1193 4.892,-0.5966 5.4289,-0.2983 0.5369,0.2983 -2.5653,3.6392 -4.1164,4.4744 -1.5512,0.8353 -17.1221,5.7273 -17.1221,5.7273z"/>
   <path class="fil4 str0" d="M118.2179 40.1431c1.7898,0.4474 5.9062,3.0724 5.4886,4.0568 -0.4176,0.9843 -2.9829,3.6988 -5.6676,3.8778 -2.6846,0.179 -9.426,0.3579 -10.2613,0.179 -0.8352,-0.179 -2.0284,-2.5057 -1.909,-2.983 0.1193,-0.4773 12.3493,-5.1306 12.3493,-5.1306z"/>
   <path class="fil4 str0" d="M100.1413 37.0408c1.3722,-1.0142 7.8153,-5.4886 9.6051,-4.0568 1.7897,1.4318 1.0142,2.0284 -2.7443,3.4006 -3.7585,1.3721 -6.8608,0.6562 -6.8608,0.6562z"/>
   <path class="fil6 str0" d="M85.0476 45.0948c-0.1193,-1.8495 6.3239,-13.304 8.2926,-12.588 1.9687,0.7159 4.5341,4.713 4.8324,6.7414 0.2983,2.0284 0.2386,6.2045 -1.0142,7.0397 -1.2529,0.8353 -3.958,2.1517 -5.0779,1.9743 -1.1199,-0.1774 -5.959,-0.4231 -7.0329,-3.1674z"/>
   <ellipse class="fil7 str1" cx="91.5206" cy="38.7411" rx="0.9844" ry="0.8949"/>
  </g>
  <g id="_2435378569088">
   <path class="fil4 str0" d="M165.5726 192.1373c1.1343,-3.4029 -1.1343,-5.2664 1.5394,-7.6971 2.6738,-2.4307 11.3432,-7.7781 13.6118,-7.8592 2.2686,-0.081 5.9146,2.6738 8.5073,4.9424 2.5928,2.2686 5.2665,2.6737 5.9957,3.484 0.7292,0.8102 -1.7825,2.4306 -3.8891,4.8613 -2.1066,2.4307 -2.5927,5.1854 -4.7803,5.8336 -2.1876,0.6482 -8.3453,-2.7547 -13.7738,-1.7825 -5.4285,0.9723 -6.8059,1.7825 -7.13,0.4862 -0.3241,-1.2964 -0.081,-2.2687 -0.081,-2.2687z"/>
   <path class="fil3 str0" d="M183.1238 177.2081c0,0 -2.4405,1.9657 -1.9544,6.665 0.4862,4.6993 6.1577,10.857 6.1577,10.857"/>
   <path class="fil3 str0" d="M192.9491 183.8218c0,0 -0.4771,0.0513 -0.1935,1.2666 0.2836,1.2154 0.8471,2.4678 0.8471,2.4678"/>
   <path class="fil3 str0" d="M190.0979 182.2154c-0.2186,0.4829 -0.0565,0.6854 0.1055,2.4679 0.1621,1.7825 1.4989,4.4563 1.4989,4.4563"/>
   <path class="fil3 str0" d="M186.9015 179.6088c-0.2226,1.0639 0.2231,4.8315 0.8712,6.0468 0.6482,1.2153 2.7837,5.2216 2.7837,5.2216"/>
   <path class="fil3 str0" d="M184.6037 178.0139c0,0 -0.6795,2.9829 -0.0313,5.9807 0.6481,2.9979 4.6405,9.0678 4.6405,9.0678"/>
  </g>
  <g id="_2435545286384">
   <ellipse class="fil8 str0" cx="279.9614" cy="37.1135" rx="7.6403" ry="7.526"/>
   <path class="fil8 str0" d="M279.1116 29.5484l0.0326 -0.4245c0,0 0.351,-0.2857 0.3265,-0.5142 -0.0245,-0.2286 -0.8734,-2.9467 0.4572,-2.8406 1.3305,0.1061 0.4326,2.4569 0.4652,2.7345 0.0327,0.2775 0.2612,0.6121 0.2612,0.6121l0.0021 0.4061 -1.5448 0.0266z"/>
   <path class="fil8 str0" d="M284.66 31.2881l0.3093 -0.2924c0,0 0.4519,0.0241 0.5873,-0.1616 0.1354,-0.1858 1.3325,-2.7695 2.2469,-1.7971 0.9143,0.9724 -1.3301,2.1106 -1.4923,2.3381 -0.1623,0.2275 -0.2178,0.629 -0.2178,0.629l-0.2713 0.3022 -1.1621 -1.0182z"/>
   <path class="fil8 str0" d="M287.4677 36.4112l0.4238 0.0408c0,0 0.2789,0.3565 0.5079,0.3364 0.229,-0.0201 2.9629,-0.8167 2.8313,0.5116 -0.1317,1.3282 -2.4649,0.3853 -2.743,0.4126 -0.2781,0.0273 -0.6171,0.2494 -0.6171,0.2494l-0.406 -0.0057 0.0031 -1.5451z"/>
   <path class="fil8 str0" d="M285.8017 41.9587l0.2698 0.3294c0,0 -0.0563,0.449 0.1194,0.5973 0.1756,0.1483 2.6677,1.5261 1.6327,2.369 -1.035,0.8428 -2.0107,-1.4768 -2.2261,-1.6549 -0.2154,-0.178 -0.6118,-0.2619 -0.6118,-0.2619l-0.2822 -0.2921 1.0982 -1.0868z"/>
   <path class="fil8 str0" d="M280.7287 44.6658l-0.0253 0.425c0,0 -0.346,0.2917 -0.3175,0.5198 0.0284,0.2281 0.9242,2.9311 -0.4079,2.8481 -1.3322,-0.0831 -0.4751,-2.4491 -0.5126,-2.726 -0.0374,-0.277 -0.2717,-0.6076 -0.2717,-0.6076l-0.0091 -0.406 1.5441 -0.0533z"/>
   <path class="fil8 str0" d="M275.1532 43.0563l-0.331 0.2677c0,0 -0.4487,-0.059 -0.5981,0.1157 -0.1493,0.1748 -1.5426,2.6583 -2.379,1.6181 -0.8364,-1.0402 1.4892,-2.0015 1.6686,-2.2158 0.1793,-0.2143 0.2657,-0.6102 0.2657,-0.6102l0.2938 -0.2804 1.08 1.1049z"/>
   <path class="fil8 str0" d="M272.3439 37.9442l-0.4243 -0.034c0,0 -0.2846,-0.3519 -0.5132,-0.3282 -0.2286,0.0237 -2.9495,0.8637 -2.8391,-0.4665 0.1105,-1.3302 2.4584,-0.4245 2.736,-0.4563 0.2777,-0.0317 0.6131,-0.2591 0.6131,-0.2591l0.4061 -0.0007 0.0214 1.5448z"/>
   <path class="fil8 str0" d="M274.096 32.3645l-0.2812 -0.3196c0,0 0.0403,-0.4508 -0.1405,-0.5928 -0.1808,-0.1419 -2.72,-1.4308 -1.7155,-2.3097 1.0045,-0.8789 2.0616,1.4048 2.2832,1.5751 0.2216,0.1702 0.6208,0.2401 0.6208,0.2401l0.2922 0.2819 -1.059 1.125z"/>
   <ellipse class="fil1 str0" cx="280.0022" cy="37.0754" rx="5.3767" ry="5.1415"/>
   <path class="fil8 str0" d="M276.6349 41.3457l0.2005 -0.1801c0,0 0.0392,-0.4436 0.1111,-0.5574 0.072,-0.1138 1.9596,-1.8365 1.9596,-1.8365l-0.6113 -0.7705c0,0 -1.9497,1.906 -2.002,1.9221 -0.0524,0.016 -0.5983,0.1534 -0.5983,0.1534l-0.1865 0.1659 1.1269 1.1031z"/>
   <path class="fil8 str0" d="M280.6829 42.4315l0.0069 -0.2694c0,0 -0.2953,-0.3334 -0.3285,-0.4639 -0.0332,-0.1304 0.0128,-2.6856 0.0128,-2.6856l-0.9799 -0.0855c0,0 0.0445,2.7262 0.0203,2.7753 -0.0243,0.049 -0.2997,0.54 -0.2997,0.54l-0.0077 0.2494 1.5758 -0.0603z"/>
   <path class="fil8 str0" d="M279.1241 31.8665l-0.0082 0.2694c0,0 0.2939,0.3347 0.3265,0.4653 0.0327,0.1306 -0.0245,2.6855 -0.0245,2.6855l0.9795 0.0898c0,0 -0.0326,-2.7264 -0.0081,-2.7753 0.0245,-0.049 0.302,-0.5388 0.302,-0.5388l0.0088 -0.2493 -1.576 0.0534z"/>
   <path class="fil8 str0" d="M283.2191 32.845l-0.1995 0.1812c0,0 -0.0368,0.4438 -0.1081,0.558 -0.0713,0.1142 -1.9495,1.8472 -1.9495,1.8472l0.6155 0.7672c0,0 1.9393,-1.9166 1.9915,-1.933 0.0522,-0.0164 0.5974,-0.1568 0.5974,-0.1568l0.1856 -0.1668 -1.1329 -1.097z"/>
   <path class="fil8 str0" d="M275.532 34.0329l0.1858 0.1952c0,0 0.4446,0.0264 0.5604,0.095 0.1158,0.0687 1.8921,1.9059 1.8921,1.9059l0.7526 -0.6332c0,0 -1.9613,-1.894 -1.9789,-1.9459 -0.0176,-0.0518 -0.1706,-0.5935 -0.1706,-0.5935l-0.1712 -0.1817 -1.0702 1.1582z"/>
   <path class="fil8 str0" d="M274.56 37.9539l0.2693 0.0094c0,0 0.3361,-0.2922 0.4668,-0.3243 0.1308,-0.032 2.6854,0.0373 2.6854,0.0373l0.0945 -0.979c0,0 -2.7265,0.0196 -2.7753,-0.0051 -0.0489,-0.0247 -0.5373,-0.3046 -0.5373,-0.3046l-0.2494 -0.01 0.046 1.5763z"/>
   <path class="fil8 str0" d="M284.1691 40.3053l-0.1862 -0.1949c0,0 -0.4446,-0.0255 -0.5606,-0.0938 -0.1159,-0.0684 -1.8961,-1.902 -1.8961,-1.902l-0.7513 0.6349c0,0 1.9653,1.8899 1.983,1.9417 0.0177,0.0518 0.1719,0.5932 0.1719,0.5932l0.1715 0.1813 1.0678 -1.1604z"/>
   <path class="fil8 str0" d="M285.3336 36.4363l-0.2692 -0.0109c0,0 -0.3377,0.2905 -0.4686,0.3218 -0.1309,0.0313 -2.6851,-0.0518 -2.6851,-0.0518l-0.0997 0.9786c0,0 2.7265,-0.005 2.7752,0.02 0.0487,0.025 0.5356,0.3075 0.5356,0.3075l0.2493 0.0113 -0.0375 -1.5765z"/>
   <ellipse class="fil8 str0" cx="279.9541" cy="37.1784" rx="1.9398" ry="1.9284"/>
   <ellipse class="fil9 str0" cx="279.8959" cy="37.2172" rx="0.8612" ry="0.8897"/>
  </g>
  <path class="fil10 str0" d="M267.3034 146.6679c-0.4993,0 -1.7668,-0.1153 -2.3045,0.192 -0.5377,0.3073 -0.8066,1.9588 -1.7668,1.9204 -0.9602,-0.0384 -1.3059,-1.9588 -2.2277,-2.1124 -0.9218,-0.1537 -4.1866,2.0356 -4.6475,2.1124 -0.4609,0.0769 -0.8834,-0.6145 -0.8834,-0.6145 0,0 -1.9012,0.3841 -2.2853,0.1728 -0.3841,-0.2112 -0.941,-0.6145 -0.941,-0.6145 0,0 -1.0946,-0.1344 -1.3635,-0.3265 -0.2689,-0.192 0.048,-0.8353 -0.072,-0.8833 -0.1201,-0.0481 -1.5748,-0.4994 -1.69,-0.6578 -0.1153,-0.1584 -0.1009,-1.3395 -0.3313,-1.5987 -0.2305,-0.2593 -1.642,-0.701 -2.3718,-1.8916 -0.7297,-1.1907 0.3457,-2.0741 0.3457,-2.0741 0,0 -0.8834,-0.5761 -0.8834,-1.7284 0,-1.1523 0.6914,-2.4198 0.6914,-2.4198 0,0 -0.4225,-1.4595 -0.1153,-2.3429 0.3073,-0.8834 1.1523,-1.2675 1.1523,-1.2675 0,0 -0.6146,-0.6913 0.1344,-1.8436 0.749,-1.1522 1.3635,-1.4211 1.3635,-1.4211 0,0 0.192,-1.7092 1.0754,-2.1893 0.8834,-0.4801 2.0357,-0.4609 2.0357,-0.4609 0,0 0.5953,-1.4403 1.4115,-1.6804 0.8162,-0.24 2.727,0.0096 2.6598,0 -0.0672,-0.0096 0.1825,-1.1906 1.45,-1.1714 1.2674,0.0192 1.978,0.9602 1.978,0.9602 0,0 1.2675,-0.749 1.9973,-0.5761 0.7297,0.1728 2.4005,1.6707 2.4005,1.6707 0,0 0.6529,-0.9218 2.1893,-0.3456 1.5363,0.5761 1.882,1.7284 1.882,1.7284 0,0 0.8066,-0.2305 1.5748,0.2688 0.7681,0.4993 1.3059,2.5734 1.3059,2.5734 0,0 0.8065,0.8834 0.9986,1.3443 0.192,0.4609 -0.8066,2.8422 -0.8066,2.8422 0,0 0.2305,1.4596 0,1.69 -0.2304,0.2305 -1.6516,1.5556 -1.5747,1.8245 0.0768,0.2688 1.9396,2.6118 1.7476,3.1111 -0.1921,0.4993 -1.8245,1.1907 -1.9589,1.4595 -0.1344,0.2689 -0.3073,3.1688 -0.8834,3.572 -0.5761,0.4033 -1.2866,0.7777 -1.2866,0.7777z"/>
  <path class="fil3 str0" d="M253.1689 147.2538c0,0 5.1084,-1.8628 7.701,-1.882 2.5925,-0.0192 6.5678,0.5185 6.5678,0.5185"/>
  <path class="fil3 str0" d="M250.8117 146.5143c0,0 5.6988,-1.4882 7.504,-1.757 1.8052,-0.2689 8.6803,0.6145 8.6803,0.6145"/>
  <path class="fil3 str0" d="M249.6353 143.7586c0.9986,-0.1536 7.8738,-0.2304 9.487,-0.192 1.6131,0.0384 7.144,0.9986 7.144,0.9986"/>
  <path class="fil3 str0" d="M247.6765 139.9946c1.0754,0.1536 5.646,0.0768 8.4883,0.9602 2.8422,0.8834 9.7558,2.8422 9.7558,2.8422"/>
  <path class="fil3 str0" d="M247.6381 136.0385c0,0 8.7571,3.4952 10.2167,4.1481 1.4595,0.653 7.2976,3.0727 7.2976,3.0727"/>
  <path class="fil3 str0" d="M248.1374 133.1962c0,0 9.7174,5.6461 10.2167,6.0302 0.4993,0.3841 3.3415,1.882 3.3415,1.882"/>
  <path class="fil3 str0" d="M249.7505 130.0467c0,0 3.9945,4.0329 5.3004,4.9547 1.3059,0.9219 6.1454,4.9164 6.1454,4.9164"/>
  <path class="fil3 str0" d="M253.1689 127.3197c-0.1536,0.5761 0.3457,1.3827 1.3827,3.1495 1.0371,1.7668 6.7984,8.7572 6.7984,8.7572"/>
  <path class="fil3 str0" d="M256.4721 125.7834c0,0 -0.4225,0.7297 0.384,2.4965 0.8066,1.7668 5.4157,10.6776 5.4157,10.6776"/>
  <path class="fil3 str0" d="M260.0441 125.745c-0.0384,0.6913 -0.8066,2.1892 0.5761,5.646 1.3827,3.4568 3.6488,8.3347 3.6488,8.3347"/>
  <path class="fil3 str0" d="M264.0386 126.5899c0,0 -0.4225,2.6887 -0.2689,4.4555 0.1536,1.7668 1.4595,8.0658 1.4595,8.0658"/>
  <path class="fil3 str0" d="M267.6874 127.6654c0,0 -0.7298,2.0357 -1.2675,4.6858 -0.5377,2.6502 -0.192,7.8354 -0.192,7.8354"/>
  <path class="fil3 str0" d="M270.2992 130.9685c0,0 -2.4966,3.38 -2.6118,4.5707 -0.1152,1.1906 -1.0754,5.9917 -1.0754,5.9917"/>
  <path class="fil3 str0" d="M270.4528 134.0412c0,0 -1.229,1.6132 -1.69,2.4582 -0.4609,0.845 -1.3059,5.5308 -1.3059,5.5308"/>
  <path class="fil11 str0" d="M221.6746 198.07c-3.0748,-5.522 -3.6442,-17.0532 -1.1388,-32.6446 2.5053,-15.5915 5.3111,-25.5967 5.3111,-35.5038 0,-9.907 -6.5239,-32.5803 -5.1573,-43.2994 1.3665,-10.7191 7.2883,-15.9163 8.4271,-23.0623 1.1388,-7.1461 -1.7203,10.7191 -3.3146,17.5403 -1.5944,6.8213 5.0107,32.1574 3.8719,44.9879 -1.1388,12.8304 -4.1221,28.9945 -5.6026,37.6023 -1.4804,8.6078 0.4901,22.3273 1.4011,28.4989 0.9111,6.1716 -3.7979,5.8807 -3.7979,5.8807z"/>
  <path class="fil12 str0" d="M151.3938 154.37c0,-2.2723 -0.3952,-4.3471 -1.5807,-4.8411 -1.1856,-0.4939 -2.7664,-0.4939 -3.4579,-1.3831 -0.6916,-0.8892 -1.4326,-2.8651 -2.2724,-3.0627 -0.8398,-0.1976 -2.8651,0.247 -4.594,-0.6916 -1.729,-0.9386 -1.0868,-2.1241 -3.1121,-2.7663 -2.0254,-0.6422 -4.3965,-0.5434 -5.0881,-1.3338 -0.6916,-0.7904 -3.3591,-3.9518 -2.1735,-5.7302 1.1855,-1.7784 0.3952,-4.4459 0.5927,-5.6808 0.1976,-1.235 1.235,0.7409 1.4326,2.9639 0.1976,2.2229 0,4.9892 0.8892,5.6808 0.8892,0.6916 2.9639,-0.8892 4.4459,0.4446 1.4819,1.3338 2.5687,4.2977 3.7048,4.6929 1.1362,0.3951 1.9266,-1.1362 4.0013,0.0494 2.0748,1.1855 2.3712,3.1615 3.6061,4.0012 1.235,0.8398 2.7663,2.0254 3.5073,2.7664 0.741,0.7409 1.0868,3.4578 1.3338,4.347 0.247,0.8892 -1.6796,-5.582 -1.482,-6.4712 0.1976,-0.8892 -1.0374,-2.6675 -2.5193,-4.4953 -1.482,-1.8277 -0.6916,-3.1615 -1.1362,-4.2976 -0.4446,-1.1362 -1.2349,-1.235 -1.1361,-2.4699 0.0988,-1.235 0.2963,-2.1242 0.1482,-3.5073 -0.1482,-1.3832 -0.741,-2.8158 -0.3952,-2.9146 0.3458,-0.0988 0.1482,3.3591 1.5807,4.9399 1.4326,1.5807 1.8278,1.9265 2.4699,2.6675 0.6422,0.741 -0.9385,1.5314 0.0494,2.6181 0.988,1.0868 2.6676,2.2724 3.3591,3.3591 0.6916,1.0868 0.3458,2.8158 0.741,3.1121 0.3952,0.2964 0,-4.7916 0.8892,-6.2242 0.8892,-1.4325 0.8398,-3.6061 1.235,-4.4952 0.3951,-0.8892 2.7663,-4.7423 3.5073,-4.7917 0.7409,-0.0494 -0.5434,3.0133 -0.988,4.6929 -0.4446,1.6795 0,2.2229 -0.247,3.2603 -0.247,1.0373 -2.3217,0.494 -1.729,2.0747 0.5928,1.5808 0.6422,4.2483 0.3952,5.3844 -0.247,1.1362 -1.1855,3.2603 -1.3337,4.2977 -0.1482,1.0374 0.3458,-0.3952 1.4325,-1.4819 1.0868,-1.0868 1.3832,-0.6916 2.1736,-2.1242 0.7903,-1.4325 -0.494,-1.7289 0.4445,-2.8651 0.9386,-1.1362 5.2363,-3.5073 6.0267,-4.3471 0.7903,-0.8397 0.4446,-1.3831 0.8891,-2.2723 0.4446,-0.8892 2.1242,-2.4205 2.717,-2.6675 0.5927,-0.247 -1.235,1.3831 -1.482,2.8157 -0.247,1.4326 -0.3952,2.5193 -0.6422,3.2109 -0.247,0.6916 -5.7796,2.5687 -5.829,3.6555 -0.0494,1.0868 0.5928,0.6916 0,2.4699 -0.5928,1.7784 -2.5687,3.3097 -3.0627,4.5447 -0.494,1.235 -0.494,2.1241 -0.8398,2.7663 -0.3458,0.6422 -6.4712,0.0988 -6.4712,0.0988z"/>
  <g id="_2435545317104">
   <path class="fil13 str0" d="M111.7878 183.6803c-0.7481,-2.1083 -8.1612,-5.3728 -6.869,-7.5492 1.2922,-2.1763 6.0529,2.9925 8.7053,2.1083 2.6524,-0.8841 3.4005,-9.1133 5.2368,-8.3652 1.8363,0.7481 -0.068,7.8892 1.2922,8.9093 1.3602,1.0202 9.7935,-1.2242 10.2695,0.136 0.4761,1.3603 -7.5491,4.8288 -8.6373,5.985 -1.0881,1.1561 2.3124,9.3854 0.6801,9.9975 -1.6322,0.6121 -5.0327,-6.461 -6.529,-6.9371 -1.4962,-0.4761 -6.801,6.1889 -8.2292,4.2166 -1.4282,-1.9722 4.0806,-8.5012 4.0806,-8.5012z"/>
   <ellipse class="fil2 str0" cx="115.1033" cy="181.929" rx="0.7991" ry="0.7651"/>
   <ellipse class="fil2 str0" cx="118.8439" cy="182.9322" rx="0.7651" ry="0.6801"/>
   <path class="fil14 str0" d="M115.1541 183.5272c-0.0211,0.2211 0.7375,2.3804 2.1284,1.1562 1.3909,-1.2242 -0.569,0.3571 -1.0642,-0.017 -0.4953,-0.374 -1.0642,-1.1392 -1.0642,-1.1392z"/>
  </g>
  <g id="_2435545298384">
   <path class="fil15 str0" d="M34.9842 84.4427c0,0 0.1543,1.2341 2.2626,2.1083 2.1082,0.8741 4.6793,1.7483 4.6793,1.7483 0,0 -2.931,-5.0907 -2.2111,-5.6563 0.7199,-0.5657 13.2666,-2.3654 16.3519,-6.8905 3.0853,-4.525 3.5224,-6.9418 3.5224,-8.4073 0,-1.4655 -3.2396,-5.3993 -3.2396,-5.3993 0,0 2.2771,-1.8651 2.2514,-3.7934 -0.0257,-1.9283 -4.2568,-4.8453 -4.2568,-4.8453 0,0 0.8227,1.4912 0.6428,2.5453 -0.18,1.0542 -1.3884,1.8255 -1.5684,3.0339 -0.18,1.2084 0.2057,1.2341 0.2057,1.2341 0,0 0.18,-0.1286 -0.8999,-0.3857 -1.0798,-0.2571 -1.0284,0.4114 -3.2395,-0.1542 -2.2111,-0.5657 -1.6455,-3.2653 -2.0054,-3.6252 -0.36,-0.36 -1.2341,2.134 -0.7971,3.6509 0.4371,1.5169 1.9026,4.9364 4.4223,4.9621 2.5196,0.0257 2.4682,-1.7483 2.9567,-1.7226 0.4885,0.0257 1.5169,1.6712 1.4398,2.931 -0.0772,1.2598 -0.1286,3.5995 -2.0569,4.3708 -1.9283,0.7714 -5.4763,2.3397 -9.3329,0.6942 -3.8566,-1.6455 -6.2991,-4.1394 -10.5156,-5.1421 -4.2166,-1.0027 -11.5184,-0.3085 -15.195,2.8539 -3.6766,3.1624 -2.8282,8.0474 -2.8796,10.8242 -0.0514,2.7767 1.476,5.8014 3.7023,8.0217 2.2264,2.2203 6.3199,-0.0196 6.582,-4.4865 0,0 0.4836,1.9056 -0.5526,3.7149 -0.7908,1.381 -2.3664,2.1093 -3.1498,2.0571 -1.5426,-0.1028 1.7998,1.1827 3.5481,0.7713 1.7483,-0.4113 9.4654,-4.6313 9.4654,-4.6313l-0.1325 -0.3823z"/>
   <ellipse class="fil16 str0" cx="27.4318" cy="77.0251" rx="1.7483" ry="1.5941"/>
   <ellipse class="fil17 str0" cx="27.3086" cy="76.8842" rx="0.797" ry="0.5913"/>
  </g>
  <path class="fil11 str0" d="M203.4387 197.967c-3.0748,-4.124 -3.6442,-12.7358 -1.1388,-24.38 2.5053,-11.6442 5.3111,-19.1164 5.3111,-26.5153 0,-7.3989 -6.5239,-24.332 -5.1573,-32.3374 1.3665,-8.0054 7.2883,-11.8868 8.4271,-17.2237 1.1388,-5.3369 -1.7203,8.0054 -3.3146,13.0997 -1.5944,5.0944 5.0107,24.0162 3.8719,33.5984 -1.1388,9.5822 -4.1221,21.654 -5.6026,28.0826 -1.4804,6.4286 0.4901,16.6747 1.4011,21.2839 0.9111,4.6091 -3.7979,4.3918 -3.7979,4.3918z"/>
 </g>
</svg>
