<?xml version="1.0" encoding="UTF-8"?>
<!DOCTYPE svg PUBLIC "-//W3C//DTD SVG 1.1//EN" "http://www.w3.org/Graphics/SVG/1.1/DTD/svg11.dtd">
<!-- Creator: CorelDRAW 2019 (64-Bit) -->
<svg xmlns="http://www.w3.org/2000/svg" xml:space="preserve" width="100mm" height="100mm" version="1.1" style="shape-rendering:geometricPrecision; text-rendering:geometricPrecision; image-rendering:optimizeQuality; fill-rule:evenodd; clip-rule:evenodd"
viewBox="0 0 100 100"
 xmlns:xlink="http://www.w3.org/1999/xlink"
 xmlns:xodm="http://www.corel.com/coreldraw/odm/2003">
 <defs>
  <style type="text/css">
   <![CDATA[
    .str0 {stroke:#2B2A29;stroke-width:0.2;stroke-miterlimit:22.9256}
    .fil2 {fill:none}
    .fil14 {fill:#2B2A29}
    .fil10 {fill:#E31E24}
    .fil13 {fill:#E31E24}
    .fil9 {fill:#00A0E3}
    .fil16 {fill:#393185}
    .fil3 {fill:black}
    .fil11 {fill:#771700}
    .fil4 {fill:#801B00}
    .fil15 {fill:#92F02E}
    .fil8 {fill:#92F02E}
    .fil17 {fill:#AA0202}
    .fil7 {fill:#C213B2}
    .fil0 {fill:#FBC382}
    .fil6 {fill:#FBC382}
    .fil5 {fill:fuchsia}
    .fil12 {fill:white}
    .fil1 {fill:white}
   ]]>
  </style>
 </defs>
 <g id="Layer_x0020_1">
  <metadata id="CorelCorpID_0Corel-Layer"/>
  <path class="fil0 str0" d="M80.5111 73.7601c0,0 0.465,1.1058 0.3859,1.5738 -0.0792,0.4679 -0.2761,0.4361 -0.5598,1.2777 -0.2273,0.674 -0.4627,1.56 -0.1193,2.5917 0.2588,0.7772 1.212,1.4854 2.2104,1.715 0.9983,0.2296 2.0399,0.4689 2.6007,0.0152 0.5608,-0.4537 0.5935,-0.7473 0.5935,-0.7473 0,0 1.0071,0.464 1.3451,0.1475 0.338,-0.3164 0.4245,-0.589 0.4362,-0.8289 0.0118,-0.2398 0.026,-0.7213 -0.2593,-0.8396 -0.2852,-0.1182 -0.5382,0.255 -0.6736,0.3913 -0.1353,0.1362 0.2154,-0.1485 0.2399,-0.5407 0.0244,-0.3923 1.8076,-2.372 1.5068,-3.5208 -0.3009,-1.1488 0.0059,-2.79 -1.5434,-3.3488 -1.5493,-0.5587 -1.5746,-1.7271 -2.6512,-1.9538 -1.0765,-0.2267 -1.4927,1.1977 -1.9948,1.5571 -0.5021,0.3595 -1.0522,1.0384 -1.1552,1.2978 -0.1031,0.2593 -0.3619,1.2128 -0.3619,1.2128z"/>
  <ellipse class="fil1 str0" transform="matrix(0.420899 0.0886223 -0.0886223 0.420899 81.7957 76.6764)" rx="1.1906" ry="1.4993"/>
  <ellipse class="fil1 str0" transform="matrix(0.420899 0.0886223 -0.0886223 0.420899 83.4457 77.2176)" rx="1.2347" ry="1.7198"/>
  <path class="fil2 str0" d="M82.2539 77.3544c-0.1939,0.2305 0.0586,0.4582 -0.1944,0.6472 -0.253,0.189 -0.3966,0.2266 -0.3405,0.3741 0.0562,0.1475 0.6208,0.2276 0.6208,0.2276"/>
  <path class="fil2 str0" d="M81.3151 78.7752c0,0 0.2872,0.4773 0.6598,0.5945 0.3727,0.1173 0.715,0.0634 0.8811,0.0112 0.1661,-0.0522 -0.5245,0.4127 -0.9455,0.295 -0.4211,-0.1177 -0.5954,-0.9007 -0.5954,-0.9007z"/>
  <ellipse class="fil3 str0" transform="matrix(0.420899 0.0886223 -0.0886223 0.420899 83.3936 77.0357)" rx="0.6059" ry="0.754"/>
  <ellipse class="fil3 str0" transform="matrix(0.420899 0.0886223 -0.0886223 0.420899 81.7402 76.5568)" rx="0.6059" ry="0.754"/>
  <path class="fil4 str0" d="M79.917 75.2948c0,0 0.1456,-0.4151 0.0367,-1.2328 -0.1089,-0.8177 0.0375,-1.3296 0.2915,-1.9836 0.254,-0.654 0.1401,-1.5404 1.918,-2.2516 1.7779,-0.7111 1.4732,-1.473 3.0518,-0.8693 1.5786,0.6037 2.2311,0.8186 2.8602,1.145 0.6291,0.3263 0.6564,0.1964 1.3227,0.5304 0.6662,0.3341 3.4434,2.3338 1.8364,1.9568 -1.6069,-0.3771 -0.3009,0.3243 -0.2344,1.1136 0.0664,0.7893 0.1015,4.6734 -0.0588,5.8027 -0.1602,1.1292 0.9182,2.6356 0.3555,4.5717 -0.5628,1.9362 -1.188,2.6962 -0.5706,3.4464 0.6174,0.7503 0.631,0.8695 1.2719,0.0352 0.6408,-0.8342 0.127,-1.5239 0.127,-1.5239 0,0 0.7639,0.975 0.6388,1.5689 -0.125,0.5939 -0.6916,1.4438 -1.5493,1.6509 -0.8577,0.2071 -1.0941,0.041 -1.6001,-0.6858 -0.506,-0.7268 -0.7796,-0.9008 -1.2074,-1.9988 -0.4278,-1.098 -0.4688,-2.1921 -0.3867,-2.9501 0.082,-0.7581 0.127,-1.5239 0.127,-1.5239 0,0 -0.1597,-0.0698 -0.1636,-0.5578 -0.0039,-0.488 -0.6152,-0.8282 -0.4931,-1.8437 0.1221,-1.0155 -0.5391,-1.4163 -0.7712,-1.0235 -0.2321,0.3929 -0.0383,0.17 -0.2024,-0.1554 -0.1642,-0.3253 0.1348,-1.561 0.001,-1.9381 -0.1338,-0.3771 -0.3907,-1.0902 -0.3907,-1.0902l0.3917 -1.9527c0,0 -0.9593,1.4262 -1.3109,1.2552 -0.3517,-0.171 -0.2609,-1.7994 -0.2609,-1.7994 0,0 -0.4152,0.9593 -0.7249,1.0491 -0.3097,0.0899 -0.5577,-1.8619 -0.5577,-1.8619 0,0 0.0771,1.9352 -0.2384,1.8688 -0.3156,-0.0665 -0.9456,-2.1375 -0.9456,-2.1375 0,0 0.0478,2.2586 -0.0665,2.157 -0.1143,-0.1017 -0.3126,-1.5517 -0.5861,-1.6805 -0.2735,-0.1287 -0.2189,1.0846 -0.4211,1.2164 -0.2021,0.1319 -0.713,-0.4796 -0.713,-0.4796 0,0 0.1816,1.899 0.0146,1.8638 -0.1671,-0.0352 -0.7914,0.3082 -0.7914,0.3082z"/>
  <path class="fil5 str0" d="M85.9857 66.0473c0.3793,-0.2276 1.3846,3.3193 2.0295,3.7745 0.6449,0.4552 1.9158,-0.2845 2.7882,-0.3224 0.8725,-0.0379 0.4549,1.3277 0.0759,2.0864 -0.379,0.7587 -2.333,0.6165 -3.2434,-0.8345 -0.9105,-1.4511 -2.2761,-0.9864 -2.8831,-0.9105 -0.6069,0.0759 -0.6449,-3.9262 1.2329,-3.7935z"/>
  <path class="fil2 str0" d="M81.6832 75.0466c0.2033,-0.2286 0.6995,-0.0078 0.8079,0.3058"/>
  <path class="fil2 str0" d="M83.3879 75.6963c0.3282,-0.086 0.7336,-0.0782 0.8635,0.3175"/>
  <line class="fil2 str0" x1="81.6744" y1="75.917" x2="81.6639" y2= "75.7597" />
  <path class="fil2 str0" d="M81.9636 75.9246c0.0186,-0.0421 0.052,-0.178 0.052,-0.178"/>
  <path class="fil2 str0" d="M82.2311 76.0463c0.0522,-0.098 0.1597,-0.1941 0.1457,-0.197"/>
  <path class="fil2 str0" d="M82.3855 76.1757c0.0606,-0.0114 0.187,-0.0938 0.187,-0.0938"/>
  <path class="fil2 str0" d="M83.2659 76.3781c-0.0105,-0.0652 -0.0571,-0.2349 -0.0571,-0.2349"/>
  <path class="fil2 str0" d="M83.6074 76.3676c0.0417,-0.0833 0.1138,-0.2184 0.1138,-0.2184"/>
  <line class="fil2 str0" x1="83.9022" y1="76.4636" x2="84.0919" y2= "76.3679" />
  <path class="fil2 str0" d="M84.1561 76.8224c0.0674,-0.044 0.2452,-0.152 0.2452,-0.152"/>
  <path class="fil6 str0" d="M86.4156 85.7881c0,0 0.3388,0.4438 0.4237,0.541 0.0849,0.0971 0.1171,0.2881 0.3224,0.443 0.2053,0.1548 0.5158,0.6552 0.4557,0.7005 -0.06,0.0453 -0.0808,-0.0328 -0.7435,-0.2801 -0.0454,-0.0169 0.4393,0.8851 0.3037,0.9239 -0.1355,0.0388 -0.5796,-0.6764 -0.5796,-0.6764 0,0 0.5652,1.0244 0.4427,1.0601 -0.1225,0.0357 -0.6671,-0.8867 -0.6671,-0.8867 0,0 0.3454,0.6765 0.1557,0.7487 -0.1897,0.0722 -0.4575,-0.6845 -0.4575,-0.6845 0,0 0.0988,0.5072 -0.077,0.521 -0.1759,0.0139 -0.3112,-0.7947 -0.2506,-0.9468 0.0606,-0.152 0.084,-0.3161 0.0601,-0.4758 -0.0238,-0.1597 -0.3205,-1.0681 -0.3205,-1.0681l0.9318 0.0802z"/>
  <path class="fil6 str0" d="M79.0809 85.5463c0,0 -0.313,0.4625 -0.3921,0.5643 -0.0792,0.1018 -0.3124,0.1048 -0.4078,0.3435 -0.8363,2.0909 0.1365,0.8118 0.1976,0.6702 0.0614,-0.1426 0.1806,-0.1303 0.2249,-0.1497 0.0442,-0.0195 -0.388,0.9088 -0.2505,0.9398 0.1375,0.031 0.5401,-0.7085 0.5401,-0.7085 0,0 -0.5058,1.055 -0.3814,1.0837 0.1243,0.0286 0.6153,-0.9233 0.6153,-0.9233 0,0 -0.3062,0.695 -0.1127,0.7563 0.1935,0.0613 0.4177,-0.7095 0.4177,-0.7095 0,0 -0.0697,0.512 0.1067,0.5158 0.1763,0.0039 0.2653,-0.8112 0.1961,-0.9596 -0.0692,-0.1484 -0.1019,-0.3107 -0.0872,-0.4716 0.0146,-0.1608 0.2589,-1.0847 0.2589,-1.0847l-0.9256 0.1333z"/>
  <path class="fil7 str0" d="M82.2574 81.3488c0,0 -1.2203,0.0334 -1.5838,0.294 -0.6111,0.4381 -2.2011,3.3917 -2.0675,4.2962 0,0 0.4513,-0.0234 0.5936,0.2232 0.1422,0.2466 0.8764,0.4786 0.8764,0.4786 0,0 0.4457,-1.2803 0.4457,-1.3657 0,-0.0853 0.5121,-2.0295 0.6165,-2.3804 0.1043,-0.3509 -0.8346,3.4521 -0.6354,3.7176 0.1991,0.2656 1.3562,0.6829 2.0769,0.7208 0.7208,0.0379 2.371,-0.588 2.4469,-0.7303 0.0758,-0.1422 -0.7114,-3.5943 -0.5596,-3.765 0.1517,-0.1707 0.1565,1.6643 0.2988,1.9394 0.1422,0.2751 0.4504,1.6643 0.6685,1.8256 0.2181,0.1612 0.539,0.0052 0.7761,-0.2035 0.2371,-0.2086 0.5042,-0.3941 0.5042,-0.3941 0,0 -1.4415,-3.9926 -1.7829,-4.334 -0.3415,-0.3414 -2.5845,-0.3867 -2.5845,-0.3867l-0.0899 0.0643z"/>
  <polygon class="fil6 str0" points="83.5644,89.2342 84.5697,89.1584 85.6272,95.0982 84.5472,95.3403 "/>
  <path class="fil6 str0" d="M81.0769 89.3813l-0.6829 5.9937c0,0 1.1902,0.3669 1.1902,-0.0379 0,-0.4048 0.7445,-6.1454 0.7445,-6.1454l-1.2518 0.1896z"/>
  <path class="fil8 str0" d="M80.8905 86.5883c0,0 -2.7884,8.0328 -2.3711,8.4625 0.4172,0.4297 1.707,-1.6816 2.0485,-1.6057 0.3414,0.0758 0.4552,1.138 0.9104,1.138 0.4552,0 0.7207,-1.6691 1.2139,-1.4794 0.4932,0.1897 0.8725,1.4415 1.3277,1.4794 0.4553,0.038 1.9348,-1.7829 1.9348,-1.7829 0,0 0.0759,1.4036 0.7966,1.4415 0.7207,0.0379 1.4795,-0.6448 1.4795,-0.6448l-3.2041 -6.9941c0,0 -1.3102,0.4123 -2.2017,0.3554 -0.8915,-0.0569 -1.9345,-0.3699 -1.9345,-0.3699z"/>
  <path class="fil9 str0" d="M80.4423 95.1191l1.1684 0.0899c0,0 0.2276,1.8019 0,1.8398 -0.2276,0.038 -0.2655,-0.0094 -0.2655,-0.0094l-0.1043 -0.8062c0,0 -0.5881,0.6639 -1.0338,0.7493 -0.4457,0.0853 -0.8346,0.0379 -1.0717,0 -0.237,-0.038 -0.4267,-0.2087 -0.3319,-0.4173 0.0949,-0.2086 1.1096,-0.4837 1.3277,-0.6923 0.2182,-0.2087 0.3111,-0.7538 0.3111,-0.7538z"/>
  <path class="fil9 str0" d="M85.6392 94.9601l-1.1684 0.0899c0,0 -0.2275,1.8019 0,1.8398 0.2276,0.038 0.2656,-0.0094 0.2656,-0.0094l0.1043 -0.8062c0,0 0.588,0.6639 1.0337,0.7493 0.4458,0.0853 0.8346,0.0379 1.0717,0 0.2371,-0.038 0.4268,-0.2087 0.3319,-0.4174 -0.0948,-0.2086 -1.1095,-0.4836 -1.3277,-0.6922 -0.2182,-0.2087 -0.3111,-0.7538 -0.3111,-0.7538z"/>
  <ellipse class="fil10 str0" cx="82.615" cy="83.288" rx="0.2371" ry="0.2561"/>
  <ellipse class="fil10 str0" cx="82.596" cy="84.3312" rx="0.2134" ry="0.2608"/>
  <polygon class="fil2 str0" points="8.0572,9.8233 74.2031,9.1178 74.2031,22.8761 90.4308,22.1706 91.0915,61.1532 8.0582,60.8039 "/>
  <line class="fil2 str0" x1="74.2031" y1="9.1178" x2="90.4308" y2= "22.1706" />
  <path class="fil6 str0" d="M24.4013 82.6687l0.0743 1.1204c0,0 1.1668,-0.2725 1.1462,-0.3465 -0.0206,-0.0741 -0.4253,-1.0976 -0.4253,-1.0976l-0.7952 0.3237z"/>
  <path class="fil0 str0" d="M24.8931 82.9169c-0.2888,0.0722 -0.603,0.0392 -1.1652,-0.0097 -0.5622,-0.0489 -1.4061,-0.2722 -1.5381,-0.3608 -0.1319,-0.0886 -0.2069,-0.3951 -0.2069,-0.3951 0,0 -0.5232,0.1723 -0.6921,0.0804 -0.1689,-0.0919 -1.2213,-0.6919 -0.7402,-1.3396 0.481,-0.6476 0.6065,0.042 0.8176,0.0547 0.2111,0.0126 -0.2292,-1.0645 -0.2205,-1.184 0.0087,-0.1195 -1.085,-3.8771 -0.7173,-4.5526 0.3677,-0.6754 1.9135,-2.6614 2.7001,-2.7474 0.7867,-0.086 2.2555,0.5309 2.5162,0.454 0.2608,-0.0769 1.0559,0.8267 1.3219,1.8945 0.2661,1.0678 0.1519,1.3857 0.6074,2.1511 0.3635,0.6108 1.0545,3.646 -0.4385,5.2975 -0.5217,0.5769 -2.2444,0.657 -2.2444,0.657z"/>
  <path class="fil11 str0" d="M21.0304 82.4309c-0.072,0.0339 -1.863,-0.4922 -2.3972,-1.3546 -0.5342,-0.8625 -1.5752,-1.828 -1.6896,-3.2648 -0.1144,-1.4369 0.5002,-3.0963 0.8766,-3.4821 0.3764,-0.3859 -0.7378,-0.4763 -1.0272,-0.3494 -0.2894,0.1269 -0.6661,0.2764 -0.6661,0.2764 0,0 0.3478,-0.686 1.0464,-0.7538 0.6987,-0.0677 0.8436,-0.013 1.0274,0.0584 0.1839,0.0714 -0.6692,-0.3572 -0.8272,-0.935 -0.1581,-0.5777 0.0926,-0.9236 0.0926,-0.9236 0,0 0.1689,0.5011 0.3457,0.8191 0.1767,0.318 0.7089,0.8171 0.7089,0.8171 0,0 -0.1645,-1.1746 -0.0627,-1.5722 0.1018,-0.3977 0.3515,-0.5457 0.3515,-0.5457 0,0 -0.1074,0.3999 -0.1192,0.6745 -0.0119,0.2745 0.1409,0.8677 0.1409,0.8677l0.649 -1.5556c0,0 0.0901,0.3452 0.0632,0.6403 -0.0268,0.295 0.2158,0.3346 0.2158,0.3346 0,0 0.2434,-0.6561 0.6746,-0.9232 0.4312,-0.2671 1.0266,-0.4142 1.5237,-0.4916 0.4971,-0.0773 0.4481,0.0757 1.1173,-0.0647 0.6691,-0.1404 0.9473,-0.4564 1.5422,-0.0217 0.5949,0.4348 0.6482,0.4265 1.4408,0.6123 0.7926,0.1858 0.8068,0.5109 1.0617,0.9804 0.2549,0.4695 0.2868,0.7918 0.3476,1.1824 0.0607,0.3906 -0.5758,0.3896 -1.039,-0.0747 -0.4632,-0.4644 0.3142,1.2603 -0.0642,1.2828 -0.3783,0.0225 -1.4262,-0.8692 -1.5327,-0.8526 -0.1065,0.0165 0.9461,1.2893 0.6159,1.5043 -0.3303,0.2151 -1.6081,-0.9863 -1.6081,-0.9863 0,0 1.0372,1.0569 0.6426,1.2092 -0.3945,0.1523 -2.1276,-0.4691 -2.0823,-0.2943 0.0454,0.1748 1.4401,0.9579 1.2614,1.0948 -0.1788,0.1369 -1.97,-0.039 -1.97,-0.039 0,0 1.691,0.7006 1.5888,0.862 -0.1022,0.1614 -1.7118,-0.1338 -1.8057,0.0809 -0.0939,0.2146 0.8403,0.9602 0.7026,1.1271 -0.1377,0.1669 -0.6876,0.4888 -0.8143,0.7268 -0.1266,0.2379 0.0632,1.7338 0.0632,1.7338 0,0 -0.3677,-0.4771 -0.7341,-0.202 -0.3663,0.2752 -0.304,0.7929 -0.2121,0.974 0.0918,0.1812 0.2964,0.3857 0.3465,0.5325 0.0501,0.1467 0.2048,0.2955 0.2048,0.2955z"/>
  <ellipse class="fil12 str0" transform="matrix(0.402603 -0.0626269 0.0626269 0.402603 24.5365 78.6942)" rx="1.808" ry="1.4993"/>
  <ellipse class="fil12 str0" transform="matrix(0.448177 -0.0697161 0.0697161 0.448177 26.2278 78.0654)" rx="1.3229" ry="1.2126"/>
  <path class="fil2 str0" d="M25.9009 79.3612c0.1258,0.1078 0.1086,0.0559 0.3221,0.2591 0.2134,0.2031 0.3056,0.1525 0.075,0.3065"/>
  <path class="fil13 str0" d="M25.0772 80.6857c0.1804,0.1083 0.5626,0.1398 0.9019,0.0415 0.3393,-0.0982 0.7715,-0.3882 0.8729,-0.6131 0.1014,-0.2248 -0.4386,1.0525 -0.5962,1.1202 -0.1577,0.0676 -0.2566,0.0899 -0.6968,-0.1689 -0.4403,-0.2589 -0.4818,-0.3797 -0.4818,-0.3797z"/>
  <ellipse class="fil14 str0" transform="matrix(0.402603 -0.0626269 0.0626269 0.402603 24.6443 78.3905)" rx="0.7386" ry="0.5512"/>
  <ellipse class="fil14 str0" transform="matrix(0.402603 -0.0626269 0.0626269 0.402603 26.2655 77.8721)" rx="0.7386" ry="0.5512"/>
  <path class="fil2 str0" d="M21.0433 81.0699c-0.1117,0.0128 -0.1214,0.1553 -0.0726,0.2931 0.0487,0.1379 0.1228,0.3219 0.2618,0.3684 0.1391,0.0466 0.2324,0.0912 0.2961,0.004"/>
  <path class="fil0 str0" d="M19.9778 86.7411c0,0 -0.3279,0.1438 -0.4717,0.2066 -0.1437,0.0629 -0.3279,0.1707 -0.4941,0.1348 -0.1662,-0.036 -0.4941,-0.1258 -0.5795,-0.0809 -0.0853,0.0449 0.4447,0.4267 0.3863,0.5031 -0.0583,0.0764 -0.6872,0.5974 -0.6064,0.7502 0.0809,0.1527 0.7412,-0.2651 0.7412,-0.2651 0,0 -0.4761,0.4739 -0.4447,0.5436 0.0314,0.0696 0.6199,-0.3414 0.6491,-0.3212 0.0292,0.0202 -0.2448,0.3773 -0.1505,0.4447 0.0943,0.0674 0.539,-0.3324 0.539,-0.3324 0,0 -0.2155,0.4761 -0.1392,0.53 0.0764,0.0539 0.3773,-0.1437 0.4222,-0.238 0.0449,-0.0944 0.319,-0.3729 0.2785,-0.4941 -0.0404,-0.1213 0.539,-0.8535 0.539,-0.8535l-0.6692 -0.5278z"/>
  <path class="fil0 str0" d="M28.1845 86.8377c0,0 0.8579,0.292 1.0286,0.3189 0.1707,0.027 0.557,-0.2605 0.6738,-0.1437 0.1168,0.1168 -0.6019,0.4491 -0.6019,0.5031 0,0.0539 0.7725,0.5929 0.6827,0.6647 -0.0898,0.0719 -0.8085,-0.3054 -0.8085,-0.3054 0,0 0.8264,0.6648 0.7546,0.7277 -0.0718,0.0629 -0.9253,-0.4043 -0.9253,-0.4043 0,0 0.593,0.3504 0.5031,0.4941 -0.0898,0.1438 -0.7456,-0.3593 -0.7456,-0.3593 0,0 0.3323,0.3593 0.1886,0.4851 -0.1437,0.1258 -0.557,-0.2605 -0.557,-0.2605 0,0 -0.1437,-0.3864 -0.2156,-0.4313 -0.0719,-0.0449 -0.7097,-0.7456 -0.7097,-0.7456l0.7322 -0.5435z"/>
  <path class="fil15 str0" d="M23.6426 83.3229c0,0 -0.4133,-0.009 -0.6558,0.0898 -0.2426,0.0989 -3.1533,3.1442 -3.4407,3.3059 -0.2875,0.1617 0.4312,0.3504 0.6468,0.4761 0.2157,0.1258 0.4402,0.9164 0.5481,0.9523 0.1078,0.0359 1.6979,-1.8147 1.6979,-1.8147 0,0 -0.3594,2.1561 -0.4851,2.3178 -0.1258,0.1617 1.617,0.6108 2.0482,0.5929 0.4312,-0.0179 2.2639,-0.3593 2.4076,-0.3953 0.1438,-0.0359 0.018,-0.6288 0.018,-0.6288 0,0 -0.1437,-1.2218 -0.2156,-1.6171 -0.0719,-0.3953 -0.2336,-1.4913 -0.2336,-1.4913 0,0 0.2516,1.7159 0.3235,1.8012 0.0718,0.0854 0.3233,0.3729 0.4581,0.5166 0.1348,0.1437 0.7368,0.5301 0.7951,0.584 0.0584,0.0539 0.081,-0.4357 0.4044,-0.7052 0.3234,-0.2695 0.6558,-0.575 0.6558,-0.575 0,0 -2.731,-3.0095 -2.9466,-3.2251 -0.2156,-0.2156 -2.0261,-0.1841 -2.0261,-0.1841z"/>
  <path class="fil2 str0" d="M23.6252 77.6975c0.1483,-0.3322 0.7544,-0.6447 0.9895,-0.5358"/>
  <path class="fil2 str0" d="M25.6124 76.6792c0.1717,-0.2994 0.6904,-0.4711 0.8917,-0.2296"/>
  <line class="fil2 str0" x1="23.9486" y1="78.3552" x2="23.7299" y2= "78.209" />
  <line class="fil2 str0" x1="24.241" y1="77.9295" x2="24.3042" y2= "78.1236" />
  <line class="fil2 str0" x1="23.9426" y1="77.9986" x2="24.0966" y2= "78.1701" />
  <line class="fil2 str0" x1="24.635" y1="77.8318" x2="24.6225" y2= "78.081" />
  <line class="fil2 str0" x1="25.0291" y1="77.8523" x2="24.9274" y2= "78.1045" />
  <line class="fil2 str0" x1="25.5922" y1="77.5557" x2="25.7994" y2= "77.6907" />
  <line class="fil2 str0" x1="25.945" y1="77.369" x2="26.0648" y2= "77.539" />
  <line class="fil2 str0" x1="26.3519" y1="77.2966" x2="26.3241" y2= "77.519" />
  <line class="fil2 str0" x1="26.6249" y1="77.3269" x2="26.51" y2= "77.5724" />
  <line class="fil2 str0" x1="26.826" y1="77.5684" x2="26.7245" y2= "77.6751" />
  <path class="fil16 str0" d="M21.8189 89.2361c0,0 -0.2157,2.8789 -0.0719,3.8534 0.1437,0.9744 0.2515,2.2809 0.2874,2.6574 0.036,0.3765 1.132,0 1.132,0 0.3055,-1.48 0.57,-4.4794 0.9163,-4.4402 0.3464,0.0392 0.53,1.351 0.7457,2.3918 0.2156,1.0408 0.4002,2.1835 0.5081,2.1835 0.1078,0 0.9202,0.0864 0.9202,0.0864 0,0 0.4493,-2.1924 0.4133,-2.6132 -0.0359,-0.4208 0.0719,-4.0305 -0.1258,-4.0969 -0.1976,-0.0664 0.3369,-0.5482 -0.3144,-0.4707 -0.6513,0.0776 -1.2846,0.1883 -1.9045,0.2215 -0.6198,0.0332 -1.6739,-0.033 -1.9943,-0.2879 -0.3204,-0.2549 -0.5121,0.5149 -0.5121,0.5149z"/>
  <path class="fil17 str0" d="M22.0458 95.7938c0,0 0.1583,0.4801 -0.0932,0.516 -0.2515,0.0359 -1.15,0 -1.3835,0.2156 -0.2335,0.2156 -0.1796,0.5211 -0.1796,0.5211 0,0 2.5872,0.3593 2.7489,0.1617 0.1618,-0.1977 0.028,-1.4613 0.028,-1.4613l-1.1206 0.0469z"/>
  <path class="fil17 str0" d="M26.3136 95.8185c0,0 -0.1583,0.4801 0.0932,0.5161 0.2515,0.0359 1.1499,0 1.3835,0.2156 0.2335,0.2156 0.1796,0.521 0.1796,0.521 0,0 -2.5872,0.3594 -2.749,0.1617 -0.1617,-0.1976 -0.0279,-1.4612 -0.0279,-1.4612l1.1206 0.0468z"/>
 </g>
</svg>
