<?xml version="1.0" encoding="UTF-8"?>
<!DOCTYPE svg PUBLIC "-//W3C//DTD SVG 1.1//EN" "http://www.w3.org/Graphics/SVG/1.1/DTD/svg11.dtd">
<!-- Creator: CorelDRAW 2019 (64-Bit) -->
<svg xmlns="http://www.w3.org/2000/svg" xml:space="preserve" width="100mm" height="100mm" version="1.1" style="shape-rendering:geometricPrecision; text-rendering:geometricPrecision; image-rendering:optimizeQuality; fill-rule:evenodd; clip-rule:evenodd"
viewBox="0 0 100 100"
 xmlns:xlink="http://www.w3.org/1999/xlink"
 xmlns:xodm="http://www.corel.com/coreldraw/odm/2003">
 <defs>
  <style type="text/css">
   <![CDATA[
    .str4 {stroke:#2B2A29;stroke-width:0.0553;stroke-miterlimit:22.9256}
    .str2 {stroke:#00A7EB;stroke-width:0.0589;stroke-miterlimit:22.9256}
    .str0 {stroke:#2B2A29;stroke-width:0.0589;stroke-miterlimit:22.9256}
    .str1 {stroke:#2B2A29;stroke-width:0.2;stroke-miterlimit:22.9256}
    .str3 {stroke:#C8FFFF;stroke-width:0.2;stroke-miterlimit:22.9256}
    .fil8 {fill:none}
    .fil13 {fill:#0071BD}
    .fil15 {fill:#008DD2}
    .fil4 {fill:#0090D6}
    .fil18 {fill:#00A0E3}
    .fil11 {fill:#00A7EB}
    .fil27 {fill:#020202}
    .fil6 {fill:#23479D}
    .fil9 {fill:#2B2A29}
    .fil12 {fill:#2E3293}
    .fil23 {fill:#5B5A50}
    .fil28 {fill:#61A375}
    .fil0 {fill:#898778}
    .fil16 {fill:#A75F4A}
    .fil14 {fill:#C8FFFF}
    .fil24 {fill:#D63E17}
    .fil25 {fill:#DA2F05}
    .fil10 {fill:#EE2422}
    .fil1 {fill:#F08143}
    .fil2 {fill:#FBD3D3}
    .fil21 {fill:#FECC00}
    .fil7 {fill:#FEFEFE}
    .fil20 {fill:#FF2000}
    .fil3 {fill:#FFCB05}
    .fil22 {fill:#FFED00}
    .fil19 {fill:#FFF383}
    .fil17 {fill:#FFFBDB}
    .fil26 {fill:#FFFDFF}
    .fil5 {fill:white}
   ]]>
  </style>
 </defs>
 <g id="Layer_x0020_1">
  <metadata id="CorelCorpID_0Corel-Layer"/>
  <polygon class="fil0 str0" points="42.8499,19.1465 43.0571,25.0233 44.4627,25.1556 44.1651,18.5079 "/>
  <path class="fil1 str1" d="M46.6155 1.69l0.8405 22.6928c0,0 -1.4568,0.5043 -1.3447,0 0.112,-0.5043 0.5042,-22.6928 0.5042,-22.6928z"/>
  <g id="_2564702829888">
   <path class="fil2 str0" d="M36.5383 15.7733c-0.4782,0.1912 -1.3007,0.3251 -1.7023,0.0191 -0.4017,-0.306 -0.4352,-0.2056 -0.5643,-0.1961 -0.1291,0.0096 -0.5643,-0.2008 -0.4878,-0.5355 0.0765,-0.3348 0.6025,-0.1674 0.6982,-0.2057 0.0956,-0.0382 -0.9612,-1.0615 -0.5786,-1.5971 0.3825,-0.5356 0.5356,-1.4728 1.358,-1.5111 0.8225,-0.0382 1.3103,0.1817 1.425,0.4782 0.1148,0.2965 0.1052,0.9373 0.1531,1.1955 0.0478,0.2582 0.3538,0.6216 0.4399,0.8703 0.0861,0.2486 0.2869,0.8416 -0.7412,1.4824z"/>
   <path class="fil3 str0" d="M34.1459 15.5699c-0.2615,-0.0166 -1.1031,-0.6191 -1.2466,-1.3364 -0.1434,-0.7173 0.0957,-1.9032 0.4591,-2.3049 0.3634,-0.4017 1.5206,-0.8703 1.7597,-0.9277 0.2391,-0.0574 0.4973,-0.2582 0.3921,-0.4303 -0.1052,-0.1722 0.3348,0.0287 0.3443,0.2773 0.0096,0.2487 0.3539,-0.306 0.2774,-0.5643 -0.0765,-0.2582 0.0669,0.7843 0.0669,0.7843 0,0 0.4208,-0.3443 0.3922,-0.593 -0.0287,-0.2486 -0.0192,0.7747 -0.0192,0.7747 0,0 0.2295,-0.0096 0.4208,-0.067 0.1913,-0.0573 -0.1147,0.3539 -0.2008,0.4591 -0.0861,0.1052 -0.2965,0.4782 -0.4304,0.5547 -0.1339,0.0765 -0.8799,0.153 -0.8799,0.153l0.5452 0.1339 -1.1572 0.0096 0.3251 0.306 -0.7555 0.153 0.22 0.6504 -0.2774 -0.1052c0,0 -0.0765,0.3634 -0.0669,0.5643 0.0095,0.2008 -0.0861,0.2677 -0.0861,0.2677 0,0 0.1995,0.2713 0.1967,0.4017 -0.0027,0.1304 -0.4896,-0.0147 -0.6426,0.234 -0.153,0.2486 0.3631,0.6051 0.3631,0.6051z"/>
   <polygon class="fil4 str0" points="32.775,13.3813 34.9651,10.8373 34.4391,10.3591 32.2299,12.9126 "/>
   <polygon class="fil5 str0" points="32.2299,12.9126 31.2448,12.9892 34.5443,9.0202 34.4391,10.3591 "/>
   <path class="fil6 str0" d="M32.6743 13.2947c0,0 -0.6835,-0.1334 -1.0278,0.1822 -0.3443,0.3156 -0.5069,1.119 -0.6981,1.3581 -0.1913,0.2391 -0.813,0.6407 -0.813,0.6407l0.5547 0.1531 -0.4016 0.4399c0,0 0.7842,-0.1339 0.9468,-0.4112 0.1625,-0.2774 0.2964,-1.3772 0.4782,-1.645 0.1817,-0.2678 0.9608,-0.7178 0.9608,-0.7178z"/>
   <path class="fil6 str0" d="M32.775 13.3813c0,0 -0.679,0.373 -0.7555,0.7555 -0.0765,0.3826 -0.0478,0.7747 0.0574,1.052 0.1052,0.2774 0.2965,0.4687 0.2391,0.7556 -0.0574,0.2869 -0.6025,1.0233 -0.6695,1.0711 -0.0669,0.0478 0.0287,-0.5642 0.0287,-0.5642l-0.6599 -0.1339c0,0 0.7364,-0.0861 0.7651,-0.3826 0.0287,-0.2965 -0.0547,-0.6907 -0.2391,-0.9468 -0.1843,-0.2561 -0.1434,-0.8034 0.0574,-1.0233 0.2009,-0.22 1.1763,-0.5834 1.1763,-0.5834z"/>
   <path class="fil7 str0" d="M35.4171 14.4955c-0.0908,-0.0382 -0.3156,-0.5356 -0.1052,-0.6695 0.2105,-0.1338 0.5739,0.4256 0.5547,0.4687 -0.0191,0.043 -0.4495,0.2008 -0.4495,0.2008z"/>
   <path class="fil7 str0" d="M36.254 14.1464c0,0 0.2725,-0.086 0.3443,-0.153 0.0717,-0.0669 -0.1961,-0.6503 -0.3826,-0.5595 -0.1865,0.0909 -0.3443,0.2917 0.0383,0.7125z"/>
   <path class="fil8 str0" d="M36.1249 14.2182c0.0526,0.0621 0.1793,0.0574 0.2725,0.1267 0.0933,0.0693 0.1291,0.1363 -0.0047,0.1889 -0.1339,0.0526 -0.2391,0.0526 -0.2391,0.0526"/>
   <ellipse class="fil9 str0" cx="35.4818" cy="14.3162" rx="0.1243" ry="0.1195"/>
   <ellipse class="fil9 str0" cx="36.2839" cy="13.9684" rx="0.104" ry="0.1375"/>
   <path class="fil10 str0" d="M35.8214 14.9977c0.0908,0.0526 0.3108,0.1578 0.4686,0.0669 0.1578,-0.0908 0.2534,-0.22 0.2534,-0.22 0,0 -0.086,0.2726 -0.2678,0.33 -0.1817,0.0574 -0.4542,-0.1769 -0.4542,-0.1769z"/>
   <path class="fil8 str0" d="M34.3857 15.1173c-0.067,-0.0335 -0.2726,-0.0526 -0.2917,-0.0096 -0.0191,0.0431 0.0287,0.2535 0.1243,0.2965"/>
   <path class="fil2 str0" d="M38.523 16.8982c0,0 0.2335,-0.0534 0.2909,-0.1275 0.0574,-0.0742 0.0574,-0.1507 0.153,-0.1315 0.0957,0.0191 0.1005,0.0932 0.1052,0.1649 0.0048,0.0718 -0.1434,0.1937 -0.1601,0.2033 -0.0168,0.0095 0.4232,0.1099 0.4016,0.2199 -0.0215,0.11 -0.373,0.0455 -0.373,0.0455 0,0 0.3635,0.0741 0.33,0.2008 -0.0335,0.1267 -0.3921,0.0024 -0.3921,0.0024 0,0 0.33,0.0945 0.3001,0.1973 -0.0299,0.1028 -0.3264,-0.012 -0.3264,-0.012 0,0 0.263,0.067 0.2296,0.1363 -0.0335,0.0693 -0.3348,0.0215 -0.3563,0.0215 -0.0215,0 -0.3371,-0.0191 -0.4232,-0.0837 -0.0861,-0.0645 0.1219,-0.832 0.1219,-0.832l0.0988 -0.0052z"/>
   <path class="fil2 str0" d="M33.3387 17.9602c0,0 -0.141,0.1817 -0.2056,0.3419 -0.0646,0.1602 -0.0741,0.33 -0.0407,0.3945 0.0335,0.0646 0.1578,-0.2319 0.1578,-0.2319 0,0 -0.1291,0.275 -0.0717,0.3323 0.0574,0.0574 0.1793,-0.2247 0.1793,-0.2247 0,0 -0.1171,0.2797 -0.0358,0.3371 0.0813,0.0574 0.263,-0.3036 0.263,-0.3036 0,0 -0.11,0.3443 -0.0454,0.3849 0.0645,0.0406 0.2797,-0.3036 0.318,-0.3252 0.0382,-0.0215 0.1912,0.1961 0.2653,0.1339 0.0742,-0.0621 0.0001,-0.1626 -0.0167,-0.2415 -0.0167,-0.0789 -0.0311,-0.459 -0.0311,-0.459l-0.7364 -0.1387z"/>
   <path class="fil5 str0" d="M34.9214 16.2315c0,0 -0.4161,0.3061 -0.7651,0.6169 -0.3491,0.3108 -0.7986,0.9755 -0.8082,1.052 -0.0096,0.0765 0.0622,0.1387 0.2582,0.2056 0.1961,0.067 0.5739,0.1817 0.6121,0.1435 0.0383,-0.0383 0.3204,-0.3969 0.416,-0.5356 0.0957,-0.1387 0.6265,-0.6551 0.6265,-0.6551 0,0 0.086,-0.2056 -0.0335,-0.4352 -0.1195,-0.2295 -0.306,-0.3921 -0.306,-0.3921z"/>
   <path class="fil5 str0" d="M36.5424 16.0833c0,0 0.6265,0.2726 0.9612,0.4112 0.3347,0.1387 0.9659,0.2917 0.9659,0.2917 0,0 0.11,0.0574 0.0192,0.3395 -0.0909,0.2822 -0.263,0.6552 -0.2965,0.6504 -0.0335,-0.0048 -0.4973,-0.1769 -0.6838,-0.2104 -0.1865,-0.0335 -0.593,-0.263 -0.593,-0.263l-0.373 -1.2194z"/>
   <path class="fil5 str0" d="M35.2774 15.9576l-0.356 0.2739 -0.0335 1.2385c0,0 -0.0502,0.532 -0.0646,0.6145 -0.0143,0.0825 -0.1637,1.0425 -0.1637,1.0425 0,0 0.7842,0.2104 1.3867,0.1817 0.6026,-0.0287 1.2433,-0.2296 1.2433,-0.2296 0,0 -0.1367,-1.0728 -0.3155,-1.621 -0.1788,-0.5483 -0.4317,-1.3748 -0.4317,-1.3748 0,0 -0.6897,-0.2224 -0.8164,-0.2104 -0.1267,0.0119 -0.4486,0.0847 -0.4486,0.0847z"/>
   <path class="fil11 str0" d="M34.6985 16.401c0,0 0.2085,0.1273 0.3017,0.3162 0.0933,0.1889 0.1148,0.4375 0.1148,0.4375l-0.165 0.1411c0,0 0.0502,-0.208 -0.1626,-0.4112 -0.2127,-0.2033 -0.3132,-0.287 -0.3132,-0.287l0.2243 -0.1966z"/>
   <path class="fil12 str0" d="M36.5198 22.7967c0,0 -0.1803,0.1128 -0.1851,0.3711 -0.0048,0.2582 0.0144,0.6694 0.0144,0.6694 0,0 0.6168,0.0144 0.7937,-0.0191 0.177,-0.0335 0.6265,0.0622 0.8369,0.0622 0.2104,0 0.4495,-0.0096 0.6408,-0.11 0.1912,-0.1004 0.1434,-0.3682 0.1434,-0.3682 0,0 -0.043,-0.2248 -0.1674,-0.3826 -0.1243,-0.1578 -0.4925,-0.4112 -0.6073,-0.4208 -0.1147,-0.0095 -0.7651,-0.1769 -0.7651,-0.1769l-0.636 0.1769 -0.0683 0.198z"/>
   <path class="fil12 str0" d="M35.4979 22.6035c0,0 0.0717,-0.1148 0.1674,0.2056 0.0956,0.3204 0.0478,0.6934 0.0717,0.7938 0.0239,0.1004 0.0765,0.1817 0.0143,0.2057 -0.0621,0.0239 -0.0191,0.1099 -0.2104,0.1004 -0.1912,-0.0096 -0.4351,-0.0909 -0.6168,-0.0909 -0.1817,0 -0.4495,0.2391 -0.9994,0.0813 -0.55,-0.1578 -0.7173,-0.2104 -0.8034,-0.3156 -0.0861,-0.1052 0.0096,-0.2104 0.0574,-0.2725 0.0478,-0.0622 0.1052,-0.2391 0.2869,-0.3778 0.1817,-0.1387 0.3969,-0.1913 0.6312,-0.2104 0.2343,-0.0192 0.6121,-0.2869 0.6456,-0.2965 0.0334,-0.0096 0.5786,-0.043 0.5786,-0.043l0.1769 0.2199z"/>
   <path class="fil13 str0" d="M34.7014 19.1377c0,0 -0.1551,1.29 -0.4421,1.6726 -0.2869,0.3826 -0.7459,1.8171 -0.7459,1.8171 0,0 0.8607,-0.1052 1.1285,0.0478 0.2678,0.1531 1.2146,0.0861 1.2146,0.0861l0.1339 -3.1082 0.153 3.0986c0,0 0.6312,0.1052 1.052,0.0383 0.4208,-0.0669 1.2433,-0.0956 1.2433,-0.0956 0,0 -0.4399,-0.8608 -0.7173,-1.7885 -0.2773,-0.9277 -0.4318,-1.8268 -0.4318,-1.8268 0,0 -0.8048,0.1912 -1.2433,0.2296 -0.4385,0.0383 -1.3449,-0.171 -1.3449,-0.171z"/>
   <path class="fil11 str0" d="M38.2564 16.7661c0,0 0.0287,0.2307 -0.0251,0.4184 -0.0538,0.1877 -0.2282,0.5293 -0.2282,0.5293l-0.2335 -0.0771c0,0 0.2023,-0.4414 0.2214,-0.6183 0.0191,-0.177 0.0178,-0.3553 0.0178,-0.3553l0.2476 0.103z"/>
   <path class="fil11 str0" d="M37.4195 16.4852c0,0 0.0814,0.0885 0.0359,0.3156 -0.0454,0.2271 -0.1913,0.6503 -0.1913,0.6503 0,0 0.2135,0.1454 0.2443,0.1146 0.0307,-0.0309 0.2292,-0.6286 0.2315,-0.7458 0.0024,-0.1171 -0.0085,-0.2422 -0.0085,-0.2422l-0.3119 -0.0925z"/>
   <path class="fil11 str0" d="M37.092 16.3442c0,0 0.0718,0.1004 0.0455,0.2199 -0.0263,0.1196 -0.1555,0.734 -0.1555,0.734l-0.0851 -0.0792 -0.0966 -0.4085c0,0 0.0957,-0.3324 0.0574,-0.428 -0.0382,-0.0956 -0.043,-0.1674 -0.043,-0.1674l0.2773 0.1292z"/>
   <path class="fil4 str2" d="M35.1567 16.0505c0,0 0.2928,0.2004 0.5749,0.1717 0.2821,-0.0287 0.5452,-0.263 0.5452,-0.263l0.2845 0.1858c0,0 -0.0789,0.2685 -0.6432,0.3354 -0.5643,0.067 -0.9635,-0.2177 -0.9635,-0.2177l0.2021 -0.2122z"/>
   <path class="fil11 str0" d="M36.6603 16.54c0,0 -0.5828,0.2871 -1.1357,0.2369 -0.5528,-0.0501 -0.5475,-0.0338 -0.5475,-0.0338l-0.0149 0.3157c0,0 0.4939,0.1294 0.991,0.0624 0.497,-0.0669 0.8409,-0.2153 0.8409,-0.2153l-0.1338 -0.3659z"/>
   <path class="fil11 str0" d="M36.8779 17.1592c0,0 -0.264,0.2442 -0.7948,0.249 -0.5307,0.0047 -1.1914,-0.077 -1.1914,-0.077l-0.0236 0.3433c0,0 0.799,0.164 1.2772,0.0923 0.4782,-0.0717 0.8545,-0.2252 0.8545,-0.2252l-0.1219 -0.3824z"/>
   <path class="fil11 str0" d="M34.8399 17.9496c0,0 0.5116,0.1854 1.1811,0.1471 0.6695,-0.0382 1.0698,-0.1909 1.0698,-0.1909l0.0325 0.277c0,0 -0.3897,0.2009 -1.0831,0.22 -0.6934,0.0191 -1.2366,-0.1961 -1.2366,-0.1961l0.0363 -0.2571z"/>
   <path class="fil11 str0" d="M37.1759 18.4578l0.0431 0.2821c0,0 -0.3658,0.2606 -1.1787,0.2893 -0.813,0.0287 -1.333,-0.208 -1.333,-0.208l0.0539 -0.3452c0,0 0.6096,0.2615 1.303,0.2041 0.6933,-0.0573 1.1117,-0.2223 1.1117,-0.2223z"/>
   <path class="fil11 str0" d="M34.2213 16.7912c0,0 0.1669,0.0647 0.351,0.2631 0.1841,0.1985 0.2558,0.4041 0.2558,0.4041l-0.1889 0.2032c0,0 -0.0789,-0.2008 -0.2726,-0.3538 -0.1936,-0.1531 -0.3844,-0.2859 -0.3844,-0.2859l0.2391 -0.2307z"/>
   <path class="fil11 str0" d="M33.7605 17.2839c0,0 0.2906,0.1267 0.4173,0.2486 0.1267,0.1219 0.3012,0.3467 0.3012,0.3467 0,0 -0.1506,0.2271 -0.1697,0.22 -0.0191,-0.0072 -0.0574,-0.1339 -0.373,-0.2989 -0.3156,-0.165 -0.4048,-0.207 -0.4048,-0.207l0.229 -0.3094z"/>
  </g>
  <path class="fil1 str1" d="M25.9157 23.8234c0,0 0.3044,1.9905 1.537,2.9386 1.2327,0.9481 4.9308,3.9346 8.0686,4.0926 3.1378,0.158 11.9908,0.6795 15.5768,-0.0158 3.586,-0.6952 5.6591,-4.1717 6.2755,-4.9301 0.6164,-0.7583 0.7843,-1.833 0.7843,-1.833l-32.2422 -0.2523z"/>
  <path class="fil14 str3" d="M0.0404 25.0275c3.9687,1.3229 6.3499,-0.5292 12.1708,4.4979 5.8209,5.0271 8.8627,4.2962 15.3459,2.6458 6.4832,-1.6504 6.899,-3.7459 15.7526,-1.0792 8.8536,2.6667 9.9121,2.9312 18.1141,-1.0375 8.202,-3.9687 8.9957,-8.4666 16.1395,-4.2333 7.1438,4.2333 10.0543,6.0855 14.023,3.7042 3.9687,-2.3813 8.3344,-2.1387 8.3344,-2.1387l-0.0001 72.6171 -100.1448 0.6945 0.2646 -75.6708z"/>
  <path class="fil15 str1" d="M47.2878 4.8279c0,0 4.3705,2.1291 4.4825,6.0513 0.1121,3.9222 -2.4654,7.9566 -3.8102,8.9651 -1.3447,1.0086 1.1207,-6.1634 0.5604,-8.1806 -0.5604,-2.0172 -1.2327,-6.8358 -1.2327,-6.8358z"/>
  <g id="_2564780278672">
   <ellipse class="fil16 str4" cx="42.6001" cy="19.2046" rx="0.9931" ry="3.0548"/>
   <path class="fil16 str4" d="M42.4897 16.1339l0.0042 -0.1723c0,0 0.0456,-0.116 0.0425,-0.2087 -0.0032,-0.0928 -0.1136,-1.1961 0.0594,-1.153 0.1729,0.043 0.0562,0.9972 0.0605,1.1099 0.0042,0.1126 0.0339,0.2485 0.0339,0.2485l0.0003 0.1648 -0.2008 0.0108z"/>
   <path class="fil16 str4" d="M43.2109 16.8401l0.0402 -0.1188c0,0 0.0587,0.0099 0.0763,-0.0655 0.0176,-0.0754 0.1732,-1.1242 0.2921,-0.7295 0.1188,0.3947 -0.1729,0.8567 -0.194,0.9491 -0.0211,0.0923 -0.0283,0.2553 -0.0283,0.2553l-0.0353 0.1226 -0.151 -0.4132z"/>
   <path class="fil16 str4" d="M43.5758 18.9195l0.0551 0.0166c0,0 0.0363,0.1447 0.066,0.1365 0.0298,-0.0081 0.3851,-0.3315 0.368,0.2077 -0.0171,0.5391 -0.3203,0.1564 -0.3565,0.1675 -0.0361,0.0111 -0.0802,0.1012 -0.0802,0.1012l-0.0528 -0.0023 0.0004 -0.6272z"/>
   <path class="fil16 str4" d="M43.3593 21.1713l0.035 0.1337c0,0 -0.0073,0.1822 0.0156,0.2424 0.0228,0.0602 0.3467,0.6195 0.2122,0.9616 -0.1345,0.3421 -0.2614,-0.5995 -0.2894,-0.6717 -0.028,-0.0723 -0.0795,-0.1063 -0.0795,-0.1063l-0.0367 -0.1186 0.1428 -0.4411z"/>
   <path class="fil16 str4" d="M42.6999 22.2701l-0.0033 0.1725c0,0 -0.045,0.1184 -0.0413,0.211 0.0037,0.0926 0.1202,1.1897 -0.053,1.156 -0.1732,-0.0337 -0.0618,-0.9941 -0.0666,-1.1065 -0.0049,-0.1124 -0.0353,-0.2466 -0.0353,-0.2466l-0.0012 -0.1648 0.2007 -0.0216z"/>
   <path class="fil16 str4" d="M41.9752 21.6168l-0.0431 0.1087c0,0 -0.0583,-0.024 -0.0777,0.0469 -0.0194,0.071 -0.2005,1.079 -0.3092,0.6568 -0.1087,-0.4222 0.1936,-0.8124 0.2169,-0.8994 0.0233,-0.087 0.0345,-0.2477 0.0345,-0.2477l0.0382 -0.1138 0.1404 0.4485z"/>
   <path class="fil16 str4" d="M41.61 19.5418l-0.0551 -0.0138c0,0 -0.037,-0.1429 -0.0667,-0.1332 -0.0298,0.0096 -0.3834,0.3505 -0.3691,-0.1894 0.0144,-0.5399 0.3196,-0.1723 0.3557,-0.1852 0.036,-0.0129 0.0796,-0.1052 0.0796,-0.1052l0.0528 -0.0003 0.0028 0.6271z"/>
   <path class="fil16 str4" d="M41.8378 17.277l-0.0366 -0.1298c0,0 0.0052,-0.1829 -0.0183,-0.2406 -0.0235,-0.0576 -0.3535,-0.5807 -0.2229,-0.9375 0.1305,-0.3568 0.2679,0.5702 0.2967,0.6393 0.0288,0.0691 0.0807,0.0975 0.0807,0.0975l0.038 0.1144 -0.1376 0.4567z"/>
   <ellipse class="fil7 str4" cx="42.6054" cy="19.1891" rx="0.6989" ry="2.0869"/>
   <path class="fil16 str4" d="M42.1678 20.9225l0.026 -0.0731c0,0 0.0051,-0.1801 0.0145,-0.2263 0.0093,-0.0462 0.2547,-0.7454 0.2547,-0.7454l-0.0795 -0.3128c0,0 -0.2534,0.7736 -0.2602,0.7802 -0.0068,0.0065 -0.0778,0.0623 -0.0778,0.0623l-0.0242 0.0673 0.1465 0.4478z"/>
   <path class="fil16 str4" d="M42.6939 21.3632l0.0009 -0.1094c0,0 -0.0384,-0.1353 -0.0427,-0.1883 -0.0043,-0.0529 0.0017,-1.09 0.0017,-1.09l-0.1274 -0.0348c0,0 0.0058,1.1066 0.0027,1.1265 -0.0032,0.0199 -0.039,0.2192 -0.039,0.2192l-0.001 0.1013 0.2048 -0.0245z"/>
   <path class="fil16 str4" d="M42.4913 17.0748l-0.0011 0.1094c0,0 0.0382,0.1358 0.0425,0.1888 0.0042,0.053 -0.0032,1.0901 -0.0032,1.0901l0.1273 0.0364c0,0 -0.0042,-1.1066 -0.001,-1.1265 0.0031,-0.0198 0.0392,-0.2186 0.0392,-0.2186l0.0012 -0.1013 -0.2049 0.0217z"/>
   <path class="fil16 str4" d="M43.0236 17.472l-0.026 0.0735c0,0 -0.0047,0.1802 -0.014,0.2265 -0.0093,0.0464 -0.2534,0.7498 -0.2534,0.7498l0.08 0.3114c0,0 0.2521,-0.7779 0.2589,-0.7846 0.0068,-0.0066 0.0776,-0.0636 0.0776,-0.0636l0.0241 -0.0677 -0.1472 -0.4453z"/>
   <path class="fil16 str4" d="M42.0244 17.9542l0.0242 0.0792c0,0 0.0577,0.0107 0.0728,0.0386 0.015,0.0278 0.2459,0.7736 0.2459,0.7736l0.0979 -0.2571c0,0 -0.255,-0.7687 -0.2573,-0.7898 -0.0022,-0.021 -0.0221,-0.2409 -0.0221,-0.2409l-0.0223 -0.0737 -0.1391 0.4701z"/>
   <path class="fil16 str4" d="M41.8981 19.5457l0.035 0.0038c0,0 0.0437,-0.1186 0.0606,-0.1316 0.017,-0.013 0.3491,0.0152 0.3491,0.0152l0.0123 -0.3975c0,0 -0.3544,0.008 -0.3608,-0.002 -0.0063,-0.0101 -0.0698,-0.1237 -0.0698,-0.1237l-0.0324 -0.004 0.006 0.6398z"/>
   <path class="fil16 str4" d="M43.1471 20.5001l-0.0242 -0.079c0,0 -0.0578,-0.0104 -0.0729,-0.0381 -0.0151,-0.0278 -0.2465,-0.7721 -0.2465,-0.7721l-0.0976 0.2577c0,0 0.2554,0.7671 0.2577,0.7882 0.0023,0.021 0.0224,0.2408 0.0224,0.2408l0.0223 0.0735 0.1388 -0.471z"/>
   <path class="fil16 str4" d="M43.2984 18.9297l-0.035 -0.0044c0,0 -0.0439,0.1179 -0.0609,0.1306 -0.017,0.0127 -0.349,-0.021 -0.349,-0.021l-0.013 0.3972c0,0 0.3544,-0.002 0.3608,0.0081 0.0063,0.0102 0.0696,0.1248 0.0696,0.1248l0.0324 0.0046 -0.0049 -0.6399z"/>
   <ellipse class="fil16 str4" cx="42.5992" cy="19.231" rx="0.2521" ry="0.7827"/>
   <ellipse class="fil17 str4" cx="42.5916" cy="19.2467" rx="0.1119" ry="0.3611"/>
  </g>
  <path class="fil8 str1" d="M50.474 20.9169c0.9558,0.033 3.4715,0.6811 3.4386,3.1859 -0.033,2.5048 -1.9336,3.2738 -3.131,3.2298 -1.1975,-0.0439 -3.8121,-0.9008 -3.867,-2.9112 -0.055,-2.0104 1.6259,-3.3617 3.5594,-3.5045z"/>
  <path class="fil8 str1" d="M48.4086 24.2456c0,-1.3183 0.9888,-1.8896 1.9445,-1.9115 0.9558,-0.022 2.1313,0.3955 2.1752,1.516 0.044,1.1206 -0.723,2.1238 -1.9754,2.2446 -1.2524,0.1208 -2.2981,-1.2119 -2.1443,-1.8491z"/>
  <path class="fil18 str1" d="M49.0089 21.2787c0,0 0.0479,0.3028 0.1303,0.55 0.0824,0.2472 0.318,0.7025 0.318,0.7025 0,0 0.3082,-0.2633 1.0333,-0.1973 0.725,0.0661 1.0185,0.1975 1.0185,0.1975 0,0 -0.0024,-0.2852 0.1899,-0.6752 0.1922,-0.39 0.3455,-0.5536 0.3455,-0.5536 0,0 -0.786,-0.3899 -1.4996,-0.3823 -0.7135,0.0076 -1.5359,0.3584 -1.5359,0.3584z"/>
  <path class="fil18 str1" d="M52.4281 23.3706c0,0 0.2815,-0.0313 0.5781,-0.1577 0.2966,-0.1263 0.6719,-0.3578 0.6719,-0.3578 0,0 0.2497,0.6173 0.2336,1.105 -0.0162,0.4877 -0.1208,1.3293 -0.1808,1.3237 -0.06,-0.0055 -0.3567,-0.055 -0.6917,-0.1154 -0.3351,-0.0604 -0.7861,-0.148 -0.7861,-0.148 0,0 0.2633,-0.5566 0.2684,-0.8802 0.0052,-0.3236 -0.0934,-0.7696 -0.0934,-0.7696z"/>
  <path class="fil18 str1" d="M51.6659 25.6463c0,0 -0.0824,0.4724 0.033,0.6866 0.1153,0.2142 0.5597,0.6737 0.5261,0.6896 -0.0336,0.0159 -0.8062,0.3321 -1.4434,0.3101 -0.6372,-0.0219 -1.3632,-0.1291 -1.3517,-0.2678 0.0114,-0.1386 0.1103,-0.2595 0.1707,-0.4408 0.0604,-0.1812 0.1877,-0.6299 0.1877,-0.6299 0,0 0.4202,0.173 0.9237,0.0801 0.5035,-0.0928 0.9539,-0.4279 0.9539,-0.4279z"/>
  <path class="fil18 str1" d="M47.2456 25.5297c0,0 0.6082,0.1606 0.9159,0.0067 0.3076,-0.1538 0.6712,-0.3304 0.6152,-0.3405 -0.0561,-0.0102 -0.4214,-0.409 -0.3818,-0.8574 0.0396,-0.4485 0.1451,-0.8532 0.1451,-0.8532 0,0 -0.3181,0.071 -0.6477,-0.0224 -0.3296,-0.0934 -0.7136,-0.4241 -0.7136,-0.4241 0,0 -0.2713,0.6979 -0.2648,1.2217 0.0065,0.5237 0.3317,1.2692 0.3317,1.2692z"/>
  <polygon class="fil16 str1" points="81.9444,87.3236 85.3992,84.6444 87.0914,85.9135 82.72,89.8619 79.1242,90.4964 "/>
  <polygon class="fil19 str1" points="81.2394,88.2578 82.2524,89.9444 80.6665,90.2849 80.0471,89.4581 "/>
  <path class="fil20 str1" d="M75.0677 76.0365c0,0 0.397,-1.3234 -0.1986,-2.8453 -0.5955,-1.5219 -0.9043,-2.8453 -0.9043,-2.8453 0,0 5.051,-0.6838 7.8081,0.8823 2.7571,1.566 7.7861,8.0066 8.0066,8.3815 0.2206,0.375 2.0513,-0.9263 3.1431,-2.9886 1.0919,-2.0623 2.4263,-2.5035 2.8233,-2.327 0.397,0.1764 -1.3344,5.2495 -1.18,6.2641 0.1544,1.0146 1.4116,1.4778 1.6983,2.4483 0.2868,0.9705 0.4853,1.4558 0.1765,1.6102 -0.3088,0.1544 -2.6248,-0.1544 -3.9261,-1.3896 -1.3014,-1.2352 -2.9213,-1.18 -2.9213,-1.18 0,0 -7.9748,-5.3488 -8.5924,-5.6576 -0.6176,-0.3088 -5.9332,-0.353 -5.9332,-0.353z"/>
  <g id="_2565052679424">
   <path class="fil21 str1" d="M73.8766 77.1834c0,0 0.2206,-2.0734 2.2939,-2.6027 2.0734,-0.5294 4.4996,-0.5294 7.1464,1.4998 2.6468,2.0293 6.9258,4.1908 6.8376,5.2054 -0.0882,1.0147 -5.1172,3.7056 -7.3669,4.4996 -2.2498,0.7941 -3.7938,1.0146 -5.2937,0.3529 -1.4998,-0.6617 -5.4039,-1.8307 -5.4039,-3.0879 0,-1.2573 0.7279,-0.9926 0.8823,-1.4558 0.1544,-0.4632 0.1544,-3.529 0.9043,-4.4113z"/>
   <path class="fil22 str1" d="M73.9097 82.08c0.0441,-0.6176 2.0513,-1.1028 2.7791,-0.2537 0.7279,0.8492 -3.2864,0.9926 -2.7791,0.2537z"/>
   <path class="fil1 str1" d="M73.4024 83.6791c0.1363,-0.1932 1.5716,0.6797 2.978,0.3876 1.3233,-0.2749 3.0827,-1.7658 3.1869,-1.6448 0.1133,0.2797 -1.0698,1.9189 -2.7461,2.1174 -1.6763,0.1985 -2.9115,-0.6175 -3.4188,-0.8602z"/>
   <path class="fil8 str1" d="M76.9094 80.9331c-0.375,-0.3088 -0.0882,-4.2129 1.7204,-3.9041 1.8087,0.3088 1.4117,3.9702 1.2132,4.2349 -0.1985,0.2647 -0.2427,-0.3088 -1.3896,-0.3088 -1.147,0 -1.544,-0.022 -1.544,-0.022z"/>
   <path class="fil7 str1" d="M76.9021 80.9363c0,0 -0.3222,-1.3189 0.3524,-2.0237 0.6745,-0.7048 1.5706,-0.4732 1.8223,-0.302 0.2517,0.1711 0.886,0.6343 0.9666,0.9967 0.0805,0.3625 -0.3903,1.0516 -0.7249,1.2485 -0.3347,0.1969 -2.4164,0.0805 -2.4164,0.0805z"/>
   <ellipse class="fil9 str1" cx="78.5912" cy="79.8413" rx="0.5349" ry="0.8051"/>
   <path class="fil8 str1" d="M73.1633 81.5947c0,0 -0.0722,-4.1909 0.6213,-4.0695 0.6934,0.1214 0.3969,3.5844 0.387,3.7167 -0.0099,0.1323 -1.0286,0.4079 -1.0286,0.4079"/>
   <path class="fil7 str1" d="M73.4796 81.297c-0.4473,-0.0516 -0.5404,-2.6027 0.011,-2.4924 0.5514,0.1103 1.0698,2.0072 -0.011,2.4924z"/>
   <ellipse class="fil9 str1" cx="73.6946" cy="80.0619" rx="0.2923" ry="0.3419"/>
   <path class="fil20 str1" d="M82.5449 82.7418c0.1765,0.0441 5.2461,0.5741 5.2461,0.5741 0,0 -0.3495,0.639 -0.0848,1.1243 0.2647,0.4852 0.8382,1.2572 0.8382,1.2572 0,0 -0.4191,-0.1765 -0.6838,-0.1103 -0.2647,0.0662 -0.3088,0.4632 -0.3088,0.4632 0,0 -0.3529,-0.3308 -0.6838,-0.2206 -0.3308,0.1103 -0.5734,0.5294 -0.5734,0.5294l-3.7497 -3.6173z"/>
  </g>
  <polygon class="fil8 str1" points="53.3189,73.4691 65.305,74.0332 65.587,95.3261 54.306,97.5823 "/>
  <polygon class="fil23 str1" points="65.305,74.0332 53.3189,73.4691 51.7325,73.1519 52.3671,97.0535 54.306,97.5823 53.3189,73.4691 51.7325,73.1519 "/>
  <path class="fil8 str1" d="M55.0111 79.3564c0.0411,-0.0156 1.1449,-1.1932 1.9681,0.282 0.1514,0.2713 -2.3686,3.4769 -1.3336,3.0499 0.117,-0.0482 1.5391,-0.0181 1.7627,-0.0181"/>
  <path class="fil8 str1" d="M60.44 80.0615c-0.5809,-0.1937 -1.8123,1.499 -2.1856,2.0447"/>
  <path class="fil8 str1" d="M58.0428 79.85c1.3175,-0.3746 1.5325,2.0976 2.8203,2.0447"/>
  <path class="fil8 str1" d="M62.5552 80.4845c-0.2594,-1.3071 4.7835,-2.9344 0.2297,2.3086 -0.7471,0.8601 0.4759,0.611 1.533,0.6527 0.1409,0.0055 0.1534,0.0166 0.141,-0.141"/>
  <path class="fil8 str1" d="M55.6456 87.6057c0.5664,-0.0607 2.3511,-0.131 2.2965,-0.0645l-0.1108 0.135"/>
  <path class="fil8 str1" d="M55.9982 89.2978c1.2013,-0.1287 0.9805,-0.6205 2.8907,-0.6346 0.2099,-0.0015 0.0412,-0.0115 0.2115,-0.0705"/>
  <path class="fil8 str1" d="M62.3437 85.843c-0.0789,0.0814 -2.0789,2.5382 -1.398,2.5382 0.3337,0 1.8418,0.334 1.821,0.0705"/>
  <path class="fil8 str1" d="M64.0359 86.0545c-0.91,1.2818 -1.9037,2.9083 -1.9037,4.5829"/>
  <path class="fil24 str0" d="M10.5834 92.3148c0,0 -2.3262,1.5181 -2.4241,1.7875 -0.098,0.2693 -0.1714,1.3222 -0.098,1.6405 0.0735,0.3183 0.2449,2.8159 0.4898,2.5465 0.2448,-0.2693 0.1591,-1.7017 0.1101,-2.1425 -0.0489,-0.4407 -0.5019,-1.2977 -0.0489,-1.5548 0.453,-0.2571 2.6567,-1.3467 2.877,-1.5181 0.2204,-0.1714 -0.9059,-0.7591 -0.9059,-0.7591z"/>
  <path class="fil24 str0" d="M10.0324 91.4027c0,0 -2.1241,1.4324 -2.32,1.6895 -0.1959,0.2571 -0.5264,1.5059 -0.4652,1.7018 0.0612,0.1959 0.1346,2.6567 0.3183,2.5465 0.1836,-0.1102 0.1224,-2.0935 0.1224,-2.2649 0,-0.1714 0.1347,-1.1264 0.2449,-1.2978 0.1102,-0.1714 2.5832,-1.6405 2.5832,-1.6405l-0.4836 -0.7346z"/>
  <path class="fil24 str0" d="M9.7692 90.6069c0,0 -1.9833,0.906 -2.1425,1.1264 -0.1592,0.2204 -0.7958,1.9833 -0.7958,1.9833 0,0 -0.3918,2.6445 -0.2204,2.62 0.1714,-0.0245 0.5204,-2.1731 0.5387,-2.2343 0.0184,-0.0612 0.6305,-1.6222 0.7468,-1.6957 0.1163,-0.0734 1.9283,-1.0284 1.9283,-1.0284l-0.0551 -0.7713z"/>
  <path class="fil24 str0" d="M9.6774 89.4806c-0.1347,0.0245 -1.7508,0.502 -2.1303,0.857 -0.3795,0.3551 -0.9182,2.2649 -1.0651,2.6934 -0.1469,0.4285 -0.3312,1.322 -0.049,1.359 0.2822,0.037 0.5387,-1.5732 0.5877,-1.7262 0.0489,-0.1531 0.5509,-1.4508 0.7284,-1.61 0.1775,-0.1591 1.8364,-0.7345 1.8364,-0.7345l0.0919 -0.8387z"/>
  <path class="fil24 str0" d="M20.5674 93.833l0.5019 -0.6979c0,0 1.0896,0.3183 1.1141,0.857 0.0245,0.5387 0.2938,1.1508 0.1102,1.6406 -0.1836,0.4897 -0.2938,2.6566 -0.5387,2.4608 -0.2448,-0.1959 -0.0857,-2.0201 0.0367,-2.3017 0.1225,-0.2816 0.2449,-0.906 -0.0979,-1.212 -0.3428,-0.3061 -1.1263,-0.7468 -1.1263,-0.7468z"/>
  <path class="fil24 str0" d="M21.6141 91.9904c0.0429,0.0245 1.1141,0.8448 1.2916,1.0774 0.1776,0.2326 0.2204,1.3222 0.2939,1.6344 0.0734,0.3122 0.0857,2.4302 0,2.5098 -0.0857,0.0796 -0.5142,-0.8509 -0.502,-1.0284 0.0123,-0.1775 0.1286,-1.0896 0.1347,-1.2916 0.0061,-0.202 -0.1225,-1.2059 -0.2143,-1.2855 -0.0918,-0.0796 -1.0529,-0.5816 -1.163,-0.6305 -0.1102,-0.049 0.1591,-0.9856 0.1591,-0.9856z"/>
  <path class="fil24 str0" d="M21.6019 90.7355c0,0 1.6895,0.7346 1.9955,1.6896 0.3061,0.9549 0.4775,2.7056 0.4653,2.9382 -0.0123,0.2327 -0.0368,1.2611 -0.1469,1.2611 -0.1102,0 -0.098,-1.2855 -0.147,-1.5426 -0.0489,-0.2571 -0.5631,-2.5221 -0.7835,-2.669 -0.2204,-0.1469 -1.5059,-0.6244 -1.5059,-0.6244l0.1225 -1.0529z"/>
  <path class="fil24 str0" d="M22.8017 89.9153c0.1958,0.1591 0.9304,0.7101 1.1753,1.2855 0.2448,0.5754 0.453,1.6405 0.5631,1.9099 0.1102,0.2693 0.5387,1.8241 0.3306,1.8241 -0.2081,0 -0.6856,-1.3712 -0.7591,-1.7262 -0.0734,-0.355 -1.163,-2.3874 -1.3834,-2.5343 -0.2204,-0.1469 -0.906,-0.5509 -0.906,-0.5509l0.9795 -0.2081z"/>
  <path class="fil24 str0" d="M20.7816 87.8095c0.1469,0.0735 1.9221,0.4897 2.2282,0.9427 0.306,0.453 -0.955,2.2282 -1.0651,2.4363 -0.1102,0.2082 -0.0813,1.1296 -0.4898,1.9344 -0.4084,0.8048 -1.6895,2.2037 -2.6199,2.4731 -0.9305,0.2693 -4.5299,0.6121 -5.0196,0.2203 -0.4897,-0.3917 -1.2243,-0.6366 -1.2488,-1.0039 -0.0244,-0.3673 0.6612,-0.4652 0.9305,-0.5019 0.2693,-0.0368 0.3061,-0.4653 0.502,-0.6367 0.1958,-0.1714 0.6855,0.0368 0.8569,-0.0122 0.1714,-0.049 0.049,-0.5264 0.1959,-0.5754 0.1469,-0.049 0.4653,0.3428 0.5999,0.2326 0.1347,-0.1102 0.2816,-0.7101 0.2816,-0.7101 0,0 0.2204,0.0612 0.4163,0.0367 0.1959,-0.0244 0.2938,-0.2081 0.5019,-0.4529 0.2082,-0.2449 0.7958,-0.4163 0.857,-0.502 0.0612,-0.0857 0.0735,-0.2204 -0.1591,-0.3918 -0.2326,-0.1714 -0.955,0.5142 -0.955,0.5142l-0.7713 -0.0489 -0.1469 0.5509 -0.5754 0.2204c0,0 -0.5632,0.8325 -0.6734,0.6488 -0.1101,-0.1836 0.5999,-1.2977 1.0897,-1.6895 0.4897,-0.3918 0.8325,-1.0774 1.3099,-1.2977 0.4775,-0.2204 1.1998,-0.857 1.6651,-0.7224 0.4652,0.1347 1.1141,-0.0734 1.665,0.2939 0.5509,0.3673 0.8448,0.5509 0.9794,0.4897 0.1347,-0.0612 0.5387,-0.808 0.5387,-0.808 0,0 -0.906,-0.147 -0.857,-0.2204 0.049,-0.0735 -0.0367,-1.4202 -0.0367,-1.4202z"/>
  <path class="fil24 str0" d="M9.8304 87.6871c-0.049,-0.0857 -0.5632,-0.5264 -1.0407,-0.6244 -0.4775,-0.0979 -0.8937,-0.1347 -0.8937,-0.1347l0.8447 -1.4079c0,0 1.9834,-0.1102 2.4976,-0.5632 0.5142,-0.4529 1.1386,-1.2242 1.1386,-1.2242 0,0 3.2076,-4.3218 2.9627,-4.689 -0.2448,-0.3673 -0.6366,-0.0857 -0.6366,-0.0857l-0.2204 0.7713 -0.8692 0.0612c0,0 -0.355,0.9059 -0.4285,0.8815 -0.0735,-0.0245 -0.9305,-0.2204 -0.9305,-0.2204l-0.3305 0.9917c0,0 -0.8693,0.0612 -1.0039,-0.0245 -0.1347,-0.0857 -0.1347,-0.857 -0.1347,-0.857l0.5142 0.306 0.0735 -0.9182 1.163 -0.1469 -0.0734 -0.8937 1.0529 0.2938 0.3305 -0.906c0,0 0.906,0.1102 1.1753,0.0613 0.2694,-0.049 0.7958,-0.453 0.8938,-0.5999 0.0979,-0.147 -1.5304,-0.6612 -2.7302,-0.2327 -1.1998,0.4285 -2.6689,1.0652 -2.8281,1.1019 -0.1592,0.0367 -1.7262,0.7713 -2.2894,1.7018 -0.5632,0.9304 -0.906,1.2487 -0.906,2.2282 0,0.9794 0,1.3467 0,1.3467 0,0 -0.153,2.5832 -0.2877,2.8158 -0.1347,0.2326 0.0367,1.1141 0.2326,1.2488 0.1959,0.1347 2.0078,1.4936 2.0078,1.4936l0.7163 -1.7752z"/>
  <path class="fil25 str0" d="M10.0079 87.4178c0,0 1.3589,-0.4408 1.7017,-0.502 0.3428,-0.0612 2.6812,-0.808 3.0118,-0.8447 0.3305,-0.0368 3.1219,0.5754 3.5626,0.7713 0.4408,0.1958 1.6528,0.404 2.0201,0.7345 0.3673,0.3306 0.6244,0.906 0.4285,1.4079 -0.1959,0.502 -1.1753,6.1949 -5.9255,5.3624 -4.7503,-0.8325 -6.2786,-3.6571 -4.7992,-6.9294z"/>
  <ellipse class="fil26 str0" cx="12.9523" cy="87.73" rx="0.857" ry="1.3957"/>
  <ellipse class="fil7 str0" cx="16.9251" cy="87.4484" rx="0.8509" ry="1.4814"/>
  <ellipse class="fil27 str0" cx="13.0992" cy="87.6626" rx="0.404" ry="0.5693"/>
  <ellipse class="fil27 str0" cx="17.072" cy="87.7116" rx="0.3734" ry="0.606"/>
  <path class="fil26 str0" d="M11.8994 89.6766c0.3917,0.2693 2.5232,1.0507 3.2578,0.8059 1.0174,-0.3392 0.3727,-0.6088 2.3678,-1.1426 0,0 -1.512,1.8242 -2.1731,1.812 -1.3381,-0.0248 -2.3306,-0.8666 -3.4525,-1.4753z"/>
  <ellipse class="fil7 str1" cx="66.7863" cy="69.4211" rx="1.1906" ry="2.1166"/>
  <ellipse class="fil7 str1" cx="69.6306" cy="78.8138" rx="0.7276" ry="0.926"/>
  <ellipse class="fil7 str1" cx="75.7821" cy="59.1685" rx="1.1906" ry="0.9922"/>
  <ellipse class="fil7 str1" cx="57.5258" cy="54.5383" rx="1.1906" ry="1.5213"/>
  <ellipse class="fil7 str1" cx="21.1456" cy="83.7748" rx="1.7198" ry="1.3891"/>
  <ellipse class="fil7 str1" cx="19.6903" cy="68.5612" rx="1.1906" ry="0.7276"/>
  <ellipse class="fil7 str1" cx="34.3747" cy="66.4446" rx="1.1906" ry="1.1245"/>
  <path class="fil28 str0" d="M35.9373 98.7133c0,0 0.574,-1.0596 -0.3384,-2.649 -0.9125,-1.5894 -1.5306,-2.0603 -2.0309,-2.9433 -0.5004,-0.883 -1.1479,-3.0904 -0.6181,-3.8557 0.5298,-0.7653 0.7358,-3.2671 1.0007,-3.2376 0.2649,0.0294 -0.0294,2.8255 0.0589,3.944 0.0883,1.1185 0.412,2.1486 0.7947,2.8256 0.3826,0.6769 0.883,0.9418 1.3245,2.0014 0.4414,1.0596 -0.1322,3.7727 -0.1322,3.7727l-0.0592 0.1419z"/>
  <path class="fil28 str0" d="M41.8681 97.742c0.0589,-0.5739 -0.6034,-1.5599 -0.3826,-1.9573 0.2207,-0.3973 0.7064,-0.2502 0.7799,-0.6328 0.0736,-0.3826 -0.7358,-0.8977 -0.5298,-1.3539 0.2061,-0.4562 0.368,-0.4562 0.3827,-0.7653 0.0147,-0.309 -0.5887,-1.1331 -0.677,-1.4128 -0.0883,-0.2796 0.1472,-0.4562 0.1472,-0.8682 0,-0.4121 -0.8609,-1.0081 -0.7285,-1.3392 0.1325,-0.3312 0.2208,-0.3974 0.3164,-0.6108 0.0957,-0.2134 -0.493,-1.1037 -0.2428,-1.2803 0.2502,-0.1766 0.2796,-0.1545 0.3679,-0.3385 0.0883,-0.1839 -0.2428,-0.5739 0.0147,-0.8315 0.2576,-0.2575 0.39,-0.1913 0.5887,-0.3973 0.1987,-0.206 0.0809,-0.9345 0.287,-0.9934 0.206,-0.0588 0.2869,-0.0956 0.4414,-0.1619 0.1546,-0.0662 0.5887,-1.2288 0.7432,-1.1184 0.1546,0.1104 -0.3605,1.3981 -0.2649,1.5379 0.0957,0.1398 0.3091,0.0073 0.3312,0.3237 0.022,0.3164 -0.6844,0.5813 -0.574,0.8462 0.1104,0.2649 0.1913,0.1178 0.3017,0.493 0.1104,0.3753 -0.6181,0.4562 -0.5519,0.8315 0.0663,0.3753 0.2502,0.1693 0.3606,0.4489 0.1104,0.2796 -0.5887,0.5445 -0.3459,0.9345 0.2429,0.39 0.6623,0.2281 0.6623,0.2281 0,0 -0.2208,0.7358 -0.0883,1.0449 0.1324,0.309 0.3679,0.0588 0.5592,0.2354 0.1913,0.1766 -0.3237,1.0522 -0.0294,1.4937 0.2943,0.4415 0.1839,-0.1766 0.5519,0.1619 0.3679,0.3385 -0.3974,1.4422 -0.2355,1.766 0.1619,0.3238 0.3679,0.5224 0.493,0.7726 0.1251,0.2502 -0.4636,0.964 -0.5813,1.376 -0.1177,0.4121 -1.0596,1.1038 -1.1332,1.3834 -0.0736,0.2796 -0.9617,0.055 -0.9617,0.055l-0.0022 0.1289z"/>
  <path class="fil28 str0" d="M47.556 83.6951c0.2208,-0.0736 0.1766,0.0442 -0.0147,0.5593 -0.1913,0.515 -0.6622,1.1331 -0.7653,1.5893 -0.103,0.4563 0.2944,1.1774 0.1472,1.7513 -0.1472,0.5739 -0.412,0.5151 -0.7505,1.3318 -0.3385,0.8168 0.2134,1.1259 0.0515,1.744 -0.1619,0.618 -0.4857,0.8535 -0.5445,1.7218 -0.0589,0.8683 0.515,1.1479 0.4856,1.8837 -0.0294,0.7358 -0.5592,0.986 -0.5003,1.5452 0.0588,0.5593 0.0735,1.2509 0.309,1.6483 0.2355,0.3973 0.9271,0.0441 1.089,0.103 0.1619,0.0589 0.0295,-0.9124 0.103,-1.4275 0.0736,-0.5151 0.5151,-1.1185 0.4857,-1.6777 -0.0295,-0.5592 -0.7064,-0.4709 -0.4415,-1.398 0.2649,-0.9272 0.1766,-0.7947 0.4268,-1.4864 0.2501,-0.6917 -0.3532,-0.4342 -0.2355,-1.3024 0.1177,-0.8683 0.9419,-1.7071 0.9566,-2.1781 0.0147,-0.4709 -0.4857,-1.5158 -0.3974,-2.0014 0.0883,-0.4857 -0.3327,-2.4246 -0.3327,-2.4246l-0.072 0.0184z"/>
 </g>
</svg>
