<?xml version="1.0" encoding="UTF-8"?>
<!DOCTYPE svg PUBLIC "-//W3C//DTD SVG 1.1//EN" "http://www.w3.org/Graphics/SVG/1.1/DTD/svg11.dtd">
<!-- Creator: CorelDRAW 2019 (64-Bit) -->
<svg xmlns="http://www.w3.org/2000/svg" xml:space="preserve" width="100mm" height="100mm" version="1.1" style="shape-rendering:geometricPrecision; text-rendering:geometricPrecision; image-rendering:optimizeQuality; fill-rule:evenodd; clip-rule:evenodd"
viewBox="0 0 100 100"
 xmlns:xlink="http://www.w3.org/1999/xlink"
 xmlns:xodm="http://www.corel.com/coreldraw/odm/2003">
 <defs>
  <style type="text/css">
   <![CDATA[
    .str4 {stroke:#2B2A29;stroke-width:0.0553;stroke-miterlimit:22.9256}
    .str5 {stroke:#005DAD;stroke-width:0.0589;stroke-miterlimit:22.9256}
    .str2 {stroke:#00A7EB;stroke-width:0.0589;stroke-miterlimit:22.9256}
    .str0 {stroke:#2B2A29;stroke-width:0.0589;stroke-miterlimit:22.9256}
    .str1 {stroke:#2B2A29;stroke-width:0.2;stroke-miterlimit:22.9256}
    .str3 {stroke:#C8FFFF;stroke-width:0.2;stroke-miterlimit:22.9256}
    .fil8 {fill:none}
    .fil24 {fill:#005DAD}
    .fil13 {fill:#0071BD}
    .fil15 {fill:#008DD2}
    .fil4 {fill:#0090D6}
    .fil22 {fill:#009846}
    .fil18 {fill:#00A0E3}
    .fil11 {fill:#00A7EB}
    .fil23 {fill:#1C1B17}
    .fil6 {fill:#23479D}
    .fil9 {fill:#2B2A29}
    .fil12 {fill:#2E3293}
    .fil30 {fill:#393185}
    .fil19 {fill:#7FA5A9}
    .fil0 {fill:#898778}
    .fil16 {fill:#A75F4A}
    .fil20 {fill:#BBD5D6}
    .fil14 {fill:#C8FFFF}
    .fil26 {fill:#DEEFFF}
    .fil10 {fill:#EE2422}
    .fil1 {fill:#F08143}
    .fil2 {fill:#FBD3D3}
    .fil28 {fill:#FECC00}
    .fil7 {fill:#FEFEFE}
    .fil27 {fill:#FF2000}
    .fil21 {fill:#FF6FA6}
    .fil3 {fill:#FFCB05}
    .fil25 {fill:gold}
    .fil29 {fill:#FFED00}
    .fil17 {fill:#FFFBDB}
    .fil5 {fill:white}
   ]]>
  </style>
 </defs>
 <g id="Layer_x0020_1">
  <metadata id="CorelCorpID_0Corel-Layer"/>
  <polygon class="fil0 str0" points="42.8499,19.1465 43.0571,25.0233 44.4627,25.1556 44.1651,18.5079 "/>
  <path class="fil1 str1" d="M46.6155 1.69l0.8405 22.6928c0,0 -1.4568,0.5043 -1.3447,0 0.112,-0.5043 0.5042,-22.6928 0.5042,-22.6928z"/>
  <g id="_2564922202800">
   <path class="fil2 str0" d="M36.5383 15.7733c-0.4782,0.1912 -1.3007,0.3251 -1.7023,0.0191 -0.4017,-0.306 -0.4352,-0.2056 -0.5643,-0.1961 -0.1291,0.0096 -0.5643,-0.2008 -0.4878,-0.5355 0.0765,-0.3348 0.6025,-0.1674 0.6982,-0.2057 0.0956,-0.0382 -0.9612,-1.0615 -0.5786,-1.5971 0.3825,-0.5356 0.5356,-1.4728 1.358,-1.5111 0.8225,-0.0382 1.3103,0.1817 1.425,0.4782 0.1148,0.2965 0.1052,0.9373 0.1531,1.1955 0.0478,0.2582 0.3538,0.6216 0.4399,0.8703 0.0861,0.2486 0.2869,0.8416 -0.7412,1.4824z"/>
   <path class="fil3 str0" d="M34.1459 15.5699c-0.2615,-0.0166 -1.1031,-0.6191 -1.2466,-1.3364 -0.1434,-0.7173 0.0957,-1.9032 0.4591,-2.3049 0.3634,-0.4017 1.5206,-0.8703 1.7597,-0.9277 0.2391,-0.0574 0.4973,-0.2582 0.3921,-0.4303 -0.1052,-0.1722 0.3348,0.0287 0.3443,0.2773 0.0096,0.2487 0.3539,-0.306 0.2774,-0.5643 -0.0765,-0.2582 0.0669,0.7843 0.0669,0.7843 0,0 0.4208,-0.3443 0.3922,-0.593 -0.0287,-0.2486 -0.0192,0.7747 -0.0192,0.7747 0,0 0.2295,-0.0096 0.4208,-0.067 0.1913,-0.0573 -0.1147,0.3539 -0.2008,0.4591 -0.0861,0.1052 -0.2965,0.4782 -0.4304,0.5547 -0.1339,0.0765 -0.8799,0.153 -0.8799,0.153l0.5452 0.1339 -1.1572 0.0096 0.3251 0.306 -0.7555 0.153 0.22 0.6504 -0.2774 -0.1052c0,0 -0.0765,0.3634 -0.0669,0.5643 0.0095,0.2008 -0.0861,0.2677 -0.0861,0.2677 0,0 0.1995,0.2713 0.1967,0.4017 -0.0027,0.1304 -0.4896,-0.0147 -0.6426,0.234 -0.153,0.2486 0.3631,0.6051 0.3631,0.6051z"/>
   <polygon class="fil4 str0" points="32.775,13.3813 34.9651,10.8373 34.4391,10.3591 32.2299,12.9126 "/>
   <polygon class="fil5 str0" points="32.2299,12.9126 31.2448,12.9892 34.5443,9.0202 34.4391,10.3591 "/>
   <path class="fil6 str0" d="M32.6743 13.2947c0,0 -0.6835,-0.1334 -1.0278,0.1822 -0.3443,0.3156 -0.5069,1.119 -0.6981,1.3581 -0.1913,0.2391 -0.813,0.6407 -0.813,0.6407l0.5547 0.1531 -0.4016 0.4399c0,0 0.7842,-0.1339 0.9468,-0.4112 0.1625,-0.2774 0.2964,-1.3772 0.4782,-1.645 0.1817,-0.2678 0.9608,-0.7178 0.9608,-0.7178z"/>
   <path class="fil6 str0" d="M32.775 13.3813c0,0 -0.679,0.373 -0.7555,0.7555 -0.0765,0.3826 -0.0478,0.7747 0.0574,1.052 0.1052,0.2774 0.2965,0.4687 0.2391,0.7556 -0.0574,0.2869 -0.6025,1.0233 -0.6695,1.0711 -0.0669,0.0478 0.0287,-0.5642 0.0287,-0.5642l-0.6599 -0.1339c0,0 0.7364,-0.0861 0.7651,-0.3826 0.0287,-0.2965 -0.0547,-0.6907 -0.2391,-0.9468 -0.1843,-0.2561 -0.1434,-0.8034 0.0574,-1.0233 0.2009,-0.22 1.1763,-0.5834 1.1763,-0.5834z"/>
   <path class="fil7 str0" d="M35.4171 14.4955c-0.0908,-0.0382 -0.3156,-0.5356 -0.1052,-0.6695 0.2105,-0.1338 0.5739,0.4256 0.5547,0.4687 -0.0191,0.043 -0.4495,0.2008 -0.4495,0.2008z"/>
   <path class="fil7 str0" d="M36.254 14.1464c0,0 0.2725,-0.086 0.3443,-0.153 0.0717,-0.0669 -0.1961,-0.6503 -0.3826,-0.5595 -0.1865,0.0909 -0.3443,0.2917 0.0383,0.7125z"/>
   <path class="fil8 str0" d="M36.1249 14.2182c0.0526,0.0621 0.1793,0.0574 0.2725,0.1267 0.0933,0.0693 0.1291,0.1363 -0.0047,0.1889 -0.1339,0.0526 -0.2391,0.0526 -0.2391,0.0526"/>
   <ellipse class="fil9 str0" cx="35.4818" cy="14.3162" rx="0.1243" ry="0.1195"/>
   <ellipse class="fil9 str0" cx="36.2839" cy="13.9684" rx="0.104" ry="0.1375"/>
   <path class="fil10 str0" d="M35.8214 14.9977c0.0908,0.0526 0.3108,0.1578 0.4686,0.0669 0.1578,-0.0908 0.2534,-0.22 0.2534,-0.22 0,0 -0.086,0.2726 -0.2678,0.33 -0.1817,0.0574 -0.4542,-0.1769 -0.4542,-0.1769z"/>
   <path class="fil8 str0" d="M34.3857 15.1173c-0.067,-0.0335 -0.2726,-0.0526 -0.2917,-0.0096 -0.0191,0.0431 0.0287,0.2535 0.1243,0.2965"/>
   <path class="fil2 str0" d="M38.523 16.8982c0,0 0.2335,-0.0534 0.2909,-0.1275 0.0574,-0.0742 0.0574,-0.1507 0.153,-0.1315 0.0957,0.0191 0.1005,0.0932 0.1052,0.1649 0.0048,0.0718 -0.1434,0.1937 -0.1601,0.2033 -0.0168,0.0095 0.4232,0.1099 0.4016,0.2199 -0.0215,0.11 -0.373,0.0455 -0.373,0.0455 0,0 0.3635,0.0741 0.33,0.2008 -0.0335,0.1267 -0.3921,0.0024 -0.3921,0.0024 0,0 0.33,0.0945 0.3001,0.1973 -0.0299,0.1028 -0.3264,-0.012 -0.3264,-0.012 0,0 0.263,0.067 0.2296,0.1363 -0.0335,0.0693 -0.3348,0.0215 -0.3563,0.0215 -0.0215,0 -0.3371,-0.0191 -0.4232,-0.0837 -0.0861,-0.0645 0.1219,-0.832 0.1219,-0.832l0.0988 -0.0052z"/>
   <path class="fil2 str0" d="M33.3387 17.9602c0,0 -0.141,0.1817 -0.2056,0.3419 -0.0646,0.1602 -0.0741,0.33 -0.0407,0.3945 0.0335,0.0646 0.1578,-0.2319 0.1578,-0.2319 0,0 -0.1291,0.275 -0.0717,0.3323 0.0574,0.0574 0.1793,-0.2247 0.1793,-0.2247 0,0 -0.1171,0.2797 -0.0358,0.3371 0.0813,0.0574 0.263,-0.3036 0.263,-0.3036 0,0 -0.11,0.3443 -0.0454,0.3849 0.0645,0.0406 0.2797,-0.3036 0.318,-0.3252 0.0382,-0.0215 0.1912,0.1961 0.2653,0.1339 0.0742,-0.0621 0.0001,-0.1626 -0.0167,-0.2415 -0.0167,-0.0789 -0.0311,-0.459 -0.0311,-0.459l-0.7364 -0.1387z"/>
   <path class="fil5 str0" d="M34.9214 16.2315c0,0 -0.4161,0.3061 -0.7651,0.6169 -0.3491,0.3108 -0.7986,0.9755 -0.8082,1.052 -0.0096,0.0765 0.0622,0.1387 0.2582,0.2056 0.1961,0.067 0.5739,0.1817 0.6121,0.1435 0.0383,-0.0383 0.3204,-0.3969 0.416,-0.5356 0.0957,-0.1387 0.6265,-0.6551 0.6265,-0.6551 0,0 0.086,-0.2056 -0.0335,-0.4352 -0.1195,-0.2295 -0.306,-0.3921 -0.306,-0.3921z"/>
   <path class="fil5 str0" d="M36.5424 16.0833c0,0 0.6265,0.2726 0.9612,0.4112 0.3347,0.1387 0.9659,0.2917 0.9659,0.2917 0,0 0.11,0.0574 0.0192,0.3395 -0.0909,0.2822 -0.263,0.6552 -0.2965,0.6504 -0.0335,-0.0048 -0.4973,-0.1769 -0.6838,-0.2104 -0.1865,-0.0335 -0.593,-0.263 -0.593,-0.263l-0.373 -1.2194z"/>
   <path class="fil5 str0" d="M35.2774 15.9576l-0.356 0.2739 -0.0335 1.2385c0,0 -0.0502,0.532 -0.0646,0.6145 -0.0143,0.0825 -0.1637,1.0425 -0.1637,1.0425 0,0 0.7842,0.2104 1.3867,0.1817 0.6026,-0.0287 1.2433,-0.2296 1.2433,-0.2296 0,0 -0.1367,-1.0728 -0.3155,-1.621 -0.1788,-0.5483 -0.4317,-1.3748 -0.4317,-1.3748 0,0 -0.6897,-0.2224 -0.8164,-0.2104 -0.1267,0.0119 -0.4486,0.0847 -0.4486,0.0847z"/>
   <path class="fil11 str0" d="M34.6985 16.401c0,0 0.2085,0.1273 0.3017,0.3162 0.0933,0.1889 0.1148,0.4375 0.1148,0.4375l-0.165 0.1411c0,0 0.0502,-0.208 -0.1626,-0.4112 -0.2127,-0.2033 -0.3132,-0.287 -0.3132,-0.287l0.2243 -0.1966z"/>
   <path class="fil12 str0" d="M36.5198 22.7967c0,0 -0.1803,0.1128 -0.1851,0.3711 -0.0048,0.2582 0.0144,0.6694 0.0144,0.6694 0,0 0.6168,0.0144 0.7937,-0.0191 0.177,-0.0335 0.6265,0.0622 0.8369,0.0622 0.2104,0 0.4495,-0.0096 0.6408,-0.11 0.1912,-0.1004 0.1434,-0.3682 0.1434,-0.3682 0,0 -0.043,-0.2248 -0.1674,-0.3826 -0.1243,-0.1578 -0.4925,-0.4112 -0.6073,-0.4208 -0.1147,-0.0095 -0.7651,-0.1769 -0.7651,-0.1769l-0.636 0.1769 -0.0683 0.198z"/>
   <path class="fil12 str0" d="M35.4979 22.6035c0,0 0.0717,-0.1148 0.1674,0.2056 0.0956,0.3204 0.0478,0.6934 0.0717,0.7938 0.0239,0.1004 0.0765,0.1817 0.0143,0.2057 -0.0621,0.0239 -0.0191,0.1099 -0.2104,0.1004 -0.1912,-0.0096 -0.4351,-0.0909 -0.6168,-0.0909 -0.1817,0 -0.4495,0.2391 -0.9994,0.0813 -0.55,-0.1578 -0.7173,-0.2104 -0.8034,-0.3156 -0.0861,-0.1052 0.0096,-0.2104 0.0574,-0.2725 0.0478,-0.0622 0.1052,-0.2391 0.2869,-0.3778 0.1817,-0.1387 0.3969,-0.1913 0.6312,-0.2104 0.2343,-0.0192 0.6121,-0.2869 0.6456,-0.2965 0.0334,-0.0096 0.5786,-0.043 0.5786,-0.043l0.1769 0.2199z"/>
   <path class="fil13 str0" d="M34.7014 19.1377c0,0 -0.1551,1.29 -0.4421,1.6726 -0.2869,0.3826 -0.7459,1.8171 -0.7459,1.8171 0,0 0.8607,-0.1052 1.1285,0.0478 0.2678,0.1531 1.2146,0.0861 1.2146,0.0861l0.1339 -3.1082 0.153 3.0986c0,0 0.6312,0.1052 1.052,0.0383 0.4208,-0.0669 1.2433,-0.0956 1.2433,-0.0956 0,0 -0.4399,-0.8608 -0.7173,-1.7885 -0.2773,-0.9277 -0.4318,-1.8268 -0.4318,-1.8268 0,0 -0.8048,0.1912 -1.2433,0.2296 -0.4385,0.0383 -1.3449,-0.171 -1.3449,-0.171z"/>
   <path class="fil11 str0" d="M38.2564 16.7661c0,0 0.0287,0.2307 -0.0251,0.4184 -0.0538,0.1877 -0.2282,0.5293 -0.2282,0.5293l-0.2335 -0.0771c0,0 0.2023,-0.4414 0.2214,-0.6183 0.0191,-0.177 0.0178,-0.3553 0.0178,-0.3553l0.2476 0.103z"/>
   <path class="fil11 str0" d="M37.4195 16.4852c0,0 0.0814,0.0885 0.0359,0.3156 -0.0454,0.2271 -0.1913,0.6503 -0.1913,0.6503 0,0 0.2135,0.1454 0.2443,0.1146 0.0307,-0.0309 0.2292,-0.6286 0.2315,-0.7458 0.0024,-0.1171 -0.0085,-0.2422 -0.0085,-0.2422l-0.3119 -0.0925z"/>
   <path class="fil11 str0" d="M37.092 16.3442c0,0 0.0718,0.1004 0.0455,0.2199 -0.0263,0.1196 -0.1555,0.734 -0.1555,0.734l-0.0851 -0.0792 -0.0966 -0.4085c0,0 0.0957,-0.3324 0.0574,-0.428 -0.0382,-0.0956 -0.043,-0.1674 -0.043,-0.1674l0.2773 0.1292z"/>
   <path class="fil4 str2" d="M35.1567 16.0505c0,0 0.2928,0.2004 0.5749,0.1717 0.2821,-0.0287 0.5452,-0.263 0.5452,-0.263l0.2845 0.1858c0,0 -0.0789,0.2685 -0.6432,0.3354 -0.5643,0.067 -0.9635,-0.2177 -0.9635,-0.2177l0.2021 -0.2122z"/>
   <path class="fil11 str0" d="M36.6603 16.54c0,0 -0.5828,0.2871 -1.1357,0.2369 -0.5528,-0.0501 -0.5475,-0.0338 -0.5475,-0.0338l-0.0149 0.3157c0,0 0.4939,0.1294 0.991,0.0624 0.497,-0.0669 0.8409,-0.2153 0.8409,-0.2153l-0.1338 -0.3659z"/>
   <path class="fil11 str0" d="M36.8779 17.1592c0,0 -0.264,0.2442 -0.7948,0.249 -0.5307,0.0047 -1.1914,-0.077 -1.1914,-0.077l-0.0236 0.3433c0,0 0.799,0.164 1.2772,0.0923 0.4782,-0.0717 0.8545,-0.2252 0.8545,-0.2252l-0.1219 -0.3824z"/>
   <path class="fil11 str0" d="M34.8399 17.9496c0,0 0.5116,0.1854 1.1811,0.1471 0.6695,-0.0382 1.0698,-0.1909 1.0698,-0.1909l0.0325 0.277c0,0 -0.3897,0.2009 -1.0831,0.22 -0.6934,0.0191 -1.2366,-0.1961 -1.2366,-0.1961l0.0363 -0.2571z"/>
   <path class="fil11 str0" d="M37.1759 18.4578l0.0431 0.2821c0,0 -0.3658,0.2606 -1.1787,0.2893 -0.813,0.0287 -1.333,-0.208 -1.333,-0.208l0.0539 -0.3452c0,0 0.6096,0.2615 1.303,0.2041 0.6933,-0.0573 1.1117,-0.2223 1.1117,-0.2223z"/>
   <path class="fil11 str0" d="M34.2213 16.7912c0,0 0.1669,0.0647 0.351,0.2631 0.1841,0.1985 0.2558,0.4041 0.2558,0.4041l-0.1889 0.2032c0,0 -0.0789,-0.2008 -0.2726,-0.3538 -0.1936,-0.1531 -0.3844,-0.2859 -0.3844,-0.2859l0.2391 -0.2307z"/>
   <path class="fil11 str0" d="M33.7605 17.2839c0,0 0.2906,0.1267 0.4173,0.2486 0.1267,0.1219 0.3012,0.3467 0.3012,0.3467 0,0 -0.1506,0.2271 -0.1697,0.22 -0.0191,-0.0072 -0.0574,-0.1339 -0.373,-0.2989 -0.3156,-0.165 -0.4048,-0.207 -0.4048,-0.207l0.229 -0.3094z"/>
  </g>
  <path class="fil1 str1" d="M25.9157 23.8234c0,0 0.3044,1.9905 1.537,2.9386 1.2327,0.9481 4.9308,3.9346 8.0686,4.0926 3.1378,0.158 11.9908,0.6795 15.5768,-0.0158 3.586,-0.6952 5.6591,-4.1717 6.2755,-4.9301 0.6164,-0.7583 0.7843,-1.833 0.7843,-1.833l-32.2422 -0.2523z"/>
  <path class="fil14 str3" d="M0.0461 25.1057c3.9687,1.3229 6.3499,-0.5292 12.1708,4.4979 5.8209,5.0271 8.8627,4.2962 15.3459,2.6458 6.4832,-1.6504 6.899,-3.7459 15.7526,-1.0792 8.8536,2.6667 9.9121,2.9312 18.1141,-1.0375 8.202,-3.9687 8.9957,-8.4666 16.1395,-4.2333 7.1438,4.2333 10.0543,6.0855 14.023,3.7042 3.9687,-2.3813 8.2021,-2.1167 8.2021,-2.1167l0.3307 72.7604 -100.3433 0.5292 0.2646 -75.6708z"/>
  <path class="fil15 str1" d="M47.2878 4.8279c0,0 4.3705,2.1291 4.4825,6.0513 0.1121,3.9222 -2.4654,7.9566 -3.8102,8.9651 -1.3447,1.0086 1.1207,-6.1634 0.5604,-8.1806 -0.5604,-2.0172 -1.2327,-6.8358 -1.2327,-6.8358z"/>
  <g id="_2565021125088">
   <ellipse class="fil16 str4" cx="42.6001" cy="19.2046" rx="0.9931" ry="3.0548"/>
   <path class="fil16 str4" d="M42.4897 16.1339l0.0042 -0.1723c0,0 0.0456,-0.116 0.0425,-0.2087 -0.0032,-0.0928 -0.1136,-1.1961 0.0594,-1.153 0.1729,0.043 0.0562,0.9972 0.0605,1.1099 0.0042,0.1126 0.0339,0.2485 0.0339,0.2485l0.0003 0.1648 -0.2008 0.0108z"/>
   <path class="fil16 str4" d="M43.2109 16.8401l0.0402 -0.1188c0,0 0.0587,0.0099 0.0763,-0.0655 0.0176,-0.0754 0.1732,-1.1242 0.2921,-0.7295 0.1188,0.3947 -0.1729,0.8567 -0.194,0.9491 -0.0211,0.0923 -0.0283,0.2553 -0.0283,0.2553l-0.0353 0.1226 -0.151 -0.4132z"/>
   <path class="fil16 str4" d="M43.5758 18.9195l0.0551 0.0166c0,0 0.0363,0.1447 0.066,0.1365 0.0298,-0.0081 0.3851,-0.3315 0.368,0.2077 -0.0171,0.5391 -0.3203,0.1564 -0.3565,0.1675 -0.0361,0.0111 -0.0802,0.1012 -0.0802,0.1012l-0.0528 -0.0023 0.0004 -0.6272z"/>
   <path class="fil16 str4" d="M43.3593 21.1713l0.035 0.1337c0,0 -0.0073,0.1822 0.0156,0.2424 0.0228,0.0602 0.3467,0.6195 0.2122,0.9616 -0.1345,0.3421 -0.2614,-0.5995 -0.2894,-0.6717 -0.028,-0.0723 -0.0795,-0.1063 -0.0795,-0.1063l-0.0367 -0.1186 0.1428 -0.4411z"/>
   <path class="fil16 str4" d="M42.6999 22.2701l-0.0033 0.1725c0,0 -0.045,0.1184 -0.0413,0.211 0.0037,0.0926 0.1202,1.1897 -0.053,1.156 -0.1732,-0.0337 -0.0618,-0.9941 -0.0666,-1.1065 -0.0049,-0.1124 -0.0353,-0.2466 -0.0353,-0.2466l-0.0012 -0.1648 0.2007 -0.0216z"/>
   <path class="fil16 str4" d="M41.9752 21.6168l-0.0431 0.1087c0,0 -0.0583,-0.024 -0.0777,0.0469 -0.0194,0.071 -0.2005,1.079 -0.3092,0.6568 -0.1087,-0.4222 0.1936,-0.8124 0.2169,-0.8994 0.0233,-0.087 0.0345,-0.2477 0.0345,-0.2477l0.0382 -0.1138 0.1404 0.4485z"/>
   <path class="fil16 str4" d="M41.61 19.5418l-0.0551 -0.0138c0,0 -0.037,-0.1429 -0.0667,-0.1332 -0.0298,0.0096 -0.3834,0.3505 -0.3691,-0.1894 0.0144,-0.5399 0.3196,-0.1723 0.3557,-0.1852 0.036,-0.0129 0.0796,-0.1052 0.0796,-0.1052l0.0528 -0.0003 0.0028 0.6271z"/>
   <path class="fil16 str4" d="M41.8378 17.277l-0.0366 -0.1298c0,0 0.0052,-0.1829 -0.0183,-0.2406 -0.0235,-0.0576 -0.3535,-0.5807 -0.2229,-0.9375 0.1305,-0.3568 0.2679,0.5702 0.2967,0.6393 0.0288,0.0691 0.0807,0.0975 0.0807,0.0975l0.038 0.1144 -0.1376 0.4567z"/>
   <ellipse class="fil7 str4" cx="42.6054" cy="19.1891" rx="0.6989" ry="2.0869"/>
   <path class="fil16 str4" d="M42.1678 20.9225l0.026 -0.0731c0,0 0.0051,-0.1801 0.0145,-0.2263 0.0093,-0.0462 0.2547,-0.7454 0.2547,-0.7454l-0.0795 -0.3128c0,0 -0.2534,0.7736 -0.2602,0.7802 -0.0068,0.0065 -0.0778,0.0623 -0.0778,0.0623l-0.0242 0.0673 0.1465 0.4478z"/>
   <path class="fil16 str4" d="M42.6939 21.3632l0.0009 -0.1094c0,0 -0.0384,-0.1353 -0.0427,-0.1883 -0.0043,-0.0529 0.0017,-1.09 0.0017,-1.09l-0.1274 -0.0348c0,0 0.0058,1.1066 0.0027,1.1265 -0.0032,0.0199 -0.039,0.2192 -0.039,0.2192l-0.001 0.1013 0.2048 -0.0245z"/>
   <path class="fil16 str4" d="M42.4913 17.0748l-0.0011 0.1094c0,0 0.0382,0.1358 0.0425,0.1888 0.0042,0.053 -0.0032,1.0901 -0.0032,1.0901l0.1273 0.0364c0,0 -0.0042,-1.1066 -0.001,-1.1265 0.0031,-0.0198 0.0392,-0.2186 0.0392,-0.2186l0.0012 -0.1013 -0.2049 0.0217z"/>
   <path class="fil16 str4" d="M43.0236 17.472l-0.026 0.0735c0,0 -0.0047,0.1802 -0.014,0.2265 -0.0093,0.0464 -0.2534,0.7498 -0.2534,0.7498l0.08 0.3114c0,0 0.2521,-0.7779 0.2589,-0.7846 0.0068,-0.0066 0.0776,-0.0636 0.0776,-0.0636l0.0241 -0.0677 -0.1472 -0.4453z"/>
   <path class="fil16 str4" d="M42.0244 17.9542l0.0242 0.0792c0,0 0.0577,0.0107 0.0728,0.0386 0.015,0.0278 0.2459,0.7736 0.2459,0.7736l0.0979 -0.2571c0,0 -0.255,-0.7687 -0.2573,-0.7898 -0.0022,-0.021 -0.0221,-0.2409 -0.0221,-0.2409l-0.0223 -0.0737 -0.1391 0.4701z"/>
   <path class="fil16 str4" d="M41.8981 19.5457l0.035 0.0038c0,0 0.0437,-0.1186 0.0606,-0.1316 0.017,-0.013 0.3491,0.0152 0.3491,0.0152l0.0123 -0.3975c0,0 -0.3544,0.008 -0.3608,-0.002 -0.0063,-0.0101 -0.0698,-0.1237 -0.0698,-0.1237l-0.0324 -0.004 0.006 0.6398z"/>
   <path class="fil16 str4" d="M43.1471 20.5001l-0.0242 -0.079c0,0 -0.0578,-0.0104 -0.0729,-0.0381 -0.0151,-0.0278 -0.2465,-0.7721 -0.2465,-0.7721l-0.0976 0.2577c0,0 0.2554,0.7671 0.2577,0.7882 0.0023,0.021 0.0224,0.2408 0.0224,0.2408l0.0223 0.0735 0.1388 -0.471z"/>
   <path class="fil16 str4" d="M43.2984 18.9297l-0.035 -0.0044c0,0 -0.0439,0.1179 -0.0609,0.1306 -0.017,0.0127 -0.349,-0.021 -0.349,-0.021l-0.013 0.3972c0,0 0.3544,-0.002 0.3608,0.0081 0.0063,0.0102 0.0696,0.1248 0.0696,0.1248l0.0324 0.0046 -0.0049 -0.6399z"/>
   <ellipse class="fil16 str4" cx="42.5992" cy="19.231" rx="0.2521" ry="0.7827"/>
   <ellipse class="fil17 str4" cx="42.5916" cy="19.2467" rx="0.1119" ry="0.3611"/>
  </g>
  <path class="fil8 str1" d="M50.474 20.9169c0.9558,0.033 3.4715,0.6811 3.4386,3.1859 -0.033,2.5048 -1.9336,3.2738 -3.131,3.2298 -1.1975,-0.0439 -3.8121,-0.9008 -3.867,-2.9112 -0.055,-2.0104 1.6259,-3.3617 3.5594,-3.5045z"/>
  <path class="fil8 str1" d="M48.4086 24.2456c0,-1.3183 0.9888,-1.8896 1.9445,-1.9115 0.9558,-0.022 2.1313,0.3955 2.1752,1.516 0.044,1.1206 -0.723,2.1238 -1.9754,2.2446 -1.2524,0.1208 -2.2981,-1.2119 -2.1443,-1.8491z"/>
  <path class="fil18 str1" d="M49.0089 21.2787c0,0 0.0479,0.3028 0.1303,0.55 0.0824,0.2472 0.318,0.7025 0.318,0.7025 0,0 0.3082,-0.2633 1.0333,-0.1973 0.725,0.0661 1.0185,0.1975 1.0185,0.1975 0,0 -0.0024,-0.2852 0.1899,-0.6752 0.1922,-0.39 0.3455,-0.5536 0.3455,-0.5536 0,0 -0.786,-0.3899 -1.4996,-0.3823 -0.7135,0.0076 -1.5359,0.3584 -1.5359,0.3584z"/>
  <path class="fil18 str1" d="M52.4281 23.3706c0,0 0.2815,-0.0313 0.5781,-0.1577 0.2966,-0.1263 0.6719,-0.3578 0.6719,-0.3578 0,0 0.2497,0.6173 0.2336,1.105 -0.0162,0.4877 -0.1208,1.3293 -0.1808,1.3237 -0.06,-0.0055 -0.3567,-0.055 -0.6917,-0.1154 -0.3351,-0.0604 -0.7861,-0.148 -0.7861,-0.148 0,0 0.2633,-0.5566 0.2684,-0.8802 0.0052,-0.3236 -0.0934,-0.7696 -0.0934,-0.7696z"/>
  <path class="fil18 str1" d="M51.6659 25.6463c0,0 -0.0824,0.4724 0.033,0.6866 0.1153,0.2142 0.5597,0.6737 0.5261,0.6896 -0.0336,0.0159 -0.8062,0.3321 -1.4434,0.3101 -0.6372,-0.0219 -1.3632,-0.1291 -1.3517,-0.2678 0.0114,-0.1386 0.1103,-0.2595 0.1707,-0.4408 0.0604,-0.1812 0.1877,-0.6299 0.1877,-0.6299 0,0 0.4202,0.173 0.9237,0.0801 0.5035,-0.0928 0.9539,-0.4279 0.9539,-0.4279z"/>
  <path class="fil18 str1" d="M47.2456 25.5297c0,0 0.6082,0.1606 0.9159,0.0067 0.3076,-0.1538 0.6712,-0.3304 0.6152,-0.3405 -0.0561,-0.0102 -0.4214,-0.409 -0.3818,-0.8574 0.0396,-0.4485 0.1451,-0.8532 0.1451,-0.8532 0,0 -0.3181,0.071 -0.6477,-0.0224 -0.3296,-0.0934 -0.7136,-0.4241 -0.7136,-0.4241 0,0 -0.2713,0.6979 -0.2648,1.2217 0.0065,0.5237 0.3317,1.2692 0.3317,1.2692z"/>
  <path class="fil19 str0" d="M81.2421 85.7083c-0.1125,0.0191 -0.7314,0.2563 -1.113,0.6277 -0.3816,0.3713 -3.9659,-0.6808 -3.6977,-0.4951 0.2681,0.1856 2.908,2.0847 3.1075,1.7946 0.0656,-0.0954 1.2035,-0.3244 1.4106,-0.6373 0.4226,-0.6384 0.2926,-1.2899 0.2926,-1.2899z"/>
  <path class="fil20 str0" d="M81.0135 93.2339c0,0 -1.8772,-1.5782 -1.5575,-3.0325 0.3198,-1.4543 1.0418,-2.6199 1.5059,-3.5791 0.4642,-0.9592 0.1032,-1.1965 -0.0928,-1.5472 -0.196,-0.3507 0.2063,-1.1139 0.2063,-1.1139 0,0 -0.9489,1.3821 -1.5162,1.3099 -0.5673,-0.0722 -0.9799,-0.7736 -0.9593,-1.0417 0.0207,-0.2682 -1.3694,-0.3195 -1.6864,-0.5312 -0.8208,-0.5482 -0.7555,-0.9702 -0.7098,-1.1706 0.1576,0.0578 0.1167,0.6909 1.5401,0.6187 1.4234,-0.0722 1.5781,-0.1134 2.4652,-0.5879 0.887,-0.4744 0.9902,-0.6807 1.6193,-0.3816 0.6292,0.2991 0.6498,0.1134 0.8974,0.8148 0.2475,0.7014 0.2785,2.0629 -0.2476,3.0118 -0.526,0.949 -1.6709,2.8056 -1.9391,3.8783 -0.2681,1.0727 0.4745,3.3522 0.4745,3.3522z"/>
  <path class="fil19 str0" d="M83.2337 85.9646c0.0413,0.0929 -0.1134,0.4023 0.0516,0.7427 0.165,0.3404 0.361,0.6085 0.4951,0.8251 0.1341,0.2166 0.1341,0.9077 0.4229,0.9799 0.2888,0.0722 0.8045,-0.361 1.0211,-0.7942 0.2166,-0.4332 -0.0412,-2.0113 -0.0412,-2.0113l-1.9495 0.2578z"/>
  <path class="fil21 str0" d="M78.6747 84.1184c0.2373,-0.0103 0.7584,0.0024 0.9002,0.1468 0.1419,0.1444 0.3274,0.3911 -0.1574,0.5665 -0.4848,0.1753 -0.3508,0.0706 -0.423,-0.1976 -0.0722,-0.2682 0,-0.4538 0,-0.4538l-0.3198 -0.0619z"/>
  <path class="fil22 str1" d="M78.7089 83.5395l1.052 1.9185c0,0 -0.7426,-0.4642 -1.1449,-0.3095 -0.4022,0.1547 -3.4656,2.4755 -3.7751,2.723 -0.3094,0.2476 0.1238,2.2589 0.031,2.5374 -0.0928,0.2785 -0.4332,-0.8664 -1.4853,-2.0113 -1.0521,-1.1449 -1.7947,-1.5162 -1.7947,-1.5162l2.6921 0.1547 3.9607 -2.5374 0.4642 -0.9592z"/>
  <path class="fil19 str0" d="M82.1378 92.7182c0.0619,0 1.3718,-0.7943 1.805,-1.0418 0.4332,-0.2475 1.5987,-0.2579 1.609,0.0206 0.0104,0.2785 -0.8457,0.5776 -0.887,0.949 -0.0413,0.3713 0.0206,0.8664 -0.196,1.2171 -0.4383,0.6549 -1.9288,0.6395 -2.5889,0.5054 -0.6601,-0.1341 0.5157,1.1655 -0.8458,1.2893 -1.3615,0.1238 -2.0629,-0.7633 -2.3104,-0.7014 -0.2476,0.0619 -0.392,0.2269 -0.5725,0.1393 -0.1805,-0.0877 -0.1805,-0.7375 0.1496,-1.0057 0.3301,-0.2682 2.0732,-0.5209 2.2176,-0.6292 0.1444,-0.1083 0.4857,-0.2565 0.4857,-0.2565 0,0 -0.9255,-1.3795 -0.5089,-3.0644 0.4167,-1.685 1.6204,-3.4651 2.0105,-4.1876 0.3902,-0.7224 0.5221,-2.0817 0.322,-2.5714 -0.2001,-0.4896 -0.794,-1.2437 -1.1461,-1.2684 -0.3521,-0.0246 -0.5765,0.0813 -1.8987,0.6659 -0.9623,0.4254 -2.9099,0.9944 -3.566,-0.2206 -0.0988,-0.1829 0.1809,-0.2881 0.3769,-0.4841 0.1959,-0.196 -0.2476,-0.6292 -0.0619,-1.3409 0.1856,-0.7117 0.6085,-1.7019 1.1861,-1.8978 0.5776,-0.196 5.4513,-0.7378 5.7478,-0.7918 0.2965,-0.054 2.7616,-0.085 4.0922,1.1734 1.3306,1.2584 1.2687,2.0113 1.3821,2.723 0.1135,0.7117 0.361,1.114 -0.0309,1.3099 -0.392,0.196 -0.7014,-0.1444 -1.1862,-0.3816 -0.4848,-0.2372 -0.887,-0.4229 -1.0727,-0.4435 -0.1856,-0.0206 0.1857,1.5678 -0.1237,2.4342 -0.3095,0.8664 -2.3517,3.4244 -3.115,4.1052 -0.7633,0.6807 -1.1965,0.887 -1.4853,1.7534 -0.2888,0.8664 -0.3146,1.3615 -0.1805,1.6503 0.1341,0.2888 0.392,0.3507 0.392,0.3507z"/>
  <ellipse class="fil7 str0" cx="79.6684" cy="81.2422" rx="0.6601" ry="0.918"/>
  <ellipse class="fil7 str0" cx="77.7703" cy="81.2245" rx="0.6498" ry="0.9283"/>
  <ellipse class="fil23 str0" cx="79.8609" cy="81.5295" rx="0.3197" ry="0.4745"/>
  <ellipse class="fil23 str0" cx="77.963" cy="81.5759" rx="0.3404" ry="0.459"/>
  <path class="fil24 str0" d="M83.3781 78.301c-0.1237,0.0929 -1.9803,1.475 -3.61,1.5163 -1.6297,0.0412 -2.7437,0.2578 -3.28,-0.557 -0.5364,-0.8149 0.6807,-0.8458 0.8767,-0.9489 0.196,-0.1032 1.3409,0.2681 2.3826,0.1856 1.0418,-0.0825 3.6668,-0.2553 3.6668,-0.2553l-0.0361 0.0593z"/>
  <path class="fil25 str0" d="M77.2746 77.9968l0.0902 0.3146c0,0 1.6754,0.2367 2.5197,0.1749 0.8443,-0.0618 3.5297,-0.2446 3.5297,-0.2446l0.1032 -0.3971c0,0 -2.9396,0.2398 -3.6384,0.2218 -0.6989,-0.0181 -2.6044,-0.0696 -2.6044,-0.0696z"/>
  <path class="fil26 str5" d="M77.2746 77.9968c0,0 -0.6679,-0.5054 -0.5183,-1.1088 0.1495,-0.6034 0.8148,-0.753 1.2377,-0.7014 0.4229,0.0516 0.5106,-0.6601 1.5884,-0.6962 1.0779,-0.0361 1.2584,0.3094 1.3718,0.2939 0.1135,-0.0154 0.1238,-0.3558 0.7272,-0.3661 0.6034,-0.0103 1.1913,0.5105 1.3873,0.5569 0.196,0.0465 0.9953,0.1393 1.1036,0.588 0.1083,0.4487 -0.5698,1.1887 -0.5879,1.2429l-3.4694 0.2594 -2.8404 -0.0686z"/>
  <path class="fil9 str0" d="M79.4852 76.3608c0.0167,-0.2007 0.184,-0.2844 0.3514,-0.2677 0.1673,0.0168 0.2342,0.0419 0.2091,0.1757 -0.0251,0.1339 -0.1464,0.1673 -0.1715,0.205 -0.0251,0.0376 -0.0251,0.1924 -0.0251,0.1924l0.2845 -0.0335 0 0.1548 -0.2552 0.0293c0,0 -0.0126,0.2426 0.0084,0.2761 0.0209,0.0334 0.1924,0.1046 0.2928,0.092 0.1004,-0.0125 0.1547,-0.0627 0.1966,-0.1339 0.0418,-0.0711 -0.1172,-0.1317 -0.1172,-0.1317l0.2699 -0.0795 0.023 0.2468 -0.09 -0.0209c0,0 -0.0544,0.205 -0.2175,0.2259 -0.1631,0.0209 -0.4099,-0.0795 -0.4099,-0.0795 0,0 -0.3305,0.0753 -0.4727,0.0586 -0.1422,-0.0168 -0.2092,-0.1506 -0.2092,-0.1506l-0.2217 0.1046 0.0628 -0.318 0.3262 0.0712 -0.0502 0.0962c0,0 0.0753,0.0711 0.1966,0.0711 0.1214,0 0.2301,-0.0293 0.2301,-0.0293l0.0167 -0.2845 -0.2384 0.0126 0 -0.1757 0.2217 -0.0335c0,0 0.0335,-0.1756 -0.0042,-0.1882 -0.0376,-0.0125 -0.2008,0.0335 -0.207,-0.0858z"/>
  <path class="fil8 str0" d="M83.3962 78.2714c0,0 1.3291,1.1 1.9067,2.0283 0.5776,0.9283 1.3474,2.1247 1.3474,2.1247"/>
  <path class="fil27 str1" d="M20.1783 79.286c0,0 -0.1856,-0.6189 0.0929,-1.3306 0.2784,-0.7117 0.4229,-1.3305 0.4229,-1.3305 0,0 -2.3621,-0.3198 -3.6514,0.4126 -1.2893,0.7323 -3.641,3.7441 -3.7441,3.9194 -0.1031,0.1754 -0.9592,-0.4331 -1.4698,-1.3975 -0.5106,-0.9644 -1.1346,-1.1707 -1.3203,-1.0882 -0.1856,0.0825 0.6241,2.4548 0.5519,2.9293 -0.0722,0.4744 -0.6602,0.691 -0.7942,1.1449 -0.1341,0.4538 -0.227,0.6807 -0.0826,0.7529 0.1444,0.0722 1.2275,-0.0722 1.836,-0.6498 0.6086,-0.5776 1.3661,-0.5518 1.3661,-0.5518 0,0 3.7292,-2.5012 4.018,-2.6456 0.2888,-0.1444 2.7746,-0.1651 2.7746,-0.1651z"/>
  <g id="_2565129501024">
   <path class="fil28 str0" d="M20.7353 79.8223c0,0 -0.1031,-0.9696 -1.0727,-1.2171 -0.9696,-0.2476 -2.1041,-0.2476 -3.3419,0.7014 -1.2377,0.9489 -3.2387,1.9597 -3.1975,2.4342 0.0413,0.4745 2.393,1.7328 3.4451,2.1041 1.052,0.3714 1.7741,0.4745 2.4754,0.1651 0.7014,-0.3095 2.5271,-0.8561 2.5271,-1.4441 0,-0.5879 -0.3404,-0.4641 -0.4126,-0.6807 -0.0722,-0.2166 -0.0722,-1.6503 -0.4229,-2.0629z"/>
   <path class="fil29 str0" d="M20.7198 82.1121c-0.0206,-0.2888 -0.9592,-0.5157 -1.2996,-0.1186 -0.3404,0.3971 1.5369,0.4641 1.2996,0.1186z"/>
   <path class="fil1 str0" d="M20.9571 82.8599c-0.0638,-0.0903 -0.735,0.3179 -1.3926,0.1812 -0.6189,-0.1285 -1.4416,-0.8257 -1.4903,-0.7691 -0.053,0.1308 0.5002,0.8973 1.2841,0.9902 0.7839,0.0928 1.3615,-0.2888 1.5988,-0.4023z"/>
   <path class="fil8 str0" d="M19.3171 81.5758c0.1753,-0.1444 0.0412,-1.9701 -0.8046,-1.8257 -0.8457,0.1444 -0.6601,1.8566 -0.5672,1.9804 0.0928,0.1238 0.1134,-0.1444 0.6498,-0.1444 0.5363,0 0.722,-0.0103 0.722,-0.0103z"/>
   <path class="fil7 str0" d="M19.3205 81.5773c0,0 0.1507,-0.6168 -0.1648,-0.9464 -0.3154,-0.3295 -0.7345,-0.2212 -0.8522,-0.1412 -0.1177,0.08 -0.4143,0.2966 -0.452,0.4661 -0.0376,0.1695 0.1825,0.4917 0.339,0.5838 0.1565,0.0921 1.13,0.0377 1.13,0.0377z"/>
   <ellipse class="fil9 str0" cx="18.5306" cy="81.0652" rx="0.2501" ry="0.3765"/>
   <path class="fil8 str0" d="M21.0689 81.8852c0,0 0.0337,-1.9598 -0.2906,-1.903 -0.3242,0.0567 -0.1856,1.6761 -0.1809,1.738 0.0046,0.0619 0.4809,0.1907 0.4809,0.1907"/>
   <path class="fil7 str0" d="M20.921 81.746c0.2091,-0.0242 0.2527,-1.2171 -0.0052,-1.1656 -0.2579,0.0516 -0.5002,0.9387 0.0052,1.1656z"/>
   <ellipse class="fil9 str0" cx="20.8204" cy="81.1684" rx="0.1367" ry="0.1599"/>
   <path class="fil27 str0" d="M16.6817 82.4216c-0.0825,0.0206 -2.4532,0.2684 -2.4532,0.2684 0,0 0.1634,0.2989 0.0397,0.5258 -0.1238,0.2269 -0.392,0.5879 -0.392,0.5879 0,0 0.196,-0.0825 0.3198,-0.0516 0.1237,0.031 0.1444,0.2167 0.1444,0.2167 0,0 0.165,-0.1548 0.3197,-0.1032 0.1547,0.0516 0.2682,0.2476 0.2682,0.2476l1.7534 -1.6916z"/>
  </g>
  <path class="fil29 str1" d="M71.5919 86.8814c0,0 1.4528,1.1151 1.7947,1.5162 0.3419,0.401 1.4628,2.0488 1.4628,2.0488 0,0 -1.6794,-0.1613 -2.3447,-1.0122 -0.6653,-0.851 -0.9128,-2.5528 -0.9128,-2.5528z"/>
  <polygon class="fil22 str1" points="24.7508,89.3008 24.0701,95.706 15.5297,95.8298 15.9295,89.6689 "/>
  <ellipse class="fil29 str1" cx="20.2331" cy="89.3008" rx="4.5177" ry="1.2068"/>
  <path class="fil30 str1" d="M19.844 87.3363c-0.3636,0.4545 -0.9923,0.0378 -1.1135,-0.1364 -0.1212,-0.1742 0.0909,-0.3485 -0.0152,-0.5227 -0.106,-0.1742 -3.7496,-3.1512 -3.7496,-3.1512l0.2272 -0.3182c0,0 3.3937,3.0301 3.7421,3.0755 0.3485,0.0455 0.5303,-0.0303 0.7575,0.1667 0.2273,0.1969 0.5,0.5454 0.1515,0.8863z"/>
  <path class="fil8 str1" d="M25.3519 77.8375c-0.2732,0 -0.6515,0.4624 -0.2943,0.6305 0.3573,0.1682 1.7024,-0.063 1.3661,-0.6305 -0.3362,-0.5674 -1.4501,-1.9546 -1.5972,-2.501 -0.1472,-0.5465 0.5044,-0.5044 0.6725,0 0.1681,0.5044 -0.2522,3.678 -0.021,4.2664 0.2312,0.5885 0.2102,0.8827 0.4834,0.7566"/>
  <path class="fil8 str1" d="M23.6167 85.1705c0.727,0.2268 1.1216,0.5803 1.0488,1.2874 -0.0079,0.0763 -0.208,0.5181 -0.208,0.6297"/>
  <path class="fil8 str1" d="M25.4665 83.758c0.6139,0 1.6577,0.5556 1.9806,1.5986 0.2438,0.7875 -0.1694,2.0523 -0.0972,2.4373"/>
  <path class="fil8 str1" d="M27.5853 81.6055c0.6921,-0.0407 2.2648,0.6191 2.9287,1.8541 0.4259,0.7922 0.3485,2.1307 0.1319,2.6527 -0.0923,0.2223 0.0831,0.8704 -0.1682,1.0089"/>
  <path class="fil8 str1" d="M67.2235 82.272c0.2732,0 0.6515,0.4624 0.2942,0.6305 -0.3573,0.1682 -1.7024,-0.063 -1.3661,-0.6305 0.3363,-0.5674 1.4502,-1.9545 1.5973,-2.501 0.1471,-0.5464 -0.5044,-0.5044 -0.6726,0 -0.1681,0.5044 0.2523,3.678 0.0211,4.2665 -0.2312,0.5884 -0.2102,0.8827 -0.4834,0.7566"/>
  <path class="fil8 str1" d="M70.5531 89.5452c-0.727,0.2267 -1.1215,0.5802 -1.0487,1.2874 0.0078,0.0763 0.2079,0.518 0.2079,0.6297"/>
  <path class="fil8 str1" d="M68.7034 88.1327c-0.6139,0 -1.6577,0.5556 -1.9806,1.5985 -0.2439,0.7875 0.1693,2.0524 0.0972,2.4373"/>
  <path class="fil8 str1" d="M66.5845 85.9802c-0.6921,-0.0407 -2.2647,0.619 -2.9287,1.8541 -0.4258,0.7922 -0.3484,2.1306 -0.1318,2.6526 0.0923,0.2223 -0.0832,0.8704 0.1682,1.009"/>
  <ellipse class="fil7 str1" cx="70.0477" cy="84.9305" rx="0.5291" ry="0.6284"/>
  <ellipse class="fil7 str1" cx="69.6509" cy="80.1679" rx="0.5953" ry="0.4299"/>
  <ellipse class="fil7 str1" cx="71.5357" cy="76.0336" rx="0.3638" ry="0.463"/>
  <ellipse class="fil7 str1" cx="67.898" cy="70.5768" rx="0.6945" ry="0.6284"/>
  <ellipse class="fil7 str1" cx="22.6871" cy="71.2051" rx="1.0583" ry="0.9921"/>
  <ellipse class="fil7 str1" cx="29.1694" cy="59.0343" rx="1.3229" ry="1.2568"/>
  <ellipse class="fil7 str1" cx="18.1891" cy="51.8244" rx="0.6614" ry="0.7937"/>
 </g>
</svg>
