<?xml version="1.0" encoding="UTF-8"?>
<!DOCTYPE svg PUBLIC "-//W3C//DTD SVG 1.1//EN" "http://www.w3.org/Graphics/SVG/1.1/DTD/svg11.dtd">
<!-- Creator: CorelDRAW 2019 (64-Bit) -->
<svg xmlns="http://www.w3.org/2000/svg" xml:space="preserve" width="100mm" height="100mm" version="1.1" style="shape-rendering:geometricPrecision; text-rendering:geometricPrecision; image-rendering:optimizeQuality; fill-rule:evenodd; clip-rule:evenodd"
viewBox="0 0 100 100"
 xmlns:xlink="http://www.w3.org/1999/xlink"
 xmlns:xodm="http://www.corel.com/coreldraw/odm/2003">
 <defs>
  <style type="text/css">
   <![CDATA[
    .str0 {stroke:#2B2A29;stroke-width:0.0589;stroke-miterlimit:22.9256}
    .str1 {stroke:#9EA521;stroke-width:0.0589;stroke-miterlimit:22.9256}
    .str4 {stroke:#005DAD;stroke-width:0.2;stroke-miterlimit:22.9256}
    .str2 {stroke:#2B2A29;stroke-width:0.2;stroke-miterlimit:22.9256}
    .str3 {stroke:#64FFFF;stroke-width:0.2;stroke-miterlimit:22.9256}
    .fil16 {fill:none}
    .fil25 {fill:#005DAD}
    .fil29 {fill:#008DD2}
    .fil9 {fill:#009846}
    .fil8 {fill:#00A0E3}
    .fil15 {fill:#082698}
    .fil1 {fill:#1678AE}
    .fil24 {fill:#1C1B17}
    .fil28 {fill:#2B2A29}
    .fil17 {fill:#2F35A8}
    .fil4 {fill:#42489A}
    .fil20 {fill:#64FFFF}
    .fil21 {fill:#7FA5A9}
    .fil3 {fill:#932A0A}
    .fil2 {fill:#9EA521}
    .fil11 {fill:#A2D9F7}
    .fil22 {fill:#BBD5D6}
    .fil12 {fill:#C72D54}
    .fil5 {fill:#D9DADA}
    .fil27 {fill:#DEEFFF}
    .fil7 {fill:#E31E24}
    .fil19 {fill:#EF7F1A}
    .fil18 {fill:#F08143}
    .fil13 {fill:#FE092E}
    .fil0 {fill:#FEDE91}
    .fil10 {fill:#FEFEFE}
    .fil14 {fill:#FF2000}
    .fil23 {fill:#FF6FA6}
    .fil26 {fill:gold}
    .fil6 {fill:#FFED00}
   ]]>
  </style>
 </defs>
 <g id="Layer_x0020_1">
  <metadata id="CorelCorpID_0Corel-Layer"/>
  <g id="_2565026011600">
   <path class="fil0 str0" d="M21.7612 74.4303c0,0 0.3253,-0.1017 0.3609,-0.1475 0.0356,-0.0457 0.2999,-0.3507 0.3305,-0.7981 0.0305,-0.4473 -0.2898,-0.7371 -0.0916,-0.8896 0.1983,-0.1525 0.5287,-0.2237 0.6558,-0.0915 0.1271,0.1322 0.2847,0.6151 0.239,0.7269 -0.0458,0.1119 -0.0966,0.2949 -0.0966,0.2949 0.241,-0.7944 1.166,-0.5437 1.2302,-0.427 0.0559,0.1016 -0.3584,0.2389 -0.5922,0.3762 -0.2339,0.1372 -0.3991,0.2033 -0.3991,0.2033 0,0 1.459,-0.671 1.4692,-0.3965 0.0101,0.2745 -1.2506,0.6507 -1.2506,0.6507 0,0 1.0675,-0.4169 1.0777,-0.244 0.0102,0.1728 -0.9506,0.4931 -0.9506,0.4931 0,0 0.8362,-0.1576 0.8616,0.0051 0.0255,0.1626 -0.582,0.4626 -0.6532,0.4321 -0.0712,-0.0305 0,0.183 -0.2135,0.4372 -0.2135,0.2541 -0.4169,0.4168 -0.5795,0.4676 -0.1627,0.0509 -0.3254,0.0407 -0.4474,0.0509 -0.122,0.0101 -0.5693,0.366 -0.5693,0.366 0,0 -0.7117,-0.8947 -0.6711,-0.9659 0.0407,-0.0712 0.2898,-0.5439 0.2898,-0.5439z"/>
   <path class="fil1 str0" d="M14.2782 76.9873c0,0 -1.6906,1.233 -1.8098,1.3268 -0.1192,0.0938 2.2114,4.3922 2.5367,4.5956 0.3254,0.2033 2.1554,0.5287 2.8672,0.4473 0.7117,-0.0813 3.5991,-1.5454 3.9041,-1.8911 0.3051,-0.3456 -0.305,-0.5287 -0.305,-0.5287l0.8134 -0.9557c0,0 -0.9761,0.0407 -1.1794,-0.9353 -0.2033,-0.9761 -0.2237,-1.6878 0.305,-2.0335 0.5287,-0.3457 1.2201,-1.2505 1.2201,-1.2505 0,0 -0.3762,0.061 -0.6304,-0.244 -0.2542,-0.3051 -0.2948,-1.1083 -0.2948,-1.1083l-1.4743 1.0981 -5.9528 1.4793z"/>
   <path class="fil0 str1" d="M17.9486 77.6862c-1.7081,-0.1627 -2.4402,-0.5287 -3.3552,-0.9964 -0.915,-0.4677 -0.915,-0.9354 -1.0777,-1.098 -0.1627,-0.1627 -0.9151,0.3456 -1.3014,-0.4067 -0.3864,-0.7524 -0.427,-1.7284 0.244,-1.7691 0.671,-0.0407 0.9557,0.183 1.1591,0.0203 0.2033,-0.1626 0.732,-2.5824 2.4807,-2.8671 1.7488,-0.2847 2.5622,-0.0203 3.1315,0.5693 0.5694,0.5897 1.2607,1.4031 1.3828,2.2165 0.122,0.8134 -0.6711,3.8635 -2.6638,4.3312z"/>
   <path class="fil2 str0" d="M20.3124 75.3783c0.7524,0.3253 -0.0915,1.9012 -0.0101,2.0436 0.0813,0.1423 0.488,1.0167 0.2643,1.3725 -0.2237,0.3559 -1.3014,0.3254 -1.6776,0.0915 -0.3762,-0.2338 -0.4219,-2.1656 -0.4219,-2.1656 0,0 0.7625,-1.3522 1.8453,-1.342z"/>
   <path class="fil2 str0" d="M16.9623 77.1067c-0.066,-0.1678 -2.1757,-1.9114 -2.9993,-0.4677 -0.8235,1.4437 1.4844,1.6369 1.4844,1.6369 0,0 -1.525,1.1794 -0.549,1.6979 0.9761,0.5186 2.0843,-1.0167 2.0843,-1.0167l-0.0204 -1.8504z"/>
   <path class="fil3 str0" d="M14.0685 85.1198l-0.0712 0.9761c0,0 -1.1082,-0.2034 -1.2506,0.1626 -0.1423,0.3661 -1.1692,1.4946 0.2746,1.515 1.4437,0.0203 2.4299,0.2541 2.6333,-0.3864 0.2033,-0.6405 0.1321,-2.1961 0.1321,-2.1961l-1.7182 -0.0712z"/>
   <path class="fil3 str0" d="M21.387 83.5673l0.5667 0.7979c0,0 0.8424,-0.7482 1.1538,-0.509 0.3114,0.2393 1.7745,0.6724 0.5503,1.4379 -1.2242,0.7656 -1.9465,1.4766 -2.4524,1.0342 -0.5058,-0.4425 -1.251,-1.8098 -1.251,-1.8098l1.4326 -0.9512z"/>
   <path class="fil2 str0" d="M17.0666 78.8148c0,0 -0.5186,2.2266 0.0101,2.3893 0.5287,0.1626 0.183,-0.5084 0.7524,-0.4474 0.5694,0.061 0.6507,0.7117 0.8134,0.6914 0.1626,-0.0204 0.366,-1.0574 0.427,-1.5454 0.061,-0.4881 -0.5338,-1.6522 -0.727,-1.5861 -0.1931,0.0661 -1.2759,0.4982 -1.2759,0.4982z"/>
   <path class="fil4 str0" d="M20.8957 81.8155c0,0 1.0727,1.1692 1.2658,1.22 0.1932,0.0509 -0.8133,1.1591 -1.22,1.4031 -0.4067,0.244 -1.3828,0.9049 -1.3828,0.9049l-1.647 -1.3014 -1.2404 1.4641c0,0 -1.0167,0.0915 -1.6573,0.0101 -0.6405,-0.0813 -1.9317,-0.4982 -1.9317,-0.4982l1.9317 -2.5112 5.8817 -0.6914z"/>
   <path class="fil2 str0" d="M16.7895 79.1859c-0.122,-0.0814 -0.4614,-0.5287 -0.3253,-1.1184 0.136,-0.5897 1.0624,-1.2303 1.4284,-1.0625 0.0049,0.0022 1.0632,-0.5034 1.1794,0.7422 0.0356,0.3813 -0.1169,0.8896 -0.3965,1.0421 -0.2796,0.1526 -0.6405,-0.0101 -0.7473,0 -0.1067,0.0102 -0.2135,0.483 -1.1387,0.3966z"/>
   <path class="fil5 str0" d="M14.6366 80.9957c0.4473,-0.0407 1.281,-0.1831 1.5657,0.244 0.2847,0.427 -0.183,2.4198 -1.7081,2.5621 -1.525,0.1423 -3.4161,-0.5897 -3.6195,-2.2775 -0.2033,-1.6877 0.7524,-3.2534 1.6675,-3.1111 0.915,0.1423 1.1793,0.9964 2.0944,2.5825z"/>
   <path class="fil2 str0" d="M14.1481 76.2691l-0.8541 1.5658c0,0 -0.3151,-0.8134 -0.3863,-0.8032 -0.0712,0.0101 -0.1627,1.3014 -0.2237,1.2709 -0.061,-0.0305 -0.8032,-1.4031 -0.8032,-1.4031l0 1.3929c0,0 -1.1387,-1.7691 -0.8642,-2.0436 0.2745,-0.2745 -0.305,0.671 -0.3762,0.5897 -0.0712,-0.0813 0.2339,-1.8301 0.488,-2.1656 0.2542,-0.3355 -0.4982,0.1322 -0.4982,0.1322 0,0 1.3929,-3.5382 3.9347,-4.3109 2.5418,-0.7727 1.2506,-0.488 1.2506,-0.488l-1.4742 -0.2135c0,0 2.1147,-0.5897 2.5112,-0.2034 0.3966,0.3864 0.5694,0.6914 0.5694,0.6914 0,0 -0.1525,-0.6609 -0.3254,-0.7829 -0.1728,-0.122 -2.0435,-0.1016 -2.2062,-0.244 -0.1627,-0.1423 1.5149,-0.6812 2.0639,-0.4575 0.549,0.2237 1.1489,0.3863 1.2099,0.7727 0.061,0.3863 0.0813,0.4677 0.0813,0.4677 0,0 -0.0813,-0.4779 0.122,-0.4677 0.2034,0.0102 0.7321,0.4779 0.6609,0.8439 -0.0712,0.366 -0.1322,0.8337 -0.3762,0.8235 -0.244,-0.0102 -0.3762,-0.0712 -0.61,-0.1627 -0.2338,-0.0915 -0.1525,0.2949 -0.4575,0.2339 -0.305,-0.061 -0.2339,-0.305 -0.4982,-0.2644 -0.2644,0.0407 -0.2135,0.2135 -0.4779,0.1525 -0.2643,-0.061 -0.7117,-0.4778 -0.7828,-0.4575 -0.0712,0.0204 -0.8164,0.4902 -1.2216,0.967 -0.4052,0.4768 -0.9359,1.7921 -0.9359,1.7921 -1.3465,-0.4507 -2.1964,0.7698 -1.4394,1.8302 0.7002,0.981 1.1466,0.0164 1.4516,0.2401 0.305,0.2237 0.4677,0.7015 0.4677,0.7015z"/>
   <path class="fil4 str0" d="M11.7186 72.4146c0,0 0.0102,-0.7456 0.3558,-1.1235 0.3457,-0.3779 0.9964,-1.1133 0.9964,-1.1031 0,0 -0.455,-0.2033 -0.8566,-0.1423 -0.4016,0.061 -1.0828,0.1296 -1.0828,0.1296l1.1184 -1.3014 1.2404 0.8235c0,0 1.6867,-0.9411 1.8809,-0.9557 0.1943,-0.0145 0.5948,1.2913 0.5948,1.2913l-4.2473 2.3816z"/>
   <path class="fil0 str0" d="M11.4003 82.757c-0.0605,-0.101 0.3475,-1.0096 0.6951,-0.8653 0.3475,0.1442 -0.2796,0.9662 -0.2494,1.0095 0.0303,0.0433 0.5818,-1.3485 0.8916,-1.0672 0.1592,0.1444 -0.6288,1.0142 -0.4685,1.1578 0.1602,0.1436 0.8387,-0.4007 0.9899,-0.3142 0.1511,0.0866 -0.4005,0.6418 -0.3627,0.7283 0.0378,0.0866 0.34,-0.4542 0.5213,-0.3677 0.1814,0.0865 0.0227,0.6273 -0.1057,0.7139 -0.1285,0.0865 -1.0201,0.0144 -1.345,-0.1947 -0.3249,-0.2091 -0.5666,-0.8004 -0.5666,-0.8004z"/>
   <path class="fil3 str0" d="M13.1833 81.3719c0,0 0.7153,-1.0022 0.9236,-1.2407 0.2083,-0.2385 0.4329,-0.6654 0.6029,-0.5624 0.1701,0.1031 -0.3537,0.7959 -0.4083,0.8581 -0.0545,0.0623 -2.7379,3.9514 -2.7379,3.9514l-0.3145 -0.2029 1.9342 -2.8035z"/>
   <path class="fil6 str0" d="M9.2336 86.0553c0.2209,-0.1269 1.1169,-1.4686 1.4183,-1.638 0.3013,-0.1693 0.4613,-0.3239 0.7317,-0.1552 0.2703,0.1688 0.5175,0.5422 0.3263,0.8668 -0.1912,0.3245 -0.5561,0.841 -1.0413,0.9737 -0.4853,0.1327 -1.435,-0.0473 -1.435,-0.0473z"/>
   <ellipse class="fil7 str0" cx="12.3858" cy="80.0134" rx="0.3711" ry="0.3584"/>
   <ellipse class="fil8 str0" cx="12.2028" cy="81.0987" rx="0.4321" ry="0.4016"/>
   <ellipse class="fil9 str0" cx="13.7572" cy="82.6922" rx="0.3787" ry="0.3838"/>
   <ellipse class="fil6 str0" cx="15.0929" cy="82.4976" rx="0.3838" ry="0.3889"/>
   <ellipse class="fil10 str0" cx="18.4543" cy="73.1684" rx="0.5643" ry="0.8896"/>
   <ellipse class="fil11 str0" cx="15.6685" cy="81.6301" rx="0.3508" ry="0.3711"/>
   <path class="fil12 str0" d="M14.6277 75.034c0,0 0.7422,0.0407 0.9252,-0.1118 0.183,-0.1525 0.5897,-0.8896 0.5897,-0.8896 0,0 -0.2796,0.8083 -0.2949,0.8947 -0.0152,0.0864 0.3762,0.6659 0.8592,0.7066 0.4829,0.0407 0.9557,-0.244 1.0929,-0.2694 0.1373,-0.0255 -0.5236,0.5439 -0.8184,0.5134 -0.2949,-0.0305 -1.2404,-0.6456 -1.3065,-0.7066 -0.0661,-0.061 -1.0472,-0.1373 -1.0472,-0.1373z"/>
   <path class="fil13 str0" d="M17.9066 73.8038c-0.0254,0.0407 -0.0458,0.3813 0.0356,0.5541 0.0813,0.1729 0.5032,0.6304 0.5032,0.6304l1.7895 -0.7066c0,0 -0.3661,-0.2695 -0.4474,-0.544 -0.0813,-0.2745 -0.0712,-0.8998 -0.0712,-0.8998l-1.8097 0.9659z"/>
   <path class="fil6 str0" d="M19.6826 72.8559l0.9437 -0.0129 0.2796 0.6558 -0.671 0.7829c0,0 -0.3406,-0.3051 -0.4474,-0.544 -0.1067,-0.2389 -0.1049,-0.8818 -0.1049,-0.8818z"/>
   <polygon class="fil14 str0" points="20.5854,72.8436 21.4041,72.843 20.9059,73.4988 20.5793,72.8437 "/>
   <ellipse class="fil10 str0" cx="16.9089" cy="73.5852" rx="0.5643" ry="0.8896"/>
   <ellipse class="fil15 str0" cx="17.0691" cy="73.1963" rx="0.2364" ry="0.3838"/>
   <ellipse class="fil15 str0" cx="18.6145" cy="72.7795" rx="0.2364" ry="0.3838"/>
   <path class="fil16 str0" d="M16.1871 71.6789c-0.0534,-0.1474 0.5693,-0.3864 0.8057,-0.028"/>
   <path class="fil16 str0" d="M17.9917 71.5798c-0.2211,-0.2364 0.6457,-0.3584 0.6304,0.0355"/>
   <path class="fil16 str0" d="M12.3439 74.4189c0.0102,-0.1169 0.2135,-0.6456 0.5846,-0.6354 0.3711,0.0102 0.5592,0.2084 0.5592,0.2084"/>
   <path class="fil17 str0" d="M9.2336 86.0553c0,0 0.5363,-0.6192 0.6176,-0.7239 0.0813,-0.1047 0.022,0.025 0.388,0.1978 0.3661,0.1729 0.4294,0.5734 0.4294,0.5734 0,0 -0.3231,0.0911 -0.5008,0.0486 -0.1777,-0.0425 -0.9342,-0.0959 -0.9342,-0.0959z"/>
  </g>
  <polygon class="fil18 str2" points="28.6953,54.0743 28.0942,88.9248 30.1671,87.0029 "/>
  <path class="fil19 str2" d="M3.2068 85.2764c0.5638,0.6506 12.0996,2.2118 18.171,2.5588 6.0714,0.3469 15.0485,-2.2985 17.3902,-2.9057 2.3418,-0.6071 -0.3468,3.7729 -1.3009,5.1606 -0.9541,1.3878 -3.8163,4.597 -8.6735,5.2908 -4.8572,0.6939 -7.9796,0.8673 -14.1377,0.5204 -8.9336,-2.3418 -11.4491,-10.6249 -11.4491,-10.6249z"/>
  <path class="fil20 str3" d="M0.7342 90.9094c8.2021,1.9844 12.7001,3.0428 16.5365,1.9844 3.8364,-1.0584 1.852,3.3073 10.451,1.0583 8.599,-2.249 11.2448,-5.6885 16.8011,-2.9104 5.5563,2.7781 8.7314,3.5719 12.3032,1.3229 3.5718,-2.249 9.1283,-5.0272 16.2721,-2.9106 7.1438,2.1166 15.0813,-0.5293 18.2563,-1.323 3.175,-0.7937 8.7313,-0.1985 8.7313,-0.1985l0.1326 12.3694 -100.2106 -0.6284c0,0 -0.5292,-8.8966 0.7265,-8.7641z"/>
  <g id="_2565026043536">
   <path class="fil21 str2" d="M82.8929 76.7748c-0.1705,0.0289 -1.1084,0.3884 -1.6868,0.9512 -0.5784,0.5628 -1.5789,2.4855 -1.1724,2.7669 0.4064,0.2814 1.8549,-0.7014 2.1572,-1.1411 0.3023,-0.4397 0.702,-2.577 0.702,-2.577z"/>
   <path class="fil22 str2" d="M82.5465 88.1803c0,0 -2.8451,-2.3918 -2.3605,-4.5959 0.4846,-2.2042 1.5789,-3.9706 2.2823,-5.4244 0.7035,-1.4538 0.1563,-1.8134 -0.1407,-2.3449 -0.297,-0.5315 0.3127,-1.6883 0.3127,-1.6883 0,0 -1.4382,2.0948 -2.298,1.9853 -0.8597,-0.1094 -1.485,-1.1724 -1.4538,-1.5788 0.0313,-0.4065 -2.0754,-0.4842 -2.5559,-0.8051 -1.2439,-0.8308 -1.1449,-1.4703 -1.0758,-1.774 0.239,0.0875 0.177,1.0471 2.3342,0.9377 2.1573,-0.1094 2.3918,-0.172 3.7361,-0.8911 1.3444,-0.719 1.5007,-1.0317 2.4543,-0.5783 0.9536,0.4533 0.9849,0.1719 1.36,1.2349 0.3752,1.063 0.4221,3.1265 -0.3751,4.5646 -0.7973,1.4382 -2.5325,4.252 -2.9389,5.8778 -0.4065,1.6257 0.7191,5.0805 0.7191,5.0805z"/>
   <path class="fil21 str2" d="M85.9114 77.1632c0.0625,0.1407 -0.172,0.6097 0.0782,1.1256 0.2501,0.5158 0.5471,0.9223 0.7503,1.2505 0.2032,0.3283 0.2032,1.3757 0.6409,1.4851 0.4377,0.1094 1.2193,-0.5471 1.5476,-1.2037 0.3283,-0.6565 -0.0625,-3.0483 -0.0625,-3.0483l-2.9545 0.3908z"/>
   <path class="fil23 str2" d="M79.0019 74.3651c0.3596,-0.0157 2.9233,-0.8285 3.3141,-1.6414 0.3908,-0.8129 -0.9223,2.2979 -1.6571,2.5637 -0.7347,0.2657 -1.0629,0.2657 -1.1724,-0.1407 -0.1094,-0.4064 0,-0.6878 0,-0.6878l-0.4846 -0.0938z"/>
   <path class="fil21 str2" d="M84.2504 87.3987c0.0938,0 2.0791,-1.2037 2.7356,-1.5789 0.6566,-0.3752 2.423,-0.3908 2.4387,0.0313 0.0156,0.4221 -1.2819,0.8754 -1.3444,1.4382 -0.0625,0.5627 0.0313,1.3131 -0.297,1.8446 -0.6644,0.9926 -2.9233,0.9692 -3.9237,0.766 -1.0005,-0.2033 0.7816,1.7664 -1.2819,1.954 -2.0634,0.1876 -3.1264,-1.1568 -3.5016,-1.063 -0.3752,0.0938 -0.594,0.3439 -0.8676,0.211 -0.2736,-0.1328 -0.2736,-1.1176 0.2267,-1.5241 0.5002,-0.4064 3.1421,-0.7894 3.3609,-0.9536 0.2189,-0.1641 0.7361,-0.3887 0.7361,-0.3887 0,0 -1.4027,-2.0908 -0.7712,-4.6444 0.6315,-2.5537 2.4558,-5.2516 3.0471,-6.3465 0.5912,-1.0949 0.7911,-3.1551 0.4879,-3.8972 -0.3032,-0.7421 -1.2034,-1.885 -1.737,-1.9223 -0.5336,-0.0374 -0.8737,0.1232 -2.8776,1.0092 -1.4584,0.6447 -4.4101,1.5071 -5.4046,-0.3343 -0.1497,-0.2773 0.2742,-0.4368 0.5712,-0.7338 0.297,-0.297 -0.3752,-0.9535 -0.0938,-2.0322 0.2814,-1.0786 0.9223,-2.5793 1.7977,-2.8763 0.8754,-0.297 8.2619,-1.1182 8.7112,-1.2 0.4494,-0.0819 4.1855,-0.1287 6.202,1.7784 2.0166,1.9071 1.9228,3.0483 2.0948,4.1269 0.1719,1.0786 0.5471,1.6883 -0.0469,1.9853 -0.5941,0.297 -1.063,-0.2188 -1.7978,-0.5784 -0.7347,-0.3595 -1.3443,-0.6409 -1.6257,-0.6722 -0.2814,-0.0312 0.2814,2.3761 -0.1876,3.6893 -0.469,1.3131 -3.5642,5.1899 -4.7209,6.2216 -1.1568,1.0318 -1.8134,1.3444 -2.2511,2.6575 -0.4377,1.3131 -0.4768,2.0635 -0.2736,2.5012 0.2033,0.4377 0.5941,0.5314 0.5941,0.5314z"/>
   <ellipse class="fil10 str2" cx="80.5078" cy="70.006" rx="1.0005" ry="1.3913"/>
   <ellipse class="fil10 str2" cx="77.6312" cy="69.9792" rx="0.9848" ry="1.4069"/>
   <ellipse class="fil24 str2" cx="80.7996" cy="70.4414" rx="0.4846" ry="0.7191"/>
   <ellipse class="fil24 str2" cx="77.9233" cy="70.5117" rx="0.5159" ry="0.6956"/>
   <path class="fil25 str2" d="M86.1302 65.5485c-0.1875,0.1407 -3.0014,2.2354 -5.4713,2.2979 -2.4699,0.0626 -4.1581,0.3908 -4.971,-0.8441 -0.8129,-1.235 1.0317,-1.2819 1.3287,-1.4382 0.297,-0.1563 2.0322,0.4065 3.6111,0.2814 1.5788,-0.1251 5.5573,-0.3869 5.5573,-0.3869l-0.0548 0.0899z"/>
   <path class="fil26 str2" d="M76.8798 65.0873l0.1368 0.4768c0,0 2.5392,0.3589 3.8188,0.2652 1.2796,-0.0937 5.3496,-0.3707 5.3496,-0.3707l0.1563 -0.6018c0,0 -4.4552,0.3634 -5.5143,0.3361 -1.0591,-0.0274 -3.9472,-0.1056 -3.9472,-0.1056z"/>
   <path class="fil27 str4" d="M76.8798 65.0873c0,0 -1.0122,-0.7659 -0.7855,-1.6804 0.2267,-0.9145 1.235,-1.1412 1.8759,-1.063 0.6409,0.0781 0.7738,-1.0005 2.4074,-1.0552 1.6335,-0.0547 1.9071,0.469 2.079,0.4455 0.172,-0.0234 0.1876,-0.5393 1.1021,-0.5549 0.9145,-0.0156 1.8056,0.7738 2.1026,0.8441 0.297,0.0704 1.5085,0.2111 1.6726,0.8911 0.1642,0.68 -0.8637,1.8016 -0.891,1.8837l-5.2582 0.3932 -4.3049 -0.1041z"/>
   <path class="fil28 str2" d="M80.2302 62.608c0.0254,-0.3043 0.2789,-0.4311 0.5325,-0.4058 0.2536,0.0254 0.3551,0.0634 0.317,0.2663 -0.038,0.2029 -0.2219,0.2536 -0.2599,0.3106 -0.038,0.0571 -0.038,0.2917 -0.038,0.2917l0.4311 -0.0507 0 0.2345 -0.3868 0.0444c0,0 -0.019,0.3677 0.0127,0.4184 0.0317,0.0507 0.2916,0.1585 0.4438,0.1395 0.1521,-0.019 0.2346,-0.0951 0.298,-0.2029 0.0634,-0.1077 -0.1776,-0.1997 -0.1776,-0.1997l0.409 -0.1204 0.0348 0.374 -0.1363 -0.0317c0,0 -0.0824,0.3107 -0.3296,0.3424 -0.2473,0.0317 -0.6213,-0.1205 -0.6213,-0.1205 0,0 -0.5009,0.1141 -0.7164,0.0888 -0.2156,-0.0254 -0.317,-0.2283 -0.317,-0.2283l-0.336 0.1585 0.0951 -0.4818 0.4945 0.1078 -0.0761 0.1458c0,0 0.1141,0.1078 0.298,0.1078 0.1838,0 0.3486,-0.0444 0.3486,-0.0444l0.0254 -0.4311 -0.3614 0.019 0 -0.2662 0.336 -0.0508c0,0 0.0508,-0.2662 -0.0063,-0.2852 -0.0571,-0.0191 -0.3043,0.0507 -0.3138,-0.13z"/>
   <path class="fil16 str2" d="M86.1576 65.5035c0,0 2.0144,1.6672 2.8898,3.0741 0.8754,1.4069 2.0421,3.2201 2.0421,3.2201"/>
  </g>
  <path class="fil29 str2" d="M28.7613 54.7357c0,0 5.2254,4.8947 5.1593,9.4588 -0.0661,4.5641 -1.8521,7.21 -3.2411,8.6652 -1.389,1.4552 0.5956,-5.6366 0.6618,-8.9439 0.0662,-3.3073 -2.58,-9.1801 -2.58,-9.1801z"/>
 </g>
</svg>
