<?xml version="1.0" encoding="UTF-8"?>
<!DOCTYPE svg PUBLIC "-//W3C//DTD SVG 1.1//EN" "http://www.w3.org/Graphics/SVG/1.1/DTD/svg11.dtd">
<!-- Creator: CorelDRAW 2019 (64-Bit) -->
<svg xmlns="http://www.w3.org/2000/svg" xml:space="preserve" width="100mm" height="100mm" version="1.1" style="shape-rendering:geometricPrecision; text-rendering:geometricPrecision; image-rendering:optimizeQuality; fill-rule:evenodd; clip-rule:evenodd"
viewBox="0 0 100 100"
 xmlns:xlink="http://www.w3.org/1999/xlink"
 xmlns:xodm="http://www.corel.com/coreldraw/odm/2003"
 inkscape:version="1.1 (c68e22c387, 2021-05-23)"
 sodipodi:docname="schedule.svg"
 xmlns:inkscape="http://www.inkscape.org/namespaces/inkscape"
 xmlns:sodipodi="http://sodipodi.sourceforge.net/DTD/sodipodi-0.dtd"
 xmlns:svg="http://www.w3.org/2000/svg">
 <defs>
  <style type="text/css">
   <![CDATA[
    .str1 {stroke:#2B2A29;stroke-width:0.1063;stroke-miterlimit:22.9256}
    .str7 {stroke:black;stroke-width:0.0331;stroke-miterlimit:22.9256}
    .str6 {stroke:#1A1A1A;stroke-width:0.0331;stroke-miterlimit:22.9256}
    .str5 {stroke:black;stroke-width:0.469;stroke-miterlimit:22.9256}
    .str11 {stroke:#2B2A29;stroke-width:0.1117;stroke-miterlimit:22.9256}
    .str2 {stroke:black;stroke-width:0.266;stroke-miterlimit:22.9256}
    .str4 {stroke:black;stroke-width:0.2673;stroke-miterlimit:22.9256}
    .str3 {stroke:black;stroke-width:0.0133;stroke-miterlimit:22.9256}
    .str8 {stroke:black;stroke-width:0.2711;stroke-miterlimit:22.9256}
    .str0 {stroke:#2B2A29;stroke-width:0.2;stroke-miterlimit:22.9256}
    .str9 {stroke:yellow;stroke-width:0.0219;stroke-miterlimit:22.9256}
    .str10 {stroke:#2B2A29;stroke-width:0.1003;stroke-miterlimit:22.9256}
    .fil2 {fill:none}
    .fil7 {fill:none;fill-rule:nonzero}
    .fil5 {fill:#2B2A29}
    .fil1 {fill:#771700}
    .fil4 {fill:#E31E24}
    .fil0 {fill:#FBC382}
    .fil3 {fill:white}
    .fil15 {fill:green;fill-rule:nonzero}
    .fil19 {fill:lime;fill-rule:nonzero}
    .fil6 {fill:aqua;fill-rule:nonzero}
    .fil10 {fill:#AA4400;fill-rule:nonzero}
    .fil12 {fill:#C08A4F;fill-rule:nonzero}
    .fil13 {fill:#C8B7B7;fill-rule:nonzero}
    .fil17 {fill:#CCCCCC;fill-rule:nonzero}
    .fil18 {fill:#D40000;fill-rule:nonzero}
    .fil16 {fill:#D4AA00;fill-rule:nonzero}
    .fil11 {fill:#ED653D;fill-rule:nonzero}
    .fil20 {fill:#FBC282;fill-rule:nonzero}
    .fil9 {fill:#FBC382;fill-rule:nonzero}
    .fil21 {fill:red;fill-rule:nonzero}
    .fil8 {fill:yellow;fill-rule:nonzero}
    .fil14 {fill:white;fill-rule:nonzero}
   ]]>
  </style>
 </defs>
 <g id="Layer_x0020_1">
  <metadata id="CorelCorpID_0Corel-Layer"/>
  <path class="fil0 str0" d="M18.681 83.553c-2.1562,0.0634 -3.9003,-1.5696 -4.3442,-2.7111 -0.4439,-1.1416 -0.6975,-2.4576 -0.6975,-2.4576 0,0 -0.0981,0.4001 -0.5419,0.4634 -0.4439,0.0633 -0.974,-1.1732 -0.974,-1.7439 0,-0.5707 0.3108,-0.9391 0.6597,-0.9391 0.3487,0 0.6659,0.7927 0.6659,0.7927l0.1903 -4.1222 9.8299 -0.0634c0,0 0.1268,3.9954 0.222,3.6783 0.095,-0.3171 -0.2018,-1.1863 0.6134,-0.9255 0.8152,0.2609 0.6622,1.0957 0.5988,1.4127 -0.0634,0.3169 -0.0458,1.5485 -0.5215,1.485 -0.4757,-0.0634 -0.659,-0.6721 -0.659,-0.6721 0.3975,1.9514 -0.287,4.2 -2.0612,5.2321 -1.4108,0.8207 -2.9807,0.5707 -2.9807,0.5707z"/>
  <path class="fil1 str0" d="M11.7044 77.648c-0.0839,-0.0396 -0.9377,-2.0427 -0.5568,-3.1631 0.3808,-1.1205 0.4788,-2.7737 1.6882,-3.9419 1.2093,-1.168 3.1595,-1.8443 3.786,-1.7914 0.6266,0.053 -0.1179,-1.0175 -0.4467,-1.1841 -0.3288,-0.1667 -0.7427,-0.3951 -0.7427,-0.3951 0,0 0.8758,-0.1952 1.4546,0.3838 0.5789,0.579 0.6369,0.7501 0.7089,0.9686 0.072,0.2185 -0.1743,-0.8675 0.229,-1.4381 0.4031,-0.5706 0.9005,-0.6011 0.9005,-0.6011 0,0 -0.3261,0.5235 -0.4815,0.9184 -0.1554,0.3949 -0.2104,1.2442 -0.2104,1.2442 0,0 0.9359,-1.0188 1.3696,-1.2219 0.4336,-0.2031 0.7519,-0.0878 0.7519,-0.0878 0,0 -0.4397,0.1996 -0.6958,0.3925 -0.256,0.1929 -0.6771,0.7702 -0.6771,0.7702l1.8821 -0.5686c0,0 -0.2441,0.337 -0.5297,0.5315 -0.2857,0.1946 -0.1415,0.4423 -0.1415,0.4423 0,0 0.7714,-0.267 1.3315,-0.0766 0.5602,0.1904 1.1341,0.6176 1.5722,1.008 0.4381,0.3904 0.264,0.4598 0.8865,0.9584 0.6224,0.4985 1.1132,0.5148 1.1626,1.3729 0.0494,0.8581 0.0963,0.9 0.5165,1.7516 0.4202,0.8517 0.1378,1.1054 -0.0961,1.6829 -0.2339,0.5775 -0.8813,-0.5956 -1.1881,-0.2513 -0.3068,0.3442 -0.5492,0.9005 -0.4743,0.1392 0.0749,-0.7613 -0.4071,1.312 -0.7078,0.9879 -0.3006,-0.3241 -0.6173,-1.7133 -0.7111,-1.7969 -0.0938,-0.0836 -0.0734,1.0932 -0.5118,0.9552 -0.4385,-0.1381 -0.6902,-1.4649 -0.6902,-1.4649 0,0 -0.2909,1.628 -0.7205,1.3855 -0.4295,-0.2424 -1.0469,-2.1744 -1.1707,-2.004 -0.1238,0.1704 0.2984,1.9486 0.0426,1.8891 -0.2558,-0.0595 -1.5187,-1.7448 -1.5187,-1.7448 0,0 0.6105,1.9253 0.3895,1.9529 -0.221,0.0275 -1.1367,-1.5239 -1.3996,-1.4494 -0.2629,0.0745 -0.0663,1.5859 -0.3187,1.5855 -0.2523,-0.0003 -1.5006,-1.0888 -1.8087,-1.0265 -0.3081,0.0623 -1.14,2.0567 -1.14,2.0567 0,0 -0.0419,-0.4741 -0.5613,-0.6 -0.5193,-0.126 -0.7403,0.103 -0.8354,0.32 -0.0951,0.2169 -0.1276,0.5529 -0.2226,0.7067 -0.0951,0.154 -0.1144,0.4035 -0.1144,0.4035z"/>
  <path class="fil2 str0" d="M23.9554 68.2959c-0.1465,-0.0059 -0.1875,0.1757 -0.1523,0.3631 0.0352,0.1875 0.0937,0.4393 0.2636,0.5272 0.1698,0.0878 0.2811,0.164 0.3807,0.0644"/>
  <ellipse class="fil3 str1" transform="matrix(0.52764 0.0622462 -0.0622462 0.52764 17.6806 78.3721)" rx="1.808" ry="1.4993"/>
  <path class="fil2 str0" d="M19.1609 79.6875c0.1204,0.1794 0.117,0.1082 0.314,0.4381 0.197,0.3299 0.3305,0.2985 -0.0131,0.4113"/>
  <path class="fil4 str0" d="M17.6627 81.0629c0.1888,0.1992 0.6579,0.3725 1.1185,0.3679 0.4605,-0.0047 1.1049,-0.2177 1.311,-0.4647 0.2061,-0.2469 -0.9193,1.1686 -1.141,1.1984 -0.2217,0.0298 -0.3537,0.0232 -0.8162,-0.4561 -0.4624,-0.4792 -0.4723,-0.6455 -0.4723,-0.6455z"/>
  <ellipse class="fil3 str1" transform="matrix(0.52764 0.0622462 -0.0622462 0.52764 20.0283 78.1904)" rx="1.808" ry="1.4993"/>
  <ellipse class="fil5 str1" transform="matrix(0.52764 0.0622462 -0.0622462 0.52764 17.9483 78.6964)" rx="0.7386" ry="0.5512"/>
  <ellipse class="fil5 str1" transform="matrix(0.52764 0.0622462 -0.0622462 0.52764 20.1677 78.574)" rx="0.7386" ry="0.5512"/>
  <path class="fil2 str0" d="M16.9345 76.5182c0.3614,-0.3073 1.2501,-0.334 1.4655,-0.0736"/>
  <line class="fil2 str0" x1="16.9675" y1="77.6318" x2="16.7439" y2= "77.3716" />
  <line class="fil2 str0" x1="17.6337" y1="77.0996" x2="17.6451" y2= "77.3655" />
  <line class="fil2 str0" x1="17.1919" y1="77.1331" x2="17.3253" y2= "77.4024" />
  <line class="fil2 str0" x1="18.1576" y1="77.169" x2="18.0547" y2= "77.4776" />
  <line class="fil2 str0" x1="18.7021" y1="77.3464" x2="18.4861" y2= "77.6276" />
  <line class="fil2 str0" x1="19.2823" y1="77.1825" x2="19.4954" y2= "77.4246" />
  <line class="fil2 str0" x1="19.8608" y1="76.9877" x2="19.9518" y2= "77.2432" />
  <line class="fil2 str0" x1="20.5294" y1="77.1141" x2="20.4165" y2= "77.3838" />
  <line class="fil2 str0" x1="20.9523" y1="77.2391" x2="20.722" y2= "77.5073" />
  <line class="fil2 str0" x1="21.1491" y1="77.6176" x2="20.9841" y2= "77.7161" />
  <path class="fil2 str0" d="M19.1791 76.4211c0.3614,-0.3073 1.2501,-0.334 1.4654,-0.0736"/>
  <sodipodi:namedview id="namedview41611" pagecolor="#ffffff" bordercolor="#666666" borderopacity="1.0" inkscape:pageshadow="2" inkscape:pageopacity="0.0" inkscape:pagecheckerboard="0" inkscape:document-units="mm" showgrid="false" inkscape:zoom="0.592" inkscape:cx="799" inkscape:cy="195" inkscape:window-width="1902" inkscape:window-height="1033" inkscape:window-x="-2" inkscape:window-y="0" inkscape:window-maximized="0" inkscape:current-layer="layer1"/>
  <polygon id="path42918" class="fil6 str2" points="7.1,78.85 18.6,82.7 18.1,94.35 6.1,91.55 "/>
  <g id="_2637843645952">
   <path id="path42920" class="fil6" d="M18.6 82.7l2.5 -0.15 -0.5 11.65 -2.5 0.15 0.5 -11.65zm0 0l0 0 0 0z"/>
   <path id="_1" class="fil7 str2" d="M18.6 82.7l2.5 -0.15 -0.5 11.65 -2.5 0.15m0.5 -11.65l0 0 0 0z"/>
  </g>
  <g id="_2637843644960">
   <path id="path42922" class="fil6" d="M20.6 94.2l10.5 -3.15 0.5 -12.85 -10.5 4.35 -0.5 11.65zm0 0l0 0 0 0z"/>
   <path id="_1_0" class="fil7 str2" d="M20.6 94.2l10.5 -3.15 0.5 -12.85 -10.5 4.35m-0.5 11.65l0 0 0 0z"/>
  </g>
  <ellipse id="path42970" class="fil8 str3" cx="27.1" cy="87.45" rx="1.2" ry="1.31"/>
  <polygon id="path43111-0" class="fil8 str2" points="25.6,87.9 24.6,87.7 24.6,88.7 "/>
  <path id="path43448" class="fil8 str2" d="M12.6 89.7l0.5 -1.6c0,0 1.5,0.4 1.5,0.3 0,0 -1,-1.1 -1,-1.1l1 -1.15 -1.5 0.35 0 -1.55c0,0 -1,1.55 -1,1.45 0,0 -1.5,-0.95 -1.5,-0.95l1 1.45 -2 0.55 1.5 0.25c0,0 -0.5,1.75 -0.5,1.6 0.5,0 1.5,-1.2 1.5,-1.2l0.5 1.6z"/>
  <ellipse id="path44194" class="fil9 str3" cx="6.1" cy="82" rx="0.695" ry="0.52"/>
  <ellipse id="path44194-3" class="fil9 str3" cx="6.1" cy="83.15" rx="0.695" ry="0.52"/>
  <ellipse id="path44194-6" class="fil9 str3" cx="6.1" cy="84.3" rx="0.695" ry="0.52"/>
  <ellipse id="path44509" class="fil9 str3" cx="31.1" cy="81.45" rx="0.67" ry="0.428"/>
  <ellipse id="path44509-5" class="fil9 str3" cx="31.1" cy="82.8" rx="0.67" ry="0.428"/>
  <ellipse id="path44509-7" class="fil9 str3" cx="31.1" cy="84" rx="0.67" ry="0.428"/>
  <polygon id="path44659" class="fil9 str2" points="22.1,93.95 24.1,95.65 24.1,96.75 20.6,94.2 "/>
  <polygon id="path44661" class="fil9 str2" points="16.6,94.2 16.6,95.4 17.6,96.7 18.1,94.35 16.6,94.1 " sodipodi:nodetypes="cccccc"/>
  <polygon id="path43111-5" class="fil8 str2" points="25.6,84.9 25.1,85.9 26.1,86.15 "/>
  <polygon id="path43111-3" class="fil8 str2" points="28.6,86.4 29.6,85.95 29.1,85.1 "/>
  <polygon id="path43111-39" class="fil8 str2" points="29.1,89.2 29.6,88.1 28.6,88.05 "/>
  <polygon id="path43111" class="fil8 str2" points="27.1,89.25 26.6,90.25 27.6,90.5 "/>
  <path id="path13514" class="fil10 str2" d="M24.6 97.5c-0.5,-0.75 -0.5,-0.65 -0.5,-1.85 0.5,-1.3 2,-2.25 2.5,-1.7 0.5,0.5 0.5,1.45 0,2.4 -0.5,0.75 -2,1.15 -2,1.15z" sodipodi:nodetypes="csssc"/>
  <path id="path13905" class="fil10 str2" d="M17.6 98.7c-1.5,0.95 -3.5,-2.9 -2.5,-3.45 0.5,-0.4 4,1.6 2.5,3.45z"/>
  <path id="path33254" class="fil11 str4" d="M89.7 81.67c0,0 1.74,0.29 1.74,0.928 0,0.58 1.74,7.192 1.74,7.192 0,0 -2.9,1.276 -4.64,1.102 -0.58,0 -3.77,0.464 -3.77,0.464l-3.074 -2.03c0,0 0.928,-1.334 1.334,-2.436 0.348,-1.102 0,-4.466 0,-4.466l6.67 -0.754z"/>
  <g id="_2637843635136">
   <path id="path33256" class="fil9" d="M84.1123 81.9806c0,0 -0.522,1.856 1.276,1.856 1.508,0 1.566,-2.204 1.566,-2.204l-2.842 0.348zm0 0l0 0 0 0z" sodipodi:nodetypes="csc"/>
   <path id="_1_1" class="fil7 str4" d="M84.1123 81.9806c0,0 -0.522,1.856 1.276,1.856 1.508,0 1.566,-2.204 1.566,-2.204m-2.842 0.348l0 0 0 0z"/>
  </g>
  <path id="path33310" class="fil7 str5" d="M86.278 86.6l2.262 2.146c0,0 2.9,-3.19 1.74,-4.002 -2.32,-1.566 -4.002,1.856 -4.002,1.856z" sodipodi:nodetypes="ccsc"/>
  <polygon id="path33312" class="fil11 str4" points="81.058,83.99 83.378,86.252 83.03,82.25 "/>
  <path id="path33522" class="fil12 str4" d="M92.02 90.138c0,0 0.58,1.798 0.58,2.726 0,0.58 -1.16,1.392 -1.16,1.392l-6.554 -2.9 7.134 -1.218z" sodipodi:nodetypes="caccc"/>
  <g id="_2637843633760">
   <path id="path34689" class="fil9" d="M81.696 84.28l-5.684 2.61c0,0 -1.624,-1.334 -2.03,-0.754 -0.406,0.522 1.682,1.682 1.218,1.508 0,0 -2.146,-0.754 -2.262,0 -0.116,0.754 2.436,0.464 2.262,0.638 -0.29,0.116 -1.508,1.392 -1.508,1.392 0.116,0 2.32,-1.102 2.32,-1.102 -0.174,0.174 -1.218,1.566 -0.638,1.856 0.58,0.29 1.102,-1.566 1.102,-1.566 0,0 1.508,1.392 1.972,0.812 0.464,-0.638 -1.392,-1.682 -1.392,-1.856 0.174,0 5.568,-2.494 5.568,-2.494l-0.928 -1.044zm0 0l0 0 0 0z" sodipodi:nodetypes="ccssssccscssc"/>
   <path id="_1_2" class="fil7 str4" d="M81.696 84.28l-5.684 2.61c0,0 -1.624,-1.334 -2.03,-0.754 -0.406,0.522 1.682,1.682 1.218,1.508 0,0 -2.146,-0.754 -2.262,0 -0.116,0.754 2.436,0.464 2.262,0.638 -0.29,0.116 -1.508,1.392 -1.508,1.392 0.116,0 2.32,-1.102 2.32,-1.102 -0.174,0.174 -1.218,1.566 -0.638,1.856 0.58,0.29 1.102,-1.566 1.102,-1.566 0,0 1.508,1.392 1.972,0.812 0.464,-0.638 -1.392,-1.682 -1.392,-1.856 0.174,0 5.568,-2.494 5.568,-2.494m-0.928 -1.044l0 0 0 0z"/>
  </g>
  <path id="path34804" class="fil13 str4" d="M77.81 83.642c-1.972,1.334 -0.754,4.176 1.74,4.466 0.58,0.058 3.364,5.858 3.364,5.858 0.116,0 1.218,-0.29 1.218,-0.464 0,-0.174 -3.364,-5.684 -3.364,-5.974 0.638,-2.32 -1.16,-4.988 -2.958,-3.886z" sodipodi:nodetypes="cscscc"/>
  <g id="_2637843631840">
   <path id="path33704" class="fil9" d="M86.742 86.89c0,0 -1.972,2.9 -2.784,2.9 -0.58,0 -1.682,-0.58 -1.682,-0.58 0,0 0.29,0.638 0,0.928 -0.464,0.406 -1.044,0.464 -1.218,0.464 -0.29,-0.174 -0.638,-0.638 -0.638,-0.638l-0.116 0.928c0,0 0.464,0.522 0.928,0.522 0.638,0 1.218,-0.348 1.218,-0.348 0,0 -0.406,0.406 -0.638,0.522 -0.348,0.174 -1.16,-0.232 -1.218,0.232 0,0.406 0.754,0.29 1.102,0.29 0.29,0 1.218,-0.29 1.218,-0.29 0,0 -0.348,0.348 -0.696,0.464 -0.29,0.174 -1.16,-0.116 -1.16,0.29 0,0.406 0.928,0.464 1.218,0.29 0.464,-0.116 1.276,-0.174 1.682,-0.754 0.174,-0.232 0.174,-1.044 0.174,-1.044l4.408 -2.784 -1.798 -1.566 0 0.174zm0 0l0 0 0 0z" sodipodi:nodetypes="cscssccscasscssssccc"/>
   <path id="_1_3" class="fil7 str4" d="M86.742 86.89c0,0 -1.972,2.9 -2.784,2.9 -0.58,0 -1.682,-0.58 -1.682,-0.58 0,0 0.29,0.638 0,0.928 -0.464,0.406 -1.044,0.464 -1.218,0.464 -0.29,-0.174 -0.638,-0.638 -0.638,-0.638l-0.116 0.928c0,0 0.464,0.522 0.928,0.522 0.638,0 1.218,-0.348 1.218,-0.348 0,0 -0.406,0.406 -0.638,0.522 -0.348,0.174 -1.16,-0.232 -1.218,0.232 0,0.406 0.754,0.29 1.102,0.29 0.29,0 1.218,-0.29 1.218,-0.29 0,0 -0.348,0.348 -0.696,0.464 -0.29,0.174 -1.16,-0.116 -1.16,0.29 0,0.406 0.928,0.464 1.218,0.29 0.464,-0.116 1.276,-0.174 1.682,-0.754 0.174,-0.232 0.174,-1.044 0.174,-1.044l4.408 -2.784 -1.798 -1.566m0 0.174l0 0 0 0z"/>
  </g>
  <ellipse id="path35801" class="fil14 str6" cx="72.358" cy="93.618" rx="7.076" ry="4.5936"/>
  <ellipse id="path35923" class="fil14 str7" cx="72.648" cy="93.676" rx="4.2282" ry="2.7666"/>
  <polygon id="path36078" class="fil8 str4" points="70.734,92.748 71.372,91.646 72.59,92.284 72.126,93.502 "/>
  <polygon id="path36080" class="fil8 str4" points="73.808,92.748 73.692,91.646 74.91,91.936 74.62,93.212 "/>
  <polygon id="path36082" class="fil8 str4" points="71.372,94.43 70.328,93.966 69.864,95.184 71.198,95.648 "/>
  <polygon id="path36084" class="fil8 str4" points="73.228,94.256 72.59,95.184 73.228,95.822 73.982,95.358 74.156,94.43 "/>
  <polygon id="path36084-2" class="fil8 str4" points="69.922,91.994 69.284,92.922 69.922,93.56 70.676,93.096 70.85,92.168 "/>
  <polygon id="path36084-8" class="fil8 str4" points="72.474,93.154 71.836,94.082 72.474,94.72 73.228,94.256 73.402,93.328 "/>
  <polygon id="path36084-1" class="fil8 str4" points="75.374,93.966 74.736,94.894 75.374,95.532 76.128,95.068 76.302,94.14 "/>
  <path id="path22253" class="fil15 str8" d="M42.57 31.638c0,0 -0.644,-0.092 -1.104,0.368 -0.506,0.506 0.092,3.542 1.104,3.404 0.92,-0.23 0.46,-2.76 0.46,-2.76l-0.46 -1.012z"/>
  <path id="path14457" class="fil16 str8" d="M26.7 26.302c-1.932,-3.91 -0.092,-7.084 2.944,-8.924 2.898,-1.794 8.418,-1.472 9.844,1.978 1.472,3.266 -0.69,6.67 -2.53,7.774 -1.84,0.966 -7.084,3.312 -10.258,-0.828z"/>
  <path id="path14492" class="fil17 str8" d="M28.402 26.026c-1.518,-1.886 -1.794,-5.336 1.472,-7.176 3.312,-1.84 7.176,-2.438 9.016,0.506 1.84,3.036 -0.092,4.968 -2.438,6.808 -2.3,1.702 -6.394,1.978 -8.05,-0.138z" sodipodi:nodetypes="asssa"/>
  <polygon id="path14527" class="fil16 str8" points="39.626,19.356 40.592,18.85 41.098,19.724 39.764,20.322 "/>
  <path id="path24695" class="fil18 str8" d="M49.5651 15.8881l7.36 -3.772c0,0 0.46,1.472 0.46,1.472 0,0.138 -7.82,3.91 -7.82,3.91l0 -1.61z"/>
  <path id="path19923" class="fil19 str8" d="M46.25 20.92c0,0 -1.38,0.368 -0.92,1.61 0,1.196 0,3.496 0,3.496 0,0 1.38,-0.368 2.3,0 1.38,0.506 3.22,0.276 3.68,-0.092 0,-0.276 0.46,-0.598 0.46,-0.598 0,0 -0.46,-1.104 -0.92,-1.978 0,-0.828 0.46,-1.564 0.46,-1.564l1.84 -2.208 -0.46 -0.598 -4.14 3.174 2.3 -1.978 -0.92 -0.736 -3.68 1.472z"/>
  <path id="path19958" class="fil18 str8" d="M45.33 26.026l-1.84 2.208c0,0 3.68,2.438 4.14,2.438 0.46,0 1.38,-1.932 1.84,-1.932 0,0 0.46,1.196 0.46,1.196 0,0 1.84,0 2.3,-0.368 0.92,-0.368 0.92,-1.196 0.92,-1.196l-1.38 -2.944 -6.44 0.598z"/>
  <path id="path20026" class="fil20 str8" d="M44.87 29.2c0,0 -0.46,0.92 -0.92,1.334 -0.46,0.414 -1.38,1.104 -1.38,1.104l0.46 0.874c0,0 1.38,-0.598 1.84,-1.242 0.46,-0.598 1.38,-1.564 1.38,-1.564l-1.38 -0.506z" sodipodi:nodetypes="caccscc"/>
  <path id="path21186" class="fil9 str8" d="M50.85 29.936c0,0 0.46,0.736 0.46,1.104l-0.46 1.242 0.92 -0.092 0.46 -1.242 0 -1.38 -1.38 0.368z" sodipodi:nodetypes="csccscc"/>
  <path id="path22066" class="fil15 str8" d="M50.85 32.374c-0.46,0.506 1.38,3.634 2.76,2.208 0.46,-0.644 -1.38,-3.174 -2.76,-2.208z" sodipodi:nodetypes="sss"/>
  <path id="path22386" class="fil9 str8" d="M49.93 19.448c0,0 1.84,-1.794 2.3,-2.162 0.92,-1.15 0.46,-1.518 0.46,-1.518 0,0 -0.46,-1.104 0,-1.288 0,-0.092 0.46,0.368 0.46,0.368 0,0 0,-1.794 0.46,-1.702 0.46,0.046 0,1.058 0,1.058 0,0 0.46,-1.196 0.92,-0.966 0.46,0.23 -0.46,1.334 -0.46,1.242 0.46,-0.138 0.46,-0.92 0.92,-0.736 0.46,0.184 0.46,0.598 0,1.196 -0.46,0.736 -0.92,1.104 -0.92,1.242 -0.46,0.23 -3.22,4.002 -3.22,4.002l-0.92 -0.736z" sodipodi:nodetypes="cscscscssssscc"/>
  <g id="_2637695396160">
   <path id="path22554" class="fil9" d="M53.1279 19.4978l2.3 -3.772c0,0 1.38,-0.736 1.38,-1.104 0,-0.506 0.46,-0.966 0.46,-0.966l-1.84 0.828 -1.38 2.208 -1.38 2.3 0.46 0.506zm0 0l0 0 0 0z" sodipodi:nodetypes="ccscccc"/>
   <path id="_1_4" class="fil7 str8" d="M53.1279 19.4978l2.3 -3.772c0,0 1.38,-0.736 1.38,-1.104 0,-0.506 0.46,-0.966 0.46,-0.966l-1.84 0.828 -1.38 2.208 -1.38 2.3m0.46 0.506l0 0 0 0z"/>
  </g>
  <ellipse id="path23669" class="fil9 str9" cx="55.45" cy="12.87" rx="0.3436" ry="0.6256"/>
  <ellipse id="path23671" class="fil9 str9" cx="56.37" cy="12.502" rx="0.2949" ry="0.552"/>
  <ellipse id="path23673" class="fil9 str9" cx="57.29" cy="12.226" rx="0.3317" ry="0.5658"/>
  <path id="path48015" class="fil21 str8" d="M59.13 2.29c-3.22,0.138 -5.06,6.21 0.92,6.21 3.68,0 3.68,-6.394 -0.92,-6.21z" sodipodi:nodetypes="sss"/>
  <path id="path48187" class="fil8 str8" d="M57.75 2.612c0,0 1.38,1.334 1.84,2.438 0.46,1.15 0,3.312 0,3.312 0,0 1.84,-2.024 1.84,-3.45 0,-1.518 -2.3,-2.622 -2.3,-2.622l-1.38 0.322z" sodipodi:nodetypes="cscscc"/>
  <path class="fil0 str0" d="M84.3244 81.8168c0.3371,0.0306 0.6845,-0.0613 1.3077,-0.2146 0.6233,-0.1532 1.5326,-0.5517 1.6654,-0.6743 0.1328,-0.1226 0.1635,-0.4801 0.1635,-0.4801 0,0 0.6181,0.1021 0.7918,-0.0307 0.1737,-0.1328 1.2515,-0.991 0.5977,-1.6347 -0.6539,-0.6437 -0.6743,0.1532 -0.9094,0.2043 -0.235,0.0511 0.0717,-1.2362 0.0409,-1.369 -0.0307,-0.1328 0.5415,-4.5467 0.0102,-5.2414 -0.5312,-0.6947 -2.6154,-2.6563 -3.5146,-2.6155 -0.899,0.0409 -2.4417,0.9908 -2.7481,0.9501 -0.3065,-0.0409 -1.042,1.1136 -1.1544,2.36 -0.1123,1.2465 0.0715,1.5838 -0.3065,2.5235 -0.3016,0.75 -0.5476,4.2816 1.4189,5.8764 0.687,0.5572 2.6369,0.346 2.6369,0.346z"/>
  <path class="fil1 str0" d="M88.5802 80.5954c0.0868,0.0256 2.0075,-0.8787 2.4571,-1.9412 0.4495,-1.0626 1.4506,-2.3295 1.328,-3.9643 -0.1226,-1.6346 -1.1034,-3.3919 -1.5938,-3.7597 -0.4905,-0.3679 0.7458,-0.6642 1.0932,-0.5722 0.3474,0.0919 0.7969,0.1941 0.7969,0.1941 0,0 -0.5108,-0.7101 -1.3077,-0.6641 -0.7969,0.046 -0.9502,0.1328 -1.1443,0.2452 -0.1941,0.1124 0.6895,-0.5184 0.7662,-1.1953 0.0767,-0.6769 -0.2656,-1.0217 -0.2656,-1.0217 0,0 -0.1022,0.5926 -0.2452,0.9809 -0.1431,0.3882 -0.6539,1.0421 -0.6539,1.0421 0,0 -0.0204,-1.3487 -0.2044,-1.7778 -0.1839,-0.4291 -0.4903,-0.5517 -0.4903,-0.5517 0,0 0.1906,0.4306 0.2518,0.7371 0.0614,0.3065 -0.0067,0.9997 -0.0067,0.9997l-1.0012 -1.6346c0,0 -0.0408,0.4036 0.0409,0.7305 0.0817,0.3269 -0.184,0.4138 -0.184,0.4138 0,0 -0.3882,-0.6948 -0.9195,-0.9195 -0.5313,-0.2248 -1.226,-0.2861 -1.7981,-0.2861 -0.5722,0 -0.4904,0.1634 -1.2669,0.1226 -0.7765,-0.0409 -1.1443,-0.3473 -1.7369,0.2452 -0.5926,0.5926 -0.6539,0.5926 -1.5121,0.9399 -0.8582,0.3474 -0.8173,0.7152 -1.0216,1.2874 -0.2045,0.5721 -0.184,0.9399 -0.184,1.3894 0,0.4496 0.7152,0.3372 1.1545,-0.2656 0.4393,-0.6027 -0.1328,1.4713 0.2963,1.4303 0.4291,-0.0408 1.4509,-1.2259 1.5734,-1.2259 0.1226,0 -0.8378,1.6142 -0.4291,1.7981 0.4087,0.184 1.6347,-1.3895 1.6347,-1.3895 0,0 -0.9808,1.3691 -0.5108,1.4712 0.4699,0.1023 2.309,-0.8991 2.2886,-0.6947 -0.0205,0.2044 -1.4509,1.3282 -1.2261,1.4508 0.2247,0.1226 2.2068,-0.3882 2.2068,-0.3882 0,0 -1.7777,1.0829 -1.6346,1.2464 0.143,0.1635 1.9003,-0.4495 2.0433,-0.2248 0.143,0.2248 -0.7765,1.226 -0.5925,1.3895 0.1838,0.1635 0.8581,0.4291 1.042,0.6743 0.184,0.2453 0.2322,1.9595 0.2322,1.9595 0,0 0.3298,-0.6005 0.7895,-0.3553 0.4598,0.2451 0.4803,0.8378 0.4087,1.0575 -0.0715,0.2196 -0.2657,0.4852 -0.2963,0.6588 -0.0306,0.1737 -0.1785,0.3679 -0.1785,0.3679z"/>
  <ellipse class="fil3 str0" cx="83.9871" cy="77.0092" rx="0.8378" ry="0.6948"/>
  <ellipse class="fil3 str0" cx="81.9765" cy="76.5982" rx="0.6824" ry="0.6255"/>
  <path class="fil2 str0" d="M82.5704 77.9973c-0.1226,0.1431 -0.1123,0.0818 -0.3167,0.3474 -0.2044,0.2656 -0.3168,0.2247 -0.0307,0.3576"/>
  <path class="fil4 str0" d="M83.7276 79.3417c-0.1839,0.1533 -0.6079,0.2554 -1.0063,0.2044 -0.3985,-0.0512 -0.9348,-0.3014 -1.0881,-0.5365 -0.1533,-0.235 0.6768,1.1061 0.8658,1.1546 0.1889,0.0485 0.304,0.0562 0.7535,-0.3117 0.4495,-0.3678 0.4751,-0.5108 0.4751,-0.5108z"/>
  <ellipse class="fil5 str0" cx="83.631" cy="77.1398" rx="0.3423" ry="0.2554"/>
  <ellipse class="fil5 str0" cx="81.8391" cy="76.7707" rx="0.3423" ry="0.2554"/>
  <path class="fil2 str0" d="M88.3278 79.0683c0.1278,-0.0051 0.1635,0.1532 0.1328,0.3167 -0.0306,0.1635 -0.0817,0.3832 -0.2298,0.4598 -0.1482,0.0766 -0.2452,0.143 -0.332,0.0562"/>
  <path class="fil2 str0" d="M84.8368 75.7298c-0.2247,-0.3474 -0.9603,-0.5926 -1.2055,-0.4291"/>
  <path class="fil2 str0" d="M82.4257 74.9329c-0.2452,-0.3065 -0.8582,-0.4087 -1.0422,-0.1022"/>
  <line class="fil2 str0" x1="84.5884" y1="76.5255" x2="84.8086" y2= "76.3229" />
  <line class="fil2 str0" x1="84.1854" y1="76.0982" x2="84.1483" y2= "76.3273" />
  <line class="fil2 str0" x1="84.5328" y1="76.1237" x2="84.3897" y2= "76.3433" />
  <line class="fil2 str0" x1="83.7256" y1="76.0573" x2="83.7832" y2= "76.3352" />
  <line class="fil2 str0" x1="83.2862" y1="76.1493" x2="83.4447" y2= "76.4149" />
  <line class="fil2 str0" x1="82.6017" y1="75.9144" x2="82.3923" y2= "76.1023" />
  <line class="fil2 str0" x1="82.1725" y1="75.7662" x2="82.0676" y2= "75.9782" />
  <line class="fil2 str0" x1="81.7026" y1="75.756" x2="81.7727" y2= "76.0011" />
  <line class="fil2 str0" x1="81.4011" y1="75.8377" x2="81.5732" y2= "76.0936" />
  <line class="fil2 str0" x1="81.2173" y1="76.1443" x2="81.3501" y2= "76.2464" />
  <path class="fil0 str0" d="M46.8682 19.62l0.2557 1.3587c0,0 1.3861,-0.5048 1.3501,-0.5923 -0.0361,-0.0875 -0.6815,-1.2791 -0.6815,-1.2791l-0.9243 0.5127z"/>
  <path class="fil0 str0" d="M46.6314 19.7356c-0.2752,0.1051 -0.5878,0.1099 -1.1458,0.1284 -0.558,0.0185 -1.4134,-0.1011 -1.5535,-0.1725 -0.1401,-0.0714 -0.25,-0.3636 -0.25,-0.3636 0,0 -0.4936,0.2311 -0.6704,0.1608 -0.1767,-0.0703 -1.2814,-0.5352 -0.8855,-1.2282 0.3959,-0.6931 0.6008,-0.0306 0.8096,-0.0431 0.2089,-0.0125 -0.3511,-1.0185 -0.3567,-1.1369 -0.0055,-0.1185 -1.5243,-3.6801 -1.2431,-4.3871 0.2814,-0.707 1.5648,-2.8407 2.3274,-3.0182 0.7625,-0.1776 2.2782,0.2547 2.5253,0.1483 0.2471,-0.1063 1.1349,0.6872 1.5226,1.7046 0.3877,1.0174 0.3131,1.3433 0.851,2.0412 0.4293,0.557 1.4671,3.4567 0.1959,5.2555 -0.4441,0.6285 -2.1268,0.9108 -2.1268,0.9108z"/>
  <path class="fil1 str0" d="M42.7262 19.7437c-0.0667,0.0418 -1.8882,-0.2631 -2.515,-1.0471 -0.6268,-0.784 -1.7635,-1.6092 -2.0459,-3.0071 -0.2823,-1.3979 0.1251,-3.1006 0.4492,-3.5241 0.3241,-0.4236 -0.781,-0.3806 -1.0503,-0.2217 -0.2693,0.1589 -0.6217,0.3503 -0.6217,0.3503 0,0 0.2606,-0.715 0.9388,-0.8642 0.6782,-0.1492 0.8271,-0.1126 1.0161,-0.0641 0.189,0.0483 -0.6996,-0.2718 -0.9232,-0.8207 -0.2237,-0.5488 -0.0183,-0.9182 -0.0183,-0.9182 0,0 0.2252,0.4722 0.4365,0.7637 0.2112,0.2914 0.793,0.7187 0.793,0.7187 0,0 -0.3005,-1.1342 -0.2475,-1.5369 0.0529,-0.4027 0.2807,-0.5776 0.2807,-0.5776 0,0 -0.0582,0.4055 -0.0373,0.6767 0.0208,0.271 0.241,0.8356 0.241,0.8356l0.4535 -1.6048c0,0 0.1293,0.3284 0.1378,0.6215 0.0086,0.293 0.2516,0.3032 0.2516,0.3032 0,0 0.1614,-0.6734 0.5534,-0.9867 0.392,-0.3133 0.9594,-0.5284 1.4386,-0.6631 0.4791,-0.1348 0.4491,0.0214 1.0898,-0.1958 0.6406,-0.217 0.8765,-0.5604 1.5124,-0.2037 0.6358,0.3567 0.6871,0.3423 1.4877,0.4311 0.8005,0.0887 0.8529,0.4063 1.1588,0.8374 0.3059,0.431 0.3755,0.7438 0.4813,1.1203 0.1059,0.3765 -0.5195,0.4508 -1.0294,0.0495 -0.5099,-0.4013 0.4577,1.2009 0.0887,1.2676 -0.3689,0.0669 -1.5038,-0.6849 -1.6065,-0.6561 -0.1026,0.0289 1.0819,1.1545 0.783,1.4049 -0.299,0.2502 -1.6963,-0.7786 -1.6963,-0.7786 0,0 1.1438,0.9155 0.7743,1.1117 -0.3695,0.1963 -2.1455,-0.2091 -2.0802,-0.0428 0.0652,0.1663 1.5278,0.7706 1.3685,0.9262 -0.1594,0.1557 -1.9396,0.1946 -1.9396,0.1946 0,0 1.7438,0.4883 1.6626,0.6589 -0.0813,0.1706 -1.6974,0.0711 -1.7642,0.2931 -0.0669,0.2219 0.939,0.8438 0.8235,1.0241 -0.1156,0.1802 -0.6176,0.5614 -0.7139,0.8101 -0.0963,0.2487 0.2671,1.6957 0.2671,1.6957 0,0 -0.4176,-0.4252 -0.7449,-0.1116 -0.3273,0.3136 -0.2049,0.8148 -0.0932,0.9819 0.1117,0.1671 0.3368,0.3438 0.4034,0.482 0.0666,0.1382 0.2361,0.2661 0.2361,0.2661z"/>
  <ellipse class="fil3 str10" transform="matrix(0.388064 -0.109142 0.109142 0.388064 45.7281 15.6584)" rx="1.808" ry="1.4993"/>
  <ellipse class="fil3 str11" transform="matrix(0.431993 -0.121498 0.121498 0.431993 47.3151 14.8406)" rx="1.3229" ry="1.2126"/>
  <path class="fil2 str0" d="M47.1473 16.1523c0.1363,0.0908 0.1134,0.042 0.347,0.2163 0.2337,0.1743 0.3183,0.1136 0.11,0.2922"/>
  <path class="fil4 str0" d="M46.4948 17.5507c0.1902,0.0851 0.5693,0.0708 0.8909,-0.0659 0.3217,-0.1366 0.7119,-0.4726 0.7849,-0.7055 0.073,-0.2329 -0.3063,1.0857 -0.4532,1.1708 -0.1468,0.0851 -0.2413,0.1187 -0.7044,-0.0835 -0.4631,-0.2021 -0.5182,-0.3159 -0.5182,-0.3159z"/>
  <ellipse class="fil5 str10" transform="matrix(0.388064 -0.109142 0.109142 0.388064 45.9565 15.3816)" rx="0.7386" ry="0.5512"/>
  <ellipse class="fil5 str10" transform="matrix(0.388064 -0.109142 0.109142 0.388064 47.4435 14.6794)" rx="0.7386" ry="0.5512"/>
  <path class="fil2 str0" d="M42.5779 18.4052c-0.1083,0.0259 -0.1009,0.1669 -0.0367,0.2966 0.0642,0.1296 0.1587,0.3016 0.3008,0.3309 0.1421,0.0293 0.2391,0.062 0.2913,-0.0311"/>
  <path class="fil2 str0" d="M44.7151 14.7871c0.1064,-0.3438 0.6648,-0.7225 0.9086,-0.6433"/>
  <path class="fil2 str0" d="M46.5467 13.5518c0.1331,-0.3144 0.6224,-0.5444 0.8486,-0.331"/>
  <line class="fil2 str0" x1="45.1106" y1="15.395" x2="44.8785" y2= "15.2771" />
  <line class="fil2 str0" x1="45.3475" y1="14.9422" x2="45.4325" y2= "15.1253" />
  <line class="fil2 str0" x1="45.0625" y1="15.0454" x2="45.2341" y2= "15.1957" />
  <line class="fil2 str0" x1="45.7229" y1="14.7997" x2="45.7401" y2= "15.0459" />
  <line class="fil2 str0" x1="46.1125" y1="14.7731" x2="46.0424" y2= "15.0329" />
  <line class="fil2 str0" x1="46.6305" y1="14.4152" x2="46.85" y2= "14.5233" />
  <line class="fil2 str0" x1="46.955" y1="14.19" x2="47.0928" y2= "14.3429" />
  <line class="fil2 str0" x1="47.3461" y1="14.0708" x2="47.3451" y2= "14.2926" />
  <line class="fil2 str0" x1="47.6178" y1="14.0682" x2="47.534" y2= "14.323" />
  <line class="fil2 str0" x1="47.844" y1="14.2817" x2="47.7568" y2= "14.3985" />
 </g>
</svg>
