<?xml version="1.0" encoding="UTF-8"?>
<!DOCTYPE svg PUBLIC "-//W3C//DTD SVG 1.1//EN" "http://www.w3.org/Graphics/SVG/1.1/DTD/svg11.dtd">
<!-- Creator: CorelDRAW 2019 (64-Bit) -->
<svg xmlns="http://www.w3.org/2000/svg" xml:space="preserve" width="100mm" height="100mm" version="1.1" style="shape-rendering:geometricPrecision; text-rendering:geometricPrecision; image-rendering:optimizeQuality; fill-rule:evenodd; clip-rule:evenodd"
viewBox="0 0 100 100"
 xmlns:xlink="http://www.w3.org/1999/xlink"
 xmlns:xodm="http://www.corel.com/coreldraw/odm/2003">
 <defs>
  <style type="text/css">
   <![CDATA[
    .str6 {stroke:#2B2A29;stroke-width:0.0553;stroke-miterlimit:22.9256}
    .str2 {stroke:#00A7EB;stroke-width:0.0589;stroke-miterlimit:22.9256}
    .str0 {stroke:#2B2A29;stroke-width:0.0589;stroke-miterlimit:22.9256}
    .str7 {stroke:#885B60;stroke-width:0.0589;stroke-miterlimit:22.9256}
    .str5 {stroke:#2B2A29;stroke-width:0.0353;stroke-miterlimit:22.9256}
    .str1 {stroke:#2B2A29;stroke-width:0.2;stroke-miterlimit:22.9256}
    .str4 {stroke:#519D99;stroke-width:0.2;stroke-miterlimit:22.9256}
    .str3 {stroke:#C8FFFF;stroke-width:0.2;stroke-miterlimit:22.9256}
    .fil8 {fill:none}
    .fil13 {fill:#0071BD}
    .fil22 {fill:#008DD2}
    .fil4 {fill:#0090D6}
    .fil15 {fill:#00A0E3}
    .fil11 {fill:#00A7EB}
    .fil16 {fill:#020202}
    .fil20 {fill:#102866}
    .fil6 {fill:#23479D}
    .fil9 {fill:#2B2A29}
    .fil12 {fill:#2E3293}
    .fil21 {fill:#519D99}
    .fil31 {fill:#686FA3}
    .fil34 {fill:#885B60}
    .fil0 {fill:#898778}
    .fil27 {fill:#8D4F00}
    .fil32 {fill:#966967}
    .fil19 {fill:#A2D9F7}
    .fil23 {fill:#A75F4A}
    .fil14 {fill:#C8FFFF}
    .fil29 {fill:#E7E427}
    .fil10 {fill:#EE2422}
    .fil1 {fill:#F08143}
    .fil25 {fill:#F3D4B8}
    .fil33 {fill:#F5C7C9}
    .fil17 {fill:#F7AA47}
    .fil30 {fill:#F7ECC8}
    .fil18 {fill:#F9F9FB}
    .fil2 {fill:#FBD3D3}
    .fil7 {fill:#FEFEFE}
    .fil26 {fill:#FF2000}
    .fil3 {fill:#FFCB05}
    .fil24 {fill:#FFFBDB}
    .fil28 {fill:#FFFDFF}
    .fil5 {fill:white}
   ]]>
  </style>
 </defs>
 <g id="Layer_x0020_1">
  <metadata id="CorelCorpID_0Corel-Layer"/>
  <polygon class="fil0 str0" points="42.8499,19.1465 43.0571,25.0233 44.4627,25.1556 44.1651,18.5079 "/>
  <path class="fil1 str1" d="M46.6155 1.69l0.8405 22.6928c0,0 -1.4568,0.5043 -1.3447,0 0.112,-0.5043 0.5042,-22.6928 0.5042,-22.6928z"/>
  <g id="_2564922202800">
   <path class="fil2 str0" d="M36.5383 15.7733c-0.4782,0.1912 -1.3007,0.3251 -1.7023,0.0191 -0.4017,-0.306 -0.4352,-0.2056 -0.5643,-0.1961 -0.1291,0.0096 -0.5643,-0.2008 -0.4878,-0.5355 0.0765,-0.3348 0.6025,-0.1674 0.6982,-0.2057 0.0956,-0.0382 -0.9612,-1.0615 -0.5786,-1.5971 0.3825,-0.5356 0.5356,-1.4728 1.358,-1.5111 0.8225,-0.0382 1.3103,0.1817 1.425,0.4782 0.1148,0.2965 0.1052,0.9373 0.1531,1.1955 0.0478,0.2582 0.3538,0.6216 0.4399,0.8703 0.0861,0.2486 0.2869,0.8416 -0.7412,1.4824z"/>
   <path class="fil3 str0" d="M34.1459 15.5699c-0.2615,-0.0166 -1.1031,-0.6191 -1.2466,-1.3364 -0.1434,-0.7173 0.0957,-1.9032 0.4591,-2.3049 0.3634,-0.4017 1.5206,-0.8703 1.7597,-0.9277 0.2391,-0.0574 0.4973,-0.2582 0.3921,-0.4303 -0.1052,-0.1722 0.3348,0.0287 0.3443,0.2773 0.0096,0.2487 0.3539,-0.306 0.2774,-0.5643 -0.0765,-0.2582 0.0669,0.7843 0.0669,0.7843 0,0 0.4208,-0.3443 0.3922,-0.593 -0.0287,-0.2486 -0.0192,0.7747 -0.0192,0.7747 0,0 0.2295,-0.0096 0.4208,-0.067 0.1913,-0.0573 -0.1147,0.3539 -0.2008,0.4591 -0.0861,0.1052 -0.2965,0.4782 -0.4304,0.5547 -0.1339,0.0765 -0.8799,0.153 -0.8799,0.153l0.5452 0.1339 -1.1572 0.0096 0.3251 0.306 -0.7555 0.153 0.22 0.6504 -0.2774 -0.1052c0,0 -0.0765,0.3634 -0.0669,0.5643 0.0095,0.2008 -0.0861,0.2677 -0.0861,0.2677 0,0 0.1995,0.2713 0.1967,0.4017 -0.0027,0.1304 -0.4896,-0.0147 -0.6426,0.234 -0.153,0.2486 0.3631,0.6051 0.3631,0.6051z"/>
   <polygon class="fil4 str0" points="32.775,13.3813 34.9651,10.8373 34.4391,10.3591 32.2299,12.9126 "/>
   <polygon class="fil5 str0" points="32.2299,12.9126 31.2448,12.9892 34.5443,9.0202 34.4391,10.3591 "/>
   <path class="fil6 str0" d="M32.6743 13.2947c0,0 -0.6835,-0.1334 -1.0278,0.1822 -0.3443,0.3156 -0.5069,1.119 -0.6981,1.3581 -0.1913,0.2391 -0.813,0.6407 -0.813,0.6407l0.5547 0.1531 -0.4016 0.4399c0,0 0.7842,-0.1339 0.9468,-0.4112 0.1625,-0.2774 0.2964,-1.3772 0.4782,-1.645 0.1817,-0.2678 0.9608,-0.7178 0.9608,-0.7178z"/>
   <path class="fil6 str0" d="M32.775 13.3813c0,0 -0.679,0.373 -0.7555,0.7555 -0.0765,0.3826 -0.0478,0.7747 0.0574,1.052 0.1052,0.2774 0.2965,0.4687 0.2391,0.7556 -0.0574,0.2869 -0.6025,1.0233 -0.6695,1.0711 -0.0669,0.0478 0.0287,-0.5642 0.0287,-0.5642l-0.6599 -0.1339c0,0 0.7364,-0.0861 0.7651,-0.3826 0.0287,-0.2965 -0.0547,-0.6907 -0.2391,-0.9468 -0.1843,-0.2561 -0.1434,-0.8034 0.0574,-1.0233 0.2009,-0.22 1.1763,-0.5834 1.1763,-0.5834z"/>
   <path class="fil7 str0" d="M35.4171 14.4955c-0.0908,-0.0382 -0.3156,-0.5356 -0.1052,-0.6695 0.2105,-0.1338 0.5739,0.4256 0.5547,0.4687 -0.0191,0.043 -0.4495,0.2008 -0.4495,0.2008z"/>
   <path class="fil7 str0" d="M36.254 14.1464c0,0 0.2725,-0.086 0.3443,-0.153 0.0717,-0.0669 -0.1961,-0.6503 -0.3826,-0.5595 -0.1865,0.0909 -0.3443,0.2917 0.0383,0.7125z"/>
   <path class="fil8 str0" d="M36.1249 14.2182c0.0526,0.0621 0.1793,0.0574 0.2725,0.1267 0.0933,0.0693 0.1291,0.1363 -0.0047,0.1889 -0.1339,0.0526 -0.2391,0.0526 -0.2391,0.0526"/>
   <ellipse class="fil9 str0" cx="35.4818" cy="14.3162" rx="0.1243" ry="0.1195"/>
   <ellipse class="fil9 str0" cx="36.2839" cy="13.9684" rx="0.104" ry="0.1375"/>
   <path class="fil10 str0" d="M35.8214 14.9977c0.0908,0.0526 0.3108,0.1578 0.4686,0.0669 0.1578,-0.0908 0.2534,-0.22 0.2534,-0.22 0,0 -0.086,0.2726 -0.2678,0.33 -0.1817,0.0574 -0.4542,-0.1769 -0.4542,-0.1769z"/>
   <path class="fil8 str0" d="M34.3857 15.1173c-0.067,-0.0335 -0.2726,-0.0526 -0.2917,-0.0096 -0.0191,0.0431 0.0287,0.2535 0.1243,0.2965"/>
   <path class="fil2 str0" d="M38.523 16.8982c0,0 0.2335,-0.0534 0.2909,-0.1275 0.0574,-0.0742 0.0574,-0.1507 0.153,-0.1315 0.0957,0.0191 0.1005,0.0932 0.1052,0.1649 0.0048,0.0718 -0.1434,0.1937 -0.1601,0.2033 -0.0168,0.0095 0.4232,0.1099 0.4016,0.2199 -0.0215,0.11 -0.373,0.0455 -0.373,0.0455 0,0 0.3635,0.0741 0.33,0.2008 -0.0335,0.1267 -0.3921,0.0024 -0.3921,0.0024 0,0 0.33,0.0945 0.3001,0.1973 -0.0299,0.1028 -0.3264,-0.012 -0.3264,-0.012 0,0 0.263,0.067 0.2296,0.1363 -0.0335,0.0693 -0.3348,0.0215 -0.3563,0.0215 -0.0215,0 -0.3371,-0.0191 -0.4232,-0.0837 -0.0861,-0.0645 0.1219,-0.832 0.1219,-0.832l0.0988 -0.0052z"/>
   <path class="fil2 str0" d="M33.3387 17.9602c0,0 -0.141,0.1817 -0.2056,0.3419 -0.0646,0.1602 -0.0741,0.33 -0.0407,0.3945 0.0335,0.0646 0.1578,-0.2319 0.1578,-0.2319 0,0 -0.1291,0.275 -0.0717,0.3323 0.0574,0.0574 0.1793,-0.2247 0.1793,-0.2247 0,0 -0.1171,0.2797 -0.0358,0.3371 0.0813,0.0574 0.263,-0.3036 0.263,-0.3036 0,0 -0.11,0.3443 -0.0454,0.3849 0.0645,0.0406 0.2797,-0.3036 0.318,-0.3252 0.0382,-0.0215 0.1912,0.1961 0.2653,0.1339 0.0742,-0.0621 0.0001,-0.1626 -0.0167,-0.2415 -0.0167,-0.0789 -0.0311,-0.459 -0.0311,-0.459l-0.7364 -0.1387z"/>
   <path class="fil5 str0" d="M34.9214 16.2315c0,0 -0.4161,0.3061 -0.7651,0.6169 -0.3491,0.3108 -0.7986,0.9755 -0.8082,1.052 -0.0096,0.0765 0.0622,0.1387 0.2582,0.2056 0.1961,0.067 0.5739,0.1817 0.6121,0.1435 0.0383,-0.0383 0.3204,-0.3969 0.416,-0.5356 0.0957,-0.1387 0.6265,-0.6551 0.6265,-0.6551 0,0 0.086,-0.2056 -0.0335,-0.4352 -0.1195,-0.2295 -0.306,-0.3921 -0.306,-0.3921z"/>
   <path class="fil5 str0" d="M36.5424 16.0833c0,0 0.6265,0.2726 0.9612,0.4112 0.3347,0.1387 0.9659,0.2917 0.9659,0.2917 0,0 0.11,0.0574 0.0192,0.3395 -0.0909,0.2822 -0.263,0.6552 -0.2965,0.6504 -0.0335,-0.0048 -0.4973,-0.1769 -0.6838,-0.2104 -0.1865,-0.0335 -0.593,-0.263 -0.593,-0.263l-0.373 -1.2194z"/>
   <path class="fil5 str0" d="M35.2774 15.9576l-0.356 0.2739 -0.0335 1.2385c0,0 -0.0502,0.532 -0.0646,0.6145 -0.0143,0.0825 -0.1637,1.0425 -0.1637,1.0425 0,0 0.7842,0.2104 1.3867,0.1817 0.6026,-0.0287 1.2433,-0.2296 1.2433,-0.2296 0,0 -0.1367,-1.0728 -0.3155,-1.621 -0.1788,-0.5483 -0.4317,-1.3748 -0.4317,-1.3748 0,0 -0.6897,-0.2224 -0.8164,-0.2104 -0.1267,0.0119 -0.4486,0.0847 -0.4486,0.0847z"/>
   <path class="fil11 str0" d="M34.6985 16.401c0,0 0.2085,0.1273 0.3017,0.3162 0.0933,0.1889 0.1148,0.4375 0.1148,0.4375l-0.165 0.1411c0,0 0.0502,-0.208 -0.1626,-0.4112 -0.2127,-0.2033 -0.3132,-0.287 -0.3132,-0.287l0.2243 -0.1966z"/>
   <path class="fil12 str0" d="M36.5198 22.7967c0,0 -0.1803,0.1128 -0.1851,0.3711 -0.0048,0.2582 0.0144,0.6694 0.0144,0.6694 0,0 0.6168,0.0144 0.7937,-0.0191 0.177,-0.0335 0.6265,0.0622 0.8369,0.0622 0.2104,0 0.4495,-0.0096 0.6408,-0.11 0.1912,-0.1004 0.1434,-0.3682 0.1434,-0.3682 0,0 -0.043,-0.2248 -0.1674,-0.3826 -0.1243,-0.1578 -0.4925,-0.4112 -0.6073,-0.4208 -0.1147,-0.0095 -0.7651,-0.1769 -0.7651,-0.1769l-0.636 0.1769 -0.0683 0.198z"/>
   <path class="fil12 str0" d="M35.4979 22.6035c0,0 0.0717,-0.1148 0.1674,0.2056 0.0956,0.3204 0.0478,0.6934 0.0717,0.7938 0.0239,0.1004 0.0765,0.1817 0.0143,0.2057 -0.0621,0.0239 -0.0191,0.1099 -0.2104,0.1004 -0.1912,-0.0096 -0.4351,-0.0909 -0.6168,-0.0909 -0.1817,0 -0.4495,0.2391 -0.9994,0.0813 -0.55,-0.1578 -0.7173,-0.2104 -0.8034,-0.3156 -0.0861,-0.1052 0.0096,-0.2104 0.0574,-0.2725 0.0478,-0.0622 0.1052,-0.2391 0.2869,-0.3778 0.1817,-0.1387 0.3969,-0.1913 0.6312,-0.2104 0.2343,-0.0192 0.6121,-0.2869 0.6456,-0.2965 0.0334,-0.0096 0.5786,-0.043 0.5786,-0.043l0.1769 0.2199z"/>
   <path class="fil13 str0" d="M34.7014 19.1377c0,0 -0.1551,1.29 -0.4421,1.6726 -0.2869,0.3826 -0.7459,1.8171 -0.7459,1.8171 0,0 0.8607,-0.1052 1.1285,0.0478 0.2678,0.1531 1.2146,0.0861 1.2146,0.0861l0.1339 -3.1082 0.153 3.0986c0,0 0.6312,0.1052 1.052,0.0383 0.4208,-0.0669 1.2433,-0.0956 1.2433,-0.0956 0,0 -0.4399,-0.8608 -0.7173,-1.7885 -0.2773,-0.9277 -0.4318,-1.8268 -0.4318,-1.8268 0,0 -0.8048,0.1912 -1.2433,0.2296 -0.4385,0.0383 -1.3449,-0.171 -1.3449,-0.171z"/>
   <path class="fil11 str0" d="M38.2564 16.7661c0,0 0.0287,0.2307 -0.0251,0.4184 -0.0538,0.1877 -0.2282,0.5293 -0.2282,0.5293l-0.2335 -0.0771c0,0 0.2023,-0.4414 0.2214,-0.6183 0.0191,-0.177 0.0178,-0.3553 0.0178,-0.3553l0.2476 0.103z"/>
   <path class="fil11 str0" d="M37.4195 16.4852c0,0 0.0814,0.0885 0.0359,0.3156 -0.0454,0.2271 -0.1913,0.6503 -0.1913,0.6503 0,0 0.2135,0.1454 0.2443,0.1146 0.0307,-0.0309 0.2292,-0.6286 0.2315,-0.7458 0.0024,-0.1171 -0.0085,-0.2422 -0.0085,-0.2422l-0.3119 -0.0925z"/>
   <path class="fil11 str0" d="M37.092 16.3442c0,0 0.0718,0.1004 0.0455,0.2199 -0.0263,0.1196 -0.1555,0.734 -0.1555,0.734l-0.0851 -0.0792 -0.0966 -0.4085c0,0 0.0957,-0.3324 0.0574,-0.428 -0.0382,-0.0956 -0.043,-0.1674 -0.043,-0.1674l0.2773 0.1292z"/>
   <path class="fil4 str2" d="M35.1567 16.0505c0,0 0.2928,0.2004 0.5749,0.1717 0.2821,-0.0287 0.5452,-0.263 0.5452,-0.263l0.2845 0.1858c0,0 -0.0789,0.2685 -0.6432,0.3354 -0.5643,0.067 -0.9635,-0.2177 -0.9635,-0.2177l0.2021 -0.2122z"/>
   <path class="fil11 str0" d="M36.6603 16.54c0,0 -0.5828,0.2871 -1.1357,0.2369 -0.5528,-0.0501 -0.5475,-0.0338 -0.5475,-0.0338l-0.0149 0.3157c0,0 0.4939,0.1294 0.991,0.0624 0.497,-0.0669 0.8409,-0.2153 0.8409,-0.2153l-0.1338 -0.3659z"/>
   <path class="fil11 str0" d="M36.8779 17.1592c0,0 -0.264,0.2442 -0.7948,0.249 -0.5307,0.0047 -1.1914,-0.077 -1.1914,-0.077l-0.0236 0.3433c0,0 0.799,0.164 1.2772,0.0923 0.4782,-0.0717 0.8545,-0.2252 0.8545,-0.2252l-0.1219 -0.3824z"/>
   <path class="fil11 str0" d="M34.8399 17.9496c0,0 0.5116,0.1854 1.1811,0.1471 0.6695,-0.0382 1.0698,-0.1909 1.0698,-0.1909l0.0325 0.277c0,0 -0.3897,0.2009 -1.0831,0.22 -0.6934,0.0191 -1.2366,-0.1961 -1.2366,-0.1961l0.0363 -0.2571z"/>
   <path class="fil11 str0" d="M37.1759 18.4578l0.0431 0.2821c0,0 -0.3658,0.2606 -1.1787,0.2893 -0.813,0.0287 -1.333,-0.208 -1.333,-0.208l0.0539 -0.3452c0,0 0.6096,0.2615 1.303,0.2041 0.6933,-0.0573 1.1117,-0.2223 1.1117,-0.2223z"/>
   <path class="fil11 str0" d="M34.2213 16.7912c0,0 0.1669,0.0647 0.351,0.2631 0.1841,0.1985 0.2558,0.4041 0.2558,0.4041l-0.1889 0.2032c0,0 -0.0789,-0.2008 -0.2726,-0.3538 -0.1936,-0.1531 -0.3844,-0.2859 -0.3844,-0.2859l0.2391 -0.2307z"/>
   <path class="fil11 str0" d="M33.7605 17.2839c0,0 0.2906,0.1267 0.4173,0.2486 0.1267,0.1219 0.3012,0.3467 0.3012,0.3467 0,0 -0.1506,0.2271 -0.1697,0.22 -0.0191,-0.0072 -0.0574,-0.1339 -0.373,-0.2989 -0.3156,-0.165 -0.4048,-0.207 -0.4048,-0.207l0.229 -0.3094z"/>
  </g>
  <path class="fil1 str1" d="M25.9157 23.8234c0,0 0.3044,1.9905 1.537,2.9386 1.2327,0.9481 4.9308,3.9346 8.0686,4.0926 3.1378,0.158 11.9908,0.6795 15.5768,-0.0158 3.586,-0.6952 5.6591,-4.1717 6.2755,-4.9301 0.6164,-0.7583 0.7843,-1.833 0.7843,-1.833l-32.2422 -0.2523z"/>
  <path class="fil14 str3" d="M0.0461 25.1057c3.9687,1.3229 6.3499,-0.5292 12.1708,4.4979 5.8209,5.0271 8.8627,4.2962 15.3459,2.6458 6.4832,-1.6504 6.899,-3.7459 15.7526,-1.0792 8.8536,2.6667 9.9121,2.9312 18.1141,-1.0375 8.202,-3.9687 8.9957,-8.4666 16.1395,-4.2333 7.1438,4.2333 10.0543,6.0855 14.023,3.7042 3.9687,-2.3813 8.2021,-2.1167 8.2021,-2.1167l0.3969 72.6723 -100.4095 0.6173 0.2646 -75.6708z"/>
  <g id="_2565053062864">
   <path class="fil15 str1" d="M82.864 89.9184c0,0 -0.1905,1.6605 -1.3611,2.3411 -1.1705,0.6805 -11.0247,0.8439 -11.0247,0.8439 -1.7347,-3.8575 -1.6428,-12.8135 3.0488,-13.9376 2.6133,-0.626 5.1993,-0.7349 6.1793,-0.6533 0.98,0.0817 3.3483,0.8439 4.3555,1.6605 1.0072,0.8167 2.6405,3.3483 3.5116,4.41 0.8711,1.0616 2.341,2.0416 3.6749,1.9599 1.3339,-0.0816 2.5044,-1.0344 2.6677,-1.9599 0.1633,-0.9256 -0.2994,-2.3683 -0.5172,-2.45 -0.2178,-0.0817 -0.3539,0.6533 -1.3339,0.7894 -0.9799,0.1361 -2.3682,-0.9799 -2.4499,-1.5788 -0.0817,-0.5989 0.98,-1.3611 2.0144,-1.5789 1.0344,-0.2178 2.2866,0.4083 2.2866,0.4083 0.2005,-1.0693 1.422,-1.1256 2.1505,-1.2249 0.5989,-0.0817 0.98,-0.4356 1.225,-0.4356 0.245,0 -0.1905,1.1161 -0.8983,1.9328 -0.7078,0.8166 -1.9872,1.5788 -1.9872,1.5788 0,0 1.0072,1.6333 1.0889,2.7222 0.3276,4.3689 -1.325,8.3973 -5.8527,9.6909 -0.7622,0.2178 -6.1521,2.9672 -7.3498,3.2122 -1.1978,0.245 -6.3699,0.3811 -7.9215,-0.2178 -1.5517,-0.5989 -2.5589,-0.6261 -3.3211,-2.3683 -0.7622,-1.7422 -0.0272,-0.7078 -0.0272,-0.7078 2.4291,-0.1162 8.3464,0.3166 9.9223,-0.7077 0.8167,-0.5308 1.225,-0.5172 1.6061,-1.1978 0.3811,-0.6805 0.5989,-1.5108 0.5989,-1.8238 0,-0.3131 -0.2859,-0.7078 -0.2859,-0.7078z"/>
   <ellipse class="fil7 str1" cx="83.633" cy="88.0382" rx="0.9868" ry="0.8458"/>
   <ellipse class="fil16 str1" cx="83.7176" cy="88.01" rx="0.2819" ry="0.2396"/>
   <path class="fil8 str1" d="M82.9 86.6144c0.4088,-0.6344 1.0573,-0.4934 1.3533,-0.0705"/>
   <path class="fil15 str1" d="M86.1374 94.1173c0,0 1.157,3.253 2.1778,2.8175 1.0208,-0.4356 0.0952,-2.8447 0.0952,-2.8447l-2.273 0.0272z"/>
  </g>
  <path class="fil1 str0" d="M14.1943 91.7634c0,0 0.6259,-0.2686 0.496,-0.5372 -0.13,-0.2686 -0.9444,-1.1263 -2.3826,-1.1177 -1.4382,0.0087 -2.5819,0.208 -2.9371,0.1213 -0.3552,-0.0866 -0.208,-0.0086 -0.2513,0.13 -0.0433,0.1386 -0.8837,0.0606 -0.9357,0.2079 -0.052,0.1473 0.5285,0.182 0.4332,0.3639 -0.0953,0.182 -0.5978,0.2513 -0.6411,0.4072 -0.0433,0.156 0.4938,0.156 0.3985,0.3726 -0.0953,0.2166 -0.0173,0.3379 -0.1039,0.4852 -0.0867,0.1473 -0.0607,0.3898 0.4245,0.1559 0.4852,-0.2339 2.3046,-0.3552 2.8504,-0.4332 0.5459,-0.078 2.6491,-0.1559 2.6491,-0.1559z"/>
  <path class="fil17 str0" d="M15.1793 93.7565c0.3874,0.0232 0.7338,0.2244 1.025,-0.373 -0.1955,-0.1799 -0.5718,-0.0346 -0.8664,-0.2685 -0.2946,-0.234 -0.9877,-1.213 -1.1436,-1.3516 -0.156,-0.1386 -3.1884,-0.4939 -4.332,-0.1127 -1.1437,0.3813 -2.1054,0.9877 -2.5646,1.1957 -0.4592,0.2079 -0.9704,0.2079 -1.0483,0.2079 -0.078,0 -0.2686,0.5112 -0.2686,0.7105 0,0.1992 -0.1386,1.0916 0.0953,0.979 0.2339,-0.1126 0.9444,-0.1386 1.3516,0.0346 0.4072,0.1733 1.5075,0.8145 1.932,0.8924 0.4246,0.078 3.0844,0.26 3.6043,0.052 0.5198,-0.2079 1.1696,-0.3119 1.4642,-0.5025 0.2946,-0.1906 0.8577,-0.6238 1.0223,-0.6238 0.1646,0 0.5844,-0.3365 0.5844,-0.3365 -0.0112,-0.0072 -0.2851,0.0829 -0.5656,-0.0876 -0.2633,-0.1599 -0.3054,-0.3442 -0.29,-0.4159z"/>
  <ellipse class="fil18 str0" cx="14.5495" cy="93.3241" rx="0.3443" ry="0.3327"/>
  <path class="fil8 str0" d="M14.2073 93.1388c-0.0053,-0.0004 -0.0437,-0.0703 -0.0825,-0.0923 -0.0239,-0.0135 -0.0579,-0.0485 -0.0888,-0.0601l0.0066 0.0008"/>
  <path class="fil8 str0" d="M14.3242 92.9958c0,-0.0676 -0.064,-0.112 -0.111,-0.1543 -0.0071,-0.0064 -0.0098,-0.0084 -0.0189,-0.0103"/>
  <path class="fil8 str0" d="M14.4888 92.9482c0.0047,-0.0521 0.0206,-0.0216 -0.0133,-0.089 -0.0309,-0.0614 -0.0699,-0.0899 -0.0755,-0.1016"/>
  <path class="fil8 str0" d="M14.6231 92.9308c0.0336,-0.1189 0.0476,-0.103 -0.0274,-0.2079 -0.0028,-0.004 -0.011,-0.0165 -0.0159,-0.0173"/>
  <path class="fil8 str0" d="M14.7596 92.9677c0.0413,-0.0656 0.0905,-0.1339 0.0281,-0.195 -0.0064,-0.0063 -0.0224,-0.0309 -0.0281,-0.0325"/>
  <path class="fil8 str0" d="M14.8484 93.0326c0.0311,-0.0387 0.0888,-0.1405 0.0888,-0.1927"/>
  <ellipse class="fil19 str0" cx="14.4882" cy="93.2621" rx="0.2101" ry="0.1722"/>
  <ellipse class="fil20 str0" cx="14.432" cy="93.2254" rx="0.0849" ry="0.0975"/>
  <path class="fil1 str0" d="M6.2494 93.0543c0,0 -0.5935,-0.6823 -1.5725,-0.7689 -0.9791,-0.0867 -1.4902,0.0953 -1.7328,1.2043 -0.2426,1.109 0.9877,1.6115 1.1263,2.1313 0.1386,0.5198 -1.3343,1.6288 -1.213,1.8368 0.1213,0.2079 1.5769,-0.6758 1.7155,-0.6065 0.1386,0.0693 -0.6931,1.2476 -0.5718,1.4729 0.1213,0.2252 2.4952,-0.5199 2.7378,-1.4902 0.2426,-0.9704 -0.7703,-2.1484 -0.7703,-2.1484l0.2808 -1.6313z"/>
  <path class="fil1 str0" d="M13.782 95.4647c0,0 0.1524,0.5289 -0.5494,0.9577 -0.7018,0.4289 -1.226,0.3942 -1.3559,0.3206 -0.13,-0.0737 0.3032,-0.3076 0.3205,-0.3336 0.0173,-0.026 -0.4245,-0.3032 -0.4245,-0.2209 0,0.0823 1.122,-0.5935 1.122,-0.5935l0.8873 -0.1303z"/>
  <path class="fil21 str1" d="M51.386 97.5263c0,0 -0.3005,-1.5385 -0.5342,-2.1206 -0.2337,-0.5821 -0.868,-0.8108 -0.5342,-1.289 0.3339,-0.4782 0.4006,-1.4137 1.0016,-1.3306 0.6009,0.0832 0.1669,0.8628 0.2921,1.1539 0.1252,0.2911 0.5008,0.4782 0.6594,0.92 0.1585,0.4417 -0.167,0.8212 -0.0334,1.1538 0.1335,0.3327 0.3422,1.5437 0.3338,1.6009 -0.0083,0.0571 -1.1851,-0.0884 -1.1851,-0.0884z"/>
  <path class="fil21 str1" d="M54.3573 97.8849c0,0 -1.06,-2.6923 -1.2186,-3.0405 -0.1586,-0.3483 0.6927,-1.419 0.626,-1.8867 -0.0668,-0.4678 -0.2504,-1.8504 -0.0918,-2.0635 0.1585,-0.2131 0.242,-0.5717 0.4423,-0.5717 0.2003,0 1.0767,0.8576 1.2186,1.2214 0.1419,0.3638 -0.4507,1.9231 -0.5258,2.3233 -0.0751,0.4002 0.3922,2.0946 0.3922,2.0946 0,0 0.7095,-1.5852 1.1852,-1.9439 0.4758,-0.3586 0.4424,-0.9303 0.6677,-1.0655 0.2254,-0.1351 0.6677,0.5718 0.7011,0.7745 0.0334,0.2027 -1.1601,1.4605 -1.1935,1.8867 -0.0334,0.4262 -0.8179,2.2973 -0.8179,2.2973l-1.3855 -0.026z"/>
  <path class="fil21 str4" d="M58.4804 98.0148c0,0 0.4173,-2.6923 0.8179,-3.2744 0.4006,-0.5821 0.7679,-1.7776 0.9515,-2.1726 0.1836,-0.395 -0.1169,-1.5696 0,-1.7048 0.1168,-0.1351 1.4022,0.5718 1.4856,0.8212 0.0835,0.2495 -0.7678,2.4949 -0.868,2.8171 -0.1001,0.3222 -1.085,3.5915 -1.085,3.5915l-1.302 -0.078z"/>
  <path class="fil8 str5" d="M12.5988 92.434c-0.3177,0.0994 -0.642,0.1038 -0.3336,0.6586 0.2156,0.3879 -0.1219,0.015 -0.2754,0.3653 -0.1428,0.3256 0.5205,0.5551 0.1875,0.5471 -0.1059,-0.0026 -0.2888,0.1567 -0.0912,0.3969 0.4653,0.5653 0.0179,0.0873 -0.2149,0.6945 -0.0334,0.0871 0.0338,0.2291 0.1157,0.248"/>
  <path class="fil8 str5" d="M11.2593 92.2852c-1.2355,0.3611 0.4319,0.6073 -0.4932,0.9289 -0.0622,0.2672 0.3623,0.5793 0.1294,0.591 -0.0447,0.0022 -0.4414,0.1589 -0.0963,0.4399 0.2585,0.2106 0.1633,0.1569 -0.0856,0.2698 -0.3232,0.1465 0.5788,0.8032 0.1158,0.4989"/>
  <path class="fil8 str5" d="M9.986 92.3679c-0.3908,0 -0.616,0.3728 -0.1654,0.6699 0.2913,0.1921 -0.7024,0.0229 0,0.6695 -0.0197,0.1726 -0.5619,0.0346 -0.069,0.5953 0.1636,0.1861 -0.4359,0.2254 -0.0798,0.4465"/>
  <path class="fil8 str5" d="M8.4647 93.0624c-0.2131,-0.0662 -0.4695,0.1371 -0.0303,0.4092 0.0581,0.036 -0.4458,0.0323 -0.0992,0.266 0.1522,0.1026 -0.4351,0.0342 -0.0359,0.5816"/>
  <path class="fil22 str1" d="M47.2878 4.8279c0,0 4.3705,2.1291 4.4825,6.0513 0.1121,3.9222 -2.4654,7.9566 -3.8102,8.9651 -1.3447,1.0086 1.1207,-6.1634 0.5604,-8.1806 -0.5604,-2.0172 -1.2327,-6.8358 -1.2327,-6.8358z"/>
  <g id="_2565021125088">
   <ellipse class="fil23 str6" cx="42.6001" cy="19.2046" rx="0.9931" ry="3.0548"/>
   <path class="fil23 str6" d="M42.4897 16.1339l0.0042 -0.1723c0,0 0.0456,-0.116 0.0425,-0.2087 -0.0032,-0.0928 -0.1136,-1.1961 0.0594,-1.153 0.1729,0.043 0.0562,0.9972 0.0605,1.1099 0.0042,0.1126 0.0339,0.2485 0.0339,0.2485l0.0003 0.1648 -0.2008 0.0108z"/>
   <path class="fil23 str6" d="M43.2109 16.8401l0.0402 -0.1188c0,0 0.0587,0.0099 0.0763,-0.0655 0.0176,-0.0754 0.1732,-1.1242 0.2921,-0.7295 0.1188,0.3947 -0.1729,0.8567 -0.194,0.9491 -0.0211,0.0923 -0.0283,0.2553 -0.0283,0.2553l-0.0353 0.1226 -0.151 -0.4132z"/>
   <path class="fil23 str6" d="M43.5758 18.9195l0.0551 0.0166c0,0 0.0363,0.1447 0.066,0.1365 0.0298,-0.0081 0.3851,-0.3315 0.368,0.2077 -0.0171,0.5391 -0.3203,0.1564 -0.3565,0.1675 -0.0361,0.0111 -0.0802,0.1012 -0.0802,0.1012l-0.0528 -0.0023 0.0004 -0.6272z"/>
   <path class="fil23 str6" d="M43.3593 21.1713l0.035 0.1337c0,0 -0.0073,0.1822 0.0156,0.2424 0.0228,0.0602 0.3467,0.6195 0.2122,0.9616 -0.1345,0.3421 -0.2614,-0.5995 -0.2894,-0.6717 -0.028,-0.0723 -0.0795,-0.1063 -0.0795,-0.1063l-0.0367 -0.1186 0.1428 -0.4411z"/>
   <path class="fil23 str6" d="M42.6999 22.2701l-0.0033 0.1725c0,0 -0.045,0.1184 -0.0413,0.211 0.0037,0.0926 0.1202,1.1897 -0.053,1.156 -0.1732,-0.0337 -0.0618,-0.9941 -0.0666,-1.1065 -0.0049,-0.1124 -0.0353,-0.2466 -0.0353,-0.2466l-0.0012 -0.1648 0.2007 -0.0216z"/>
   <path class="fil23 str6" d="M41.9752 21.6168l-0.0431 0.1087c0,0 -0.0583,-0.024 -0.0777,0.0469 -0.0194,0.071 -0.2005,1.079 -0.3092,0.6568 -0.1087,-0.4222 0.1936,-0.8124 0.2169,-0.8994 0.0233,-0.087 0.0345,-0.2477 0.0345,-0.2477l0.0382 -0.1138 0.1404 0.4485z"/>
   <path class="fil23 str6" d="M41.61 19.5418l-0.0551 -0.0138c0,0 -0.037,-0.1429 -0.0667,-0.1332 -0.0298,0.0096 -0.3834,0.3505 -0.3691,-0.1894 0.0144,-0.5399 0.3196,-0.1723 0.3557,-0.1852 0.036,-0.0129 0.0796,-0.1052 0.0796,-0.1052l0.0528 -0.0003 0.0028 0.6271z"/>
   <path class="fil23 str6" d="M41.8378 17.277l-0.0366 -0.1298c0,0 0.0052,-0.1829 -0.0183,-0.2406 -0.0235,-0.0576 -0.3535,-0.5807 -0.2229,-0.9375 0.1305,-0.3568 0.2679,0.5702 0.2967,0.6393 0.0288,0.0691 0.0807,0.0975 0.0807,0.0975l0.038 0.1144 -0.1376 0.4567z"/>
   <ellipse class="fil7 str6" cx="42.6054" cy="19.1891" rx="0.6989" ry="2.0869"/>
   <path class="fil23 str6" d="M42.1678 20.9225l0.026 -0.0731c0,0 0.0051,-0.1801 0.0145,-0.2263 0.0093,-0.0462 0.2547,-0.7454 0.2547,-0.7454l-0.0795 -0.3128c0,0 -0.2534,0.7736 -0.2602,0.7802 -0.0068,0.0065 -0.0778,0.0623 -0.0778,0.0623l-0.0242 0.0673 0.1465 0.4478z"/>
   <path class="fil23 str6" d="M42.6939 21.3632l0.0009 -0.1094c0,0 -0.0384,-0.1353 -0.0427,-0.1883 -0.0043,-0.0529 0.0017,-1.09 0.0017,-1.09l-0.1274 -0.0348c0,0 0.0058,1.1066 0.0027,1.1265 -0.0032,0.0199 -0.039,0.2192 -0.039,0.2192l-0.001 0.1013 0.2048 -0.0245z"/>
   <path class="fil23 str6" d="M42.4913 17.0748l-0.0011 0.1094c0,0 0.0382,0.1358 0.0425,0.1888 0.0042,0.053 -0.0032,1.0901 -0.0032,1.0901l0.1273 0.0364c0,0 -0.0042,-1.1066 -0.001,-1.1265 0.0031,-0.0198 0.0392,-0.2186 0.0392,-0.2186l0.0012 -0.1013 -0.2049 0.0217z"/>
   <path class="fil23 str6" d="M43.0236 17.472l-0.026 0.0735c0,0 -0.0047,0.1802 -0.014,0.2265 -0.0093,0.0464 -0.2534,0.7498 -0.2534,0.7498l0.08 0.3114c0,0 0.2521,-0.7779 0.2589,-0.7846 0.0068,-0.0066 0.0776,-0.0636 0.0776,-0.0636l0.0241 -0.0677 -0.1472 -0.4453z"/>
   <path class="fil23 str6" d="M42.0244 17.9542l0.0242 0.0792c0,0 0.0577,0.0107 0.0728,0.0386 0.015,0.0278 0.2459,0.7736 0.2459,0.7736l0.0979 -0.2571c0,0 -0.255,-0.7687 -0.2573,-0.7898 -0.0022,-0.021 -0.0221,-0.2409 -0.0221,-0.2409l-0.0223 -0.0737 -0.1391 0.4701z"/>
   <path class="fil23 str6" d="M41.8981 19.5457l0.035 0.0038c0,0 0.0437,-0.1186 0.0606,-0.1316 0.017,-0.013 0.3491,0.0152 0.3491,0.0152l0.0123 -0.3975c0,0 -0.3544,0.008 -0.3608,-0.002 -0.0063,-0.0101 -0.0698,-0.1237 -0.0698,-0.1237l-0.0324 -0.004 0.006 0.6398z"/>
   <path class="fil23 str6" d="M43.1471 20.5001l-0.0242 -0.079c0,0 -0.0578,-0.0104 -0.0729,-0.0381 -0.0151,-0.0278 -0.2465,-0.7721 -0.2465,-0.7721l-0.0976 0.2577c0,0 0.2554,0.7671 0.2577,0.7882 0.0023,0.021 0.0224,0.2408 0.0224,0.2408l0.0223 0.0735 0.1388 -0.471z"/>
   <path class="fil23 str6" d="M43.2984 18.9297l-0.035 -0.0044c0,0 -0.0439,0.1179 -0.0609,0.1306 -0.017,0.0127 -0.349,-0.021 -0.349,-0.021l-0.013 0.3972c0,0 0.3544,-0.002 0.3608,0.0081 0.0063,0.0102 0.0696,0.1248 0.0696,0.1248l0.0324 0.0046 -0.0049 -0.6399z"/>
   <ellipse class="fil23 str6" cx="42.5992" cy="19.231" rx="0.2521" ry="0.7827"/>
   <ellipse class="fil24 str6" cx="42.5916" cy="19.2467" rx="0.1119" ry="0.3611"/>
  </g>
  <g id="_2564705300944">
   <path class="fil25 str0" d="M34.6428 96.9269c-0.1315,0.0503 -0.1431,0.1826 -0.3288,0.2209 -1.5221,0.3139 -2.1846,-1.8922 -1.1296,-2.9791 0.2553,-0.2631 0.8743,-0.4333 1.0754,-0.3714 0.2012,0.0619 0.8008,0.6848 0.8472,0.7389 0.0465,0.0542 0.1935,-0.0271 0.383,0.0464 0.1896,0.0735 0.352,0.2786 0.352,0.2786 0,0 0.1664,-0.0349 0.2747,0.0503 0.1083,0.0851 0.2263,0.3036 0.2263,0.3036 0,0 0.176,-0.0619 0.296,0.0116 0.1199,0.0735 0.2127,0.2766 0.2127,0.2766 0,0 0.1141,-0.029 0.1876,0.0058 0.0735,0.0349 0.149,0.1877 0.149,0.1877 0,0 0.0909,-0.0271 0.1721,0.0328 0.0813,0.06 0.1625,0.1625 0.1625,0.1625 0,0 0.0406,-0.0658 0.1219,0.0116 0.0812,0.0774 0.1296,0.1451 0.1296,0.1451 0,0 -0.0078,-0.0638 0.1044,-0.0174 0.1122,0.0464 0.1509,0.1644 0.1509,0.1644 0,0 0.0696,-0.0426 0.1354,0.0193 0.0657,0.0619 0.118,0.1451 0.1296,0.1548 0.0116,0.0096 0.4081,0.2205 0.41,0.2611 0.002,0.0406 -0.3462,0.1277 -0.3462,0.1277 0,0 -0.0464,0.0483 -0.0832,0.056 -0.0367,0.0078 -0.1025,-0.0096 -0.1025,-0.0096 0,0 -0.0019,0.0638 -0.0754,0.0715 -0.0735,0.0078 -0.1799,-0.0348 -0.1799,-0.0348 0,0 -0.0387,0.0658 -0.1161,0.0735 -0.0773,0.0078 -0.1605,-0.0503 -0.1605,-0.0503 0,0 -0.0851,0.0948 -0.1567,0.12 -0.0715,0.0251 -0.1818,-0.0252 -0.1818,-0.0252 0,0 0.0058,0.0503 -0.0832,0.0677 -0.0889,0.0174 -0.1876,-0.0348 -0.1876,-0.0348 0,0 -0.1025,0.0716 -0.1895,0.0832 -0.0871,0.0116 -0.2496,-0.0561 -0.2496,-0.0561 0,0 -0.1615,0.1363 -0.3327,0.1228 -0.1711,-0.0135 -0.2495,-0.0948 -0.2495,-0.0948 0,0 -0.0938,0.0493 -0.1905,0.0474 -0.0967,-0.0019 -0.1857,-0.0793 -0.1857,-0.0793 0,0 -0.1528,0.0948 -0.3249,0.0967 -0.1722,0.0019 -0.3076,-0.1238 -0.3695,-0.1586 -0.0619,-0.0348 -0.2969,-0.0271 -0.2969,-0.0271z"/>
   <path class="fil26 str0" d="M33.2386 94.7142c-0.2012,0.0928 -0.5494,0.704 -0.2786,1.2843 0.2708,0.5803 1.0368,1.1296 1.2379,0.9362 0.2012,-0.1934 0.3559,-0.2399 0.4488,-0.2399 0.0928,0 0.2011,0.0697 0.2011,0.0697 0,0 0.0387,-0.6964 -0.116,-1.1064 -0.1547,-0.4101 -0.352,-0.8704 -0.7157,-0.9285 -0.3636,-0.058 -0.7775,-0.0154 -0.7775,-0.0154z"/>
   <path class="fil8 str0" d="M35.107 94.5362c0,0 0.0726,0.4178 0.0455,0.7776 -0.0271,0.3597 0.0271,0.5067 0.0464,1.0019 0.0194,0.4952 0.4352,0.7002 0.4352,0.7002"/>
   <path class="fil8 str0" d="M35.842 94.8612c0,0 -0.028,0.1856 -0.0744,0.5261 -0.0464,0.3404 -0.0426,0.7621 0.0155,0.9864 0.058,0.2244 0.0735,0.4449 0.1276,0.5339 0.0542,0.089 0.0996,0.1402 0.0996,0.1402"/>
   <path class="fil8 str0" d="M36.5925 97.0198c0,0 -0.0319,0.0386 -0.1209,-0.1857 -0.0889,-0.2244 -0.1121,-0.3598 -0.116,-0.6035 -0.0039,-0.2437 -0.0387,-0.5958 -0.0194,-0.7273 0.0194,-0.1315 0.0068,-0.2882 0.0068,-0.2882"/>
   <path class="fil8 str0" d="M36.8517 95.5033c0,0 0.0223,0.0774 -0.0048,0.4217 -0.0271,0.3443 -0.0271,0.6305 -0.0039,0.735 0.0232,0.1044 0.1886,0.3327 0.1886,0.3327"/>
   <path class="fil8 str0" d="M37.1883 95.6968c0,0 -0.0049,0.0464 -0.0049,0.2669 0,0.2205 -0.0077,0.5802 0.0116,0.6692 0.0194,0.089 0.1074,0.3269 0.1074,0.3269"/>
   <path class="fil8 str0" d="M37.5229 95.8921c0,0 -0.0222,0.0909 -0.0029,0.3308 0.0193,0.2398 -0.0203,0.3868 0.0503,0.5145 0.0706,0.1276 0.0706,0.1276 0.0706,0.1276"/>
   <path class="fil8 str0" d="M37.7744 96.0488c0,0 -0.0107,0.1547 0.0125,0.3404 0.0232,0.1857 0.0271,0.2785 0.0581,0.3636 0.0309,0.0851 0.0486,0.1181 0.0486,0.1181"/>
   <path class="fil8 str0" d="M38.0297 96.1958c0.0512,0.0735 0.0164,0.1741 0.0396,0.3017 0.0232,0.1277 0.0658,0.2592 0.0658,0.2592l0.0264 0.0832"/>
   <path class="fil8 str0" d="M38.2947 96.3699c0,0 -0.0436,-0.0116 -0.0126,0.1315 0.0309,0.1431 0.0764,0.2573 0.0764,0.2573"/>
  </g>
  <g id="_2564705297008">
   <path class="fil27 str1" d="M55.9198 83.7401c0,0 0.9209,0.7971 1.0769,1.145 0.156,0.348 -0.6719,2.2078 -1.0439,1.9798 -0.3719,-0.228 0.336,-1.0679 0.288,-1.2599 -0.048,-0.1919 -1.3198,-1.5478 -1.3198,-1.5478l0.9988 -0.3171z"/>
   <path class="fil27 str1" d="M50.0975 79.3298c0,0 -0.3119,-0.8759 0.6,-1.1999 0.9119,-0.3239 1.6678,-0.084 1.9797,0.288 0.312,0.372 1.1519,2.0278 2.0278,2.2077 0.8759,0.18 1.0919,0.024 1.2359,-0.1679 0.1439,-0.192 -2.1478,-2.6517 -2.1718,-4.4035 -0.024,-1.7518 0.7199,-2.8797 1.4159,-3.2636 0.6959,-0.384 2.9996,-1.1039 4.6794,0.0719 2.9725,2.0808 -1.4739,6.5875 -1.0919,7.4152 0.144,0.3119 -0.036,0.6599 0.528,0.4679 0.5639,-0.192 0.8759,-1.6198 0.9359,-2.3757 0.06,-0.7559 0.8159,-1.4278 1.4518,-1.6558 0.6359,-0.228 1.3438,-0.132 1.5478,0.228 0.204,0.3599 0.456,0.7439 0.408,1.0678 -0.048,0.324 -0.048,0.612 -0.384,0.8399 -0.9995,0.6783 -1.0611,-0.0907 -0.7319,-0.4199 0,0 0.108,0.372 0.336,0.336 0.2279,-0.036 0.4679,-0.336 0.3599,-0.624 -0.108,-0.2879 -0.3239,-0.6239 -0.6599,-0.7439 -0.336,-0.12 -0.8879,0 -1.1159,0.192 -0.2279,0.192 -0.5399,0.5399 -0.5279,0.8639 0.012,0.324 -0.036,1.0679 -0.036,1.3678 0,1.0343 -0.1779,1.1705 -1.0559,1.6918 0,0 0.54,0.072 1.0679,-0.096 0.5279,-0.1679 0.8399,-0.2399 1.4638,-0.3959 0.6239,-0.156 1.2359,-0.252 1.5118,-0.096 1.838,1.0388 0.0807,2.8618 0.072,2.8557 -0.0024,-0.0018 0.6373,-2.4725 -0.7679,-2.0158 -0.4799,0.156 -0.7199,0.288 -1.2118,0.384 -0.492,0.096 -0.7679,0.3599 -1.1519,0.2999 -0.384,-0.06 -1.5118,-0.144 -1.5118,-0.144 0,0 0.7439,0.576 0.9359,0.8759 0.1919,0.3 0.4079,1.4759 0.3839,1.5719 -0.024,0.096 -0.6119,-0.8519 -0.8639,-1.0439 -0.2519,-0.192 -0.7799,-0.324 -0.7799,-0.324 0,0 0.072,0.6239 -0.084,0.8759 -0.156,0.252 -0.5519,0.552 -0.3839,0.9359 0.1679,0.384 0.2159,0.5279 0.4799,0.5399 0.264,0.012 0.8519,0.036 0.8639,0.18 0.012,0.144 -0.9239,0.504 -1.3918,0.384 -0.468,-0.12 -0.9359,-0.7679 -0.8639,-1.1639 0.072,-0.3959 0.2759,-0.6479 0.4799,-0.8999 0.204,-0.252 0.12,-0.9839 0,-0.9839 -0.12,0 -0.9839,-0.6239 -0.9839,-0.6239 0,0 -0.1919,0.5279 -0.5879,0.8039 -0.396,0.276 -1.0079,0.444 -1.1759,0.5999 -0.1679,0.156 -1.5238,1.2239 -1.6678,1.0199 -0.144,-0.204 0.624,-1.1878 0.7799,-1.3318 0.156,-0.144 0.504,-0.348 0.504,-0.348 0,0 -0.132,-0.216 0,-0.4199 0.132,-0.204 0.2999,-0.528 0.2999,-0.528 0,0 -1.0018,-0.3359 -1.5178,-0.2639 -0.5159,0.072 -0.8999,0.1139 -1.1218,0.3059 -0.222,0.192 -0.468,1.0679 -0.696,1.2959 -0.2279,0.2279 -0.8639,1.1878 -1.0078,1.0559 -0.144,-0.132 0.1319,-0.804 0.2159,-1.0319 0.084,-0.228 0.348,-0.336 0.42,-0.6 0.072,-0.2639 0.4199,-0.9478 0.4079,-1.0918 -0.012,-0.144 0.18,-0.588 0.252,-0.66 0.072,-0.0719 0.6839,-0.2879 0.6839,-0.2879 0,0 -0.192,-0.366 -0.3239,-0.7439 -0.132,-0.378 -0.318,-1.2179 -0.702,-1.4459 -0.3839,-0.2279 -0.6419,-0.3419 -0.8939,-0.2459 -0.2519,0.0959 -0.8639,0.6179 -0.8639,0.6179z"/>
   <path class="fil5 str1" d="M55.5269 74.4464c-1.0105,0.8589 0.5189,2.4357 0.9239,2.4357 0.348,0 0.4559,-0.132 0.6359,-0.48 0.18,-0.3479 0,-0.9359 -0.18,-1.2598 -0.1799,-0.324 -0.3659,-0.498 -0.5459,-0.612 -0.18,-0.1139 -0.6359,-0.2099 -0.8339,-0.0839z"/>
   <path class="fil28 str1" d="M58.0886 76.8341c-0.264,-0.222 -0.3239,-0.456 -0.276,-0.8219 0.0874,-0.6662 0.8991,-2.053 1.6619,-1.5059 0.2759,0.198 0.4379,0.492 0.3299,0.8279 -0.174,0.5416 -0.9884,1.8771 -1.7158,1.4999z"/>
   <path class="fil9 str1" d="M58.2086 76.3661c-0.3067,-0.3067 0.4946,-1.3035 0.7859,-1.0498 0.7624,0.664 -0.6053,1.3609 -0.7859,1.0498z"/>
   <path class="fil9 str1" d="M56.4328 76.5521c-0.4157,0.0287 -0.7469,-1.118 -0.216,-1.1939 0.9453,-0.135 0.643,1.2715 0.216,1.1939z"/>
   <path class="fil7 str1" d="M55.8209 77.782c-0.09,0.072 1.0679,1.3438 1.3558,1.3258 0.288,-0.018 1.7338,-1.3078 1.7098,-1.3438 -0.024,-0.036 -1.2598,0.8759 -1.6438,0.8279 -0.3839,-0.048 -1.4218,-0.8099 -1.4218,-0.8099z"/>
  </g>
  <path class="fil29 str1" d="M25.4983 99.0403c0.2319,-0.6957 -0.0387,-3.0535 0.4638,-3.8265 0.5025,-0.773 3.0148,-6.3389 2.7829,-6.6094 -0.2319,-0.2706 -1.1982,1.4687 -1.5847,1.0436 -0.3865,-0.4252 0.0387,-3.2081 0.3865,-3.44 0.3479,-0.2319 0.5411,-1.8166 0.0773,-1.894 -0.4638,-0.0773 -0.7344,0.9277 -1.0049,1.6234 -0.2706,0.6957 -0.2319,1.8553 -0.4638,2.0099 -0.2319,0.1546 -0.9277,-0.4638 -0.7731,-1.1982 0.1546,-0.7344 2.2418,-3.0921 2.0099,-3.5946 -0.2319,-0.5025 -0.0386,-0.5025 -0.8503,-1.1595 -0.8117,-0.6571 -0.5411,0.1932 -0.5798,0.9276 -0.0386,0.7344 0.2319,1.2368 -0.3479,1.4688 -0.5797,0.2319 -0.657,-3.0535 -0.3092,-3.3627 0.3479,-0.3092 1.2755,-2.8603 0.4638,-3.1308 -0.8116,-0.2706 -1.6233,0.6184 -1.3914,1.5074 0.2319,0.889 0,1.9712 -0.1546,2.5123 -0.1546,0.5412 0.1932,2.1645 0.3865,3.0149 0.1933,0.8503 0.1933,2.2418 0.116,2.5123 -0.0774,0.2706 -1.0823,0.1546 -1.1982,-0.5025 -0.116,-0.657 0.1486,-2.213 0.4638,-2.8602 0.3152,-0.6471 -0.1933,-1.1982 -0.5412,-1.3528 -0.3478,-0.1546 -0.0193,1.1596 -0.3478,1.4688 -0.3286,0.3092 0.0773,-1.2369 -0.5218,-0.831 -0.5991,0.4058 -0.1353,1.0242 -0.1933,1.6427 -0.0579,0.6184 0.4638,1.9712 0.2126,2.3384 -0.2512,0.3672 -0.5218,-0.4832 -0.773,-0.116 -0.2513,0.3672 1.0822,1.0243 1.4301,1.3142 0.3479,0.2899 0.9856,1.1982 1.0243,1.778 0.0386,0.5797 0.5024,2.5896 0.2512,2.9955 -0.2512,0.4058 -0.6378,-1.6621 -1.0629,-2.3191 -0.4252,-0.6571 -1.0629,-2.2418 -1.5268,-2.1839 -0.4638,0.058 0.3479,2.6863 0.4445,3.0342 0.0967,0.3479 -0.6764,-0.3672 -0.715,0.0966 -0.0387,0.4638 1.2175,0.8504 1.4108,1.1403 0.1932,0.2898 1.0629,1.9325 1.1015,2.2417 0.0387,0.3093 -0.1159,1.7587 -0.1159,2.1839 0,0.4251 1.4301,1.5267 1.4301,1.5267z"/>
  <path class="fil8 str1" d="M50.474 20.9169c0.9558,0.033 3.4715,0.6811 3.4386,3.1859 -0.033,2.5048 -1.9336,3.2738 -3.131,3.2298 -1.1975,-0.0439 -3.8121,-0.9008 -3.867,-2.9112 -0.055,-2.0104 1.6259,-3.3617 3.5594,-3.5045z"/>
  <path class="fil8 str1" d="M48.4086 24.2456c0,-1.3183 0.9888,-1.8896 1.9445,-1.9115 0.9558,-0.022 2.1313,0.3955 2.1752,1.516 0.044,1.1206 -0.723,2.1238 -1.9754,2.2446 -1.2524,0.1208 -2.2981,-1.2119 -2.1443,-1.8491z"/>
  <path class="fil15 str1" d="M49.0089 21.2787c0,0 0.0479,0.3028 0.1303,0.55 0.0824,0.2472 0.318,0.7025 0.318,0.7025 0,0 0.3082,-0.2633 1.0333,-0.1973 0.725,0.0661 1.0185,0.1975 1.0185,0.1975 0,0 -0.0024,-0.2852 0.1899,-0.6752 0.1922,-0.39 0.3455,-0.5536 0.3455,-0.5536 0,0 -0.786,-0.3899 -1.4996,-0.3823 -0.7135,0.0076 -1.5359,0.3584 -1.5359,0.3584z"/>
  <path class="fil15 str1" d="M52.4281 23.3706c0,0 0.2815,-0.0313 0.5781,-0.1577 0.2966,-0.1263 0.6719,-0.3578 0.6719,-0.3578 0,0 0.2497,0.6173 0.2336,1.105 -0.0162,0.4877 -0.1208,1.3293 -0.1808,1.3237 -0.06,-0.0055 -0.3567,-0.055 -0.6917,-0.1154 -0.3351,-0.0604 -0.7861,-0.148 -0.7861,-0.148 0,0 0.2633,-0.5566 0.2684,-0.8802 0.0052,-0.3236 -0.0934,-0.7696 -0.0934,-0.7696z"/>
  <path class="fil15 str1" d="M51.6659 25.6463c0,0 -0.0824,0.4724 0.033,0.6866 0.1153,0.2142 0.5597,0.6737 0.5261,0.6896 -0.0336,0.0159 -0.8062,0.3321 -1.4434,0.3101 -0.6372,-0.0219 -1.3632,-0.1291 -1.3517,-0.2678 0.0114,-0.1386 0.1103,-0.2595 0.1707,-0.4408 0.0604,-0.1812 0.1877,-0.6299 0.1877,-0.6299 0,0 0.4202,0.173 0.9237,0.0801 0.5035,-0.0928 0.9539,-0.4279 0.9539,-0.4279z"/>
  <path class="fil15 str1" d="M47.2456 25.5297c0,0 0.6082,0.1606 0.9159,0.0067 0.3076,-0.1538 0.6712,-0.3304 0.6152,-0.3405 -0.0561,-0.0102 -0.4214,-0.409 -0.3818,-0.8574 0.0396,-0.4485 0.1451,-0.8532 0.1451,-0.8532 0,0 -0.3181,0.071 -0.6477,-0.0224 -0.3296,-0.0934 -0.7136,-0.4241 -0.7136,-0.4241 0,0 -0.2713,0.6979 -0.2648,1.2217 0.0065,0.5237 0.3317,1.2692 0.3317,1.2692z"/>
  <g id="_2565015875184">
   <path class="fil30 str0" d="M39.1953 89.2644c0,0 0.4028,0.184 0.6538,0.1003 0.251,-0.0837 1.0777,-0.1624 1.2598,-0.1919 0.1821,-0.0295 1.4763,-0.1181 1.7224,-0.0443 0.2461,0.0738 1.309,0.0443 1.6338,0.0344 0.3248,-0.0098 0.7677,0.0591 1.0039,0.1182 0.2362,0.059 0.6988,0.1574 0.8858,0.0984 0.187,-0.0591 0.4921,-0.1575 0.4921,-0.1575 0,0 -0.2362,-0.6004 -0.3051,-0.6299 -0.0689,-0.0295 -1.9635,-0.7726 -2.121,-0.7923 -0.1575,-0.0197 -2.6672,-0.0984 -3.0314,0.0099 -0.3641,0.1082 -1.9094,0.8168 -2.0767,0.994 -0.1673,0.1772 -0.1174,0.4607 -0.1174,0.4607z"/>
   <path class="fil30 str0" d="M38.9559 90.0758c0.0985,-0.1476 0.3347,-0.6004 0.876,-0.6397 0.5413,-0.0394 1.496,0.1378 1.8306,0.1673 0.3347,0.0295 2.3622,0.1378 2.7558,0.0492 0.3937,-0.0886 1.1614,-0.3346 1.5945,-0.2264 0.433,0.1083 1.0728,0.3642 1.0924,0.561 0.0197,0.1969 0.2756,1.2008 -0.9054,1.9192 -1.1811,0.7185 -4.2026,1.0532 -4.6357,0.7677 -0.433,-0.2854 -1.7913,-0.8464 -1.9192,-0.9842 -0.128,-0.1378 -0.5782,-0.9522 -0.5536,-1.0113 0.0246,-0.059 -0.1354,-0.6028 -0.1354,-0.6028z"/>
   <path class="fil31 str0" d="M39.3792 91.1486c0.1771,0.0689 0.3149,0.0049 0.5413,0.2313 0.2263,0.2264 0.2067,0.4134 0.3444,0.5019 0.1378,0.0886 0.5611,-0.1476 0.8268,0.0492 0.2657,0.1969 0.1279,0.2363 0.4429,0.3937 0.3149,0.1575 0.433,-0.0197 0.6594,0.0591 0.2264,0.0787 0.4528,0.4724 0.8169,0.4232 0.3642,-0.0492 0.3543,-0.1378 0.6988,-0.374 0.3445,-0.2362 0.5315,0.0886 0.7825,-0.0591 0.2509,-0.1476 0.2017,-0.2854 0.4182,-0.374 0.2166,-0.0885 0.5315,0.0689 0.7382,-0.0492 0.2067,-0.1181 0.1181,-0.1574 0.3839,-0.3543 0.2657,-0.1968 0.5905,-0.1378 0.6889,-0.2756 0.0984,-0.1378 -0.1476,-0.3149 -0.0295,-0.4527 0.1181,-0.1378 0.45,-0.4798 0.45,-0.4798 0,0 0.0342,0.2232 -0.0862,0.5305 -0.1892,0.4828 -0.5749,1.1407 -0.6591,1.2189 -0.1378,0.128 -0.4823,0.2166 -0.7775,0.4036 -0.2953,0.187 -0.2953,0.3247 -0.5512,0.4035 -0.2559,0.0787 -0.3445,0.0886 -0.6004,0.246 -0.2558,0.1575 -0.3838,0.2953 -0.6397,0.2953 -0.2559,0 -0.5315,0.1772 -0.748,0.1575 -0.2165,-0.0197 -0.3445,-0.1378 -0.4921,-0.1477 -0.1476,-0.0098 -0.2067,0.0886 -0.4331,-0.0295 -0.2263,-0.1181 -0.3936,-0.2952 -0.3936,-0.2952 0,0 -0.187,0.1476 -0.5414,-0.0985 -0.3543,-0.246 -0.5806,-0.4429 -0.5806,-0.4429 0,0 -0.4922,-0.1574 -0.6595,-0.3051 -0.1673,-0.1476 -0.5511,-0.6594 -0.6003,-0.7283 -0.0493,-0.0689 -0.4528,-1.0433 -0.4528,-1.0433l0.0295 -0.4773c0,0 0.4233,0.5758 0.4331,0.6939 0.0098,0.1181 -0.0098,0.3789 -0.0098,0.3789z"/>
   <path class="fil32 str0" d="M39.4087 90.0414c0,0.1574 0.3149,0.3346 0.3297,0.4281 0.0148,0.0935 -0.128,0.2756 0.0344,0.438 0.1624,0.1624 0.5561,0.0787 0.6201,0.1673 0.064,0.0886 0.0148,0.2411 0.1624,0.4084 0.1476,0.1673 0.7332,-0.0246 0.8661,0.0542 0.1329,0.0787 0.2559,0.3444 0.3789,0.4478 0.1231,0.1033 0.5413,-0.0069 0.6348,0.0423 0.0935,0.0493 0.4823,0.3809 0.5758,0.3809 0.0935,0 0.5118,-0.2657 0.6348,-0.315 0.1231,-0.0492 0.5906,-0.0246 0.6841,-0.0836 0.0935,-0.0591 0.123,-0.2412 0.3395,-0.3494 0.2165,-0.1083 0.5315,0.0148 0.6447,-0.0984 0.1132,-0.1132 0.1821,-0.2658 0.4084,-0.3839 0.2264,-0.1181 0.4774,0 0.5266,-0.1673 0.0492,-0.1673 -0.0689,-0.3297 0.0492,-0.4183 0.1181,-0.0886 0.4823,-0.2411 0.4035,-0.4872 -0.0787,-0.246 -0.8858,-0.4724 -1.2499,-0.3641 -0.3642,0.1082 -2.1259,0.3937 -2.4606,0.374 -0.3346,-0.0197 -1.2598,-0.0394 -1.4566,-0.1378 -0.1969,-0.0984 -0.8956,-0.1378 -1.2696,-0.187 -0.374,-0.0492 -0.6693,0.1082 -0.8563,0.251z"/>
   <path class="fil31 str0" d="M38.7468 88.8086c0.1968,-0.2067 0.1279,-0.1181 0.5118,-0.433 0.3838,-0.315 1.1023,-0.9055 1.3385,-1.0827 0.2362,-0.1771 0.4134,-0.374 0.4823,-0.374 0.0689,0 0.246,0.1378 0.4823,-0.0197 0.2362,-0.1574 0.246,-0.2755 0.4921,-0.3051 0.246,-0.0295 0.3838,0.1378 0.5511,0.1083 0.1673,-0.0295 0.0591,-0.1575 0.3248,-0.187 0.2658,-0.0295 0.315,0.1673 0.5118,0.187 0.1969,0.0197 0.315,-0.1575 0.5413,-0.0984 0.2264,0.059 0.3051,0.3051 0.4725,0.3051 0.1673,0 0.2263,-0.128 0.4625,-0.0197 0.2362,0.1083 0.4232,0.4429 0.561,0.4626 0.1378,0.0197 0.9744,0.9547 1.2992,1.0728 0.3248,0.1181 0.6693,0.433 0.5708,0.5413 -0.0984,0.1083 -0.2755,0.374 -0.5019,0.2559 -0.2264,-0.1181 -0.6447,-0.5364 -0.7874,-0.5315 -0.1427,0.0049 -0.3789,0.1427 -0.5068,0.0295 -0.128,-0.1131 -0.3987,-0.369 -0.6201,-0.3936 -0.2215,-0.0246 -0.4577,0.123 -0.6299,0.0393 -0.1722,-0.0836 -0.3642,-0.3297 -0.5708,-0.31 -0.2067,0.0197 -0.2559,0.1132 -0.5414,0.1624 -0.2854,0.0492 -0.2854,-0.3543 -0.8169,-0.1378 -0.5314,0.2165 -0.4921,0.2756 -0.62,0.2854 -0.128,0.0099 -0.3937,-0.059 -0.561,-0.0295 -0.1673,0.0295 -0.4232,0.2854 -0.5118,0.3051 -0.0886,0.0197 -0.4035,-0.1378 -0.6398,0.0197 -0.2362,0.1575 -0.1968,0.2756 -0.4822,0.4527 -0.2854,0.1772 -0.4035,0.1772 -0.5315,0.1083 -0.1279,-0.0689 -0.2165,-0.1083 -0.2805,-0.4134z"/>
   <ellipse class="fil33 str0" cx="43.1126" cy="90.182" rx="1.3533" ry="1.2951"/>
   <path class="fil8 str0" d="M45.5379 87.4553c0.0541,0.0492 0.625,1.0089 0.6742,1.1417"/>
   <path class="fil8 str0" d="M44.4454 86.9632c0,0 0.2608,0.2264 0.3445,0.502 0.0836,0.2756 0.3002,0.871 0.3002,0.871"/>
   <path class="fil8 str0" d="M43.4956 86.7664c0,0 0.2067,0.31 0.251,0.5511 0.0443,0.2412 0.0886,0.6988 0.0886,0.6988"/>
   <path class="fil8 str0" d="M42.6689 86.7319c-0.064,-0.0295 -0.1181,-0.0098 -0.2362,0.3494 -0.1181,0.3593 -0.1919,0.9695 -0.1919,0.9695"/>
   <path class="fil8 str0" d="M41.7831 86.8058c-0.0886,0.0885 -0.3199,0.4527 -0.4084,0.6249 -0.0886,0.1723 -0.3937,0.9498 -0.3937,0.9498"/>
   <path class="fil8 str0" d="M40.7103 87.288c-0.1033,0.1034 -0.2608,0.3347 -0.4134,0.5463 -0.1525,0.2116 -0.4527,0.8562 -0.4527,0.8562"/>
   <path class="fil8 str0" d="M40.3215 91.9483c0,0 0.1477,0.2706 0.2018,0.3887 0.0541,0.1181 0.229,0.3867 0.229,0.3867"/>
   <path class="fil8 str0" d="M41.4319 92.2681c0,0 0.1052,0.4577 0.2036,0.5807 0.0984,0.1231 0.1673,0.2953 0.1673,0.2953"/>
   <path class="fil8 str0" d="M42.2477 92.408c0,0 0.1013,0.3965 0.185,0.5983 0.0836,0.2018 0.2238,0.5016 0.2238,0.5016"/>
   <path class="fil8 str0" d="M43.8746 92.4059c0,0 -0.128,0.566 -0.251,0.7677 -0.123,0.2018 -0.2608,0.374 -0.2608,0.374"/>
   <path class="fil8 str0" d="M44.6226 92.2632c0,0 -0.005,0.2904 -0.128,0.4921 -0.123,0.2018 -0.2805,0.5315 -0.2805,0.5315"/>
   <path class="fil8 str0" d="M45.7052 92.0073c0,0 -0.1181,0.2412 -0.1673,0.374 -0.0492,0.1329 -0.1847,0.378 -0.1847,0.378"/>
   <path class="fil34 str7" d="M39.8245 89.1433c-0.0098,-0.1034 0.2018,-0.2313 0.3002,-0.2166 0.0984,0.0148 0.2608,0.1477 0.3937,0.064 0.1329,-0.0836 0.5216,-0.3346 0.6791,-0.4035 0.1575,-0.0689 0.1673,0.0541 0.3642,0.0541 0.1968,0 0.5167,-0.1673 0.6987,-0.1919 0.1821,-0.0246 0.6004,0.1722 0.6988,0.1673 0.0985,-0.0049 0.5807,-0.251 0.7579,-0.2214 0.1771,0.0295 0.3592,0.246 0.5118,0.2313 0.1525,-0.0148 0.5413,-0.1083 0.6889,-0.0394 0.1477,0.0689 0.5512,0.3248 0.6201,0.3395 0.0689,0.0148 0.3297,0.0197 0.4527,0.0296 0.1231,0.0098 0.2215,0.0836 0.251,0.1525 0.0295,0.0689 -0.3149,0.1329 -0.5167,0.0837 -0.2018,-0.0492 -2.2883,-0.2215 -2.6328,-0.2264 -0.3445,-0.0049 -1.4025,0.0443 -1.5206,0.0345 -0.1181,-0.0099 -1.2647,0.2509 -1.437,0.2116 -0.1722,-0.0394 -0.305,-0.1055 -0.305,-0.1055l-0.005 0.0366z"/>
  </g>
 </g>
</svg>
