<?xml version="1.0" encoding="UTF-8"?>
<!DOCTYPE svg PUBLIC "-//W3C//DTD SVG 1.1//EN" "http://www.w3.org/Graphics/SVG/1.1/DTD/svg11.dtd">
<!-- Creator: CorelDRAW 2019 (64-Bit) -->
<svg xmlns="http://www.w3.org/2000/svg" xml:space="preserve" width="300mm" height="50mm" version="1.1" style="shape-rendering:geometricPrecision; text-rendering:geometricPrecision; image-rendering:optimizeQuality; fill-rule:evenodd; clip-rule:evenodd"
viewBox="0 0 300 50"
 xmlns:xlink="http://www.w3.org/1999/xlink"
 xmlns:xodm="http://www.corel.com/coreldraw/odm/2003">
 <defs>
  <style type="text/css">
   <![CDATA[
    .str0 {stroke:#2B2A29;stroke-width:0.0589;stroke-miterlimit:22.9256}
    .str1 {stroke:#2B2A29;stroke-width:0.2;stroke-miterlimit:22.9256}
    .fil4 {fill:none}
    .fil9 {fill:#FEFEFE}
    .fil5 {fill:#FEFEFE}
    .fil12 {fill:#727271}
    .fil6 {fill:#2B2A29}
    .fil2 {fill:#FFED00}
    .fil1 {fill:#FECC00}
    .fil3 {fill:#F08143}
    .fil14 {fill:#393185}
    .fil15 {fill:#1C1B17}
    .fil8 {fill:#009CE6}
    .fil10 {fill:#020202}
    .fil7 {fill:#2F35A8}
    .fil13 {fill:#C3EAF7}
    .fil11 {fill:#C72D54}
    .fil0 {fill:#FF2000}
   ]]>
  </style>
 </defs>
 <g id="Layer_x0020_1">
  <metadata id="CorelCorpID_0Corel-Layer"/>
  <path class="fil0 str0" d="M276.3884 32.4641c0,0 0.353,-1.1767 -0.1765,-2.5299 -0.5295,-1.3531 -0.8041,-2.5298 -0.8041,-2.5298 0,0 4.491,-0.608 6.9424,0.7844 2.4515,1.3924 6.9228,7.1189 7.1189,7.4523 0.1962,0.3334 1.8239,-0.8236 2.7947,-2.6573 0.9707,-1.8336 2.1572,-2.2259 2.5102,-2.069 0.353,0.1569 -1.1865,4.6675 -1.0492,5.5696 0.1373,0.9022 1.2551,1.314 1.5101,2.1769 0.2549,0.8629 0.4314,1.2943 0.1568,1.4316 -0.2745,0.1373 -2.3337,-0.1373 -3.4908,-1.2355 -1.157,-1.0982 -2.5973,-1.0492 -2.5973,-1.0492 0,0 -7.0906,-4.7557 -7.6398,-5.0303 -0.5491,-0.2745 -5.2754,-0.3138 -5.2754,-0.3138z"/>
  <g id="_2435706441216">
   <path class="fil1 str0" d="M275.3294 33.4838c0,0 0.1961,-1.8435 2.0396,-2.3142 1.8435,-0.4706 4.0007,-0.4706 6.354,1.3336 2.3534,1.8043 6.158,3.7262 6.0795,4.6283 -0.0784,0.9021 -4.5498,3.2947 -6.5501,4.0007 -2.0004,0.706 -3.3732,0.9021 -4.7067,0.3138 -1.3336,-0.5884 -4.8048,-1.6278 -4.8048,-2.7456 0,-1.1179 0.6472,-0.8825 0.7845,-1.2944 0.1372,-0.4118 0.1372,-3.1378 0.804,-3.9222z"/>
   <path class="fil2 str0" d="M275.3588 37.8375c0.0392,-0.5491 1.8239,-0.9806 2.471,-0.2255 0.6472,0.755 -2.922,0.8825 -2.471,0.2255z"/>
   <path class="fil3 str0" d="M274.9078 39.2593c0.1212,-0.1717 1.3973,0.6043 2.6478,0.3446 1.1766,-0.2444 2.7409,-1.57 2.8335,-1.4624 0.1008,0.2487 -0.9511,1.7062 -2.4416,1.8827 -1.4904,0.1765 -2.5887,-0.5492 -3.0397,-0.7649z"/>
   <path class="fil4 str0" d="M278.026 36.8177c-0.3334,-0.2745 -0.0785,-3.7457 1.5296,-3.4712 1.6082,0.2746 1.2552,3.5301 1.0787,3.7654 -0.1765,0.2353 -0.2158,-0.2746 -1.2356,-0.2746 -1.0197,0 -1.3727,-0.0196 -1.3727,-0.0196z"/>
   <path class="fil5 str0" d="M278.0194 36.8206c0,0 -0.2864,-1.1727 0.3134,-1.7993 0.5997,-0.6266 1.3965,-0.4207 1.6203,-0.2686 0.2238,0.1522 0.7877,0.564 0.8594,0.8863 0.0716,0.3223 -0.347,0.9349 -0.6446,1.11 -0.2975,0.1751 -2.1485,0.0716 -2.1485,0.0716z"/>
   <ellipse class="fil6 str0" cx="279.5213" cy="35.847" rx="0.4756" ry="0.7158"/>
   <path class="fil4 str0" d="M274.6952 37.406c0,0 -0.0642,-3.7262 0.5524,-3.6183 0.6166,0.108 0.3529,3.1869 0.3441,3.3046 -0.0088,0.1177 -0.9145,0.3627 -0.9145,0.3627"/>
   <path class="fil5 str0" d="M274.9764 37.1413c-0.3977,-0.0458 -0.4805,-2.3141 0.0098,-2.216 0.4903,0.098 0.9512,1.7846 -0.0098,2.216z"/>
   <ellipse class="fil6 str0" cx="275.1676" cy="36.0431" rx="0.2598" ry="0.304"/>
   <path class="fil0 str0" d="M283.0366 38.4259c0.1569,0.0392 4.6645,0.5105 4.6645,0.5105 0,0 -0.3108,0.5681 -0.0754,0.9996 0.2353,0.4314 0.7452,1.1178 0.7452,1.1178 0,0 -0.3726,-0.1569 -0.6079,-0.098 -0.2354,0.0588 -0.2746,0.4118 -0.2746,0.4118 0,0 -0.3138,-0.2942 -0.6079,-0.1961 -0.2942,0.098 -0.5099,0.4707 -0.5099,0.4707l-3.334 -3.2163z"/>
  </g>
  <g id="_2435706434528">
   <g>
    <path class="fil7 str0" d="M18.6286 20.5503c-0.3555,-0.3659 0.0362,-3.0593 0.0181,-3.8558 -0.0181,-0.7965 0.0181,-2.48 -1.1404,-3.3127 -1.1586,-0.8327 -3.367,-0.9956 -3.72,-1.1857 -0.353,-0.1901 -2.9145,-1.1857 -4.0368,-1.0771 -1.1224,0.1086 -3.8015,0.3621 -5.1049,1.8103 -1.3033,1.4481 -1.3395,4.3988 -0.7965,4.797 0.5431,0.3983 1.3577,-0.4163 1.937,-0.0181 0.5793,0.3983 1.1766,1.1224 1.1766,1.1224 0,0 -1.8102,3.8376 -1.2852,6.2633 0.5249,2.4257 0.3258,3.1498 -0.4707,4.1273 -0.7965,0.9776 -1.955,7.784 -1.3757,8.0012 0.5792,0.2173 2.6791,-2.0274 3.548,-2.2808 0.8689,-0.2535 1.3758,0.0362 1.593,0.4344 0.2172,0.3983 0.9413,1.774 0.7603,2.3533 -0.181,0.5793 -5.0686,4.1997 -3.7894,6.0099 1.2792,1.8103 6.0823,-2.3291 6.915,-2.2205 0.8327,0.1086 4.5377,3.6204 6.2996,2.6067 1.762,-1.0137 -3.1256,-5.2376 -3.6325,-5.5272 -0.5069,-0.2896 -0.9051,-1.3034 -0.9051,-1.3034 0,0 0.8154,-4.1966 1.1499,-4.4154 0.3345,-0.2187 3.1743,-0.8569 3.6721,-2.3412 0.4978,-1.4844 0.3711,-2.0908 0.2715,-2.5162 -0.0995,-0.4254 -0.362,-0.9866 -0.7422,-1.0409 -0.3801,-0.0543 -0.8236,0.8598 -1.2219,0.715 -0.3982,-0.1448 -2.5455,-0.2671 -2.8239,-0.4978 -0.2784,-0.2307 -0.1991,-2.299 1.8645,-3.8015 2.0637,-1.5025 1.8396,-2.8465 1.8396,-2.8465z"/>
    <path class="fil8 str0" d="M18.0493 19.5819c0,0 2.6429,0.5793 2.3171,2.136 -0.3258,1.5568 -3.186,2.9688 -3.548,3.186 -0.3621,0.2173 0.181,0.5431 -0.5431,1.3758 -0.7241,0.8327 -1.3396,0.4707 -1.6292,0.6879 -0.2896,0.2172 -0.362,1.412 0,2.3895 0.362,0.9775 0.9051,2.0999 1.1948,2.6791 0.2896,0.5793 -1.7379,5.9014 -1.9551,6.372 -0.2172,0.4707 -1.0861,0.2172 -1.1223,-0.0724 -0.0362,-0.2896 -3.367,-10.6441 -3.5481,-10.8975 -0.181,-0.2535 -0.9051,-2.0999 -0.6154,-2.9688 0.2896,-0.8689 1.4119,-2.4257 2.3895,-2.5705 0.9775,-0.1448 3.2946,1.1585 4.5979,0.9413 1.3034,-0.2172 2.3171,-0.2172 2.7154,-1.0499 0.3982,-0.8327 -0.2535,-2.2085 -0.2535,-2.2085z"/>
    <ellipse class="fil9 str0" cx="16.3903" cy="18.2227" rx="1.0047" ry="1.6292"/>
    <ellipse class="fil9 str0" cx="13.3053" cy="18.5478" rx="1.0047" ry="1.6292"/>
    <ellipse class="fil4 str0" cx="16.0106" cy="17.9073" rx="0.6064" ry="0.9458"/>
    <ellipse class="fil10 str0" cx="16.0106" cy="17.9073" rx="0.6064" ry="0.9458"/>
    <ellipse class="fil10 str0" cx="13.0328" cy="18.1155" rx="0.6064" ry="0.9458"/>
    <path class="fil11 str0" d="M15.6486 24.9445c-0.525,-0.1629 -2.661,-1.43 -2.8421,-1.0861 -0.181,0.3439 0.1811,2.0999 0.6517,2.4438 0.4707,0.3439 1.8283,0.2534 1.9551,-0.0181 0.1267,-0.2715 0.2353,-1.3396 0.2353,-1.3396z"/>
    <path class="fil4 str0" d="M13.4221 12.4177c-0.2897,0.1449 -1.9551,0.7603 -3.186,2.0637 -1.231,1.3034 -3.2744,4.3492 -3.2744,4.3492"/>
    <line class="fil4 str0" x1="6.145" y1="27.9133" x2="8.3897" y2= "34.4663" />
   </g>
   <path class="fil12 str1" d="M9.039 13.8252c0,0 1.8573,-0.3445 3.4513,-0.3445 1.5939,0 3.485,0.3782 4.7547,0.2431 1.2698,-0.135 2.0262,-0.027 2.5395,-0.9995 0.5133,-0.9726 0.1891,-1.9452 -0.4593,-2.1613 -0.6483,-0.2161 -4.4846,-1.2967 -4.4846,-1.2967l-5.8016 4.5589z"/>
   <path class="fil13 str1" d="M9.1944 14.8213c-0.7835,-0.2431 -1.5939,-0.4322 -1.702,-1.1616 -0.1081,-0.7294 -0.8375,-1.3778 0.4593,-2.3234 1.2967,-0.9455 2.4854,-1.2292 3.1203,-2.0937 0.6348,-0.8645 1.3237,-2.7556 2.4854,-3.2689 1.1617,-0.5133 2.6745,-1.0266 3.6741,-0.6213 0.9996,0.4052 1.9722,2.0802 1.7831,2.6475 -0.1892,0.5673 -1.1347,1.702 -0.8105,2.1342 0.3242,0.4323 -2.7556,0.5944 -3.8362,1.1077 -1.0807,0.5133 -5.1735,3.5795 -5.1735,3.5795z"/>
   <path class="fil14 str1" d="M9.1133 14.5647c0,0 1.5804,-2.8637 5.3626,-4.255 3.7822,-1.3913 3.7364,-0.7534 3.7364,-0.7534l-0.1039 0.7738c-0.0181,0.1346 -0.2732,0.0408 -2.4007,0.5331 -3.731,2.0896 -3.7598,1.8953 -4.5298,2.5031 -0.7699,0.6079 -1.9835,1.455 -1.9835,1.455l-0.0811 -0.2566z"/>
   <path class="fil15 str1" d="M16.1205 8.5233c0,0 -0.0507,-0.2532 -0.1688,-0.3073 -0.1182,-0.054 -0.3513,-0.0979 -0.5404,-0.1486 -0.1891,-0.0506 -0.439,-0.4491 -0.439,-0.4491l-0.1891 0.0101 0.2533 -0.4964 0.2499 0.4289 -0.1351 0.054c0,0 0.0844,0.1689 0.2499,0.2567 0.1655,0.0878 0.4019,-0.0034 0.4998,-0.0912 0.0979,-0.0878 0.0642,-0.8105 0.0642,-0.8105l-0.5404 0 -0.0168 -0.2026 0.5572 0.0169c0,0 0.0371,-0.1216 -0.0169,-0.1722 -0.0541,-0.0507 -0.2398,-0.1081 -0.1858,-0.2803 0.0541,-0.1722 0.125,-0.3141 0.3073,-0.2904 0.1824,0.0236 0.2837,0.1587 0.2567,0.2668 -0.027,0.108 -0.1992,0.1823 -0.1925,0.2465 0.0068,0.0641 0.027,0.2026 0.027,0.2026l0.5471 -0.0878 -0.027 0.2094 -0.4964 0.0641c0,0 -0.0304,0.6214 0.0607,0.7261 0.0912,0.1047 0.2162,0.1587 0.3276,0.135 0.1115,-0.0236 0.2161,-0.0877 0.2871,-0.1924 0.0709,-0.1047 0.0911,-0.2466 0.0911,-0.2466l-0.1992 0.0237 0.2701 -0.5201c0,0 0.3242,0.5201 0.2803,0.51 -0.0439,-0.0102 -0.1688,0.0337 -0.1688,0.0337 0,0 0.0101,0.3006 -0.152,0.4559 -0.1621,0.1554 -0.5842,0.2364 -0.6382,0.3174 -0.0541,0.0811 -0.0102,0.277 -0.0102,0.277l-0.2127 0.0607z"/>
  </g>
 </g>
</svg>
