<svg width="16" height="16" xmlns="http://www.w3.org/2000/svg" class="bi bi-cart">

 <g>
  <title>background</title>
  <rect fill="none" id="canvas_background" height="402" width="582" y="-1" x="-1"/>
 </g>
 <g>
  <title>Layer 1</title>
  <path fill="#ffffff" id="svg_1" d="m0,1.5a0.5,0.5 0 0 1 0.5,-0.5l1.5,0a0.5,0.5 0 0 1 0.485,0.379l0.405,1.621l11.61,0a0.5,0.5 0 0 1 0.491,0.592l-1.5,8a0.5,0.5 0 0 1 -0.491,0.408l-9,0a0.5,0.5 0 0 1 -0.491,-0.408l-1.499,-7.985l-0.4,-1.607l-1.11,0a0.5,0.5 0 0 1 -0.5,-0.5zm3.102,2.5l1.313,7l8.17,0l1.313,-7l-10.796,0zm1.898,8a2,2 0 1 0 0,4a2,2 0 0 0 0,-4zm7,0a2,2 0 1 0 0,4a2,2 0 0 0 0,-4zm-7,1a1,1 0 1 1 0,2a1,1 0 0 1 0,-2zm7,0a1,1 0 1 1 0,2a1,1 0 0 1 0,-2z"/>
 </g>
</svg>