<?xml version="1.0" encoding="UTF-8"?>
<!DOCTYPE svg PUBLIC "-//W3C//DTD SVG 1.1//EN" "http://www.w3.org/Graphics/SVG/1.1/DTD/svg11.dtd">
<!-- Creator: CorelDRAW 2019 (64-Bit) -->
<svg xmlns="http://www.w3.org/2000/svg" xml:space="preserve" width="8mm" height="8mm" version="1.1" style="shape-rendering:geometricPrecision; text-rendering:geometricPrecision; image-rendering:optimizeQuality; fill-rule:evenodd; clip-rule:evenodd"
viewBox="0 0 8 8"
 xmlns:xlink="http://www.w3.org/1999/xlink"
 xmlns:xodm="http://www.corel.com/coreldraw/odm/2003">
 <defs>
  <style type="text/css">
   <![CDATA[
    .str1 {stroke:#E31E24;stroke-width:0.2;stroke-miterlimit:22.9256}
    .str0 {stroke:#DC1E37;stroke-width:0.2;stroke-miterlimit:22.9256}
    .fil2 {fill:none}
    .fil1 {fill:#E31E24}
    .fil0 {fill:#955D24}
   ]]>
  </style>
 </defs>
 <g id="Слой_x0020_1">
  <metadata id="CorelCorpID_0Corel-Layer"/>
  <path class="fil0 str0" d="M0.9902 2.3815c0,-1.1245 5.5728,-0.7606 5.4736,0.2646 -0.0992,1.0252 -5.0436,0.926 -5.4736,-0.2646z"/>
  <path class="fil1 str1" d="M0.9902 2.3815c0,0 1.0914,2.7782 1.0749,3.4396 -0.0165,0.6614 2.7121,0.215 3.0097,0.1654 0.2976,-0.0496 1.3494,-3.1995 1.3648,-3.2451 0.0154,-0.0456 -0.1619,0.8763 -2.7312,0.5972 -2.5693,-0.2791 -2.7182,-0.9571 -2.7182,-0.9571z"/>
  <path class="fil2 str1" d="M6.0008 3.5721c0,0 1.3064,-0.0661 1.1245,0.6946 -0.1819,0.7607 -1.5379,0.7276 -1.5379,0.7276"/>
 </g>
</svg>
