<?xml version="1.0" encoding="UTF-8"?>
<!DOCTYPE svg PUBLIC "-//W3C//DTD SVG 1.1//EN" "http://www.w3.org/Graphics/SVG/1.1/DTD/svg11.dtd">
<!-- Creator: CorelDRAW 2019 (64-Bit) -->
<svg xmlns="http://www.w3.org/2000/svg" xml:space="preserve" width="300mm" height="50mm" version="1.1" style="shape-rendering:geometricPrecision; text-rendering:geometricPrecision; image-rendering:optimizeQuality; fill-rule:evenodd; clip-rule:evenodd"
viewBox="0 0 300 50"
 xmlns:xlink="http://www.w3.org/1999/xlink"
 xmlns:xodm="http://www.corel.com/coreldraw/odm/2003">
 <defs>
  <style type="text/css">
   <![CDATA[
    .str0 {stroke:#2B2A29;stroke-width:0.2;stroke-miterlimit:22.9256}
    .str2 {stroke:#2B2A29;stroke-width:0.2;stroke-miterlimit:22.9256}
    .str1 {stroke:#2B2A29;stroke-width:0.2;stroke-miterlimit:22.9256}
    .fil19 {fill:none}
    .fil14 {fill:#FEFEFE}
    .fil8 {fill:#FEFEFE}
    .fil15 {fill:#727271}
    .fil2 {fill:#5B5B5B}
    .fil11 {fill:#434242}
    .fil1 {fill:#2B2A29}
    .fil12 {fill:#E31E24}
    .fil7 {fill:#769897}
    .fil13 {fill:#008DD2}
    .fil17 {fill:#393185}
    .fil9 {fill:#1C1B17}
    .fil3 {fill:#319990}
    .fil6 {fill:#42661F}
    .fil5 {fill:#7C4D31}
    .fil4 {fill:#9DC33C}
    .fil16 {fill:#C3EAF7}
    .fil18 {fill:#FEDE91}
    .fil0 {fill:#FF3F4B}
    .fil10 {fill:#FF9A2D}
   ]]>
  </style>
 </defs>
 <g id="Layer_x0020_1">
  <metadata id="CorelCorpID_0Corel-Layer"/>
  <g id="_2435548639488">
   <path class="fil0 str0" d="M203.5796 39.6077c-0.447,-1.26 -4.8773,-3.2109 -4.105,-4.5115 0.7722,-1.3007 3.6173,1.7883 5.2024,1.2599 1.5852,-0.5284 2.0322,-5.4463 3.1296,-4.9992 1.0974,0.4471 -0.0406,4.7147 0.7723,5.3244 0.8129,0.6096 5.8527,-0.7316 6.1372,0.0813 0.2845,0.8128 -4.5115,2.8857 -5.1618,3.5766 -0.6503,0.691 1.3819,5.6089 0.4065,5.9747 -0.9755,0.3658 -3.0077,-3.8612 -3.9019,-4.1457 -0.8941,-0.2845 -4.0644,3.6986 -4.9179,2.52 -0.8535,-1.1787 2.4386,-5.0805 2.4386,-5.0805z"/>
   <ellipse class="fil1 str0" cx="205.561" cy="38.5611" rx="0.4776" ry="0.4572"/>
   <ellipse class="fil1 str0" cx="207.7965" cy="39.1606" rx="0.4572" ry="0.4064"/>
   <path class="fil2 str0" d="M205.5914 39.5162c-0.0126,0.1321 0.4408,1.4225 1.272,0.691 0.8312,-0.7316 -0.3401,0.2133 -0.636,-0.0102 -0.296,-0.2236 -0.636,-0.6808 -0.636,-0.6808z"/>
  </g>
  <path class="fil3 str0" d="M180.7774 47.9661c0,-1.3576 -0.2361,-2.5971 -0.9444,-2.8923 -0.7083,-0.2951 -1.6527,-0.2951 -2.0659,-0.8263 -0.4132,-0.5313 -0.8559,-1.7118 -1.3576,-1.8299 -0.5017,-0.118 -1.7118,0.1476 -2.7447,-0.4131 -1.033,-0.5608 -0.6493,-1.2691 -1.8594,-1.6528 -1.21,-0.3837 -2.6267,-0.3246 -3.0398,-0.7968 -0.4132,-0.4723 -2.0069,-2.3611 -1.2986,-3.4236 0.7083,-1.0625 0.2361,-2.6562 0.3541,-3.394 0.1181,-0.7378 0.7379,0.4427 0.8559,1.7708 0.1181,1.3281 0,2.9808 0.5313,3.394 0.5312,0.4132 1.7707,-0.5312 2.6561,0.2656 0.8854,0.7969 1.5347,2.5677 2.2135,2.8038 0.6788,0.2361 1.1511,-0.6788 2.3906,0.0295 1.2396,0.7083 1.4166,1.8889 2.1545,2.3906 0.7378,0.5017 1.6527,1.21 2.0954,1.6527 0.4427,0.4427 0.6493,2.0659 0.7969,2.5972 0.1475,0.5312 -1.0035,-3.335 -0.8854,-3.8663 0.118,-0.5312 -0.6198,-1.5937 -1.5052,-2.6857 -0.8854,-1.0919 -0.4132,-1.8888 -0.6788,-2.5676 -0.2656,-0.6788 -0.7378,-0.7378 -0.6788,-1.4757 0.059,-0.7378 0.1771,-1.269 0.0885,-2.0954 -0.0885,-0.8264 -0.4427,-1.6823 -0.2361,-1.7413 0.2066,-0.059 0.0886,2.0069 0.9445,2.9513 0.8558,0.9445 1.0919,1.151 1.4756,1.5937 0.3837,0.4427 -0.5607,0.915 0.0295,1.5643 0.5903,0.6492 1.5937,1.3576 2.0069,2.0069 0.4132,0.6492 0.2066,1.6822 0.4427,1.8593 0.2361,0.1771 0,-2.8628 0.5313,-3.7187 0.5312,-0.8559 0.5017,-2.1545 0.7378,-2.6857 0.2361,-0.5312 1.6527,-2.8333 2.0954,-2.8628 0.4427,-0.0295 -0.3246,1.8003 -0.5902,2.8038 -0.2656,1.0034 0,1.3281 -0.1476,1.9479 -0.1476,0.6197 -1.3871,0.2951 -1.033,1.2395 0.3542,0.9444 0.3837,2.5382 0.2361,3.217 -0.1475,0.6788 -0.7083,1.9478 -0.7968,2.5676 -0.0886,0.6198 0.2066,-0.2361 0.8559,-0.8854 0.6493,-0.6493 0.8263,-0.4132 1.2986,-1.2691 0.4722,-0.8558 -0.2952,-1.0329 0.2656,-1.7117 0.5607,-0.6788 3.1284,-2.0955 3.6006,-2.5972 0.4722,-0.5017 0.2656,-0.8264 0.5312,-1.3576 0.2657,-0.5312 1.2691,-1.4462 1.6233,-1.5937 0.3541,-0.1476 -0.7379,0.8264 -0.8854,1.6822 -0.1476,0.8559 -0.2361,1.5052 -0.3837,1.9184 -0.1476,0.4132 -3.4531,1.5347 -3.4826,2.184 -0.0295,0.6493 0.3542,0.4132 0,1.4756 -0.3541,1.0625 -1.5347,1.9774 -1.8298,2.7153 -0.2951,0.7378 -0.2951,1.269 -0.5017,1.6527 -0.2066,0.3837 -3.8663,0.059 -3.8663,0.059z"/>
  <g id="_2435705558576">
   <path class="fil4 str0" d="M18.8585 42.5731c0,0 1.6678,-3.664 3.3608,-4.9274 1.693,-1.2634 5.079,-2.3247 5.3064,-2.3247 0.2274,0 2.0886,-0.816 2.5521,-0.6317 0.4636,0.1842 1.5414,0.5306 1.5414,0.5306 0,0 -3.5629,6.2414 -4.2451,6.9236 -0.6823,0.6823 -5.079,1.036 -5.2812,1.1118 -0.1604,0.0602 -2.5438,0.1724 -3.1714,-0.3539 -0.2291,-0.1922 -0.063,-0.3283 -0.063,-0.3283z"/>
   <path class="fil5 str0" d="M44.6437 29.0799c0,0 0.3174,1.061 1.2271,1.8949 0.9097,0.8338 2.6478,1.2468 2.183,1.7605 -0.4648,0.5136 -1.7282,1.6254 -2.3978,2.1182 -0.6696,0.4927 -9.1852,1.9583 -10.4992,2.0594 -1.3139,0.1011 -6.0392,0.5054 -6.8983,-0.0505 -0.8591,-0.5559 -0.0727,-3.0196 0.2021,-3.2344 0.2748,-0.2148 13.5693,-4.1062 14.2263,-4.2073 0.657,-0.101 1.9568,-0.3408 1.9568,-0.3408z"/>
   <path class="fil4 str0" d="M17.1054 40.1937c0,0 1.0833,-2.5051 2.7763,-3.7685 1.693,-1.2634 5.079,-2.3247 5.3064,-2.3247 0.2274,0 2.0886,-0.816 2.5522,-0.6317 0.4635,0.1842 1.5413,0.5306 1.5413,0.5306 0,0 -3.5628,6.2414 -4.2451,6.9236 -0.6823,0.6823 -5.079,1.0361 -5.2812,1.1119 -0.1699,0.0637 -2.4372,0.1517 -3.2148,-0.5629 -0.2474,-0.2274 0.5649,-1.2783 0.5649,-1.2783z"/>
   <path class="fil6 str0" d="M45.3393 26.3047c0,0 0.0127,-0.7959 -0.4801,-1.0234 -0.4927,-0.2274 -0.758,-0.2021 -1.036,-0.4295 -0.2779,-0.2274 -1.7561,-2.3374 -3.2217,-2.8175 -1.4656,-0.4801 -2.6532,-0.2779 -3.1081,-0.2527 -0.4548,0.0253 -1.5414,-0.5559 -2.7037,-0.4801 -1.1624,0.0758 -3.2092,0.8339 -3.4113,0.9855 -0.2022,0.1516 -1.8699,-0.3411 -2.7922,-0.0253 -0.9223,0.3159 -1.7183,1.5035 -2.1099,1.5035 -0.3917,0 -1.7057,0.139 -2.0721,0.3664 -0.3664,0.2274 -1.2887,1.3645 -1.5919,1.7941 -0.3032,0.4296 -1.0613,1.0613 -1.3645,1.3898 -0.3032,0.3285 -0.6065,-0.2022 -0.8844,0.3032 -0.278,0.5054 0.1769,1.7941 0.4043,2.1984 0.2274,0.4043 0.1769,1.4403 0.758,1.8699 0.5812,0.4295 1.1877,0.5306 1.6678,0.8591 0.4801,0.3285 0.379,1.036 1.3139,1.3392 0.935,0.3033 1.8699,-0.3032 2.249,-0.0758 0.379,0.2275 0.4801,0.935 1.2887,1.0108 0.8086,0.0758 1.6172,-0.2527 2.072,-0.4296 0.4548,-0.1769 0.4548,0.5938 1.3013,0.657 0.8465,0.0632 1.7183,-0.4548 1.9331,-0.4422 0.2148,0.0126 0.8591,0.3917 1.5161,0.3664 0.657,-0.0253 1.2508,-0.5938 1.5919,-0.7833 0.3412,-0.1895 1.6299,-0.0632 2.1605,-0.3917 0.5307,-0.3285 1.6678,-1.4529 1.8446,-1.8067 0.1769,-0.3538 2.0468,-0.7454 2.5774,-1.175 0.5307,-0.4296 1.1371,-1.8193 1.1371,-1.8193l0.9602 -2.6912z"/>
   <polygon class="fil7 str0" points="36.3437,21.9964 32.0354,22.6155 32.1112,25.3445 33.9937,26.5701 36.7606,25.433 "/>
   <path class="fil7 str0" d="M43.0525 24.8139l-4.4725 -2.7922 -0.518 3.2344c0,0 2.5395,2.35 2.6405,2.2615 0.1011,-0.0884 2.0847,-0.9349 2.0594,-1.0107 -0.0252,-0.0758 0.2906,-1.693 0.2906,-1.693z"/>
   <path class="fil7 str0" d="M39.7171 28.4526l-2.6533 -1.693 -2.3247 1.1118 -0.2527 3.2849c0,0 2.249,0.1264 3.0575,-0.3285 0.8086,-0.4548 2.1732,-2.3752 2.1732,-2.3752z"/>
   <path class="fil7 str0" d="M33.2988 27.783c-0.0758,-0.0379 -1.8067,-1.2003 -1.8067,-1.2003l-2.2237 1.4529 -0.9854 3.285 2.0973 0.5812 2.4005 -0.7328 0.518 -3.386z"/>
   <path class="fil7 str0" d="M27.7523 27.9346c-0.1769,-0.1011 -1.1371,-1.314 -1.1371,-1.314l-1.7182 1.2382 -0.8339 1.7435c0,0 0.379,1.3645 0.5559,1.4151 0.1769,0.0505 2.2489,0.1263 2.2489,0.1263l0.8844 -3.2091z"/>
   <path class="fil7 str0" d="M25.9709 24.1569c0,0 -0.9223,-0.0884 -1.4277,0.3917 -0.5054,0.4801 -1.0866,1.5161 -1.0866,1.5161l1.1119 0.8718 1.5414 -1.2761 -0.139 -1.5035z"/>
   <path class="fil7 str0" d="M30.7214 22.6534c0,0 -1.3771,-0.0505 -1.8067,0.1264 -0.4296,0.1768 -1.8825,1.0865 -1.8825,1.0865l0.101 1.5035 1.4656 1.3898 2.1226 -1.3014 0 -2.8048z"/>
   <path class="fil7 str0" d="M43.7474 28.9706l-0.9097 -0.7202c0,0 -1.5413,0.1643 -1.6551,0.2906 -0.1137,0.1264 -0.8591,1.4403 -0.8591,1.4403 0,0 0.9602,1.2003 1.036,1.1371 0.0758,-0.0631 2.1479,-1.2129 2.1479,-1.2129l0.24 -0.9349z"/>
   <polygon class="fil7 str0" points="39.4581,30.6699 37.5313,32.0344 37.4934,33.38 40.3867,31.8007 "/>
   <polygon class="fil7 str0" points="36.3729,32.2318 34.4651,32.2445 33.985,34.2407 36.1708,33.9122 "/>
   <polygon class="fil7 str0" points="33.0753,32.5098 31.256,33.091 31.2434,34.3165 33.0374,34.0512 "/>
   <path class="fil7 str0" d="M29.9294 33.2173c-0.1011,-0.0379 -2.1352,-0.6317 -2.1352,-0.6317l-0.2527 1.5288 2.211 0.1263 0.1769 -1.0234z"/>
   <polygon class="fil7 str0" points="26.4928,32.3961 24.4713,32.1181 24.067,32.8004 26.2654,33.4574 "/>
   <path class="fil7 str0" d="M23.5806 31.12c-0.2148,-0.2211 -0.4801,-1.0739 -0.4801,-1.0739l-0.8465 -0.2969c0,0 -0.6949,0.5559 -0.6822,0.6001 0.0126,0.0442 1.4908,1.5035 1.4908,1.5035l0.5622 -0.7896 -0.0442 0.0568z"/>
   <path class="fil7 str0" d="M21.6097 28.8522c-0.0316,-0.1011 -0.2969,-0.8465 -0.2969,-0.8465 0,0 -0.3475,0.12 -0.4359,0.2716 -0.0885,0.1516 0.4043,1.1371 0.4611,1.0739 0.0569,-0.0632 0.2717,-0.499 0.2717,-0.499z"/>
   <polygon class="fil7 str0" points="23.7859,27.6393 22.9015,26.6917 22.0298,27.5508 23.2426,28.9785 "/>
   <path class="fil4 str0" d="M60.1855 30.2546c-0.3285,-1.3645 0.7328,-3.7651 -1.415,-5.4328 -2.1479,-1.6677 -2.7038,-1.8951 -4.3463,-1.7435 -1.6424,0.1516 -8.5267,3.3513 -8.8946,3.5376 -0.3678,0.1863 -1.5919,2.7037 -0.3284,4.2451 1.2634,1.5414 2.7542,1.9963 2.7542,1.9963l0.6318 -0.7834c0,0 2.8048,1.1877 5.8118,0.8086 3.0069,-0.379 3.9672,-0.9602 4.043,-1.4403 0.0423,-0.268 -2.4114,0.2288 -4.3862,-0.1505 -1.5622,-0.3001 -2.6638,-2.1237 -2.6638,-2.1237 0.929,0.4774 1.7806,1.4902 2.7871,1.4323l6.0064 -0.3457z"/>
   <ellipse class="fil8 str0" cx="54.399" cy="26.6412" rx="1.693" ry="1.5414"/>
   <path class="fil4 str0" d="M45.656 34.8535c0,0 -0.5812,5.4075 -0.1769,6.2919 0.4043,0.8844 0.0253,2.8806 0.7581,2.5521 0.7328,-0.3285 3.4618,-1.5666 3.5376,-2.7542 0.0758,-1.1877 0.0758,-4.8011 -0.5054,-5.4328 -0.5812,-0.6317 -1.9457,-1.8446 -1.9457,-1.8446l-1.6677 1.1876z"/>
   <path class="fil4 str0" d="M41.941 31.3888c0,0 -0.707,0.862 -0.8839,1.6959 -0.1769,0.8339 -0.3032,3.007 -0.3032,3.007l1.6677 -1.2635c0,0 -4.1441,3.9672 -4.5736,4.4979 -0.4296,0.5306 -2.7291,6.8225 -1.8194,7.6816 0.9097,0.8592 3.1333,-0.101 5.2559,-1.2129 2.1226,-1.1118 3.8282,-3.9798 4.1062,-4.2451 0.2779,-0.2653 0.5548,-3.8608 0.3411,-4.5484 -0.2137,-0.6875 -0.2401,-3.9293 -0.6191,-4.283 -0.379,-0.3538 -1.9646,-1.7857 -3.0479,-1.3732l-0.1238 0.0437z"/>
   <ellipse class="fil9 str0" cx="54.7438" cy="26.6417" rx="0.657" ry="0.4801"/>
  </g>
  <g id="_2435575343984">
   <path class="fil10 str0" d="M149.1872 47.0762c0,0 0.8801,0.2158 1.2366,-0.0205 0.3565,-0.2363 1.7045,-1.0788 1.6711,-1.2946 -0.0335,-0.2158 0.1893,-0.637 -0.1337,-1.2637 -0.3231,-0.6268 -2.295,-2.9796 -2.295,-2.9796 0,0 -1.0137,0.5754 -0.9246,0.5856 0.0891,0.0103 2.3395,2.5378 2.5066,2.9488 0.1671,0.4109 -0.4568,0.8322 -0.7019,1.0993 -0.245,0.2672 -1.3591,0.9247 -1.3591,0.9247z"/>
   <path class="fil10 str0" d="M153.0752 44.8775c0,0 0.6127,-0.5342 0.7798,-0.976 0.1671,-0.4418 0.312,-2.1268 0.156,-2.2912 -0.156,-0.1644 -1.27,-0.9453 -2.0944,-1.0377 -0.8244,-0.0925 -2.8854,-0.1028 -2.8854,-0.1028l-0.0222 0.7809c0,0 3.8991,0.3904 3.9659,0.5137 0.0669,0.1233 0.6239,1.6131 0.1003,3.1131z"/>
   <path class="fil10 str0" d="M152.6519 40.6753c0,0 -0.078,-1.3665 -0.6573,-1.9007 -0.5793,-0.5343 -1.5597,-0.1952 -1.9273,0.0205 -0.3676,0.2158 -2.0944,1.3049 -2.0944,1.3049l0.5904 0.3596c0,0 2.4844,-1.2843 2.6849,-1.2741 0.2005,0.0103 1.4037,1.4898 1.4037,1.4898z"/>
   <path class="fil10 str1" d="M146.2406 44.0967c0,0 -0.6573,-0.6781 -1.2032,-0.8528 -0.5459,-0.1746 -1.3368,-0.3185 -1.4594,-0.2876 -0.1225,0.0308 0.5793,0.5239 0.713,0.6472 0.1337,0.1233 0.869,1.0069 0.869,1.0069l1.0806 -0.5137z"/>
   <path class="fil10 str0" d="M149.8055 41.4973c0,0 -0.1894,2.661 -0.3453,3.0515 -0.156,0.3904 -1.1809,0.863 -1.6934,0.7192 -0.5124,-0.1439 -0.7575,0.1438 -0.7575,0.1438 0,0 -0.1114,0.5754 -1.4706,0.6165 -1.3591,0.0411 -2.3395,-0.4316 -2.6291,-1.0069 -0.2897,-0.5754 0.1003,-1.685 0.1003,-1.685 0,0 0.1893,0.1849 0.3119,0.3596 0.1225,0.1747 0.557,0.4829 0.557,0.4829l-0.0111 -0.3904 0.7352 0.4109 -0.0222 -0.4007 0.8132 0.3596 0.1226 -0.3287c0,0 0.4121,-0.072 0.5347,-0.0411 0.1225,0.0308 0.4902,0.1438 0.791,0.3596 0.3008,0.2157 0.479,0.3082 0.479,0.3082 0,0 0.8912,-0.411 0.6796,-0.6473 -0.2117,-0.2363 -0.713,-0.9658 -0.7687,-1.2637 -0.0557,-0.298 0.1894,-1.1097 0.1894,-1.1097l2.2447 0.0822 0.1393 -0.0205z"/>
   <path class="fil10 str0" d="M139.6232 40.3569c0,0 -1.3369,0.4109 -1.3591,0.5959 -0.0223,0.1849 0.1114,0.6986 0.1225,0.8219 0.0111,0.1233 -0.3119,0.9761 -0.4122,0.9247 -0.1003,-0.0514 -1.036,-0.3596 -1.2254,-0.7603 -0.1894,-0.4007 -0.078,-0.9247 -0.0112,-1.0583 0.0669,-0.1335 -0.0891,-0.863 0.1894,-1.3048 0.2785,-0.4418 1.7713,-1.4795 2.0053,-1.5206 0.2339,-0.0411 0.6907,2.3015 0.6907,2.3015z"/>
   <path class="fil10 str1" d="M142.2412 42.1754c-0.1671,-0.0205 -1.3591,-0.4521 -1.827,-0.3699 -0.4679,0.0822 -0.9247,0.5651 -0.9247,0.5651l1.1363 0.5754 1.6154 -0.7706z"/>
   <path class="fil10 str0" d="M139.1609 37.7935c0,0 -3.3087,-1.6028 -4.3336,-1.2638 -1.025,0.3391 -1.6711,1.3871 -1.7268,1.9008 -0.0557,0.5137 0.0557,0.8836 0.0557,0.8836 0,0 1.6265,-1.9933 1.9384,-1.9727 0.312,0.0205 3.6764,1.0788 3.7989,1.1096 0.1226,0.0308 0.2674,-0.6575 0.2674,-0.6575z"/>
   <path class="fil10 str0" d="M138.2084 38.8671c0,0 -3.2642,1.459 -3.4647,1.6747 -0.2005,0.2158 -0.1225,1.4487 0.1894,1.7878 0.3119,0.339 0.4567,0.9452 0.4567,0.9452 0,0 -1.749,-1.274 -1.6042,-2.1884 0.1449,-0.9144 0.2451,-1.0583 1.582,-1.8802 1.3368,-0.822 3.1806,-1.1045 3.1806,-1.1045l-0.3398 0.7654z"/>
   <path class="fil10 str0" d="M142.6534 42.7405c0,0 -0.4902,0.2569 -0.6573,0.3082 -0.1671,0.0514 -0.2117,-0.2568 -0.2117,-0.2568l-0.7241 0.113 0.0668 -0.3288 -0.7686 -0.0411 0.0222 -0.2877c0,0 -0.401,-0.1438 -0.8466,-0.2363 -0.4457,-0.0924 -1.1526,-0.1845 -1.1526,-0.1845l-0.356 0.8487c0,0 -0.0622,1.2366 1.5531,1.6065 1.6154,0.3698 1.9719,0.1849 2.3507,-0.0822 0.3787,-0.2672 0.7241,-1.459 0.7241,-1.459z"/>
   <path class="fil10 str0" d="M149.682 41.3202c0,0 -1.4473,-2.7922 -4.5109,-3.6449 -3.0636,-0.8528 -6.7213,-0.0712 -7.0184,0.4931 -0.2972,0.5643 2.1389,3.2673 4.6121,3.9865 2.4732,0.7192 6.4257,0.3947 6.9014,-0.6371l0.0158 -0.1976z"/>
   <ellipse class="fil11 str0" cx="145.5109" cy="40.5829" rx="0.5292" ry="0.4007"/>
   <ellipse class="fil11 str0" cx="142.0741" cy="39.5195" rx="0.4902" ry="0.4058"/>
   <path class="fil10 str2" d="M140.041 37.5777c-0.1783,-0.1644 -1.0584,-2.4761 -1.8159,-2.5172 -0.7576,-0.0411 -2.3506,0.7808 -2.2838,1.274 0.2562,-0.0514 1.749,-1.0069 2.0833,-0.6576 0.3342,0.3494 1.3034,2.1988 1.3814,2.1371 0.0779,-0.0616 0.635,-0.2363 0.635,-0.2363z"/>
   <path class="fil12 str0" d="M144.4192 41.5642c-0.312,0.1438 -0.8913,0.3493 -1.1141,0.2876 -0.2228,-0.0616 -0.6239,-0.5342 -0.713,-0.637 -0.0891,-0.1027 0.4345,0.2569 0.7353,0.3391 0.3008,0.0822 1.0918,0.0103 1.0918,0.0103z"/>
  </g>
  <path class="fil13 str0" d="M256.6178 35.9499c0,0 0.1791,1.4329 2.6268,2.4478 2.4478,1.015 5.4329,2.0299 5.4329,2.0299 0,0 -3.403,-5.9105 -2.5672,-6.5672 0.8359,-0.6567 15.4032,-2.7463 18.9853,-8.0001 3.5821,-5.2538 4.0895,-8.0598 4.0895,-9.7613 0,-1.7015 -3.7612,-6.2687 -3.7612,-6.2687 0,0 2.6438,-2.1655 2.6139,-4.4043 -0.0298,-2.2389 -4.9422,-5.6256 -4.9422,-5.6256 0,0 0.9552,1.7314 0.7462,2.9553 -0.2089,1.2238 -1.6119,2.1194 -1.8209,3.5224 -0.2089,1.403 0.2388,1.4328 0.2388,1.4328 0,0 0.209,-0.1492 -1.0448,-0.4477 -1.2537,-0.2986 -1.194,0.4776 -3.7612,-0.1791 -2.5672,-0.6568 -1.9105,-3.7911 -2.3284,-4.209 -0.4179,-0.418 -1.4328,2.4776 -0.9253,4.2388 0.5074,1.7612 2.2089,5.7314 5.1343,5.7612 2.9254,0.0299 2.8657,-2.0298 3.4329,-2 0.5672,0.0299 1.7612,1.9403 1.6716,3.403 -0.0895,1.4627 -0.1492,4.1792 -2.388,5.0747 -2.2389,0.8956 -6.3583,2.7165 -10.836,0.806 -4.4776,-1.9105 -7.3134,-4.806 -12.209,-5.9702 -4.8956,-1.1642 -13.3732,-0.3582 -17.6419,3.3135 -4.2687,3.6717 -3.2836,9.3434 -3.3433,12.5673 -0.0598,3.2239 1.7136,6.7356 4.2985,9.3135 2.5849,2.5778 7.3377,-0.0228 7.6418,-5.209 0,0 0.5615,2.2124 -0.6415,4.3132 -0.9181,1.6034 -2.7475,2.449 -3.657,2.3883 -1.791,-0.1194 2.0896,1.3732 4.1194,0.8956 2.0299,-0.4776 10.9897,-5.3772 10.9897,-5.3772l-0.1537 -0.4439z"/>
  <ellipse class="fil14 str0" cx="247.3875" cy="29.5465" rx="2.0299" ry="1.8508"/>
  <ellipse class="fil9 str0" cx="247.2445" cy="29.3828" rx="0.9254" ry="0.6866"/>
  <g id="_2435575294096">
   <path class="fil15 str0" d="M247.3632 14.1842c0,0 -2.7131,1.2301 -4.7749,2.6681 -2.0617,1.438 -4.1666,3.6333 -5.9308,4.6041 -1.7642,0.9708 -2.6452,1.793 -4.1865,0.9981 -1.5414,-0.7949 -1.9995,-2.3454 -1.3558,-3.2099 0.6437,-0.8645 4.6309,-5.7232 4.6309,-5.7232l11.6171 0.6628z"/>
   <path class="fil16 str0" d="M248.061 15.6129c0.794,-1.0213 1.6718,-1.9971 1.1535,-3.0381 -0.5183,-1.0409 -0.1598,-2.5377 -2.6901,-2.5908 -2.5304,-0.0532 -4.3239,0.6523 -5.925,0.1068 -1.6011,-0.5454 -4.1982,-2.37 -6.1639,-1.9859 -1.9657,0.384 -4.3857,1.085 -5.313,2.5109 -0.9274,1.426 -0.6742,4.4699 0.0822,5.0332 0.7564,0.5632 3.0031,1.1778 2.9738,2.0294 -0.0294,0.8516 4.1005,-1.7173 5.9613,-2.0282 1.8609,-0.311 9.9212,-0.0373 9.9212,-0.0373z"/>
   <path class="fil17 str0" d="M247.9343 15.2078c0,0 -4.6277,-2.2783 -10.7751,-0.6657 -6.1474,1.6125 -5.5127,2.3963 -5.5127,2.3963l0.8325 0.9072c0.1448,0.1578 0.3902,-0.1937 3.5862,-1.4764 6.7112,-0.663 6.5732,-0.9404 8.1175,-0.8488 1.5443,0.0916 3.8783,0.0925 3.8783,0.0925l-0.1267 -0.4051z"/>
   <path class="fil9 str0" d="M233.4203 13.7151c0,0 -0.163,-0.3733 -0.0588,-0.5498 0.1041,-0.1765 0.3659,-0.4436 0.5648,-0.6797 0.1989,-0.2361 0.1627,-0.977 0.1627,-0.977l0.2537 -0.1575 -0.7754 -0.4136 0.0637 0.7802 0.2234 -0.052c0,0 0.0431,0.2946 -0.0917,0.5574 -0.1348,0.2629 -0.5228,0.3582 -0.7287,0.333 -0.2059,-0.0252 -0.8142,-0.9904 -0.8142,-0.9904l0.6989 -0.4875 -0.1609 -0.2773 -0.7055 0.5245c0,0 -0.1578,-0.1237 -0.1336,-0.238 0.0242,-0.1143 0.2127,-0.3561 -0.0126,-0.5301 -0.2253,-0.174 -0.4449,-0.2935 -0.6595,-0.0984 -0.2145,0.1951 -0.2237,0.4612 -0.0913,0.5766 0.1325,0.1154 0.4223,0.0561 0.4714,0.1452 0.0491,0.0891 0.1478,0.2865 0.1478,0.2865l-0.7868 0.38 0.2238 0.2464 0.7 -0.3649c0,0 0.5999,0.7763 0.5764,0.994 -0.0235,0.2177 -0.1363,0.4003 -0.3018,0.4702 -0.1655,0.07 -0.3588,0.0815 -0.5449,0.01 -0.1862,-0.0714 -0.3404,-0.2366 -0.3404,-0.2366l0.2791 -0.1492 -0.8187 -0.4289c0,0 0.0499,0.9651 0.0975,0.9124 0.0477,-0.0527 0.2489,-0.1086 0.2489,-0.1086 0,0 0.258,0.3979 0.6079,0.4526 0.3498,0.0547 0.9689,-0.2213 1.1119,-0.1652 0.143,0.0561 0.2629,0.349 0.2629,0.349l0.33 -0.1133z"/>
  </g>
  <path class="fil3 str0" d="M87.8177 46.708c0,-1.3576 -0.2361,-2.5971 -0.9444,-2.8923 -0.7083,-0.2951 -1.6527,-0.2951 -2.0659,-0.8263 -0.4132,-0.5313 -0.8559,-1.7118 -1.3576,-1.8299 -0.5017,-0.118 -1.7118,0.1476 -2.7447,-0.4131 -1.033,-0.5608 -0.6493,-1.2691 -1.8594,-1.6528 -1.21,-0.3837 -2.6267,-0.3246 -3.0398,-0.7968 -0.4132,-0.4723 -2.0069,-2.3611 -1.2986,-3.4236 0.7083,-1.0625 0.2361,-2.6562 0.3541,-3.394 0.1181,-0.7378 0.7379,0.4427 0.8559,1.7708 0.1181,1.3281 0,2.9808 0.5313,3.394 0.5312,0.4132 1.7707,-0.5312 2.6561,0.2656 0.8854,0.7969 1.5347,2.5677 2.2135,2.8038 0.6788,0.2361 1.1511,-0.6788 2.3906,0.0295 1.2396,0.7083 1.4166,1.8889 2.1545,2.3906 0.7378,0.5017 1.6527,1.21 2.0954,1.6527 0.4427,0.4427 0.6493,2.0659 0.7969,2.5972 0.1475,0.5312 -1.0035,-3.335 -0.8854,-3.8663 0.118,-0.5312 -0.6198,-1.5937 -1.5052,-2.6857 -0.8854,-1.0919 -0.4132,-1.8888 -0.6788,-2.5676 -0.2656,-0.6788 -0.7378,-0.7378 -0.6788,-1.4757 0.059,-0.7378 0.1771,-1.269 0.0885,-2.0954 -0.0885,-0.8264 -0.4427,-1.6823 -0.2361,-1.7413 0.2066,-0.059 0.0886,2.0069 0.9445,2.9513 0.8558,0.9445 1.0919,1.151 1.4756,1.5937 0.3837,0.4427 -0.5607,0.915 0.0295,1.5643 0.5903,0.6492 1.5937,1.3576 2.0069,2.0069 0.4132,0.6492 0.2066,1.6822 0.4427,1.8593 0.2361,0.1771 0,-2.8628 0.5313,-3.7187 0.5312,-0.8559 0.5017,-2.1545 0.7378,-2.6857 0.2361,-0.5312 1.6527,-2.8333 2.0954,-2.8628 0.4427,-0.0295 -0.3246,1.8003 -0.5902,2.8038 -0.2656,1.0034 0,1.3281 -0.1476,1.9479 -0.1476,0.6197 -1.3871,0.2951 -1.033,1.2395 0.3542,0.9444 0.3837,2.5382 0.2361,3.217 -0.1475,0.6788 -0.7083,1.9478 -0.7968,2.5676 -0.0886,0.6198 0.2066,-0.2361 0.8559,-0.8854 0.6493,-0.6493 0.8263,-0.4132 1.2986,-1.2691 0.4722,-0.8558 -0.2952,-1.0329 0.2656,-1.7117 0.5607,-0.6788 3.1284,-2.0955 3.6006,-2.5972 0.4722,-0.5017 0.2656,-0.8264 0.5312,-1.3576 0.2657,-0.5312 1.2691,-1.4462 1.6233,-1.5937 0.3541,-0.1476 -0.7379,0.8264 -0.8854,1.6822 -0.1476,0.8559 -0.2361,1.5052 -0.3837,1.9184 -0.1476,0.4132 -3.4531,1.5347 -3.4826,2.184 -0.0295,0.6493 0.3542,0.4132 0,1.4756 -0.3541,1.0625 -1.5347,1.9774 -1.8298,2.7153 -0.2951,0.7378 -0.2951,1.269 -0.5017,1.6527 -0.2066,0.3837 -3.8663,0.059 -3.8663,0.059z"/>
  <g id="_2435575349904">
   <path class="fil18 str0" d="M107.8481 44.0693c0.3993,-1.1978 -0.3992,-1.8537 0.5418,-2.7092 0.9411,-0.8555 3.9925,-2.7377 4.791,-2.7662 0.7985,-0.0286 2.0818,0.941 2.9944,1.7396 0.9126,0.7985 1.8537,0.941 2.1103,1.2262 0.2567,0.2852 -0.6274,0.8556 -1.3688,1.7111 -0.7415,0.8555 -0.9126,1.8251 -1.6826,2.0533 -0.77,0.2281 -2.9373,-0.9696 -4.848,-0.6274 -1.9107,0.3422 -2.3955,0.6274 -2.5096,0.1711 -0.1141,-0.4563 -0.0285,-0.7985 -0.0285,-0.7985z"/>
   <path class="fil19 str0" d="M114.0257 38.8146c0,0 -0.859,0.6918 -0.6879,2.3459 0.1711,1.654 2.1673,3.8214 2.1673,3.8214"/>
   <path class="fil19 str0" d="M117.4839 41.1424c0,0 -0.1679,0.0181 -0.0681,0.4459 0.0999,0.4277 0.2982,0.8685 0.2982,0.8685"/>
   <path class="fil19 str0" d="M116.4804 40.577c-0.0769,0.17 -0.0199,0.2413 0.0371,0.8687 0.0571,0.6274 0.5276,1.5684 0.5276,1.5684"/>
   <path class="fil19 str0" d="M115.3553 39.6596c-0.0783,0.3744 0.0785,1.7005 0.3067,2.1283 0.2281,0.4277 0.9798,1.8378 0.9798,1.8378"/>
   <path class="fil19 str0" d="M114.5466 39.0982c0,0 -0.2392,1.0499 -0.0111,2.1051 0.2282,1.0551 1.6334,3.1916 1.6334,3.1916"/>
  </g>
 </g>
</svg>
