<?xml version="1.0" encoding="UTF-8" standalone="no"?>
<!-- Created with Inkscape (http://www.inkscape.org/) -->

<svg
   width="5mm"
   height="5mm"
   viewBox="0 0 5 5"
   version="1.1"
   id="svg5"
   inkscape:version="1.1 (c68e22c387, 2021-05-23)"
   sodipodi:docname="bulletList.svg"
   xmlns:inkscape="http://www.inkscape.org/namespaces/inkscape"
   xmlns:sodipodi="http://sodipodi.sourceforge.net/DTD/sodipodi-0.dtd"
   xmlns="http://www.w3.org/2000/svg"
   xmlns:svg="http://www.w3.org/2000/svg">
  <sodipodi:namedview
     id="namedview7"
     pagecolor="#ffffff"
     bordercolor="#666666"
     borderopacity="1.0"
     inkscape:pageshadow="2"
     inkscape:pageopacity="0.0"
     inkscape:pagecheckerboard="0"
     inkscape:document-units="mm"
     showgrid="false"
     width="5mm"
     inkscape:zoom="23.9"
     inkscape:cx="18.6"
     inkscape:cy="11.2"
     inkscape:window-width="1920"
     inkscape:window-height="1001"
     inkscape:window-x="-9"
     inkscape:window-y="-9"
     inkscape:window-maximized="1"
     inkscape:current-layer="layer1" />
  <defs
     id="defs2" />
  <g
     inkscape:label="Layer 1"
     inkscape:groupmode="layer"
     id="layer1">
    <path
       style="fill:#1a521a;fill-opacity:1;stroke:#1b511b;stroke-width:0.1;stroke-linecap:butt;stroke-linejoin:miter;stroke-opacity:1;stroke-miterlimit:4;stroke-dasharray:none"
       d="m 1.64,2.12 c 0,0 0.2,1.4 0.8,1.4 0.9,0 1.6,-3.195 1.6,-3.195 0,0 -1,2.295 -1.6,2.395 -0.4,0 -0.8,-0.6 -0.8,-0.6 z"
       id="path891"
       sodipodi:nodetypes="cscsc" />
    <path
       style="fill:#1a521a;fill-opacity:1;stroke:#1b511b;stroke-width:0.1;stroke-linecap:butt;stroke-linejoin:miter;stroke-opacity:1;stroke-miterlimit:4;stroke-dasharray:none"
       d="m 3.54,2.52 c 0,0 0.7,0.2 0.3,1.3 -0.2,0.7 -2.1,0.9 -2.6,-0.6 -0.297,-1 1.2,-1.7 0.7,-2.1 -1.097,-0.995 -2.398,2.8 -0.3,3.5 1.7,0.6 2.7,-0.1 2.6,-1.2 0,-0.6 -0.7,-0.9 -0.7,-0.9 z"
       id="path1021"
       sodipodi:nodetypes="csssssc" />
  </g>
</svg>
