<?xml version="1.0" encoding="UTF-8"?>
<!DOCTYPE svg PUBLIC "-//W3C//DTD SVG 1.1//EN" "http://www.w3.org/Graphics/SVG/1.1/DTD/svg11.dtd">
<!-- Creator: CorelDRAW 2019 (64-Bit) -->
<svg xmlns="http://www.w3.org/2000/svg" xml:space="preserve" width="100mm" height="100mm" version="1.1" style="shape-rendering:geometricPrecision; text-rendering:geometricPrecision; image-rendering:optimizeQuality; fill-rule:evenodd; clip-rule:evenodd"
viewBox="0 0 100 100"
 xmlns:xlink="http://www.w3.org/1999/xlink"
 xmlns:xodm="http://www.corel.com/coreldraw/odm/2003">
 <defs>
  <style type="text/css">
   <![CDATA[
    .str1 {stroke:#2B2A29;stroke-width:0.0589;stroke-miterlimit:22.9256}
    .str0 {stroke:#6F8B4B;stroke-width:0.0589;stroke-miterlimit:22.9256}
    .str2 {stroke:#2B2A29;stroke-width:0.2;stroke-miterlimit:22.9256}
    .fil13 {fill:none}
    .fil17 {fill:#2B2A29}
    .fil12 {fill:#E31E24}
    .fil11 {fill:#6F8B4A}
    .fil8 {fill:#009846}
    .fil19 {fill:black}
    .fil0 {fill:#6F8B4B}
    .fil6 {fill:#7097D5}
    .fil15 {fill:#771700}
    .fil10 {fill:#7B1721}
    .fil20 {fill:#801B00}
    .fil7 {fill:#8C1821}
    .fil1 {fill:#92B16D}
    .fil9 {fill:#A3BCC0}
    .fil4 {fill:#DE738D}
    .fil3 {fill:#FAF8EC}
    .fil14 {fill:#FBC382}
    .fil2 {fill:#FBC382}
    .fil5 {fill:#FBC382}
    .fil21 {fill:fuchsia}
    .fil16 {fill:white}
    .fil18 {fill:white}
   ]]>
  </style>
 </defs>
 <g id="Layer_x0020_1">
  <metadata id="CorelCorpID_0Corel-Layer"/>
  <path class="fil0 str0" d="M38.5508 84.5816c0,0 1.8982,-7.6911 2.2254,-7.8874 0.3271,-0.1964 11.5858,-0.9162 11.9132,-0.2945 0.3273,0.6216 2.5853,7.822 2.5527,8.182 -0.0327,0.3601 -16.6913,-0.0001 -16.6913,-0.0001z"/>
  <polygon class="fil1 str1" points="40.7257,83.4683 41.9365,77.9371 51.1988,77.7734 51.6897,83.4683 "/>
  <path class="fil2 str1" d="M53.9026 76.3359l-2.5138 0.6962c0,0 -0.27,-0.7872 -0.9463,-0.5791 -0.6763,0.2081 0.4683,0.6636 0.3903,0.8456 -0.078,0.182 -1.0016,0.0129 -1.0797,0.2731 -0.078,0.2602 1.2617,0.4682 1.2617,0.4682 0,0 -1.522,0.182 -1.5349,0.4162 -0.0129,0.2343 1.5609,-0.2079 1.5739,-0.0129 0.0131,0.1951 -1.3397,0.5591 -1.2617,0.7154 0.0781,0.1562 1.4309,-0.247 1.4309,-0.247 0,0 -1.4178,0.6113 -1.3918,0.7674 0.0259,0.156 1.3787,-0.1042 1.3787,-0.1042 0,0 1.4782,-0.539 1.2856,-1.158 -0.1926,-0.619 2.5128,-1.5606 2.5128,-1.5606l-1.1057 -0.5203z"/>
  <path class="fil3 str2" d="M46.0035 77.6887l-0.0704 -0.9894c0.1656,-0.8983 0.3349,-2.1798 0.5914,-1.3032l0.2891 0.9878 0.0301 1.0477 0.3887 -0.0864 0.0507 -1.1443 0.0239 -1.5107 1.1121 -0.0062 -0.0269 2.4278 0.381 -0.0749 -0.0507 -0.9545 0.5134 -0.9996 0.5037 0.8037 0.0737 0.946 0.4327 -0.1785 -0.0535 -0.9698 0.9068 -0.4229 0.1823 1.4353 -0.0584 2.2151 -5.3218 0.5545 0.1021 -1.7775z"/>
  <path class="fil4 str1" d="M56.718 74.0368c0,0 -1.5226,1.4063 -2.4061,1.6682 -0.8835,0.2618 -0.9819,1.0472 -0.9819,1.0472l0.4255 0.851 2.9783 -0.4582 0.2106 -3.093 -0.2264 -0.0152z"/>
  <path class="fil5 str1" d="M58.0798 72.3109c-0.1637,0.1966 -0.229,2.7166 -0.229,2.7166l1.309 0.2945 0.0982 -2.7492 -1.1782 -0.2619z"/>
  <path class="fil2 str1" d="M33.511 73.1967l-0.1075 1.2159c0,0 1.2988,-0.0977 1.2891,-0.1807 -0.0097,-0.083 -0.2735,-1.25 -0.2735,-1.25l-0.9081 0.2148z"/>
  <path class="fil2 str1" d="M39.7905 74.6769l1.8817 -1.5253c0,0 0.7414,-0.8555 0.7842,-1.3544 0.0427,-0.499 -0.2707,-1.0836 0.1141,-1.2974 0.3848,-0.2138 0.6131,0.8553 0.727,1.1262 0.114,0.2708 0.9407,-1.4398 1.1404,-1.34 0.1996,0.0998 -0.6128,1.5681 -0.5131,1.6108 0.0996,0.0428 0.8981,-1.1117 1.1119,-0.9977 0.2137,0.1139 -0.9124,1.2115 -0.6987,1.3113 0.2138,0.0999 1.1974,-0.9836 1.3116,-0.841 0.1141,0.1426 -1.169,1.0978 -0.9693,1.226 0.1996,0.1283 1.012,-0.6984 1.1689,-0.4846 0.1569,0.2138 -0.4486,0.3907 -0.841,0.9407 -0.3924,0.5499 -1.1176,0.5665 -1.7881,0.5017 -0.6705,-0.0649 -1.776,1.3087 -1.9898,1.3658 -0.2138,0.0571 -1.1689,0.4278 -1.1689,0.4278l-0.2709 -0.6699z"/>
  <path class="fil4 str1" d="M56.718 74.0368c0,0 -2.6842,5.5964 -2.095,6.0546 0.5892,0.4582 6.7422,1.5707 7.3967,0.9817 0.6546,-0.589 -0.9818,-6.742 -0.9818,-6.742l-4.3199 -0.2943z"/>
  <polygon class="fil5 str1" points="57.0285,84.0163 56.8648,90.3328 57.8793,90.4638 57.7485,84.0818 "/>
  <polygon class="fil5 str1" points="60.5304,84.7359 61.5449,90.1361 62.3631,90.0379 61.5782,84.5388 "/>
  <path class="fil6 str1" d="M55.7767 80.4825l-1.7922 6.5126c0,0 1.5056,-0.0653 1.9311,-0.4581 0.4255,-0.3929 0.7855,0.5563 1.44,0.8182 0.6545,0.2618 0.9819,-0.5237 1.7019,-0.9493 0.72,-0.4255 1.5384,0.8509 2.1274,1.0146 0.589,0.1636 2.2911,-0.2292 2.9456,-0.5892 0.6545,-0.36 -2.5513,-5.6173 -2.5513,-5.6173l-5.8025 -0.7315z"/>
  <path class="fil7 str1" d="M56.006 89.8732l2.3893 -0.0326 -0.0982 3.2727 -0.8837 -0.0326 0 -1.9637c0,0 -0.1965,0.6871 -1.211,1.1782 -1.0145,0.491 -1.6366,0.6873 -2.0619,0.6873 -0.4253,0 -1.2109,0.1962 -1.1127,-0.3273 0.0982,-0.5235 3.0764,-1.8327 3.0764,-1.8327l-0.0982 -0.9493z"/>
  <path class="fil7 str1" d="M60.7517 90.0367l2.3892 -0.0326 -0.0981 3.2727 -0.8837 -0.0326 0 -1.9638c0,0 -0.1966,0.6872 -1.2111,1.1782 -1.0145,0.4911 -1.6366,0.6874 -2.0619,0.6874 -0.4253,0 -1.2108,0.1961 -1.1127,-0.3274 0.0982,-0.5234 3.0765,-1.8327 3.0765,-1.8327l-0.0982 -0.9492z"/>
  <path class="fil8 str1" d="M36.4341 75.6189c0,0 1.5382,-0.4091 2.2255,-0.8182 0.6874,-0.4091 0.9492,-0.6381 1.162,-0.8182 0.2128,-0.1801 1.3255,0.949 1.1127,1.2764 -0.2128,0.3273 -1.7913,1.5823 -2.6511,1.7183 -0.8597,0.136 -1.6201,0.6054 -1.6201,0.6054l-0.2619 -2.1274 0.0329 0.1637z"/>
  <path class="fil9 str1" d="M30.4602 80.6711l-0.4578 9.9895 2.1832 -0.1164 1.2376 -6.9879 1.3092 6.7094 1.9964 0 -0.2945 -8.7057c0,0 -0.229,-0.3602 -2.4219,-0.3929 -2.193,-0.0327 -3.5522,-0.496 -3.5522,-0.496z"/>
  <path class="fil8 str1" d="M32.3103 74.032c0,0 -1.8986,3.3713 -2.1603,4.7785 -0.2616,1.4072 0.229,2.7819 3.0438,2.9127 2.8147,0.1309 3.7966,-0.2289 4.3203,-0.6545 0.5237,-0.4255 -0.1963,-5.924 -0.8837,-6.873 -0.6874,-0.949 -4.3201,-0.1637 -4.3201,-0.1637z"/>
  <path class="fil8 str1" d="M32.2774 75.5049c-0.4582,0.4582 1.2766,3.1089 2.0293,3.5672 0.7526,0.4584 1.9809,1.0375 2.6837,1.0474 0.7028,0.0099 1.8656,-1.4729 1.5056,-1.8655 -0.36,-0.3927 -1.8003,-0.9817 -2.3566,-1.2109 -0.5564,-0.2292 -1.3421,-1.5384 -1.9638,-1.9311 -0.6216,-0.3926 -2.1258,-0.6058 -1.8982,0.3929z"/>
  <path class="fil10 str1" d="M29.882 90.0156l2.3645 0.1375c0,0 0.2211,1.5593 0.532,1.8346 0.311,0.275 3.0434,0.8463 3.4525,1.0405 0.4091,0.1943 0.2456,0.405 0.2947,0.9394 0.0491,0.5343 -0.9983,0.6963 -1.522,0.7612 -0.5237,0.0648 -5.2367,-0.7937 -5.2367,-0.7937l0.115 -3.9195z"/>
  <path class="fil10 str1" d="M34.3985 88.6737l2.3645 0.1375c0,0 0.2211,1.5594 0.532,1.8346 0.3109,0.275 3.0434,0.8464 3.4525,1.0405 0.4091,0.1943 0.2456,0.4051 0.2947,0.9394 0.049,0.5344 -0.9983,0.6964 -1.522,0.7612 -0.5237,0.0648 -5.2367,-0.7937 -5.2367,-0.7937l0.115 -3.9195z"/>
  <polygon class="fil11 str1" points="38.5508,84.5816 38.6814,86.2508 55.1766,86.1526 55.2421,84.5817 "/>
  <path class="fil2 str1" d="M56.6518 78.6923l-2.5138 0.6962c0,0 -0.2699,-0.7872 -0.9462,-0.5791 -0.6764,0.2081 0.4683,0.6636 0.3903,0.8456 -0.0781,0.182 -1.0017,0.0129 -1.0797,0.2731 -0.078,0.2602 1.2617,0.4682 1.2617,0.4682 0,0 -1.5221,0.182 -1.535,0.4162 -0.0129,0.2343 1.5609,-0.208 1.574,-0.0129 0.0131,0.1951 -1.3397,0.5591 -1.2617,0.7154 0.078,0.1562 1.4308,-0.247 1.4308,-0.247 0,0 -1.4177,0.6113 -1.3918,0.7674 0.026,0.156 1.3788,-0.1042 1.3788,-0.1042 0,0 1.4781,-0.539 1.2856,-1.158 -0.1926,-0.6191 2.5128,-1.5606 2.5128,-1.5606l-1.1058 -0.5203z"/>
  <polygon class="fil11 str1" points="39.973,86.2431 39.826,89.7687 41.6915,89.9815 41.8223,86.232 "/>
  <polygon class="fil11 str1" points="51.7229,86.173 51.6083,91.4053 53.3429,91.4544 53.3112,86.1637 "/>
  <polygon class="fil12 str1" points="43.3766,79.279 44.3585,75.1552 45.6677,75.1225 45.5368,79.1153 "/>
  <polygon class="fil13 str1" points="47.5004,80.3915 47.5004,79.3767 48.9404,79.4423 48.8096,80.6533 "/>
  <polygon class="fil13 str1" points="42.7537,81.5526 42.7537,80.5379 44.1938,80.6034 44.063,81.8145 "/>
  <path class="fil4 str1" d="M59.7613 74.658c0,0 1.1782,0.5237 0.8182,2.1274 -0.36,1.6037 -0.2618,1.8656 -1.2437,2.3893 -0.9819,0.5237 -1.2764,0.9161 -1.8982,0.8508 -0.6219,-0.0653 -1.0801,-1.7345 -1.0801,-1.7345 0,0 1.0801,-0.1964 1.5383,-0.8182 0.4581,-0.6219 0.3928,-3.7965 1.8655,-2.8148z"/>
  <polygon class="fil13 str1" points="46.5175,81.978 46.5175,80.9632 47.9576,81.0288 47.8267,82.2398 "/>
  <path class="fil2 str1" d="M37.3877 78.5493l2.32 0.6964c0,0 1.1244,0.131 1.5609,-0.1146 0.4364,-0.2455 0.7431,-0.8337 1.1365,-0.636 0.3933,0.1976 -0.3618,0.9882 -0.5214,1.2349 -0.1597,0.2467 1.7195,-0.0332 1.7494,0.188 0.0299,0.2212 -1.6409,0.3764 -1.6202,0.4828 0.0208,0.1065 1.4244,0.1164 1.4506,0.3572 0.0262,0.2409 -1.515,-0.0719 -1.4771,0.161 0.0379,0.2328 1.487,0.4358 1.4335,0.6104 -0.0536,0.1746 -1.5654,-0.3481 -1.559,-0.1108 0.0064,0.2372 1.147,0.4432 1.0586,0.6932 -0.0883,0.25 -0.5754,-0.1508 -1.2509,-0.1655 -0.6754,-0.0147 -1.0974,-0.6047 -1.4213,-1.1953 -0.3239,-0.5906 -2.0815,-0.731 -2.249,-0.8755 -0.1676,-0.1446 -1.0117,-0.7253 -1.0117,-0.7253l0.4011 -0.6009z"/>
  <path class="fil14 str1" d="M33.9978 73.5455c-0.3223,0.0293 -0.6543,-0.0587 -1.25,-0.2051 -0.5932,-0.1459 -1.6857,-0.3769 -1.7481,-1.1035 0,0 -0.5907,0.0976 -0.7568,-0.0293 -0.166,-0.1269 -1.1962,-0.9472 -0.5712,-1.5625 0.6249,-0.6152 0.6444,0.1464 0.8691,0.1953 0.2246,0.0488 -0.0684,-1.1816 -0.0391,-1.3086 0.0293,-0.1269 -0.5175,-4.3457 -0.0097,-5.0098 0.5077,-0.664 2.4999,-2.5389 3.3593,-2.4999 0.8593,0.0391 2.3338,0.9471 2.6268,0.9081 0.2929,-0.0391 0.9959,1.0644 1.1033,2.2558 0.1074,1.1913 -0.0684,1.5138 0.2929,2.412 0.2884,0.7168 0.5235,4.0924 -1.3561,5.6168 -0.6567,0.5326 -2.5204,0.3307 -2.5204,0.3307z"/>
  <path class="fil15 str1" d="M29.93 72.3781c-0.083,0.0244 -1.9188,-0.8399 -2.3485,-1.8555 -0.4298,-1.0157 -1.3866,-2.2266 -1.2694,-3.7891 0.1172,-1.5625 1.0546,-3.2421 1.5234,-3.5937 0.4688,-0.3516 -0.7129,-0.6348 -1.0449,-0.5469 -0.3321,0.0879 -0.7618,0.1856 -0.7618,0.1856 0,0 0.4883,-0.6787 1.25,-0.6348 0.7617,0.0439 0.9082,0.127 1.0938,0.2344 0.1855,0.1074 -0.6591,-0.4955 -0.7324,-1.1425 -0.0732,-0.647 0.2539,-0.9766 0.2539,-0.9766 0,0 0.0977,0.5664 0.2344,0.9375 0.1367,0.3711 0.625,0.9961 0.625,0.9961 0,0 0.0195,-1.2891 0.1953,-1.6992 0.1758,-0.4101 0.4687,-0.5273 0.4687,-0.5273 0,0 -0.1822,0.4115 -0.2408,0.7045 -0.0585,0.2929 0.0065,0.9556 0.0065,0.9556l0.957 -1.5625c0,0 0.039,0.3858 -0.0391,0.6983 -0.0781,0.3124 0.1758,0.3954 0.1758,0.3954 0,0 0.3711,-0.6641 0.8789,-0.8789 0.5078,-0.2148 1.1719,-0.2734 1.7187,-0.2734 0.5469,0 0.4687,0.1562 1.2109,0.1172 0.7422,-0.039 1.0938,-0.332 1.6602,0.2344 0.5663,0.5664 0.6249,0.5664 1.4452,0.8984 0.8203,0.332 0.7813,0.6836 0.9766,1.2304 0.1953,0.5469 0.1758,0.8984 0.1758,1.3281 0,0.4297 -0.6836,0.3223 -1.1035,-0.2538 -0.4199,-0.5762 0.1269,1.4062 -0.2832,1.3671 -0.4102,-0.0391 -1.3868,-1.1719 -1.5039,-1.1719 -0.1172,0 0.8008,1.543 0.4101,1.7188 -0.3906,0.1758 -1.5624,-1.3281 -1.5624,-1.3281 0,0 0.9374,1.3085 0.4882,1.4062 -0.4492,0.0977 -2.207,-0.8594 -2.1874,-0.6641 0.0195,0.1954 1.3867,1.2695 1.1718,1.3867 -0.2148,0.1172 -2.1093,-0.3711 -2.1093,-0.3711 0,0 1.6992,1.0352 1.5624,1.1914 -0.1367,0.1563 -1.8163,-0.4297 -1.953,-0.2148 -0.1368,0.2148 0.7421,1.1718 0.5664,1.3281 -0.1758,0.1562 -0.8203,0.4101 -0.9961,0.6445 -0.1758,0.2344 -0.2219,1.8729 -0.2219,1.8729 0,0 -0.3152,-0.574 -0.7546,-0.3396 -0.4395,0.2343 -0.4591,0.8008 -0.3907,1.0107 0.0684,0.21 0.254,0.4638 0.2833,0.6298 0.0293,0.166 0.1706,0.3517 0.1706,0.3517z"/>
  <ellipse class="fil16 str1" cx="34.3202" cy="68.9503" rx="0.8008" ry="0.664"/>
  <ellipse class="fil16 str1" cx="36.2419" cy="68.5574" rx="0.6522" ry="0.5979"/>
  <path class="fil13 str1" d="M35.6742 69.8947c0.1172,0.1367 0.1075,0.0782 0.3028,0.332 0.1953,0.2539 0.3027,0.2149 0.0293,0.3418"/>
  <path class="fil12 str1" d="M34.5682 71.1797c0.1758,0.1465 0.581,0.2442 0.9619,0.1953 0.3808,-0.0488 0.8935,-0.2881 1.04,-0.5127 0.1465,-0.2246 -0.647,1.0572 -0.8276,1.1036 -0.1806,0.0463 -0.2905,0.0537 -0.7202,-0.2979 -0.4297,-0.3516 -0.4541,-0.4883 -0.4541,-0.4883z"/>
  <ellipse class="fil17 str1" cx="34.2426" cy="69.29" rx="0.3271" ry="0.2441"/>
  <ellipse class="fil17 str1" cx="36.1264" cy="68.8059" rx="0.3271" ry="0.2441"/>
  <path class="fil13 str1" d="M30.1712 70.9184c-0.1221,-0.0049 -0.1563,0.1465 -0.127,0.3027 0.0293,0.1563 0.0782,0.3662 0.2197,0.4395 0.1416,0.0732 0.2344,0.1367 0.3174,0.0537"/>
  <path class="fil13 str1" d="M33.5079 67.7274c0.2149,-0.332 0.918,-0.5664 1.1524,-0.4101"/>
  <path class="fil13 str1" d="M35.8126 66.9657c0.2344,-0.293 0.8203,-0.3907 0.9961,-0.0977"/>
  <line class="fil13 str1" x1="33.7454" y1="68.4879" x2="33.5349" y2= "68.2943" />
  <line class="fil13 str1" x1="34.1306" y1="68.0795" x2="34.1661" y2= "68.2985" />
  <line class="fil13 str1" x1="33.7986" y1="68.1039" x2="33.9353" y2= "68.3138" />
  <line class="fil13 str1" x1="34.5701" y1="68.0404" x2="34.515" y2= "68.306" />
  <line class="fil13 str1" x1="34.99" y1="68.1283" x2="34.8386" y2= "68.3822" />
  <line class="fil13 str1" x1="35.6444" y1="67.9038" x2="35.8444" y2= "68.0834" />
  <line class="fil13 str1" x1="36.0545" y1="67.7622" x2="36.1548" y2= "67.9648" />
  <line class="fil13 str1" x1="36.5037" y1="67.7524" x2="36.4367" y2= "67.9867" />
  <line class="fil13 str1" x1="36.7918" y1="67.8305" x2="36.6274" y2= "68.0751" />
  <line class="fil13 str1" x1="36.9676" y1="68.1235" x2="36.8406" y2= "68.2212" />
  <path class="fil14 str1" d="M54.6932 65.2142c0,0 0.8401,1.2135 0.8635,1.797 0.0233,0.5834 -0.2218,0.595 -0.3501,1.6802 -0.1028,0.8691 -0.1616,1.9955 0.5134,3.1505 0.5086,0.87 1.8357,1.4811 3.0959,1.5044 1.2602,0.0233 2.5749,0.0474 3.135,-0.641 0.5602,-0.6884 0.5251,-1.0501 0.5251,-1.0501 0,0 1.3302,0.3034 1.6569,-0.1633 0.3267,-0.4668 0.3617,-0.8169 0.3151,-1.1086 -0.0467,-0.2917 -0.1517,-0.8751 -0.5251,-0.9451 -0.3734,-0.07 -0.5834,0.4434 -0.7118,0.6418 -0.1283,0.1983 0.2217,-0.2334 0.1517,-0.7118 -0.07,-0.4784 1.575,-3.314 0.9216,-4.6208 -0.6534,-1.3068 -0.7001,-3.3605 -2.707,-3.6405 -2.0069,-0.28 -2.3336,-1.6802 -3.6872,-1.6802 -1.3535,0 -1.4936,1.8203 -2.007,2.3803 -0.5133,0.5601 -1.0035,1.5169 -1.0618,1.8553 -0.0583,0.3384 -0.1282,1.5519 -0.1282,1.5519z"/>
  <ellipse class="fil18 str1" cx="56.9791" cy="68.3997" rx="0.6301" ry="0.7934"/>
  <ellipse class="fil18 str1" cx="59.1027" cy="68.633" rx="0.6534" ry="0.9101"/>
  <path class="fil13 str1" d="M57.7026 69.0998c-0.1751,0.3267 0.1867,0.5368 -0.0701,0.8285 -0.2567,0.2917 -0.42,0.3733 -0.315,0.5367 0.105,0.1633 0.8051,0.1167 0.8051,0.1167"/>
  <path class="fil13 str1" d="M56.9324 71.0484c0,0 0.4668,0.5018 0.9452,0.5485 0.4784,0.0466 0.9217,-0.1752 1.1085,-0.2802 0.1867,-0.105 -0.5718,0.7001 -1.1085,0.6652 -0.5368,-0.035 -0.9452,-0.9335 -0.9452,-0.9335z"/>
  <ellipse class="fil19 str1" cx="59.1285" cy="69.0058" rx="0.3206" ry="0.399"/>
  <ellipse class="fil19 str1" cx="57.0984" cy="68.6826" rx="0.3206" ry="0.399"/>
  <path class="fil20 str1" d="M54.367 67.2125c0,0 0.07,-0.5367 -0.2684,-1.4935 -0.3384,-0.9568 -0.2919,-1.6103 -0.1518,-2.4621 0.14,-0.8518 -0.2219,-1.8901 1.7383,-3.1969 1.9603,-1.3069 1.4002,-2.147 3.4538,-1.8203 2.0536,0.3267 2.8937,0.42 3.7339,0.6534 0.8401,0.2334 0.8401,0.0701 1.7269,0.3034 0.8868,0.2333 4.7373,1.9368 2.707,1.8903 -2.0303,-0.0466 -0.28,0.4667 0,1.4002 0.2801,0.9334 1.3069,5.6008 1.4003,7.001 0.0933,1.4001 1.7736,2.9404 1.5869,5.4141 -0.1867,2.4737 -0.7468,3.5472 0.1867,4.2939 0.9334,0.7468 0.9801,0.8868 1.5402,-0.28 0.56,-1.1669 -0.2334,-1.867 -0.2334,-1.867 0,0 1.1668,0.9802 1.1668,1.7269 0,0.7468 -0.4667,1.9136 -1.4468,2.3804 -0.9802,0.4667 -1.3069,0.3267 -2.1003,-0.4201 -0.7935,-0.7467 -1.1669,-0.8868 -1.9603,-2.1003 -0.7935,-1.2135 -1.1202,-2.5203 -1.2135,-3.4538 -0.0934,-0.9335 -0.2334,-1.8669 -0.2334,-1.8669 0,0 -0.2099,-0.0436 -0.3383,-0.6301 -0.1284,-0.5865 -0.9506,-0.8411 -1.0611,-2.0947 -0.1104,-1.2536 -1.0081,-1.5685 -1.1879,-1.0367 -0.1798,0.5318 -0.0031,0.2143 -0.2831,-0.1358 -0.2801,-0.35 -0.2334,-1.9135 -0.4901,-2.3336 -0.2567,-0.4201 -0.7468,-1.2135 -0.7468,-1.2135l-0.0233 -2.4504c0,0 -0.7934,1.9603 -1.2602,1.8436 -0.4667,-0.1167 -0.7702,-2.1003 -0.7702,-2.1003 0,0 -0.2566,1.2602 -0.6067,1.4469 -0.3501,0.1867 -1.1435,-2.1003 -1.1435,-2.1003 0,0 0.5834,2.3104 0.1867,2.3104 -0.3968,0 -1.6803,-2.3337 -1.6803,-2.3337 0,0 0.6301,2.707 0.4667,2.6137 -0.1633,-0.0934 -0.7696,-1.7889 -1.1316,-1.8746 -0.3619,-0.0857 0.0114,1.3612 -0.1986,1.5712 -0.21,0.21 -0.9801,-0.3967 -0.9801,-0.3967 0,0 0.7001,2.2403 0.4901,2.2403 -0.2101,0 -0.8746,0.5716 -0.8746,0.5716z"/>
  <path class="fil21 str1" d="M63.2924 54.5992c0.4667,-0.28 1.7036,4.0839 2.497,4.644 0.7934,0.56 2.3571,-0.35 3.4305,-0.3967 1.0735,-0.0467 0.5597,1.6335 0.0934,2.567 -0.4664,0.9335 -2.8705,0.7585 -3.9906,-1.0268 -1.1201,-1.7852 -2.8004,-1.2135 -3.5471,-1.1202 -0.7468,0.0934 -0.7935,-4.8306 1.5168,-4.6673z"/>
  <path class="fil13 str1" d="M56.4305 66.466c0.1867,-0.3268 0.8401,-0.1867 1.0502,0.1633"/>
  <path class="fil13 str1" d="M58.6475 66.816c0.3734,-0.1867 0.8634,-0.2801 1.1201,0.1634"/>
  <line class="fil13 str1" x1="56.6405" y1="67.5161" x2="56.588" y2= "67.3294" />
  <path class="fil13 str1" d="M56.9906 67.4519c0.0117,-0.0554 0.0175,-0.2275 0.0175,-0.2275"/>
  <path class="fil13 str1" d="M57.3435 67.5307c0.038,-0.1313 0.143,-0.2742 0.1255,-0.2742"/>
  <path class="fil13 str1" d="M57.5622 67.6474c0.07,-0.0292 0.2013,-0.1604 0.2013,-0.1604"/>
  <path class="fil13 str1" d="M58.6735 67.6678c-0.0292,-0.0758 -0.1283,-0.2684 -0.1283,-0.2684"/>
  <path class="fil13 str1" d="M59.0819 67.5686c0.0292,-0.1108 0.0817,-0.2917 0.0817,-0.2917"/>
  <line class="fil13 str1" x1="59.4612" y1="67.6094" x2="59.6653" y2= "67.4461" />
  <path class="fil13 str1" d="M59.8579 67.977c0.07,-0.07 0.2567,-0.2451 0.2567,-0.2451"/>
  <polyline class="fil13 str2" points="47.3071,74.6902 47.9487,73.4454 48.4191,74.6839 "/>
  <ellipse class="fil13 str2" transform="matrix(1.09557 0.0835139 -0.0835139 1.09557 47.9048 75.5739)" rx="0.2645" ry="0.339"/>
 </g>
 <g id="Layer_x0020_1_0">
  <metadata id="CorelCorpID_1Corel-Layer"/>
 </g>
</svg>
