<?xml version="1.0" encoding="UTF-8"?>
<!DOCTYPE svg PUBLIC "-//W3C//DTD SVG 1.1//EN" "http://www.w3.org/Graphics/SVG/1.1/DTD/svg11.dtd">
<!-- Creator: CorelDRAW 2019 (64-Bit) -->
<svg xmlns="http://www.w3.org/2000/svg" xml:space="preserve" width="100mm" height="100mm" version="1.1" style="shape-rendering:geometricPrecision; text-rendering:geometricPrecision; image-rendering:optimizeQuality; fill-rule:evenodd; clip-rule:evenodd"
viewBox="0 0 100 100"
 xmlns:xlink="http://www.w3.org/1999/xlink"
 xmlns:xodm="http://www.corel.com/coreldraw/odm/2003">
 <defs>
  <style type="text/css">
   <![CDATA[
    .str0 {stroke:#2B2A29;stroke-width:0.2;stroke-miterlimit:22.9256}
    .fil1 {fill:#2B2A29}
    .fil3 {fill:#FFED00}
    .fil0 {fill:#E31E24}
    .fil2 {fill:#00A0E3}
   ]]>
  </style>
 </defs>
 <g id="Layer_x0020_1">
  <metadata id="CorelCorpID_0Corel-Layer"/>
  <g id="_2085287765568">
   <path class="fil0 str0" d="M18.9054 95.3877c0,0 -2.4355,-4.5208 -1.5077,-7.2116 0.9279,-2.6908 2.8764,-4.9176 3.6651,-7.1445 0.7887,-2.2268 1.067,-4.4073 0.3248,-6.1239 -0.7423,-1.7165 -1.6237,-3.5722 -1.6237,-3.5722 6.2364,2.7147 6.8478,4.161 9.6256,10.3185 0,0 0.3489,-3.8236 0.0242,-4.3803 -0.3248,-0.5566 5.0568,3.3403 5.1496,8.4436 0.0928,5.1033 -2.2967,9.3456 -2.2967,9.3456 0,0 -4.0292,-3.2223 -4.6393,-4.4073 -0.61,-1.185 -2.1339,-5.0542 -2.1339,-5.0542 0,0 -0.5567,4.361 -1.299,5.3352 -0.7423,0.9742 -5.289,4.4511 -5.289,4.4511z"/>
   <path class="fil1 str0" d="M18.9054 95.3877c0.0928,0.2319 0.7423,0.8814 0.7423,0.8814 0,0 2.366,-1.4962 3.7926,-3.1895 1.4266,-1.6933 2.1221,-4.5059 2.1221,-4.5059 0,0 0.9516,2.7778 2.4361,4.3088 1.4845,1.5309 3.7578,3.2474 3.7578,3.2474l0.5103 -1.067c0,0 -2.5052,-1.0206 -4.6393,-4.4073 -2.134,-3.3867 -1.5309,-8.8611 -1.5309,-8.8611l-1.0207 0.0464c0,0 0.1391,4.0825 -0.232,5.6599 -0.3711,1.5774 -0.1623,2.1573 -1.7629,4.361 -1.6006,2.2037 -4.1754,3.5259 -4.1754,3.5259z"/>
   <polygon class="fil1 str0" points="21.5966,84.6714 20.0192,89.4034 20.7614,89.8442 22.3968,84.9731 "/>
   <polygon class="fil1 str0" points="30.1908,84.6715 31.0028,85.0426 29.147,89.7052 28.1496,89.1252 "/>
   <path class="fil1 str0" d="M43.3554 84.7295l0.8815 0.928c0,0 2.1804,-2.1341 3.2475,-4.129 1.0671,-1.9949 1.8093,-4.7785 1.8093,-4.7785l-0.7422 -0.5567 -4.7089 0.0231 -0.0232 1.1367 4.1753 -0.0232c0,0 0.2435,1.0786 -1.3222,3.5374 -1.5658,2.4588 -3.3171,3.8622 -3.3171,3.8622z"/>
   <path class="fil2 str0" d="M49.8504 72.9366c0,0 -0.232,6.3559 -1.5774,8.2116 -1.3454,1.8557 -5.5671,4.0826 -4.8712,8.4899 0.6959,4.4073 4.6393,6.5878 7.2837,6.495 2.6443,-0.0928 7.3301,-2.5052 7.4229,-5.8919 0.0928,-3.3867 -0.7107,-4.9134 -1.8403,-5.9363 -1.1296,-1.0228 -3.738,-3.8703 -4.218,-4.8039 -0.48,-0.9337 -2.1997,-6.5644 -2.1997,-6.5644z"/>
   <path class="fil1 str0" d="M47.4032 86.2258l0.3015 1.299c0,0 2.6907,0.4523 3.3055,-0.2552 0.6147,-0.7074 0.2437,-9.4524 0.2437,-9.4524 0,0 0.5335,1.5309 1.8093,3.2475 1.2758,1.7165 4.3609,4.2217 4.3609,4.2217l0.7423 -0.9975c0,0 -1.5542,-0.7422 -2.5516,-1.8789 -0.9974,-1.1366 -1.8789,-2.25 -2.0297,-2.4355 -0.1508,-0.1856 3.7231,-4.3608 3.7231,-4.3608l-0.8815 -0.7191 -3.4331 3.8043c0,0 -1.3222,-2.5518 -1.531,-3.2708 -0.2087,-0.7191 -0.232,-3.8738 -0.232,-3.8738l-1.0206 -0.0233c0,0 -0.0697,14.405 -0.1857,14.5906 -0.1159,0.1855 0.0928,0.5103 -0.5103,0.3711 -0.6031,-0.1391 -2.1108,-0.2669 -2.1108,-0.2669z"/>
   <path class="fil1 str0" d="M72.5224 93.3833l-0.0928 -15.82 11.4591 -0.0928c0,0 0.0465,15.7157 0.0465,15.8201 0,0.1043 -1.0555,0.0231 -1.0555,0.0231l-0.116 -14.6254 -8.9306 -0.0118 0.0231 14.7762 -1.3338 -0.0694z"/>
   <polygon class="fil1 str0" points="73.8416,84.1391 82.8063,84.0679 82.6818,85.4381 73.8436,85.4518 "/>
   <polygon class="fil1 str0" points="73.6003,91.1445 83.1514,91.1618 83.1804,92.1129 73.6146,92.1274 73.6164,91.1445 "/>
   <ellipse class="fil3 str0" cx="80.0739" cy="81.752" rx="1.3454" ry="1.4382"/>
   <path class="fil3 str0" d="M82.3681 76.2768c0.0928,-0.2784 0.4175,-1.6237 0.4175,-1.6237l0.6264 0.3131 -1.0439 1.3106z"/>
   <path class="fil3 str0" d="M85.48 79.5109c0.267,-0.1218 1.4728,-0.8011 1.4728,-0.8011l0.1978 0.6717 -1.6706 0.1294z"/>
   <path class="fil3 str0" d="M76.9011 76.3204c-0.169,-0.2399 -1.0591,-1.2997 -1.0591,-1.2997l0.6237 -0.3183 0.4354 1.618z"/>
   <path class="fil3 str0" d="M70.9312 84.2483c-0.2379,0.1719 -1.2869,1.0746 -1.2869,1.0746l-0.3259 -0.6199 1.6128 -0.4547z"/>
   <path class="fil3 str0" d="M85.4853 87.0486c0.2656,0.1248 1.5636,0.6051 1.5636,0.6051l-0.3844 0.5853 -1.1792 -1.1904z"/>
  </g>
 </g>
 <g id="Layer_x0020_1_0">
  <metadata id="CorelCorpID_1Corel-Layer"/>
 </g>
</svg>
