<?xml version="1.0" encoding="UTF-8"?>
<!DOCTYPE svg PUBLIC "-//W3C//DTD SVG 1.1//EN" "http://www.w3.org/Graphics/SVG/1.1/DTD/svg11.dtd">
<!-- Creator: CorelDRAW 2019 -->
<svg xmlns="http://www.w3.org/2000/svg" xml:space="preserve" width="100mm" height="100mm" version="1.1" style="shape-rendering:geometricPrecision; text-rendering:geometricPrecision; image-rendering:optimizeQuality; fill-rule:evenodd; clip-rule:evenodd"
viewBox="0 0 10000 10000"
 xmlns:xlink="http://www.w3.org/1999/xlink"
 xmlns:xodm="http://www.corel.com/coreldraw/odm/2003">
 <defs>
  <style type="text/css">
   <![CDATA[
    .str0 {stroke:#2B2A29;stroke-width:20;stroke-miterlimit:22.9256}
    .fil2 {fill:none}
    .fil3 {fill:#2B2A29}
    .fil7 {fill:#877631}
    .fil1 {fill:#644E43}
    .fil5 {fill:#878787}
    .fil6 {fill:#8AA638}
    .fil4 {fill:#C7C7C7}
    .fil0 {fill:#FBC382}
   ]]>
  </style>
 </defs>
 <g id="Layer_x0020_1">
  <metadata id="CorelCorpID_0Corel-Layer"/>
  <g id="_752485360">
   <path class="fil0 str0" d="M5459.57 8271.68c0,0 -161.28,175.63 -412.54,237.05 -251.25,61.41 -793.48,64.45 -983.31,-264.97 -189.84,-329.42 -111.67,-524.84 -83.75,-591.84 27.91,-67 61.41,-368.51 234.5,-491.34 173.08,-122.84 977.1,-44.67 1111.1,39.08 134,83.75 251.26,279.17 268,418.76 16.75,139.58 -39.08,513.67 -39.08,513.67 0,0 152.15,-166.1 143.77,-22.33 -8.37,143.77 -96.46,192.98 -189.98,199.96 -93.52,6.98 -48.71,-38.04 -48.71,-38.04z"/>
   <path class="fil1 str0" d="M3969.77 7677.56c0,0 13,-391.36 71.63,-508.61 58.62,-117.25 127.02,-168.9 127.02,-168.9l-86.54 8.38c0,0 117.25,-106.09 220.54,-173.09 103.29,-67 396.43,-117.25 639.31,-75.38 242.87,41.88 469.01,184.26 527.63,262.43 58.62,78.16 19.47,15.73 75.3,110.65 55.84,94.92 44.74,-12.94 164.79,299.73 120.04,312.67 13.62,559.59 -13.96,589.05 -27.59,29.46 -138.4,92.29 -138.4,92.29l-137.98 -717.64c1.86,109.81 3.72,219.62 5.58,329.43 -26.05,-110.74 -54.93,-233.46 -78.17,-332.22 -73.51,-26.05 -331.28,31.64 -496.92,47.46l242.88 -128.42c-156.34,19.55 -312.67,39.09 -469.01,58.63l153.54 -92.13c0,0 -192.63,36.29 -281.96,33.5 -89.34,-2.79 -145.17,-47.45 -214.96,-25.12 -69.79,22.33 -111.67,150.75 -156.34,209.38 -44.67,58.62 -153.98,180.58 -153.98,180.58z"/>
   <ellipse class="fil2 str0" cx="5078.55" cy="8028.78" rx="202.4" ry="188.44"/>
   <ellipse class="fil3 str0" cx="5152.49" cy="8023.22" rx="62.81" ry="60.02"/>
   <ellipse class="fil2 str0" cx="4246.58" cy="7784.53" rx="202.4" ry="188.44"/>
   <line class="fil2 str0" x1="4884.84" y1="7973.97" x2="4441.1" y2= "7836.76" />
   <line class="fil2 str0" x1="5269.97" y1="8090.16" x2="5536.36" y2= "8155.83" />
   <path class="fil2 str0" d="M4734.09 8336.06c-39.08,27.91 -80.96,72.58 -131.21,55.83 -50.25,-16.75 -122.83,-78.17 -122.83,-78.17"/>
   <path class="fil4 str0" d="M3342.08 7859.91c0,0 865.44,-214.97 1030.14,-147.96 164.71,67 187.05,591.83 134.01,672.8 -53.05,80.96 -985.48,298.71 -1063.65,256.83 -78.17,-41.87 -164.71,-605.79 -159.12,-678.38 5.58,-72.59 58.62,-103.29 58.62,-103.29z"/>
   <ellipse class="fil5 str0" cx="3901.82" cy="8160.02" rx="341.98" ry="328.02"/>
   <ellipse class="fil3 str0" cx="3907.52" cy="8172.94" rx="238.78" ry="217.41"/>
   <ellipse class="fil3 str0" cx="4306.62" cy="7818.03" rx="68.39" ry="78.17"/>
   <path class="fil0 str0" d="M3242.98 7843.16c0,0 15.97,28.84 24.17,36.98 50.03,49.7 85.5,40.92 91.68,24.43 8.37,-22.33 -62.47,-115.68 -90.39,-109.4 -27.91,6.28 -25.46,47.99 -25.46,47.99z"/>
   <path class="fil0 str0" d="M3425.41 7817.69c0,0 12.63,12.38 32.17,-0.88 19.54,-13.26 -6.97,-53.75 -25.12,-76.08 -18.15,-22.33 -52.35,-47.46 -65.61,-37.68 -13.26,9.77 -1.45,58.92 -1.45,58.92l60.01 55.72z"/>
   <path class="fil0 str0" d="M3308.23 7756.09c-15.36,10.47 3.59,64.58 11.08,73.53 7.48,8.95 80.34,64.66 103.38,47.21 23.03,-17.45 6.28,-43.97 -40.48,-85.84 -46.77,-41.88 -77.51,-30.75 -77.51,-30.75l3.53 -4.15z"/>
   <path class="fil4 str0" d="M4435.39 8606.85c8.38,0 96.32,-36.3 121.44,-13.96 25.12,22.33 57.23,30.71 104.69,37.68 47.46,6.98 110.27,-8.37 129.81,-12.56 19.55,-4.18 90.73,2.79 101.9,9.77 11.17,6.98 83.76,453.66 71.19,482.97 -12.56,29.31 -491.34,53.04 -519.25,34.89 -27.92,-18.14 -9.78,-538.79 -9.78,-538.79z"/>
   <path class="fil0 str0" d="M4914.23 8720.41c0,0 139.55,289.83 139.55,319.14 0,29.32 -9.77,54.45 -12.56,86.55 -2.79,32.1 -5.59,78.17 8.37,89.33 13.96,11.17 15.35,-61.41 27.92,-57.23 12.56,4.19 20.93,78.17 34.89,78.17 13.96,0 8.38,-83.75 8.38,-83.75 0,0 20.94,83.75 33.5,82.36 12.56,-1.4 1.4,-85.15 1.4,-85.15 0,0 27.91,62.81 39.08,68.4 11.17,5.58 6.98,-64.22 -1.39,-78.17 -8.38,-13.96 -65.61,-160.53 -80.97,-209.38 -15.35,-48.86 -166.08,-297.33 -192.62,-300.11 -26.55,-2.79 -26.55,-2.79 -26.55,-2.79l21 92.63z"/>
   <polygon class="fil0 str0" points="4237.2,8484.01 4434.62,8630.68 4432.48,8708.84 4131.53,8522.16 "/>
   <path class="fil0 str0" d="M4553.65 8590.56c0,0 45.78,-8.16 60.44,-17.23 14.66,-9.07 16.46,-36.35 16.46,-36.35l109.9 12.22c0,0 11.83,25.53 25.79,42.28 13.96,16.75 33.44,25.53 33.44,25.53 0,0 -74.45,17.31 -127.52,16.63 -53.07,-0.68 -118.51,-43.08 -118.51,-43.08z"/>
   <polygon class="fil0 str0" points="4756.15,9437.36 4818.96,9433.17 4821.05,9576.94 4823.85,9653.72 4744.28,9644.64 "/>
   <polygon class="fil0 str0" points="4563.93,9469.78 4564.91,9629.99 4640.29,9634.18 4634.01,9431.78 "/>
   <path class="fil6 str0" d="M4457.41 9148.86c0,0 -24.07,249.41 -17.09,263.37 6.98,13.96 48.85,57.23 101.9,58.63 53.04,1.4 129.81,-32.1 129.81,-32.1l27.92 -138.2c0,0 11.17,138.2 23.73,142.38 12.56,4.19 62.81,15.36 103.29,1.4 40.48,-13.96 99.11,-39.09 94.92,-50.25 -4.19,-11.17 -15.35,-284.76 -15.35,-284.76l-449.13 39.53z"/>
   <path class="fil7 str0" d="M4838.5 9574.85c0,0 29.31,-24.43 71.19,-33.5 41.88,-9.07 106.09,4.88 114.47,30.01 8.37,25.13 15.35,107.48 -66.31,112.37 -81.66,4.88 -207.29,13.26 -213.57,-2.79 -6.28,-16.06 -4.88,-90.04 -4.88,-90.04l99.1 -16.05z"/>
   <path class="fil7 str0" d="M4555.14 9570.66c0,0 -165.41,-89.33 -197.52,0 -32.1,89.34 41.18,87.94 62.82,95.62 21.63,7.68 164.71,24.43 191.93,13.96 27.22,-10.47 41.88,-71.19 41.88,-71.19l-1.25 -12.26 -97.86 -26.13z"/>
   <path class="fil2 str0" d="M4684.95 7843.1c0,0 30.87,154.35 49.61,192.93 18.74,38.58 20.95,54.02 -11.02,81.58 -31.97,27.56 -82.69,22.05 -82.69,22.05"/>
  </g>
 </g>
</svg>
