<?xml version="1.0" encoding="UTF-8"?>
<!DOCTYPE svg PUBLIC "-//W3C//DTD SVG 1.1//EN" "http://www.w3.org/Graphics/SVG/1.1/DTD/svg11.dtd">
<!-- Creator: CorelDRAW 2019 (64-Bit) -->
<svg xmlns="http://www.w3.org/2000/svg" xml:space="preserve" width="100mm" height="100mm" version="1.1" style="shape-rendering:geometricPrecision; text-rendering:geometricPrecision; image-rendering:optimizeQuality; fill-rule:evenodd; clip-rule:evenodd"
viewBox="0 0 100 100"
 xmlns:xlink="http://www.w3.org/1999/xlink"
 xmlns:xodm="http://www.corel.com/coreldraw/odm/2003">
 <defs>
  <style type="text/css">
   <![CDATA[
    .str0 {stroke:#2B2A29;stroke-width:0.2;stroke-miterlimit:22.9256}
    .fil19 {fill:none}
    .fil3 {fill:#FEFEFE}
    .fil20 {fill:#2B2A29}
    .fil4 {fill:#2B2A29}
    .fil5 {fill:#FFED00}
    .fil6 {fill:#E31E24}
    .fil15 {fill:#255E9E}
    .fil7 {fill:#2E6EAF}
    .fil8 {fill:#4BBC00}
    .fil14 {fill:#4EC600}
    .fil0 {fill:#A44825}
    .fil16 {fill:#A7541F}
    .fil2 {fill:#CD0000}
    .fil9 {fill:#D7B90E}
    .fil12 {fill:#E35D03}
    .fil11 {fill:#EC9F9F}
    .fil1 {fill:#F6D294}
    .fil13 {fill:#F8D510}
    .fil17 {fill:#FED70C}
    .fil10 {fill:#FF6B08}
    .fil18 {fill:#FF6D0B}
   ]]>
  </style>
 </defs>
 <g id="Layer_x0020_1">
  <metadata id="CorelCorpID_0Corel-Layer"/>
  <path class="fil0 str0" d="M15.8006 83.8344c-0.5291,-0.6946 -0.6035,-2.654 -0.9673,-2.8525 -0.3638,-0.1985 -2.8194,1.2319 -2.0257,-2.0423 0.7937,-3.2742 1.9346,-1.5544 2.3646,-1.3891 0.43,0.1653 1.5214,-0.6946 2.6459,-0.893 1.1245,-0.1984 2.4143,0.3307 2.7781,0.3307 0.3638,0 1.1742,-1.0584 2.3648,0.0992 1.1906,1.1576 -0.3803,2.8278 -0.3142,3.2247 0.0661,0.3969 0.6472,2.0531 0.2504,2.5492 -0.3968,0.4961 -2.2348,2.2298 -2.9955,2.2298 -0.7607,0 -4.1011,-1.2567 -4.1011,-1.2567z"/>
  <path class="fil1 str0" d="M16.3628 82.925c0.3638,-0.7607 1.1575,-2.9435 2.8112,-3.1089 1.6537,-0.1654 3.0428,1.389 3.1089,2.3151 0.0661,0.9261 -1.2032,2.4019 -2.2326,2.5797 -1.0294,0.1778 -3.9688,-0.0827 -3.6875,-1.7859z"/>
  <path class="fil2 str0" d="M16.991 82.1476c2.9187,3.3818 3.5966,1.1989 4.3077,0.6201 0.7111,-0.5788 -1.0573,0.3617 -1.7932,0.3038 -0.7359,-0.0579 -2.5145,-0.9239 -2.5145,-0.9239z"/>
  <path class="fil0 str0" d="M18.6612 80.2129c0.0082,-0.1778 1.9019,-0.2728 2.0671,0.0166 0.1652,0.2894 -0.5042,1.2568 -0.9425,1.3064 -0.4383,0.0496 -1.1328,-1.1452 -1.1246,-1.323z"/>
  <ellipse class="fil3 str0" cx="17.9077" cy="79.4277" rx="0.6471" ry="0.5551"/>
  <ellipse class="fil3 str0" cx="20.543" cy="79.3935" rx="0.5043" ry="0.5209"/>
  <ellipse class="fil4 str0" cx="18.0161" cy="79.465" rx="0.3059" ry="0.215"/>
  <path class="fil0 str0" d="M22.9933 89.3129c0,0 0.5291,0.9096 0.8268,0.8269 0.2977,-0.0827 2.497,-1.6041 3.3404,-1.0253 0.8434,0.5788 -0.1323,3.9689 -1.2237,4.4649 -1.0914,0.496 -2.067,0.4464 -2.3647,0.248 -0.2977,-0.1984 -0.6781,-0.3804 -1.2403,-0.6119 -0.5622,-0.2315 -1.22,-0.6277 -1.22,-0.6277 0,0 0.3271,-1.3732 0.6578,-1.9189 0.3307,-0.5457 1.2237,-1.356 1.2237,-1.356z"/>
  <ellipse class="fil4 str0" cx="20.5545" cy="79.4733" rx="0.248" ry="0.215"/>
  <path class="fil0 str0" d="M15.8168 83.9465c-0.4713,0.306 -1.5545,0.8847 -1.447,1.232 0.1075,0.3473 1.1823,0.7939 1.7115,1.6207 0.5292,0.8268 0.6615,1.1246 0.7607,2.1167 0.0992,0.9921 -1.2402,3.3569 -1.3725,3.853 -0.1323,0.4961 0.4464,0.4796 0.9756,0.5788 0.5292,0.0992 3.9356,-0.0662 4.5971,-0.6946 0.6615,-0.6284 0.8268,-0.5622 1.3891,-1.9182 0.5623,-1.356 0.6285,-2.1498 0.3308,-3.5058 -0.2977,-1.356 -0.8836,-1.9776 -1.0915,-2.4474 -0.2079,-0.4698 -0.2937,-0.4071 -0.2937,-0.4071 0,0 -0.4659,0.6456 -1.4752,0.7165 -1.0093,0.0709 -4.0849,-1.1446 -4.0849,-1.1446z"/>
  <path class="fil0 str0" d="M17.2717 94.2077c-0.3308,-0.463 -0.7276,-1.1411 -0.6615,-1.9017 0.0661,-0.7606 0.8929,-2.3648 1.9678,-2.6293 1.0749,-0.2645 2.001,-0.5954 2.3317,1.2237 0.3307,1.8191 0.2976,2.8443 -0.3969,3.4396 -0.6945,0.5953 -2.7781,0.6946 -3.2411,-0.1323z"/>
  <path class="fil0 str0" d="M21.4627 84.3119c0,0 1.7787,0.2056 2.7378,1.2639 0.9591,1.0583 2.0008,2.8111 1.4386,3.2411 -0.5622,0.43 -2.5631,-0.4465 -2.96,-0.7276 -0.3969,-0.2811 -1.3022,-3.7147 -1.3022,-3.7147l0.0858 -0.0627z"/>
  <path class="fil0 str0" d="M15.9249 83.8807c0,0 0.9498,1.0503 0.9829,1.3645 0.0331,0.3142 -0.2812,0.9426 -0.0331,1.0418 0.2481,0.0992 0.9922,-0.0166 1.5214,0.6118 0.5292,0.6284 0.6284,1.2072 0.3142,1.571 -0.3142,0.3638 -1.4935,0.932 -1.6867,0.9095 -0.1932,-0.0225 -2.7616,-4.3821 -2.7616,-4.3821l1.6629 -1.1165z"/>
  <path class="fil1 str0" d="M13.7805 77.9709c-0.1323,0.0992 -0.3473,0.4631 -0.4134,1.108 -0.0661,0.6449 0.0662,1.2898 0.3142,1.5544 0.248,0.2646 0.6614,-0.182 0.8268,-0.7938 0.1654,-0.6118 0.2316,-1.422 0.0166,-1.6701 -0.215,-0.2481 -0.7442,-0.1985 -0.7442,-0.1985z"/>
  <path class="fil1 str0" d="M21.8173 77.2102c0.3803,-0.2315 0.9096,-0.0329 1.0253,0.2812 0.1157,0.3141 0.1488,1.2897 -0.1985,1.4882 -0.3473,0.1985 -0.8763,-0.1984 -0.9756,-0.5953 -0.0993,-0.3969 0.2507,-1.2248 0.2507,-1.2248l-0.1019 0.0507z"/>
  <ellipse class="fil5 str0" cx="11.9267" cy="89.4026" rx="4.9444" ry="5.1594"/>
  <path class="fil6 str0" d="M10.8532 87.4267c0,0 -0.2481,-0.4962 -0.43,-1.1411 -0.1819,-0.6449 -0.2636,-1.618 -0.2636,-1.618 0,0 -1.1166,0.3155 -2.0967,1.5869 -0.9801,1.2714 -1.0775,2.7929 -1.0775,2.7929 0,0 0.9409,-0.5956 1.9165,-0.8105 0.9756,-0.2149 1.4055,-0.1487 1.5213,-0.2149 0.1158,-0.0662 0.43,-0.5953 0.43,-0.5953z"/>
  <path class="fil6 str0" d="M11.2665 87.4102c0,0 0.5456,-0.8432 1.3394,-1.3063 0.7938,-0.4631 1.7589,-1.0908 1.7589,-1.0908 0,0 1.1876,0.6059 1.6946,1.6712 0.507,1.0653 0.7947,2.6649 0.7947,2.6649 0,0 -1.0567,-0.9136 -2.2142,-1.1617 -1.1575,-0.2481 -3.0096,-0.3308 -3.0096,-0.3308l-0.3638 -0.4465z"/>
  <path class="fil6 str0" d="M10.5718 88.5515c0,0 -0.6284,0.8601 -0.893,1.8853 -0.2646,1.0252 -0.3142,3.3569 -0.3142,3.3569 0,0 0.7438,0.8155 1.9335,0.8201 1.1897,0.0046 2.9872,-0.5931 2.9872,-0.5931 0,0 -1.233,-1.5499 -1.9606,-2.9886 -0.7276,-1.4387 -1.0584,-2.4639 -1.0584,-2.4639l-0.7545 0.0699 0.06 -0.0866z"/>
  <ellipse class="fil6 str0" cx="10.9191" cy="88.0557" rx="0.6449" ry="0.6118"/>
  <path class="fil7 str0" d="M84.2401 93.9829c0,0 0.9591,-0.7774 1.4221,-1.0916 0.463,-0.3142 1.0914,-1.141 1.0914,-1.141 0,0 0.5457,1.3064 -0.215,1.9513 -0.7607,0.6449 -2.2985,0.2813 -2.2985,0.2813z"/>
  <path class="fil8 str0" d="M84.2401 93.9829l-3.0924 0.1156c0,0 2.1002,-1.2073 3.1585,-2.1498 1.0583,-0.9425 2.8443,-2.8938 2.8443,-2.8938l-0.3969 2.6954c0,0 -0.6027,0.7839 -1.0914,1.141 -0.4887,0.3571 -1.4221,1.0916 -1.4221,1.0916z"/>
  <path class="fil9 str0" d="M87.1505 89.0549l0.3142 -2.5632c0,0 -1.9349,2.8112 -3.0924,3.6711 -1.1575,0.8599 -5.6885,3.8365 -5.6885,3.8365l2.4639 0.0992c0.6606,-0.4169 1.3213,-0.8338 1.9819,-1.2507 0.4922,-0.3914 0.9843,-0.7829 1.4765,-1.1743l2.5444 -2.6186z"/>
  <path class="fil10 str0" d="M78.6838 93.9993l-1.5545 -0.0993c0,0 3.1964,-1.5293 6.3335,-4.1506 3.1371,-2.6213 4.1508,-4.465 4.1508,-4.465l-0.1958 1.2748c0,0 -1.8513,2.4961 -2.8741,3.4671 -1.0228,0.971 -5.8599,3.973 -5.8599,3.973z"/>
  <path class="fil11 str0" d="M77.1293 93.9c0,0 -1.0995,0.6853 -1.7279,0.3877 -0.6284,-0.2976 -0.43,-1.3063 -0.4134,-1.4717 0.0166,-0.1654 -0.2813,0.529 1.3724,0.066 1.6537,-0.463 3.8036,-1.8854 6.284,-3.9359 2.4804,-2.0505 2.8787,-2.8779 3.5056,-3.9357 0.6269,-1.0578 0.4796,-1.1247 0.6036,-1.7281 0.124,-0.6034 -0.2208,-0.8273 -0.2208,-0.8273l1.2212 -0.1731c0,0 0.711,0.066 0.5292,1.1244 -0.1818,1.0584 -0.6696,1.8781 -0.6696,1.8781 0,0 -2.1181,2.6474 -3.9323,4.2376 -1.8142,1.5902 -2.6976,2.2437 -3.8186,2.876 -1.121,0.6323 -2.7334,1.502 -2.7334,1.502z"/>
  <path class="fil12 str0" d="M74.988 92.816l0.5989 -1.4191c0,0 -0.3347,0.4097 0.8063,-0.0203 1.141,-0.43 3.5595,-1.4618 5.2359,-3.0543 1.6764,-1.5925 2.0238,-1.5678 2.8671,-2.7749 0.8433,-1.2071 0.9096,-1.4304 0.8103,-1.9265 -0.0993,-0.4961 -0.5562,-0.7751 -0.5562,-0.7751l1.7124 -0.3754c0,0 0.4381,0.1308 0.3058,0.7262 -0.1323,0.5954 -0.7172,3.2861 -4.1241,5.7495 -3.4069,2.4634 -4.4818,3.1 -4.9779,3.3398 -0.4961,0.2398 -1.3437,0.7305 -1.9107,0.7309 -0.567,0.0004 -0.7732,-0.1577 -0.7732,-0.1577l0.0054 -0.0431z"/>
  <path class="fil13 str0" d="M84.7062 82.9096c0,0 2.3573,1.3586 -3.0771,5.4127 -5.4344,4.0541 -5.9777,3.4267 -6.045,3.1499 -0.0673,-0.2768 1.1976,-2.4279 1.1976,-2.4279 0,0 -0.182,0.2977 0.372,0.2315 0.554,-0.0662 2.0667,-0.6864 3.2078,-1.7943 1.1411,-1.1079 1.9845,-1.7529 2.3152,-2.4309 0.3307,-0.678 0.1323,-1.2238 0.0496,-1.3229 -0.0827,-0.0991 1.9799,-0.8181 1.9799,-0.8181z"/>
  <path class="fil14 str0" d="M77.7863 87.403c0,0 1.0042,0.1942 1.9799,-0.5995 0.9757,-0.7937 1.3229,-1.0252 1.356,-1.6371 0.0331,-0.6119 -0.1819,-0.7276 -0.1819,-0.7276l1.7844 -0.7137c0.1331,0.6664 0.4399,1.3471 -1.9699,3.5166 -0.518,0.4663 -2.4806,1.7991 -3.2078,1.8303l-0.8016 0.0345 1.0409 -1.7035z"/>
  <path class="fil15 str0" d="M77.7863 87.403l0.7397 -1.509c0,0 0.248,0.3472 0.6945,0.0496 0.4465,-0.2976 0.3473,-0.8103 0.3473,-0.8103l1.4157 -0.6649c0.1187,0.8727 -0.0436,1.7567 -2.018,2.7216 -0.3265,0.1596 -0.6513,-0.0018 -1.1792,0.213z"/>
  <path class="fil16 str0" d="M78.526 85.894c0,0 0.4219,0.0752 0.6534,-0.1481 0.2315,-0.2233 0.2812,-0.5788 0.2812,-0.5788 0,0 -6.9704,-8.5166 -7.1027,-8.5166 -0.1323,0 -0.3473,-0.1323 -0.9922,0.3142 -0.6449,0.4465 -0.8764,0.7112 -0.6118,1.108 0.2646,0.3968 7.7859,7.7934 7.7859,7.7934l-0.0138 0.0279z"/>
  <path class="fil17 str0" d="M49.324 84.7647c2.6459,-1.819 3.2509,-6.1931 -0.8103,-6.4162 -3.0095,-0.1653 -3.1253,1.8851 -3.4561,2.8773 -0.3308,0.9922 0.6614,2.5963 0.6614,2.9932 0,0.3969 -2.5136,2.1664 -2.8112,4.1507 -0.2976,1.9843 1.1245,5.3909 5.9532,5.0271 11.6368,-0.8767 6.8592,-9.5322 6.4823,-9.5582 -0.9591,-0.0661 -1.0253,1.7199 -1.819,1.8191 -0.7937,0.0992 -2.0836,-0.5954 -2.6789,-0.7938 -0.5953,-0.1984 -1.3387,-0.234 -1.3387,-0.234l-0.1827 0.1348z"/>
  <path class="fil18 str0" d="M45.5327 79.7725c0,0 -0.7277,0.4709 -1.1907,0.4379 -0.463,-0.033 -1.3064,-0.7937 -1.8025,-0.4299 -0.4961,0.3638 1.6867,2.2159 1.6867,2.2159 0,0 -1.4718,-0.0827 -1.4552,0.3307 0.0166,0.4134 0.9756,0.5127 1.4056,0.5788 0.43,0.0661 1.1613,0.2378 1.1613,0.2378 0,0 0.0295,-1.0315 -0.0202,-1.5607 -0.0497,-0.5292 0.215,-1.8105 0.215,-1.8105z"/>
  <path class="fil19 str0" d="M46.0365 87.8335c1.0418,-1.7859 2.2822,-2.1497 4.5311,-0.6614 2.2489,1.4883 2.7946,0.2149 2.96,0.1653 0.1654,-0.0496 -0.6615,3.2577 -3.3404,3.3073 -2.6789,0.0496 -4.5972,-1.6536 -4.1507,-2.8112z"/>
  <ellipse class="fil3 str0" cx="47.0285" cy="80.6812" rx="0.7772" ry="1.0831"/>
  <ellipse class="fil20 str0" cx="46.9458" cy="80.2347" rx="0.2563" ry="0.248"/>
 </g>
 <g id="Layer_x0020_1_0">
  <metadata id="CorelCorpID_1Corel-Layer"/>
 </g>
</svg>
