<?xml version="1.0" encoding="UTF-8"?>
<!DOCTYPE svg PUBLIC "-//W3C//DTD SVG 1.1//EN" "http://www.w3.org/Graphics/SVG/1.1/DTD/svg11.dtd">
<!-- Creator: CorelDRAW 2019 (64-Bit) -->
<svg xmlns="http://www.w3.org/2000/svg" xml:space="preserve" width="100mm" height="100mm" version="1.1" style="shape-rendering:geometricPrecision; text-rendering:geometricPrecision; image-rendering:optimizeQuality; fill-rule:evenodd; clip-rule:evenodd"
viewBox="0 0 100 100"
 xmlns:xlink="http://www.w3.org/1999/xlink"
 xmlns:xodm="http://www.corel.com/coreldraw/odm/2003">
 <defs>
  <style type="text/css">
   <![CDATA[
    .str2 {stroke:#2B2A29;stroke-width:0.0086;stroke-miterlimit:22.9256}
    .str3 {stroke:#2B2A29;stroke-width:0.0138;stroke-miterlimit:22.9256}
    .str4 {stroke:#00A0E3;stroke-width:0.0706;stroke-miterlimit:22.9256}
    .str5 {stroke:#00A7EB;stroke-width:0.0706;stroke-miterlimit:22.9256}
    .str0 {stroke:#2B2A29;stroke-width:0.0706;stroke-miterlimit:22.9256}
    .str1 {stroke:#2B2A29;stroke-width:0.2;stroke-miterlimit:22.9256}
    .str6 {stroke:#64FFFF;stroke-width:0.2;stroke-miterlimit:22.9256}
    .fil13 {fill:none}
    .fil9 {fill:#0090D6}
    .fil5 {fill:#00A0E3}
    .fil11 {fill:#23479D}
    .fil4 {fill:#2B2A29}
    .fil6 {fill:#2E3293}
    .fil0 {fill:#3775B6}
    .fil15 {fill:#64FFFF}
    .fil1 {fill:#E0EEF0}
    .fil14 {fill:#EE2422}
    .fil2 {fill:#F9F9FB}
    .fil7 {fill:#FBD3D3}
    .fil12 {fill:#FEFEFE}
    .fil3 {fill:#FF2000}
    .fil8 {fill:#FFCB05}
    .fil10 {fill:white}
   ]]>
  </style>
 </defs>
 <g id="Layer_x0020_1">
  <metadata id="CorelCorpID_0Corel-Layer"/>
  <path class="fil0 str0" d="M50.1354 73.1823c-0.4205,-0.1446 -5.7229,-1.7409 -6.961,0.3461 -1.238,2.0871 4.7964,1.9334 4.7964,1.9334l1.8139 -2.3865 0.3507 0.107z"/>
  <path class="fil0 str1" d="M59.1096 86.121c0,0 5.5103,-0.3197 5.3272,0.1994 -0.183,0.5191 0.0297,2.5798 -1.9274,3.9227 -1.957,1.3429 -4.5052,2.1986 -4.5843,1.7597 -0.079,-0.4389 0.5859,-2.1835 0.5192,-3.1577 -0.0667,-0.9741 0.6653,-2.7241 0.6653,-2.7241z"/>
  <path class="fil1 str1" d="M62.4644 80.1188l9.4085 7.183c0,0 0.6885,0.4497 -0.6738,0.5136 -1.3623,0.0639 -4.565,-0.8042 -5.7049,-0.9113 -1.14,-0.1072 -7.8938,0.8062 -9.9297,1.0572 -2.0359,0.251 -15.6159,-0.9834 -16.3171,-0.245 -0.7012,0.7384 -5.7157,4.0609 -5.7157,4.0609 0,0 0.1932,-3.8589 1.6078,-5.218 1.4146,-1.3591 20.5449,-11.1918 20.5449,-11.1918l14.0413 7.3415 2.1472 4.5929 -9.4085 -7.183z"/>
  <path class="fil0 str1" d="M29.2638 95.6191c-1.1094,0.0586 -1.7738,0.1708 -2.7612,-0.2255 -0.9873,-0.3963 -1.1761,-0.9155 -2.6328,-0.948 -1.4568,-0.0325 -4.06,1.5993 -4.4804,0.8017 -0.4203,-0.7976 2.7073,-2.9163 5.0422,-3.8738 2.3348,-0.9574 6.3332,-0.5336 6.3332,-0.5336 0,0 3.8247,-9.1193 9.7751,-13.0357 5.9503,-3.9163 18.3254,-8.7891 27.2958,-2.7655 6.021,3.6464 3.8795,9.7528 3.8795,9.7528 0,0 0.9134,2.6282 0.1577,2.5103 -0.7558,-0.118 -2.5718,-1.3388 -4.0588,-2.3186 -1.4869,-0.9798 -3.8753,-4.1436 -5.2282,-4.8077 -1.3529,-0.664 -2.5173,-0.1558 -4.1451,0.7751 -1.6277,0.9308 -11.5333,2.8766 -13.4351,3.1169 -1.9018,0.2404 -3.8951,0.5771 -5.4193,1.5294 -1.5241,0.9523 -3.9751,3.0765 -4.5606,3.9542 -0.5854,0.8776 -1.5669,1.1931 -1.4941,2.2261 0.0728,1.033 1.6269,1.6811 1.9433,3.4367 0.3164,1.7556 0.1343,4.2992 -0.5544,4.1759 -0.6887,-0.1233 -1.5742,-0.2372 -2.2993,-0.7137 -0.7251,-0.4765 -3.3575,-3.057 -3.3575,-3.057z"/>
  <path class="fil0 str1" d="M46.0305 81.5522c0,0 0.6947,0.5086 2.8403,0.3379 2.1456,-0.1707 4.4928,-1.6634 6.6198,-0.7048 2.1269,0.9586 3.1322,2.1845 3.1322,2.1845 0,0 -2.0793,2.4508 -4.6391,1.8828 -2.5599,-0.568 -4.8458,-0.119 -6.3936,-1.3611 -1.5478,-1.2421 -1.5596,-2.3393 -1.5596,-2.3393z"/>
  <ellipse class="fil2 str2" transform="matrix(0.0345479 0.025295 -0.0288068 0.0303363 65.3476 78.6053)" rx="30.1625" ry="28.575"/>
  <path class="fil3 str1" d="M63.4272 80.7679c0,0 3.933,3.7469 4.3869,4.2153 0.4539,0.4684 3.8723,2.2743 3.8723,2.2743 -1.2692,0.1988 -3.0412,-0.2118 -3.9032,-1.0995 -0.5484,-0.5648 -4.356,-5.3901 -4.356,-5.3901z"/>
  <ellipse class="fil4 str3" transform="matrix(0.0554713 0.0406146 -0.0462532 0.048709 65.6341 79.038)" rx="9.3927" ry="10.3187"/>
  <path class="fil5 str0" d="M52.5537 69.9141c0,0 2.6369,0.7748 3.4125,0.8963 0.7755,0.1217 3.213,0.1946 3.213,0.1946l-0.8031 2.6269 -5.4846 -1.7998 -0.3378 -1.918z"/>
  <path class="fil6 str0" d="M58.6034 73.0544c0,0 -0.0082,0.3127 0.3487,0.5275 0.357,0.2146 0.95,0.5236 0.95,0.5236 0,0 0.5882,-0.7463 0.7042,-0.9906 0.116,-0.2446 0.6639,-0.7195 0.8577,-0.9781 0.1937,-0.2584 0.4004,-0.5599 0.4361,-0.8761 0.0356,-0.3162 -0.3831,-0.474 -0.3831,-0.474 0,0 -0.3542,-0.129 -0.6894,-0.1036 -0.3353,0.025 -1.029,0.2725 -1.1481,0.4058 -0.1189,0.1333 -0.952,0.797 -0.952,0.797l-0.3382 0.9244 0.2141 0.2441z"/>
  <path class="fil5 str0" d="M52.255 69.644c0,0 0.166,1.0368 0.9159,1.6054 0.3293,0.2495 2.145,0.7822 2.3814,0.8858 0.7755,0.3402 3.0047,0.305 4.057,0.0131 1.0521,-0.2918 0.6182,2.9833 -0.3878,2.8945 -0.8681,-0.0766 -3.6511,-1.2841 -5.5769,-1.4545 -1.0812,-0.2215 -1.6372,-0.5114 -1.9133,-0.5358 -0.7208,0.0413 -1.2507,-0.3353 -1.75,-0.7317 -0.601,-0.5005 -0.4121,-2.1078 -0.5837,-2.8333l2.8574 0.1565z"/>
  <path class="fil7 str0" d="M51.8847 61.8424c-0.801,0.2812 -2.1788,0.4782 -2.8515,0.028 -0.6728,-0.4499 -0.7289,-0.3023 -0.9452,-0.2883 -0.2163,0.0141 -0.9453,-0.2953 -0.8171,-0.7877 0.1282,-0.4924 1.0093,-0.2463 1.1695,-0.3026 0.1602,-0.0561 -1.61,-1.5612 -0.9691,-2.349 0.6407,-0.7878 0.8971,-2.1662 2.2747,-2.2225 1.3776,-0.0562 2.1947,0.2672 2.3869,0.7032 0.1923,0.4362 0.1762,1.3786 0.2565,1.7585 0.08,0.3797 0.5925,0.9142 0.7368,1.28 0.1442,0.3656 0.4805,1.2379 -1.2415,2.1804z"/>
  <path class="fil8 str0" d="M47.8773 61.5432c-0.438,-0.0244 -1.8477,-0.9105 -2.0881,-1.9656 -0.2402,-1.055 0.1603,-2.7993 0.7691,-3.3901 0.6086,-0.5909 2.547,-1.2801 2.9474,-1.3645 0.4006,-0.0845 0.8331,-0.3798 0.6569,-0.633 -0.1763,-0.2533 0.5608,0.0423 0.5767,0.408 0.0161,0.3657 0.5928,-0.4502 0.4646,-0.83 -0.1281,-0.3799 0.1121,1.1535 0.1121,1.1535 0,0 0.7049,-0.5064 0.6569,-0.8722 -0.048,-0.3656 -0.0322,1.1395 -0.0322,1.1395 0,0 0.3845,-0.0141 0.7049,-0.0985 0.3205,-0.0844 -0.1921,0.5205 -0.3364,0.6752 -0.1441,0.1548 -0.4965,0.7034 -0.7209,0.8159 -0.2243,0.1124 -1.4738,0.225 -1.4738,0.225l0.9132 0.197 -1.9383 0.0141 0.5445 0.45 -1.2655 0.2251 0.3685 0.9567 -0.4646 -0.1548c0,0 -0.1282,0.5345 -0.1121,0.83 0.016,0.2953 -0.1442,0.3937 -0.1442,0.3937 0,0 0.3342,0.3991 0.3295,0.5909 -0.0045,0.1917 -0.8201,-0.0216 -1.0764,0.3441 -0.2562,0.3656 0.6082,0.89 0.6082,0.89z"/>
  <polygon class="fil9 str0" points="45.581,58.3241 49.2496,54.5824 48.3684,53.879 44.668,57.6348 "/>
  <polygon class="fil10 str0" points="44.668,57.6348 43.0179,57.7474 48.5447,51.9097 48.3684,53.879 "/>
  <path class="fil11 str0" d="M45.4124 58.1968c0,0 -1.145,-0.1962 -1.7217,0.268 -0.5767,0.4641 -0.849,1.6459 -1.1692,1.9975 -0.3206,0.3516 -1.3619,0.9423 -1.3619,0.9423l0.9291 0.2252 -0.6727 0.647c0,0 1.3137,-0.1968 1.5859,-0.6048 0.2723,-0.4079 0.4966,-2.0256 0.8011,-2.4194 0.3043,-0.394 1.6094,-1.0558 1.6094,-1.0558z"/>
  <path class="fil12 str0" d="M50.0066 59.963c-0.1521,-0.0563 -0.5287,-0.7878 -0.1763,-0.9848 0.3527,-0.1968 0.9614,0.626 0.9292,0.6895 -0.0319,0.0631 -0.7529,0.2953 -0.7529,0.2953z"/>
  <path class="fil12 str0" d="M51.4084 59.4494c0,0 0.4565,-0.1264 0.5767,-0.225 0.1202,-0.0984 -0.3284,-0.9564 -0.6409,-0.8229 -0.3123,0.1337 -0.5767,0.4291 0.0642,1.0479z"/>
  <path class="fil13 str0" d="M51.1922 59.5551c0.0881,0.0913 0.3004,0.0845 0.4565,0.1864 0.1562,0.1019 0.2162,0.2004 -0.0079,0.2778 -0.2243,0.0774 -0.4005,0.0774 -0.4005,0.0774"/>
  <ellipse class="fil4 str0" cx="50.115" cy="59.6992" rx="0.2082" ry="0.1758"/>
  <ellipse class="fil4 str0" cx="51.4585" cy="59.1877" rx="0.1742" ry="0.2023"/>
  <path class="fil14 str0" d="M50.6838 60.7016c0.1522,0.0774 0.5207,0.2321 0.7849,0.0984 0.2643,-0.1336 0.4245,-0.3236 0.4245,-0.3236 0,0 -0.1441,0.401 -0.4486,0.4853 -0.3043,0.0846 -0.7608,-0.2601 -0.7608,-0.2601z"/>
  <path class="fil12 str0" d="M49.8 62.6911c0,0 1.501,3.8128 2.2583,4.5392 0.7574,0.7265 3.545,0.2089 4.5145,0.0287 0.9695,-0.1801 -0.0653,-1.3221 -0.0653,-1.3221 0,0 -2.848,0.2397 -3.4434,-0.261 -0.5955,-0.5008 -1.6804,-2.823 -1.6804,-2.823l-1.5837 -0.1618z"/>
  <polygon class="fil5 str4" points="50.6019,64.4567 51.759,63.9874 52.0294,64.4842 50.7325,64.9436 50.5421,64.5215 "/>
  <path class="fil7 str0" d="M56.7036 65.8214c0,0 0.294,-0.2397 0.3152,-0.3763 0.0211,-0.1367 -0.0429,-0.2341 0.1119,-0.28 0.1547,-0.046 0.2238,0.0448 0.2907,0.1327 0.0671,0.088 -0.0458,0.3522 -0.062,0.3767 -0.0165,0.0244 0.7059,-0.1712 0.7667,-0.0153 0.0609,0.156 -0.503,0.3323 -0.503,0.3323 0,0 0.5894,-0.1729 0.6469,0.0132 0.0576,0.186 -0.5667,0.2914 -0.5667,0.2914 0,0 0.5578,-0.1224 0.6005,0.0306 0.0428,0.1529 -0.4836,0.2248 -0.4836,0.2248 0,0 0.4376,-0.1082 0.4473,0.0047 0.0094,0.1129 -0.4677,0.2736 -0.4988,0.2894 -0.0313,0.0158 -0.5051,0.2235 -0.6841,0.2046 -0.1789,-0.0188 -0.52,-1.1494 -0.52,-1.1494l0.139 -0.0794z"/>
  <polygon class="fil5 str4" points="52.7652,65.3048 51.4049,65.8386 51.7944,66.3143 52.9786,65.6545 "/>
  <polygon class="fil5 str4" points="53.4758,65.9273 53.1908,67.4366 53.6849,67.4538 53.9844,65.957 53.552,65.8883 "/>
  <path class="fil5 str4" d="M54.8184 66.0531c0,0 -0.1283,1.4101 0.0091,1.4086 0.1374,-0.0014 0.6253,0.107 0.6022,-0.0151 -0.0232,-0.1222 0.0229,-1.3954 0.0229,-1.3954l-0.5622 0.0032 -0.072 -0.0013z"/>
  <path class="fil12 str0" d="M49.319 62.4201c0,0 -0.4432,6.0321 -0.2216,6.7617 0.2216,0.7297 3.5592,0.3891 3.5592,0.3891 0,0 -0.734,-6.0318 -1.1771,-7.0047 -0.4433,-0.973 -2.1605,-0.1461 -2.1605,-0.1461z"/>
  <rect class="fil5 str4" x="49.2463" y="64.3673" width="2.4744" height="0.5656"/>
  <path class="fil13 str0" d="M48.279 60.8775c-0.1122,-0.0493 -0.4566,-0.0774 -0.4886,-0.0141 -0.0321,0.0634 0.0481,0.3729 0.2082,0.4361"/>
  <path class="fil12 str0" d="M49.4852 62.5418c0,0 2.5483,3.3565 3.4901,3.8917 0.9417,0.535 3.4902,-0.5839 4.3765,-0.9731 0.8863,-0.3891 -0.4432,-1.2647 -0.4432,-1.2647 0,0 -2.6869,0.8632 -3.4071,0.5107 -0.72,-0.3526 -2.4375,-2.3592 -2.4375,-2.3592l-1.5788 0.1946z"/>
  <path class="fil9 str5" d="M49.5705 62.25c0,0 0.4904,0.2949 0.9629,0.2527 0.4725,-0.0422 0.9133,-0.3869 0.9133,-0.3869l0.4765 0.2733c0,0 -0.1321,0.3949 -1.0774,0.4933 -0.9452,0.0986 -1.6139,-0.3201 -1.6139,-0.3201l0.3386 -0.3123z"/>
  <polygon class="fil5 str4" points="50.7687,64.0723 51.7534,63.3618 52.1579,63.7826 51.035,64.5145 50.7294,64.1484 "/>
  <path class="fil6 str0" d="M59.5453 74.5624c0,0 -0.0083,0.3126 0.3488,0.5274 0.3569,0.2148 0.9498,0.5236 0.9498,0.5236 0,0 0.5882,-0.7461 0.7042,-0.9906 0.1162,-0.2446 0.664,-0.7193 0.8577,-0.9779 0.1938,-0.2584 0.4005,-0.56 0.4363,-0.8763 0.0356,-0.316 -0.3832,-0.4738 -0.3832,-0.4738 0,0 -0.3541,-0.129 -0.6896,-0.1038 -0.3351,0.0252 -1.0288,0.2727 -1.148,0.406 -0.1189,0.1331 -0.952,0.7969 -0.952,0.7969l-0.3381 0.9245 0.2141 0.244z"/>
  <path class="fil7 str0" d="M57.0651 64.0405c0,0 0.2156,-0.2971 0.1969,-0.434 -0.0189,-0.137 -0.1089,-0.2172 0.0277,-0.2957 0.1366,-0.0789 0.2295,-0.0064 0.3194,0.0639 0.0902,0.0702 0.057,0.351 0.0483,0.3783 -0.0088,0.0273 0.6339,-0.3223 0.7376,-0.1847 0.1037,0.1373 -0.3912,0.433 -0.3912,0.433 0,0 0.5205,-0.298 0.6297,-0.1307 0.1091,0.1672 -0.4647,0.4075 -0.4647,0.4075 0,0 0.5046,-0.2419 0.5899,-0.1035 0.0853,0.1386 -0.4033,0.3246 -0.4033,0.3246 0,0 0.3925,-0.2014 0.4342,-0.0944 0.0415,0.1071 -0.3739,0.3684 -0.3995,0.3906 -0.0257,0.0223 -0.4244,0.3283 -0.6031,0.3496 -0.1785,0.0214 -0.8335,-0.997 -0.8335,-0.997l0.1116 -0.1075z"/>
  <rect class="fil5 str4" x="49.2646" y="67.3968" width="2.7312" height="0.5349"/>
  <polygon class="fil5 str4" points="53.1057,64.4137 51.943,65.2315 52.4565,65.6054 53.4128,64.7045 "/>
  <rect class="fil5 str4" x="49.2724" y="65.9552" width="2.684" height="0.5656"/>
  <polygon class="fil5 str4" points="53.9722,64.8584 54.1303,66.3819 54.6134,66.2892 54.4729,64.7744 54.0349,64.8037 "/>
  <path class="fil5 str4" d="M55.3076 64.6825c0,0 0.2812,1.3929 0.4137,1.3609 0.1327,-0.0317 0.6358,-0.035 0.5783,-0.148 -0.0576,-0.1131 -0.3789,-1.3553 -0.3789,-1.3553l-0.5431 0.1276 -0.07 0.0148z"/>
  <path class="fil15 str6" d="M-0.0083 90.1689c4.101,-1.8521 4.8949,-3.4395 8.599,-1.5875 3.7041,1.852 -1.0985,3.648 7.8052,1.9843 8.9037,-1.6637 10.7155,-5.027 15.2135,-2.6458 4.498,2.3812 5.9531,0.5291 11.774,0.926 5.8209,0.3969 7.2761,2.9104 12.4355,3.7042 5.1594,0.7938 6.8792,-1.7197 12.9646,-3.9687 6.0854,-2.249 6.3501,-1.8521 10.4511,-0.2646 4.101,1.5875 4.6302,1.4552 9.3927,-0.6615 4.7625,-2.1167 11.1125,-0.1323 11.1125,-0.1323l0.1986 12.3031 -99.6821 0.0001 -0.2646 -9.6573z"/>
 </g>
</svg>
