<?xml version="1.0" encoding="UTF-8" standalone="no"?>
<!-- Created with Inkscape (http://www.inkscape.org/) -->

<svg
   width="100mm"
   height="100mm"
   viewBox="0 0 100 100"
   version="1.1"
   id="svg5"
   sodipodi:docname="info.svg"
   inkscape:version="1.1 (c68e22c387, 2021-05-23)"
   xmlns:inkscape="http://www.inkscape.org/namespaces/inkscape"
   xmlns:sodipodi="http://sodipodi.sourceforge.net/DTD/sodipodi-0.dtd"
   xmlns="http://www.w3.org/2000/svg"
   xmlns:svg="http://www.w3.org/2000/svg">
  <sodipodi:namedview
     id="namedview7"
     pagecolor="#ffffff"
     bordercolor="#666666"
     borderopacity="1.0"
     inkscape:pageshadow="2"
     inkscape:pageopacity="0.0"
     inkscape:pagecheckerboard="0"
     inkscape:document-units="mm"
     showgrid="false"
     inkscape:zoom="0.4"
     inkscape:cx="-276"
     inkscape:cy="43.8"
     inkscape:window-width="1920"
     inkscape:window-height="1001"
     inkscape:window-x="-9"
     inkscape:window-y="-9"
     inkscape:window-maximized="1"
     inkscape:current-layer="layer1" />
  <defs
     id="defs2" />
  <g
     inkscape:label="Layer 1"
     inkscape:groupmode="layer"
     id="layer1">
    <g
       id="g41339"
       transform="matrix(0.191,0,0,0.191,27.9,28.6)"
       style="stroke-width:5.22846">
      <path
         style="fill:#b82637;fill-opacity:1;stroke:#000000;stroke-width:1.04569;stroke-linecap:butt;stroke-linejoin:miter;stroke-miterlimit:4;stroke-dasharray:none;stroke-opacity:1"
         d="m -22,323 c 0,0 70.8,16 72.1,19 1.3,0 -1.1,3 9.8,5 11.1,3 16.4,0 18.5,0 2.2,0 75.6,19 75.6,19 l 91,-51 -27,-10 -222.98,8 z"
         id="path982" />
      <path
         style="fill:#f2dcab;fill-opacity:1;stroke:#000000;stroke-width:1.04569;stroke-linecap:butt;stroke-linejoin:miter;stroke-miterlimit:4;stroke-dasharray:none;stroke-opacity:1"
         d="m -10.7,321 c 0,0 43.1,9 62.9,13 3.9,1 21.7,5 24.4,8 2.9,0 76.4,16 76.4,16 l 83,-40 4,-21 c 0,0 -9,-3 -10,-5 -2,-3 -27,-19 -33,-22 -6,-2 -150.1,3 -150.1,3 l -47.97,34 z"
         id="path1097"
         sodipodi:nodetypes="csscccssccc" />
      <path
         style="fill:#f2dcab;fill-opacity:1;stroke:#000000;stroke-width:1.04569;stroke-linecap:butt;stroke-linejoin:miter;stroke-miterlimit:4;stroke-dasharray:none;stroke-opacity:1"
         d="m -10.7,321 9.63,-14 c 0,0 16.67,-8 30.27,-5 13.5,3 32.8,32 35.5,32 2.3,0 23.5,-16 37.3,-13 15,2 51,21 51,21 l 87,-45 -4,21 -83,40 -76.1,-16 -12.2,-5 c 0,0 -8.1,-2 -12.5,-3 -21.6,-5 -62.9,-13 -62.9,-13 l 5.72,-8"
         id="path1166"
         sodipodi:nodetypes="ccsssccccccscc" />
      <path
         style="fill:#fbc382;fill-opacity:1;stroke:#000000;stroke-width:1.04569;stroke-linecap:butt;stroke-linejoin:miter;stroke-miterlimit:4;stroke-dasharray:none;stroke-opacity:1"
         d="m 66.5,273 c 0,0 10.3,12 17.5,13 8.6,1 21,-15 21,-15 l -21.8,5 z"
         id="path15921"
         sodipodi:nodetypes="csccc" />
      <path
         style="fill:#008000;stroke:#000000;stroke-width:1.04569;stroke-linecap:butt;stroke-linejoin:miter;stroke-miterlimit:4;stroke-dasharray:none;stroke-opacity:1"
         d="m 130,251 c 0,0 15,5 17,9 2,4 5,13 3,18 -2,6 -9,21 -9,21 0,0 26,-2 37,-13 11,-8 20,-27 19,-30 -1,-3 -8,-8 -9,-8 -1,0 -2,4 -7,5 -5,2 -13,1 -13,1 0,0 7,-6 8,-10 2,-5 0,-14 0,-14 0,0 -7,2 -8,2 -1,0 -8,-1 -8,-1 0,0 1,4 0,5 -2,2 -5,6 -5,6 0,0 -4,-2 -7,-3 -3,-1 -9,0 -9,0 z"
         id="path9849"
         sodipodi:nodetypes="csscsssscscscscscc" />
      <path
         style="fill:#fbc382;fill-opacity:1;stroke:#000000;stroke-width:1.04569;stroke-linecap:butt;stroke-linejoin:miter;stroke-miterlimit:4;stroke-dasharray:none;stroke-opacity:1"
         d="m 75,276 c -12.5,-3 -23.4,-8 -31.5,-21 -1.1,-2 -5.2,-15 -5.2,-15 -9.4,-3 -7.6,-10 -7.4,-14 0.5,-7 9.1,2 9.3,0 1,-12 3.4,-21 4.6,-22 2.6,-1 32.3,-19 45.8,-19 13.4,0 39.4,36 40.4,39 1,3 -7,19 -7,19 0,0 11,-13 16,-2 4,10 -10,9 -12,11 -2,2 -10,12 -16,16 -7,5 -26.4,11 -37,8 z"
         id="path1168"
         sodipodi:nodetypes="sssssssscssss" />
      <path
         style="fill:#ffffff;stroke:#000000;stroke-width:1.04569;stroke-linecap:butt;stroke-linejoin:miter;stroke-miterlimit:4;stroke-dasharray:none;stroke-opacity:1"
         d="m 85.6,228 c -1.6,5 0.1,12 12,13 12.4,2 15.4,-3 16.4,-7 4,-15 -23.8,-22 -28.4,-6 z"
         id="path2172"
         sodipodi:nodetypes="ssss" />
      <path
         style="fill:#f9f9f9;stroke:#000000;stroke-width:1.04569;stroke-linecap:butt;stroke-linejoin:miter;stroke-miterlimit:4;stroke-dasharray:none;stroke-opacity:1"
         d="m 52.5,234 c -4.5,-2 -11,-7 -8.5,-15 1.8,-6 9.7,-6 13.8,-3 0,0 10.2,5 7.7,14 -2.1,7 -7.3,7 -13,4 z"
         id="path2530"
         sodipodi:nodetypes="sssss" />
      <path
         style="fill:none;stroke:#000000;stroke-width:2.09139;stroke-linecap:butt;stroke-linejoin:miter;stroke-miterlimit:4;stroke-dasharray:none;stroke-opacity:1"
         d="m 66.5,235 c 0,0 -1.3,7 4,9 5,1 9.3,-3 9.3,-3"
         id="path2888" />
      <path
         style="fill:none;stroke:#000000;stroke-width:2.09139;stroke-linecap:butt;stroke-linejoin:miter;stroke-miterlimit:4;stroke-dasharray:none;stroke-opacity:1"
         d="m 58.3,253 c 0,0 4.8,6 14.6,7 10,2 17.2,-4 17.2,-4"
         id="path2890" />
      <ellipse
         style="fill:#b8b8e1;fill-opacity:1;stroke:#ffff00;stroke-width:1.04569;stroke-miterlimit:4;stroke-dasharray:none"
         id="path2938"
         cx="55.1"
         cy="228"
         rx="4.69"
         ry="4.08" />
      <ellipse
         style="fill:#2b1100;stroke:#000000;stroke-width:1.04569;stroke-miterlimit:4;stroke-dasharray:none"
         id="path2962"
         cx="55"
         cy="228"
         rx="1.86"
         ry="1.51" />
      <ellipse
         style="fill:#b8b8e1;fill-opacity:1;stroke:#ffff00;stroke-width:1.04569;stroke-miterlimit:4;stroke-dasharray:none"
         id="path2938-1"
         cx="98.1"
         cy="235"
         rx="4.69"
         ry="4.08" />
      <ellipse
         style="fill:#2b1100;stroke:#000000;stroke-width:1.04569;stroke-miterlimit:4;stroke-dasharray:none"
         id="path2962-1"
         cx="98"
         cy="235"
         rx="1.86"
         ry="1.51" />
      <path
         style="fill:#884a17;fill-opacity:1;stroke:#000000;stroke-width:1.04569;stroke-linecap:butt;stroke-linejoin:miter;stroke-miterlimit:4;stroke-dasharray:none;stroke-opacity:1"
         d="m 40.5,218 c 0,0 0,-17 -1,-17 -1.3,0 -2.4,15 -3.7,14 -1.6,-1 -4.3,-19 3.2,-28 7.1,-9 21.4,-15 21.4,-15 0,0 -7.1,2 -7.4,1 -0.5,-2 36,-12 46.4,-7 10.6,5 11.6,3 11.6,3 0,0 -11,-9 -10,-11 1,-1 10,8 10,8 0,0 -2,-6 1,-7 3,0 4,13 5,13 2,0 10,-8 11,-6 1,2 -7,7 -6,8 1,0 20,12 23,24 3,12 -6,40 -6,40 0,0 -3,-2 -5,-2 -4,0 -10,7 -10,7 0,0 -6,3 -7,1 -2,-1 5,-20 3,-21 -2,-1 -12,-7 -14,-11 -3,-4 -5,-18 -6.9,-18 -1.6,-1 -7.4,12 -10.1,12 -2.3,0 -2.1,-2 -3.4,-4 -1.1,-1 -17,9 -21.5,8 -4.2,-1 19.6,-13 17.8,-13 -2.1,0 -18.3,5 -22,5 -3.7,0 -12,0 -12,0 z"
         id="path5758"
         sodipodi:nodetypes="cssscsscscssssscscssssssssscc" />
      <path
         style="fill:#cccccc;stroke:#000000;stroke-width:1.04569;stroke-linecap:butt;stroke-linejoin:miter;stroke-miterlimit:4;stroke-dasharray:none;stroke-opacity:1"
         d="m 66.5,273 3.5,19 c 0,0 13.2,5 18.5,5 5.6,2 28.5,5 28.5,5 l -17,-26 c 0,0 -8,8 -14.1,8 -5.9,0 -19.4,-11 -19.4,-11"
         id="path15773" />
      <path
         style="fill:#fbc382;fill-opacity:1;stroke:#000000;stroke-width:1.04569;stroke-linecap:butt;stroke-linejoin:miter;stroke-miterlimit:4;stroke-dasharray:none;stroke-opacity:1"
         d="m 139,253 c 0,0 8,4 10,10 2,5 4,7 1,15 -3,6 -11,29 -20,29 -8,0 -18,-5 -22,-13 -4,-5 -11,-18 -9.4,-24 1.4,-5 7.4,-6 7.4,-7 1,-1 3,-10 6,-9 3,1 -1,11 -1,11 0,0 2,-11 6,-10 3,1 -1,10 -1,10 0,0 2,-8 5,-7 4,2 -5,12 -5,12 l 5,-7 -5,7 16,16 c 0,0 -16,-14 -15,-16 l 5,-10 c 0,0 4,-7 7,-8 3,-1 10,1 10,1 z"
         id="path9983"
         sodipodi:nodetypes="cssssssscscscsccscsc" />
      <path
         style="fill:#fbc382;fill-opacity:1;stroke:#000000;stroke-width:1.04569;stroke-linecap:butt;stroke-linejoin:miter;stroke-miterlimit:4;stroke-dasharray:none;stroke-opacity:1"
         d="m 74,293 c 0,0 -4.4,6 -14.2,7 -4.6,1 -9.5,-3 -11,-8 -1.9,-6 -1.9,-19 -1.9,-19 0,0 -13.5,-14 -13,-15 0.6,-1 7.2,5 7.2,5 0,0 -6.2,-10 -2.7,-11 4.3,-2 6.7,12 6.7,12 l 0.5,-6 c 0,0 6.5,8 10.7,11 3.1,2 10.2,4 10.2,4 L 66,286 c 0,2 2.1,-4 2.1,-4 2.4,2 -0.4,5 5.9,11 z"
         id="path9985"
         sodipodi:nodetypes="csscscsccacscc" />
      <path
         style="fill:none;stroke:#000000;stroke-width:1.04569;stroke-linecap:butt;stroke-linejoin:miter;stroke-miterlimit:4;stroke-dasharray:none;stroke-opacity:1"
         d="m 153,342 v 16"
         id="path35761" />
      <path
         style="fill:none;stroke:#000000;stroke-width:1.04569;stroke-linecap:butt;stroke-linejoin:miter;stroke-miterlimit:4;stroke-dasharray:none;stroke-opacity:1"
         d="m 66,331 41,-29"
         id="path35763"
         sodipodi:nodetypes="cc" />
      <path
         style="fill:#6c5d53;stroke:#000000;stroke-width:1.04569;stroke-linecap:butt;stroke-linejoin:miter;stroke-miterlimit:4;stroke-dasharray:none;stroke-opacity:1"
         d="m 172,231 c 4,-2 9,-8 8,-13 0,-5 -3,-8 -6,-9 -3,-1 -9,4 -11,8 -2,3 -4,8 -3,11 v 3 c 0,0 9,2 12,0 z"
         id="path38207"
         sodipodi:nodetypes="ssssscs" />
      <path
         style="fill:#6c5d53;stroke:#000000;stroke-width:1.04569;stroke-linecap:butt;stroke-linejoin:miter;stroke-miterlimit:4;stroke-dasharray:none;stroke-opacity:1"
         d="m 189,249 c 0,0 -5,-3 -2,-4 2,-2 18,0 20,1 3,2 5,3 4,5 -1,2 -2,5 -7,5 -5,1 -5,2 -8,1 -3,-1 -7,-8 -7,-8 z"
         id="path38209"
         sodipodi:nodetypes="csssssc" />
    </g>
  </g>
</svg>
