<?xml version="1.0" encoding="UTF-8"?>
<!DOCTYPE svg PUBLIC "-//W3C//DTD SVG 1.1//EN" "http://www.w3.org/Graphics/SVG/1.1/DTD/svg11.dtd">
<!-- Creator: CorelDRAW 2019 -->
<svg xmlns="http://www.w3.org/2000/svg" xml:space="preserve" width="100mm" height="100mm" version="1.1" style="shape-rendering:geometricPrecision; text-rendering:geometricPrecision; image-rendering:optimizeQuality; fill-rule:evenodd; clip-rule:evenodd"
viewBox="0 0 10000 10000"
 xmlns:xlink="http://www.w3.org/1999/xlink"
 xmlns:xodm="http://www.corel.com/coreldraw/odm/2003">
 <defs>
  <style type="text/css">
   <![CDATA[
    .str0 {stroke:#2B2A29;stroke-width:20;stroke-miterlimit:22.9256}
    .fil9 {fill:none}
    .fil8 {fill:#2B2A29}
    .fil10 {fill:#BA683F}
    .fil0 {fill:#D2CDE7}
    .fil4 {fill:#B1DEED}
    .fil3 {fill:#3D4794}
    .fil2 {fill:#147F93}
    .fil6 {fill:#6E590A}
    .fil5 {fill:#7B7EA8}
    .fil7 {fill:#A8E6F7}
    .fil1 {fill:#FBC382}
   ]]>
  </style>
 </defs>
 <g id="Layer_x0020_1">
  <metadata id="CorelCorpID_0Corel-Layer"/>
  <g id="_849068512">
   <polygon class="fil0 str0" points="4306.37,8483.64 4749.9,9058.45 4714.41,9168.44 4068.64,8526.22 "/>
   <polygon class="fil1 str0" points="3919.04,7358.16 4146.13,7331.55 4110.65,7688.14 "/>
   <polygon class="fil0 str0" points="3804.07,8659.99 3968.4,9518.85 4106.78,9451.44 4127.19,8593.65 "/>
   <path class="fil2 str0" d="M3848.06 7394.29c0,0 -128.33,591.99 -117.68,694.88 10.64,102.9 0,549.98 0,549.98 0,0 202.25,74.51 333.53,10.64 131.29,-63.86 280.31,-120.64 280.31,-120.64 0,0 7.09,-31.93 -39.03,-276.76 -46.12,-244.82 55.41,-935.25 8.26,-917.97l-191.02 69.97c-12.41,60.32 8,172.07 -37.23,180.94 -49.5,-3.36 -84.33,-131.3 -122.3,-195.87l-114.84 4.83z"/>
   <path class="fil3 str0" d="M3855.24 7388.14c-14.19,5.32 -87.54,-11.3 -119.47,17.09 -31.94,28.38 -267.89,651.07 -225.32,725.59 42.58,74.52 876.41,-35.48 876.41,-35.48l7.1 -113.55c0,0 -545.23,-26.5 -596.11,-35.47 -50.87,-8.97 57.39,-558.18 57.39,-558.18z"/>
   <path class="fil1 str0" d="M4398.04 8019.4c0,0 125.06,23.95 141.03,19.52 15.98,-4.44 40.82,-111.77 55.01,-113.55 14.19,-1.77 21.29,132.17 21.29,132.17 0,0 116.21,-15.96 121.53,-1.77 5.32,14.2 -112.66,44.36 -102.9,46.13 9.76,1.77 101.12,10.64 100.24,28.38 -0.89,17.74 -100.24,13.31 -100.24,13.31 0,0 107.33,29.27 89.59,46.13 -17.74,16.86 -102.89,-5.32 -102.89,-5.32 0,0 69.19,73.63 55.88,80.72 -13.31,7.1 -107.27,-83.57 -129.44,-84.46 -22.18,-0.88 -153.54,-106.26 -153.54,-106.26l4.44 -55z"/>
   <polygon class="fil3 str0" points="4318.09,7572.66 4688.16,7212.15 4430.91,7208.6 4325.23,7364.39 "/>
   <path class="fil4 str0" d="M5122.41 6526.01c0,0 116.22,-244.82 38.16,-361.92 -78.07,-117.1 -706.09,-145.47 -798.35,-92.25 -92.26,53.22 -60.33,539.32 -60.33,539.32l763.75 -13.31 56.77 -71.84z"/>
   <polygon class="fil5 str0" points="4355.1,6634.24 5130.4,6573.91 5121.52,7205.49 4317.85,7226.78 "/>
   <path class="fil1 str0" d="M3728.86 7310.75c-10.26,-9.03 -45.01,-34.52 -63.79,-69.33 -75.13,-139.23 -106.81,-518.29 -106.81,-518.29l599.65 -216.45c0,0 85.16,70.97 141.93,198.71 56.77,127.73 138.38,397.4 85.15,514.49 -53.22,117.09 -88.7,159.68 -262.56,184.51 -173.87,24.83 -393.57,-93.64 -393.57,-93.64z"/>
   <path class="fil6 str0" d="M3560.05 7015.85c0,0 -145.48,-262.57 -134.83,-351.27 10.65,-88.7 216.44,-145.47 326.43,-198.7 110,-53.22 230.64,-149.02 312.25,-106.44 81.6,42.57 109.98,39.02 170.31,46.12 60.32,7.1 67.41,-78.06 134.83,17.74 67.42,95.8 113.54,149.03 117.09,262.57 3.55,113.54 60.33,209.35 -21.28,188.06 -81.62,-21.29 -230.64,-266.12 -290.96,-266.12 -60.32,0 -131.27,127.73 -219.99,173.86 -88.71,46.13 -244.82,21.28 -298.05,-7.1 -53.22,-28.38 -103.65,226.64 -103.65,226.64l7.85 14.64z"/>
   <polygon class="fil5 str0" points="5128.05,6741.55 5526.01,6545.52 5478.11,7083.08 5125.27,6939.37 "/>
   <ellipse class="fil7 str0" cx="4927.21" cy="6322.91" rx="164.04" ry="176.57"/>
   <ellipse class="fil7 str0" cx="4547.54" cy="6322.91" rx="164.04" ry="176.57"/>
   <ellipse class="fil8 str0" cx="3717.7" cy="6997.99" rx="23.95" ry="28.39"/>
   <circle class="fil8 str0" cx="4200.27" cy="6935.02" r="25.72"/>
   <path class="fil9 str0" d="M3938.45 6963.41c0,0 -1.07,53.51 -16.81,92.03 -15.75,38.53 50.19,60.44 72.96,51.68"/>
   <path class="fil9 str0" d="M3846.36 7180.73c0,0 53.22,88.71 131.28,95.8 78.06,7.1 159.66,-106.44 159.66,-106.44"/>
   <path class="fil10 str0" d="M3923.16 9535.68l221.76 -86.93 -5.32 172.09 86.93 104.67c0,0 -278.52,44.35 -257.24,28.39 21.28,-15.97 70.61,-126.24 70.96,-125.96l-117.09 -92.26z"/>
   <path class="fil10 str0" d="M4714.41 9168.44c0,0 182.74,180.96 220,177.41 37.25,-3.55 164.99,-269.67 164.99,-269.67 0,0 -70.96,-76.28 -99.35,-47.89 -28.39,28.38 -53.22,131.28 -63.87,149.02 -10.64,17.74 -145.47,-177.41 -145.47,-177.41l-76.3 168.54z"/>
  </g>
 </g>
</svg>
