<?xml version="1.0" encoding="UTF-8"?>
<!DOCTYPE svg PUBLIC "-//W3C//DTD SVG 1.1//EN" "http://www.w3.org/Graphics/SVG/1.1/DTD/svg11.dtd">
<!-- Creator: CorelDRAW 2019 -->
<svg xmlns="http://www.w3.org/2000/svg" xml:space="preserve" width="100mm" height="100mm" version="1.1" style="shape-rendering:geometricPrecision; text-rendering:geometricPrecision; image-rendering:optimizeQuality; fill-rule:evenodd; clip-rule:evenodd"
viewBox="0 0 10000 10000"
 xmlns:xlink="http://www.w3.org/1999/xlink"
 xmlns:xodm="http://www.corel.com/coreldraw/odm/2003">
 <defs>
  <style type="text/css">
   <![CDATA[
    .str0 {stroke:#2B2A29;stroke-width:20;stroke-miterlimit:22.9256}
    .fil5 {fill:none}
    .fil3 {fill:#FEFEFE}
    .fil6 {fill:#2B2A29}
    .fil8 {fill:#E52E27}
    .fil0 {fill:#EAAF1A}
    .fil12 {fill:#852D2D}
    .fil7 {fill:#943F31}
    .fil4 {fill:#639D50}
    .fil11 {fill:#852D2D}
    .fil1 {fill:#B0287D}
    .fil9 {fill:#BB2D8F}
    .fil10 {fill:#D89638}
    .fil2 {fill:#FBC382}
   ]]>
  </style>
 </defs>
 <g id="Layer_x0020_1">
  <metadata id="CorelCorpID_0Corel-Layer"/>
  <g id="_757164048">
   <path class="fil0 str0" d="M3503.88 8439.02c23.28,-3.33 -25.73,-799.49 -29.06,-846.04 -3.32,-46.56 -179.58,-166.28 -189.55,-372.46 -9.98,-206.18 139.67,-492.18 226.13,-502.16 86.47,-9.97 236.12,226.14 232.79,468.9 -3.32,242.77 -151.91,345.82 -148.59,395.7 3.32,49.88 25.55,841.4 25.55,841.4l-117.27 14.66z"/>
   <g>
    <path class="fil1 str0" d="M4713.66 7837.98c-3.61,-4.33 -498.8,-336.38 -431.67,-615.02 67.13,-278.64 272.31,-750.55 402.25,-897.81 129.94,-147.26 384.03,-386.91 450.44,-352.26 66.41,34.64 147.26,141.48 213.67,179.02 66.41,37.53 522.62,95.28 756.5,620.79 233.89,525.51 -86.62,835.91 -147.26,945.63 -60.63,109.72 -259.86,196.35 -308.95,311.84 -49.09,115.5 -118.39,274.31 -118.39,274.31l-219.44 -95.29c0,0 -280.08,-239.65 -311.84,-265.64 -31.76,-25.99 -186.21,-67.79 -186.21,-67.79 0,0 -52.9,2.64 -99.1,-37.78z"/>
    <path class="fil2 str0" d="M4753.84 7797.55c-164.58,-51.97 -434.56,-487.98 -431.67,-591.92 2.89,-103.95 82.3,-160.25 119.83,-241.1 37.54,-80.85 148.7,-404.24 154.48,-423.01 5.77,-18.76 515.4,-193.45 597.7,-176.13 82.29,17.32 342.15,525.51 342.15,628.01 0,102.51 -118.38,541.4 -160.25,613.58 -41.87,72.19 -261.31,343.6 -622.24,190.57z"/>
    <path class="fil3 str0" d="M4960.85 7156.74c0,0 19.5,-170.36 185.52,-130.66 166.03,39.7 142.21,238.22 106.84,246.88 -32.03,7.84 -253.66,-77.01 -288.75,-108.58 -3.46,-3.11 -3.61,-7.64 -3.61,-7.64z"/>
    <path class="fil3 str0" d="M4483.34 6963.99c0,0 -1.44,-177.57 145.09,-148.7 146.54,28.88 119.83,212.95 105.39,239.66 -14.43,26.71 -246,-8.32 -250.39,-95.33l-0.09 4.37z"/>
    <path class="fil4 str0" d="M5090.92 7230.77c0,0 -36.85,-47.21 -14.83,-106.77 22.01,-59.55 107.55,-67.85 128.85,-56.3 21.29,11.55 80.49,71.82 64.24,125.96 -16.24,54.14 -76.47,68.1 -76.47,68.1l-101.79 -30.99z"/>
    <path class="fil4 str0" d="M4709.4 6866.86c0,0 -89.5,-8.67 -110.8,54.13 -21.3,62.81 5.25,126.15 45.57,137.61 40.33,11.46 90.98,-6.48 90.98,-6.48 0,0 13.59,-70.13 11.43,-100.81 -2.16,-30.68 -37.18,-84.45 -37.18,-84.45z"/>
    <path class="fil5 str0" d="M4791.68 7068.23c0,0 -48,96 -64.97,99.61 -16.96,3.61 -62.34,11.43 -79.4,30.68 -11.44,12.9 -8.48,45.77 2.82,73.86 9.58,23.83 44.03,34.01 44.03,34.01"/>
    <path class="fil6 str0" d="M5117.24 7153.96c0,0 -0.59,-6.83 4.89,-15.47 15.86,-25.06 42.39,-37.72 71.63,-23.51 39.34,19.13 35.15,50.56 28.65,69.33 -6.5,18.76 -34.43,49.78 -71.96,31.73 -37.54,-18.04 -33.21,-62.08 -33.21,-62.08z"/>
    <path class="fil6 str0" d="M4634.32 6955.45c0,0 -0.59,-6.83 4.88,-15.47 15.87,-25.06 42.4,-37.73 71.64,-23.51 39.33,19.13 35.14,50.56 28.65,69.32 -6.5,18.77 -34.43,49.79 -71.97,31.74 -37.53,-18.04 -33.2,-62.08 -33.2,-62.08z"/>
    <path class="fil7 str0" d="M4488.88 7320.91c0,0 69.66,260.22 207.53,295.6 137.88,35.37 311.84,-62.08 295.24,-95.29 -16.6,-33.21 -130.66,-15.88 -264.92,-57.03 -134.27,-41.14 -237.85,-143.28 -237.85,-143.28z"/>
    <path class="fil8 str0" d="M4605.46 7541.43c0,0 64.24,-59.91 150.87,-43.31 86.62,16.61 155.2,63.53 152.31,75.08 -2.89,11.55 -62.15,52.24 -161.01,50.66 -98.86,-1.58 -142.17,-82.43 -142.17,-82.43z"/>
    <polygon class="fil3 str0" points="4659.96,7435.32 4650.57,7468.53 4680.81,7486.14 4698.22,7451.2 "/>
    <path class="fil3 str0" d="M4452.17 7865.22c0,0 -41.86,295.96 -8.66,342.16 33.21,46.2 352.27,125.61 395.58,86.63 43.31,-38.98 103.95,-205.01 99.62,-261.31 -4.34,-56.31 -350.83,-246.88 -389.81,-239.66 -38.98,7.22 -96.73,72.18 -96.73,72.18z"/>
    <polygon class="fil3 str0" points="4699.47,7452.28 4738.45,7466 4728.35,7497.04 4687.58,7485.64 "/>
    <path class="fil9 str0" d="M4635.94 7829.11c0,0 -53.42,-101.78 -160.25,-104.66 -106.84,-2.89 -317.62,46.19 -317.62,46.19 0,0 121.27,121.28 233.88,132.83 112.61,11.55 213.67,-11.55 213.67,-11.55l30.32 -62.81z"/>
    <path class="fil3 str0" d="M5077.35 8016.59c0,0 235.33,203.02 254.1,213.12 18.77,10.11 379.34,168.2 379.34,168.2 19.73,23.1 -75.85,268.38 -105.39,251.2l-613.58 -356.59 85.53 -275.93z"/>
    <path class="fil9 str0" d="M4790.42 7890.47c0,0 147.93,-17.93 210.81,35.18 62.88,53.11 160.23,330.08 145.79,334.41 -14.44,4.34 -219.45,-101.06 -242.54,-124.15 -23.1,-23.1 -127.05,-161.7 -134.27,-173.25 -7.22,-11.55 20.21,-72.19 20.21,-72.19z"/>
    <path class="fil9 str0" d="M4605.62 7891.92c0,0 -3.32,74.79 74.64,84.53 77.96,9.75 48,47.64 70.38,48 22.38,0.36 50.53,-22.01 43.31,-23.1 -7.22,-1.08 -24.82,-47.3 -24.82,-47.3l21.29 -63.58 -40.6 -47.95c-25.59,-9.71 -62.85,-35.01 -76.78,-29.12l-37.1 15.71 -28.1 58.21 -2.22 4.6z"/>
    <path class="fil10 str0" d="M4523.82 6655.17c0,0 134.26,-275.75 176.13,-311.84 41.87,-36.09 284.41,-183.35 444.67,-176.13 160.25,7.22 267.08,56.3 267.08,56.3 0,0 242.55,80.85 323.4,317.62 80.84,236.77 -204.05,505.88 -204.05,505.88l-116.46 -55.44c-26.95,-34.65 -43.79,-103.95 -80.85,-103.95l-98.17 50.53c-33.29,-115.25 4.72,-111.08 -138.6,-36.09 -23.46,-59.72 16.84,-124.33 -86.62,-31.76 -65.96,-83.17 -4.98,-121.13 -132.82,-43.32 -37.54,-34.65 -50.53,-108.28 -112.61,-103.94l-60.64 23.09 -66.41 -72.18 -91.79 13.63 -22.26 -32.4z"/>
    <path class="fil3 str0" d="M4374.64 7915.91c0,0 -67.85,-62.08 -164.58,-49.09 -96.73,12.99 -476.43,102.5 -476.43,102.5 0,0 -23.1,54.86 -15.88,95.29 7.22,40.42 53.42,132.82 53.42,132.82 0,0 397.02,-103.95 450.44,-112.61 53.41,-8.66 138.59,56.31 138.59,56.31l14.44 -225.22z"/>
    <path class="fil2 str0" d="M3717.75 7982.32c0,0 -142.93,17.32 -144.37,37.53 -1.44,20.22 62.08,30.32 62.08,30.32 0,0 -124.16,43.67 -124.16,50.89 0,7.22 110.44,-25.26 110.44,-12.99 0,12.27 -117.66,35.37 -114.77,44.75 2.88,9.39 109.72,-9.38 110.44,-5.05 0.72,4.33 -108.28,20.21 -108.28,31.04 0,10.83 103.23,-12.27 106.12,-3.61 2.88,8.67 -119.83,28.15 -110.45,41.87 9.39,13.72 66.41,30.32 102.51,31.04 36.09,0.72 155.97,-46.91 155.97,-46.91l-45.53 -198.88z"/>
    <path class="fil2 str0" d="M5713.57 8451.04c0,0 184.08,-7.22 185.52,9.38 1.44,16.6 -98.9,41.87 -98.9,41.87 0,0 234.61,38.98 238.22,51.25 3.61,12.27 -117.3,13.72 -117.3,13.72 0,0 115.85,8.66 115.85,20.93 0,12.27 -119.46,5.41 -119.46,5.41 0,0 125.24,16.97 122.35,29.24 -2.89,12.27 -123.07,15.16 -123.07,15.16 0,0 86.98,5.05 86.26,18.77 -0.72,13.71 -65.69,20.93 -85.18,19.48 -19.49,-1.44 -98.9,-12.27 -115.5,-12.27 -16.6,0 -162.37,-48.45 -162.37,-48.45l73.58 -164.49z"/>
    <path class="fil1 str0" d="M4373.49 7900.64l-49.81 407.83c0,0 -57.75,155.92 -86.62,476.42 -28.88,320.5 46.19,695.87 46.19,695.87 0,0 407.13,28.87 606.36,-28.88 199.23,-57.74 629.46,-334.94 629.46,-334.94 0,0 -242.54,-92.39 -329.17,-205 -86.62,-112.61 -202.11,-539.95 -202.11,-539.95l16.26 -176.71 -113.33 -74.95c0,0 -6.88,92.85 -44.42,104.4 -37.54,11.55 -306.07,-17.32 -343.6,-49.09 -37.54,-31.76 -3.5,-270.13 -3.5,-270.13l-125.71 -4.87z"/>
    <path class="fil11 str0" d="M4283.25 9480.76c0,0 -89.5,60.61 -80.84,124.13 8.66,63.52 -28.87,75.07 20.21,80.85 49.09,5.77 358.05,-14.44 433.12,-23.1 75.07,-8.66 115.5,-14.44 129.93,-40.42 14.44,-25.99 -17.84,-147.19 -17.84,-147.19l-484.58 5.73z"/>
    <path class="fil12 str0" d="M5067.52 9377.42c0,0 93.52,256.34 148.38,293.88 54.86,37.54 205,-109.72 268.53,-176.13 63.52,-66.41 329.16,-375.37 311.84,-430.23 -17.32,-54.86 -92.4,-49.09 -135.71,-31.76 -43.31,17.33 -189.7,63.66 -189.7,63.66l-403.34 280.58z"/>
   </g>
  </g>
 </g>
</svg>
