<?xml version="1.0" encoding="UTF-8" standalone="no"?>
<!-- Created with Inkscape (http://www.inkscape.org/) -->

<svg
   width="30mm"
   height="30mm"
   viewBox="0 0 30 30"
   version="1.1"
   id="svg1076"
   inkscape:version="1.1 (c68e22c387, 2021-05-23)"
   sodipodi:docname="pBackground.svg"
   inkscape:export-filename="D:\web-work\kindergarten\pBackground.png"
   inkscape:export-xdpi="232"
   inkscape:export-ydpi="232"
   xmlns:inkscape="http://www.inkscape.org/namespaces/inkscape"
   xmlns:sodipodi="http://sodipodi.sourceforge.net/DTD/sodipodi-0.dtd"
   xmlns="http://www.w3.org/2000/svg"
   xmlns:svg="http://www.w3.org/2000/svg">
  <sodipodi:namedview
     id="namedview1078"
     pagecolor="#ffffff"
     bordercolor="#666666"
     borderopacity="1.0"
     inkscape:pageshadow="2"
     inkscape:pageopacity="0.0"
     inkscape:pagecheckerboard="0"
     inkscape:document-units="mm"
     showgrid="false"
     inkscape:zoom="2.11"
     inkscape:cx="167"
     inkscape:cy="20.1"
     inkscape:window-width="1920"
     inkscape:window-height="1001"
     inkscape:window-x="-9"
     inkscape:window-y="-9"
     inkscape:window-maximized="1"
     inkscape:current-layer="layer1" />
  <defs
     id="defs1073" />
  <g
     inkscape:label="Layer 1"
     inkscape:groupmode="layer"
     id="layer1">
    <g
       id="g10357"
       transform="matrix(0.063,0,0,0.121,44.9,-3.31)"
       style="stroke-width:2.55612">
      <g
         id="g10115"
         style="stroke-width:2.55612">
        <path
           style="fill:#00ff00;stroke:#000000;stroke-width:0.591744px;stroke-linecap:butt;stroke-linejoin:miter;stroke-opacity:1"
           d="m -366,257 c 0,0 -10,-28 -19,-39 -9,-12 -19,-22 -31,-27 -1,0 -2,-1 -2,-1 -12,-4 -24,-5 -35,-1 -5,2 -12,11 -12,11 0,0 7,-7 12,-8 12,-3 23,-3 35,1 12,5 23,16 31,27 9,10 21,37 21,37 z"
           id="path8833"
           sodipodi:nodetypes="csssscsssc" />
        <path
           style="fill:#00ff00;stroke:#000000;stroke-width:0.591744px;stroke-linecap:butt;stroke-linejoin:miter;stroke-opacity:1"
           d="m -366,257 c 0,0 -20,-26 -30,-36 -10,-8 -21,-16 -33,-18 -7,-1 -20,5 -20,5 0,0 13,-4 19,-3 13,3 23,10 34,18 10,9 30,34 30,34"
           id="path9134"
           sodipodi:nodetypes="csscssc" />
        <path
           style="fill:#00ff00;stroke:#000000;stroke-width:0.591744px;stroke-linecap:butt;stroke-linejoin:miter;stroke-opacity:1"
           d="m -366,257 c 0,0 -27,-28 -43,-32 -8,-2 -26,5 -26,5 0,0 17,-4 25,-2 16,4 44,29 44,29 z"
           id="path9340"
           sodipodi:nodetypes="cscsc" />
        <path
           style="fill:#00ff00;stroke:#000000;stroke-width:0.591744px;stroke-linecap:butt;stroke-linejoin:miter;stroke-opacity:1"
           d="m -366,257 c 0,0 10,-28 18,-39 9,-12 20,-22 32,-27 1,0 2,-1 2,-1 12,-4 24,-5 35,-1 5,2 12,11 12,11 0,0 -7,-7 -12,-8 -12,-3 -23,-3 -35,1 -12,5 -23,16 -32,27 -8,10 -20,37 -20,37 z"
           id="path8833-7"
           sodipodi:nodetypes="csssscsssc" />
        <path
           style="fill:#00ff00;stroke:#000000;stroke-width:0.591744px;stroke-linecap:butt;stroke-linejoin:miter;stroke-opacity:1"
           d="m -366,257 c 0,0 19,-26 30,-36 10,-8 21,-16 33,-18 6,-1 20,5 20,5 0,0 -14,-4 -19,-3 -13,3 -23,10 -34,18 -11,9 -30,34 -30,34"
           id="path9134-7"
           sodipodi:nodetypes="csscssc" />
        <path
           style="fill:#00ff00;stroke:#000000;stroke-width:0.591744px;stroke-linecap:butt;stroke-linejoin:miter;stroke-opacity:1"
           d="m -366,257 c 0,0 26,-28 43,-32 8,-2 25,5 25,5 0,0 -16,-4 -24,-2 -16,4 -44,29 -44,29 z"
           id="path9340-3"
           sodipodi:nodetypes="cscsc" />
        <path
           style="fill:#00ff00;stroke:#000000;stroke-width:0.677371px;stroke-linecap:butt;stroke-linejoin:miter;stroke-opacity:1"
           d="m -366,257 c 0,0 2,-34 -2,-50 -3,-13 -6,-27 -15,-36 -1,-1 -1,-1 -1,-1 -7,-7 -29,-11 -29,-11 0,0 19,6 26,13 9,9 13,23 16,36 4,16 5,49 5,49"
           id="path9764"
           sodipodi:nodetypes="cssscssc" />
      </g>
    </g>
    <g
       id="g19776"
       transform="matrix(0.291,0,0,0.291,70.1,-50.2)"
       style="stroke-width:3.43794">
      <path
         style="fill:#7cfc00;stroke:#000000;stroke-width:0.911054px;stroke-linecap:butt;stroke-linejoin:miter;stroke-opacity:1"
         d="m -176,216 -1,-6 9,-4 c 0,0 -1,-1 -1,-2 0,0 0,0 0,0 1,-2 4,-2 4,-2 0,0 -4,-1 -2,-2 1,-1 6,-4 6,-4 l -3,-1 4,-3 -1,-1 2,-3 -1,-1 2,-5 c 0,0 -2,3 -4,3 -1,0 -1,-2 -1,-2 0,0 -4,5 -7,4 0,0 -1,-2 -1,-2 0,0 0,3 -2,4 -1,0 -3,-1 -3,-1 l -2,6 h -1 -2 l 4,16 v 0 0"
         id="path11077-6"
         sodipodi:nodetypes="cccsscscccccccscscsccccccc" />
      <path
         style="fill:#ff0000;stroke:#000000;stroke-width:0.911054px;stroke-linecap:butt;stroke-linejoin:miter;stroke-opacity:1"
         d="m -199,198 c 0,0 2,1 1,4 0,3 -6,8 -8,9 v 0 c -3,1 -8,1 -8,1 0,0 -1,-8 1,-11 1,-3 3,-5 4,-6 l 2,-1 c 1,0 3,3 3,3 z"
         id="path11114-5"
         sodipodi:nodetypes="ccsscssscc" />
      <path
         style="fill:#228c3a;stroke:#228c3a;stroke-width:0.911054px;stroke-linecap:butt;stroke-linejoin:miter;stroke-opacity:1"
         d="m -176,204 c 0,-1 0,-8 0,-8 l 1,5 3,-5 -1,-7 2,5 7,-7 -4,5 c 0,0 5,0 5,0 -1,0 -5,1 -5,1 l -4,5 h 5 l -6,2 -2,4 c 0,0 6,-2 5,-2 -1,1 -5,3 -5,3 l -1,2 z"
         id="path12530-6" />
      <ellipse
         style="fill:#ffe4e1;stroke:#f08080;stroke-width:0.911054"
         id="path13670-08"
         cx="-206"
         cy="204"
         rx="0.983"
         ry="0.89" />
      <ellipse
         style="fill:#ffe4e1;stroke:#f08080;stroke-width:0.911054"
         id="path13670-7-3"
         cx="-210"
         cy="200"
         rx="0.983"
         ry="0.89" />
      <ellipse
         style="fill:#ffe4e1;stroke:#f08080;stroke-width:0.911054"
         id="path13670-4-5"
         cx="-206"
         cy="201"
         rx="0.983"
         ry="0.89" />
      <ellipse
         style="fill:#ffe4e1;stroke:#f08080;stroke-width:0.911054"
         id="path13670-78-4"
         cx="-209"
         cy="205"
         rx="0.983"
         ry="0.89" />
      <ellipse
         style="fill:#ffe4e1;stroke:#f08080;stroke-width:0.911054"
         id="path13670-0-6"
         cx="-206"
         cy="208"
         rx="0.983"
         ry="0.89" />
      <ellipse
         style="fill:#ffe4e1;stroke:#f08080;stroke-width:0.911054"
         id="path13670-1-3"
         cx="-204"
         cy="200"
         rx="0.983"
         ry="0.89" />
      <ellipse
         style="fill:#ffe4e1;stroke:#f08080;stroke-width:0.911054"
         id="path13670-6-02"
         cx="-202"
         cy="205"
         rx="0.983"
         ry="0.89" />
      <ellipse
         style="fill:#ffe4e1;stroke:#f08080;stroke-width:0.911054"
         id="path13670-2-1"
         cx="-207"
         cy="197"
         rx="0.983"
         ry="0.89" />
      <ellipse
         style="fill:#ffe4e1;stroke:#f08080;stroke-width:0.911054"
         id="path13670-25-6"
         cx="-212"
         cy="203"
         rx="0.983"
         ry="0.89" />
      <ellipse
         style="fill:#ffe4e1;stroke:#f08080;stroke-width:0.911054"
         id="path13670-74-2"
         cx="-212"
         cy="207"
         rx="0.983"
         ry="0.89" />
      <ellipse
         style="fill:#ffe4e1;stroke:#f08080;stroke-width:0.911054"
         id="path13670-3-1"
         cx="-209"
         cy="210"
         rx="0.983"
         ry="0.89" />
      <ellipse
         style="fill:#ffe4e1;stroke:#f08080;stroke-width:0.911054"
         id="path13670-73-2"
         cx="-200"
         cy="201"
         rx="0.983"
         ry="0.89" />
      <path
         style="fill:#008000;stroke:#000000;stroke-width:0.911054px;stroke-linecap:butt;stroke-linejoin:miter;stroke-opacity:1"
         d="m -178,216 c 0,0 -1,-11 -4,-15 -2,-3 -4,-6 -8,-7 -3,-1 -8,0 -8,1 0,1 3,6 3,6 0,0 -4,-3 -4,-3 0,0 -3,5 -3,4 0,-1 2,-3 1,-4 l -5,2 c 0,0 2,-2 2,-3 0,0 -3,-3 -2,-3 0,0 4,1 5,0 0,0 -1,-2 -1,-2 0,0 2,2 3,2 1,0 4,-2 5,-2 4,-1 8,2 10,4 3,2 6,8 6,8 l 2,6 v 6 z"
         id="path11079-8"
         sodipodi:nodetypes="caascssccssscscccccc" />
    </g>
    <g
       id="g2254"
       transform="matrix(0.095,0,0,0.1,17.3,-10.7)"
       style="stroke-width:3.43794">
      <path
         style="fill:#ff0000;stroke:#ff2a2a;stroke-width:0.911054px;stroke-linecap:butt;stroke-linejoin:miter;stroke-opacity:1"
         d="m -159,259 c 2,8 16,48 38,48 23,-3 32,-45 32,-45 l -13,13 -7,-14 -8,13 -8,-14 -6,12 -9,-15 -6,15 z"
         id="path123"
         sodipodi:nodetypes="csccccccccc" />
      <path
         style="fill:#00ff00;stroke:#000000;stroke-width:0.857759px;stroke-linecap:butt;stroke-linejoin:miter;stroke-opacity:1"
         d="m -121,307 h 4 l -1,75 h -4 z"
         id="path994" />
      <path
         style="fill:#00ff00;stroke:#000000;stroke-width:0.915524px;stroke-linecap:butt;stroke-linejoin:miter;stroke-opacity:1"
         d="m -118,382 c 0,0 18,-7 31,-25 7.9,-11 9,-28 9,-28 0,0 -18.4,5 -28,18 -13,18 -12,35 -12,35 z"
         id="path1029-2"
         sodipodi:nodetypes="cscsc" />
      <path
         style="fill:#00ff00;stroke:#000000;stroke-width:0.915524px;stroke-linecap:butt;stroke-linejoin:miter;stroke-opacity:1"
         d="m -122,382 c 0,0 -18,-7 -31,-25 -8,-11 -9,-28 -9,-28 0,0 19,5 28,18 13,18 12,35 12,35 z"
         id="path1029-2-5"
         sodipodi:nodetypes="cscsc" />
    </g>
  </g>
</svg>
