<?xml version="1.0" encoding="UTF-8"?>
<!DOCTYPE svg PUBLIC "-//W3C//DTD SVG 1.1//EN" "http://www.w3.org/Graphics/SVG/1.1/DTD/svg11.dtd">
<!-- Creator: CorelDRAW 2019 (64-Bit) -->
<svg xmlns="http://www.w3.org/2000/svg" xml:space="preserve" width="100mm" height="100mm" version="1.1" style="shape-rendering:geometricPrecision; text-rendering:geometricPrecision; image-rendering:optimizeQuality; fill-rule:evenodd; clip-rule:evenodd"
viewBox="0 0 100 100"
 xmlns:xlink="http://www.w3.org/1999/xlink"
 xmlns:xodm="http://www.corel.com/coreldraw/odm/2003">
 <defs>
  <style type="text/css">
   <![CDATA[
    .str0 {stroke:#2B2A29;stroke-width:0.2;stroke-miterlimit:22.9256}
    .str1 {stroke:#AA525E;stroke-width:0.2;stroke-miterlimit:22.9256}
    .str2 {stroke:#CA9CC8;stroke-width:0.2;stroke-miterlimit:22.9256}
    .fil6 {fill:none}
    .fil13 {fill:#FEFEFE}
    .fil12 {fill:#FEFEFE}
    .fil14 {fill:#2B2A29}
    .fil8 {fill:#0088CC}
    .fil1 {fill:#3C0028}
    .fil4 {fill:#A71E92}
    .fil15 {fill:#AA525E}
    .fil9 {fill:#CA253E}
    .fil16 {fill:#CA9CC8}
    .fil2 {fill:#CA9CCD}
    .fil7 {fill:#F2141D}
    .fil11 {fill:#F5121B}
    .fil10 {fill:#F5EF13}
    .fil5 {fill:#FBC382}
    .fil0 {fill:#FBC382}
    .fil3 {fill:#FBDBD4}
   ]]>
  </style>
 </defs>
 <g id="Layer_x0020_1">
  <metadata id="CorelCorpID_0Corel-Layer"/>
  <path class="fil0 str0" d="M46.7025 72.2143c0,0 0.7406,7.1313 3.091,5.643 2.3503,-1.4883 1.1596,-5.7115 1.1596,-5.7115l-4.2506 0.0685z"/>
  <path class="fil0 str0" d="M44.617 69.8967c0.7193,0.9343 1.3228,1.5464 1.6618,1.0998 0.339,-0.4466 0.2254,-0.1106 0.523,0.0217 0.2976,0.1323 0.1963,1.4085 1.2877,2.2023 1.9281,1.4023 2.8348,0.9308 4.6468,-1.6867 0.7416,-1.0713 0.248,-2.1166 0.5126,-3.1419 0.2646,-1.0253 0.959,-2.4144 0.6945,-3.9688 -0.2645,-1.5544 -2.3811,-2.1166 -3.5718,-2.0174 -1.1907,0.0992 -3.4397,-0.2316 -4.035,1.2567 -0.5953,1.4883 -2.0835,1.819 -1.3559,3.175 0.7276,1.356 0.9754,1.0995 0.8514,1.2153 -0.124,0.1158 -0.092,-0.4197 -1.0614,-0.059 -0.9694,0.3607 -0.2777,1.4317 -0.1537,1.903z"/>
  <path class="fil1 str0" d="M52.5626 75.1716c2.4805,-0.8268 4.068,-5.3579 4.068,-7.9376 0,-2.5797 -2.3151,-9.3596 -7.3422,-9.1612 -5.0271,0.1984 -7.9047,4.2993 -8.5331,7.8051 -0.6284,3.5058 1.3555,9.5911 0.3966,12.1046 -0.5453,1.4293 1.2285,8.6204 -1.4623,6.5153 -1.1833,-0.9257 -1.4811,-1.8024 -1.4811,-1.8024 0,0 -0.2978,1.7032 1.2897,2.6789 1.5875,0.9757 4.9279,0.8764 5.1925,-2.497 0.2646,-3.3734 2.3647,-8.3343 2.6293,-8.8635 0.2646,-0.5292 -0.0876,-1.5711 -0.306,-1.9595 -0.2184,-0.3884 -0.1698,-2.3442 -0.5913,-1.2445 -0.4215,1.0997 -1.8809,-0.5124 -2.0463,-1.1408 -0.1654,-0.6284 -0.6721,-1.3859 0.1297,-1.6753 0.8018,-0.2894 1.6066,0.8438 1.805,0.5462 0.1984,-0.2976 0.496,-2.1828 0.496,-2.1828 0,0 0.4961,0.496 0.7938,0.0992 0.2977,-0.3968 0.5292,-0.926 1.7529,-0.9591 1.2237,-0.0331 1.7529,0.0662 2.2159,-0.463 0.463,-0.5292 1.1245,-0.9591 1.1245,-0.9591 0,0 0.2645,0.6946 0.1653,1.1245 -0.0992,0.4299 -0.0992,0.9921 0.1654,0.7937 0.2646,-0.1984 0.3638,0.5954 0.2646,1.2899 -0.0992,0.6945 -0.0723,0.9033 -0.032,2.3377 0.0403,1.4344 -0.3351,2.1933 -0.8742,2.9419 -0.5391,0.7486 -1.6404,0.8225 -1.2766,1.7154 0.3638,0.8929 1.4559,0.8934 1.4559,0.8934z"/>
  <path class="fil2 str0" d="M45.2193 75.6615c-0.016,0.1279 -1.1738,0.7893 -1.2831,0.8604 -0.7048,0.4584 -0.6075,2.3029 -0.5314,3.2806 0.0989,1.2702 0.269,2.4682 0.4073,3.9352 0.0499,0.5288 0.8946,1.978 1.2411,2.6276 0.2227,0.4176 -0.4464,1.1906 -0.5457,1.7198 -0.0993,0.5292 0.1983,0.8599 1.389,1.356 1.1907,0.4961 2.4804,-0.4962 3.4396,-0.5292 0.9592,-0.033 1.6867,0.033 2.4805,0 0.7938,-0.033 1.2237,0.0001 1.9844,-0.7606 0.7607,-0.7607 1.8189,-2.9436 1.2898,-4.3657 -0.5291,-1.4221 -0.9261,-3.142 -0.9591,-4.8287 -0.033,-1.6867 -0.463,-2.9435 -0.926,-3.175 -0.463,-0.2315 -1.852,-1.1245 -2.1828,-1.2237 -0.3308,-0.0992 0.6946,1.9181 -0.7607,2.3151 -1.4553,0.397 -3.0583,-2.5291 -3.0583,-2.5291l-1.9846 1.3173z"/>
  <path class="fil3 str0" d="M44.5308 89.3905c0,0 -0.6031,0.844 0.0584,2.7623 0.6615,1.9183 1.9179,2.5796 3.3069,3.0096 1.389,0.43 6.7138,1.323 6.7138,1.6868 0,0.3638 -7.3921,-1.7695 -7.8385,-1.9844 -0.4464,-0.2149 -1.5048,-2.034 -2.2324,-1.7198 -0.7276,0.3142 -0.6614,1.0914 -1.1906,1.7363 -0.5292,0.6449 -1.5544,0.6611 -1.9182,1.5211 -0.3638,0.86 -0.5623,2.0174 -0.43,2.4805 0.1323,0.4631 0.3638,0.2647 0.9922,-0.2976 0.6284,-0.5623 1.786,-1.3561 2.712,-1.5545 0.926,-0.1984 1.0915,-0.1654 1.6537,0.0331 0.5622,0.1985 2.0506,0.7276 2.5797,0.8599 0.5291,0.1323 8.9526,2.9186 9.6227,0.9561 0.6701,-1.9625 0.138,-2.5038 -0.7922,-3.6681 -0.9302,-1.1643 -3.5058,-3.4727 -4.3657,-4.1011 -0.8599,-0.6284 -1.6867,-1.3228 -1.9017,-1.4055 -0.215,-0.0827 -1.323,0.6942 -1.323,0.6942l-5.6471 -1.0089z"/>
  <path class="fil4 str0" d="M44.7076 88.6251c0,0 1.2147,1.1085 2.0302,0.9877 0.8155,-0.1208 1.5379,-0.3549 2.3482,-0.4541 0.8103,-0.0992 1.8692,-0.3265 2.4808,-0.2046 0.6116,0.1219 2.0668,-0.5727 2.5298,-0.49 0.463,0.0827 0.8929,3.6711 0.5457,4.1672 -0.3472,0.4961 -2.7337,3.2013 -3.3552,3.2959 -0.6215,0.0946 -4.6963,-0.8998 -5.1611,-1.4438 -0.4648,-0.544 -1.4758,-1.7033 -1.8025,-2.9931 -0.3267,-1.2898 0.3841,-2.8652 0.3841,-2.8652z"/>
  <path class="fil3 str0" d="M57.41 94.94c0,0 1.4901,-0.7377 1.5562,-0.8039 0.0661,-0.0662 1.1163,1.0086 1.0832,1.8355 -0.0331,0.8269 -1.1287,2.0502 -1.1287,2.0502 0,0 -0.0289,-1.5044 -0.2935,-1.7525 -0.2646,-0.2481 -1.2172,-1.3293 -1.2172,-1.3293z"/>
  <path class="fil5 str0" d="M52.9512 82.923c0.303,-1.3229 0.2695,-0.935 0.3523,-1.8924 0.0828,-0.9574 -0.4301,-5.2256 2.7119,-5.1264 3.142,0.0992 6.0524,1.7195 6.5816,3.9354 0.5292,2.2159 -2.2819,2.3152 -2.4804,3.0097 -0.1985,0.6945 -0.5458,1.5709 -0.4466,1.6702 0.0992,0.0993 0.2333,-0.9896 0.9522,-0.8298 0.7189,0.1598 0.5939,1.1108 0.2963,1.425 -0.2976,0.3142 -1.0501,0.8105 -1.3808,0.7443 -0.3307,-0.0662 -0.8104,0.4961 -1.3891,0.7276 -0.5787,0.2315 -1.7363,0.5789 -2.8442,0.182 -1.1079,-0.3969 -1.5379,-1.1246 -1.9844,-1.7695 -0.4465,-0.6449 -0.3636,-1.4894 -0.3688,-2.0761z"/>
  <path class="fil6 str0" d="M55.3447 83.3635c-0.4134,0.3308 -0.7773,0.5458 -0.5623,0.7773 0.215,0.2315 0.4424,0.2232 0.4424,0.2232"/>
  <path class="fil6 str0" d="M53.2991 82.2786c0.5126,-0.1157 0.9425,0.1324 0.926,0.3804"/>
  <path class="fil6 str0" d="M56.1103 83.337c0.5292,-0.3308 0.7937,-0.0992 0.9095,0.1488"/>
  <path class="fil6 str0" d="M54.7295 85.3463c0.3846,-0.2621 1.0723,-0.3351 1.2734,0.2067"/>
  <path class="fil0 str0" d="M51.5539 83.7995c0.215,-0.4796 1.1988,-0.7773 1.2485,-0.6698 0.0497,0.1075 -0.7441,0.8269 -0.7441,0.8269 0,0 0.9095,-0.5788 0.9839,-0.4217 0.0744,0.1571 -0.6449,0.8351 -0.6449,0.8351 0,0 0.8351,-0.4464 0.8847,-0.3059 0.0496,0.1405 -0.5622,0.7193 -0.5622,0.7193 0,0 0.8846,-0.3969 0.9012,-0.2563 0.0166,0.1406 -0.5127,0.496 -0.6284,0.6118 -0.1157,0.1158 -0.1904,0.4714 -0.2565,0.5789 -0.0661,0.1075 -0.2727,0.4631 -0.8681,0.215 -0.5954,-0.2481 -1.1163,-0.6366 -0.9344,-0.9922 0.1819,-0.3556 0.6203,-1.1411 0.6203,-1.1411z"/>
  <path class="fil0 str0" d="M57.6391 87.3135c-0.4299,-0.1571 -0.463,-0.6781 -0.5374,-0.7938 -0.0744,-0.1157 -0.587,-0.5209 -0.463,-0.7028 0.124,-0.1819 0.6036,0.1571 0.6036,0.1571 0,0 -0.43,-0.6862 -0.3225,-0.802 0.1075,-0.1158 0.6697,0.3886 0.6697,0.3886 0,0 -0.6284,-0.7359 -0.4878,-0.8103 0.1406,-0.0744 0.8764,0.4134 0.8516,0.3638 -0.0248,-0.0496 -0.496,-0.4879 -0.372,-0.6284 0.124,-0.1405 0.7027,0.0082 0.926,0.339 0.2233,0.3308 0.463,1.5379 0.4713,1.7033 0.0083,0.1654 -1.3395,0.7855 -1.3395,0.7855z"/>
  <path class="fil7 str0" d="M52.6694 85.8158c0,0 0.3641,0.5674 0.8106,0.5922 0.4465,0.0248 1.323,-0.1737 1.323,-0.1737l-0.4052 1.9679c0,0 -1.8025,0.0909 -2.4557,-0.6036 -0.6532,-0.6945 -0.86,-1.6951 -0.8765,-1.8935 -0.0165,-0.1984 1.6038,0.1107 1.6038,0.1107z"/>
  <path class="fil7 str0" d="M57.6391 87.3135c0,0 -0.2069,1.0457 0.2065,1.5087 0.4134,0.463 1.0088,1.2569 1.5214,1.0088 0.5126,-0.2481 0.8268,-0.5458 0.7441,-1.1907 -0.0827,-0.6449 -0.3142,-1.389 -0.4961,-1.6536 -0.1819,-0.2646 -0.6364,-0.4587 -0.6364,-0.4587l-1.3395 0.7855z"/>
  <path class="fil7 str0" d="M54.7938 86.2786c0,0 -0.4938,1.3148 -0.6972,2.1855 -0.2034,0.8707 -0.3521,1.6314 -0.2364,1.9456 0.1157,0.3142 0.9921,0.893 1.7859,1.1245 0.7938,0.2315 3.4891,0.2479 3.5884,-0.2812 0.0993,-0.5291 -0.5291,-2.3647 -0.6614,-2.9104 -0.1323,-0.5457 -0.2643,-1.4219 -0.2643,-1.4219 0,0 -0.8541,0.0804 -1.0308,0.0649 -0.1767,-0.0155 -0.5736,0.8775 -1.0862,0.8279 -0.5126,-0.0496 -0.1323,-1.0914 -0.3142,-1.2072 -0.1819,-0.1158 -1.0838,-0.3277 -1.0838,-0.3277z"/>
  <path class="fil8 str0" d="M53.9428 90.7072c0,0 0.0167,0.2315 -0.0495,0.3142 -0.0662,0.0827 -2.2989,1.8108 -2.4146,1.9265 -0.1157,0.1157 0.7606,-0.1653 1.1906,-0.0496 0.43,0.1157 1.2334,0.6223 1.2334,0.6223 0,0 0.8833,-0.0766 1.3298,0.2872 0.4465,0.3638 1.4056,1.5047 1.4883,1.7032 0.0827,0.1985 0.0886,-0.1664 0.6892,-0.571 0.6006,-0.4046 1.5928,-0.6527 1.8078,-1.1653 0.215,-0.5126 0.4465,-1.7694 0.3473,-2.0505 -0.0992,-0.2811 -2.7615,0.0165 -3.2246,0.0165 -0.4631,0 -2.3977,-1.0335 -2.3977,-1.0335z"/>
  <path class="fil0 str0" d="M52.2404 92.8766c0,0 -0.4971,0.8814 -0.6459,1.4436 -0.1488,0.5622 -0.4795,2.3812 -0.4795,2.3812 0,0 1.4883,0.4796 1.5379,0.3804 0.0496,-0.0992 1.3882,-3.5674 1.3882,-3.5674 0,0 -0.363,-0.4179 -0.8591,-0.5998 -0.4961,-0.1819 -0.9416,-0.038 -0.9416,-0.038z"/>
  <path class="fil0 str0" d="M54.0411 93.5144c0,0 0.3565,-0.0298 0.993,0.3428 0.6365,0.3726 1.3762,1.2208 1.3762,1.2208 0,0 -0.4996,0.3502 -0.7312,0.6478 -0.2316,0.2976 -1.2072,2.5135 -1.2072,2.5135 0,0 -0.7773,0.3307 -1.2072,-0.2811 -0.4299,-0.6118 -0.6118,-0.8764 -0.6118,-0.8764l1.3882 -3.5674z"/>
  <path class="fil9 str0" d="M51.115 96.7014c0,0 -0.2233,0.4794 -0.5458,0.4546 -0.3225,-0.0248 -0.5954,-0.0248 -0.7938,0.1488 -0.1984,0.1736 -0.9343,0.8764 -0.802,1.1245 0.1323,0.2481 0.0991,0.6284 0.5787,0.9922 0.4796,0.3638 0.7276,0.5292 1.0914,0.4796 0.3638,-0.0496 -0.2976,-0.4631 -0.463,-0.893 -0.1654,-0.4299 -0.124,-0.8433 0.0496,-1.0831 0.1736,-0.2398 0.248,-0.397 0.4961,-0.4796 0.2481,-0.0826 0.802,-0.2893 0.9674,-0.3224 0.1654,-0.0331 0.6206,-0.076 0.6206,-0.076l-1.1992 -0.3456z"/>
  <path class="fil9 str0" d="M52.6528 97.2139c0,0 -1.4848,-0.0155 -1.8498,0.2054 -0.365,0.2209 -0.8142,0.9233 -0.7225,1.161 0.0917,0.2377 -0.0505,0.5416 0.4256,0.8981 0.4761,0.3565 1.9478,1.3487 2.5762,1.2164 0.6284,-0.1323 0.7938,-0.0332 0.9757,-0.43 0.1819,-0.3968 0.7105,-1.7777 0.5622,-1.9016 -0.1483,-0.1239 -0.2583,0.303 -0.8069,-0.051 -0.5486,-0.354 -1.1605,-1.0983 -1.1605,-1.0983z"/>
  <path class="fil10 str0" d="M52.9164 81.3798c0,0 -1.0583,-3.2082 -0.6945,-4.2334 0.3638,-1.0252 1.6867,-2.4143 2.8112,-2.7781 1.1245,-0.3638 3.9358,-0.8598 5.2256,-0.0992 1.2898,0.7606 2.5796,2.2489 3.3403,3.3734 0.7607,1.1245 0.7938,2.0836 0.9261,3.2081 0.1323,1.1245 0.496,3.4726 0.1984,4.3987 -0.2976,0.9261 -0.6945,0.7938 -0.3307,2.3813 0.3638,1.5875 -0.6284,1.786 -0.1654,3.3073 0.6986,2.2953 2.2925,1.8975 2.4144,1.2568 0.1322,-0.6946 -0.3308,-1.1576 -0.3308,-1.1576 0,0 0.8599,0.0993 0.893,0.7938 0.0331,0.6945 -0.1487,1.2744 -1.0583,1.6205 -1.649,0.6275 -3.9364,-0.4971 -4.6302,-1.4222 -1.412,-1.8825 -0.5075,-3.7565 -1.5214,-5.3577 -0.2894,-0.4572 -0.4215,-0.5708 0.2812,-0.8931 0.7027,-0.3223 0.9844,-0.7494 1.0251,-1.3064 0.0407,-0.557 -0.1241,-0.9176 -0.554,-0.9176 -0.4299,0 -0.7855,-0.0581 -1.3146,-0.5541 -0.5291,-0.496 -0.7606,-1.9181 -0.8929,-2.2158 -0.1323,-0.2977 -0.9491,0.5952 -0.9491,0.5952 0,0 0.0229,-1.0582 -0.1424,-1.3559 -0.1653,-0.2977 -0.6614,0.5622 -0.6614,0.5622 0,0 0.4795,-1.3725 0.0165,-1.6371 -0.463,-0.2646 -0.7275,1.1244 -0.7275,1.1244 0,0 -0.0869,-1.0813 -0.3003,-1.2082 -0.1465,-0.087 -0.4056,0.7824 -0.5266,0.7287 -0.2976,-0.1321 -0.035,-1.2316 -0.035,-1.2316 -0.2471,0.4658 -0.4117,1.378 -0.7414,1.3973l-0.5086 -0.6052 -0.6227 0.6812 -0.424 1.5443z"/>
  <path class="fil0 str0" d="M49.5023 80.1318c0,0 0.9412,-1.1252 1.5696,-1.7206 0.6284,-0.5954 1.1576,-0.9426 1.4718,-0.9757 0.3142,-0.0331 1.8355,-1.8189 2.1001,-1.5213 0.2646,0.2976 -1.5379,1.6205 -1.5379,1.6205 0,0 1.9349,-1.389 2.0506,-1.1575 0.1157,0.2315 -2.001,1.5048 -2.001,1.5048 0,0 1.9017,-0.9922 2.0175,-0.7607 0.1158,0.2315 -1.6702,1.2733 -1.6702,1.2733 0,0 1.604,-0.5787 1.6867,-0.4299 0.0827,0.1488 -1.389,0.9922 -1.604,1.1906 -0.215,0.1984 -0.7111,1.0088 -0.9757,1.2072 -0.2646,0.1984 -0.9095,0.6945 -1.1906,0.6945 -0.2811,0 -1.571,0.6284 -1.571,0.6284l-0.3459 -1.5536z"/>
  <path class="fil11 str0" d="M57.3813 72.1854c0.6283,-0.1323 1.2568,-0.1654 1.6867,-0.5292 0.4299,-0.3638 1.6867,-1.6206 2.282,-1.4552 0.5953,0.1654 0.0661,3.9026 0.3638,4.2003 0.2977,0.2977 4.0349,-2.0506 4.6633,-1.5214 0.6284,0.5292 -0.3968,2.6127 -0.5622,3.0758 -0.1654,0.4631 -1.1654,3.3811 -1.5749,3.0631 -0.4095,-0.318 -2.7246,-4.0553 -2.7246,-4.0553 0,0 -2.4875,-0.1193 -3.175,-0.5953 -0.6875,-0.476 -1.3229,-1.389 -0.9591,-2.1828z"/>
  <path class="fil12 str0" d="M52.1549 82.4619c-0.2149,-0.2315 -1.5049,-0.0164 -1.3064,0.3639 0.1985,0.3803 1.3064,-0.3639 1.3064,-0.3639z"/>
  <path class="fil12 str0" d="M51.3777 83.3218c0.1654,0.1158 -1.4884,0.5126 -1.2072,0.7607 0.2812,0.2481 1.2072,-0.7607 1.2072,-0.7607z"/>
  <path class="fil12 str0" d="M58.1412 83.5367c-0.1653,0.2646 1.3408,0.7067 1.0584,1.3891 -0.2824,0.6824 -1.0584,-1.3891 -1.0584,-1.3891z"/>
  <ellipse class="fil13 str0" cx="49.4892" cy="68.8618" rx="0.9922" ry="0.6822"/>
  <ellipse class="fil13 str0" cx="52.0853" cy="68.4692" rx="0.7193" ry="0.587"/>
  <ellipse class="fil14 str0" cx="49.7113" cy="69.0421" rx="0.3628" ry="0.3166"/>
  <ellipse class="fil14 str0" cx="52.1847" cy="68.618" rx="0.3628" ry="0.3166"/>
  <line class="fil6 str0" x1="48.8196" y1="68.0638" x2="48.6046" y2= "67.6503" />
  <line class="fil6 str0" x1="49.4687" y1="67.8819" x2="49.4604" y2= "67.4312" />
  <path class="fil6 str0" d="M50.0847 67.9728c0.0496,-0.0785 0.1447,-0.4713 0.1447,-0.4713"/>
  <line class="fil6 str0" x1="51.6101" y1="67.7372" x2="51.3869" y2= "67.3899" />
  <path class="fil6 str0" d="M52.0938 67.6297c0.0124,-0.0703 -0.0289,-0.401 -0.0289,-0.401"/>
  <path class="fil6 str0" d="M52.6024 67.6586c0,-0.0289 0.1819,-0.3266 0.1819,-0.3266"/>
  <path class="fil15 str1" d="M49.4811 71.4123c0,0 0.5789,0.9757 1.4718,0.4961 0.8929,-0.4796 -0.397,0.6945 -0.5871,0.6862 -0.1901,-0.0083 -0.8442,-1.1214 -0.8442,-1.1214l-0.0405 -0.0609z"/>
  <path class="fil6 str0" d="M50.9526 69.3965c0.0827,0.2315 0.2481,0.4795 0.4961,0.6449 0.248,0.1654 0.3142,0.215 0.0992,0.4961 -0.215,0.2811 -0.7276,-0.0827 -0.7276,-0.0827"/>
 </g>
 <g id="Layer_x0020_1_0">
  <metadata id="CorelCorpID_1Corel-Layer"/>
  <path class="fil16 str0" d="M44.9691 85.8392c0.8282,0.5501 2.2655,0.1653 3.2081,-0.7111 0.9426,-0.8764 1.604,-1.6536 2.0505,-2.3316 0.4465,-0.678 1.2072,-1.5214 1.2072,-1.5214 0,0 -0.893,0.215 -1.2899,-0.4465 -0.3969,-0.6615 -0.5457,-0.8847 -0.5457,-0.8847 0,0 -1.0664,0.3473 -1.8767,1.0418 -0.8103,0.6945 -1.4387,1.0418 -1.4387,1.0418 0.2095,-0.2243 -0.445,-1.9938 -0.2057,-3.8063 0.2357,-1.7855 1.1575,-3.3901 0.9663,-3.4453 -0.3853,-0.1113 -2.2127,0.976 -2.9678,1.535 -0.7551,0.559 -0.5739,4.3218 -0.5339,4.8897 0.04,0.5679 0.233,1.9337 0.2693,2.5371 0.0481,0.7974 0.3288,1.5514 1.157,2.1015z"/>
  <ellipse class="fil16 str2" transform="matrix(1.30152 0.256778 -0.246352 1.24867 46.3959 76.701)" rx="0.5251" ry="1.4325"/>
 </g>
</svg>
