<?xml version="1.0" encoding="UTF-8"?>
<!DOCTYPE svg PUBLIC "-//W3C//DTD SVG 1.1//EN" "http://www.w3.org/Graphics/SVG/1.1/DTD/svg11.dtd">
<!-- Creator: CorelDRAW 2019 (64-Bit) -->
<svg xmlns="http://www.w3.org/2000/svg" xml:space="preserve" width="100mm" height="100mm" version="1.1" style="shape-rendering:geometricPrecision; text-rendering:geometricPrecision; image-rendering:optimizeQuality; fill-rule:evenodd; clip-rule:evenodd"
viewBox="0 0 100 100"
 xmlns:xlink="http://www.w3.org/1999/xlink"
 xmlns:xodm="http://www.corel.com/coreldraw/odm/2003">
 <defs>
  <style type="text/css">
   <![CDATA[
    .str7 {stroke:#005DAD;stroke-width:0.0589;stroke-miterlimit:22.9256}
    .str0 {stroke:#2B2A29;stroke-width:0.0589;stroke-miterlimit:22.9256}
    .str5 {stroke:#2B2A29;stroke-width:0.0176;stroke-miterlimit:22.9256}
    .str6 {stroke:#00A7EB;stroke-width:0.0706;stroke-miterlimit:22.9256}
    .str3 {stroke:#2B2A29;stroke-width:0.0706;stroke-miterlimit:22.9256}
    .str2 {stroke:#005DAD;stroke-width:0.2;stroke-miterlimit:22.9256}
    .str1 {stroke:#2B2A29;stroke-width:0.2;stroke-miterlimit:22.9256}
    .str8 {stroke:#64FFFF;stroke-width:0.2;stroke-miterlimit:22.9256}
    .str4 {stroke:#2B2A29;stroke-width:0.0239;stroke-miterlimit:22.9256}
    .fil13 {fill:none}
    .fil22 {fill:black}
    .fil17 {fill:#005DAD}
    .fil34 {fill:#0071BD}
    .fil29 {fill:#0090D6}
    .fil27 {fill:#00A0E3}
    .fil32 {fill:#00A7EB}
    .fil5 {fill:#1C1B17}
    .fil30 {fill:#23479D}
    .fil7 {fill:#2B2A29}
    .fil33 {fill:#2E3293}
    .fil2 {fill:#42661F}
    .fil8 {fill:#5B5B5B}
    .fil37 {fill:#64FFFF}
    .fil3 {fill:#769897}
    .fil1 {fill:#7C4D31}
    .fil25 {fill:#7EDDFC}
    .fil14 {fill:#7FA5A9}
    .fil23 {fill:#801B00}
    .fil26 {fill:#92F02E}
    .fil0 {fill:#9DC33C}
    .fil24 {fill:#A75F4A}
    .fil15 {fill:#BBD5D6}
    .fil19 {fill:#DEEFFF}
    .fil35 {fill:#E5097F}
    .fil31 {fill:#EE2422}
    .fil12 {fill:#F08143}
    .fil20 {fill:#FBD3D3}
    .fil36 {fill:#FD02FF}
    .fil10 {fill:#FECC00}
    .fil4 {fill:#FEFEFE}
    .fil9 {fill:#FF2000}
    .fil6 {fill:#FF3F4B}
    .fil16 {fill:#FF6FA6}
    .fil28 {fill:#FFCB05}
    .fil18 {fill:gold}
    .fil11 {fill:#FFED00}
    .fil21 {fill:white}
   ]]>
  </style>
 </defs>
 <g id="Layer_x0020_1">
  <metadata id="CorelCorpID_0Corel-Layer"/>
  <g id="_2565210902784">
   <path class="fil0 str0" d="M74.4718 94.7386c0,0 -0.5903,-1.2967 -1.1894,-1.7439 -0.5992,-0.4471 -1.7975,-0.8227 -1.878,-0.8227 -0.0805,0 -0.7391,-0.2888 -0.9032,-0.2236 -0.1641,0.0652 -0.5455,0.1878 -0.5455,0.1878 0,0 1.2609,2.2089 1.5024,2.4503 0.2414,0.2415 1.7974,0.3667 1.869,0.3935 0.0567,0.0213 0.9003,0.061 1.1224,-0.1252 0.0811,-0.0681 0.0223,-0.1162 0.0223,-0.1162z"/>
   <path class="fil1 str0" d="M65.3463 89.9633c0,0 -0.1123,0.3755 -0.4343,0.6706 -0.3219,0.2951 -0.9371,0.4412 -0.7726,0.623 0.1645,0.1818 0.6116,0.5753 0.8486,0.7497 0.237,0.1744 3.2507,0.693 3.7157,0.7288 0.465,0.0358 2.1373,0.1789 2.4414,-0.0179 0.304,-0.1967 0.0257,-1.0686 -0.0716,-1.1446 -0.0972,-0.0761 -4.8022,-1.4532 -5.0347,-1.489 -0.2325,-0.0358 -0.6925,-0.1206 -0.6925,-0.1206z"/>
   <path class="fil0 str0" d="M75.0922 93.8965c0,0 -0.3834,-0.8866 -0.9825,-1.3337 -0.5992,-0.4471 -1.7975,-0.8227 -1.878,-0.8227 -0.0805,0 -0.7392,-0.2888 -0.9032,-0.2236 -0.1641,0.0652 -0.5455,0.1878 -0.5455,0.1878 0,0 1.2609,2.2089 1.5023,2.4503 0.2415,0.2415 1.7975,0.3667 1.8691,0.3935 0.0601,0.0225 0.8625,0.0537 1.1377,-0.1992 0.0876,-0.0805 -0.1999,-0.4524 -0.1999,-0.4524z"/>
   <path class="fil2 str0" d="M65.1001 88.9811c0,0 -0.0045,-0.2817 0.1699,-0.3621 0.1744,-0.0805 0.2683,-0.0716 0.3667,-0.1521 0.0983,-0.0805 0.6215,-0.8272 1.1401,-0.9971 0.5187,-0.1699 0.939,-0.0984 1.1,-0.0894 0.161,0.0089 0.5455,-0.1967 0.9569,-0.1699 0.4113,0.0268 1.1357,0.2951 1.2072,0.3487 0.0716,0.0537 0.6618,-0.1207 0.9882,-0.0089 0.3264,0.1118 0.6081,0.5321 0.7467,0.5321 0.1386,0 0.6036,0.0492 0.7333,0.1297 0.1297,0.0804 0.4561,0.4829 0.5634,0.6349 0.1073,0.152 0.3756,0.3756 0.4829,0.4918 0.1073,0.1163 0.2146,-0.0715 0.313,0.1074 0.0984,0.1788 -0.0626,0.6349 -0.1431,0.778 -0.0805,0.143 -0.0626,0.5097 -0.2683,0.6617 -0.2056,0.1521 -0.4203,0.1878 -0.5902,0.3041 -0.1699,0.1162 -0.1341,0.3666 -0.465,0.4739 -0.3309,0.1074 -0.6618,-0.1073 -0.7959,-0.0268 -0.1341,0.0805 -0.1699,0.3309 -0.4561,0.3577 -0.2861,0.0268 -0.5723,-0.0894 -0.7333,-0.152 -0.1609,-0.0626 -0.1609,0.2101 -0.4605,0.2325 -0.2996,0.0224 -0.6081,-0.161 -0.6841,-0.1565 -0.0761,0.0045 -0.3041,0.1386 -0.5366,0.1297 -0.2325,-0.009 -0.4427,-0.2102 -0.5634,-0.2772 -0.1207,-0.0671 -0.5768,-0.0224 -0.7646,-0.1387 -0.1878,-0.1162 -0.5902,-0.5142 -0.6528,-0.6394 -0.0626,-0.1252 -0.7244,-0.2638 -0.9122,-0.4158 -0.1878,-0.152 -0.4024,-0.6439 -0.4024,-0.6439l-0.3398 -0.9524z"/>
   <polygon class="fil3 str0" points="68.2837,87.4564 69.8084,87.6755 69.7816,88.6413 69.1154,89.075 68.1361,88.6726 "/>
   <path class="fil3 str0" d="M65.9094 88.4535l1.5829 -0.9881 0.1833 1.1446c0,0 -0.8988,0.8317 -0.9345,0.8004 -0.0358,-0.0313 -0.7378,-0.3309 -0.7289,-0.3577 0.009,-0.0269 -0.1028,-0.5992 -0.1028,-0.5992z"/>
   <path class="fil3 str0" d="M67.0898 89.7413l0.939 -0.5992 0.8228 0.3935 0.0894 1.1625c0,0 -0.7959,0.0447 -1.0821,-0.1162 -0.2862,-0.161 -0.7691,-0.8406 -0.7691,-0.8406z"/>
   <path class="fil3 str0" d="M69.3613 89.5043c0.0268,-0.0134 0.6394,-0.4248 0.6394,-0.4248l0.7869 0.5142 0.3488 1.1626 -0.7422 0.2056 -0.8496 -0.2593 -0.1833 -1.1983z"/>
   <path class="fil3 str0" d="M71.3242 89.5579c0.0626,-0.0357 0.4024,-0.465 0.4024,-0.465l0.6081 0.4382 0.2951 0.6171c0,0 -0.1341,0.4829 -0.1967,0.5007 -0.0626,0.0179 -0.7959,0.0448 -0.7959,0.0448l-0.313 -1.1358z"/>
   <path class="fil3 str0" d="M71.9547 88.221c0,0 0.3264,-0.0313 0.5052,0.1386 0.1789,0.1699 0.3846,0.5366 0.3846,0.5366l-0.3935 0.3085 -0.5455 -0.4516 0.0492 -0.5321z"/>
   <path class="fil3 str0" d="M70.2734 87.6889c0,0 0.4874,-0.0179 0.6394,0.0447 0.1521,0.0626 0.6663,0.3846 0.6663,0.3846l-0.0358 0.5321 -0.5187 0.4918 -0.7512 -0.4605 0 -0.9927z"/>
   <path class="fil3 str0" d="M65.6635 89.9246l0.3219 -0.2549c0,0 0.5455,0.0582 0.5858,0.1029 0.0402,0.0447 0.304,0.5097 0.304,0.5097 0,0 -0.3398,0.4248 -0.3666,0.4024 -0.0269,-0.0223 -0.7602,-0.4292 -0.7602,-0.4292l-0.0849 -0.3309z"/>
   <polygon class="fil3 str0" points="67.1815,90.526 67.8634,91.0089 67.8768,91.4851 66.8529,90.9262 "/>
   <polygon class="fil3 str0" points="68.2733,91.0788 68.9485,91.0832 69.1184,91.7897 68.3449,91.6734 "/>
   <polygon class="fil3 str0" points="69.4404,91.1771 70.0842,91.3828 70.0887,91.8165 69.4538,91.7226 "/>
   <path class="fil3 str0" d="M70.5537 91.4275c0.0358,-0.0134 0.7557,-0.2235 0.7557,-0.2235l0.0894 0.541 -0.7825 0.0447 -0.0626 -0.3622z"/>
   <polygon class="fil3 str0" points="71.7699,91.1369 72.4854,91.0385 72.6284,91.28 71.8504,91.5125 "/>
   <path class="fil3 str0" d="M72.8006 90.6853c0.076,-0.0783 0.1699,-0.3801 0.1699,-0.3801l0.2996 -0.1051c0,0 0.2459,0.1968 0.2414,0.2124 -0.0044,0.0157 -0.5276,0.5321 -0.5276,0.5321l-0.199 -0.2794 0.0157 0.0201z"/>
   <path class="fil3 str0" d="M73.4981 89.8827c0.0112,-0.0358 0.1051,-0.2996 0.1051,-0.2996 0,0 0.123,0.0425 0.1543,0.0961 0.0313,0.0537 -0.1431,0.4025 -0.1632,0.3801 -0.0202,-0.0224 -0.0962,-0.1766 -0.0962,-0.1766z"/>
   <polygon class="fil3 str0" points="72.7279,89.4534 73.0409,89.1181 73.3494,89.4221 72.9202,89.9274 "/>
   <path class="fil0 str0" d="M59.846 90.379c0.1162,-0.4829 -0.2594,-1.3325 0.5008,-1.9227 0.7601,-0.5902 0.9568,-0.6707 1.5381,-0.617 0.5813,0.0536 3.0177,1.186 3.1478,1.252 0.1302,0.0659 0.5634,0.9568 0.1163,1.5023 -0.4471,0.5455 -0.9748,0.7065 -0.9748,0.7065l-0.2235 -0.2772c0,0 -0.9927,0.4203 -2.0568,0.2861 -1.0642,-0.1341 -1.404,-0.3398 -1.4309,-0.5097 -0.015,-0.0949 0.8534,0.081 1.5523,-0.0533 0.5529,-0.1062 0.9427,-0.7515 0.9427,-0.7515 -0.3288,0.1689 -0.6301,0.5273 -0.9863,0.5068l-2.1257 -0.1223z"/>
   <ellipse class="fil4 str0" cx="61.8939" cy="89.1002" rx="0.5992" ry="0.5455"/>
   <path class="fil0 str0" d="M64.988 92.0066c0,0 0.2057,1.9137 0.0626,2.2267 -0.1431,0.313 -0.0089,1.0195 -0.2683,0.9032 -0.2593,-0.1162 -1.2251,-0.5544 -1.2519,-0.9747 -0.0269,-0.4203 -0.0269,-1.6991 0.1788,-1.9227 0.2057,-0.2236 0.6886,-0.6528 0.6886,-0.6528l0.5902 0.4203z"/>
   <path class="fil0 str0" d="M66.3028 90.7804c0,0 0.2502,0.3051 0.3128,0.6002 0.0626,0.2951 0.1073,1.0642 0.1073,1.0642l-0.5902 -0.4472c0,0 1.4666,1.404 1.6186,1.5918 0.152,0.1878 0.9658,2.4146 0.6439,2.7186 -0.3219,0.3041 -1.1089,-0.0358 -1.8601,-0.4292 -0.7512,-0.3935 -1.3548,-1.4085 -1.4532,-1.5024 -0.0983,-0.0939 -0.1963,-1.3664 -0.1207,-1.6097 0.0756,-0.2433 0.085,-1.3906 0.2191,-1.5158 0.1341,-0.1252 0.6953,-0.632 1.0787,-0.486l0.0438 0.0155z"/>
   <ellipse class="fil5 str0" cx="61.7718" cy="89.1004" rx="0.2325" ry="0.1699"/>
  </g>
  <g id="_2565210897312">
   <path class="fil6 str1" d="M233.9887 762.7374c-3.6332,-10.2392 -39.6356,-26.0934 -33.36,-36.6629 6.2757,-10.5695 29.3965,14.533 42.278,10.2392 12.8816,-4.2939 16.5149,-44.2598 25.4329,-40.6265 8.918,3.6332 -0.3303,38.3144 6.2756,43.2689 6.606,4.9544 47.5628,-5.9454 49.8749,0.6606 2.312,6.6059 -36.663,23.451 -41.9478,29.0661 -5.2847,5.615 11.2302,45.5809 3.303,48.5536 -7.9271,2.9727 -24.4419,-31.3782 -31.7085,-33.6903 -7.2665,-2.3121 -33.0297,30.057 -39.9659,20.4784 -6.9362,-9.5786 19.8178,-41.2871 19.8178,-41.2871z"/>
   <ellipse class="fil7 str1" cx="250.0907" cy="754.2323" rx="3.881" ry="3.7158"/>
   <ellipse class="fil7 str1" cx="268.257" cy="759.1042" rx="3.7158" ry="3.303"/>
   <path class="fil8 str1" d="M250.3371 761.9943c-0.1023,1.0734 3.5821,11.5604 10.3369,5.615 6.7548,-5.9453 -2.7633,1.7341 -5.1684,-0.0826 -2.4051,-1.8166 -5.1685,-5.5324 -5.1685,-5.5324z"/>
  </g>
  <path class="fil9 str1" d="M295.0672 848.1955c0,0 1.4863,-4.9545 -0.7432,-10.6521 -2.2295,-5.6976 -3.3856,-10.6521 -3.3856,-10.6521 0,0 18.9095,-2.5598 29.2313,3.303 10.3218,5.8628 29.1487,29.9745 29.9745,31.3782 0.8257,1.4038 7.6794,-3.468 11.7668,-11.1887 4.0874,-7.7207 9.0832,-9.3722 10.5695,-8.7116 1.4863,0.6606 -4.9958,19.6527 -4.4177,23.4511 0.578,3.7984 5.2847,5.5325 6.3582,9.1657 1.0734,3.6333 1.8166,5.4499 0.6606,6.028 -1.1561,0.578 -9.8264,-0.5781 -14.6982,-5.2022 -4.8719,-4.6242 -10.9364,-4.4176 -10.9364,-4.4176 0,0 -29.8553,-20.0243 -32.1674,-21.1803 -2.3121,-1.1561 -22.2124,-1.3214 -22.2124,-1.3214z"/>
  <g id="_2565210958624">
   <path class="fil10 str1" d="M290.6082 852.4889c0,0 0.8257,-7.762 8.5877,-9.7438 7.762,-1.9818 16.8452,-1.9817 26.7541,5.6151 9.9089,7.5968 25.9283,15.6891 25.598,19.4875 -0.3303,3.7984 -19.1572,13.8725 -27.5798,16.8452 -8.4226,2.9726 -14.2028,3.7984 -19.8178,1.3211 -5.6151,-2.4772 -20.2307,-6.8536 -20.2307,-11.5603 0,-4.7068 2.7249,-3.7159 3.303,-5.4499 0.578,-1.7341 0.578,-13.2119 3.3855,-16.5149z"/>
   <path class="fil11 str1" d="M290.732 870.8204c0.1652,-2.3121 7.6794,-4.1287 10.4044,-0.9496 2.7249,3.1791 -12.3036,3.7159 -10.4044,0.9496z"/>
   <path class="fil12 str1" d="M288.8328 876.8071c0.5106,-0.7233 5.8836,2.5445 11.1488,1.4508 4.954,-1.0292 11.5407,-6.6104 11.9307,-6.1575 0.4244,1.0472 -4.0048,7.1839 -10.2805,7.9271 -6.2756,0.7431 -10.8998,-2.3121 -12.799,-3.2204z"/>
   <path class="fil13 str1" d="M301.9621 866.5267c-1.4037,-1.1561 -0.3303,-15.7717 6.4408,-14.6157 6.7711,1.1561 5.2848,14.8634 4.5416,15.8543 -0.7432,0.9909 -0.9083,-1.156 -5.2022,-1.156 -4.2938,0 -5.7802,-0.0826 -5.7802,-0.0826z"/>
   <path class="fil4 str1" d="M301.9347 866.5389c0,0 -1.2062,-4.9377 1.3192,-7.5762 2.5255,-2.6385 5.8801,-1.7716 6.8224,-1.1308 0.9423,0.6408 3.317,2.3747 3.6185,3.7316 0.3016,1.3569 -1.461,3.9366 -2.7138,4.6739 -1.2529,0.7373 -9.0463,0.3015 -9.0463,0.3015z"/>
   <ellipse class="fil7 str1" cx="308.2584" cy="862.4393" rx="2.0024" ry="3.014"/>
   <path class="fil13 str1" d="M287.9377 869.0038c0,0 -0.2701,-15.6896 2.326,-15.2351 2.5961,0.4545 1.4858,13.4187 1.4488,13.9141 -0.037,0.4955 -3.8506,1.5271 -3.8506,1.5271"/>
   <path class="fil4 str1" d="M289.1218 867.8892c-1.6746,-0.1931 -2.023,-9.7437 0.0413,-9.3308 2.0644,0.4128 4.0049,7.5142 -0.0413,9.3308z"/>
   <ellipse class="fil7 str1" cx="289.9269" cy="863.2651" rx="1.0941" ry="1.2799"/>
   <path class="fil9 str1" d="M323.0598 873.298c0.6606,0.1651 19.6398,2.1492 19.6398,2.1492 0,0 -1.3083,2.3924 -0.3174,4.209 0.9909,1.8166 3.1378,4.7067 3.1378,4.7067 0,0 -1.5689,-0.6606 -2.5598,-0.4129 -0.9909,0.2478 -1.156,1.7341 -1.156,1.7341 0,0 -1.3212,-1.2386 -2.5598,-0.8257 -1.2386,0.4128 -2.147,1.9818 -2.147,1.9818l-14.0376 -13.5422z"/>
  </g>
  <g id="_2565210948832">
   <path class="fil14 str1" d="M419.1269 835.8229c-0.9005,0.1527 -5.855,2.0519 -8.9102,5.0245 -3.0553,2.9727 -8.34,13.1294 -6.1931,14.6157 2.1469,1.4863 9.7985,-3.7053 11.3952,-6.0279 1.5968,-2.3227 3.7081,-13.6123 3.7081,-13.6123z"/>
   <path class="fil15 str1" d="M417.2971 896.0698c0,0 -15.0286,-12.6338 -12.4688,-24.2768 2.5598,-11.6429 8.34,-20.9738 12.0559,-28.6532 3.7158,-7.6794 0.8257,-9.5786 -0.7432,-12.3861 -1.5689,-2.8075 1.6515,-8.918 1.6515,-8.918 0,0 -7.5969,11.0649 -12.1384,10.4869 -4.5416,-0.578 -7.8446,-6.1931 -7.6794,-8.34 0.1651,-2.1469 -10.9632,-2.5577 -13.5009,-4.2526 -6.5711,-4.3886 -6.0481,-7.7664 -5.6827,-9.371 1.2622,0.4622 0.9346,5.5313 12.3298,4.9533 11.3953,-0.578 12.6339,-0.9083 19.7353,-4.7067 7.1014,-3.7984 7.9271,-5.4499 12.9641,-3.0553 5.0371,2.3947 5.2022,0.9084 7.184,6.5234 1.9818,5.6151 2.2295,16.5149 -1.9818,24.1117 -4.2113,7.5968 -13.377,22.4603 -15.5239,31.048 -2.147,8.5877 3.7985,26.8364 3.7985,26.8364z"/>
   <path class="fil14 str1" d="M435.0715 837.8748c0.3303,0.7432 -0.9083,3.2204 0.4129,5.9454 1.3211,2.7249 2.8901,4.8718 3.9635,6.6059 1.0735,1.734 1.0735,7.2665 3.3856,7.8445 2.312,0.5781 6.4407,-2.8901 8.1748,-6.3582 1.7341,-3.4681 -0.3303,-16.1019 -0.3303,-16.1019l-15.6065 2.0643z"/>
   <path class="fil16 str1" d="M398.5737 823.0941c1.8992,-0.0826 15.4413,-4.3764 17.5057,-8.6703 2.0644,-4.2938 -4.8719,12.1384 -8.7529,13.5422 -3.8809,1.4037 -5.615,1.4038 -6.193,-0.7432 -0.578,-2.1469 0,-3.6332 0,-3.6332l-2.5598 -0.4955z"/>
   <path class="fil14 str1" d="M426.2976 891.9414c0.4954,0 10.9823,-6.3583 14.4504,-8.34 3.4682,-1.9818 12.7991,-2.0644 12.8816,0.1651 0.0826,2.2295 -6.771,4.6242 -7.1014,7.5969 -0.3303,2.9726 0.1652,6.9362 -1.5689,9.7437 -3.5094,5.2435 -15.4413,5.1196 -20.7261,4.0462 -5.2847,-1.0735 4.1287,9.3309 -6.7711,10.3218 -10.8998,0.9909 -16.5149,-6.1105 -18.4966,-5.615 -1.9818,0.4954 -3.1379,1.8166 -4.5829,1.1147 -1.4451,-0.7018 -1.4451,-5.904 1.1973,-8.0509 2.6424,-2.1469 16.5974,-4.17 17.7534,-5.037 1.1561,-0.867 3.8882,-2.0535 3.8882,-2.0535 0,0 -7.4093,-11.0442 -4.0737,-24.5332 3.3357,-13.489 12.9722,-27.7403 16.0955,-33.5239 3.1234,-5.7835 4.1792,-16.6661 2.5775,-20.5861 -1.6016,-3.92 -6.3566,-9.9568 -9.1753,-10.1543 -2.8187,-0.1974 -4.6153,0.651 -15.2005,5.331 -7.7033,3.4058 -23.2955,7.9608 -28.5484,-1.7659 -0.791,-1.4648 1.4484,-2.3071 3.0173,-3.876 1.5689,-1.5689 -1.9818,-5.037 -0.4955,-10.7346 1.4864,-5.6976 4.8719,-13.6247 9.496,-15.1936 4.6242,-1.5689 43.6414,-5.9066 46.015,-6.3388 2.3735,-0.4323 22.1087,-0.68 32.7608,9.3941 10.6521,10.074 10.1566,16.1019 11.065,21.7995 0.9083,5.6977 2.89,8.9181 -0.2478,10.487 -3.1378,1.5689 -5.615,-1.1561 -9.496,-3.0553 -3.881,-1.8992 -7.1014,-3.3855 -8.5877,-3.5507 -1.4864,-0.1651 1.4863,12.5514 -0.9909,19.4876 -2.4772,6.9362 -18.8269,27.4147 -24.9374,32.8646 -6.1105,5.4499 -9.5786,7.1014 -11.8907,14.0376 -2.3121,6.9363 -2.5185,10.8999 -1.4451,13.2119 1.0735,2.3121 3.138,2.8071 3.138,2.8071z"/>
   <ellipse class="fil4 str1" cx="406.5282" cy="800.0682" rx="5.2848" ry="7.3491"/>
   <ellipse class="fil4 str1" cx="391.3332" cy="799.9266" rx="5.2022" ry="7.4317"/>
   <ellipse class="fil5 str1" cx="408.0697" cy="802.368" rx="2.5598" ry="3.7984"/>
   <ellipse class="fil5 str1" cx="392.876" cy="802.7396" rx="2.7249" ry="3.6745"/>
   <path class="fil17 str1" d="M436.2275 776.5223c-0.9909,0.7432 -15.8542,11.8081 -28.901,12.1384 -13.0467,0.3303 -21.9647,2.0644 -26.2586,-4.459 -4.2938,-6.5234 5.4499,-6.7711 7.0188,-7.5968 1.569,-0.8258 10.7347,2.1469 19.0747,1.4863 8.34,-0.6606 29.3551,-2.0437 29.3551,-2.0437l-0.289 0.4748z"/>
   <path class="fil18 str1" d="M387.3642 774.0864l0.7225 2.5185c0,0 13.4125,1.8957 20.1717,1.4008 6.7592,-0.4949 28.2581,-1.9582 28.2581,-1.9582l0.8257 -3.1791c0,0 -23.5336,1.9199 -29.128,1.7754 -5.5944,-0.1445 -20.85,-0.5574 -20.85,-0.5574z"/>
   <path class="fil19 str2" d="M387.3642 774.0864c0,0 -5.3467,-4.046 -4.1494,-8.8766 1.1973,-4.8306 6.5234,-6.0279 9.9089,-5.6151 3.3856,0.4129 4.0874,-5.2847 12.7164,-5.5737 8.6291,-0.289 10.0741,2.4772 10.9824,2.3533 0.9083,-0.1238 0.9909,-2.8488 5.8215,-2.9313 4.8306,-0.0826 9.5373,4.0874 11.1062,4.459 1.569,0.3716 7.9685,1.1147 8.8355,4.7067 0.867,3.592 -4.5623,9.5167 -4.7068,9.9502l-27.775 2.0773 -22.7397 -0.5498z"/>
   <path class="fil7 str1" d="M405.0618 760.9897c0.1339,-1.6074 1.4735,-2.2772 2.813,-2.1432 1.3395,0.1339 1.8753,0.3349 1.6744,1.4065 -0.2009,1.0716 -1.1721,1.3395 -1.373,1.6409 -0.201,0.3014 -0.201,1.5405 -0.201,1.5405l2.2772 -0.2679 0 1.239 -2.0427 0.2345c0,0 -0.1005,1.9422 0.0669,2.2102 0.1675,0.2679 1.5405,0.8372 2.3442,0.7367 0.8037,-0.1005 1.2391,-0.5023 1.574,-1.0716 0.3348,-0.5693 -0.9377,-1.0549 -0.9377,-1.0549l2.16 -0.6363 0.1842 1.9758 -0.72 -0.1674c0,0 -0.4354,1.6409 -1.7415,1.8084 -1.306,0.1674 -3.2818,-0.6363 -3.2818,-0.6363 0,0 -2.6456,0.6028 -3.7842,0.4688 -1.1386,-0.1339 -1.6744,-1.2055 -1.6744,-1.2055l-1.7749 0.8372 0.5023 -2.5451 2.6121 0.5693 -0.4019 0.7702c0,0 0.6028,0.5693 1.574,0.5693 0.9711,0 1.8418,-0.2344 1.8418,-0.2344l0.134 -2.2772 -1.9088 0.1005 0 -1.4065 1.7748 -0.2679c0,0 0.2679,-1.4065 -0.0334,-1.507 -0.3014,-0.1005 -1.6075,0.2679 -1.6576,-0.6866z"/>
   <path class="fil13 str1" d="M436.372 776.2849c0,0 10.6407,8.8066 15.2649,16.2383 4.6241,7.4316 10.7868,17.0094 10.7868,17.0094"/>
  </g>
  <path class="fil20 str3" d="M45.7483 64.6907c0,0 0.3654,0.8689 0.3032,1.2366 -0.0622,0.3677 -0.2169,0.3427 -0.4398,1.004 -0.1786,0.5296 -0.3636,1.2258 -0.0938,2.0364 0.2033,0.6107 0.9523,1.1672 1.7369,1.3476 0.7844,0.1804 1.6028,0.3684 2.0434,0.0119 0.4407,-0.3565 0.4664,-0.5872 0.4664,-0.5872 0,0 0.7913,0.3646 1.0569,0.1159 0.2656,-0.2486 0.3336,-0.4628 0.3428,-0.6513 0.0092,-0.1884 0.0204,-0.5667 -0.2038,-0.6597 -0.2241,-0.0929 -0.4229,0.2003 -0.5293,0.3075 -0.1063,0.1069 0.1693,-0.1167 0.1886,-0.4249 0.0191,-0.3082 1.4203,-1.8638 1.1839,-2.7665 -0.2364,-0.9026 0.0046,-2.1922 -1.2128,-2.6313 -1.2173,-0.439 -1.2372,-1.3571 -2.0831,-1.5352 -0.8459,-0.1781 -1.1729,0.9411 -1.5674,1.2235 -0.3946,0.2825 -0.8268,0.8159 -0.9077,1.0197 -0.081,0.2038 -0.2844,0.953 -0.2844,0.953z"/>
  <ellipse class="fil21 str4" transform="matrix(0.330722 0.0696351 -0.0696351 0.330722 46.7577 66.9822)" rx="1.1906" ry="1.4993"/>
  <ellipse class="fil21 str4" transform="matrix(0.330722 0.0696351 -0.0696351 0.330722 48.0542 67.4074)" rx="1.2347" ry="1.7198"/>
  <path class="fil13 str3" d="M47.1177 67.5149c-0.1523,0.1812 0.0461,0.36 -0.1527,0.5086 -0.1988,0.1485 -0.3117,0.178 -0.2676,0.2939 0.0441,0.1159 0.4878,0.1788 0.4878,0.1788"/>
  <path class="fil13 str3" d="M46.38 68.6313c0,0 0.2257,0.375 0.5185,0.4671 0.2928,0.0922 0.5618,0.0498 0.6923,0.0088 0.1305,-0.041 -0.4121,0.3243 -0.7429,0.2318 -0.3309,-0.0924 -0.4679,-0.7077 -0.4679,-0.7077z"/>
  <ellipse class="fil22 str4" transform="matrix(0.330722 0.0696351 -0.0696351 0.330722 48.0132 67.2645)" rx="0.6059" ry="0.754"/>
  <ellipse class="fil22 str4" transform="matrix(0.330722 0.0696351 -0.0696351 0.330722 46.7141 66.8882)" rx="0.6059" ry="0.754"/>
  <path class="fil23 str3" d="M45.2815 65.8966c0,0 0.1144,-0.3262 0.0288,-0.9687 -0.0856,-0.6425 0.0295,-1.0447 0.229,-1.5586 0.1996,-0.5139 0.1102,-1.2104 1.5071,-1.7692 1.397,-0.5587 1.1576,-1.1574 2.398,-0.6831 1.2404,0.4744 1.7531,0.6432 2.2474,0.8997 0.4943,0.2564 0.5157,0.1543 1.0393,0.4168 0.5235,0.2625 2.7056,1.8338 1.443,1.5375 -1.2626,-0.2962 -0.2365,0.2549 -0.1842,0.875 0.0521,0.6202 0.0797,3.6722 -0.0462,4.5595 -0.1259,0.8873 0.7215,2.0709 0.2793,3.5922 -0.4422,1.5214 -0.9334,2.1186 -0.4483,2.7081 0.4851,0.5895 0.4958,0.6832 0.9993,0.0276 0.5036,-0.6554 0.0998,-1.1974 0.0998,-1.1974 0,0 0.6003,0.7661 0.502,1.2328 -0.0982,0.4666 -0.5434,1.1345 -1.2174,1.2972 -0.6739,0.1627 -0.8596,0.0322 -1.2572,-0.5389 -0.3976,-0.5711 -0.6126,-0.7078 -0.9488,-1.5705 -0.3361,-0.8628 -0.3683,-1.7225 -0.3038,-2.3181 0.0644,-0.5957 0.0998,-1.1974 0.0998,-1.1974 0,0 -0.1255,-0.0549 -0.1286,-0.4383 -0.003,-0.3834 -0.4834,-0.6508 -0.3874,-1.4487 0.0959,-0.7979 -0.4236,-1.1128 -0.606,-0.8042 -0.1824,0.3088 -0.0301,0.1336 -0.159,-0.1221 -0.1291,-0.2556 0.1059,-1.2266 0.0007,-1.5228 -0.1051,-0.2964 -0.307,-0.8567 -0.307,-0.8567l0.3078 -1.5343c0,0 -0.7537,1.1206 -1.03,0.9862 -0.2764,-0.1343 -0.205,-1.4138 -0.205,-1.4138 0,0 -0.3263,0.7538 -0.5696,0.8243 -0.2433,0.0707 -0.4382,-1.463 -0.4382,-1.463 0,0 0.0605,1.5206 -0.1873,1.4684 -0.248,-0.0522 -0.743,-1.6795 -0.743,-1.6795 0,0 0.0375,1.7747 -0.0523,1.6949 -0.0898,-0.08 -0.2456,-1.2193 -0.4605,-1.3205 -0.2149,-0.1011 -0.172,0.8522 -0.3309,0.9558 -0.1588,0.1036 -0.5602,-0.3769 -0.5602,-0.3769 0,0 0.1427,1.4922 0.0114,1.4645 -0.1313,-0.0276 -0.6218,0.2422 -0.6218,0.2422z"/>
  <path class="fil13 str3" d="M46.6693 65.7015c0.1597,-0.1795 0.5496,-0.0061 0.6348,0.2404"/>
  <path class="fil13 str3" d="M48.0088 66.212c0.2578,-0.0675 0.5764,-0.0614 0.6785,0.2495"/>
  <line class="fil13 str3" x1="46.6623" y1="66.3854" x2="46.6541" y2= "66.2619" />
  <path class="fil13 str3" d="M46.8896 66.3914c0.0146,-0.033 0.0409,-0.1398 0.0409,-0.1398"/>
  <path class="fil13 str3" d="M47.0998 66.4871c0.041,-0.077 0.1254,-0.1525 0.1145,-0.1548"/>
  <polygon class="fil24 str5" points="36.9253,58.2994 38.1382,58.3238 37.5381,93.1137 36.397,93.1934 "/>
  <path class="fil13 str3" d="M47.2211 66.5888c0.0476,-0.009 0.1469,-0.0737 0.1469,-0.0737"/>
  <path class="fil13 str3" d="M47.9129 66.7478c-0.0082,-0.0512 -0.0449,-0.1846 -0.0449,-0.1846"/>
  <path class="fil13 str3" d="M48.1812 66.7395c0.0328,-0.0654 0.0894,-0.1716 0.0894,-0.1716"/>
  <path class="fil25 str5" d="M30.7706 74.6185l12.4532 -0.6518c0,0 -3.6303,-0.2784 -4.6591,5.4427 -1.0287,5.721 2.8701,6.3249 2.569,6.6261 -0.3011,0.301 -4.5032,-1.6264 -7.2633,-1.1998 -2.7601,0.4265 -2.5729,2.3038 -2.5729,2.3038 0,0 -2.5594,-3.6634 -2.5343,-6.1225 0.0251,-2.459 2.0074,-6.3985 2.0074,-6.3985z"/>
  <line class="fil13 str3" x1="48.4129" y1="66.8149" x2="48.5619" y2= "66.7398" />
  <path class="fil13 str3" d="M48.6124 67.0969c0.0529,-0.0345 0.1926,-0.1194 0.1926,-0.1194"/>
  <path class="fil20 str3" d="M50.3878 74.1417c0,0 0.2662,0.3487 0.3329,0.4251 0.0667,0.0763 0.092,0.2264 0.2533,0.3481 0.1613,0.1216 0.4053,0.5148 0.3581,0.5504 -0.0471,0.0356 -0.0635,-0.0258 -0.5842,-0.2201 -0.0357,-0.0133 0.3451,0.6955 0.2386,0.726 -0.1065,0.0305 -0.4554,-0.5315 -0.4554,-0.5315 0,0 0.4441,0.8049 0.3478,0.833 -0.0962,0.028 -0.5241,-0.6968 -0.5241,-0.6968 0,0 0.2714,0.5316 0.1223,0.5883 -0.1491,0.0568 -0.3595,-0.5378 -0.3595,-0.5378 0,0 0.0777,0.3985 -0.0605,0.4094 -0.1382,0.0109 -0.2445,-0.6245 -0.1969,-0.744 0.0476,-0.1194 0.066,-0.2484 0.0472,-0.3738 -0.0187,-0.1255 -0.2518,-0.8393 -0.2518,-0.8393l0.7322 0.063z"/>
  <path class="fil20 str3" d="M43.6481 73.7182c0,0 -0.3091,0.3115 -0.385,0.3786 -0.076,0.0671 -0.2565,0.0355 -0.3649,0.2059 -0.5962,1.0599 0.2381,0.381 0.0549,0.5462 -0.0906,0.0817 0.1584,-0.0743 0.1955,-0.0828 0.0369,-0.0086 -0.2278,0.3986 -0.1262,0.4426 0.1017,0.0439 0.3161,-0.2218 0.3161,-0.2218 0,0 -0.238,0.3581 -0.1461,0.3984 0.0918,0.0402 0.3034,-0.2405 0.3034,-0.2405 0,0 -0.1506,0.1943 -0.01,0.2699 0.1404,0.0755 0.2386,-0.1893 0.2386,-0.1893 0,0 0.0871,0.0661 0.2228,0.0947 0.1355,0.0288 0.1075,-0.2686 0.0757,-0.3933 -0.0319,-0.1247 -0.0335,-0.2548 0.0013,-0.3769 0.0347,-0.122 0.3579,-0.7997 0.3579,-0.7997l-0.734 -0.032z"/>
  <path class="fil4 str3" d="M47.1204 70.6535c0,0 -0.9588,0.0263 -1.2444,0.2311 -0.4802,0.3442 -2.8013,2.2056 -2.6963,2.9164 0.9847,0.3044 0.529,0.2359 1.2316,0.4578 1.0313,-1.2604 1.2421,-0.4152 1.8298,-2.3906 0.0819,-0.2757 -0.6558,2.7125 -0.4992,2.9211 0.1564,0.2087 1.0656,0.5366 1.6319,0.5664 0.5664,0.0298 1.863,-0.462 1.9226,-0.5738 0.0596,-0.1118 -0.559,-2.8242 -0.4396,-2.9584 0.1191,-0.1341 0.1229,1.3078 0.2347,1.5239 0.1117,0.2162 0.3539,1.3077 0.5253,1.4345 0.1713,0.1266 0.4235,0.0041 0.6098,-0.1599 0.1863,-0.1639 0.3962,-0.3097 0.3962,-0.3097 0,0 -1.1327,-3.1372 -1.4009,-3.4054 -0.2684,-0.2683 -2.0308,-0.3039 -2.0308,-0.3039l-0.0707 0.0505z"/>
  <polygon class="fil20 str3" points="48.1474,76.8495 48.9373,76.79 49.7683,81.4571 48.9196,81.6474 "/>
  <path class="fil20 str3" d="M46.1928 76.9651l-0.5365 4.7095c0,0 0.9352,0.2883 0.9352,-0.0297 0,-0.3181 0.585,-4.8288 0.585,-4.8288l-0.9837 0.149z"/>
  <path class="fil26 str3" d="M46.0464 74.7705c0,0 -2.191,6.3118 -1.8631,6.6494 0.3278,0.3376 1.3413,-1.3213 1.6096,-1.2617 0.2683,0.0596 0.3577,0.8942 0.7154,0.8942 0.3577,0 0.5662,-1.3115 0.9538,-1.1624 0.3875,0.149 0.6855,1.1326 1.0432,1.1624 0.3578,0.0299 1.5203,-1.4009 1.5203,-1.4009 0,0 0.0597,1.1029 0.6259,1.1326 0.5663,0.0298 1.1626,-0.5066 1.1626,-0.5066l-2.5177 -5.4956c0,0 -1.0294,0.3239 -1.7299,0.2792 -0.7005,-0.0447 -1.5201,-0.2906 -1.5201,-0.2906z"/>
  <path class="fil25 str5" d="M30.8873 60.7609l11.4667 -2.143c0,0 -2.4214,-0.0001 -3.5625,6.3456 -1.1411,6.3456 3.9243,8.1268 3.5903,8.4608 -0.334,0.3339 -4.9948,-1.8039 -8.0563,-1.3308 -3.0614,0.4731 -2.8537,2.5553 -2.8537,2.5553 0,0 -2.8388,-4.0633 -2.811,-6.7908 0.0278,-2.7275 2.2265,-7.0971 2.2265,-7.0971z"/>
  <path class="fil27 str3" d="M45.6942 81.4736l0.9181 0.0706c0,0 0.1788,1.4158 0,1.4456 -0.1789,0.0299 -0.2086,-0.0074 -0.2086,-0.0074l-0.0819 -0.6334c0,0 -0.4621,0.5216 -0.8124,0.5887 -0.3502,0.067 -0.6558,0.0298 -0.842,0 -0.1863,-0.0299 -0.3353,-0.164 -0.2608,-0.3279 0.0745,-0.1639 0.8718,-0.38 1.0432,-0.5439 0.1715,-0.164 0.2444,-0.5923 0.2444,-0.5923z"/>
  <g id="_2564922202800">
   <path class="fil20 str3" d="M34.7583 71.7808c-0.8978,0.3589 -2.4421,0.6103 -3.1961,0.0358 -0.7542,-0.5745 -0.8171,-0.386 -1.0595,-0.3682 -0.2424,0.0181 -1.0595,-0.377 -0.9159,-1.0054 0.1436,-0.6286 1.1312,-0.3143 1.3109,-0.3862 0.1795,-0.0717 -1.8047,-1.993 -1.0863,-2.9987 0.7181,-1.0056 1.0056,-2.7652 2.5497,-2.8371 1.5443,-0.0718 2.4601,0.3411 2.6755,0.8978 0.2155,0.5567 0.1975,1.7598 0.2875,2.2446 0.0897,0.4848 0.6642,1.1671 0.8259,1.6341 0.1616,0.4667 0.5387,1.5801 -1.3917,2.7833z"/>
   <path class="fil28 str3" d="M30.2665 71.3989c-0.491,-0.0312 -2.0711,-1.1624 -2.3406,-2.5092 -0.2692,-1.3468 0.1797,-3.5734 0.862,-4.3276 0.6823,-0.7542 2.855,-1.634 3.3039,-1.7418 0.449,-0.1078 0.9337,-0.4848 0.7362,-0.8079 -0.1975,-0.3233 0.6286,0.0539 0.6465,0.5206 0.018,0.467 0.6644,-0.5745 0.5208,-1.0595 -0.1436,-0.4847 0.1256,1.4726 0.1256,1.4726 0,0 0.7901,-0.6464 0.7364,-1.1134 -0.0539,-0.4667 -0.0361,1.4546 -0.0361,1.4546 0,0 0.4309,-0.0181 0.7901,-0.1258 0.3592,-0.1076 -0.2153,0.6644 -0.377,0.862 -0.1617,0.1975 -0.5567,0.8978 -0.8081,1.0414 -0.2514,0.1437 -1.6521,0.2873 -1.6521,0.2873l1.0237 0.2514 -2.1727 0.018 0.6104 0.5746 -1.4185 0.2872 0.413 1.2212 -0.5208 -0.1975c0,0 -0.1436,0.6823 -0.1256,1.0595 0.0178,0.377 -0.1617,0.5026 -0.1617,0.5026 0,0 0.3746,0.5094 0.3694,0.7542 -0.0051,0.2448 -0.9193,-0.0276 -1.2066,0.4394 -0.2872,0.4667 0.6818,1.1361 0.6818,1.1361z"/>
   <polygon class="fil29 str3" points="27.6925,67.2896 31.8046,62.5131 30.817,61.6153 26.6691,66.4096 "/>
   <polygon class="fil4 str3" points="26.6691,66.4096 24.8195,66.5535 31.0145,59.1014 30.817,61.6153 "/>
   <path class="fil30 str3" d="M27.5035 67.127c0,0 -1.2833,-0.2504 -1.9298,0.3421 -0.6464,0.5926 -0.9517,2.101 -1.3107,2.5499 -0.3592,0.449 -1.5264,1.203 -1.5264,1.203l1.0414 0.2874 -0.754 0.826c0,0 1.4724,-0.2514 1.7777,-0.7721 0.3051,-0.5208 0.5565,-2.5857 0.8978,-3.0885 0.3412,-0.5029 1.804,-1.3478 1.804,-1.3478z"/>
   <path class="fil30 str3" d="M27.6925 67.2896c0,0 -1.2748,0.7004 -1.4184,1.4185 -0.1437,0.7184 -0.0898,1.4546 0.1077,1.9752 0.1975,0.5209 0.5567,0.88 0.4489,1.4187 -0.1077,0.5387 -1.1312,1.9213 -1.257,2.0111 -0.1256,0.0897 0.0539,-1.0594 0.0539,-1.0594l-1.239 -0.2514c0,0 1.3826,-0.1616 1.4365,-0.7183 0.0539,-0.5567 -0.1027,-1.2968 -0.4489,-1.7777 -0.346,-0.4808 -0.2692,-1.5084 0.1078,-1.9213 0.3772,-0.4131 2.2085,-1.0954 2.2085,-1.0954z"/>
   <path class="fil4 str3" d="M32.6532 69.3816c-0.1705,-0.0717 -0.5925,-1.0056 -0.1975,-1.257 0.3952,-0.2512 1.0775,0.7991 1.0415,0.88 -0.0359,0.0807 -0.844,0.377 -0.844,0.377z"/>
   <path class="fil4 str3" d="M34.2246 68.7262c0,0 0.5116,-0.1615 0.6464,-0.2873 0.1346,-0.1256 -0.3682,-1.221 -0.7184,-1.0505 -0.3501,0.1707 -0.6464,0.5477 0.072,1.3378z"/>
   <path class="fil13 str3" d="M33.9822 68.861c0.0987,0.1166 0.3366,0.1077 0.5116,0.2379 0.1752,0.1301 0.2424,0.2559 -0.0088,0.3546 -0.2514,0.0988 -0.449,0.0988 -0.449,0.0988"/>
   <ellipse class="fil7 str3" cx="32.7747" cy="69.045" rx="0.2334" ry="0.2244"/>
   <ellipse class="fil7 str3" cx="34.2807" cy="68.392" rx="0.1953" ry="0.2582"/>
   <path class="fil31 str3" d="M33.4123 70.3245c0.1705,0.0988 0.5836,0.2963 0.8798,0.1256 0.2963,-0.1704 0.4758,-0.413 0.4758,-0.413 0,0 -0.1615,0.5118 -0.5028,0.6196 -0.3411,0.1077 -0.8528,-0.3322 -0.8528,-0.3322z"/>
   <path class="fil13 str3" d="M30.7167 70.5491c-0.1258,-0.0629 -0.5118,-0.0988 -0.5477,-0.018 -0.0358,0.0809 0.0539,0.4759 0.2334,0.5566"/>
   <path class="fil20 str3" d="M38.4847 73.8928c0,0 0.4384,-0.1002 0.5462,-0.2394 0.1078,-0.1393 0.1078,-0.2829 0.2873,-0.2469 0.1797,0.0359 0.1887,0.175 0.1975,0.3096 0.009,0.1348 -0.2693,0.3637 -0.3006,0.3817 -0.0315,0.0179 0.7946,0.2064 0.754,0.4129 -0.0403,0.2065 -0.7003,0.0854 -0.7003,0.0854 0,0 0.6825,0.1392 0.6196,0.3771 -0.0629,0.2378 -0.7362,0.0045 -0.7362,0.0045 0,0 0.6196,0.1774 0.5635,0.3704 -0.0562,0.193 -0.6129,-0.0225 -0.6129,-0.0225 0,0 0.4938,0.1258 0.4311,0.2559 -0.0629,0.1301 -0.6286,0.0404 -0.669,0.0404 -0.0403,0 -0.6329,-0.0359 -0.7946,-0.1572 -0.1616,-0.1211 0.2289,-1.5621 0.2289,-1.5621l0.1855 -0.0098z"/>
   <path class="fil20 str3" d="M28.7509 75.8868c0,0 -0.2647,0.3411 -0.386,0.6419 -0.1213,0.3008 -0.1391,0.6196 -0.0764,0.7407 0.0629,0.1213 0.2963,-0.4354 0.2963,-0.4354 0,0 -0.2424,0.5163 -0.1347,0.6239 0.1078,0.1078 0.3367,-0.4219 0.3367,-0.4219 0,0 -0.2199,0.5252 -0.0672,0.633 0.1526,0.1077 0.4938,-0.5701 0.4938,-0.5701 0,0 -0.2066,0.6465 -0.0853,0.7227 0.1211,0.0762 0.5252,-0.57 0.5971,-0.6106 0.0717,-0.0404 0.359,0.3682 0.4981,0.2514 0.1393,-0.1166 0.0002,-0.3053 -0.0314,-0.4534 -0.0313,-0.1481 -0.0583,-0.8618 -0.0583,-0.8618l-1.3827 -0.2604z"/>
   <path class="fil21 str3" d="M31.7225 72.6411c0,0 -0.7812,0.5747 -1.4365,1.1582 -0.6554,0.5836 -1.4994,1.8316 -1.5174,1.9752 -0.0181,0.1436 0.1168,0.2604 0.4848,0.386 0.3681,0.1258 1.0775,0.3412 1.1492,0.2695 0.0719,-0.072 0.6016,-0.7452 0.7811,-1.0057 0.1797,-0.2604 1.1763,-1.2299 1.1763,-1.2299 0,0 0.1614,-0.3861 -0.0629,-0.8172 -0.2244,-0.4309 -0.5746,-0.7361 -0.5746,-0.7361z"/>
   <path class="fil21 str3" d="M34.766 72.3628c0,0 1.1763,0.5118 1.8047,0.772 0.6285,0.2605 1.8136,0.5477 1.8136,0.5477 0,0 0.2065,0.1078 0.036,0.6375 -0.1706,0.5298 -0.4938,1.2301 -0.5567,1.2211 -0.0629,-0.009 -0.9337,-0.3321 -1.2838,-0.395 -0.3502,-0.0629 -1.1134,-0.4938 -1.1134,-0.4938l-0.7004 -2.2895z"/>
   <path class="fil21 str3" d="M32.3909 72.1268l-0.6684 0.5143 -0.0629 2.3253c0,0 -0.0942,0.9989 -0.1213,1.1538 -0.0268,0.1549 -0.3073,1.9573 -0.3073,1.9573 0,0 1.4724,0.395 2.6036,0.3412 1.1314,-0.0539 2.3344,-0.4311 2.3344,-0.4311 0,0 -0.2567,-2.0143 -0.5924,-3.0435 -0.3357,-1.0295 -0.8106,-2.5813 -0.8106,-2.5813 0,0 -1.2949,-0.4176 -1.5328,-0.395 -0.2379,0.0223 -0.8423,0.159 -0.8423,0.159z"/>
   <path class="fil32 str3" d="M31.304 72.9593c0,0 0.3915,0.239 0.5665,0.5937 0.1752,0.3546 0.2155,0.8214 0.2155,0.8214l-0.3098 0.2649c0,0 0.0943,-0.3905 -0.3053,-0.772 -0.3993,-0.3817 -0.588,-0.5389 -0.588,-0.5389l0.4211 -0.3691z"/>
   <path class="fil33 str3" d="M34.7236 84.9676c0,0 -0.3385,0.2118 -0.3475,0.6967 -0.009,0.4848 0.027,1.2569 0.027,1.2569 0,0 1.1581,0.027 1.4902,-0.0359 0.3324,-0.0629 1.1763,0.1168 1.5714,0.1168 0.395,0 0.8439,-0.018 1.2031,-0.2065 0.359,-0.1886 0.2692,-0.6914 0.2692,-0.6914 0,0 -0.0807,-0.422 -0.3143,-0.7183 -0.2334,-0.2963 -0.9247,-0.7721 -1.1402,-0.7901 -0.2154,-0.0178 -1.4365,-0.3321 -1.4365,-0.3321l-1.1942 0.3321 -0.1282 0.3718z"/>
   <path class="fil33 str3" d="M32.8049 84.6048c0,0 0.1347,-0.2155 0.3143,0.3861 0.1795,0.6015 0.0898,1.3018 0.1347,1.4904 0.0448,0.1885 0.1436,0.3411 0.0268,0.3862 -0.1166,0.0448 -0.0359,0.2063 -0.395,0.1885 -0.359,-0.0181 -0.817,-0.1707 -1.1581,-0.1707 -0.3412,0 -0.844,0.4489 -1.8764,0.1526 -1.0327,-0.2962 -1.3468,-0.395 -1.5085,-0.5925 -0.1616,-0.1975 0.0181,-0.395 0.1078,-0.5116 0.0898,-0.1168 0.1975,-0.449 0.5387,-0.7094 0.3411,-0.2604 0.7452,-0.3592 1.1851,-0.395 0.4399,-0.0361 1.1492,-0.5387 1.2121,-0.5567 0.0628,-0.018 1.0864,-0.0807 1.0864,-0.0807l0.3321 0.4128z"/>
   <path class="fil34 str3" d="M31.3095 78.0976c0,0 -0.2912,2.422 -0.8301,3.1404 -0.5387,0.7183 -1.4005,3.4117 -1.4005,3.4117 0,0 1.616,-0.1975 2.1189,0.0897 0.5028,0.2875 2.2804,0.1617 2.2804,0.1617l0.2514 -5.8358 0.2873 5.8178c0,0 1.1851,0.1975 1.9752,0.0719 0.7901,-0.1256 2.3343,-0.1795 2.3343,-0.1795 0,0 -0.8259,-1.6162 -1.3467,-3.358 -0.5207,-1.7418 -0.8107,-3.4299 -0.8107,-3.4299 0,0 -1.5111,0.359 -2.3344,0.4311 -0.8233,0.0719 -2.5251,-0.3211 -2.5251,-0.3211z"/>
   <path class="fil32 str3" d="M37.9842 73.6448c0,0 0.0539,0.4331 -0.0472,0.7856 -0.101,0.3524 -0.4284,0.9937 -0.4284,0.9937l-0.4384 -0.1447c0,0 0.3798,-0.8288 0.4157,-1.1609 0.0358,-0.3323 0.0334,-0.6671 0.0334,-0.6671l0.4649 0.1934z"/>
   <path class="fil32 str3" d="M36.4128 73.1174c0,0 0.1529,0.1661 0.0674,0.5925 -0.0852,0.4264 -0.3591,1.221 -0.3591,1.221 0,0 0.4008,0.273 0.4587,0.2152 0.0576,-0.058 0.4303,-1.1802 0.4346,-1.4003 0.0045,-0.2199 -0.0159,-0.4547 -0.0159,-0.4547l-0.5857 -0.1737z"/>
   <path class="fil32 str3" d="M35.7979 72.8527c0,0 0.1349,0.1885 0.0855,0.4128 -0.0494,0.2246 -0.292,1.3781 -0.292,1.3781l-0.1598 -0.1487 -0.1813 -0.7669c0,0 0.1796,-0.6241 0.1077,-0.8036 -0.0717,-0.1795 -0.0807,-0.3143 -0.0807,-0.3143l0.5206 0.2426z"/>
   <path class="fil29 str6" d="M32.1643 72.3012c0,0 0.5498,0.3763 1.0794,0.3224 0.5297,-0.0539 1.0237,-0.4938 1.0237,-0.4938l0.5341 0.3488c0,0 -0.1481,0.5042 -1.2076,0.6298 -1.0595,0.1258 -1.809,-0.4088 -1.809,-0.4088l0.3794 -0.3984z"/>
   <path class="fil32 str3" d="M34.9874 73.2203c0,0 -1.0942,0.539 -2.1323,0.4448 -1.0379,-0.0941 -1.028,-0.0635 -1.028,-0.0635l-0.028 0.5928c0,0 0.9274,0.2429 1.8607,0.1171 0.9331,-0.1256 1.5788,-0.4042 1.5788,-0.4042l-0.2512 -0.687z"/>
   <path class="fil32 str3" d="M35.396 74.3829c0,0 -0.4957,0.4585 -1.4923,0.4675 -0.9964,0.0088 -2.2369,-0.1446 -2.2369,-0.1446l-0.0443 0.6446c0,0 1.5001,0.3079 2.398,0.1733 0.8978,-0.1347 1.6043,-0.4229 1.6043,-0.4229l-0.2288 -0.7179z"/>
   <path class="fil32 str3" d="M31.5695 75.8669c0,0 0.9606,0.3481 2.2176,0.2762 1.257,-0.0718 2.0086,-0.3585 2.0086,-0.3585l0.061 0.5201c0,0 -0.7317,0.3772 -2.0336,0.4131 -1.3019,0.0358 -2.3217,-0.3682 -2.3217,-0.3682l0.0681 -0.4827z"/>
   <path class="fil32 str3" d="M35.9555 76.821l0.0809 0.5297c0,0 -0.6868,0.4893 -2.2131,0.5432 -1.5264,0.0539 -2.5028,-0.3905 -2.5028,-0.3905l0.1012 -0.6482c0,0 1.1446,0.491 2.4465,0.3832 1.3017,-0.1076 2.0873,-0.4174 2.0873,-0.4174z"/>
   <path class="fil32 str3" d="M30.4081 73.6919c0,0 0.3133,0.1215 0.659,0.494 0.3456,0.3727 0.4803,0.7587 0.4803,0.7587l-0.3547 0.3815c0,0 -0.1482,-0.377 -0.5118,-0.6642 -0.3635,-0.2875 -0.7218,-0.5368 -0.7218,-0.5368l0.449 -0.4332z"/>
   <path class="fil32 str3" d="M29.5429 74.617c0,0 0.5456,0.2379 0.7835,0.4667 0.2379,0.2289 0.5655,0.651 0.5655,0.651 0,0 -0.2828,0.4264 -0.3186,0.4131 -0.0359,-0.0136 -0.1078,-0.2514 -0.7004,-0.5612 -0.5925,-0.3098 -0.76,-0.3887 -0.76,-0.3887l0.43 -0.5809z"/>
  </g>
  <path class="fil27 str3" d="M49.7777 81.3486l-0.918 0.0707c0,0 -0.1788,1.4158 0,1.4456 0.1788,0.0298 0.2087,-0.0074 0.2087,-0.0074l0.0819 -0.6334c0,0 0.462,0.5216 0.8122,0.5887 0.3503,0.067 0.6558,0.0298 0.8421,0 0.1863,-0.0299 0.3354,-0.164 0.2608,-0.328 -0.0745,-0.1639 -0.8718,-0.38 -1.0432,-0.5438 -0.1715,-0.1641 -0.2445,-0.5924 -0.2445,-0.5924z"/>
  <polygon class="fil32 str6" points="49.0813,72.4322 49.706,72.034 49.817,72.3196 49.0646,72.7236 "/>
  <path class="fil24 str5" d="M19.4742 87.2582c0,0 3.1589,5.9247 5.1627,6.5926 2.0039,0.668 6.7352,1.2246 9.2401,1.3359 2.5048,0.1114 7.2919,0.2783 8.9618,-0.1113 1.6699,-0.3896 4.7313,-1.7812 5.6776,-2.2265 0.9463,-0.4453 3.3398,-6.6239 3.3398,-6.6239l1.2246 -5.7334c0,0 -9.2679,2.6719 -9.5184,2.811 -0.2505,0.1392 -0.501,2.6997 -0.8628,2.7832 -0.3618,0.0835 -4.5504,0.654 -8.3077,0.6401 -3.7573,-0.0139 -15.0848,-1.489 -15.0848,-1.489 0,0 -10.743,-5.7055 -11.244,-5.4828 -0.501,0.2226 10.5203,6.8465 10.91,7.1805 0.3896,0.334 0.5011,0.3236 0.5011,0.3236z"/>
  <polygon class="fil32 str6" points="49.1385,73.0978 49.974,72.7468 50.0741,73.0517 49.1801,73.3848 "/>
  <polygon class="fil32 str6" points="49.3957,73.9811 50.285,73.5229 50.366,73.7104 49.4572,74.1922 "/>
  <polygon class="fil32 str6" points="46.2939,72.1324 48.8336,72.1959 48.8483,72.5278 46.1855,72.3938 "/>
  <polygon class="fil32 str6" points="46.0954,72.8087 48.9005,72.8979 48.9602,73.1552 46.0371,73.0907 "/>
  <polygon class="fil32 str6" points="45.9631,73.4942 49.0208,73.6103 49.0779,73.9123 45.9137,73.7618 45.9943,73.4954 "/>
  <polygon class="fil32 str6" points="45.8584,74.1703 49.1763,74.2773 49.1842,74.5418 45.8201,74.4752 "/>
  <path class="fil32 str6" d="M45.8223 71.016c0,0 0.7315,0.2041 1.5991,0.1021 0.8676,-0.1021 1.8005,-0.2112 1.8005,-0.2112l0.124 0.2558c0,0 -1.3546,0.3509 -1.9074,0.3339 -0.5529,-0.017 -1.8402,-0.3138 -1.8402,-0.3138l0.224 -0.1668z"/>
  <polygon class="fil32 str6" points="44.8957,71.7146 45.9164,72.6247 45.7054,73.1244 44.5433,71.9866 "/>
  <polygon class="fil32 str6" points="44.2789,72.2844 45.2316,73.4795 44.9636,73.6624 44.0238,72.5524 "/>
  <polygon class="fil32 str6" points="43.6665,72.8734 44.7391,73.8974 44.5626,74.0821 43.4882,73.0951 43.6839,72.89 "/>
  <g id="_2565207015328">
   <polygon class="fil29 str3" points="52.3895,63.1455 46.8391,61.6244 47.1294,60.4407 52.7161,61.9571 "/>
   <polygon class="fil21 str3" points="52.7161,61.9571 54.1903,61.1228 45.6979,58.6373 47.1294,60.4407 "/>
   <path class="fil35 str3" d="M52.4499 62.9259c0,0 0.8443,-0.844 1.6361,-0.7248 0.7918,0.1192 1.7922,1.106 2.2931,1.2629 0.5009,0.1569 1.7696,0.133 1.7696,0.133l-0.6423 0.7487 0.9924 0.2411c0,0 -1.2435,0.5604 -1.7402,0.3216 -0.4968,-0.2388 -1.7402,-1.6747 -2.255,-1.8815 -0.5149,-0.2069 -2.0537,-0.101 -2.0537,-0.101z"/>
   <path class="fil35 str3" d="M52.3895 63.1455c0,0 1.3228,-0.1196 1.7978,0.3512 0.4751,0.4708 0.8097,1.0559 0.9256,1.5511 0.116,0.4952 0.0271,0.9503 0.3834,1.3034 0.3563,0.3532 1.8366,0.8785 1.9776,0.8824 0.141,0.0039 -0.581,-0.775 -0.581,-0.775l0.8102 -0.8222c0,0 -1.1297,0.5826 -1.4543,0.1884 -0.3247,-0.3941 -0.5835,-1.0347 -0.5664,-1.5754 0.0169,-0.5407 -0.5653,-1.2798 -1.0614,-1.4004 -0.4963,-0.1206 -2.2315,0.2965 -2.2315,0.2965z"/>
  </g>
  <ellipse class="fil13 str5" cx="46.1029" cy="85.3917" rx="0.6596" ry="0.767"/>
  <ellipse class="fil13 str3" cx="49.3704" cy="84.3793" rx="0.6136" ry="0.767"/>
  <polygon class="fil24 str5" points="23.6986,88.4095 22.8357,57.2785 23.7959,57.302 24.6865,88.5269 "/>
  <path class="fil25 str5" d="M17.5221 60.7763l11.4666 -2.143c0,0 -2.4214,0 -3.5624,6.3456 -1.1411,6.3456 3.9242,8.1268 3.5902,8.4608 -0.3339,0.334 -4.9947,-1.8039 -8.0562,-1.3308 -3.0615,0.4731 -2.8537,2.5554 -2.8537,2.5554 0,0 -2.8389,-4.0634 -2.811,-6.7909 0.0278,-2.7275 2.2265,-7.0971 2.2265,-7.0971z"/>
  <path class="fil36 str5" d="M13.4501 57.5185c0,0 2.6718,0.9041 4.2304,0.586 1.5585,-0.3181 2.8666,-0.7367 3.6181,-0.8371 0.7514,-0.1005 1.6094,-0.0226 1.6094,-0.0226l0.0887 2.2832c0,0 -0.6405,-0.4859 -1.6146,-0.4189 -0.9741,0.067 -0.8072,0.9962 -3.4233,1.1217 -2.6162,0.1256 -4.6479,-1.3729 -4.6479,-1.3729l3.4233 0.3182 -3.2841 -1.6576z"/>
  <path class="fil25 str5" d="M19.2749 74.6918l9.7205 -1.8167c0,0 -2.0527,0 -3.02,5.3793 -0.9673,5.3793 3.3267,6.8892 3.0436,7.1724 -0.2832,0.2831 -4.2342,-1.5292 -6.8295,-1.1282 -2.5952,0.4011 -2.4191,2.1663 -2.4191,2.1663 0,0 -2.4066,-3.4446 -2.383,-5.7568 0.0236,-2.3121 1.8875,-6.0163 1.8875,-6.0163z"/>
  <g id="_2565206972000">
   <path class="fil14 str0" d="M88.9436 84.6393c-0.1039,0.0177 -0.6757,0.2369 -1.0283,0.5799 -0.3526,0.3431 -0.9626,1.5153 -0.7148,1.6869 0.2478,0.1715 1.1309,-0.4277 1.3152,-0.6957 0.1842,-0.2681 0.4279,-1.5711 0.4279,-1.5711z"/>
   <path class="fil15 str0" d="M88.7324 91.5926c0,0 -1.7344,-1.4581 -1.439,-2.8019 0.2954,-1.3437 0.9625,-2.4206 1.3914,-3.3069 0.4288,-0.8863 0.0953,-1.1055 -0.0858,-1.4295 -0.1811,-0.324 0.1906,-1.0293 0.1906,-1.0293 0,0 -0.8768,1.2771 -1.4009,1.2104 -0.5242,-0.0667 -0.9054,-0.7148 -0.8863,-0.9626 0.019,-0.2478 -1.2653,-0.2952 -1.5582,-0.4908 -0.7584,-0.5065 -0.698,-0.8963 -0.6558,-1.0815 0.1456,0.0533 0.1078,0.6384 1.423,0.5717 1.3151,-0.0667 1.4581,-0.1049 2.2777,-0.5432 0.8196,-0.4384 0.9149,-0.629 1.4962,-0.3527 0.5813,0.2764 0.6004,0.1049 0.8291,0.7529 0.2287,0.6481 0.2573,1.906 -0.2287,2.7828 -0.486,0.8768 -1.5439,2.5922 -1.7917,3.5833 -0.2477,0.9911 0.4384,3.0973 0.4384,3.0973z"/>
   <path class="fil14 str0" d="M90.7838 84.8762c0.0381,0.0857 -0.1048,0.3716 0.0477,0.6861 0.1524,0.3145 0.3335,0.5623 0.4574,0.7624 0.1239,0.2002 0.1239,0.8387 0.3907,0.9054 0.2669,0.0667 0.7434,-0.3336 0.9435,-0.7338 0.2001,-0.4003 -0.0381,-1.8584 -0.0381,-1.8584l-1.8012 0.2383z"/>
   <path class="fil16 str0" d="M86.5715 83.1703c0.2192,-0.0095 1.7821,-0.5051 2.0204,-1.0007 0.2382,-0.4955 -0.5623,1.4009 -1.0102,1.563 -0.4479,0.162 -0.648,0.162 -0.7147,-0.0858 -0.0668,-0.2478 0,-0.4193 0,-0.4193l-0.2955 -0.0572z"/>
   <path class="fil14 str0" d="M89.7712 91.1161c0.0572,0 1.2675,-0.7338 1.6678,-0.9626 0.4002,-0.2287 1.4771,-0.2382 1.4866,0.0191 0.0096,0.2573 -0.7814,0.5337 -0.8195,0.8768 -0.0382,0.3431 0.019,0.8005 -0.1811,1.1245 -0.405,0.6052 -1.7821,0.5909 -2.3921,0.467 -0.6099,-0.1239 0.4765,1.0769 -0.7814,1.1913 -1.258,0.1143 -1.906,-0.7053 -2.1348,-0.6481 -0.2287,0.0572 -0.3621,0.2097 -0.5289,0.1287 -0.1668,-0.081 -0.1668,-0.6814 0.1382,-0.9292 0.305,-0.2478 1.9155,-0.4813 2.049,-0.5813 0.1334,-0.1001 0.4487,-0.237 0.4487,-0.237 0,0 -0.8551,-1.2747 -0.4701,-2.8315 0.3849,-1.5567 1.4971,-3.2015 1.8576,-3.869 0.3604,-0.6675 0.4823,-1.9235 0.2974,-2.3759 -0.1848,-0.4524 -0.7336,-1.1491 -1.0589,-1.1719 -0.3253,-0.0228 -0.5327,0.0751 -1.7543,0.6152 -0.8891,0.3931 -2.6886,0.9188 -3.2948,-0.2038 -0.0913,-0.169 0.1671,-0.2662 0.3482,-0.4473 0.1811,-0.1811 -0.2287,-0.5813 -0.0572,-1.2389 0.1715,-0.6576 0.5623,-1.5725 1.096,-1.7535 0.5336,-0.1811 5.0367,-0.6817 5.3106,-0.7316 0.274,-0.0499 2.5516,-0.0785 3.781,1.0842 1.2294,1.1626 1.1722,1.8583 1.2771,2.5159 0.1048,0.6576 0.3335,1.0293 -0.0286,1.2103 -0.3622,0.1811 -0.6481,-0.1334 -1.096,-0.3526 -0.4479,-0.2192 -0.8196,-0.3907 -0.9911,-0.4098 -0.1716,-0.019 0.1715,1.4486 -0.1144,2.2491 -0.2859,0.8006 -2.1728,3.164 -2.8781,3.793 -0.7052,0.629 -1.1054,0.8196 -1.3723,1.6201 -0.2668,0.8005 -0.2907,1.258 -0.1668,1.5248 0.1239,0.2669 0.3622,0.324 0.3622,0.324z"/>
   <ellipse class="fil4 str0" cx="87.4896" cy="80.5128" rx="0.6099" ry="0.8482"/>
   <ellipse class="fil4 str0" cx="85.7359" cy="80.4965" rx="0.6004" ry="0.8577"/>
   <ellipse class="fil5 str0" cx="87.6675" cy="80.7782" rx="0.2954" ry="0.4384"/>
   <ellipse class="fil5 str0" cx="85.9139" cy="80.8211" rx="0.3145" ry="0.4241"/>
   <path class="fil17 str0" d="M90.9172 77.7953c-0.1143,0.0858 -1.8297,1.3628 -3.3355,1.401 -1.5057,0.0381 -2.535,0.2382 -3.0306,-0.5147 -0.4955,-0.7528 0.629,-0.7814 0.8101,-0.8767 0.1811,-0.0953 1.2389,0.2478 2.2014,0.1715 0.9626,-0.0762 3.388,-0.2359 3.388,-0.2359l-0.0334 0.0548z"/>
   <path class="fil18 str0" d="M85.2778 77.5142l0.0834 0.2907c0,0 1.548,0.2188 2.3281,0.1616 0.78,-0.0571 3.2613,-0.226 3.2613,-0.226l0.0953 -0.3669c0,0 -2.7161,0.2216 -3.3617,0.2049 -0.6457,-0.0166 -2.4064,-0.0643 -2.4064,-0.0643z"/>
   <path class="fil19 str7" d="M85.2778 77.5142c0,0 -0.6171,-0.467 -0.4789,-1.0245 0.1382,-0.5575 0.7529,-0.6957 1.1436,-0.648 0.3908,0.0476 0.4718,-0.6099 1.4677,-0.6433 0.9959,-0.0333 1.1626,0.2859 1.2675,0.2716 0.1048,-0.0143 0.1143,-0.3288 0.6718,-0.3383 0.5575,-0.0095 1.1007,0.4717 1.2818,0.5146 0.1811,0.0429 0.9197,0.1287 1.0197,0.5432 0.1001,0.4146 -0.5265,1.0984 -0.5432,1.1484l-3.2055 0.2398 -2.6245 -0.0635z"/>
   <path class="fil7 str0" d="M87.3203 76.0027c0.0155,-0.1855 0.1701,-0.2628 0.3247,-0.2474 0.1546,0.0155 0.2164,0.0387 0.1932,0.1624 -0.0232,0.1236 -0.1352,0.1546 -0.1584,0.1893 -0.0232,0.0348 -0.0232,0.1778 -0.0232,0.1778l0.2628 -0.0309 0 0.143 -0.2358 0.0271c0,0 -0.0116,0.2241 0.0078,0.2551 0.0193,0.0309 0.1777,0.0966 0.2705,0.085 0.0928,-0.0116 0.143,-0.058 0.1817,-0.1237 0.0386,-0.0657 -0.1083,-0.1217 -0.1083,-0.1217l0.2493 -0.0735 0.0213 0.2281 -0.0831 -0.0194c0,0 -0.0503,0.1894 -0.201,0.2087 -0.1507,0.0194 -0.3788,-0.0734 -0.3788,-0.0734 0,0 -0.3053,0.0696 -0.4367,0.0541 -0.1314,-0.0154 -0.1932,-0.1391 -0.1932,-0.1391l-0.2049 0.0966 0.058 -0.2937 0.3015 0.0657 -0.0464 0.0889c0,0 0.0695,0.0657 0.1816,0.0657 0.1121,0 0.2126,-0.0271 0.2126,-0.0271l0.0155 -0.2628 -0.2203 0.0116 0 -0.1623 0.2048 -0.0309c0,0 0.0309,-0.1624 -0.0039,-0.174 -0.0348,-0.0116 -0.1855,0.031 -0.1913,-0.0792z"/>
   <path class="fil13 str0" d="M90.9339 77.7679c0,0 1.2281,1.0164 1.7618,1.8741 0.5336,0.8577 1.2449,1.9631 1.2449,1.9631"/>
  </g>
  <path class="fil37 str8" d="M-0.0162 93.4966c0,0 2.2157,0.496 7.3751,-0.1654 5.1594,-0.6614 9.0835,-0.9445 13.5376,0.8507 4.4541,1.7952 7.3645,1.1337 10.5395,-0.4538 3.175,-1.5875 5.1594,-0.5291 10.4511,0.5292 5.2917,1.0583 7.5407,-1.1905 13.4938,-1.0583 5.9531,0.1322 7.8051,1.1906 11.7739,1.1906 3.9688,0 6.0854,-2.1166 9.525,-3.0427 3.4396,-0.9261 4.1011,-1.0584 8.7313,-0.7938 4.6302,0.2646 8.9958,1.0583 10.8479,1.1906 1.8521,0.1323 3.9027,0.5292 3.9027,0.5292l0 7.6731 -99.9797 -0.0663 -0.1982 -6.3831z"/>
 </g>
</svg>
