<?xml version="1.0" encoding="UTF-8" standalone="no"?>
<!-- Created with Inkscape (http://www.inkscape.org/) -->

<svg
   width="100mm"
   height="100mm"
   viewBox="0 0 100 100"
   version="1.1"
   id="svg41609"
   inkscape:version="1.1 (c68e22c387, 2021-05-23)"
   sodipodi:docname="schedule.svg"
   xmlns:inkscape="http://www.inkscape.org/namespaces/inkscape"
   xmlns:sodipodi="http://sodipodi.sourceforge.net/DTD/sodipodi-0.dtd"
   xmlns="http://www.w3.org/2000/svg"
   xmlns:svg="http://www.w3.org/2000/svg">
  <sodipodi:namedview
     id="namedview41611"
     pagecolor="#ffffff"
     bordercolor="#666666"
     borderopacity="1.0"
     inkscape:pageshadow="2"
     inkscape:pageopacity="0.0"
     inkscape:pagecheckerboard="0"
     inkscape:document-units="mm"
     showgrid="false"
     inkscape:zoom="0.592"
     inkscape:cx="799"
     inkscape:cy="195"
     inkscape:window-width="1902"
     inkscape:window-height="1033"
     inkscape:window-x="-2"
     inkscape:window-y="0"
     inkscape:window-maximized="0"
     inkscape:current-layer="layer1" />
  <defs
     id="defs41606" />
  <g
     inkscape:label="Layer 1"
     inkscape:groupmode="layer"
     id="layer1">
    <g
       id="g50648"
       transform="matrix(0.05,0,0,0.05,-64.4,117)"
       style="stroke-width:20.0718">
      <path
         style="fill:#fbc382;fill-opacity:1;stroke:#000000;stroke-width:5.31904;stroke-linecap:butt;stroke-linejoin:miter;stroke-miterlimit:4;stroke-dasharray:none;stroke-opacity:1"
         d="m 1680,-663 c -60,-2 -120,-37 -150,-68 -20,-35 -20,-69 -20,-69 0,0 -20,5 -30,-11 0,-18 30,-21 30,-21 0,0 -30,-117 140,-141 180,-23 170,141 170,141 0,0 30,0 30,13 10,16 -20,24 -20,24 0,0 -20,74 -50,95 -40,19 -30,27 -100,37 z"
         id="path42326" />
      <path
         style="fill:none;stroke:#000000;stroke-width:11.3406;stroke-linecap:butt;stroke-linejoin:miter;stroke-miterlimit:4;stroke-dasharray:none;stroke-opacity:1"
         d="m 1600,-750 c 0,0 20,41 70,42 50,1 60,-51 60,-51"
         id="path42441"
         sodipodi:nodetypes="csc" />
      <path
         style="fill:none;stroke:#000000;stroke-width:11.3406;stroke-linecap:butt;stroke-linejoin:miter;stroke-miterlimit:4;stroke-dasharray:none;stroke-opacity:1"
         d="m 1570,-816 c 0,0 20,21 40,3"
         id="path42556" />
      <path
         style="fill:none;stroke:#000000;stroke-width:11.3406;stroke-linecap:butt;stroke-linejoin:miter;stroke-miterlimit:4;stroke-dasharray:none;stroke-opacity:1"
         d="m 1690,-819 c 0,0 10,18 20,15 20,-3 20,-15 20,-15"
         id="path42558"
         sodipodi:nodetypes="csc" />
      <path
         style="fill:none;stroke:#000000;stroke-width:11.3406;stroke-linecap:butt;stroke-linejoin:miter;stroke-miterlimit:4;stroke-dasharray:none;stroke-opacity:1"
         d="m 1640,-782 c 0,0 10,20 30,4"
         id="path42560"
         sodipodi:nodetypes="cc" />
      <path
         style="fill:#00ffff;stroke:#000000;stroke-width:5.31904px;stroke-linecap:butt;stroke-linejoin:miter;stroke-opacity:1"
         d="m 1430,-763 230,77 -10,233 -240,-56 z"
         id="path42918" />
      <path
         style="fill:#00ffff;stroke:#000000;stroke-width:5.31904px;stroke-linecap:butt;stroke-linejoin:miter;stroke-opacity:1"
         d="m 1660,-686 50,-3 -10,233 -50,3"
         id="path42920" />
      <path
         style="fill:#00ffff;stroke:#000000;stroke-width:5.31904px;stroke-linecap:butt;stroke-linejoin:miter;stroke-opacity:1"
         d="m 1700,-456 210,-63 10,-257 -210,87"
         id="path42922" />
      <ellipse
         style="fill:#ffff00;fill-opacity:1;stroke:#000000;stroke-width:5.32968;stroke-miterlimit:4;stroke-dasharray:none"
         id="path42970"
         cx="1830"
         cy="-591"
         rx="24"
         ry="26.2" />
      <path
         style="fill:#ffff00;stroke:#000000;stroke-width:5.31904px;stroke-linecap:butt;stroke-linejoin:miter;stroke-opacity:1"
         d="m 1800,-582 -20,-4 v 20 z"
         id="path43111-0" />
      <path
         style="fill:#ffff00;stroke:#000000;stroke-width:5.31904px;stroke-linecap:butt;stroke-linejoin:miter;stroke-opacity:1"
         d="m 1540,-546 10,-32 c 0,0 30,8 30,6 0,0 -20,-22 -20,-22 l 20,-23 -30,7 v -31 c 0,0 -20,31 -20,29 0,0 -30,-19 -30,-19 l 20,29 -40,11 30,5 c 0,0 -10,35 -10,32 10,0 30,-24 30,-24 z"
         id="path43448" />
      <ellipse
         style="fill:#fbc382;fill-opacity:1;stroke:#000000;stroke-width:5.32968;stroke-miterlimit:4;stroke-dasharray:none"
         id="path44194"
         cx="1410"
         cy="-700"
         rx="13.9"
         ry="10.4" />
      <ellipse
         style="fill:#fbc382;fill-opacity:1;stroke:#000000;stroke-width:5.32968;stroke-miterlimit:4;stroke-dasharray:none"
         id="path44194-3"
         cx="1410"
         cy="-677"
         rx="13.9"
         ry="10.4" />
      <ellipse
         style="fill:#fbc382;fill-opacity:1;stroke:#000000;stroke-width:5.32968;stroke-miterlimit:4;stroke-dasharray:none"
         id="path44194-6"
         cx="1410"
         cy="-654"
         rx="13.9"
         ry="10.4" />
      <ellipse
         style="fill:#fbc382;fill-opacity:1;stroke:#000000;stroke-width:5.32968;stroke-miterlimit:4;stroke-dasharray:none"
         id="path44509"
         cx="1910"
         cy="-711"
         rx="13.4"
         ry="8.56" />
      <ellipse
         style="fill:#fbc382;fill-opacity:1;stroke:#000000;stroke-width:5.32968;stroke-miterlimit:4;stroke-dasharray:none"
         id="path44509-5"
         cx="1910"
         cy="-684"
         rx="13.4"
         ry="8.56" />
      <ellipse
         style="fill:#fbc382;fill-opacity:1;stroke:#000000;stroke-width:5.32968;stroke-miterlimit:4;stroke-dasharray:none"
         id="path44509-7"
         cx="1910"
         cy="-660"
         rx="13.4"
         ry="8.56" />
      <path
         style="fill:#fbc382;fill-opacity:1;stroke:#000000;stroke-width:5.31904px;stroke-linecap:butt;stroke-linejoin:miter;stroke-opacity:1"
         d="m 1730,-461 40,34 v 22 l -70,-51 z"
         id="path44659" />
      <path
         style="fill:#fbc382;fill-opacity:1;stroke:#000000;stroke-width:5.31904px;stroke-linecap:butt;stroke-linejoin:miter;stroke-opacity:1"
         d="m 1620,-456 v 24 l 20,26 10,-47 -30,-5 z"
         id="path44661"
         sodipodi:nodetypes="cccccc" />
      <path
         style="fill:#ffff00;stroke:#000000;stroke-width:5.31904px;stroke-linecap:butt;stroke-linejoin:miter;stroke-opacity:1"
         d="m 1800,-642 -10,20 20,5 z"
         id="path43111-5" />
      <path
         style="fill:#ffff00;stroke:#000000;stroke-width:5.31904px;stroke-linecap:butt;stroke-linejoin:miter;stroke-opacity:1"
         d="m 1860,-612 20,-9 -10,-17 z"
         id="path43111-3" />
      <path
         style="fill:#ffff00;stroke:#000000;stroke-width:5.31904px;stroke-linecap:butt;stroke-linejoin:miter;stroke-opacity:1"
         d="m 1870,-556 10,-22 -20,-1 z"
         id="path43111-39" />
      <path
         style="fill:#ffff00;stroke:#000000;stroke-width:5.31904px;stroke-linecap:butt;stroke-linejoin:miter;stroke-opacity:1"
         d="m 1830,-555 -10,20 20,5 z"
         id="path43111" />
      <path
         style="fill:#dfac5e;fill-opacity:1;stroke:#000000;stroke-width:5.31904px;stroke-linecap:butt;stroke-linejoin:miter;stroke-opacity:1"
         d="m 1520,-831 -40,-4 c 0,0 10,-69 40,-98 30,-29 80,-52 110,-59 30,-7 100,-4 120,6 20,11 60,24 80,69 10,23 10,53 10,66 0,11 -30,22 -30,22 0,0 0,-28 -10,-47 0,-18 -30,-46 -30,-46 l -20,-21 10,45 -40,-48 10,48 -50,-53 20,55 -40,-58 30,64 -60,-61 20,66 -40,-69 c 0,0 20,74 20,69 -10,-5 -40,-56 -40,-56 l 10,59 -30,-43 c 0,0 -10,5 -20,16 -10,11 -20,45 -30,78 z"
         id="path6358"
         sodipodi:nodetypes="ccsssssczccccccccccccscccsc" />
      <path
         style="fill:#aa4400;stroke:#000000;stroke-width:5.31904px;stroke-linecap:butt;stroke-linejoin:miter;stroke-opacity:1"
         d="m 1780,-390 c -10,-15 -10,-13 -10,-37 10,-26 40,-45 50,-34 10,10 10,29 0,48 -10,15 -40,23 -40,23 z"
         id="path13514"
         sodipodi:nodetypes="csssc" />
      <path
         style="fill:#aa4400;stroke:#000000;stroke-width:5.31904px;stroke-linecap:butt;stroke-linejoin:miter;stroke-opacity:1"
         d="m 1640,-366 c -30,19 -70,-58 -50,-69 10,-8 80,32 50,69 z"
         id="path13905" />
    </g>
    <g
       id="g51328"
       transform="matrix(0.058,0,0,0.058,28.8,133)"
       style="stroke-width:17.3898">
      <path
         style="fill:#ed653d;fill-opacity:1;stroke:#000000;stroke-width:4.6083px;stroke-linecap:butt;stroke-linejoin:miter;stroke-opacity:1"
         d="m 1050,-885 c 0,0 30,5 30,16 0,10 30,124 30,124 0,0 -50,22 -80,19 -10,0 -65,8 -65,8 l -53,-35 c 0,0 16,-23 23,-42 6,-19 0,-77 0,-77 z"
         id="path33254" />
      <path
         style="fill:#fbc382;fill-opacity:1;stroke:#000000;stroke-width:4.6083px;stroke-linecap:butt;stroke-linejoin:miter;stroke-opacity:1"
         d="m 949,-869 c -89,-8 -121,-77 -125,-122 -6,-69 74,-149 74,-149 0,0 132,-30 152,-10 30,40 110,140 110,140 l -40,27 c 0,0 10,25 -10,48 -40,49 -100,71 -161,66 z"
         id="path25270"
         sodipodi:nodetypes="sscsccss" />
      <path
         style="fill:#e5aa5e;fill-opacity:1;stroke:#000000;stroke-width:4.6083px;stroke-linecap:butt;stroke-linejoin:miter;stroke-opacity:1"
         d="m 832,-1070 c 0,0 -6,-40 29,-70 49,-50 114,-70 199,-50 90,30 120,110 120,160 0,57 -60,113 -70,116 -10,2 0,-67 0,-67 0,0 40,-13 30,-39 -10,-20 -30,0 -40,10 -10,14 -30,0 -30,0 0,0 10,-60 0,-70 -10,-10 -20,40 -20,30 0,-10 -20,-50 -20,-50 -10,0 -10,40 -10,40 l -34,-60 c 0,0 13,50 10,50 l -45,-60 16,50 -45,-50 13,50 -31,-50 -6,60 -18,-30 -11,30 -24,-10 z"
         id="path25554"
         sodipodi:nodetypes="csssscsscsscccscccccccccc" />
      <path
         style="fill:none;stroke:#000000;stroke-width:9.82524;stroke-linecap:butt;stroke-linejoin:miter;stroke-miterlimit:4;stroke-dasharray:none;stroke-opacity:1"
         d="m 872,-1020 c 16,20 24,10 29,10"
         id="path28687" />
      <path
         style="fill:none;stroke:#000000;stroke-width:9.82524;stroke-linecap:butt;stroke-linejoin:miter;stroke-miterlimit:4;stroke-dasharray:none;stroke-opacity:1"
         d="m 970,-1020 c 0,0 3,21 16,24 13,5 24,-4 24,-4"
         id="path28689" />
      <path
         style="fill:none;stroke:#000000;stroke-width:9.82524;stroke-linecap:butt;stroke-linejoin:miter;stroke-miterlimit:4;stroke-dasharray:none;stroke-opacity:1"
         d="m 922,-988 c 0,0 -13,15 -2,23 8,6 21,-5 21,-5"
         id="path28691" />
      <path
         style="fill:none;stroke:#000000;stroke-width:9.82524;stroke-linecap:butt;stroke-linejoin:miter;stroke-miterlimit:4;stroke-dasharray:none;stroke-opacity:1"
         d="m 893,-933 c 0,0 29,32 66,21 37,-10 51,-34 61,-37"
         id="path28693" />
      <path
         style="fill:none;stroke:#000000;stroke-width:9.82524;stroke-linecap:butt;stroke-linejoin:miter;stroke-miterlimit:4;stroke-dasharray:none;stroke-opacity:1"
         d="m 933,-912 c 0,0 -3,26 26,22 29,-4 22,-32 22,-32"
         id="path28695"
         sodipodi:nodetypes="czc" />
      <path
         style="fill:#fbc382;fill-opacity:1;stroke:#000000;stroke-width:4.6083px;stroke-linecap:butt;stroke-linejoin:miter;stroke-opacity:1"
         d="m 951,-869 c 0,0 -9,32 22,32 26,0 27,-38 27,-38"
         id="path33256"
         sodipodi:nodetypes="csc" />
      <path
         style="fill:none;stroke:#000000;stroke-width:8.08626;stroke-linecap:butt;stroke-linejoin:miter;stroke-miterlimit:4;stroke-dasharray:none;stroke-opacity:1"
         d="m 991,-800 39,37 c 0,0 50,-55 30,-69 -40,-27 -69,32 -69,32 z"
         id="path33310"
         sodipodi:nodetypes="ccsc" />
      <path
         style="fill:#ed653d;fill-opacity:1;stroke:#000000;stroke-width:4.6083px;stroke-linecap:butt;stroke-linejoin:miter;stroke-opacity:1"
         d="m 901,-845 40,39 -6,-69 z"
         id="path33312" />
      <path
         style="fill:#c08a4f;fill-opacity:1;stroke:#000000;stroke-width:4.6083px;stroke-linecap:butt;stroke-linejoin:miter;stroke-opacity:1"
         d="m 1090,-739 c 0,0 10,31 10,47 0,10 -20,24 -20,24 l -113,-50 z"
         id="path33522"
         sodipodi:nodetypes="caccc" />
      <path
         style="fill:#fbc382;fill-opacity:1;stroke:#000000;stroke-width:4.6083px;stroke-linecap:butt;stroke-linejoin:miter;stroke-opacity:1"
         d="m 912,-840 -98,45 c 0,0 -28,-23 -35,-13 -7,9 29,29 21,26 0,0 -37,-13 -39,0 -2,13 42,8 39,11 -5,2 -26,24 -26,24 2,0 40,-19 40,-19 -3,3 -21,27 -11,32 10,5 19,-27 19,-27 0,0 26,24 34,14 8,-11 -24,-29 -24,-32 3,0 96,-43 96,-43"
         id="path34689"
         sodipodi:nodetypes="ccssssccscssc" />
      <path
         style="fill:#c8b7b7;stroke:#000000;stroke-width:4.6083px;stroke-linecap:butt;stroke-linejoin:miter;stroke-opacity:1"
         d="m 845,-851 c -34,23 -13,72 30,77 10,1 58,101 58,101 2,0 21,-5 21,-8 0,-3 -58,-98 -58,-103 11,-40 -20,-86 -51,-67 z"
         id="path34804"
         sodipodi:nodetypes="cscscc" />
      <path
         style="fill:#fbc382;fill-opacity:1;stroke:#000000;stroke-width:4.6083px;stroke-linecap:butt;stroke-linejoin:miter;stroke-opacity:1"
         d="m 999,-795 c 0,0 -34,50 -48,50 -10,0 -29,-10 -29,-10 0,0 5,11 0,16 -8,7 -18,8 -21,8 -5,-3 -11,-11 -11,-11 l -2,16 c 0,0 8,9 16,9 11,0 21,-6 21,-6 0,0 -7,7 -11,9 -6,3 -20,-4 -21,4 0,7 13,5 19,5 5,0 21,-5 21,-5 0,0 -6,6 -12,8 -5,3 -20,-2 -20,5 0,7 16,8 21,5 8,-2 22,-3 29,-13 3,-4 3,-18 3,-18 l 76,-48 -31,-27"
         id="path33704"
         sodipodi:nodetypes="cscssccscasscssssccc" />
      <ellipse
         style="fill:#ffffff;fill-opacity:1;stroke:#1a1a1a;stroke-width:9.83872;stroke-miterlimit:4;stroke-dasharray:none"
         id="path35801"
         cx="751"
         cy="-679"
         rx="122"
         ry="79.2" />
      <ellipse
         style="fill:#ffffff;fill-opacity:1;stroke:#000000;stroke-width:9.83872;stroke-miterlimit:4;stroke-dasharray:none"
         id="path35923"
         cx="756"
         cy="-678"
         rx="72.9"
         ry="47.7" />
      <path
         style="fill:#ffff00;stroke:#000000;stroke-width:4.6083px;stroke-linecap:butt;stroke-linejoin:miter;stroke-opacity:1"
         d="m 723,-694 11,-19 21,11 -8,21 z"
         id="path36078" />
      <path
         style="fill:#ffff00;stroke:#000000;stroke-width:4.6083px;stroke-linecap:butt;stroke-linejoin:miter;stroke-opacity:1"
         d="m 776,-694 -2,-19 21,5 -5,22 z"
         id="path36080" />
      <path
         style="fill:#ffff00;stroke:#000000;stroke-width:4.6083px;stroke-linecap:butt;stroke-linejoin:miter;stroke-opacity:1"
         d="m 734,-665 -18,-8 -8,21 23,8 z"
         id="path36082" />
      <path
         style="fill:#ffff00;stroke:#000000;stroke-width:4.6083px;stroke-linecap:butt;stroke-linejoin:miter;stroke-opacity:1"
         d="m 766,-668 -11,16 11,11 13,-8 3,-16 z"
         id="path36084" />
      <path
         style="fill:#ffff00;stroke:#000000;stroke-width:4.6083px;stroke-linecap:butt;stroke-linejoin:miter;stroke-opacity:1"
         d="m 709,-707 -11,16 11,11 13,-8 3,-16 z"
         id="path36084-2" />
      <path
         style="fill:#ffff00;stroke:#000000;stroke-width:4.6083px;stroke-linecap:butt;stroke-linejoin:miter;stroke-opacity:1"
         d="m 753,-687 -11,16 11,11 13,-8 3,-16 z"
         id="path36084-8" />
      <path
         style="fill:#ffff00;stroke:#000000;stroke-width:4.6083px;stroke-linecap:butt;stroke-linejoin:miter;stroke-opacity:1"
         d="m 803,-673 -11,16 11,11 13,-8 3,-16 z"
         id="path36084-1" />
    </g>
    <g
       id="g51402"
       transform="matrix(0.046,0,0,0.046,-3.89,-7.6)"
       style="stroke-width:22.2401">
      <path
         style="fill:#008000;stroke:#000000;stroke-width:5.89368px;stroke-linecap:butt;stroke-linejoin:miter;stroke-opacity:1"
         d="m 1010,853 c 0,0 -14,-2 -24,8 -11,11 2,77 24,74 20,-5 10,-60 10,-60 z"
         id="path22253" />
      <path
         style="fill:#d4aa00;stroke:#000000;stroke-width:5.89368px;stroke-linecap:butt;stroke-linejoin:miter;stroke-opacity:1"
         d="m 665,737 c -42,-85 -2,-154 64,-194 63,-39 183,-32 214,43 32,71 -15,145 -55,169 -40,21 -154,72 -223,-18 z"
         id="path14457" />
      <path
         style="fill:#cccccc;stroke:#000000;stroke-width:5.89368px;stroke-linecap:butt;stroke-linejoin:miter;stroke-opacity:1"
         d="m 702,731 c -33,-41 -39,-116 32,-156 72,-40 156,-53 196,11 40,66 -2,108 -53,148 -50,37 -139,43 -175,-3 z"
         id="path14492"
         sodipodi:nodetypes="asssa" />
      <path
         style="fill:#d4aa00;stroke:#000000;stroke-width:5.89368px;stroke-linecap:butt;stroke-linejoin:miter;stroke-opacity:1"
         d="m 946,586 21,-11 11,19 -29,13 z"
         id="path14527" />
      <path
         style="fill:#d40000;stroke:#000000;stroke-width:5.89368px;stroke-linecap:butt;stroke-linejoin:miter;stroke-opacity:1"
         d="m 1210,490 160,-82 c 0,0 10,32 10,32 0,3 -170,85 -170,85 z"
         id="path24695" />
      <path
         style="fill:#fbc382;fill-opacity:1;stroke:#000000;stroke-width:5.89368px;stroke-linecap:butt;stroke-linejoin:miter;stroke-opacity:1"
         d="m 1130,602 c -30,13 -60,29 -100,13 -49,-19 -60,-40 -60,-40 0,0 -24,13 -48,-13 -21,-27 24,-40 24,-40 0,0 -34,-45 -24,-77 13,-34 43,-63 69,-79 29,-16 109,-29 119,-27 20,3 60,16 90,37 20,24 30,93 20,125 -10,34 -30,74 -90,101 z"
         id="path14562" />
      <ellipse
         style="fill:#800000;fill-opacity:1;stroke:#ffff00;stroke-width:12.5829;stroke-miterlimit:4;stroke-dasharray:none"
         id="path14586"
         cx="1030"
         cy="472"
         rx="12.3"
         ry="9.09" />
      <ellipse
         style="fill:#800000;fill-opacity:1;stroke:#ffff00;stroke-width:12.5829;stroke-miterlimit:4;stroke-dasharray:none"
         id="path14588"
         cx="1140"
         cy="427"
         rx="9.62"
         ry="6.94" />
      <path
         style="fill:none;stroke:#000000;stroke-width:10.3417;stroke-linecap:butt;stroke-linejoin:miter;stroke-miterlimit:4;stroke-dasharray:none;stroke-opacity:1"
         d="m 1080,469 c 0,0 20,-11 30,0 10,13 -10,24 -10,24"
         id="path14623" />
      <path
         style="fill:none;stroke:#000000;stroke-width:10.3417;stroke-linecap:butt;stroke-linejoin:miter;stroke-miterlimit:4;stroke-dasharray:none;stroke-opacity:1"
         d="m 1050,535 c 0,0 50,19 80,6 30,-14 30,-48 30,-48"
         id="path14625" />
      <path
         style="fill:#ff7f2a;stroke:#000000;stroke-width:10.3417;stroke-linecap:butt;stroke-linejoin:miter;stroke-miterlimit:4;stroke-dasharray:none;stroke-opacity:1"
         d="m 1080,543 c 0,0 0,27 10,29 10,3 30,-29 30,-29"
         id="path14627"
         sodipodi:nodetypes="csc" />
      <path
         style="fill:#dba65f;fill-opacity:1;stroke:#000000;stroke-width:5.89368px;stroke-linecap:butt;stroke-linejoin:miter;stroke-opacity:1"
         d="m 973,509 -56,18 c 0,0 -29,-34 -19,-82 14,-47 40,-100 80,-116 42,-16 122,-30 152,-19 30,8 30,56 30,56 l -30,-19 10,29 -30,-29 c 0,0 10,40 0,35 0,-6 -30,-27 -30,-27 v 27 l -20,-19 -10,35 -20,-16 -10,26 -26,-18 c 0,0 -13,-6 -27,18 -16,27 -8,80 6,101 z"
         id="path14761" />
      <path
         style="fill:#00ff00;stroke:#000000;stroke-width:5.89368px;stroke-linecap:butt;stroke-linejoin:miter;stroke-opacity:1"
         d="m 1090,620 c 0,0 -30,8 -20,35 0,26 0,76 0,76 0,0 30,-8 50,0 30,11 70,6 80,-2 0,-6 10,-13 10,-13 0,0 -10,-24 -20,-43 0,-18 10,-34 10,-34 l 40,-48 -10,-13 -90,69 50,-43 -20,-16 z"
         id="path19923" />
      <path
         style="fill:#d40000;stroke:#000000;stroke-width:5.89368px;stroke-linecap:butt;stroke-linejoin:miter;stroke-opacity:1"
         d="m 1070,731 -40,48 c 0,0 80,53 90,53 10,0 30,-42 40,-42 0,0 10,26 10,26 0,0 40,0 50,-8 20,-8 20,-26 20,-26 l -30,-64 -140,13"
         id="path19958" />
      <path
         style="fill:#fbc282;fill-opacity:1;stroke:#000000;stroke-width:5.89368px;stroke-linecap:butt;stroke-linejoin:miter;stroke-opacity:1"
         d="m 1060,800 c 0,0 -10,20 -20,29 -10,9 -30,24 -30,24 l 10,19 c 0,0 30,-13 40,-27 10,-13 30,-34 30,-34 z"
         id="path20026"
         sodipodi:nodetypes="caccscc" />
      <path
         style="fill:#fbc382;fill-opacity:1;stroke:#000000;stroke-width:5.89368px;stroke-linecap:butt;stroke-linejoin:miter;stroke-opacity:1"
         d="m 1190,816 c 0,0 10,16 10,24 l -10,27 20,-2 10,-27 v -30 z"
         id="path21186"
         sodipodi:nodetypes="csccscc" />
      <path
         style="fill:#008000;stroke:#000000;stroke-width:5.89368px;stroke-linecap:butt;stroke-linejoin:miter;stroke-opacity:1"
         d="m 1190,869 c -10,11 30,79 60,48 10,-14 -30,-69 -60,-48 z"
         id="path22066"
         sodipodi:nodetypes="sss" />
      <path
         style="fill:#fbc382;fill-opacity:1;stroke:#000000;stroke-width:5.89368px;stroke-linecap:butt;stroke-linejoin:miter;stroke-opacity:1"
         d="m 1170,588 c 0,0 40,-39 50,-47 20,-25 10,-33 10,-33 0,0 -10,-24 0,-28 0,-2 10,8 10,8 0,0 0,-39 10,-37 10,1 0,23 0,23 0,0 10,-26 20,-21 10,5 -10,29 -10,27 10,-3 10,-20 20,-16 10,4 10,13 0,26 -10,16 -20,24 -20,27 -10,5 -70,87 -70,87 z"
         id="path22386"
         sodipodi:nodetypes="cscscscssssscc" />
      <path
         style="fill:#fbc382;fill-opacity:1;stroke:#000000;stroke-width:5.89368px;stroke-linecap:butt;stroke-linejoin:miter;stroke-opacity:1"
         d="m 1240,591 50,-82 c 0,0 30,-16 30,-24 0,-11 10,-21 10,-21 l -40,18 -30,48 -30,50"
         id="path22554"
         sodipodi:nodetypes="ccscccc" />
      <ellipse
         style="fill:#fbc382;fill-opacity:1;stroke:#ffff00;stroke-width:10.3551;stroke-miterlimit:4;stroke-dasharray:none"
         id="path23669"
         cx="1290"
         cy="445"
         rx="7.47"
         ry="13.6" />
      <ellipse
         style="fill:#fbc382;fill-opacity:1;stroke:#ffff00;stroke-width:10.3551;stroke-miterlimit:4;stroke-dasharray:none"
         id="path23671"
         cx="1310"
         cy="437"
         rx="6.41"
         ry="12" />
      <ellipse
         style="fill:#fbc382;fill-opacity:1;stroke:#ffff00;stroke-width:10.3551;stroke-miterlimit:4;stroke-dasharray:none"
         id="path23673"
         cx="1330"
         cy="431"
         rx="7.21"
         ry="12.3" />
      <path
         style="fill:#ff0000;stroke:#000000;stroke-width:5.89368px;stroke-linecap:butt;stroke-linejoin:miter;stroke-opacity:1"
         d="m 1370,215 c -70,3 -110,135 20,135 80,0 80,-139 -20,-135 z"
         id="path48015"
         sodipodi:nodetypes="sss" />
      <path
         style="fill:#ffff00;stroke:#000000;stroke-width:5.89368px;stroke-linecap:butt;stroke-linejoin:miter;stroke-opacity:1"
         d="m 1340,222 c 0,0 30,29 40,53 10,25 0,72 0,72 0,0 40,-44 40,-75 0,-33 -50,-57 -50,-57 z"
         id="path48187"
         sodipodi:nodetypes="cscscc" />
    </g>
  </g>
</svg>
