<?xml version="1.0" encoding="UTF-8"?>
<!DOCTYPE svg PUBLIC "-//W3C//DTD SVG 1.1//EN" "http://www.w3.org/Graphics/SVG/1.1/DTD/svg11.dtd">
<!-- Creator: CorelDRAW 2019 (64-Bit) -->
<svg xmlns="http://www.w3.org/2000/svg" xml:space="preserve" width="100mm" height="100mm" version="1.1" style="shape-rendering:geometricPrecision; text-rendering:geometricPrecision; image-rendering:optimizeQuality; fill-rule:evenodd; clip-rule:evenodd"
viewBox="0 0 100 100"
 xmlns:xlink="http://www.w3.org/1999/xlink"
 xmlns:xodm="http://www.corel.com/coreldraw/odm/2003">
 <defs>
  <style type="text/css">
   <![CDATA[
    .str0 {stroke:#2B2A29;stroke-width:0.2;stroke-miterlimit:22.9256}
    .fil6 {fill:none}
    .fil5 {fill:#FEFEFE}
    .fil10 {fill:#2B2A29}
    .fil2 {fill:#F59E27}
    .fil14 {fill:#EF7F1C}
    .fil9 {fill:#E22331}
    .fil11 {fill:#FDFBF8}
    .fil12 {fill:#E25D23}
    .fil3 {fill:#92451E}
    .fil8 {fill:#57B360}
    .fil13 {fill:#57B360}
    .fil7 {fill:#1279BE}
    .fil1 {fill:#0E60AA}
    .fil4 {fill:#F08EBA}
    .fil0 {fill:#FBC382}
   ]]>
  </style>
 </defs>
 <g id="Layer_x0020_1">
  <metadata id="CorelCorpID_0Corel-Layer"/>
  <g id="_2170945209696">
   <path class="fil0 str0" d="M44.2869 87.5949c0,0 1.3811,1.4296 1.7433,1.2401 0.3622,-0.1894 1.0393,-1.6101 1.0393,-1.6101l-2.7826 0.37z"/>
   <path class="fil1 str0" d="M52.592 94.0125c-0.115,0.0575 -0.4456,0.3306 -0.805,0.7907 -0.3594,0.46 -0.1582,0.6899 -0.6613,1.3368 -0.5031,0.6469 -0.3306,0.6613 -0.7044,1.2219 -0.3737,0.5607 -0.4169,0.6182 -0.3881,0.8051 0.0287,0.1868 0.345,0.3881 0.345,0.3881l3.2632 0.1392 1.7969 0 3.0332 -0.1104 3.3783 -0.1006c0,0 -0.2875,-0.46 -0.6038,-1.15 -0.3162,-0.6901 -0.4025,-0.8338 -0.575,-1.5526 -0.1725,-0.7187 -0.6783,-1.2148 -0.9487,-1.5525 -0.2704,-0.3377 -0.2848,-0.8265 -0.2848,-0.8265l-5.6091 0.0502 -1.2364 0.5606z"/>
   <path class="fil0 str0" d="M46.2025 87.8464c-1.4663,-0.2013 -1.7298,0.2053 -3.4644,-0.5607 -1.7347,-0.766 -2.9897,-1.5973 -3.1768,-2.1787 -0.187,-0.5813 -0.2154,-0.9406 0.2155,-1.1563 0.4308,-0.2157 1.1356,-0.2012 1.4519,-0.0144 0.3162,0.1869 0.7475,0.69 0.7475,0.69l0.1581 -2.2569 1.0064 -6.3252c0,0 2.3695,-2.7149 3.9676,-2.3 1.598,0.4149 2.7949,1.5806 3.1912,2.2425 0.3964,0.6619 1.118,1.7536 0.7475,2.0413 -0.3705,0.2878 -0.8045,1.9557 -0.7433,2.3299 0.0612,0.3742 0.3121,1.0914 0.8583,1.7383 0.5463,0.6469 0.6469,1.035 0.4169,1.9838 -0.23,0.9488 -1.1211,2.53 -2.2424,3.0188 -1.1213,0.4888 -2.1347,0.5391 -2.4654,0.6181 -0.3306,0.0791 -0.6686,0.1295 -0.6686,0.1295z"/>
   <path class="fil2 str0" d="M46.0221 71.4874c0,0 1.4088,-0.345 1.265,-0.345 -0.1437,0 -1.6244,-0.0647 -1.495,-0.1797 0.1294,-0.115 0.8912,-0.5678 1.15,-0.6469 0.2588,-0.079 1.5238,0.5175 1.5238,0.5175 0,0 -0.8407,-0.8913 -0.7258,-0.9991 0.115,-0.1078 1.4591,1.3154 1.4591,1.3154 0,0 2.3361,-0.1437 2.7386,-0.2012 0.4025,-0.0576 1.2937,-0.3163 1.8112,-0.1438 0.5176,0.1725 1.9838,0.6325 2.2426,0.46 0.2588,-0.1725 2.8751,-0.4025 2.8751,-0.4025l-1.4519 0.5319c0,0 2.9326,0.115 3.2058,0.6181 0.2731,0.5032 -1.9982,0 -1.9982,0 0,0 2.0414,0.2876 2.5301,1.2076 0.4888,0.92 0.115,2.76 0.115,2.76l-0.7762 -2.3c0,0 -0.3163,2.875 -0.3163,2.7456 0,-0.1293 0.1725,-1.4519 -0.4168,-1.6531 -0.5894,-0.2013 -2.5445,0.3162 -2.7314,0.5606 -0.1868,0.2444 0.4169,1.0207 0.4169,1.0207 0,0 -0.9344,-0.5032 -1.2794,-0.4888 -0.345,0.0144 -1.8975,0.3882 -2.2713,0.2732 -0.3737,-0.1151 -1.1356,-0.5607 -1.1356,-0.5607 0,0 0.9632,1.2507 0.8481,1.8257 -0.115,0.575 -0.6038,1.5238 -0.8337,2.3288 -0.23,0.805 0.345,2.9325 0.345,2.9325l-2.9399 -1.0278 0.5248 -5.4913 -4.6796 -4.6577z"/>
   <path class="fil3 str0" d="M41.9925 87.1101c-0.575,0.1725 -0.7045,0.5391 -0.8195,0.4708 -0.1149,-0.0683 0.1869,-0.6217 0.1186,-0.5678 -0.0682,0.0539 -0.654,0.3199 -0.654,0.2516 0,-0.0683 0.2479,-0.115 0.2839,-0.3199 0.0359,-0.2048 0.0862,-0.2551 -0.018,-0.3342 -0.1042,-0.079 -3.1085,-2.0521 -3.6117,-3.619 -0.5031,-1.5669 -0.8625,-3.292 -0.7618,-3.7088 0.1006,-0.4169 -0.2301,-0.3738 -0.2301,-0.3738l1.5382 -2.7026 -0.8481 0.5319 1.6028 -1.5886 -0.7619 0.2516c0,0 1.2291,-0.92 1.416,-0.92 0.1869,0 0.4744,-0.115 0.4744,-0.115l-1.3513 0.0144c0,0 0.6397,-0.4026 0.8409,-0.3522 0.2013,0.0503 0.8051,0.1437 0.8051,0.1437l-0.7763 -0.8625 1.1572 0.5031c0,0 0.5967,-1.7035 0.7692,-1.6603 0.1725,0.0431 -0.1438,1.0494 -0.1438,1.0494l1.9551 -1.8113 -0.6469 0.8625c0,0 2.4294,-0.9058 2.6594,-0.877 0.23,0.0287 0.46,0.3162 1.2938,0.2875 0.8337,-0.0288 1.9839,-0.115 2.7601,0.2587 0.7763,0.3738 1.9805,1.8292 2.153,2.4905 0.1725,0.6613 0.6325,0.9488 0.6037,1.7538 -0.0287,0.805 0.0575,2.4438 -0.3162,2.7313 -0.3738,0.2875 -0.5463,0.7763 -0.575,1.0925 -0.0288,0.3163 -0.3163,0.7188 -0.1582,0.9919 0.1582,0.2731 -0.1437,0.3019 -0.1437,0.3019 0,0 -0.3881,-0.6038 -0.2875,-1.15 0.1006,-0.5463 0.5318,-0.7475 0.2587,-1.4519 -0.2731,-0.7044 -0.0287,-1.5094 -0.2587,-1.6388 -0.23,-0.1294 -1.0782,1.3081 -1.2794,1.5094 -0.2013,0.2012 0.5031,-2.1707 0.3306,-2.3144 -0.1725,-0.1438 -1.0206,2.1994 -1.0206,2.1994l-0.6901 -2.4151 -0.0143 2.3432 -1.6244 -2.1851c0,0 1.4087,2.7601 1.0637,2.5014 -0.345,-0.2588 -2.6882,-2.0701 -2.6882,-2.0701l1.1932 2.3863 -2.3001 -1.3369c0,0 1.0351,1.8257 1.0638,2.1707 0.0288,0.345 0.2157,0.8769 -0.3018,1.4232 -0.5175,0.5462 -0.8338,0.4313 -1.265,1.265 -0.4313,0.8338 -0.6325,1.7538 -0.5463,2.0988 0.0863,0.345 -1.265,-1.1213 -1.8688,-0.9488 -0.6037,0.1725 -0.9703,0.9632 -0.8841,1.1932 0.0863,0.23 0.115,0.5606 0.3379,0.7547 0.2228,0.1941 1.0493,0.8698 1.15,0.8913 0.1006,0.0216 1.0165,0.6004 1.0165,0.6004z"/>
   <path class="fil4 str0" d="M48.6245 71.6671c0,0 0.6756,-0.3162 0.7691,-0.3881 0.0934,-0.0719 -0.3234,-1.646 -0.1653,-2.0773 0.1582,-0.4312 0.46,-1.4087 0.805,-1.5812 0.345,-0.1726 0.8769,0.115 1.1356,0.6468 0.2588,0.5319 0.1725,1.4232 0.3307,1.8544 0.1581,0.4313 0.8337,0.6757 0.9631,1.0494 0.1294,0.3738 0.6038,1.0063 0.4313,1.2651 -0.1725,0.2587 -0.6038,0.46 -1.1069,0.4168 -0.5032,-0.0431 -1.3369,-0.2299 -1.3369,-0.2299l-0.1464 0.3866 -1.6793 -1.3426z"/>
   <path class="fil5 str0" d="M46.7274 81.5068c-0.4025,0.0934 -0.8769,0.7187 -0.6685,1.2938 0.2085,0.575 0.5679,0.8265 0.9129,0.769 0.345,-0.0574 0.9991,-0.4887 0.8338,-1.1069 -0.1654,-0.6181 -0.5176,-1.1356 -1.0782,-0.9559z"/>
   <path class="fil5 str0" d="M49.0864 80.9638c-0.4025,0.0935 -0.8768,0.7188 -0.6684,1.2938 0.2084,0.575 0.5678,0.8265 0.9128,0.7691 0.345,-0.0575 0.7979,-0.4744 0.7224,-1.1465 -0.0755,-0.672 -0.4061,-1.0961 -0.9668,-0.9164z"/>
   <path class="fil6 str0" d="M45.6241 80.2561c0.5463,-0.6613 0.805,-0.6181 1.2507,-0.4744"/>
   <path class="fil6 str0" d="M48.6429 79.6236c0.1869,-0.3882 1.0063,-0.532 1.2219,-0.3163"/>
   <path class="fil6 str0" d="M48.3842 83.1886c0.5319,0.3738 0.9488,0.345 0.805,0.7188 -0.1437,0.3737 -0.6469,0.5175 -0.6469,0.5175"/>
   <path class="fil7 str0" d="M38.2765 93.1503c0,0 2.6164,-2.1563 3.2632,-2.7025 0.6469,-0.5463 1.6819,-1.4232 2.1276,-1.7395 0.4456,-0.3162 0.8337,-0.6899 0.8337,-0.6899 0,0 0.8194,0.4025 1.5238,0.3162 0.7044,-0.0863 0.9056,-0.46 0.9056,-0.46l1.337 -0.1438c0,0 5.7647,-0.9344 5.8941,-1.1788 0.1293,-0.2444 1.4662,2.8607 1.4662,2.8607 0,0 -3.8238,0.7188 -4.3701,0.7619 -0.5462,0.0431 -1.725,0.1294 -1.9982,0.2156 -0.2731,0.0863 0.5895,3.8957 0.647,4.2695 0.0575,0.3737 -1.2363,1.1213 -2.2713,1.1788 -1.035,0.0575 -3.9676,-0.3163 -4.2263,-0.575 -0.2588,-0.2588 0.1725,-2.7889 0.1725,-2.7889 0,0 -3.3064,2.6164 -3.5651,2.8176 -0.2587,0.2012 -0.2587,-0.4312 -0.7762,-0.9775 -0.5176,-0.5463 -0.9635,-1.1644 -0.9635,-1.1644z"/>
   <path class="fil0 str0" d="M54.6411 85.3622l1.0925 1.9406c0,0 1.186,-0.0431 1.2219,-0.0862 0.0359,-0.0431 0.3809,-2.1779 0.3306,-2.1779 -0.0503,0 -2.645,0.3235 -2.645,0.3235z"/>
   <path class="fil8 str0" d="M54.6791 85.8117c0,0 -0.1737,0.5591 -0.3019,0.6684 -0.1281,0.1094 -0.5247,0.4528 -0.7546,0.7691 -0.23,0.3162 -0.9344,2.7168 -0.9056,3.1193 0.0287,0.4026 0.3303,1.4809 0.0357,2.1636 -0.2945,0.6828 -0.6108,0.7115 -0.2658,1.1428 0.3451,0.4312 0.0863,0.69 0.6901,0.805 0.6037,0.115 0.7762,-0.345 1.0637,-0.4313 0.2875,-0.0862 0.5175,0.6614 0.69,0.647 0.1725,-0.0144 0.46,-0.5032 0.6469,-0.5607 0.1869,-0.0575 0.3595,0.6613 0.7116,0.6829 0.3522,0.0215 0.4169,-0.5894 0.6756,-0.6397 0.2588,-0.0504 0.7188,0.6181 0.8482,0.5319 0.1294,-0.0863 0.4313,-0.5248 0.5751,-0.5823 0.1437,-0.0575 0.6613,0.1797 0.7906,0.1078 0.1294,-0.0719 0.2803,-0.0719 0.2732,-0.345 -0.0072,-0.2731 -0.2229,-0.2803 -0.0144,-0.4888 0.2084,-0.2084 0.6325,-0.2228 0.6109,-0.4744 -0.0215,-0.2515 -0.1293,-0.424 -0.2228,-0.5031 -0.0934,-0.079 -0.7619,-0.1438 -0.8913,-0.3019 -0.1293,-0.1581 -0.0861,-1.8328 -0.2873,-2.3503 -0.2013,-0.5176 -0.3949,-1.2132 -0.6145,-1.7386 -0.2197,-0.5254 -0.8948,-2.1427 -0.8948,-2.1427 0,0 -0.1006,0.4599 -0.5463,0.6468 -0.4456,0.1869 -1.0206,0 -1.2219,-0.1437 -0.2013,-0.1438 -0.4871,-0.6137 -0.4871,-0.6137l-0.2033 0.0316z"/>
   <path class="fil9 str0" d="M46.9467 85.2587c-0.036,0.0934 0.4816,0.5534 1.035,0.46 0.5534,-0.0935 0.7762,-0.4098 0.8625,-0.5535 0.0863,-0.1437 -0.309,0.2659 -0.8194,0.1797 -0.5103,-0.0862 -1.0781,-0.0862 -1.0781,-0.0862z"/>
   <ellipse class="fil10 str0" cx="46.8748" cy="82.8184" rx="0.3162" ry="0.327"/>
   <ellipse class="fil10 str0" cx="49.1892" cy="82.3799" rx="0.2731" ry="0.3055"/>
   <path class="fil0 str0" d="M51.6377 84.4318c0,0 1.4232,0.8769 1.9694,1.0638 0.5463,0.1868 2.2425,0.4743 2.5732,0.4168 0.3306,-0.0575 0.8912,-0.0144 1.61,-0.2587 0.7188,-0.2444 3.2489,-1.9263 3.5651,-2.8751 0.3163,-0.9487 0.2876,-2.3432 -0.3737,-3.0907 -0.6613,-0.7475 -0.7402,-0.8122 -0.8552,-1.2507 -0.115,-0.4384 0.1654,-1.0781 -0.0934,-1.6675 -0.2587,-0.5893 -0.5996,-1.6795 -0.7618,-1.8543 -0.1623,-0.1749 -1.5094,-1.2651 -1.5094,-1.2651l-4.0251 0.46 -1.61 0.7475 0.2587 3.1482c0,0 0.257,2.5886 0.3873,2.9546 0.1303,0.3661 0.2165,1.588 0.044,1.5593 -0.1725,-0.0288 -0.1437,-0.3738 -0.6756,-0.5463 -0.5319,-0.1725 -0.575,-0.23 -0.7332,-0.115 -0.1581,0.115 -0.4025,0.2012 -0.5031,0.7475 -0.1006,0.5463 -0.2013,0.9344 0.0719,1.2075 0.2731,0.2731 0.9775,0.7187 0.9775,0.7187l-0.3166 -0.1005z"/>
   <ellipse class="fil11 str0" cx="56.0022" cy="80.3548" rx="0.9542" ry="1.0836"/>
   <ellipse class="fil11 str0" cx="58.9634" cy="79.264" rx="0.7236" ry="0.9703"/>
   <path class="fil6 str0" d="M58.0053 80.4069c0.6326,0.4312 0.3163,0.3953 0.9057,0.6612 0.5894,0.266 0.2588,0.5463 -0.0431,0.7044"/>
   <path class="fil12 str0" d="M56.9021 83.3043c-0.0359,0.0934 0.4816,0.5534 1.035,0.46 0.5535,-0.0935 0.7763,-0.4097 0.8625,-0.5535 0.0863,-0.1437 -0.309,0.2659 -0.8193,0.1797 -0.5104,-0.0862 -1.0782,-0.0862 -1.0782,-0.0862z"/>
   <path class="fil6 str0" d="M54.4261 77.9772c0.23,-0.7044 0.69,-0.9487 1.0063,-0.805"/>
   <path class="fil6 str0" d="M57.6749 76.7553c0,0 0.115,-0.4456 0.5463,-0.6037 0.4313,-0.1581 0.805,0.1869 0.805,0.1869"/>
   <ellipse class="fil10 str0" cx="56.0442" cy="80.7588" rx="0.2731" ry="0.3055"/>
   <ellipse class="fil10 str0" cx="58.9768" cy="79.58" rx="0.2731" ry="0.3055"/>
   <path class="fil13 str0" d="M53.3996 87.3426c0,0 0.7188,-0.0862 1.035,0.2013 0.3163,0.2875 0.4313,0.46 0.4026,0.7188 -0.0288,0.2587 -1.2363,1.7107 -1.1501,2.0413 0.0863,0.3306 0.46,0.7475 1.0063,0.9056 0.5463,0.1581 0.0862,0.3306 -0.1581,0.5894 -0.2444,0.2588 -0.4025,0.8769 -0.4025,0.8769 0,0 -0.8626,-0.0144 -1.3801,-0.1438 -0.5175,-0.1293 -1.1931,-0.3306 -1.4231,-0.9919 -0.23,-0.6612 0.2156,-1.6675 0.5031,-2.0988 0.2875,-0.4312 1.5669,-2.0988 1.5669,-2.0988z"/>
   <path class="fil13 str0" d="M57.2091 86.0633c0,0 0.69,0.5606 0.9488,0.7762 0.2587,0.2157 0.9631,0.4456 0.9631,0.4456 0,0 0.4313,0.3882 0.7763,0.3594 0.345,-0.0287 0.9919,-0.345 0.9919,-0.345 0,0 0.1293,1.5813 -0.1725,1.7826 -0.3019,0.2012 -0.8051,0.3593 -1.2219,0.3306 -0.4169,-0.0287 -1.0782,-0.46 -1.0782,-0.46l-1.2075 -2.8894z"/>
   <path class="fil0 str0" d="M58.9491 86.5159c-0.0934,0 0.0647,0.4456 -0.1509,0.46 -0.2157,0.0144 -0.3666,-0.0431 -0.4097,-0.3234 -0.0432,-0.2804 0.0143,-0.4169 0.1006,-0.5104 0.0863,-0.0934 0.9703,0.0504 0.9703,0.0504 0,0 -0.4671,-0.2875 -0.575,-0.2947 -0.1078,-0.0072 -0.3737,0.1006 -0.4169,0.0143 -0.0431,-0.0862 0.0503,-0.115 0.0719,-0.23 0.0216,-0.115 0,-0.1509 0.1653,-0.2228 0.1654,-0.0719 1.0207,0.2156 0.9632,0.1653 -0.0575,-0.0503 -0.8913,-0.23 -0.8338,-0.345 0.0575,-0.115 -0.0017,-0.2404 0.1932,-0.3106 0.195,-0.0703 0.4969,-0.0704 0.655,-0.0057 0.1581,0.0648 0.424,0.3882 0.424,0.3882 0,0 -0.7165,-0.6276 -0.6067,-0.7071 0.1099,-0.0795 0.348,-0.1842 0.4845,-0.062 0.1366,0.1222 0.7619,0.69 0.9416,1.0063 0.1797,0.3162 0.1941,0.5319 0.1797,0.7978 -0.0144,0.266 0.0006,0.4671 -0.1078,0.69 -0.1084,0.223 -0.1084,0.223 -0.1084,0.223 -0.3111,0.2723 -0.7142,0.3762 -1.0951,0.3423 -0.2611,-0.0233 -0.5209,-0.2484 -0.6117,-0.4944l-0.2333 -0.6315z"/>
   <path class="fil0 str0" d="M55.007 91.4897c0,0 0.6109,-0.115 0.8697,-0.1222 0.2587,-0.0072 0.575,0.0862 0.7906,0.0072 0.2157,-0.0791 0.5103,-0.266 0.6613,-0.1438 0.1509,0.1222 -0.1941,0.4026 -0.1941,0.4026 0,0 0.2803,0.0575 0.4313,0.2228 0.1509,0.1653 0.5462,0.3378 0.4097,0.5103 -0.1366,0.1725 -0.496,-0.0719 -0.6757,-0.1725 -0.1797,-0.1006 -0.079,0.0215 0.0647,0.1797 0.1438,0.1581 0.5535,0.4959 0.4169,0.6181 -0.1365,0.1222 -1.4088,-0.6684 -1.4088,-0.6684 0,0 0.9129,0.7834 0.8626,0.92 -0.0503,0.1365 -0.7547,-0.6325 -0.9776,-0.6253 -0.2228,0.0071 0.3163,0.2587 0.381,0.5103 0.0647,0.2515 0.0791,0.3953 -0.0288,0.4241 -0.1078,0.0287 -0.3737,-0.4529 -0.6181,-0.3954 -0.2444,0.0575 -0.6038,0.0576 -0.8482,0.0504 -0.2444,-0.0072 -0.5534,-0.0001 -0.7403,-0.2373 -0.1869,-0.2371 -0.2875,-0.4025 -0.2875,-0.4025l0.8913 -1.0781z"/>
   <path class="fil14 str0" d="M43.4088 95.2635l-0.7996 3.3023 4.3269 0.1285 0.3306 -0.4879 0.4888 0.4879 2.1851 0c0,0 -0.0371,-3.9117 -0.1035,-3.8312 -0.0665,0.0805 -6.4283,0.4004 -6.4283,0.4004z"/>
   <path class="fil0 str0" d="M38.2765 93.1503c0,0 -0.1668,0.3554 -0.5693,0.3698 -0.4025,0.0143 -1.035,0.0287 -1.1069,0.2299 -0.0718,0.2013 0.6613,0.5894 0.6613,0.5894 0,0 -1.0063,0.9775 -0.8481,1.1069 0.1581,0.1294 1.0063,-0.4456 1.0063,-0.4456 0,0 -0.8338,0.7906 -0.5894,0.9344 0.2443,0.1438 1.0781,-0.5463 1.0781,-0.5463 0,0 -0.7619,0.8195 -0.575,0.9201 0.1869,0.1006 1.0925,-0.6469 1.0925,-0.6469 0,0 -0.7043,0.69 -0.5031,0.7618 0.2012,0.0719 1.9521,-1.1099 1.9521,-1.1099l-1.5985 -2.1636z"/>
  </g>
 </g>
</svg>
