<?xml version="1.0" encoding="UTF-8"?>
<!DOCTYPE svg PUBLIC "-//W3C//DTD SVG 1.1//EN" "http://www.w3.org/Graphics/SVG/1.1/DTD/svg11.dtd">
<!-- Creator: CorelDRAW 2019 (64-Bit) -->
<svg xmlns="http://www.w3.org/2000/svg" xml:space="preserve" width="100mm" height="100mm" version="1.1" style="shape-rendering:geometricPrecision; text-rendering:geometricPrecision; image-rendering:optimizeQuality; fill-rule:evenodd; clip-rule:evenodd"
viewBox="0 0 100 100"
 xmlns:xlink="http://www.w3.org/1999/xlink"
 xmlns:xodm="http://www.corel.com/coreldraw/odm/2003">
 <defs>
  <style type="text/css">
   <![CDATA[
    .str3 {stroke:#FFED00;stroke-width:0.0589;stroke-miterlimit:22.9256}
    .str1 {stroke:#2B2A29;stroke-width:0.0942;stroke-miterlimit:22.9256}
    .str0 {stroke:#2B2A29;stroke-width:0.2;stroke-miterlimit:22.9256}
    .str2 {stroke:#2B2A29;stroke-width:0.2;stroke-miterlimit:22.9256}
    .str4 {stroke:#96FFFF;stroke-width:0.2;stroke-miterlimit:22.9256}
    .fil4 {fill:none}
    .fil2 {fill:#FEFEFE}
    .fil11 {fill:#727271}
    .fil1 {fill:#FFFBDB}
    .fil0 {fill:#A75F4A}
    .fil13 {fill:#393185}
    .fil14 {fill:#1C1B17}
    .fil7 {fill:#00A0E3}
    .fil9 {fill:#020202}
    .fil5 {fill:#7EDDFC}
    .fil15 {fill:#96FFFF}
    .fil3 {fill:#A75F4A}
    .fil12 {fill:#C3EAF7}
    .fil6 {fill:#FD02FF}
    .fil8 {fill:#FEFEFE}
    .fil10 {fill:#FFED00}
   ]]>
  </style>
 </defs>
 <g id="Layer_x0020_1">
  <metadata id="CorelCorpID_0Corel-Layer"/>
  <g id="_2565052641952">
   <path class="fil0 str0" d="M89.3445 11.179c0,0 0.5745,0.0338 0.6083,0 0.0338,-0.0338 -0.5829,-0.3211 -0.7857,-0.7604 -0.2027,-0.4393 -0.5322,-1.1744 -0.5322,-1.1744 0,0 -0.2194,-0.1141 -0.4563,0.7942 -0.2369,0.9083 0.5402,1.9759 0.6252,2.07 0.0317,-0.0232 0.0169,-0.6759 0.0169,-0.6759 0,0 0.4309,0.6136 0.7361,0.8544 0.3053,0.2408 1.0805,0.5397 1.41,0.6833 0.3295,0.1436 0.7773,0.659 0.7773,0.659 0,0 0.5048,-0.5133 0.8005,-0.6147 0.2957,-0.1013 1.261,-0.6146 1.468,-0.716 0.207,-0.1014 0.7013,-0.8998 0.7013,-0.8998l0 0.6505c0,0 0.8491,-0.7688 0.7393,-1.6475 -0.1099,-0.8787 -0.5661,-1.1744 -0.5661,-1.1744 0,0 -0.1605,0.4985 -0.3971,0.9801 -0.2366,0.4816 -0.8703,0.9801 -0.8703,0.9801l0.5915 0c0,0 -0.507,0.4478 -0.9674,0.6928 -0.4605,0.245 -0.9505,0.245 -0.9505,0.245l-0.0381 -4.6934 1.5884 -0.1732c0,0 0.1225,0.2197 0.3549,0.2112 0.2323,-0.0084 0.3591,-0.2323 0.3633,-0.3717 0.0042,-0.1394 -0.1352,-0.376 -0.3042,-0.376 -0.169,0 -0.4097,0.2197 -0.4097,0.2197l-1.6159 -0.0951c0,0 -0.0423,-0.6843 -0.0127,-0.7012 0.0296,-0.0169 0.5112,-0.2831 0.5196,-0.7773 0.0085,-0.4943 -0.4225,-0.8795 -0.9421,-0.9252 -0.5196,-0.0457 -0.9547,0.3506 -0.9463,0.8787 0.0085,0.528 0.4309,0.8238 0.4521,0.8533 0.0211,0.0296 0.0253,0.6422 0.0253,0.6422l-1.6053 0.1351c0,0 -0.0887,-0.2429 -0.3379,-0.2386 -0.2493,0.0042 -0.4267,0.1943 -0.4183,0.3886 0.0085,0.1943 0.2113,0.3633 0.3929,0.3675 0.1817,0.0043 0.3295,-0.207 0.3295,-0.207l1.6011 0.1479 0.0043 4.6554c0,0 -0.5957,-0.0507 -1.0646,-0.2239 -0.4689,-0.1732 -0.8851,-0.6633 -0.8851,-0.6633z"/>
   <circle class="fil1 str0" cx="91.7599" cy="5.3587" r="0.3295"/>
  </g>
  <g id="_2565384368624">
   <ellipse class="fil0 str0" cx="10.0136" cy="10.3524" rx="6.2039" ry="6.1111"/>
   <path class="fil0 str0" d="M9.3235 4.2095l0.0265 -0.3447c0,0 0.285,-0.232 0.2651,-0.4176 -0.0198,-0.1856 -0.7092,-2.3927 0.3712,-2.3065 1.0804,0.0861 0.3513,1.995 0.3778,2.2204 0.0265,0.2253 0.2121,0.4971 0.2121,0.4971l0.0017 0.3297 -1.2544 0.0216z"/>
   <path class="fil0 str0" d="M13.8288 5.6222l0.2512 -0.2375c0,0 0.367,0.0196 0.4769,-0.1312 0.11,-0.1509 1.082,-2.2489 1.8245,-1.4593 0.7424,0.7896 -1.08,1.7139 -1.2118,1.8986 -0.1317,0.1847 -0.1768,0.5107 -0.1768,0.5107l-0.2203 0.2454 -0.9437 -0.8267z"/>
   <path class="fil0 str0" d="M16.1088 9.7822l0.344 0.0331c0,0 0.2265,0.2894 0.4124,0.2731 0.186,-0.0163 2.4059,-0.6631 2.2991,0.4154 -0.1069,1.0786 -2.0015,0.3129 -2.2273,0.3351 -0.2258,0.0222 -0.5011,0.2025 -0.5011,0.2025l-0.3297 -0.0047 0.0026 -1.2545z"/>
   <path class="fil0 str0" d="M14.7559 14.2867l0.2191 0.2675c0,0 -0.0457,0.3646 0.0969,0.485 0.1427,0.1204 2.1662,1.2392 1.3258,1.9236 -0.8404,0.6844 -1.6327,-1.1991 -1.8076,-1.3437 -0.1749,-0.1446 -0.4968,-0.2127 -0.4968,-0.2127l-0.2291 -0.2372 0.8917 -0.8825z"/>
   <path class="fil0 str0" d="M10.6366 16.4849l-0.0205 0.3451c0,0 -0.281,0.2369 -0.2579,0.4221 0.0231,0.1852 0.7505,2.3801 -0.3312,2.3127 -1.0817,-0.0675 -0.3858,-1.9887 -0.4162,-2.2136 -0.0304,-0.2248 -0.2206,-0.4934 -0.2206,-0.4934l-0.0074 -0.3296 1.2538 -0.0433z"/>
   <path class="fil0 str0" d="M6.1093 15.178l-0.2688 0.2174c0,0 -0.3643,-0.0479 -0.4856,0.094 -0.1213,0.1418 -1.2526,2.1584 -1.9318,1.3138 -0.6792,-0.8446 1.2092,-1.6252 1.3549,-1.7992 0.1456,-0.174 0.2157,-0.4955 0.2157,-0.4955l0.2386 -0.2277 0.877 0.8972z"/>
   <path class="fil0 str0" d="M3.8281 11.027l-0.3446 -0.0277c0,0 -0.231,-0.2858 -0.4167,-0.2665 -0.1856,0.0193 -2.395,0.7013 -2.3053,-0.3788 0.0897,-1.0801 1.9962,-0.3447 2.2217,-0.3705 0.2254,-0.0257 0.4978,-0.2104 0.4978,-0.2104l0.3297 -0.0006 0.0174 1.2545z"/>
   <path class="fil0 str0" d="M5.2508 6.4962l-0.2284 -0.2595c0,0 0.0328,-0.3661 -0.114,-0.4813 -0.1468,-0.1153 -2.2087,-1.1619 -1.393,-1.8756 0.8157,-0.7137 1.6741,1.1407 1.854,1.279 0.1799,0.1383 0.504,0.195 0.504,0.195l0.2374 0.2289 -0.86 0.9135z"/>
   <ellipse class="fil2 str0" cx="10.0467" cy="10.3215" rx="4.3659" ry="4.1749"/>
   <path class="fil0 str0" d="M7.3124 13.789l0.1628 -0.1462c0,0 0.0319,-0.3603 0.0903,-0.4527 0.0584,-0.0924 1.5912,-1.4912 1.5912,-1.4912l-0.4965 -0.6257c0,0 -1.5831,1.5477 -1.6256,1.5607 -0.0425,0.0131 -0.4858,0.1247 -0.4858,0.1247l-0.1514 0.1346 0.915 0.8958z"/>
   <path class="fil0 str0" d="M10.5994 14.6706l0.0057 -0.2187c0,0 -0.2398,-0.2707 -0.2668,-0.3767 -0.027,-0.1059 0.0104,-2.1807 0.0104,-2.1807l-0.7957 -0.0694c0,0 0.0361,2.2136 0.0164,2.2535 -0.0197,0.0398 -0.2433,0.4385 -0.2433,0.4385l-0.0063 0.2025 1.2796 -0.049z"/>
   <path class="fil0 str0" d="M9.3336 6.0918l-0.0066 0.2188c0,0 0.2386,0.2717 0.2651,0.3778 0.0266,0.106 -0.0198,2.1806 -0.0198,2.1806l0.7953 0.0729c0,0 -0.0265,-2.2138 -0.0066,-2.2535 0.0199,-0.0398 0.2453,-0.4375 0.2453,-0.4375l0.0071 -0.2025 -1.2798 0.0434z"/>
   <path class="fil0 str0" d="M12.6588 6.8864l-0.162 0.1471c0,0 -0.0298,0.3604 -0.0877,0.4531 -0.0579,0.0927 -1.5831,1.4999 -1.5831,1.4999l0.4999 0.623c0,0 1.5746,-1.5563 1.6171,-1.5696 0.0424,-0.0133 0.485,-0.1273 0.485,-0.1273l0.1507 -0.1355 -0.9199 -0.8907z"/>
   <path class="fil0 str0" d="M6.4169 7.8509l0.1508 0.1585c0,0 0.361,0.0215 0.4551,0.0772 0.094,0.0557 1.5364,1.5476 1.5364,1.5476l0.6111 -0.5142c0,0 -1.5926,-1.5379 -1.6069,-1.58 -0.0143,-0.0421 -0.1385,-0.482 -0.1385,-0.482l-0.139 -0.1475 -0.869 0.9404z"/>
   <path class="fil0 str0" d="M5.6276 11.0348l0.2187 0.0077c0,0 0.2729,-0.2374 0.379,-0.2634 0.1062,-0.026 2.1806,0.0303 2.1806,0.0303l0.0767 -0.795c0,0 -2.2139,0.016 -2.2536,-0.0041 -0.0397,-0.0201 -0.4363,-0.2473 -0.4363,-0.2473l-0.2024 -0.0082 0.0373 1.28z"/>
   <path class="fil0 str0" d="M13.4302 12.9442l-0.1511 -0.1583c0,0 -0.3611,-0.0207 -0.4553,-0.0762 -0.0941,-0.0555 -1.5396,-1.5444 -1.5396,-1.5444l-0.6101 0.5155c0,0 1.5958,1.5346 1.6102,1.5767 0.0144,0.0421 0.1396,0.4817 0.1396,0.4817l0.1392 0.1472 0.8671 -0.9422z"/>
   <path class="fil0 str0" d="M14.3759 9.8025l-0.2187 -0.0088c0,0 -0.2742,0.2358 -0.3805,0.2613 -0.1063,0.0254 -2.1803,-0.0421 -2.1803,-0.0421l-0.081 0.7946c0,0 2.214,-0.004 2.2535,0.0163 0.0396,0.0203 0.435,0.2496 0.435,0.2496l0.2024 0.0092 -0.0304 -1.2801z"/>
   <ellipse class="fil0 str0" cx="10.0077" cy="10.4051" rx="1.5751" ry="1.5659"/>
   <ellipse class="fil1 str0" cx="9.9604" cy="10.4366" rx="0.6993" ry="0.7225"/>
  </g>
 </g>
 <g id="Layer_x0020_1_0">
  <metadata id="CorelCorpID_1Corel-Layer"/>
  <g id="_2565186446512">
   <path class="fil3 str1" d="M17.2333 87.7877c0,0 1.4956,2.8054 2.4445,3.1217 0.9487,0.3162 3.1891,0.5798 4.3751,0.6326 1.1861,0.0526 3.4527,0.1316 4.2434,-0.0528 0.7906,-0.1844 2.2403,-0.8434 2.6884,-1.0543 0.448,-0.2108 1.5813,-3.1364 1.5813,-3.1364l0.5798 -2.7146c0,0 -4.3882,1.2651 -4.5069,1.331 -0.1185,0.0659 -0.2372,1.2782 -0.4085,1.3177 -0.1713,0.0397 -2.1546,0.3097 -3.9336,0.3031 -1.7792,-0.0065 -7.1427,-0.705 -7.1427,-0.705 0,0 -5.0868,-2.7015 -5.324,-2.5961 -0.2372,0.1054 4.9813,3.2418 5.1658,3.4 0.1846,0.1581 0.2374,0.1531 0.2374,0.1531z"/>
   <ellipse class="fil4 str1" cx="29.6913" cy="86.9377" rx="0.2834" ry="0.3295"/>
   <ellipse class="fil4 str1" cx="31.0949" cy="86.5029" rx="0.2636" ry="0.3295"/>
   <ellipse class="fil4 str1" cx="32.3533" cy="86.2393" rx="0.2834" ry="0.3426"/>
   <polygon class="fil3 str1" points="19.208,87.2672 18.7995,69.7928 19.2541,69.806 19.6758,87.3331 "/>
   <path class="fil5 str1" d="M16.3089 75.2486l5.4294 -1.0147c0,0 -1.1465,0 -1.6869,3.0046 -0.5401,3.0046 1.8583,3.8481 1.7001,4.0063 -0.1581,0.158 -2.3651,-0.8543 -3.8146,-0.6302 -1.4496,0.2241 -1.3512,1.21 -1.3512,1.21 0,0 -1.3442,-1.9241 -1.331,-3.2154 0.0131,-1.2915 1.0542,-3.3606 1.0542,-3.3606z"/>
   <polygon class="fil3 str1" points="25.573,67.9874 26.1528,68.0005 25.8233,88.005 25.283,88.0446 "/>
   <path class="fil6 str1" d="M14.3319 70.4648c0,0 1.2651,0.7117 2.003,0.4613 0.738,-0.2505 1.3573,-0.5798 1.7132,-0.659 0.3558,-0.079 0.762,-0.0177 0.762,-0.0177l0.042 1.7972c0,0 -0.3033,-0.3826 -0.7644,-0.3298 -0.4614,0.0526 -0.3822,0.784 -1.621,0.883 -1.2387,0.0987 -2.2007,-1.0807 -2.2007,-1.0807l1.6208 0.2503 -1.5549 -1.3046z"/>
   <path class="fil5 str1" d="M22.5818 74.4052l5.4294 -1.0146c0,0 -1.1466,0 -1.6869,3.0046 -0.5403,3.0046 1.8582,3.8479 1.7,4.0061 -0.1582,0.1582 -2.365,-0.8541 -3.8146,-0.6301 -1.4496,0.2241 -1.3512,1.21 -1.3512,1.21 0,0 -1.3443,-1.924 -1.331,-3.2155 0.0131,-1.2915 1.0543,-3.3605 1.0543,-3.3605z"/>
   <path class="fil5 str1" d="M22.5264 80.9668l5.8966 -0.3087c0,0 -1.7189,-0.1318 -2.2061,2.5772 -0.4871,2.7089 1.3591,2.9949 1.2165,3.1375 -0.1426,0.1424 -2.1323,-0.7702 -3.4393,-0.5681 -1.3067,0.2018 -1.2181,1.0908 -1.2181,1.0908 0,0 -1.2119,-1.7346 -1.2,-2.899 0.0119,-1.1644 0.9504,-3.0297 0.9504,-3.0297z"/>
   <path class="fil5 str1" d="M17.1388 81.8376l4.6026 -0.8601c0,0 -0.9718,0 -1.4299,2.547 -0.4579,2.547 1.5752,3.2621 1.4412,3.3962 -0.1341,0.1339 -2.005,-0.7242 -3.2338,-0.5342 -1.2289,0.1899 -1.1455,1.0256 -1.1455,1.0256 0,0 -1.1395,-1.6309 -1.1282,-2.7258 0.0111,-1.0948 0.8936,-2.8487 0.8936,-2.8487z"/>
   <path class="fil6 str1" d="M20.921 68.5672c0,0 1.2651,0.7115 2.003,0.4612 0.738,-0.2503 1.3574,-0.5798 1.7133,-0.6589 0.3557,-0.0791 0.7619,-0.0179 0.7619,-0.0179l0.042 1.7973c0,0 -0.3033,-0.3825 -0.7644,-0.3298 -0.4613,0.0528 -0.3822,0.7842 -1.621,0.8829 -1.2387,0.0988 -2.2007,-1.0806 -2.2007,-1.0806l1.6208 0.2505 -1.5549 -1.3047z"/>
  </g>
  <g id="_2565186464144">
   <path class="fil7 str2" d="M83.587 86.1288c0,0 -0.1454,1.2669 -1.0385,1.7862 -0.8931,0.5192 -8.4119,0.6439 -8.4119,0.6439 -1.3236,-2.9433 -1.2534,-9.7767 2.3263,-10.6343 1.9939,-0.4777 3.967,-0.5608 4.7148,-0.4985 0.7477,0.0623 2.5547,0.6439 3.3232,1.267 0.7685,0.6231 2.0147,2.5547 2.6793,3.3647 0.6647,0.81 1.7862,1.5578 2.804,1.4955 1.0177,-0.0623 1.9108,-0.7893 2.0354,-1.4955 0.1247,-0.7062 -0.2284,-1.807 -0.3946,-1.8693 -0.1661,-0.0623 -0.27,0.4985 -1.0177,0.6023 -0.7477,0.1039 -1.807,-0.7477 -1.8693,-1.2046 -0.0623,-0.457 0.7477,-1.0385 1.537,-1.2047 0.7892,-0.1662 1.7446,0.3116 1.7446,0.3116 0.153,-0.8159 1.085,-0.8589 1.6409,-0.9347 0.4569,-0.0623 0.7477,-0.3323 0.9346,-0.3323 0.187,0 -0.1454,0.8516 -0.6854,1.4747 -0.54,0.6231 -1.5162,1.2046 -1.5162,1.2046 0,0 0.7685,1.2462 0.8308,2.077 0.25,3.3335 -1.011,6.4072 -4.4656,7.3942 -0.5815,0.1661 -4.694,2.2639 -5.6079,2.4509 -0.9139,0.1869 -4.8602,0.2907 -6.0441,-0.1662 -1.1839,-0.4569 -1.9524,-0.4777 -2.5339,-1.807 -0.5816,-1.3293 -0.0208,-0.54 -0.0208,-0.54 1.8534,-0.0887 6.3683,0.2415 7.5707,-0.54 0.6231,-0.4051 0.9347,-0.3947 1.2254,-0.9139 0.2908,-0.5193 0.457,-1.1528 0.457,-1.3916 0,-0.2389 -0.2181,-0.54 -0.2181,-0.54z"/>
   <ellipse class="fil8 str2" cx="84.1737" cy="84.6941" rx="0.7529" ry="0.6454"/>
   <ellipse class="fil9 str2" cx="84.2383" cy="84.6726" rx="0.2151" ry="0.1828"/>
   <path class="fil4 str2" d="M83.6144 83.6078c0.312,-0.484 0.8067,-0.3765 1.0326,-0.0538"/>
   <path class="fil7 str2" d="M86.0846 89.3325c0,0 0.8827,2.4821 1.6616,2.1497 0.7789,-0.3323 0.0727,-2.1704 0.0727,-2.1704l-1.7343 0.0207z"/>
  </g>
  <g id="_2565186462384">
   <path class="fil10 str3" d="M29.3172 88.4968c0,0 0.1119,0.0066 0.1184,0 0.0066,-0.0067 -0.1135,-0.0625 -0.153,-0.1482 -0.0395,-0.0855 -0.1037,-0.2287 -0.1037,-0.2287 0,0 -0.0427,-0.0223 -0.0889,0.1546 -0.0461,0.177 0.1053,0.3849 0.1218,0.4033 0.0062,-0.0046 0.0034,-0.1316 0.0034,-0.1316 0,0 0.0838,0.1194 0.1434,0.1663 0.0594,0.0469 0.2103,0.1051 0.2745,0.1331 0.0642,0.0281 0.1514,0.1284 0.1514,0.1284 0,0 0.0984,-0.1 0.1559,-0.1198 0.0576,-0.0197 0.2457,-0.1196 0.286,-0.1394 0.0403,-0.0197 0.1366,-0.1753 0.1366,-0.1753l0 0.1267c0,0 0.1653,-0.1497 0.144,-0.3208 -0.0215,-0.1712 -0.1104,-0.2288 -0.1104,-0.2288 0,0 -0.0311,0.0971 -0.0773,0.1909 -0.046,0.0937 -0.1694,0.191 -0.1694,0.191l0.1151 0c0,0 -0.0986,0.0872 -0.1883,0.1349 -0.0898,0.0476 -0.1852,0.0476 -0.1852,0.0476l-0.0074 -0.9141 0.3094 -0.0338c0,0 0.0238,0.0429 0.069,0.0412 0.0454,-0.0017 0.0701,-0.0452 0.0709,-0.0724 0.0007,-0.0271 -0.0264,-0.0733 -0.0593,-0.0733 -0.0329,0 -0.0798,0.0429 -0.0798,0.0429l-0.3147 -0.0185c0,0 -0.0083,-0.1333 -0.0025,-0.1366 0.0058,-0.0034 0.0996,-0.0552 0.1011,-0.1514 0.0017,-0.0963 -0.0822,-0.1713 -0.1835,-0.1803 -0.1011,-0.0089 -0.1858,0.0684 -0.1842,0.1712 0.0016,0.1028 0.0839,0.1605 0.0881,0.1662 0.004,0.0057 0.0049,0.125 0.0049,0.125l-0.3127 0.0264c0,0 -0.0173,-0.0474 -0.0659,-0.0464 -0.0484,0.0007 -0.083,0.0378 -0.0815,0.0756 0.0017,0.0378 0.0412,0.0708 0.0766,0.0716 0.0355,0.0008 0.0642,-0.0403 0.0642,-0.0403l0.3119 0.0287 0.0008 0.9068c0,0 -0.1161,-0.0099 -0.2073,-0.0436 -0.0914,-0.0338 -0.1724,-0.1291 -0.1724,-0.1291z"/>
   <circle class="fil10 str3" cx="29.7876" cy="87.3632" r="0.0642"/>
  </g>
  <path class="fil11 str0" d="M83.373 78.3178c0,0 -1.4599,-0.2707 -2.7128,-0.2707 -1.2529,0 -2.7394,0.2973 -3.7375,0.1911 -0.9981,-0.1062 -1.5926,-0.0212 -1.9961,-0.7857 -0.4035,-0.7645 -0.1487,-1.529 0.361,-1.6989 0.5096,-0.1698 3.5251,-1.0193 3.5251,-1.0193l4.5603 3.5835z"/>
  <path class="fil12 str0" d="M83.2509 79.1009c0.6159,-0.1911 1.2529,-0.3398 1.3379,-0.9131 0.0849,-0.5734 0.6583,-1.083 -0.361,-1.8263 -1.0194,-0.7432 -1.9537,-0.9662 -2.4528,-1.6458 -0.499,-0.6795 -1.0405,-2.166 -1.9536,-2.5695 -0.9132,-0.4034 -2.1023,-0.8069 -2.8881,-0.4884 -0.7857,0.3186 -1.5502,1.6352 -1.4015,2.0811 0.1486,0.446 0.8919,1.3379 0.6371,1.6776 -0.2549,0.3398 2.166,0.4672 3.0154,0.8707 0.8494,0.4035 4.0666,2.8137 4.0666,2.8137z"/>
  <path class="fil13 str0" d="M83.3146 78.8992c0,0 -1.2422,-2.251 -4.2152,-3.3446 -2.973,-1.0937 -2.937,-0.5923 -2.937,-0.5923l0.0817 0.6083c0.0142,0.1058 0.2147,0.032 1.887,0.419 2.9328,1.6426 2.9554,1.4898 3.5607,1.9676 0.6052,0.4778 1.5591,1.1437 1.5591,1.1437l0.0637 -0.2017z"/>
  <path class="fil14 str0" d="M77.8067 74.1504c0,0 0.0398,-0.1991 0.1327,-0.2416 0.0929,-0.0425 0.276,-0.077 0.4247,-0.1168 0.1486,-0.0398 0.3451,-0.353 0.3451,-0.353l0.1486 0.0079 -0.1991 -0.3902 -0.1964 0.3371 0.1062 0.0425c0,0 -0.0664,0.1327 -0.1965,0.2018 -0.13,0.069 -0.3158,-0.0027 -0.3928,-0.0717 -0.077,-0.069 -0.0504,-0.6371 -0.0504,-0.6371l0.4247 0 0.0132 -0.1593 -0.4379 0.0133c0,0 -0.0292,-0.0955 0.0132,-0.1354 0.0425,-0.0398 0.1885,-0.0849 0.146,-0.2203 -0.0424,-0.1354 -0.0982,-0.2468 -0.2415,-0.2283 -0.1434,0.0186 -0.223,0.1248 -0.2018,0.2097 0.0213,0.085 0.1566,0.1434 0.1513,0.1938 -0.0053,0.0505 -0.0212,0.1593 -0.0212,0.1593l-0.43 -0.069 0.0212 0.1645 0.3902 0.0505c0,0 0.0239,0.4884 -0.0478,0.5707 -0.0716,0.0823 -0.1698,0.1247 -0.2574,0.1062 -0.0876,-0.0186 -0.1699,-0.069 -0.2257,-0.1513 -0.0557,-0.0823 -0.0716,-0.1938 -0.0716,-0.1938l0.1566 0.0186 -0.2124 -0.4088c0,0 -0.2548,0.4088 -0.2203,0.4008 0.0345,-0.008 0.1327,0.0265 0.1327,0.0265 0,0 -0.0079,0.2363 0.1195,0.3584 0.1274,0.1221 0.4592,0.1858 0.5017,0.2495 0.0424,0.0637 0.0079,0.2177 0.0079,0.2177l0.1673 0.0478z"/>
  <path class="fil15 str4" d="M0.4596 91.001c5.424,-2.6459 2.5136,-3.8364 8.4667,-1.7198 5.9531,2.1166 4.8948,3.4396 14.0229,1.3229 9.1281,-2.1167 8.7313,-1.0583 14.949,0 6.2177,1.0583 1.3229,1.9843 11.1125,0.6614 9.7896,-1.3229 8.3344,-2.2489 13.2292,-0.3968 4.8948,1.8521 9.9129,2.1717 16.4237,1.2581 6.5108,-0.9136 7.7857,-1.655 12.5482,-0.3321 4.7625,1.3229 8.7312,0.2646 8.7312,0.2646l0.0003 7.9045 -100.046 0.0328c0,0 -0.3968,-9.1281 0.5623,-8.9956z"/>
 </g>
</svg>
