<?xml version="1.0" encoding="UTF-8" standalone="no"?>
<!-- Created with Inkscape (http://www.inkscape.org/) -->

<svg
   width="60"
   height="60"
   viewBox="0 0 15.875 15.875"
   version="1.1"
   id="svg343"
   inkscape:version="1.1 (c68e22c387, 2021-05-23)"
   sodipodi:docname="log_rus.svg"
   xmlns:inkscape="http://www.inkscape.org/namespaces/inkscape"
   xmlns:sodipodi="http://sodipodi.sourceforge.net/DTD/sodipodi-0.dtd"
   xmlns="http://www.w3.org/2000/svg"
   xmlns:svg="http://www.w3.org/2000/svg">
  <sodipodi:namedview
     id="namedview345"
     pagecolor="#ffffff"
     bordercolor="#666666"
     borderopacity="1.0"
     inkscape:pageshadow="2"
     inkscape:pageopacity="0.0"
     inkscape:pagecheckerboard="0"
     inkscape:document-units="mm"
     showgrid="false"
     width="10mm"
     inkscape:zoom="11.313708"
     inkscape:cx="42.912545"
     inkscape:cy="24.704544"
     inkscape:window-width="1920"
     inkscape:window-height="1001"
     inkscape:window-x="-9"
     inkscape:window-y="-9"
     inkscape:window-maximized="1"
     inkscape:current-layer="layer1"
     units="px" />
  <defs
     id="defs340">
    <rect
       x="750"
       y="390"
       width="400"
       height="110"
       id="rect222970-9-8" />
    <rect
       x="750"
       y="390"
       width="400"
       height="110"
       id="rect222970-9-6-4" />
    <rect
       x="750"
       y="390"
       width="400"
       height="110"
       id="rect222970-9-6-6-2" />
  </defs>
  <g
     inkscape:label="Layer 1"
     inkscape:groupmode="layer"
     id="layer1">
    <ellipse
       style="fill:#b8d9ec;fill-opacity:1;stroke:none;stroke-width:0.0092143"
       id="path229042-2"
       cx="7.9563918"
       cy="7.9041467"
       rx="7.9242959"
       ry="7.7400107" />
    <path
       style="fill:#cc9408;stroke:none;stroke-width:0.0092143px;stroke-linecap:butt;stroke-linejoin:miter;stroke-opacity:1"
       d="m 1.3544617,8.5740645 c 0,0 0.050339,2.1964405 0.8719787,3.3873155 0.9839734,1.426102 2.248668,1.939061 3.3873141,2.247024 1.7072576,0.461753 2.2947235,0.497449 2.2947235,0.497449 0,0 -0.099539,-1.555734 -0.3663041,-2.056951 C 7.2575642,12.11415 6.9888001,11.877531 6.4689687,11.558926 5.9491305,11.240315 3.3667237,9.8652689 3.3667237,9.8652689 c 0,0 -0.067072,0 0.083849,0.4359891 0.1509203,0.43599 1.5259659,1.089977 1.7607284,1.291204 0.2347624,0.201226 0.5152507,0.329261 0.3923794,0.490378 -0.074156,0.09724 -0.4152649,0.09781 -0.6539872,0 C 4.4958068,11.896871 4.0855047,11.659099 3.4606468,11.058091 2.8621877,10.482472 2.4766086,9.9631129 2.2264404,9.5298923 1.9029893,8.9697502 1.8518996,8.7577767 1.7453787,8.7029865 1.582301,8.6191114 1.3654742,8.3868523 1.3544617,8.5740645 Z"
       id="path151-8-4"
       sodipodi:nodetypes="csscsscsssssssc" />
    <path
       style="fill:#dd9090;stroke:none;stroke-width:0.0092143px;stroke-linecap:butt;stroke-linejoin:miter;stroke-opacity:1"
       d="m 7.9563389,10.953149 c 0,0 -0.3495071,-0.06854 -0.8909108,-0.75385 C 6.5240247,9.5139763 6.058013,8.3832036 5.8729748,7.9034814 5.6879369,7.4237591 5.3864006,5.8543832 5.3864006,5.8543832 c 0,0 -0.047945,2.1381872 -0.3632176,2.5973537 C 4.7079361,8.9108971 4.4338082,8.9588746 4.0842947,9.013697 3.7347811,9.0685034 3.5086306,8.9588906 3.152265,8.8423699 2.7958994,8.7258616 2.0146346,8.2324321 2.0146346,8.2324321 c 0,0 1.1444825,1.5419679 2.4740032,2.0696599 1.3295141,0.527694 2.0422454,0.657909 2.4945525,0.671613 0.4523075,0.01372 0.9731486,-0.02058 0.9731486,-0.02058 z"
       id="path2506-0-8" />
    <path
       style="fill:#dd9090;fill-opacity:1;stroke:none;stroke-width:0.0092143px;stroke-linecap:butt;stroke-linejoin:miter;stroke-opacity:1"
       d="M 3.7396532,7.0264163 C 4.071477,6.9033347 4.5313547,7.1116334 4.6610782,7.2548704 5.1217969,7.7635608 4.8453656,8.4085603 4.476797,8.592848 4.108222,8.7771294 3.7160366,8.5960726 3.4700741,8.340027 3.2398344,8.1005224 3.0946469,7.3028416 3.7396532,7.0264163 Z"
       id="path66397-2-4"
       sodipodi:nodetypes="csssc" />
    <path
       style="fill:#6888d1;fill-opacity:1;stroke:none;stroke-width:0.0092143px;stroke-linecap:butt;stroke-linejoin:miter;stroke-opacity:1"
       d="M 7.3332279,6.2892731 C 7.4253719,5.8285539 7.7030648,5.425816 8.1625156,5.459986 8.623228,5.4942787 8.8996594,6.0943292 8.8075156,6.4629046 8.7153716,6.8314724 8.4701532,7.1596792 7.9782281,7.1185601 7.6109339,7.087889 7.3332279,6.749986 7.3332279,6.2892731 Z"
       id="path77626-1-3"
       sodipodi:nodetypes="csssc" />
    <path
       style="fill:#6888d1;fill-opacity:1;stroke:none;stroke-width:0.0092143px;stroke-linecap:butt;stroke-linejoin:miter;stroke-opacity:1"
       d="M 8.4663551,10.913182 C 8.4869302,10.87889 8.4594941,10.268926 8.6232284,9.5142739 8.7654591,8.8587201 9.1760846,7.7635608 9.3603723,7.4871294 9.5446597,7.210704 10.281804,5.8285539 10.281804,5.8285539 c 0,0 -0.6450005,0.6450069 -1.2047152,1.1156257 C 8.8313522,7.1508028 8.623228,7.3949856 8.0703717,7.3949856 7.7939403,7.3949856 7.2410843,7.210704 6.9646528,6.749986 6.6882284,6.2892731 6.4117969,5.2756983 6.4117969,5.2756983 c 0,0 -0.2995174,1.6429162 0.3381062,3.2250058 0.6376238,1.5820899 1.716452,2.4124779 1.716452,2.4124779 z"
       id="path85470-3-1"
       sodipodi:nodetypes="csscssscsc" />
    <path
       style="fill:#72b578;fill-opacity:1;stroke:none;stroke-width:0.0092143px;stroke-linecap:butt;stroke-linejoin:miter;stroke-opacity:1"
       d="m 8.8075156,10.896424 c 0,0 0.059591,-0.779181 0.5528562,-1.842863 0.5138271,-0.9595672 1.1057192,-1.5664316 1.1057192,-1.5664316 0.533063,-0.4608544 1.474287,-1.0135686 1.474287,-1.0135686 0,0 -1.361587,1.471233 -0.808731,2.3005214 0.552856,0.829287 2.375156,0.9244782 2.375156,0.9244782 0,0 -2.087868,0.022263 -3.8699999,0.7371446 -0.1287147,0.05163 -0.8292875,0.460719 -0.8292875,0.460719 z"
       id="path93458-8-5"
       sodipodi:nodetypes="ccccscsc" />
    <path
       style="fill:#72b578;fill-opacity:1;stroke:none;stroke-width:0.0092143px;stroke-linecap:butt;stroke-linejoin:miter;stroke-opacity:1"
       d="M 11.500222,8.8144495 C 11.225305,8.5995973 11.249646,8.0954299 11.479646,7.8557046 11.87638,7.4422127 12.286961,7.6042554 12.493221,7.763567 c 0.270951,0.2092687 0.324506,0.5909336 0.08529,0.900869 -0.245141,0.3176149 -0.616453,0.4123783 -1.078298,0.1500197 z"
       id="path133823-0-1"
       sodipodi:nodetypes="csssc" />
    <path
       style="fill:#dd9090;fill-opacity:1;stroke:none;stroke-width:0.0092143px;stroke-linecap:butt;stroke-linejoin:miter;stroke-opacity:1"
       d="m 2.5417906,7.671417 c 0,0 0.043351,-1.5286452 0.8437552,-2.3957187 1.1057188,-1.1978562 2.5923582,-1.9124829 4.5294736,-1.9300832 1.9763259,-0.017983 3.5091886,0.9466526 4.2485526,1.7264168 1.066806,1.1250973 1.066806,2.4150975 1.066806,2.4150975 0,0 -0.338159,-1.1434866 -1.474287,-2.0271434 C 10.926803,4.8149853 9.3603718,4.0778421 7.9539255,4.1506009 5.9211399,4.255761 5.0694004,4.8279582 4.2003656,5.459986 3.1867907,6.1971292 2.5417906,7.671417 2.5417906,7.671417"
       id="path237277-1-9"
       sodipodi:nodetypes="cssscsssc" />
    <path
       style="fill:#6888d1;fill-opacity:1;stroke:none;stroke-width:0.0092143px;stroke-linecap:butt;stroke-linejoin:miter;stroke-opacity:1"
       d="m 2.0810782,6.5656984 c 0,0 -0.1842876,-0.8292808 0.6449999,-2.0271447 0.7454324,-1.0767378 3.1328626,-2.3957183 5.25215,-2.3957183 2.1192869,0 3.7778629,1.1057196 4.6992939,2.0271505 0.921425,0.9214247 0.921425,2.1192872 0.921425,2.1192872 0,0 -0.266544,-0.6545506 -0.989131,-1.4159964 C 11.695056,3.9093228 10.007397,2.972123 7.9102444,2.972123 6.1353657,2.972123 4.476797,3.8935543 3.5553657,4.6306977 2.6339345,5.3678422 2.0810782,6.6578422 2.0810782,6.6578422"
       id="path238101-4-4"
       sodipodi:nodetypes="cssscsssc" />
    <path
       style="fill:#72b578;fill-opacity:1;stroke:none;stroke-width:0.0092143px;stroke-linecap:butt;stroke-linejoin:miter;stroke-opacity:1"
       d="m 2.0810782,5.1835545 c 0,0 -0.039211,-0.6284099 0.3175437,-1.3349229 0.2080919,-0.412108 0.7554095,-0.9862128 1.2999126,-1.4567794 0.4767199,-0.411991 1.9761186,-1.44687286 4.3718372,-1.44687286 2.3957193,0 4.6071503,1.65857516 5.2521503,2.76428736 0.478008,0.8194458 0.368569,1.2900062 0.368569,1.2900062 0,0 -0.276426,-0.7371432 -0.645001,-1.1057186 -0.368568,-0.368569 -1.013575,-1.0135751 -2.119287,-1.4742875 -1.105719,-0.4607125 -1.5664312,-0.645 -3.0407189,-0.645 -1.4742872,0 -4.0542936,0.9214315 -5.067862,2.3035753 C 1.8046468,5.459986 2.0810782,5.1835545 2.0810782,5.1835545 Z"
       id="path238497-5-9"
       sodipodi:nodetypes="csssscssssc" />
    <text
       xml:space="preserve"
       id="text222968-8-9"
       style="font-weight:bold;font-size:74.6667px;line-height:1.25;font-family:Candara;-inkscape-font-specification:'Candara, Bold';white-space:pre;shape-inside:url(#rect222970-9-8);fill:#0000ff"
       transform="matrix(0.0092143,0,0,0.0092143,0.31323898,-2.6928461)"><tspan
         x="750"
         y="453.43753"
         id="tspan52">Путь</tspan></text>
    <text
       xml:space="preserve"
       id="text222968-8-1-8"
       style="font-weight:bold;font-size:74.6667px;line-height:1.25;font-family:Candara;-inkscape-font-specification:'Candara, Bold';white-space:pre;shape-inside:url(#rect222970-9-6-4);fill:#00ffff"
       transform="matrix(0.0092143,0,0,0.0092143,0.82134641,-1.5235306)"><tspan
         x="750"
         y="453.43753"
         id="tspan54">к</tspan></text>
    <text
       xml:space="preserve"
       id="text222968-8-1-4-5"
       style="font-weight:bold;font-size:74.6667px;line-height:1.25;font-family:Candara;-inkscape-font-specification:'Candara, Bold';white-space:pre;shape-inside:url(#rect222970-9-6-6-2);fill:#0000ff"
       transform="matrix(0.0092143,0,0,0.0092143,0.10007423,-0.25224276)"><tspan
         x="750"
         y="453.43753"
         id="tspan56">успеху</tspan></text>
    <path
       style="fill:#cc9408;stroke:none;stroke-width:0.0092143px;stroke-linecap:butt;stroke-linejoin:miter;stroke-opacity:1"
       d="m 14.550665,8.5517029 c 0,0 -0.05028,2.1964401 -0.871978,3.3873151 -0.983973,1.426103 -2.248668,1.939064 -3.387308,2.247023 -1.7072576,0.461761 -2.2947236,0.497458 -2.2947236,0.497458 0,0 0.099534,-1.555742 0.3662976,-2.056959 0.2846164,-0.534745 0.5533739,-0.771365 1.073212,-1.089976 0.5198317,-0.318611 3.102239,-1.6936568 3.102239,-1.6936568 0,0 0.06708,0 -0.08384,0.4359888 -0.15092,0.435996 -1.525966,1.089977 -1.760735,1.291204 -0.234763,0.201227 -0.515244,0.329267 -0.392373,0.490379 0.07415,0.09723 0.415265,0.09782 0.653987,0 0.453886,-0.18597 0.864189,-0.423734 1.489046,-1.02475 0.59846,-0.575619 0.984033,-1.0949778 1.234201,-1.5281983 0.323458,-0.5601346 0.374547,-0.7721157 0.481068,-0.8269057 0.163078,-0.083878 0.379898,-0.3161268 0.39091,-0.1289221 z"
       id="path151-8-8-1"
       sodipodi:nodetypes="csscsscsssssssc" />
  </g>
</svg>
