<?xml version="1.0" encoding="UTF-8"?>
<!DOCTYPE svg PUBLIC "-//W3C//DTD SVG 1.1//EN" "http://www.w3.org/Graphics/SVG/1.1/DTD/svg11.dtd">
<!-- Creator: CorelDRAW 2019 (64-Bit) -->
<svg xmlns="http://www.w3.org/2000/svg" xml:space="preserve" width="100mm" height="100mm" version="1.1" style="shape-rendering:geometricPrecision; text-rendering:geometricPrecision; image-rendering:optimizeQuality; fill-rule:evenodd; clip-rule:evenodd"
viewBox="0 0 100 100"
 xmlns:xlink="http://www.w3.org/1999/xlink"
 xmlns:xodm="http://www.corel.com/coreldraw/odm/2003">
 <defs>
  <style type="text/css">
   <![CDATA[
    .str2 {stroke:#005DAD;stroke-width:0.2;stroke-miterlimit:22.9256}
    .str0 {stroke:#2B2A29;stroke-width:0.2;stroke-miterlimit:22.9256}
    .str1 {stroke:#FEFEFE;stroke-width:0.2;stroke-miterlimit:22.9256}
    .fil12 {fill:none}
    .fil18 {fill:#005DAD}
    .fil13 {fill:#008DD2}
    .fil17 {fill:#1C1B17}
    .fil9 {fill:#2B2A29}
    .fil10 {fill:#434242}
    .fil2 {fill:#5DDC40}
    .fil14 {fill:#7FA5A9}
    .fil1 {fill:#A75F4A}
    .fil15 {fill:#BBD5D6}
    .fil20 {fill:#DEEFFF}
    .fil11 {fill:#E31E24}
    .fil4 {fill:#E7E427}
    .fil8 {fill:#F3D4B8}
    .fil3 {fill:#FCD5A6}
    .fil0 {fill:#FEFEFE}
    .fil16 {fill:#FF6FA6}
    .fil19 {fill:gold}
    .fil5 {fill:#FFF11A}
    .fil6 {fill:#FFF70B}
    .fil7 {fill:white}
   ]]>
  </style>
 </defs>
 <g id="Layer_x0020_1">
  <metadata id="CorelCorpID_0Corel-Layer"/>
  <path class="fil0 str0" d="M68.8207 74.9475c0,0 0.7784,-3.4518 0.9983,-3.5195 0.22,-0.0677 2.9781,-0.2876 3.1303,-0.4061 0.1523,-0.1184 1.2691,1.1168 2.6058,1.0322 1.3367,-0.0846 3.7564,-1.1337 4.0779,-1.489 0.3215,-0.3554 0.8798,1.2183 1.8951,1.4213 1.0152,0.2031 3.0457,-0.2707 3.0457,-0.2707l-2.7073 1.7259c0,0 1.7936,7.9865 0.3722,9.4078 -1.4213,1.4213 -9.7462,-2.5042 -11.1675,-3.5195 -1.4214,-1.0152 -2.2505,-4.3824 -2.2505,-4.3824z"/>
  <path class="fil1 str0" d="M80.9697 80.7471l0.2877 -2.8765 2.4196 -0.9476c0,0 0.1184,-0.7445 -0.0169,-0.846 -0.1354,-0.1015 -2.4873,0.0507 -2.6058,-0.0508 -0.1184,-0.1015 -0.4315,-1.0998 -0.6853,-1.3875 -0.2538,-0.2876 -1.0321,-1.2013 -1.2183,-1.3367 -0.1861,-0.1354 0.3046,-0.9222 -0.3976,-1.2944 -0.7022,-0.3723 -1.0491,-0.2115 -1.2098,-0.1185 -0.1608,0.0931 -0.2538,0.6261 -0.2538,0.6261 0,0 -1.4298,-0.313 -2.1658,-0.3384 -0.7361,-0.0254 -2.0644,0.1946 -2.0644,0.1946 0,0 -0.423,-0.9983 -1.1675,-0.7868 -0.7445,0.2115 -0.3384,1.2944 -0.423,1.3874 -0.0846,0.0931 -0.846,0.6684 -1.269,1.0407 -0.4231,0.3722 -0.8207,1.214 -0.9222,1.2775 -0.1015,0.0634 -0.8968,-0.1312 -1.1083,0.1226 -0.2115,0.2538 1.1252,1.5821 1.1252,1.5821 0,0 2.3181,-2.4027 2.555,-2.4196 0.2369,-0.017 1.0998,1.8443 1.2691,2.0135 0.1692,0.1692 0.9137,-0.203 1.0659,-0.3384 0.1523,-0.1354 -0.8291,-2.3012 -0.7783,-2.4366 0.0508,-0.1353 0.6091,-0.4061 1.4044,-0.4399 0.7953,-0.0338 1.6582,0.1184 1.7428,0.3723 0.0846,0.2538 -0.8375,1.8928 -0.7276,2.1489 0.11,0.256 0.9476,0.7614 1.0491,0.5753 0.1015,-0.1862 0.7445,-2.0305 1.0491,-2.0982 0.3046,-0.0677 0.8799,0.5043 1.1168,0.9121 0.2368,0.4077 0.8291,1.0845 0.7614,1.2199 -0.0677,0.1354 -2.0643,0.7276 -2.132,0.8291 -0.0677,0.1015 -0.1185,0.7276 0.0677,1.0153 0.1861,0.2876 1.9289,-0.6092 2.0643,-0.4569 0.1353,0.1523 -0.0677,2.3689 -0.2031,2.555 -0.1353,0.1861 -1.2352,1.4552 -1.2352,1.4552 0,0 2.2335,0.533 2.4874,0.313 0.2538,-0.22 0.5499,-0.6515 0.5414,-0.9137 -0.0084,-0.2623 -0.423,-0.5541 -0.423,-0.5541z"/>
  <ellipse class="fil1 str0" cx="75.2248" cy="78.429" rx="2.6183" ry="2.7031"/>
  <path class="fil2 str0" d="M62.797 83.9113c0,0 1.2183,-6.3622 4.061,-7.1744 2.8426,-0.8121 5.2792,0.2708 6.7005,1.2183 1.4213,0.9476 7.3774,5.0762 9.8816,5.753 2.5043,0.6768 5.9561,-0.6091 7.7158,-0.5414 1.7598,0.0676 1.0829,4.9408 0.2031,5.956 -0.8799,1.0152 -8.6634,2.5042 -14.5517,1.2183 -5.8884,-1.286 -8.731,-2.3012 -10.2877,-3.5195 -1.5567,-1.2183 -1.8951,-2.0981 -2.3689,-2.0643 -0.4738,0.0338 -1.2689,-1.2405 -1.3537,-0.846z"/>
  <ellipse class="fil3 str0" cx="66.2657" cy="82.5238" rx="0.8291" ry="0.8714"/>
  <ellipse class="fil3 str0" cx="73.2842" cy="81.8703" rx="1.1844" ry="1.1168"/>
  <path class="fil4 str0" d="M72.8732 84.5119c-0.1692,-0.0846 -0.9221,-0.5584 -0.8629,-0.956 0.0592,-0.3976 0.5922,-1.0998 1.1083,-1.0914 0.5161,0.0085 1.2521,0.44 1.1844,1.0153 -0.0677,0.5753 -0.736,0.7106 -0.7868,0.9729 -0.0508,0.2623 -0.0508,0.4907 -0.0508,0.4907l0.6938 0.0846 0.0423 0.2877c0,0 -0.6514,-0.1523 -0.6514,-0.0423 0,0.1099 -0.0339,0.5245 0.0761,0.5753 0.11,0.0507 0.8799,0.1522 1.1421,-0.3892 0.2623,-0.5415 0.2961,-0.7361 0.3384,-0.9645 0.0423,-0.2284 -0.3891,-0.2961 -0.3891,-0.2961l0.7106 -0.6091 0.8207 0.9306 -0.5753 0.0254c0,0 -0.0931,1.1252 -0.5838,1.489 -0.4907,0.3638 -1.2521,0.4991 -1.4805,0.4907 -0.2285,-0.0085 -0.4992,0.4991 -0.4992,0.4991l-0.3892 -0.4061c0,0 -0.4145,0.0423 -0.8629,-0.3553 -0.4484,-0.3976 -0.9645,-1.3113 -0.956,-1.3959 0.0084,-0.0846 -0.4738,-0.0677 -0.4738,-0.0677l0.6514 -1.0914 0.753 0.7276c0,0 -0.4991,0.1946 -0.4653,0.3046 0.0338,0.1099 0.3469,0.8629 1.0068,0.956 0.6599,0.093 0.4314,-0.1692 0.4314,-0.1692l-0.0423 -0.3554 -0.6176 -0.0592 0.0423 -0.2792 0.7192 0.0508 -0.0339 -0.3723z"/>
  <path class="fil5 str0" d="M69.8021 71.1912c0,0 0.0226,-0.7502 0.0564,-0.8179 0.0339,-0.0676 2.414,-0.5273 2.6086,-0.5696 0.1946,-0.0423 0.6991,0.8109 0.6261,1.0152 -0.0731,0.2043 -1.0576,0.7022 -1.5906,0.7614 -0.533,0.0593 -1.7005,-0.3891 -1.7005,-0.3891z"/>
  <path class="fil6 str0" d="M79.8717 70.5679c0,0 0.3027,-0.6119 0.4889,-0.705 0.1861,-0.093 1.9289,-0.0085 2.2927,0.1946 0.3638,0.203 1.6215,1.0265 1.7061,1.2211 0.0847,0.1946 -0.1969,0.676 -0.4568,0.7191 -2.3579,0.3911 -2.7398,0.031 -4.0309,-1.4298z"/>
  <path class="fil7 str0" d="M73.0407 70.893l-0.1844 -1.3008c0,0 2.3858,1.0491 2.5719,1.2014 0.1861,0.1523 0.3475,1.2392 0.3475,1.2392 0,0 0.0417,-0.6639 0.5324,-0.9346 0.4907,-0.2708 3.2995,-1.6244 3.4687,-1.6244 0.1692,0 0.0949,1.0941 0.0949,1.0941 0,0 -2.4938,1.7796 -2.7684,1.8162 -0.2745,0.0366 -1.6257,-0.2104 -1.9796,-0.2073 -0.354,0.0031 -2.083,-1.2838 -2.083,-1.2838z"/>
  <path class="fil8 str0" d="M75.9527 70.9628c-1.0152,-0.1015 -3.181,-1.4044 -3.5871,-1.8613 -0.4061,-0.4568 -0.9709,-0.6311 -0.8122,-1.3029 0.4302,-1.8209 -0.0605,-3.2484 0.0846,-3.3671 0.3722,-0.3046 8.1388,-0.9307 8.4603,-0.7107 0.3215,0.22 0.203,1.2521 0.3722,1.4213 0.1692,0.1692 1.0491,-1.2521 1.1675,0.3384 0.1185,1.5906 -0.6768,0.9137 -0.7783,1.489 -0.1015,0.5753 -0.5415,2.0474 -0.6768,2.3351 -0.1354,0.2876 -1.7936,1.3029 -2.4366,1.4551 -0.643,0.1523 -1.7936,0.2031 -1.7936,0.2031z"/>
  <ellipse class="fil9 str0" cx="73.0086" cy="66.225" rx="0.3215" ry="0.4738"/>
  <ellipse class="fil10 str0" cx="77.6109" cy="66.115" rx="0.3046" ry="0.533"/>
  <path class="fil11 str0" d="M73.8345 68.8105c0,0 0.9306,0.7275 1.7259,0.6429 0.7952,-0.0846 1.9289,-0.8121 1.8813,-1.1133 -0.1015,-0.2877 -1.4678,0.5076 -1.8147,0.5034 -0.3469,-0.0042 -2.2843,-0.7149 -1.7925,-0.033z"/>
  <path class="fil12 str0" d="M74.6795 66.4704c-0.0339,0.1523 0.0084,0.5499 -0.0677,0.7022 -0.0762,0.1523 0.3468,0.22 0.4991,0.2284 0.1523,0.0085 0.6176,-0.0592 0.6176,-0.2284 0,-0.1692 -0.1523,-0.1354 -0.1607,-0.2538 -0.0085,-0.1185 -0.0592,-0.6176 -0.0592,-0.6176"/>
  <path class="fil0 str0" d="M70.6608 63.1709c0.0085,-0.1269 -0.5753,-1.3706 -0.4738,-1.912 0.1016,-0.5415 0.22,-1.6244 1.4552,-2.4366 1.2352,-0.8122 1.9966,-1.1168 2.9611,-1.0322 0.9645,0.0847 3.0288,0.3215 3.4856,0.8461 0.4569,0.5245 1.5398,1.7936 1.7936,2.0981 0.2538,0.3046 0.9814,0.1692 1.6244,0.44 0.643,0.2707 1.8613,1.2521 1.6413,1.6243 -0.22,0.3723 -0.4569,1.286 -0.863,1.2183 -0.406,-0.0677 -5.4653,-1.2013 -5.4653,-1.2013l-6.1591 0.3553z"/>
  <path class="fil9 str0" d="M70.7962 62.9509c0,0 2.2843,-1.2183 3.621,-1.2183 1.3367,0 4.2471,0.3554 5.0254,0.8461 0.7783,0.4907 2.2166,1.1167 2.2504,1.3875 0.0339,0.2707 -0.5583,0.7952 -0.7614,0.8291 -0.203,0.0338 -1.912,-0.9476 -2.3012,-0.9476 -0.3892,0 -1.4213,0.7953 -3.9086,1.0322 -2.4874,0.2369 -4.1456,0 -4.264,-0.1608 -0.1185,-0.1607 -0.3469,-0.5837 -0.0423,-0.8122 0.3045,-0.2284 0.533,-0.2538 0.5414,-0.4399 0.0085,-0.1861 -0.1607,-0.5161 -0.1607,-0.5161z"/>
  <path class="fil0 str0" d="M84.5738 71.7157c-0.3272,-0.2595 2.3194,3.8186 2.1164,4.7661 -0.203,0.9476 -1.0725,1.3753 -2.3802,1.5003 -1.3076,0.125 -1.7547,-0.2587 -1.8773,-0.5718 -0.1226,-0.3131 1.1512,-1.6591 1.0159,-1.9636 -0.1354,-0.3046 -1.3575,-0.9164 -1.4059,-1.1576 -0.0483,-0.2413 -0.1762,-0.8475 -0.1762,-0.8475l2.7073 -1.7259z"/>
  <path class="fil3 str0" d="M83.4486 75.4467c0,0 -0.863,-0.5923 -1.3875,-0.7784 -0.5246,-0.1861 -1.068,-0.272 -1.5239,0.2363 -0.4558,0.5082 -1.0819,1.7942 -0.7773,2.048 0.3045,0.2538 0.6768,-0.9137 0.6768,-0.9137 0,0 -0.2877,1.2267 0.0085,1.3367 0.2961,0.11 0.5753,-0.8883 0.5753,-0.8883 0,0 0.0846,1.0913 0.406,1.0744 0.3215,-0.0169 0.66,-0.8629 0.6853,-0.9137 0.0254,-0.0507 0.2285,0.846 0.4315,0.8376 0.2031,-0.0085 0.7276,0 0.753,-0.1015 0.0254,-0.1016 -0.2454,-0.2708 -0.2961,-0.4654 -0.0508,-0.1945 -0.1016,-0.6091 0.0676,-0.8291 0.1693,-0.2199 0.3808,-0.6429 0.3808,-0.6429z"/>
  <polygon class="fil0 str1" points="81.3884,72.6551 83.5422,71.8532 84.8571,72.0956 82.7033,74.2962 "/>
  <path class="fil12 str0" d="M64.0956 83.7379c0,0 1.1167,-4.1286 2.132,-5.0085 1.0152,-0.8799 2.1825,-0.9201 2.9441,-0.8799 0.7617,0.0403 3.4518,1.4552 4.3317,1.8951 0.8799,0.4399 4.8731,3.1811 5.753,3.9256 0.8799,0.7445 2.978,2.2335 5.0762,2.0304 2.0981,-0.203 3.5194,-0.5414 4.8731,-0.8121 1.3536,-0.2708 2.8623,-0.8638 2.8623,-0.8638"/>
  <path class="fil12 str0" d="M67.5812 78.391c0,0 0.3046,2.132 0.6768,3.0795 0.3723,0.9476 0.9137,3.3503 1.2183,4.1625 0.3046,0.8122 1.266,2.6616 1.489,2.978 0.223,0.3164 1.7491,0.7505 1.7491,0.7505 0,0 -1.0384,-1.3596 -1.2415,-1.7996 -0.203,-0.4399 -1.6243,-3.2826 -1.8274,-4.6024 -0.203,-1.3198 -1.0491,-4.8054 -1.0491,-4.8054l-1.0152 0.2369z"/>
  <path class="fil13 str0" d="M-0.0463 87.7062c2.4694,-1.2347 3.9687,-4.1011 8.0256,-2.1608 4.0569,1.9403 7.4082,3.175 11.9944,0.3528 4.5862,-2.8222 6.7028,-2.2929 11.6417,-0.5291 4.9389,1.7638 1.5875,0.3527 8.2903,0.5291 6.7028,0.1764 8.5941,3.3888 15.1571,3.2999 6.563,-0.0889 8.1263,-2.7708 18.7096,-1.8888 10.5833,0.882 13.0528,4.057 19.2264,2.2931 6.1736,-1.7639 9.1723,10.4069 7.0556,10.7597 -2.1167,0.3528 -99.9244,-0.3969 -99.9244,-0.3969l-0.1763 -12.259z"/>
  <path class="fil12 str0" d="M8.0232 90.3961c2.7781,-0.441 2.249,0.3086 6.5264,1.2347 4.2774,0.9261 6.7909,0.2647 9.6132,-0.8378 2.8223,-1.1025 1.7638,-0.2647 6.4382,0.9701 4.6744,1.2348 14.3758,-0.5731 15.787,-0.7495 1.4112,-0.1764 0.882,0.3527 5.5563,0.8819 4.6743,0.5292 5.2916,1.7639 9.3486,0 4.057,-1.7639 3.3515,-1.4994 7.3202,-0.441 3.9687,1.0584 4.8507,1.4111 9.8778,0.5292 5.0271,-0.8819 7.9374,1.1466 11.7298,0.7938"/>
  <path class="fil12 str0" d="M1.938 96.3052c2.4694,-0.3527 -4.7626,-3.7041 7.4965,-0.7055 12.2591,2.9986 16.757,1.2347 19.5792,-0.2646 2.8222,-1.4993 2.8223,0.3527 8.7313,0.9701 5.909,0.6174 7.8493,1.2347 12.7882,0.2646 4.9389,-0.9701 4.1452,0.2646 9.966,0.441 5.8208,0.1764 5.468,2.3813 11.0243,0.3528 5.5563,-2.0285 5.2035,-0.7056 10.1424,-0.7056 4.9389,0 7.673,2.8223 11.5535,0.882 3.8805,-1.9403 4.7624,-1.4111 5.2916,-1.5875"/>
  <g id="_2435797522672">
   <path class="fil14 str0" d="M14.9725 81.4942c0.119,0.0202 0.7736,0.2711 1.1772,0.6638 0.4037,0.3928 1.1019,1.7346 0.8182,1.931 -0.2836,0.1964 -1.2945,-0.4895 -1.5055,-0.7964 -0.2109,-0.3069 -0.4899,-1.7984 -0.4899,-1.7984z"/>
   <path class="fil15 str0" d="M15.2143 89.4539c0,0 1.9855,-1.6692 1.6473,-3.2074 -0.3382,-1.5383 -1.1018,-2.771 -1.5928,-3.7856 -0.4909,-1.0146 -0.1091,-1.2655 0.0982,-1.6364 0.2073,-0.371 -0.2182,-1.1783 -0.2182,-1.1783 0,0 1.0037,1.4619 1.6037,1.3855 0.6,-0.0763 1.0364,-0.8182 1.0146,-1.1018 -0.0218,-0.2837 1.4484,-0.3379 1.7837,-0.5619 0.8681,-0.5798 0.7991,-1.026 0.7508,-1.238 -0.1668,0.061 -0.1235,0.7308 -1.629,0.6544 -1.5055,-0.0764 -1.6692,-0.12 -2.6074,-0.6219 -0.9382,-0.5018 -1.0473,-0.72 -1.7128,-0.4036 -0.6654,0.3164 -0.6873,0.12 -0.9491,0.8618 -0.2618,0.7419 -0.2945,2.1819 0.2618,3.1856 0.5564,1.0037 1.7674,2.9674 2.051,4.102 0.2837,1.1346 -0.5018,3.5456 -0.5018,3.5456z"/>
   <path class="fil14 str0" d="M12.866 81.7653c-0.0437,0.0982 0.12,0.4255 -0.0546,0.7855 -0.1745,0.36 -0.3818,0.6436 -0.5236,0.8727 -0.1419,0.2291 -0.1419,0.9601 -0.4473,1.0364 -0.3055,0.0764 -0.851,-0.3818 -1.0801,-0.84 -0.2291,-0.4582 0.0437,-2.1274 0.0437,-2.1274l2.0619 0.2728z"/>
   <path class="fil16 str0" d="M17.688 79.8125c-0.251,-0.0109 -2.0401,-0.5782 -2.3129,-1.1455 -0.2727,-0.5673 0.6437,1.6037 1.1565,1.7892 0.5127,0.1854 0.7418,0.1854 0.8182,-0.0982 0.0763,-0.2837 0,-0.48 0,-0.48l0.3382 -0.0655z"/>
   <path class="fil14 str0" d="M14.0252 88.9084c-0.0655,0 -1.451,-0.84 -1.9092,-1.1018 -0.4582,-0.2619 -1.691,-0.2728 -1.7019,0.0218 -0.0109,0.2945 0.8946,0.6109 0.9382,1.0037 0.0437,0.3927 -0.0218,0.9164 0.2073,1.2873 0.4637,0.6927 2.0401,0.6764 2.7383,0.5345 0.6982,-0.1418 -0.5455,1.2328 0.8946,1.3637 1.44,0.1309 2.1819,-0.8073 2.4437,-0.7418 0.2618,0.0654 0.4146,0.24 0.6055,0.1473 0.1909,-0.0928 0.1909,-0.7801 -0.1582,-1.0637 -0.3491,-0.2836 -2.1928,-0.5509 -2.3455,-0.6655 -0.1528,-0.1145 -0.5137,-0.2713 -0.5137,-0.2713 0,0 0.9789,-1.4591 0.5382,-3.2412 -0.4407,-1.7822 -1.7139,-3.665 -2.1265,-4.4291 -0.4127,-0.7641 -0.5522,-2.2019 -0.3406,-2.7198 0.2116,-0.5179 0.8399,-1.3155 1.2123,-1.3416 0.3724,-0.026 0.6097,0.086 2.0082,0.7043 1.0177,0.45 3.0777,1.0518 3.7717,-0.2333 0.1045,-0.1935 -0.1913,-0.3048 -0.3986,-0.512 -0.2073,-0.2073 0.2618,-0.6655 0.0655,-1.4183 -0.1964,-0.7527 -0.6437,-1.8 -1.2546,-2.0073 -0.611,-0.2073 -5.7658,-0.7804 -6.0794,-0.8375 -0.3136,-0.0571 -2.9209,-0.0898 -4.3283,1.2411 -1.4073,1.331 -1.3418,2.1274 -1.4618,2.8801 -0.12,0.7528 -0.3819,1.1783 0.0327,1.3856 0.4145,0.2072 0.7418,-0.1528 1.2546,-0.4037 0.5127,-0.2509 0.9382,-0.4473 1.1346,-0.4691 0.1963,-0.0218 -0.1964,1.6582 0.1309,2.5746 0.3273,0.9164 2.4873,3.622 3.2946,4.342 0.8073,0.72 1.2655,0.9382 1.571,1.8546 0.3055,0.9164 0.3327,1.4401 0.1909,1.7456 -0.1418,0.3054 -0.4145,0.3708 -0.4145,0.3708z"/>
   <ellipse class="fil0 str0" cx="16.637" cy="76.7704" rx="0.6982" ry="0.9709"/>
   <ellipse class="fil0 str0" cx="18.6446" cy="76.7517" rx="0.6873" ry="0.9819"/>
   <ellipse class="fil17 str0" cx="16.4334" cy="77.0742" rx="0.3382" ry="0.5018"/>
   <ellipse class="fil17 str0" cx="18.4407" cy="77.1233" rx="0.36" ry="0.4855"/>
   <path class="fil18 str0" d="M12.7132 73.6596c0.1309,0.0981 2.0947,1.56 3.8184,1.6036 1.7237,0.0437 2.9019,0.2728 3.4692,-0.5891 0.5673,-0.8618 -0.7201,-0.8945 -0.9273,-1.0036 -0.2073,-0.1091 -1.4183,0.2836 -2.5201,0.1963 -1.1019,-0.0872 -3.8784,-0.27 -3.8784,-0.27l0.0382 0.0628z"/>
   <path class="fil19 str0" d="M19.1689 73.3377l-0.0954 0.3328c0,0 -1.7721,0.2504 -2.6651,0.185 -0.893,-0.0653 -3.7334,-0.2587 -3.7334,-0.2587l-0.109 -0.42c0,0 3.1092,0.2537 3.8483,0.2346 0.7391,-0.0191 2.7546,-0.0737 2.7546,-0.0737z"/>
   <path class="fil20 str2" d="M19.1689 73.3377c0,0 0.7064,-0.5345 0.5482,-1.1727 -0.1582,-0.6382 -0.8618,-0.7964 -1.3091,-0.7419 -0.4473,0.0546 -0.54,-0.6982 -1.6801,-0.7364 -1.14,-0.0381 -1.3309,0.3273 -1.4509,0.311 -0.12,-0.0164 -0.1309,-0.3764 -0.7691,-0.3873 -0.6383,-0.0109 -1.2601,0.54 -1.4674,0.5891 -0.2073,0.0491 -1.0527,0.1473 -1.1673,0.6218 -0.1145,0.4746 0.6028,1.2573 0.6219,1.3146l3.6695 0.2745 3.0043 -0.0727z"/>
   <path class="fil9 str0" d="M16.8308 71.6074c-0.0177,-0.2123 -0.1947,-0.3008 -0.3717,-0.2831 -0.177,0.0177 -0.2477,0.0442 -0.2212,0.1858 0.0265,0.1416 0.1549,0.177 0.1814,0.2168 0.0265,0.0398 0.0265,0.2035 0.0265,0.2035l-0.3008 -0.0354 0 0.1637 0.2699 0.031c0,0 0.0133,0.2566 -0.0089,0.292 -0.0221,0.0354 -0.2035,0.1106 -0.3097,0.0973 -0.1062,-0.0132 -0.1637,-0.0663 -0.2079,-0.1415 -0.0443,-0.0753 0.1239,-0.1394 0.1239,-0.1394l-0.2854 -0.0841 -0.0243 0.2611 0.0951 -0.0222c0,0 0.0575,0.2168 0.23,0.239 0.1726,0.0221 0.4336,-0.0841 0.4336,-0.0841 0,0 0.3496,0.0796 0.5,0.0619 0.1504,-0.0177 0.2212,-0.1592 0.2212,-0.1592l0.2345 0.1106 -0.0664 -0.3363 -0.3451 0.0752 0.0531 0.1018c0,0 -0.0796,0.0752 -0.2079,0.0752 -0.1283,0 -0.2434,-0.031 -0.2434,-0.031l-0.0176 -0.3008 0.2521 0.0133 0 -0.1859 -0.2345 -0.0354c0,0 -0.0353,-0.1858 0.0045,-0.1991 0.0398,-0.0132 0.2123,0.0354 0.219,-0.0907z"/>
   <path class="fil12 str0" d="M12.6941 73.6282c0,0 -1.4058,1.1635 -2.0167,2.1453 -0.6109,0.9819 -1.4251,2.2473 -1.4251,2.2473"/>
  </g>
 </g>
</svg>
