<?xml version="1.0" encoding="UTF-8"?>
<!DOCTYPE svg PUBLIC "-//W3C//DTD SVG 1.1//EN" "http://www.w3.org/Graphics/SVG/1.1/DTD/svg11.dtd">
<!-- Creator: CorelDRAW 2019 (64-Bit) -->
<svg xmlns="http://www.w3.org/2000/svg" xml:space="preserve" width="100mm" height="100mm" version="1.1" style="shape-rendering:geometricPrecision; text-rendering:geometricPrecision; image-rendering:optimizeQuality; fill-rule:evenodd; clip-rule:evenodd"
viewBox="0 0 100 100"
 xmlns:xlink="http://www.w3.org/1999/xlink"
 xmlns:xodm="http://www.corel.com/coreldraw/odm/2003">
 <defs>
  <style type="text/css">
   <![CDATA[
    .str0 {stroke:#2B2A29;stroke-width:0.2;stroke-miterlimit:22.9256}
    .fil9 {fill:none}
    .fil3 {fill:#FEFEFE}
    .fil10 {fill:#FEFEFE}
    .fil11 {fill:#2B2A29}
    .fil7 {fill:#FFED00}
    .fil6 {fill:#FECC00}
    .fil8 {fill:#F08143}
    .fil4 {fill:#020202}
    .fil0 {fill:#D63E17}
    .fil1 {fill:#DA2F05}
    .fil5 {fill:#FF2000}
    .fil2 {fill:#FFFDFF}
   ]]>
  </style>
 </defs>
 <g id="Layer_x0020_1">
  <metadata id="CorelCorpID_0Corel-Layer"/>
  <g id="_2435578452016">
   <path class="fil0 str0" d="M19.7696 87.6681c0,0 -3.7155,2.4249 -3.8719,2.8551 -0.1565,0.4302 -0.2738,2.112 -0.1565,2.6205 0.1173,0.5084 0.3911,4.4977 0.7822,4.0675 0.3911,-0.4302 0.2542,-2.7182 0.176,-3.4222 -0.0782,-0.704 -0.8018,-2.0729 -0.0782,-2.4836 0.7236,-0.4106 4.2435,-2.1511 4.5955,-2.4248 0.352,-0.2738 -1.4471,-1.2125 -1.4471,-1.2125z"/>
   <path class="fil0 str0" d="M18.8896 86.2112c0,0 -3.3928,2.288 -3.7057,2.6987 -0.3129,0.4107 -0.8409,2.4053 -0.7431,2.7182 0.0977,0.3129 0.2151,4.2436 0.5084,4.0676 0.2933,-0.176 0.1955,-3.344 0.1955,-3.6178 0,-0.2738 0.2151,-1.7991 0.3911,-2.0729 0.176,-0.2738 4.1262,-2.6204 4.1262,-2.6204l-0.7724 -1.1734z"/>
   <path class="fil0 str0" d="M18.4692 84.9401c0,0 -3.168,1.4472 -3.4223,1.7992 -0.2542,0.352 -1.2711,3.1679 -1.2711,3.1679 0,0 -0.6257,4.224 -0.352,4.1849 0.2738,-0.0391 0.8312,-3.4711 0.8605,-3.5689 0.0293,-0.0977 1.0071,-2.5911 1.1929,-2.7084 0.1857,-0.1173 3.08,-1.6427 3.08,-1.6427l-0.088 -1.232z"/>
   <path class="fil0 str0" d="M18.3225 83.1411c-0.2151,0.0391 -2.7965,0.8017 -3.4027,1.3688 -0.6062,0.5671 -1.4667,3.6178 -1.7013,4.3023 -0.2347,0.6844 -0.5291,2.1116 -0.0782,2.1706 0.4508,0.0591 0.8604,-2.5129 0.9386,-2.7573 0.0782,-0.2445 0.88,-2.3173 1.1636,-2.5716 0.2835,-0.2542 2.9333,-1.1733 2.9333,-1.1733l0.1467 -1.3395z"/>
   <path class="fil0 str0" d="M35.7171 90.0931l0.8017 -1.1147c0,0 1.7405,0.5084 1.7796,1.3689 0.0391,0.8604 0.4693,1.8382 0.176,2.6204 -0.2933,0.7822 -0.4693,4.2436 -0.8604,3.9307 -0.3912,-0.3129 -0.1369,-3.2267 0.0586,-3.6765 0.1956,-0.4497 0.3911,-1.4471 -0.1564,-1.936 -0.5476,-0.4889 -1.7991,-1.1928 -1.7991,-1.1928z"/>
   <path class="fil0 str0" d="M37.3891 87.15c0.0684,0.0391 1.7795,1.3493 2.0631,1.7208 0.2835,0.3716 0.352,2.112 0.4693,2.6107 0.1173,0.4987 0.1369,3.8818 0,4.0089 -0.1369,0.1271 -0.8213,-1.3591 -0.8018,-1.6427 0.0196,-0.2835 0.2054,-1.7404 0.2151,-2.0631 0.0098,-0.3226 -0.1955,-1.9262 -0.3422,-2.0533 -0.1467,-0.1271 -1.6818,-0.9289 -1.8578,-1.0071 -0.176,-0.0782 0.2543,-1.5742 0.2543,-1.5742z"/>
   <path class="fil0 str0" d="M37.3695 85.1456c0,0 2.6986,1.1733 3.1875,2.6986 0.4889,1.5253 0.7627,4.3218 0.7431,4.6933 -0.0195,0.3716 -0.0586,2.0143 -0.2346,2.0143 -0.176,0 -0.1565,-2.0534 -0.2347,-2.464 -0.0782,-0.4107 -0.8995,-4.0285 -1.2515,-4.2631 -0.352,-0.2347 -2.4054,-0.9974 -2.4054,-0.9974l0.1956 -1.6817z"/>
   <path class="fil0 str0" d="M39.2859 83.8353c0.3129,0.2543 1.4862,1.1343 1.8773,2.0534 0.3912,0.9191 0.7236,2.6204 0.8996,3.0506 0.176,0.4302 0.8604,2.9138 0.528,2.9138 -0.3324,0 -1.0951,-2.1902 -1.2124,-2.7573 -0.1174,-0.5671 -1.8578,-3.8134 -2.2098,-4.048 -0.352,-0.2347 -1.4471,-0.88 -1.4471,-0.88l1.5644 -0.3325z"/>
   <path class="fil0 str0" d="M19.0248 80.5624c-0.0782,-0.1369 -0.8996,-0.8409 -1.6622,-0.9973 -0.7627,-0.1564 -1.4276,-0.2151 -1.4276,-0.2151l1.3494 -2.2489c0,0 3.1679,-0.176 3.9893,-0.8995 0.8213,-0.7236 1.8186,-1.9556 1.8186,-1.9556 0,0 5.1236,-6.9031 4.7325,-7.4897 -0.3911,-0.5867 -1.0169,-0.1369 -1.0169,-0.1369l-0.352 1.232 -1.3885 0.0977c0,0 -0.5671,1.4472 -0.6844,1.408 -0.1173,-0.0391 -1.4862,-0.352 -1.4862,-0.352l-0.528 1.584c0,0 -1.3885,0.0978 -1.6036,-0.0391 -0.2151,-0.1369 -0.2151,-1.3689 -0.2151,-1.3689l0.8214 0.4889 0.1173 -1.4666 1.8578 -0.2347 -0.1174 -1.4276 1.6818 0.4694 0.528 -1.4471c0,0 1.4471,0.176 1.8773,0.0978 0.4302,-0.0783 1.2711,-0.7236 1.4276,-0.9583 0.1564,-0.2346 -2.4445,-1.056 -4.3609,-0.3715 -1.9164,0.6844 -4.2631,1.7013 -4.5173,1.76 -2.2583,0.5211 -5.104,3.84 -5.104,6.2773 0,1.5644 0,2.1511 0,2.1511 0,0 -0.2445,4.1262 -0.4596,4.4978 -0.2151,0.3715 0.0587,1.7795 0.3716,1.9946 0.3129,0.2151 3.2071,2.3858 3.2071,2.3858l1.144 -2.8356z"/>
   <path class="fil1 str0" d="M18.8504 79.8461c0,0 2.1707,-0.704 2.7182,-0.8018 0.5476,-0.0978 4.2827,-1.2907 4.8107,-1.3493 0.528,-0.0587 4.9866,0.9191 5.6906,1.232 0.704,0.3128 2.64,0.6453 3.2267,1.1733 0.5866,0.528 0.9973,1.4471 0.6844,2.2489 -0.3129,0.8017 -1.8773,9.8951 -9.4649,8.5653 -7.5875,-1.3298 -10.0287,-5.8415 -7.6657,-11.0684z"/>
   <path class="fil0 str0" d="M36.0592 80.4718c0.2347,0.1173 3.0703,0.7822 3.5592,1.5058 0.4888,0.7235 -1.5254,3.5591 -1.7014,3.8915 -0.176,0.3325 -0.1297,1.8043 -0.7822,3.0898 -0.6525,1.2855 -2.6986,3.52 -4.1849,3.9502 -1.5441,0.447 -9.8399,1.3361 -10.0124,-1.2515 -0.0391,-0.5867 1.056,-0.7432 1.4862,-0.8018 0.4303,-0.0587 0.4889,-0.7431 0.8018,-1.0169 0.3129,-0.2738 1.0951,0.0587 1.3689,-0.0196 0.2738,-0.0782 0.0782,-0.8408 0.3129,-0.9191 0.2346,-0.0782 0.7431,0.5476 0.9582,0.3716 0.2151,-0.176 0.4498,-1.1342 0.4498,-1.1342 0,0 0.352,0.0977 0.6649,0.0586 0.3129,-0.0391 0.4693,-0.3324 0.8017,-0.7235 0.3325,-0.3911 1.2712,-0.6649 1.3689,-0.8018 0.0978,-0.1369 0.1174,-0.352 -0.2542,-0.6258 -0.3716,-0.2738 -1.5253,0.8214 -1.5253,0.8214l-1.232 -0.0783 -0.2347 0.88 -0.9191 0.352c0,0 -0.8995,1.3298 -1.0755,1.0365 -0.3559,-0.5931 3.1818,-4.4711 3.8328,-4.7716 1.4981,-0.6914 3.4405,-1.9368 5.3191,-0.6844 0.88,0.5867 1.3494,0.88 1.5645,0.7822 0.2151,-0.0978 0.8604,-1.2907 0.8604,-1.2907 0,0 -1.4471,-0.2346 -1.3689,-0.352 0.0783,-0.1173 -0.0587,-2.2684 -0.0587,-2.2684z"/>
   <ellipse class="fil2 str0" cx="23.5535" cy="80.3448" rx="1.3689" ry="2.2293"/>
   <ellipse class="fil3 str0" cx="29.8992" cy="79.895" rx="1.3591" ry="2.3662"/>
   <ellipse class="fil4 str0" cx="23.7881" cy="80.2372" rx="0.6453" ry="0.9093"/>
   <ellipse class="fil4 str0" cx="30.1339" cy="80.3154" rx="0.5964" ry="0.968"/>
   <path class="fil2 str0" d="M21.8717 83.4541c0.6258,0.4302 4.0304,1.6783 5.2037,1.2872 1.6252,-0.5417 0.5953,-0.9723 3.7821,-1.825 0,0 -2.4152,2.9138 -3.4711,2.8942 -2.1373,-0.0395 -3.7226,-1.3841 -5.5147,-2.3564z"/>
  </g>
  <path class="fil5 str0" d="M74.1014 83.7572c0,0 0.4133,-1.3777 -0.2067,-2.9621 -0.62,-1.5844 -0.9414,-2.9622 -0.9414,-2.9622 0,0 5.2583,-0.7118 8.1286,0.9185 2.8703,1.6303 8.1057,8.3353 8.3353,8.7257 0.2296,0.3903 2.1355,-0.9644 3.2721,-3.1114 1.1366,-2.147 2.5259,-2.6062 2.9392,-2.4225 0.4133,0.1837 -1.3893,5.465 -1.2285,6.5213 0.1607,1.0562 1.4696,1.5384 1.7681,2.5488 0.2985,1.0103 0.5051,1.5155 0.1837,1.6762 -0.3215,0.1608 -2.7325,-0.1607 -4.0873,-1.4466 -1.3548,-1.2859 -3.0412,-1.2284 -3.0412,-1.2284 0,0 -8.3022,-5.5684 -8.9451,-5.8899 -0.6429,-0.3214 -6.1768,-0.3674 -6.1768,-0.3674z"/>
  <path class="fil6 str0" d="M72.8614 84.9511c0,0 0.2296,-2.1585 2.3881,-2.7095 2.1584,-0.5511 4.6843,-0.5511 7.4398,1.5614 2.7554,2.1125 7.2101,4.3628 7.1182,5.4191 -0.0918,1.0562 -5.3272,3.8576 -7.6693,4.6843 -2.3422,0.8266 -3.9495,1.0562 -5.511,0.3674 -1.5614,-0.6889 -5.6257,-1.9059 -5.6257,-3.2147 0,-1.3089 0.7577,-1.0333 0.9185,-1.5156 0.1607,-0.4822 0.1607,-3.6739 0.9414,-4.5924z"/>
  <path class="fil7 str0" d="M72.8958 90.0487c0.046,-0.6429 2.1355,-1.1481 2.8933,-0.264 0.7577,0.884 -3.4214,1.0333 -2.8933,0.264z"/>
  <path class="fil8 str0" d="M72.4823 91.4268c0.142,-0.2011 2.5449,1.2058 3.7405,0.3079 0.6227,-0.4676 1.5276,-0.7011 1.636,-0.5751 0.118,0.2912 -0.6645,1.0899 -1.8077,1.717 -1.1431,0.6271 -3.0406,-1.1972 -3.5688,-1.4498z"/>
  <path class="fil9 str0" d="M76.0187 88.8547c-0.3903,-0.3214 -0.0918,-4.3858 1.7911,-4.0643 1.8829,0.3215 1.4696,4.1332 1.2629,4.4088 -0.2067,0.2755 -0.2526,-0.3215 -1.4466,-0.3215 -1.1941,0 -1.6074,-0.023 -1.6074,-0.023z"/>
  <path class="fil10 str0" d="M76.0111 88.8581c0,0 -0.3354,-1.3731 0.3668,-2.1068 0.7023,-0.7337 1.6352,-0.4926 1.8972,-0.3144 0.2621,0.1782 0.9224,0.6603 1.0062,1.0377 0.0839,0.3773 -0.4062,1.0947 -0.7546,1.2997 -0.3484,0.205 -2.5156,0.0838 -2.5156,0.0838z"/>
  <ellipse class="fil11 str0" cx="77.7696" cy="87.7181" rx="0.5568" ry="0.8381"/>
  <path class="fil9 str0" d="M72.1188 89.5435c0,0 -0.0751,-4.3629 0.6468,-4.2365 0.7219,0.1264 0.4132,3.7314 0.4029,3.8692 -0.0103,0.1378 -1.0708,0.4247 -1.0708,0.4247"/>
  <path class="fil10 str0" d="M72.4481 89.2336c-0.4657,-0.0537 -0.5626,-2.7095 0.0115,-2.5947 0.574,0.1148 1.1136,2.0896 -0.0115,2.5947z"/>
  <ellipse class="fil11 str0" cx="72.672" cy="87.9477" rx="0.3042" ry="0.3559"/>
  <path class="fil5 str0" d="M81.8856 90.7377c0.1837,-0.046 5.4614,-0.5977 5.4614,-0.5977 0,0 -0.3638,-0.6653 -0.0883,-1.1704 0.2756,-0.5052 0.8726,-1.3089 0.8726,-1.3089 0,0 -0.4363,0.1837 -0.7118,0.1148 -0.2756,-0.0688 -0.3215,-0.4822 -0.3215,-0.4822 0,0 -0.3674,0.3445 -0.7118,0.2297 -0.3445,-0.1149 -0.5971,-0.5511 -0.5971,-0.5511l-3.9035 3.7658z"/>
 </g>
</svg>
