<?xml version="1.0" encoding="UTF-8"?>
<!DOCTYPE svg PUBLIC "-//W3C//DTD SVG 1.1//EN" "http://www.w3.org/Graphics/SVG/1.1/DTD/svg11.dtd">
<!-- Creator: CorelDRAW 2019 (64-Bit) -->
<svg xmlns="http://www.w3.org/2000/svg" xml:space="preserve" width="100mm" height="100mm" version="1.1" style="shape-rendering:geometricPrecision; text-rendering:geometricPrecision; image-rendering:optimizeQuality; fill-rule:evenodd; clip-rule:evenodd"
viewBox="0 0 100 100"
 xmlns:xlink="http://www.w3.org/1999/xlink"
 xmlns:xodm="http://www.corel.com/coreldraw/odm/2003">
 <defs>
  <style type="text/css">
   <![CDATA[
    .str0 {stroke:#2B2A29;stroke-width:0.2;stroke-miterlimit:22.9256}
    .str2 {stroke:#00A0E3;stroke-width:0.2;stroke-miterlimit:22.9256}
    .str1 {stroke:#2B2A29;stroke-width:0.2;stroke-miterlimit:22.9256}
    .fil0 {fill:none}
    .fil9 {fill:#FEFEFE}
    .fil10 {fill:#00A0E3}
    .fil3 {fill:#0090D6}
    .fil5 {fill:#23479D}
    .fil6 {fill:#2B2A29}
    .fil2 {fill:#644E43}
    .fil12 {fill:#877631}
    .fil8 {fill:#878787}
    .fil11 {fill:#8AA638}
    .fil7 {fill:#C7C7C7}
    .fil1 {fill:#FBC382}
    .fil4 {fill:white}
   ]]>
  </style>
 </defs>
 <g id="Layer_x0020_1">
  <metadata id="CorelCorpID_0Corel-Layer"/>
  <polygon class="fil0 str0" points="44.312,87.6841 48.994,87.396 49.2145,88.322 44.3027,88.2572 "/>
 </g>
 <g id="Layer_x0020_1_0">
  <metadata id="CorelCorpID_1Corel-Layer"/>
  <path class="fil1 str1" d="M53.6366 81.8238c0,0 -1.0836,2.2194 -3.5962,2.8336 -2.5125,0.6141 -7.5049,1.0744 -9.4032,-2.2198 -1.8984,-3.2942 -1.1167,-5.2484 -0.8375,-5.9184 0.2791,-0.67 0.6141,-3.6851 2.345,-4.9134 1.7308,-1.2284 9.771,-0.4467 11.111,0.3908 1.34,0.8375 2.5126,2.7917 2.68,4.1876 0.1675,1.3958 -0.3908,5.1367 -0.3908,5.1367 0,0 1.5215,-1.661 1.4377,-0.2233 -0.0837,1.4377 -0.9646,1.9298 -1.8998,1.9996 -0.9352,0.0698 -1.4462,-1.2734 -1.4462,-1.2734z"/>
  <path class="fil2 str1" d="M39.6977 76.7756c0,0 0.13,-3.9136 0.7163,-5.0861 0.5862,-1.1725 1.2702,-1.689 1.2702,-1.689l-0.8654 0.0838c0,0 1.1725,-1.0609 2.2054,-1.7309 1.0329,-0.67 3.9643,-1.1725 6.3931,-0.7538 2.4287,0.4188 4.6901,1.8426 5.2763,2.6243 0.5862,0.7816 0.1947,0.1573 0.753,1.1065 0.5584,0.9492 0.4474,-0.1294 1.6479,2.9973 1.2004,3.1267 0.1362,5.5959 -0.1396,5.8905 -0.2759,0.2946 -1.384,0.9229 -1.384,0.9229l-1.3798 -7.1764c0.0186,1.0981 0.0372,2.1962 0.0558,3.2943 -0.2605,-1.1074 -0.5493,-2.3346 -0.7817,-3.3222 -0.7351,-0.2605 -3.3128,0.3164 -4.9692,0.4746l2.4288 -1.2842c-1.5634,0.1955 -3.1267,0.3909 -4.6901,0.5863l1.5354 -0.9213c0,0 -1.9263,0.3629 -2.8196,0.335 -0.8934,-0.0279 -1.4517,-0.4745 -2.1496,-0.2512 -0.6979,0.2233 -1.1167,1.5075 -1.5634,2.0938 -0.4467,0.5862 -1.5398,1.8058 -1.5398,1.8058z"/>
  <g id="_2435378543232">
   <polygon class="fil3 str0" points="56.9724,72.9432 40.728,70.1134 41.2282,66.6242 57.575,69.4303 "/>
   <polygon class="fil4 str0" points="57.575,69.4303 61.5472,66.6165 36.6483,61.8314 41.2282,66.6242 "/>
   <path class="fil5 str0" d="M57.0837 72.2942c0,0 2.1739,-2.6661 4.4643,-2.544 2.2904,0.1221 5.4153,2.6842 6.8868,2.9961 1.4715,0.3118 5.0819,-0.1112 5.0819,-0.1112l-1.6244 2.335 2.8961 0.417c0,0 -3.3902,1.9608 -4.8725,1.412 -1.4822,-0.5487 -5.4242,-4.336 -6.9491,-4.7878 -1.525,-0.4519 -5.8831,0.2829 -5.8831,0.2829z"/>
   <path class="fil5 str0" d="M56.9724 72.9432c0,0 3.7381,-0.7138 5.2227,0.5091 1.4846,1.2229 2.6003,2.8142 3.0678,4.2075 0.4674,1.3933 0.3398,2.7286 1.4532,3.6458 1.1134,0.9173 5.4791,2.0165 5.8821,1.9885 0.4031,-0.0281 -1.8708,-2.0692 -1.8708,-2.0692l2.0828 -2.5936c0,0 -3.0597,1.9929 -4.0942,0.9487 -1.0346,-1.0443 -1.9494,-2.8162 -2.0506,-4.3779 -0.1012,-1.5616 -1.9651,-3.5272 -3.4131,-3.7357 -1.448,-0.2086 -6.2799,1.4768 -6.2799,1.4768z"/>
  </g>
  <ellipse class="fil6 str1" cx="50.0366" cy="78.276" rx="0.6281" ry="0.6002"/>
  <path class="fil0 str1" d="M49.165 82.7027c-0.3908,0.2791 -0.9833,1.3378 -2.5276,1.319 -1.6435,0.1798 -2.2535,-1.6912 -2.2535,-1.6912"/>
  <path class="fil7 str1" d="M30.4761 79.5408c0,0 8.6544,-2.1497 10.3014,-1.4796 1.6471,0.67 1.8705,5.9183 1.3401,6.728 -0.5305,0.8096 -9.8548,2.9871 -10.6365,2.5683 -0.7817,-0.4187 -1.6471,-6.0579 -1.5912,-6.7838 0.0558,-0.7259 0.5862,-1.0329 0.5862,-1.0329z"/>
  <ellipse class="fil8 str1" cx="36.0735" cy="82.5419" rx="3.4198" ry="3.2802"/>
  <ellipse class="fil6 str1" cx="36.0975" cy="82.638" rx="2.3878" ry="2.1741"/>
  <ellipse class="fil6 str1" cx="43.7636" cy="78.0601" rx="0.6839" ry="0.7817"/>
  <path class="fil1 str1" d="M29.4851 79.3733c0,0 0.1597,0.2884 0.2417,0.3698 0.5003,0.497 0.855,0.4092 0.9168,0.2443 0.0837,-0.2233 -0.6247,-1.1568 -0.9039,-1.094 -0.2791,0.0628 -0.2546,0.4799 -0.2546,0.4799z"/>
  <path class="fil1 str1" d="M31.3094 79.1186c0,0 0.1263,0.1238 0.3217,-0.0088 0.1954,-0.1326 -0.0697,-0.5375 -0.2512,-0.7608 -0.1815,-0.2233 -0.5235,-0.4746 -0.6561,-0.3768 -0.1326,0.0977 -0.0145,0.5892 -0.0145,0.5892l0.6001 0.5572z"/>
  <path class="fil1 str1" d="M30.1376 78.5026c-0.1536,0.1047 0.0359,0.6458 0.1108,0.7353 0.0748,0.0895 0.8034,0.6466 1.0338,0.4721 0.2303,-0.1745 0.0628,-0.4397 -0.4048,-0.8584 -0.4677,-0.4188 -0.7751,-0.3075 -0.7751,-0.3075l0.0353 -0.0415z"/>
  <path class="fil9 str1" d="M44.3539 86.0685c0.0838,0 0.9632,-0.363 1.2144,-0.1396 0.2512,0.2233 0.5723,0.3071 1.0469,0.3768 0.4746,0.0698 1.1027,-0.0837 1.2981,-0.1256 0.1955,-0.0418 0.9073,0.0279 1.019,0.0977 0.1117,0.0698 0.8376,4.5366 0.7119,4.8297 -0.1256,0.2931 -4.9134,0.5304 -5.1925,0.3489 -0.2792,-0.1814 -0.0978,-5.3879 -0.0978,-5.3879z"/>
  <path class="fil1 str1" d="M49.1423 87.2041c0,0 1.3955,2.8983 1.3955,3.1914 0,0.2932 -0.0977,0.5445 -0.1256,0.8655 -0.0279,0.321 -0.0559,0.7817 0.0837,0.8933 0.1396,0.1117 0.1535,-0.6141 0.2792,-0.5723 0.1256,0.0419 0.2093,0.7817 0.3489,0.7817 0.1396,0 0.0838,-0.8375 0.0838,-0.8375 0,0 0.2094,0.8375 0.335,0.8236 0.1256,-0.014 0.014,-0.8515 0.014,-0.8515 0,0 0.2791,0.6281 0.3908,0.684 0.1117,0.0558 0.0698,-0.6422 -0.0139,-0.7817 -0.0838,-0.1396 -0.6561,-1.6053 -0.8097,-2.0938 -0.1535,-0.4886 -1.6608,-2.9733 -1.9262,-3.0011 -0.2655,-0.0279 -0.2655,-0.0279 -0.2655,-0.0279l0.21 0.9263z"/>
  <polygon class="fil1 str1" points="42.372,84.8401 44.3462,86.3068 44.3248,87.0884 41.3153,85.2216 "/>
  <rect class="fil10 str2" x="44.2917" y="89.7333" width="5.1773" height="0.5292"/>
  <path class="fil1 str1" d="M45.5365 85.9056c0,0 0.4578,-0.0816 0.6044,-0.1723 0.1466,-0.0907 0.1646,-0.3635 0.1646,-0.3635l1.099 0.1222c0,0 0.1183,0.2553 0.2579,0.4228 0.1396,0.1675 0.3344,0.2553 0.3344,0.2553 0,0 -0.7445,0.1731 -1.2752,0.1663 -0.5307,-0.0068 -1.1851,-0.4308 -1.1851,-0.4308z"/>
  <polygon class="fil1 str1" points="47.5615,94.3736 48.1896,94.3317 48.2105,95.7694 48.2385,96.5372 47.4428,96.4464 "/>
  <polygon class="fil1 str1" points="45.6393,94.6978 45.6491,96.2999 46.4029,96.3418 46.3401,94.3178 "/>
  <path class="fil11 str1" d="M44.5741 91.4886c0,0 -0.2407,2.4941 -0.1709,2.6337 0.0698,0.1396 0.4885,0.5723 1.019,0.5863 0.5304,0.014 1.2981,-0.321 1.2981,-0.321l0.2792 -1.382c0,0 0.1117,1.382 0.2373,1.4238 0.1256,0.0419 0.6281,0.1536 1.0329,0.014 0.4048,-0.1396 0.9911,-0.3909 0.9492,-0.5025 -0.0419,-0.1117 -0.1535,-2.8476 -0.1535,-2.8476l-4.4913 0.3953z"/>
  <path class="fil12 str1" d="M48.385 95.7485c0,0 0.2931,-0.2443 0.7119,-0.335 0.4188,-0.0907 1.0609,0.0488 1.1447,0.3001 0.0837,0.2513 0.1535,1.0748 -0.6631,1.1237 -0.8166,0.0488 -2.0729,0.1326 -2.1357,-0.0279 -0.0628,-0.1606 -0.0488,-0.9004 -0.0488,-0.9004l0.991 -0.1605z"/>
  <path class="fil12 str1" d="M45.5514 95.7066c0,0 -1.6541,-0.8933 -1.9752,0 -0.321,0.8934 0.4118,0.8794 0.6282,0.9562 0.2163,0.0768 1.6471,0.2443 1.9193,0.1396 0.2722,-0.1047 0.4188,-0.7119 0.4188,-0.7119l-0.0125 -0.1226 -0.9786 -0.2613z"/>
  <path class="fil0 str1" d="M46.8495 78.431c0,0 0.3087,1.5435 0.4961,1.9293 0.1874,0.3858 0.2095,0.5402 -0.1102,0.8158 -0.3197,0.2756 -0.8269,0.2205 -0.8269,0.2205"/>
  <rect class="fil10 str2" x="44.3579" y="88.6529" width="4.8849" height="0.5292"/>
  <rect class="fil10 str2" x="44.4232" y="87.4038" width="4.7261" height="0.5292"/>
 </g>
</svg>
