<?xml version="1.0" encoding="UTF-8"?>
<!DOCTYPE svg PUBLIC "-//W3C//DTD SVG 1.1//EN" "http://www.w3.org/Graphics/SVG/1.1/DTD/svg11.dtd">
<!-- Creator: CorelDRAW 2019 (64-Bit) -->
<svg xmlns="http://www.w3.org/2000/svg" xml:space="preserve" width="100mm" height="100mm" version="1.1" style="shape-rendering:geometricPrecision; text-rendering:geometricPrecision; image-rendering:optimizeQuality; fill-rule:evenodd; clip-rule:evenodd"
viewBox="0 0 100 100"
 xmlns:xlink="http://www.w3.org/1999/xlink"
 xmlns:xodm="http://www.corel.com/coreldraw/odm/2003">
 <defs>
  <style type="text/css">
   <![CDATA[
    .str0 {stroke:#2B2A29;stroke-width:0.2;stroke-miterlimit:22.9256}
    .fil1 {fill:none}
    .fil4 {fill:#008DD2}
    .fil2 {fill:#7EDDFC}
    .fil0 {fill:#A75F4A}
    .fil3 {fill:#FD02FF}
   ]]>
  </style>
 </defs>
 <g id="Layer_x0020_1">
  <metadata id="CorelCorpID_0Corel-Layer"/>
  <g id="_2435705549904">
   <path class="fil0 str0" d="M38.6429 85.2729c0,0 2.283,4.282 3.7313,4.7647 1.4482,0.4828 4.8678,0.8851 6.6781,0.9655 1.8104,0.0805 5.2701,0.2012 6.477,-0.0804 1.2069,-0.2816 3.4195,-1.2874 4.1034,-1.6092 0.6839,-0.3219 2.4138,-4.7873 2.4138,-4.7873l0.8851 -4.1437c0,0 -6.6983,1.931 -6.8793,2.0316 -0.181,0.1006 -0.3621,1.9511 -0.6236,2.0115 -0.2615,0.0603 -3.2887,0.4727 -6.0042,0.4626 -2.7156,-0.01 -10.9024,-1.0761 -10.9024,-1.0761 0,0 -7.7643,-4.1236 -8.1264,-3.9627 -0.3621,0.1609 7.6034,4.9483 7.885,5.1896 0.2816,0.2414 0.3622,0.2339 0.3622,0.2339z"/>
   <ellipse class="fil1 str0" cx="57.6587" cy="83.9754" rx="0.4325" ry="0.5029"/>
   <ellipse class="fil1 str0" cx="59.801" cy="83.3116" rx="0.4023" ry="0.5029"/>
   <ellipse class="fil1 str0" cx="61.7219" cy="82.9093" rx="0.4325" ry="0.523"/>
   <polygon class="fil0 str0" points="41.6572,84.4782 41.0336,57.8058 41.7276,57.8259 42.3712,84.5787 "/>
   <path class="fil2 str0" d="M37.232 66.1335l8.2874 -1.5488c0,0 -1.75,-0.0001 -2.5747,4.5862 -0.8247,4.5862 2.8362,5.8735 2.5948,6.1149 -0.2414,0.2414 -3.6099,-1.3038 -5.8225,-0.9618 -2.2127,0.3419 -2.0625,1.8468 -2.0625,1.8468 0,0 -2.0518,-2.9367 -2.0316,-4.908 0.0201,-1.9713 1.6091,-5.1293 1.6091,-5.1293z"/>
   <polygon class="fil0 str0" points="51.3725,55.0501 52.2576,55.0702 51.7547,85.6046 50.9299,85.6649 "/>
   <path class="fil3 str0" d="M34.2143 58.8316c0,0 1.9311,1.0862 3.0575,0.704 1.1264,-0.3821 2.0718,-0.885 2.6149,-1.0057 0.5431,-0.1207 1.1632,-0.0272 1.1632,-0.0272l0.0641 2.7432c0,0 -0.4629,-0.5838 -1.1669,-0.5034 -0.7041,0.0805 -0.5834,1.1969 -2.4742,1.3477 -1.8908,0.1509 -3.3592,-1.6494 -3.3592,-1.6494l2.4742 0.3822 -2.3736 -1.9914z"/>
   <path class="fil2 str0" d="M46.8067 64.8462l8.2874 -1.5489c0,0 -1.75,0 -2.5747,4.5862 -0.8247,4.5862 2.8362,5.8735 2.5948,6.1149 -0.2414,0.2414 -3.6099,-1.3037 -5.8225,-0.9618 -2.2127,0.342 -2.0626,1.8469 -2.0626,1.8469 0,0 -2.0517,-2.9368 -2.0316,-4.908 0.0202,-1.9713 1.6092,-5.1293 1.6092,-5.1293z"/>
   <path class="fil2 str0" d="M46.7224 74.8616l9.0003 -0.4712c0,0 -2.6237,-0.2011 -3.3672,3.9337 -0.7436,4.1348 2.0743,4.5713 1.8566,4.7889 -0.2176,0.2176 -3.2546,-1.1754 -5.2494,-0.8672 -1.9948,0.3083 -1.8595,1.6651 -1.8595,1.6651 0,0 -1.8498,-2.6477 -1.8316,-4.4249 0.0181,-1.7772 1.4508,-4.6244 1.4508,-4.6244z"/>
   <path class="fil2 str0" d="M38.4989 76.1907l7.0253 -1.313c0,0 -1.4835,0 -2.1826,3.8878 -0.6991,3.8878 2.4043,4.9791 2.1996,5.1838 -0.2046,0.2046 -3.0601,-1.1052 -4.9358,-0.8154 -1.8757,0.2899 -1.7484,1.5656 -1.7484,1.5656 0,0 -1.7393,-2.4895 -1.7223,-4.1606 0.0171,-1.671 1.3642,-4.3482 1.3642,-4.3482z"/>
   <path class="fil3 str0" d="M44.2718 55.9351c0,0 1.931,1.0862 3.0574,0.704 1.1264,-0.3822 2.0718,-0.8851 2.6149,-1.0058 0.5431,-0.1207 1.1632,-0.0272 1.1632,-0.0272l0.0641 2.7432c0,0 -0.4629,-0.5838 -1.1669,-0.5033 -0.704,0.0804 -0.5833,1.1968 -2.4741,1.3477 -1.8908,0.1508 -3.3592,-1.6494 -3.3592,-1.6494l2.4741 0.3821 -2.3735 -1.9913z"/>
  </g>
  <path class="fil4 str0" d="M0.2189 83.2788c2.8222,1.9403 9.7013,6.2618 15.1694,5.0271 5.4681,-1.2347 6.7028,-1.9403 13.0528,1.0583 6.35,2.9986 8.1106,1.8759 13.9331,0.6734 5.8225,-1.2025 8.4933,0.1505 13.1551,0.8851 4.6618,0.7346 6.4258,1.0873 13.8341,-1.2057 7.4083,-2.293 7.232,-0.882 14.2875,-0.1764 7.0555,0.7056 10.5832,0.7056 11.6416,0.1764 1.0584,-0.5292 4.8289,-0.2205 4.8289,-0.2205l-0.1764 10.4731 -99.9025 0.1544 0.1764 -16.8452z"/>
  <path class="fil1 str0" d="M4.7161 93.7741c4.2333,-1.0583 4.2333,-2.3812 9.3486,0.6174 5.1153,2.9986 8.202,4.1452 15.2576,2.0285 7.0556,-2.1167 4.5862,0.6174 13.7584,-1.7639 9.1722,-2.3813 11.6418,-0.7939 17.1099,-0.6175 5.4681,0.1764 9.3487,-1.7639 13.7584,-1.9403 4.4097,-0.1764 6.3499,3.1751 10.0541,4.057 3.7042,0.8819 6.35,1.4112 9.525,0.1764"/>
 </g>
 <g id="Layer_x0020_1_0">
  <metadata id="CorelCorpID_1Corel-Layer"/>
 </g>
</svg>
