<?xml version="1.0" encoding="UTF-8"?>
<!DOCTYPE svg PUBLIC "-//W3C//DTD SVG 1.1//EN" "http://www.w3.org/Graphics/SVG/1.1/DTD/svg11.dtd">
<!-- Creator: CorelDRAW 2019 (64-Bit) -->
<svg xmlns="http://www.w3.org/2000/svg" xml:space="preserve" width="100mm" height="100mm" version="1.1" style="shape-rendering:geometricPrecision; text-rendering:geometricPrecision; image-rendering:optimizeQuality; fill-rule:evenodd; clip-rule:evenodd"
viewBox="0 0 100 100"
 xmlns:xlink="http://www.w3.org/1999/xlink"
 xmlns:xodm="http://www.corel.com/coreldraw/odm/2003">
 <defs>
  <style type="text/css">
   <![CDATA[
    .str7 {stroke:#2B2A29;stroke-width:0.0942;stroke-miterlimit:22.9256}
    .str8 {stroke:#005DAD;stroke-width:0.0942;stroke-miterlimit:22.9256}
    .str4 {stroke:#00A7EB;stroke-width:0.0706;stroke-miterlimit:22.9256}
    .str2 {stroke:#2B2A29;stroke-width:0.0706;stroke-miterlimit:22.9256}
    .str5 {stroke:#2B2A29;stroke-width:0.2;stroke-miterlimit:22.9256}
    .str1 {stroke:#393185;stroke-width:0.2;stroke-miterlimit:22.9256}
    .str0 {stroke:#393185;stroke-width:0.2;stroke-miterlimit:22.9256}
    .str6 {stroke:#00A7EB;stroke-width:0.2;stroke-miterlimit:22.9256}
    .str9 {stroke:#2B2A29;stroke-width:0.2;stroke-miterlimit:22.9256}
    .str3 {stroke:#2B2A29;stroke-width:0.0239;stroke-miterlimit:22.9256}
    .fil3 {fill:none}
    .fil22 {fill:#FEFEFE}
    .fil14 {fill:#FEFEFE}
    .fil15 {fill:#2B2A29}
    .fil0 {fill:#393185}
    .fil23 {fill:#1C1B17}
    .fil4 {fill:black}
    .fil24 {fill:#005DAD}
    .fil18 {fill:#0071BD}
    .fil10 {fill:#0090D6}
    .fil8 {fill:#00A0E3}
    .fil9 {fill:#00A7EB}
    .fil13 {fill:#23479D}
    .fil17 {fill:#2E3293}
    .fil28 {fill:#7B7EA8}
    .fil19 {fill:#7FA5A9}
    .fil5 {fill:#801B00}
    .fil7 {fill:#92F02E}
    .fil29 {fill:#A8E6F7}
    .fil27 {fill:#B1DEED}
    .fil20 {fill:#BBD5D6}
    .fil26 {fill:#DEEFFF}
    .fil11 {fill:#E5097F}
    .fil16 {fill:#EE2422}
    .fil1 {fill:#FBD3D3}
    .fil6 {fill:#FEFEFE}
    .fil21 {fill:#FF6FA6}
    .fil12 {fill:#FFCB05}
    .fil25 {fill:gold}
    .fil2 {fill:white}
   ]]>
  </style>
 </defs>
 <g id="Layer_x0020_1">
  <metadata id="CorelCorpID_0Corel-Layer"/>
  <polygon class="fil0 str0" points="40.991,83.076 49.2006,98.9395 42.4096,83.1987 "/>
  <polygon class="fil0 str1" points="40.3957,83.5591 42.0133,83.6118 40.8232,99.0725 40.1764,83.5628 "/>
  <g id="_2565255641888">
   <path class="fil1 str2" d="M64.4656 66.3413c0,0 0.6361,1.5128 0.5278,2.1529 -0.1083,0.6402 -0.3776,0.5966 -0.7657,1.7479 -0.3109,0.9221 -0.633,2.1341 -0.1633,3.5453 0.354,1.0632 1.658,2.0321 3.0239,2.3462 1.3656,0.314 2.7904,0.6413 3.5575,0.0207 0.7672,-0.6207 0.812,-1.0223 0.812,-1.0223 0,0 1.3776,0.6347 1.84,0.2018 0.4624,-0.4328 0.5808,-0.8058 0.5968,-1.1339 0.016,-0.328 0.0355,-0.9866 -0.3548,-1.1485 -0.3902,-0.1618 -0.7363,0.3487 -0.9215,0.5353 -0.1851,0.1861 0.2948,-0.2032 0.3284,-0.7397 0.0332,-0.5366 2.4726,-3.2448 2.0611,-4.8164 -0.4116,-1.5714 0.008,-3.8165 -2.1115,-4.581 -2.1192,-0.7643 -2.1539,-2.3626 -3.6266,-2.6727 -1.4726,-0.3101 -2.0419,1.6384 -2.7287,2.1301 -0.687,0.4918 -1.4395,1.4204 -1.5803,1.7752 -0.141,0.3548 -0.4951,1.6591 -0.4951,1.6591z"/>
   <ellipse class="fil2 str3" transform="matrix(0.575774 0.121232 -0.121232 0.575774 66.2229 70.3308)" rx="1.1906" ry="1.4993"/>
   <ellipse class="fil2 str3" transform="matrix(0.575774 0.121232 -0.121232 0.575774 68.48 71.071)" rx="1.2347" ry="1.7198"/>
   <path class="fil3 str2" d="M66.8496 71.2582c-0.2651,0.3154 0.0803,0.6267 -0.2658,0.8854 -0.3461,0.2586 -0.5427,0.3099 -0.4659,0.5117 0.0768,0.2018 0.8493,0.3113 0.8493,0.3113"/>
   <path class="fil3 str2" d="M65.5653 73.2018c0,0 0.393,0.6528 0.9027,0.8132 0.5098,0.1605 0.9781,0.0867 1.2053,0.0153 0.2272,-0.0714 -0.7175,0.5646 -1.2934,0.4036 -0.5761,-0.1609 -0.8146,-1.2321 -0.8146,-1.2321z"/>
   <ellipse class="fil4 str3" transform="matrix(0.575774 0.121232 -0.121232 0.575774 68.4087 70.8222)" rx="0.6059" ry="0.754"/>
   <ellipse class="fil4 str3" transform="matrix(0.575774 0.121232 -0.121232 0.575774 66.147 70.1671)" rx="0.6059" ry="0.754"/>
   <path class="fil5 str2" d="M63.6529 68.4408c0,0 0.1992,-0.5679 0.0501,-1.6865 -0.149,-1.1186 0.0514,-1.8188 0.3987,-2.7135 0.3475,-0.8946 0.1919,-2.1072 2.6238,-3.0801 2.4321,-0.9726 2.0153,-2.0149 4.1748,-1.1892 2.1595,0.8259 3.0521,1.1198 3.9127,1.5663 0.8605,0.4464 0.8978,0.2687 1.8093,0.7257 0.9114,0.457 4.7104,3.1925 2.5122,2.6767 -2.1981,-0.5157 -0.4117,0.4438 -0.3206,1.5233 0.0907,1.0798 0.1387,6.3932 -0.0805,7.9379 -0.2192,1.5448 1.2561,3.6054 0.4863,6.2539 -0.7699,2.6487 -1.625,3.6884 -0.7805,4.7147 0.8445,1.0263 0.8632,1.1894 1.7397,0.0481 0.8768,-1.1411 0.1738,-2.0847 0.1738,-2.0847 0,0 1.0451,1.3338 0.874,2.1463 -0.171,0.8123 -0.9461,1.9751 -2.1195,2.2584 -1.1732,0.2832 -1.4965,0.056 -2.1887,-0.9382 -0.6922,-0.9943 -1.0665,-1.2323 -1.6518,-2.7342 -0.5852,-1.5021 -0.6412,-2.9988 -0.5289,-4.0357 0.1121,-1.0371 0.1737,-2.0847 0.1737,-2.0847 0,0 -0.2185,-0.0955 -0.2239,-0.763 -0.0052,-0.6675 -0.8416,-1.133 -0.6744,-2.5222 0.1669,-1.3891 -0.7375,-1.9373 -1.0551,-1.4 -0.3175,0.5376 -0.0524,0.2326 -0.2768,-0.2126 -0.2247,-0.445 0.1844,-2.1355 0.0012,-2.6511 -0.1829,-0.5161 -0.5344,-1.4915 -0.5344,-1.4915l0.5358 -2.6712c0,0 -1.3121,1.9509 -1.7931,1.717 -0.4812,-0.2339 -0.3569,-2.4614 -0.3569,-2.4614 0,0 -0.5681,1.3123 -0.9917,1.4351 -0.4236,0.123 -0.7629,-2.5471 -0.7629,-2.5471 0,0 0.1053,2.6473 -0.3261,2.5565 -0.4317,-0.0909 -1.2935,-2.924 -1.2935,-2.924 0,0 0.0653,3.0897 -0.0911,2.9508 -0.1563,-0.1393 -0.4275,-2.1228 -0.8017,-2.299 -0.3741,-0.176 -0.2994,1.4837 -0.576,1.664 -0.2765,0.1804 -0.9753,-0.6561 -0.9753,-0.6561 0,0 0.2484,2.5978 0.0198,2.5496 -0.2286,-0.048 -1.0825,0.4217 -1.0825,0.4217z"/>
   <path class="fil3 str2" d="M66.069 68.1011c0.278,-0.3125 0.9568,-0.0106 1.1052,0.4185"/>
   <path class="fil3 str2" d="M68.401 68.9899c0.4488,-0.1175 1.0035,-0.1069 1.1812,0.4343"/>
   <line class="fil3 str2" x1="66.0568" y1="69.2918" x2="66.0425" y2= "69.0767" />
   <path class="fil3 str2" d="M66.4525 69.3022c0.0254,-0.0575 0.0712,-0.2434 0.0712,-0.2434"/>
   <path class="fil3 str2" d="M66.8185 69.4688c0.0714,-0.134 0.2183,-0.2655 0.1993,-0.2695"/>
   <path class="fil3 str2" d="M67.0297 69.6459c0.0828,-0.0157 0.2557,-0.1283 0.2557,-0.1283"/>
   <path class="fil3 str2" d="M68.234 69.9227c-0.0142,-0.0892 -0.0781,-0.3214 -0.0781,-0.3214"/>
   <path class="fil3 str2" d="M68.7011 69.9082c0.0571,-0.1138 0.1557,-0.2987 0.1557,-0.2987"/>
   <line class="fil3 str2" x1="69.1045" y1="70.0395" x2="69.3639" y2= "69.9087" />
   <path class="fil3 str2" d="M69.4518 70.5304c0.0921,-0.06 0.3354,-0.2078 0.3354,-0.2078"/>
   <path class="fil1 str2" d="M72.5427 82.7952c0,0 0.4635,0.607 0.5796,0.74 0.1161,0.1329 0.1602,0.3942 0.441,0.6061 0.2808,0.2117 0.7056,0.8962 0.6234,0.9582 -0.082,0.062 -0.1105,-0.0449 -1.017,-0.3832 -0.0622,-0.0231 0.6008,1.2108 0.4154,1.2639 -0.1855,0.0531 -0.7929,-0.9253 -0.7929,-0.9253 0,0 0.7732,1.4013 0.6055,1.4502 -0.1674,0.0488 -0.9124,-1.2131 -0.9124,-1.2131 0,0 0.4725,0.9255 0.2129,1.0243 -0.2596,0.0988 -0.6259,-0.9363 -0.6259,-0.9363 0,0 0.1353,0.6937 -0.1053,0.7127 -0.2406,0.019 -0.4257,-1.0872 -0.3428,-1.2953 0.0829,-0.2078 0.1149,-0.4324 0.0822,-0.6507 -0.0326,-0.2185 -0.4384,-1.4612 -0.4384,-1.4612l1.2747 0.1097z"/>
   <path class="fil1 str2" d="M60.8092 82.0579c0,0 -0.5381,0.5423 -0.6703,0.6591 -0.1323,0.1168 -0.4465,0.0618 -0.6352,0.3585 -1.038,1.8452 0.4145,0.6633 0.0955,0.9509 -0.1577,0.1422 0.2758,-0.1294 0.3404,-0.1442 0.0642,-0.015 -0.3966,0.694 -0.2197,0.7706 0.177,0.0764 0.5503,-0.3862 0.5503,-0.3862 0,0 -0.4143,0.6235 -0.2544,0.6936 0.1599,0.07 0.5283,-0.4187 0.5283,-0.4187 0,0 -0.2622,0.3383 -0.0175,0.4699 0.2445,0.1314 0.4154,-0.3296 0.4154,-0.3296 0,0 0.1517,0.1151 0.3879,0.1649 0.2359,0.0501 0.1872,-0.4676 0.1318,-0.6847 -0.0555,-0.2171 -0.0583,-0.4436 0.0023,-0.6562 0.0604,-0.2124 0.6231,-1.3922 0.6231,-1.3922l-1.2779 -0.0557z"/>
   <path class="fil6 str2" d="M66.8543 76.7223c0,0 -1.6692,0.0458 -2.1664,0.4024 -0.836,0.5992 -4.877,3.8398 -4.6942,5.0773 1.7144,0.53 0.921,0.4107 2.1442,0.797 1.7955,-2.1943 2.1624,-0.7228 3.1856,-4.1619 0.1426,-0.48 -1.1417,4.7223 -0.8691,5.0855 0.2723,0.3633 1.8552,0.9342 2.8411,0.9861 0.9861,0.0519 3.2434,-0.8043 3.3472,-0.999 0.1037,-0.1946 -0.9732,-4.9168 -0.7654,-5.1504 0.2074,-0.2335 0.214,2.2768 0.4086,2.653 0.1945,0.3764 0.6162,2.2767 0.9146,2.4974 0.2982,0.2204 0.7373,0.0072 1.0616,-0.2784 0.3243,-0.2853 0.6898,-0.5391 0.6898,-0.5391 0,0 -1.972,-5.4618 -2.4389,-5.9287 -0.4673,-0.4671 -3.5356,-0.5291 -3.5356,-0.5291l-0.1231 0.0879z"/>
   <polygon class="fil1 str2" points="68.6423,87.5093 70.0175,87.4057 71.4642,95.531 69.9867,95.8623 "/>
   <path class="fil1 str2" d="M65.2394 87.7106l-0.934 8.199c0,0 1.6281,0.502 1.6281,-0.0517 0,-0.5538 1.0185,-8.4067 1.0185,-8.4067l-1.7126 0.2594z"/>
   <path class="fil7 str2" d="M64.9845 83.8899c0,0 -3.8144,10.9886 -3.2435,11.5763 0.5706,0.5878 2.3351,-2.3003 2.8022,-2.1966 0.4671,0.1038 0.6228,1.5568 1.2455,1.5568 0.6227,0 0.9857,-2.2833 1.6605,-2.0237 0.6746,0.2594 1.1935,1.9718 1.8162,2.0237 0.6229,0.0521 2.6468,-2.4389 2.6468,-2.4389 0,0 0.1039,1.9201 1.0896,1.9718 0.9859,0.0519 2.0241,-0.882 2.0241,-0.882l-4.3832 -9.5676c0,0 -1.7922,0.5639 -3.0117,0.4861 -1.2196,-0.0778 -2.6465,-0.5059 -2.6465,-0.5059z"/>
   <path class="fil8 str2" d="M64.3714 95.5597l1.5984 0.1229c0,0 0.3112,2.4649 0,2.5167 -0.3115,0.0521 -0.3632,-0.0128 -0.3632,-0.0128l-0.1426 -1.1028c0,0 -0.8045,0.9081 -1.4144,1.0249 -0.6096,0.1167 -1.1417,0.0519 -1.4658,0 -0.3244,-0.052 -0.5838,-0.2855 -0.4541,-0.5708 0.1297,-0.2854 1.5178,-0.6616 1.8162,-0.9469 0.2986,-0.2855 0.4255,-1.0312 0.4255,-1.0312z"/>
   <path class="fil8 str2" d="M71.4806 95.3421l-1.5982 0.1231c0,0 -0.3113,2.4648 0,2.5167 0.3113,0.0519 0.3633,-0.0129 0.3633,-0.0129l0.1426 -1.1027c0,0 0.8043,0.9081 1.414,1.0249 0.6099,0.1166 1.1417,0.0519 1.4661,0 0.3243,-0.0521 0.5839,-0.2855 0.454,-0.571 -0.1297,-0.2854 -1.5177,-0.6616 -1.8161,-0.9468 -0.2986,-0.2857 -0.4257,-1.0313 -0.4257,-1.0313z"/>
   <polygon class="fil9 str4" points="70.2682,79.819 71.3558,79.1257 71.549,79.623 70.2391,80.3263 "/>
   <polygon class="fil9 str4" points="70.3678,80.9778 71.8223,80.3667 71.9966,80.8975 70.4402,81.4774 "/>
   <polygon class="fil9 str4" points="70.8155,82.5156 72.3638,81.7179 72.5048,82.0443 70.9226,82.8831 "/>
   <polygon class="fil9 str4" points="65.4154,79.297 69.8369,79.4076 69.8625,79.9854 65.2267,79.7521 "/>
   <polygon class="fil9 str4" points="65.0699,80.4745 69.9534,80.6298 70.0574,81.0777 64.9684,80.9654 "/>
   <polygon class="fil9 str4" points="64.8395,81.6679 70.1629,81.87 70.2623,82.3958 64.7535,82.1338 64.8938,81.67 "/>
   <polygon class="fil9 str4" points="64.6572,82.845 70.4336,83.0312 70.4473,83.4917 64.5906,83.3758 "/>
   <path class="fil9 str4" d="M64.5944 77.3534c0,0 1.2735,0.3554 2.784,0.1778 1.5104,-0.1778 3.1346,-0.3677 3.1346,-0.3677l0.2158 0.4453c0,0 -2.3583,0.6109 -3.3207,0.5813 -0.9625,-0.0295 -3.2037,-0.5463 -3.2037,-0.5463l0.39 -0.2904z"/>
   <polygon class="fil9 str4" points="62.9812,78.5697 64.7582,80.1541 64.3909,81.0241 62.3677,79.0432 "/>
   <polygon class="fil9 str4" points="61.9074,79.5617 63.566,81.6423 63.0994,81.9607 61.4633,80.0283 "/>
   <polygon class="fil9 str4" points="60.8412,80.5871 62.7086,82.3698 62.4013,82.6914 60.5308,80.9731 60.8715,80.616 "/>
  </g>
  <g id="_2565207015328">
   <polygon class="fil10 str2" points="77.167,63.9058 67.5039,61.2576 68.0093,59.1968 77.7356,61.8368 "/>
   <polygon class="fil2 str2" points="77.7356,61.8368 80.3021,60.3844 65.5172,56.0572 68.0093,59.1968 "/>
   <path class="fil11 str2" d="M77.2721 63.5235c0,0 1.4699,-1.4694 2.8484,-1.2619 1.3785,0.2076 3.1202,1.9255 3.9922,2.1987 0.872,0.2731 3.0808,0.2315 3.0808,0.2315l-1.1182 1.3035 1.7277 0.4197c0,0 -2.1649,0.9757 -3.0296,0.5599 -0.8649,-0.4157 -3.0296,-2.9155 -3.9259,-3.2756 -0.8964,-0.3602 -3.5754,-0.1758 -3.5754,-0.1758z"/>
   <path class="fil11 str2" d="M77.167 63.9058c0,0 2.3029,-0.2082 3.1299,0.6114 0.8271,0.8197 1.4096,1.8383 1.6114,2.7004 0.2019,0.8621 0.0472,1.6545 0.6675,2.2692 0.6203,0.6149 3.1974,1.5294 3.4429,1.5362 0.2455,0.0068 -1.0115,-1.3492 -1.0115,-1.3492l1.4105 -1.4314c0,0 -1.9667,1.0142 -2.5318,0.328 -0.5653,-0.6862 -1.0159,-1.8014 -0.9861,-2.7428 0.0294,-0.9413 -0.9842,-2.228 -1.8479,-2.438 -0.864,-0.21 -3.8849,0.5162 -3.8849,0.5162z"/>
  </g>
  <g id="_2565255625600">
   <path class="fil1 str5" d="M81.6545 74.3079c1.3896,0.5559 3.7797,0.9449 4.947,0.0556 1.1672,-0.8893 1.2645,-0.5975 1.6397,-0.5697 0.3752,0.0278 1.6397,-0.5837 1.4174,-1.5564 -0.2224,-0.9727 -1.7509,-0.4863 -2.0288,-0.5975 -0.2779,-0.1112 2.793,-3.0849 1.6813,-4.6412 -1.1116,-1.5564 -1.5563,-4.28 -3.9464,-4.3912 -2.3901,-0.1111 -3.8074,0.5281 -4.141,1.3897 -0.3335,0.8615 -0.3057,2.7236 -0.4446,3.4739 -0.139,0.7504 -1.0283,1.8065 -1.2785,2.5291 -0.2501,0.7226 -0.8337,2.4457 2.1539,4.3077z"/>
   <path class="fil12 str5" d="M88.6067 73.717c0.76,-0.0483 3.2056,-1.7991 3.6225,-3.8835 0.4169,-2.0844 -0.2779,-5.5306 -1.334,-6.6979 -1.0561,-1.1673 -4.4189,-2.5291 -5.1137,-2.6958 -0.6948,-0.1668 -1.4452,-0.7504 -1.1395,-1.2507 0.3057,-0.5002 -0.9727,0.0834 -1.0005,0.806 -0.0278,0.7226 -1.0283,-0.8893 -0.8059,-1.6397 0.2223,-0.7504 -0.1946,2.2789 -0.1946,2.2789 0,0 -1.2229,-1.0005 -1.1395,-1.7231 0.0834,-0.7226 0.0556,2.2511 0.0556,2.2511 0,0 -0.667,-0.0277 -1.2228,-0.1945 -0.5558,-0.1667 0.3335,1.0283 0.5836,1.334 0.2501,0.3057 0.8616,1.3896 1.2506,1.6119 0.3891,0.2224 2.5569,0.4447 2.5569,0.4447l-1.5841 0.3891 3.3628 0.0278 -0.945 0.8893 2.1956 0.4447 -0.6392 1.8898 0.806 -0.3057c0,0 0.2223,1.0562 0.1945,1.6398 -0.0278,0.5836 0.2501,0.7781 0.2501,0.7781 0,0 -0.5796,0.7884 -0.5717,1.1672 0.008,0.3788 1.4229,-0.0426 1.8675,0.6799 0.4447,0.7226 -1.0552,1.7586 -1.0552,1.7586z"/>
   <polygon class="fil10 str5" points="92.5904,67.3569 86.2261,59.9642 87.7546,58.5746 94.1745,65.9951 "/>
   <polygon class="fil2 str5" points="94.1745,65.9951 97.0371,66.2174 87.4489,54.6838 87.7546,58.5746 "/>
   <path class="fil13 str5" d="M92.8831 67.1053c0,0 1.9862,-0.3876 2.9867,0.5295 1.0005,0.9171 1.473,3.2517 2.0288,3.9464 0.5558,0.6948 2.3623,1.8621 2.3623,1.8621l-1.6119 0.4447 1.1672 1.2784c0,0 -2.2789,-0.3891 -2.7513,-1.195 -0.4725,-0.806 -0.8616,-4.002 -1.3897,-4.7802 -0.528,-0.7782 -2.7921,-2.0859 -2.7921,-2.0859z"/>
   <path class="fil13 str5" d="M92.5904 67.3569c0,0 1.9731,1.0839 2.1955,2.1956 0.2223,1.1116 0.1389,2.2511 -0.1668,3.0571 -0.3057,0.806 -0.8615,1.3618 -0.6948,2.1955 0.1667,0.8338 1.7509,2.9738 1.9454,3.1127 0.1946,0.139 -0.0833,-1.6397 -0.0833,-1.6397l1.9176 -0.3891c0,0 -2.14,-0.2501 -2.2233,-1.1117 -0.0834,-0.8615 0.1591,-2.007 0.6947,-2.7513 0.5357,-0.7443 0.4169,-2.3346 -0.1667,-2.9738 -0.5836,-0.6392 -3.4183,-1.6953 -3.4183,-1.6953z"/>
   <path class="fil14 str5" d="M84.9125 70.5949c0.264,-0.1112 0.9172,-1.5564 0.3057,-1.9455 -0.6114,-0.3891 -1.6675,1.2367 -1.6119,1.3618 0.0556,0.1251 1.3062,0.5837 1.3062,0.5837z"/>
   <path class="fil14 str5" d="M82.4807 69.5804c0,0 -0.792,-0.2501 -1.0005,-0.4446 -0.2084,-0.1946 0.5698,-1.8899 1.1117,-1.6258 0.5419,0.264 1.0005,0.8476 -0.1112,2.0704z"/>
   <path class="fil3 str5" d="M82.8559 69.7889c-0.1528,0.1806 -0.5211,0.1667 -0.792,0.3682 -0.271,0.2015 -0.3752,0.3961 0.0139,0.5489 0.389,0.1529 0.6948,0.1529 0.6948,0.1529"/>
   <ellipse class="fil15 str5" cx="84.7247" cy="70.0739" rx="0.3613" ry="0.3474"/>
   <ellipse class="fil15 str5" cx="82.3937" cy="69.0629" rx="0.3022" ry="0.3995"/>
   <path class="fil16 str5" d="M83.7379 72.054c-0.264,0.1529 -0.9032,0.4586 -1.3618,0.1946 -0.4586,-0.264 -0.7365,-0.6392 -0.7365,-0.6392 0,0 0.2502,0.792 0.7782,0.9588 0.528,0.1668 1.3201,-0.5142 1.3201,-0.5142z"/>
   <path class="fil3 str5" d="M87.9099 72.4017c0.1945,-0.0972 0.7921,-0.1528 0.8476,-0.0278 0.0556,0.1251 -0.0833,0.7365 -0.3612,0.8616"/>
   <path class="fil1 str5" d="M75.8872 77.577c0,0 -0.6787,-0.1553 -0.8455,-0.3707 -0.1668,-0.2154 -0.1667,-0.4377 -0.4447,-0.3821 -0.2779,0.0556 -0.2918,0.2709 -0.3057,0.4794 -0.0139,0.2084 0.4169,0.5628 0.4655,0.5906 0.0487,0.0278 -1.2298,0.3195 -1.1672,0.6392 0.0625,0.3196 1.0838,0.132 1.0838,0.132 0,0 -1.056,0.2154 -0.9588,0.5836 0.0973,0.3682 1.1395,0.007 1.1395,0.007 0,0 -0.9589,0.2744 -0.8721,0.5732 0.0869,0.2988 0.9484,-0.0347 0.9484,-0.0347 0,0 -0.7643,0.1945 -0.667,0.396 0.0973,0.2015 0.9727,0.0625 1.0352,0.0625 0.0626,0 0.9797,-0.0556 1.2298,-0.2432 0.2501,-0.1875 -0.3543,-2.4178 -0.3543,-2.4178l-0.2869 -0.015z"/>
   <path class="fil1 str5" d="M90.9524 80.663c0,0 0.4098,0.5281 0.5975,0.9936 0.1876,0.4655 0.2154,0.9588 0.1181,1.1464 -0.0973,0.1876 -0.4586,-0.674 -0.4586,-0.674 0,0 0.3752,0.7991 0.2084,0.9658 -0.1667,0.1667 -0.521,-0.6531 -0.521,-0.6531 0,0 0.3404,0.8129 0.1042,0.9796 -0.2363,0.1668 -0.7643,-0.8823 -0.7643,-0.8823 0,0 0.3196,1.0005 0.132,1.1186 -0.1876,0.1181 -0.8129,-0.8824 -0.9241,-0.9449 -0.1111,-0.0626 -0.5558,0.5697 -0.7712,0.389 -0.2154,-0.1806 0,-0.4724 0.0486,-0.7017 0.0487,-0.2293 0.0904,-1.334 0.0904,-1.334l2.14 -0.403z"/>
   <path class="fil2 str5" d="M86.3533 75.6395c0,0 1.2089,0.8894 2.2233,1.7926 1.0144,0.9033 2.3207,2.8348 2.3485,3.0571 0.0278,0.2224 -0.1807,0.403 -0.7504,0.5976 -0.5698,0.1945 -1.6676,0.528 -1.7787,0.4168 -0.1112,-0.1111 -0.931,-1.1533 -1.209,-1.5563 -0.2779,-0.403 -1.8203,-1.9037 -1.8203,-1.9037 0,0 -0.2501,-0.5976 0.0972,-1.2646 0.3474,-0.667 0.8894,-1.1395 0.8894,-1.1395z"/>
   <path class="fil2 str5" d="M81.6425 75.2088c0,0 -1.8203,0.7921 -2.7931,1.1951 -0.9727,0.4029 -2.8069,0.8476 -2.8069,0.8476 0,0 -0.3197,0.1667 -0.0556,0.9866 0.264,0.8199 0.7643,1.9038 0.8615,1.8899 0.0973,-0.0139 1.4452,-0.5142 1.9871,-0.6114 0.542,-0.0973 1.7232,-0.7643 1.7232,-0.7643l1.0838 -3.5435z"/>
   <path class="fil2 str5" d="M85.3185 74.8436l1.0348 0.7959 0.0972 3.5991c0,0 0.1459,1.5459 0.1876,1.7856 0.0417,0.2397 0.4759,3.0294 0.4759,3.0294 0,0 -2.2789,0.6114 -4.0298,0.528 -1.7509,-0.0834 -3.613,-0.667 -3.613,-0.667 0,0 0.3974,-3.1175 0.917,-4.7107 0.5196,-1.5933 1.2543,-3.9951 1.2543,-3.9951 0,0 2.0043,-0.6462 2.3726,-0.6115 0.3682,0.0348 1.3034,0.2463 1.3034,0.2463z"/>
   <path class="fil9 str5" d="M87.0009 76.132c0,0 -0.6059,0.37 -0.8769,0.9189 -0.271,0.5489 -0.3335,1.2715 -0.3335,1.2715l0.4794 0.4099c0,0 -0.1458,-0.6044 0.4725,-1.195 0.6184,-0.5906 0.9102,-0.8338 0.9102,-0.8338l-0.6517 -0.5715z"/>
   <path class="fil17 str5" d="M81.7082 94.7175c0,0 0.5241,0.328 0.538,1.0784 0.0139,0.7504 -0.0417,1.9455 -0.0417,1.9455 0,0 -1.7926,0.0416 -2.3067,-0.0556 -0.5142,-0.0973 -1.8204,0.1806 -2.4319,0.1806 -0.6114,0 -1.3062,-0.0278 -1.862,-0.3196 -0.5558,-0.2918 -0.4169,-1.07 -0.4169,-1.07 0,0 0.1251,-0.6531 0.4864,-1.1117 0.3613,-0.4585 1.4312,-1.195 1.7647,-1.2228 0.3336,-0.0278 2.2234,-0.5142 2.2234,-0.5142l1.8482 0.5142 0.1985 0.5752z"/>
   <path class="fil17 str5" d="M84.6779 94.1562c0,0 -0.2084,-0.3335 -0.4864,0.5975 -0.2779,0.9311 -0.139,2.015 -0.2084,2.3068 -0.0695,0.2918 -0.2224,0.528 -0.0417,0.5975 0.1806,0.0695 0.0556,0.3196 0.6114,0.2918 0.5558,-0.0278 1.2645,-0.264 1.7926,-0.264 0.528,0 1.3062,0.6949 2.9042,0.2363 1.598,-0.4586 2.0844,-0.6115 2.3345,-0.9172 0.2501,-0.3057 -0.0278,-0.6114 -0.1667,-0.792 -0.139,-0.1807 -0.3057,-0.6948 -0.8338,-1.0978 -0.528,-0.403 -1.1533,-0.5558 -1.8343,-0.6114 -0.6809,-0.0556 -1.7787,-0.8338 -1.8759,-0.8616 -0.0973,-0.0278 -1.6814,-0.125 -1.6814,-0.125l-0.5141 0.6391z"/>
   <path class="fil18 str5" d="M86.9926 84.0847c0,0 0.4507,3.7489 1.2844,4.8605 0.8338,1.1117 2.1678,5.2805 2.1678,5.2805 0,0 -2.5012,-0.3057 -3.2794,0.139 -0.7782,0.4446 -3.5296,0.2501 -3.5296,0.2501l-0.3891 -9.0324 -0.4447 9.0046c0,0 -1.8343,0.3057 -3.0571,0.1112 -1.2228,-0.1946 -3.6129,-0.2779 -3.6129,-0.2779 0,0 1.2784,-2.5013 2.0844,-5.1971 0.806,-2.6959 1.2548,-5.3086 1.2548,-5.3086 0,0 2.3387,0.5555 3.613,0.667 1.2742,0.1115 3.9084,-0.4969 3.9084,-0.4969z"/>
   <path class="fil9 str5" d="M76.6619 77.1931c0,0 -0.0834,0.6705 0.073,1.2159 0.1563,0.5454 0.6629,1.538 0.6629,1.538l0.6788 -0.224c0,0 -0.5879,-1.2827 -0.6435,-1.7969 -0.0556,-0.5141 -0.0519,-1.0324 -0.0519,-1.0324l-0.7193 0.2994z"/>
   <path class="fil9 str5" d="M79.0937 76.3767c0,0 -0.2363,0.2571 -0.1043,0.9172 0.1321,0.66 0.5559,1.8898 0.5559,1.8898 0,0 -0.6204,0.4225 -0.7098,0.3329 -0.0893,-0.0897 -0.666,-1.8267 -0.6729,-2.1672 -0.0069,-0.3404 0.0248,-0.7038 0.0248,-0.7038l0.9063 -0.2689z"/>
   <path class="fil9 str5" d="M80.0454 75.9669c0,0 -0.2084,0.2918 -0.132,0.6392 0.0764,0.3474 0.4516,2.133 0.4516,2.133l0.2474 -0.2301 0.2807 -1.1873c0,0 -0.2779,-0.9658 -0.1668,-1.2437 0.1112,-0.2779 0.1251,-0.4863 0.1251,-0.4863l-0.806 0.3752z"/>
   <path class="fil10 str6" d="M85.6695 75.1136c0,0 -0.851,0.5823 -1.6708,0.4989 -0.8199,-0.0833 -1.5841,-0.7643 -1.5841,-0.7643l-0.8269 0.5399c0,0 0.2293,0.7802 1.8691,0.9748 1.6397,0.1946 2.7999,-0.6328 2.7999,-0.6328l-0.5872 -0.6165z"/>
   <path class="fil9 str5" d="M81.2999 76.5361c0,0 1.6937,0.8341 3.3002,0.6884 1.6066,-0.1458 1.591,-0.0983 1.591,-0.0983l0.0435 0.9174c0,0 -1.4352,0.3759 -2.8797,0.1814 -1.4445,-0.1946 -2.4436,-0.6256 -2.4436,-0.6256l0.3886 -1.0633z"/>
   <path class="fil9 str5" d="M80.6678 78.3353c0,0 0.7669,0.7096 2.3094,0.7235 1.5424,0.0139 3.4624,-0.2235 3.4624,-0.2235l0.0683 0.9975c0,0 -2.3218,0.4766 -3.7114,0.2682 -1.3896,-0.2084 -2.4832,-0.6543 -2.4832,-0.6543l0.3545 -1.1114z"/>
   <path class="fil9 str5" d="M86.5899 80.6321c0,0 -1.4867,0.5388 -3.4322,0.4277 -1.9454,-0.1111 -3.1088,-0.555 -3.1088,-0.555l-0.0942 0.8051c0,0 1.1323,0.5837 3.1473,0.6393 2.0149,0.0556 3.5934,-0.5698 3.5934,-0.5698l-0.1055 -0.7473z"/>
   <path class="fil9 str5" d="M79.8016 82.109l-0.1251 0.8198c0,0 1.063,0.7574 3.4253,0.8407 2.3623,0.0834 3.8736,-0.6046 3.8736,-0.6046l-0.1569 -1.0031c0,0 -1.7713,0.7601 -3.7862,0.5933 -2.0149,-0.1667 -3.2307,-0.6461 -3.2307,-0.6461z"/>
   <path class="fil9 str5" d="M88.3876 77.2659c0,0 -0.4849,0.1879 -1.0199,0.7646 -0.535,0.5767 -0.7434,1.1742 -0.7434,1.1742l0.5489 0.5906c0,0 0.2292,-0.5836 0.792,-1.0283 0.5628,-0.4446 1.1171,-0.8305 1.1171,-0.8305l-0.6947 -0.6706z"/>
   <path class="fil9 str5" d="M89.7266 78.6977c0,0 -0.8443,0.3681 -1.2125,0.7224 -0.3683,0.3544 -0.8755,1.0075 -0.8755,1.0075 0,0 0.4377,0.6601 0.4933,0.6392 0.0556,-0.0208 0.1668,-0.3891 1.0839,-0.8685 0.9172,-0.4794 1.1763,-0.6016 1.1763,-0.6016l-0.6655 -0.899z"/>
  </g>
  <path class="fil19 str7" d="M29.7033 80.8426c0.1906,0.0323 1.2393,0.4343 1.886,1.0635 0.6467,0.6292 6.4945,0.0672 6.0402,0.3817 -0.2489,0.1723 -3.1406,1.6308 -4.4139,1.8165 -1.0503,0.1531 -2.5747,-0.1582 -2.7274,-0.3804 -0.338,-0.4915 -0.7849,-2.8813 -0.7849,-2.8813z"/>
  <path class="fil20 str7" d="M30.0906 93.5947c0,0 3.181,-2.6741 2.6392,-5.1385 -0.5418,-2.4644 -1.7653,-4.4394 -2.5518,-6.0649 -0.7865,-1.6254 -0.1748,-2.0274 0.1573,-2.6217 0.3321,-0.5942 -0.3495,-1.8876 -0.3495,-1.8876 0,0 1.6079,2.3421 2.5692,2.2197 0.9613,-0.1223 1.6604,-1.3108 1.6255,-1.7653 -0.035,-0.4544 2.3205,-0.5413 2.8576,-0.9001 1.3909,-0.9289 1.2802,-1.6439 1.2029,-1.9835 -0.2672,0.0979 -0.1979,1.1708 -2.6098,1.0485 -2.412,-0.1224 -2.6742,-0.1923 -4.1773,-0.9963 -1.5031,-0.804 -1.6779,-1.1535 -2.744,-0.6467 -1.0662,0.5069 -1.1011,0.1923 -1.5206,1.3808 -0.4195,1.1885 -0.4719,3.4956 0.4195,5.1036 0.8913,1.608 2.8314,4.754 3.2858,6.5717 0.4545,1.8177 -0.804,5.6803 -0.804,5.6803z"/>
  <path class="fil19 str7" d="M26.3284 81.2769c-0.0699,0.1573 0.1923,0.6817 -0.0874,1.2585 -0.2796,0.5767 -0.6117,1.0312 -0.8389,1.3982 -0.2272,0.367 -0.2272,1.5381 -0.7166,1.6604 -0.4894,0.1224 -1.3633,-0.6117 -1.7304,-1.3458 -0.367,-0.7341 0.07,-3.4082 0.07,-3.4082l3.3033 0.4369z"/>
  <path class="fil21 str7" d="M34.0537 78.1484c-0.402,-0.0175 -3.2684,-0.9264 -3.7053,-1.8352 -0.437,-0.9089 1.0312,2.5693 1.8526,2.8664 0.8215,0.2971 1.1885,0.2971 1.3109,-0.1573 0.1223,-0.4544 0,-0.769 0,-0.769l0.5418 -0.1049z"/>
  <path class="fil19 str7" d="M28.1855 92.7209c-0.1048,0 -2.3245,-1.3458 -3.0586,-1.7653 -0.7341,-0.4195 -2.7091,-0.4369 -2.7266,0.035 -0.0175,0.4719 1.4332,0.9787 1.5031,1.608 0.0699,0.6292 -0.0349,1.4681 0.3321,2.0624 0.7428,1.1098 3.2684,1.0836 4.387,0.8564 1.1186,-0.2272 -0.8739,1.975 1.4332,2.1848 2.3071,0.2097 3.4956,-1.2934 3.9151,-1.1885 0.4194,0.1048 0.6641,0.3845 0.97,0.2359 0.3059,-0.1486 0.3059,-1.2497 -0.2534,-1.7041 -0.5593,-0.4544 -3.5131,-0.8826 -3.7578,-1.0661 -0.2447,-0.1836 -0.823,-0.4347 -0.823,-0.4347 0,0 1.5683,-2.3377 0.8623,-5.1928 -0.7061,-2.8551 -2.7458,-5.8716 -3.4069,-7.0958 -0.6611,-1.2242 -0.8846,-3.5276 -0.5455,-4.3574 0.339,-0.8297 1.3454,-2.1075 1.942,-2.1493 0.5967,-0.0417 0.9769,0.1378 3.2174,1.1284 1.6306,0.7209 4.9309,1.685 6.0427,-0.3738 0.1675,-0.31 -0.3065,-0.4883 -0.6386,-0.8204 -0.3321,-0.332 0.4195,-1.0661 0.1049,-2.2721 -0.3147,-1.206 -1.0312,-2.8839 -2.01,-3.216 -0.9788,-0.332 -9.2373,-1.2502 -9.7397,-1.3417 -0.5024,-0.0915 -4.6797,-0.1439 -6.9343,1.9884 -2.2547,2.1324 -2.1498,3.4083 -2.3421,4.6142 -0.1923,1.206 -0.6117,1.8877 0.0524,2.2197 0.6642,0.3321 1.1885,-0.2446 2.01,-0.6466 0.8215,-0.402 1.5031,-0.7166 1.8177,-0.7516 0.3146,-0.035 -0.3146,2.6567 0.2098,4.1248 0.5243,1.4682 3.9849,5.8028 5.2783,6.9563 1.2934,1.1535 2.0275,1.5031 2.5169,2.9713 0.4893,1.4681 0.533,2.3071 0.3058,2.7965 -0.2272,0.4893 -0.6642,0.5941 -0.6642,0.5941z"/>
  <ellipse class="fil14 str7" cx="32.37" cy="73.2746" rx="1.1186" ry="1.5555"/>
  <ellipse class="fil22 str7" cx="35.5862" cy="73.2447" rx="1.1011" ry="1.573"/>
  <ellipse class="fil23 str7" cx="32.672" cy="73.563" rx="0.5418" ry="0.804"/>
  <ellipse class="fil23 str7" cx="35.9703" cy="73.3272" rx="0.5768" ry="0.7778"/>
  <path class="fil24 str7" d="M26.0837 68.2908c0.2098,0.1573 3.3558,2.4993 6.1173,2.5693 2.7616,0.0699 4.6492,0.4369 5.558,-0.9439 0.9089,-1.3807 -1.1535,-1.4331 -1.4856,-1.6079 -0.3321,-0.1748 -2.2721,0.4544 -4.0374,0.3146 -1.7653,-0.1399 -6.2135,-0.4326 -6.2135,-0.4326l0.0612 0.1005z"/>
  <path class="fil25 str7" d="M36.4263 67.7752l-0.1529 0.5331c0,0 -2.8389,0.4012 -4.2696,0.2965 -1.4307,-0.1048 -5.9813,-0.4145 -5.9813,-0.4145l-0.1747 -0.6729c0,0 4.9812,0.4064 6.1653,0.3758 1.1842,-0.0306 4.4132,-0.118 4.4132,-0.118z"/>
  <path class="fil26 str8" d="M36.4263 67.7752c0,0 1.1317,-0.8564 0.8783,-1.8789 -0.2534,-1.0224 -1.3807,-1.2759 -2.0973,-1.1885 -0.7166,0.0874 -0.8652,-1.1186 -2.6917,-1.1797 -1.8264,-0.0612 -2.1323,0.5243 -2.3245,0.4981 -0.1923,-0.0262 -0.2098,-0.603 -1.2322,-0.6205 -1.0225,-0.0175 -2.0187,0.8652 -2.3508,0.9438 -0.3321,0.0787 -1.6867,0.236 -1.8702,0.9963 -0.1835,0.7603 0.9657,2.0143 0.9963,2.1061l5.879 0.4397 4.8131 -0.1164z"/>
  <path class="fil15 str7" d="M32.6804 65.0031c-0.0284,-0.3402 -0.3119,-0.482 -0.5954,-0.4537 -0.2835,0.0284 -0.397,0.0709 -0.3544,0.2978 0.0425,0.2268 0.2481,0.2835 0.2906,0.3473 0.0425,0.0638 0.0425,0.326 0.0425,0.326l-0.482 -0.0567 0 0.2623 0.4324 0.0496c0,0 0.0213,0.4111 -0.0142,0.4678 -0.0354,0.0568 -0.326,0.1773 -0.4962,0.156 -0.1701,-0.0213 -0.2622,-0.1063 -0.3331,-0.2268 -0.0709,-0.1205 0.1985,-0.2233 0.1985,-0.2233l-0.4572 -0.1347 -0.039 0.4182 0.1524 -0.0354c0,0 0.0921,0.3473 0.3686,0.3827 0.2764,0.0355 0.6946,-0.1346 0.6946,-0.1346 0,0 0.56,0.1276 0.801,0.0992 0.241,-0.0284 0.3544,-0.2552 0.3544,-0.2552l0.3757 0.1772 -0.1063 -0.5387 -0.5529 0.1205 0.0851 0.1631c0,0 -0.1276,0.1205 -0.3332,0.1205 -0.2055,0 -0.3898,-0.0497 -0.3898,-0.0497l-0.0284 -0.482 0.404 0.0213 0 -0.2977 -0.3756 -0.0567c0,0 -0.0567,-0.2977 0.007,-0.319 0.0638,-0.0212 0.3403,0.0567 0.3509,-0.1453z"/>
  <path class="fil3 str7" d="M26.0531 68.2405c0,0 -2.2522,1.8641 -3.231,3.4371 -0.9788,1.573 -2.2832,3.6003 -2.2832,3.6003"/>
 </g>
 <g id="Layer_x0020_1_0">
  <metadata id="CorelCorpID_1Corel-Layer"/>
  <path class="fil27 str9" d="M44.7536 76.9409c0,0 1.1622,-2.4482 0.3816,-3.6192 -0.7807,-1.171 -7.0609,-1.4547 -7.9835,-0.9225 -0.9226,0.5322 -0.6033,5.3932 -0.6033,5.3932l7.6375 -0.1331 0.5677 -0.7184z"/>
  <polygon class="fil0 str5" points="40.0316,82.7197 30.029,98.4991 41.4502,82.8425 "/>
  <polygon class="fil28 str9" points="37.0805,78.0232 44.8335,77.4199 44.7447,83.7357 36.708,83.9486 "/>
  <polygon class="fil28 str9" points="44.81,79.0963 48.7896,77.136 48.3106,82.5116 44.7822,81.0745 "/>
  <ellipse class="fil29 str9" cx="42.8016" cy="74.9099" rx="1.6404" ry="1.7657"/>
  <ellipse class="fil29 str9" cx="39.0049" cy="74.9099" rx="1.6404" ry="1.7657"/>
 </g>
</svg>
