<?xml version="1.0" encoding="UTF-8"?>
<!DOCTYPE svg PUBLIC "-//W3C//DTD SVG 1.1//EN" "http://www.w3.org/Graphics/SVG/1.1/DTD/svg11.dtd">
<!-- Creator: CorelDRAW 2019 (64-Bit) -->
<svg xmlns="http://www.w3.org/2000/svg" xml:space="preserve" width="100mm" height="100mm" version="1.1" style="shape-rendering:geometricPrecision; text-rendering:geometricPrecision; image-rendering:optimizeQuality; fill-rule:evenodd; clip-rule:evenodd"
viewBox="0 0 100 100"
 xmlns:xlink="http://www.w3.org/1999/xlink"
 xmlns:xodm="http://www.corel.com/coreldraw/odm/2003">
 <defs>
  <style type="text/css">
   <![CDATA[
    .str7 {stroke:#2B2A29;stroke-width:0.0589;stroke-miterlimit:22.9256}
    .str8 {stroke:#2B2A29;stroke-width:0.0589;stroke-miterlimit:22.9256}
    .str3 {stroke:#2B2A29;stroke-width:0.0589;stroke-miterlimit:22.9256}
    .str2 {stroke:#2B2A29;stroke-width:0.0589;stroke-miterlimit:22.9256}
    .str9 {stroke:#FBC382;stroke-width:0.0589;stroke-miterlimit:22.9256}
    .str1 {stroke:#2B2A29;stroke-width:0.086;stroke-miterlimit:22.9256}
    .str6 {stroke:#2B2A29;stroke-width:0.0353;stroke-miterlimit:22.9256}
    .str4 {stroke:#00A7EB;stroke-width:0.2;stroke-miterlimit:22.9256}
    .str5 {stroke:#00A7EB;stroke-width:0.2;stroke-miterlimit:22.9256}
    .str0 {stroke:#2B2A29;stroke-width:0.2;stroke-miterlimit:22.9256}
    .fil2 {fill:none}
    .fil5 {fill:#FEFEFE}
    .fil13 {fill:#E5097F}
    .fil3 {fill:black}
    .fil19 {fill:#0071BD}
    .fil12 {fill:#0090D6}
    .fil7 {fill:#00A0E3}
    .fil9 {fill:#00A7EB}
    .fil10 {fill:#00A7EB}
    .fil8 {fill:#23479D}
    .fil15 {fill:#2B2A29}
    .fil18 {fill:#2E3293}
    .fil4 {fill:#801B00}
    .fil6 {fill:#92F02E}
    .fil17 {fill:#EAAF1A}
    .fil16 {fill:#EE2422}
    .fil0 {fill:#FBC382}
    .fil20 {fill:#FBC382}
    .fil14 {fill:#FEFEFE}
    .fil11 {fill:#FFCB05}
    .fil1 {fill:white}
   ]]>
  </style>
 </defs>
 <g id="Layer_x0020_1">
  <metadata id="CorelCorpID_0Corel-Layer"/>
  <path class="fil0 str0" d="M68.4231 67.6595c0,0 0.5683,1.3514 0.4716,1.9233 -0.0968,0.5719 -0.3374,0.533 -0.6841,1.5615 -0.2778,0.8237 -0.5655,1.9065 -0.1458,3.1673 0.3162,0.9498 1.4811,1.8153 2.7013,2.0959 1.22,0.2806 2.4929,0.573 3.1782,0.0185 0.6854,-0.5544 0.7254,-0.9132 0.7254,-0.9132 0,0 1.2307,0.567 1.6438,0.1802 0.413,-0.3866 0.5188,-0.7198 0.5331,-1.013 0.0144,-0.293 0.0317,-0.8814 -0.3169,-1.026 -0.3486,-0.1445 -0.6578,0.3116 -0.8232,0.4782 -0.1654,0.1664 0.2632,-0.1815 0.2932,-0.6608 0.0298,-0.4794 2.209,-2.8988 1.8414,-4.3027 -0.3677,-1.4039 0.0072,-3.4096 -1.8862,-4.0925 -1.8934,-0.6828 -1.9243,-2.1107 -3.24,-2.3877 -1.3155,-0.2771 -1.8242,1.4636 -2.4378,1.9029 -0.6136,0.4393 -1.2859,1.269 -1.4117,1.586 -0.126,0.3169 -0.4423,1.4821 -0.4423,1.4821z"/>
  <ellipse class="fil1 str1" transform="matrix(0.514375 0.108304 -0.108304 0.514375 69.993 71.2235)" rx="1.1906" ry="1.4993"/>
  <ellipse class="fil1 str1" transform="matrix(0.514375 0.108304 -0.108304 0.514375 72.0094 71.8849)" rx="1.2347" ry="1.7198"/>
  <path class="fil2 str0" d="M70.5529 72.0521c-0.2369,0.2817 0.0717,0.5599 -0.2375,0.7909 -0.3092,0.231 -0.4847,0.2769 -0.4162,0.4572 0.0687,0.1802 0.7587,0.2781 0.7587,0.2781"/>
  <path class="fil2 str0" d="M69.4056 73.7884c0,0 0.351,0.5833 0.8064,0.7265 0.4554,0.1434 0.8738,0.0775 1.0768,0.0137 0.2029,-0.0638 -0.641,0.5044 -1.1555,0.3605 -0.5146,-0.1438 -0.7277,-1.1007 -0.7277,-1.1007z"/>
  <ellipse class="fil3 str1" transform="matrix(0.514375 0.108304 -0.108304 0.514375 71.9457 71.6626)" rx="0.6059" ry="0.754"/>
  <ellipse class="fil3 str1" transform="matrix(0.514375 0.108304 -0.108304 0.514375 69.9252 71.0773)" rx="0.6059" ry="0.754"/>
  <path class="fil4 str0" d="M67.697 69.5351c0,0 0.178,-0.5073 0.0449,-1.5066 -0.1331,-0.9993 0.0458,-1.6249 0.3562,-2.4242 0.3104,-0.7992 0.1713,-1.8825 2.344,-2.7516 2.1727,-0.869 1.8004,-1.8001 3.7296,-1.0624 1.9291,0.7378 2.7266,1.0004 3.4954,1.3993 0.7688,0.3988 0.8021,0.24 1.6164,0.6482 0.8142,0.4083 4.2081,2.8521 2.2443,2.3914 -1.9638,-0.4608 -0.3678,0.3963 -0.2865,1.3609 0.0811,0.9646 0.124,5.7113 -0.0719,7.0914 -0.1957,1.38 1.1222,3.2209 0.4345,5.587 -0.6878,2.3662 -1.4518,3.295 -0.6973,4.2118 0.7545,0.9169 0.7711,1.0626 1.5543,0.043 0.7832,-1.0194 0.1552,-1.8623 0.1552,-1.8623 0,0 0.9336,1.1915 0.7807,1.9173 -0.1527,0.7258 -0.8452,1.7645 -1.8934,2.0176 -1.0481,0.2531 -1.337,0.0501 -1.9554,-0.8381 -0.6184,-0.8883 -0.9528,-1.1009 -1.4756,-2.4427 -0.5228,-1.3419 -0.5729,-2.679 -0.4725,-3.6053 0.1002,-0.9265 0.1552,-1.8624 0.1552,-1.8624 0,0 -0.1952,-0.0853 -0.2,-0.6816 -0.0047,-0.5964 -0.7518,-1.0122 -0.6026,-2.2532 0.1492,-1.241 -0.6588,-1.7308 -0.9425,-1.2508 -0.2836,0.4802 -0.0468,0.2078 -0.2473,-0.1899 -0.2007,-0.3976 0.1647,-1.9077 0.0012,-2.3685 -0.1635,-0.4609 -0.4775,-1.3323 -0.4775,-1.3323l0.4787 -2.3864c0,0 -1.1723,1.7429 -1.602,1.5339 -0.4298,-0.2089 -0.3188,-2.199 -0.3188,-2.199 0,0 -0.5075,1.1724 -0.8859,1.2821 -0.3785,0.1099 -0.6816,-2.2754 -0.6816,-2.2754 0,0 0.0942,2.365 -0.2913,2.2838 -0.3857,-0.0812 -1.1556,-2.6122 -1.1556,-2.6122 0,0 0.0584,2.7602 -0.0813,2.6361 -0.1397,-0.1243 -0.382,-1.8963 -0.7163,-2.0537 -0.3342,-0.1573 -0.2675,1.3254 -0.5146,1.4865 -0.247,0.1612 -0.8713,-0.5861 -0.8713,-0.5861 0,0 0.2219,2.3207 0.0178,2.2777 -0.2042,-0.043 -0.9672,0.3767 -0.9672,0.3767z"/>
  <path class="fil2 str0" d="M69.8555 69.2317c0.2484,-0.2793 0.8548,-0.0095 0.9873,0.3738"/>
  <path class="fil2 str0" d="M71.9388 70.0257c0.4011,-0.1051 0.8965,-0.0955 1.0553,0.388"/>
  <line class="fil2 str0" x1="69.8447" y1="70.2954" x2="69.8319" y2= "70.1032" />
  <path class="fil2 str0" d="M70.1982 70.3047c0.0227,-0.0514 0.0635,-0.2175 0.0635,-0.2175"/>
  <path class="fil2 str0" d="M70.5251 70.4535c0.0638,-0.1198 0.1951,-0.2372 0.178,-0.2408"/>
  <path class="fil2 str0" d="M70.7138 70.6116c0.074,-0.0139 0.2285,-0.1146 0.2285,-0.1146"/>
  <path class="fil2 str0" d="M71.7897 70.859c-0.0128,-0.0797 -0.0698,-0.2871 -0.0698,-0.2871"/>
  <path class="fil2 str0" d="M72.207 70.8461c0.051,-0.1018 0.1391,-0.2669 0.1391,-0.2669"/>
  <line class="fil2 str0" x1="72.5673" y1="70.9634" x2="72.7991" y2= "70.8465" />
  <path class="fil2 str0" d="M72.8776 71.4019c0.0824,-0.0537 0.2996,-0.1857 0.2996,-0.1857"/>
  <path class="fil0 str2" d="M75.6389 82.3588c0,0 0.414,0.5423 0.5178,0.6611 0.1037,0.1187 0.1431,0.3521 0.394,0.5414 0.2509,0.1892 0.6303,0.8007 0.5569,0.8561 -0.0733,0.0553 -0.0987,-0.0401 -0.9086,-0.3423 -0.0555,-0.0207 0.5368,1.0816 0.3711,1.1291 -0.1656,0.0474 -0.7083,-0.8267 -0.7083,-0.8267 0,0 0.6907,1.2519 0.541,1.2956 -0.1497,0.0436 -0.8152,-1.0837 -0.8152,-1.0837 0,0 0.4221,0.8268 0.1902,0.915 -0.2318,0.0883 -0.5591,-0.8365 -0.5591,-0.8365 0,0 0.1208,0.6198 -0.0941,0.6367 -0.2149,0.017 -0.3803,-0.9712 -0.3062,-1.1571 0.074,-0.1857 0.1026,-0.3863 0.0734,-0.5814 -0.0291,-0.1952 -0.3916,-1.3053 -0.3916,-1.3053l1.1387 0.098z"/>
  <path class="fil0 str3" d="M65.1566 81.7001c0,0 -0.4807,0.4845 -0.5988,0.5889 -0.1181,0.1043 -0.3989,0.0551 -0.5675,0.3201 -0.9272,1.6486 0.3377,0.5605 0.0854,0.8496 0.1061,-0.1573 0.2464,-0.1156 0.304,-0.1288 0.0575,-0.0134 -0.3543,0.6199 -0.1962,0.6883 0.1581,0.0683 0.4916,-0.3449 0.4916,-0.3449 0,0 -0.3701,0.5569 -0.2272,0.6197 0.1428,0.0625 0.4718,-0.3741 0.4718,-0.3741 0,0 -0.2341,0.3022 -0.0155,0.4197 0.2184,0.1175 0.3711,-0.2944 0.3711,-0.2944 0,0 0.1355,0.1029 0.3465,0.1474 0.2108,0.0447 0.1672,-0.4179 0.1177,-0.6118 -0.0495,-0.1939 -0.052,-0.3962 0.0021,-0.5861 0.054,-0.1898 0.5567,-1.2439 0.5567,-1.2439l-1.1417 -0.0497z"/>
  <path class="fil5 str0" d="M70.5572 76.9336c0,0 -1.4913,0.0408 -1.9355,0.3593 -0.7468,0.5354 -4.3569,3.4305 -4.1936,4.5359 1.5316,0.4735 0.8228,0.3669 1.9156,0.7121 1.604,-1.9603 1.9318,-0.6458 2.8459,-3.7181 0.1274,-0.4288 -1.02,4.2188 -0.7765,4.5432 0.2433,0.3246 1.6574,0.8346 2.5381,0.8809 0.8809,0.0463 2.8976,-0.7186 2.9903,-0.8925 0.0927,-0.1738 -0.8694,-4.3925 -0.6838,-4.6011 0.1853,-0.2087 0.1912,2.0339 0.3651,2.3701 0.1738,0.3362 0.5504,2.0339 0.817,2.231 0.2665,0.197 0.6587,0.0064 0.9484,-0.2487 0.2898,-0.2549 0.6162,-0.4816 0.6162,-0.4816 0,0 -1.7616,-4.8793 -2.1788,-5.2965 -0.4174,-0.4172 -3.1585,-0.4726 -3.1585,-0.4726l-0.1099 0.0786z"/>
  <polygon class="fil0 str0" points="72.1545,86.5702 73.383,86.4776 74.6754,93.7365 73.3555,94.0324 "/>
  <path class="fil0 str0" d="M69.1145 86.75l-0.8345 7.3248c0,0 1.4545,0.4484 1.4545,-0.0463 0,-0.4947 0.9099,-7.5102 0.9099,-7.5102l-1.5299 0.2317z"/>
  <path class="fil6 str0" d="M68.8867 83.3367c0,0 -3.4076,9.8168 -2.8976,10.3419 0.5098,0.5251 2.0861,-2.0551 2.5034,-1.9623 0.4172,0.0926 0.5563,1.3907 1.1126,1.3907 0.5563,0 0.8807,-2.0398 1.4835,-1.8079 0.6027,0.2318 1.0662,1.7616 1.6225,1.8079 0.5565,0.0465 2.3645,-2.1788 2.3645,-2.1788 0,0 0.0928,1.7153 0.9735,1.7616 0.8808,0.0463 1.8081,-0.788 1.8081,-0.788l-3.9157 -8.5474c0,0 -1.6011,0.5039 -2.6906,0.4343 -1.0895,-0.0695 -2.3642,-0.452 -2.3642,-0.452z"/>
  <path class="fil7 str0" d="M68.339 93.7621l1.4279 0.1098c0,0 0.2781,2.2021 0,2.2484 -0.2782,0.0465 -0.3245,-0.0115 -0.3245,-0.0115l-0.1274 -0.9852c0,0 -0.7187,0.8113 -1.2634,0.9157 -0.5447,0.1042 -1.02,0.0463 -1.3097,0 -0.2897,-0.0465 -0.5215,-0.2551 -0.4056,-0.51 0.1159,-0.2549 1.356,-0.5911 1.6225,-0.846 0.2667,-0.2551 0.3802,-0.9212 0.3802,-0.9212z"/>
  <path class="fil7 str0" d="M74.6901 93.5677l-1.4279 0.1099c0,0 -0.278,2.2021 0,2.2484 0.2781,0.0464 0.3246,-0.0115 0.3246,-0.0115l0.1274 -0.9852c0,0 0.7186,0.8113 1.2633,0.9157 0.5448,0.1042 1.02,0.0463 1.3097,0 0.2898,-0.0465 0.5216,-0.2551 0.4056,-0.5101 -0.1158,-0.2549 -1.3559,-0.591 -1.6225,-0.8459 -0.2667,-0.2551 -0.3802,-0.9213 -0.3802,-0.9213z"/>
  <polygon class="fil1 str0" points="20.1572,66.3237 17.5306,66.5277 26.3285,55.9447 26.048,59.5149 "/>
  <path class="fil8 str0" d="M21.3422 67.3424c0,0 -1.8225,-0.3557 -2.7405,0.4859 -0.9181,0.8415 -1.3516,2.9836 -1.8616,3.6211 -0.51,0.6375 -2.1676,1.7086 -2.1676,1.7086l1.479 0.408 -1.071 1.1731c0,0 2.0911,-0.357 2.5246,-1.0965 0.4335,-0.7396 0.7906,-3.6722 1.2751,-4.3862 0.4845,-0.7141 2.562,-1.914 2.562,-1.914z"/>
  <path class="fil8 str0" d="M21.6108 67.5732c0,0 -1.8105,0.9946 -2.0145,2.0147 -0.2041,1.02 -0.1275,2.0656 0.153,2.8051 0.2805,0.7396 0.7905,1.2496 0.6375,2.0146 -0.153,0.7651 -1.6066,2.7286 -1.7851,2.8561 -0.1785,0.1276 0.0765,-1.5045 0.0765,-1.5045l-1.7595 -0.357c0,0 1.9635,-0.2296 2.04,-1.0201 0.0766,-0.7905 -0.1459,-1.8417 -0.6375,-2.5246 -0.4915,-0.6829 -0.3824,-2.1421 0.1531,-2.7286 0.5355,-0.5866 3.1365,-1.5557 3.1365,-1.5557z"/>
  <polygon class="fil9 str4" points="73.6069,79.7 74.5785,79.0806 74.7512,79.5248 73.581,80.1532 "/>
  <polygon class="fil9 str4" points="73.6959,80.7352 74.9954,80.1893 75.151,80.6634 73.7606,81.1816 "/>
  <polygon class="fil9 str4" points="74.0959,82.1089 75.4791,81.3964 75.6051,81.688 74.1916,82.4373 "/>
  <polygon class="fil9 str4" points="69.2717,79.2336 73.2217,79.3325 73.2445,79.8487 69.1031,79.6402 "/>
  <polygon class="fil9 str4" points="68.963,80.2856 73.3258,80.4243 73.4186,80.8245 68.8722,80.7241 "/>
  <polygon class="fil10 str5" points="68.7572,81.3517 73.5129,81.5323 73.6017,82.0019 68.6803,81.7679 68.8057,81.3535 "/>
  <polygon class="fil10 str5" points="68.5944,82.4033 73.7547,82.5696 73.767,82.981 68.5348,82.8774 "/>
  <path class="fil9 str4" d="M68.5382 77.4974c0,0 1.1377,0.3174 2.4871,0.1587 1.3494,-0.1587 2.8003,-0.3285 2.8003,-0.3285l0.1928 0.3979c0,0 -2.1067,0.5458 -2.9666,0.5193 -0.8599,-0.0265 -2.862,-0.4881 -2.862,-0.4881l0.3484 -0.2593z"/>
  <polygon class="fil10 str5" points="67.097,78.5838 68.6845,79.9993 68.3563,80.7766 66.5489,79.0069 "/>
  <polygon class="fil10 str5" points="66.1377,79.4701 67.6194,81.3289 67.2027,81.6133 65.7409,79.8869 "/>
  <polygon class="fil10 str5" points="65.1853,80.3862 66.8535,81.9788 66.5789,82.2661 64.908,80.7309 65.2123,80.412 "/>
 </g>
 <g id="Layer_x0020_1_0">
  <metadata id="CorelCorpID_1Corel-Layer"/>
  <path class="fil0 str0" d="M31.6453 73.9514c-1.275,0.51 -3.4681,0.867 -4.5392,0.051 -1.0711,-0.8161 -1.1603,-0.5483 -1.5046,-0.5228 -0.3443,0.0255 -1.5046,-0.5355 -1.3006,-1.4281 0.2041,-0.8925 1.6066,-0.4462 1.8616,-0.5483 0.2551,-0.102 -2.5628,-2.8306 -1.5427,-4.2586 1.02,-1.4281 1.428,-3.9273 3.6211,-4.0292 2.1931,-0.102 3.4936,0.4845 3.7997,1.275 0.306,0.7906 0.2805,2.4992 0.408,3.1877 0.1275,0.6885 0.9436,1.6576 1.1731,2.3206 0.2295,0.663 0.765,2.2441 -1.9764,3.9527z"/>
  <path class="fil11 str0" d="M25.2661 73.4092c-0.6973,-0.0443 -2.9414,-1.6509 -3.3239,-3.5635 -0.3825,-1.9126 0.255,-5.0748 1.2241,-6.1458 0.969,-1.0711 4.0547,-2.3206 4.6922,-2.4736 0.6375,-0.1531 1.3261,-0.6886 1.0456,-1.1476 -0.2806,-0.459 0.8925,0.0765 0.918,0.7395 0.0255,0.6631 0.9435,-0.816 0.7395,-1.5045 -0.204,-0.6886 0.1785,2.091 0.1785,2.091 0,0 1.1221,-0.918 1.0456,-1.581 -0.0765,-0.6631 -0.051,2.0656 -0.051,2.0656 0,0 0.612,-0.0255 1.122,-0.1785 0.5101,-0.153 -0.3059,0.9435 -0.5355,1.224 -0.2295,0.2806 -0.7905,1.2751 -1.1475,1.4791 -0.3571,0.204 -2.3462,0.408 -2.3462,0.408l1.4536 0.357 -3.0856 0.0255 0.867 0.8161 -2.0146 0.408 0.5866 1.7341 -0.7396 -0.2805c0,0 -0.204,0.9691 -0.1785,1.5046 0.0255,0.5355 -0.2295,0.714 -0.2295,0.714 0,0 0.5319,0.7233 0.5246,1.0709 -0.0074,0.3477 -1.3056,-0.0391 -1.7136,0.6239 -0.408,0.6631 0.9682,1.6137 0.9682,1.6137z"/>
  <polygon class="fil12 str0" points="21.6108,67.5732 27.4506,60.7899 26.048,59.5149 20.1572,66.3237 "/>
  <polygon class="fil12 str0" points="78.7522,65.2563 70.1197,62.8905 70.5712,61.0495 79.2602,63.408 "/>
  <polygon class="fil1 str0" points="79.2602,63.408 81.553,62.1104 68.3447,58.2446 70.5712,61.0495 "/>
  <path class="fil13 str0" d="M78.8461 64.9148c0,0 1.3132,-1.3128 2.5447,-1.1274 1.2315,0.1854 2.7874,1.7203 3.5665,1.9643 0.779,0.244 2.7522,0.2068 2.7522,0.2068l-0.999 1.1644 1.5435 0.3751c0,0 -1.934,0.8716 -2.7065,0.5002 -0.7727,-0.3714 -2.7066,-2.6047 -3.5073,-2.9264 -0.8007,-0.3218 -3.1941,-0.157 -3.1941,-0.157z"/>
  <path class="fil13 str0" d="M78.7522 65.2563c0,0 2.0573,-0.1861 2.7962,0.5462 0.7389,0.7322 1.2593,1.6423 1.4396,2.4124 0.1803,0.7702 0.0421,1.4781 0.5962,2.0272 0.5542,0.5493 2.8565,1.3663 3.0758,1.3724 0.2193,0.0061 -0.9037,-1.2053 -0.9037,-1.2053l1.2602 -1.2788c0,0 -1.757,0.9061 -2.2619,0.293 -0.505,-0.6129 -0.9075,-1.6092 -0.881,-2.4502 0.0263,-0.841 -0.8791,-1.9905 -1.6508,-2.178 -0.7718,-0.1876 -3.4706,0.4611 -3.4706,0.4611z"/>
  <path class="fil14 str0" d="M28.6558 70.5443c-0.2422,-0.102 -0.8415,-1.4281 -0.2805,-1.7851 0.5611,-0.357 1.5301,1.1349 1.4791,1.2496 -0.051,0.1148 -1.1986,0.5355 -1.1986,0.5355z"/>
  <path class="fil14 str0" d="M30.8872 69.6135c0,0 0.7268,-0.2294 0.918,-0.408 0.1913,-0.1785 -0.5227,-1.734 -1.02,-1.4918 -0.4973,0.2423 -0.9181,0.7778 0.102,1.8998z"/>
  <path class="fil2 str0" d="M30.5429 69.8048c0.1403,0.1658 0.4782,0.153 0.7268,0.3379 0.2486,0.1849 0.3443,0.3634 -0.0127,0.5037 -0.357,0.1402 -0.6376,0.1402 -0.6376,0.1402"/>
  <ellipse class="fil15 str0" cx="28.8282" cy="70.0663" rx="0.3315" ry="0.3188"/>
  <ellipse class="fil15 str0" cx="30.9671" cy="69.1387" rx="0.2773" ry="0.3666"/>
  <path class="fil16 str0" d="M29.7336 71.8833c0.2423,0.1402 0.8288,0.4207 1.2496,0.1785 0.4208,-0.2423 0.6758,-0.5865 0.6758,-0.5865 0,0 -0.2295,0.7267 -0.7141,0.8797 -0.4845,0.1531 -1.2113,-0.4717 -1.2113,-0.4717z"/>
  <path class="fil2 str0" d="M25.9055 72.2023c-0.1785,-0.0892 -0.7268,-0.1403 -0.7778,-0.0255 -0.051,0.1147 0.0765,0.6758 0.3315,0.7905"/>
  <path class="fil0 str2" d="M36.9373 76.951c0,0 0.6228,-0.1425 0.7758,-0.3401 0.153,-0.1977 0.153,-0.4017 0.408,-0.3507 0.255,0.051 0.2678,0.2486 0.2805,0.4399 0.0128,0.1913 -0.3825,0.5164 -0.4271,0.5419 -0.0447,0.0255 1.1284,0.2933 1.071,0.5865 -0.0573,0.2933 -0.9945,0.1212 -0.9945,0.1212 0,0 0.969,0.1977 0.8798,0.5355 -0.0893,0.3379 -1.0456,0.0064 -1.0456,0.0064 0,0 0.8799,0.2518 0.8002,0.526 -0.0797,0.2741 -0.8702,-0.0319 -0.8702,-0.0319 0,0 0.7013,0.1785 0.6121,0.3634 -0.0893,0.1849 -0.8926,0.0574 -0.95,0.0574 -0.0573,0 -0.8989,-0.051 -1.1284,-0.2232 -0.2295,-0.1721 0.3251,-2.2186 0.3251,-2.2186l0.2633 -0.0137z"/>
  <path class="fil0 str6" d="M23.1138 79.7827c0,0 -0.3761,0.4845 -0.5482,0.9116 -0.1722,0.4272 -0.1977,0.8798 -0.1084,1.052 0.0892,0.1721 0.4207,-0.6184 0.4207,-0.6184 0,0 -0.3442,0.7331 -0.1912,0.8861 0.153,0.153 0.4781,-0.5993 0.4781,-0.5993 0,0 -0.3124,0.7459 -0.0956,0.8989 0.2168,0.1531 0.7013,-0.8096 0.7013,-0.8096 0,0 -0.2933,0.9181 -0.1211,1.0264 0.1721,0.1084 0.7459,-0.8096 0.8479,-0.867 0.102,-0.0574 0.51,0.5228 0.7076,0.357 0.1977,-0.1658 0.0001,-0.4335 -0.0446,-0.6439 -0.0446,-0.2104 -0.0829,-1.2241 -0.0829,-1.2241l-1.9636 -0.3697z"/>
  <path class="fil1 str0" d="M27.3338 75.1732c0,0 -1.1093,0.8161 -2.0401,1.6449 -0.9308,0.8288 -2.1293,2.6011 -2.1548,2.8051 -0.0255,0.204 0.1657,0.3698 0.6885,0.5483 0.5228,0.1785 1.5301,0.4845 1.6321,0.3825 0.102,-0.102 0.8543,-1.0583 1.1093,-1.4281 0.255,-0.3697 1.6703,-1.7468 1.6703,-1.7468 0,0 0.2295,-0.5483 -0.0892,-1.1603 -0.3188,-0.612 -0.8161,-1.0456 -0.8161,-1.0456z"/>
  <path class="fil1 str0" d="M31.6563 74.778c0,0 1.6703,0.7268 2.5629,1.0966 0.8925,0.3697 2.5756,0.7777 2.5756,0.7777 0,0 0.2933,0.153 0.051,0.9053 -0.2422,0.7523 -0.7013,1.7469 -0.7905,1.7341 -0.0893,-0.0127 -1.3261,-0.4717 -1.8234,-0.561 -0.4972,-0.0893 -1.581,-0.7013 -1.581,-0.7013l-0.9946 -3.2514z"/>
  <path class="fil1 str0" d="M28.2833 74.4429l-0.9495 0.7303 -0.0892 3.3025c0,0 -0.1339,1.4184 -0.1721,1.6384 -0.0383,0.2199 -0.4367,2.7797 -0.4367,2.7797 0,0 2.0911,0.561 3.6977,0.4845 1.6066,-0.0765 3.3152,-0.612 3.3152,-0.612 0,0 -0.3647,-2.8606 -0.8415,-4.3225 -0.4768,-1.4619 -1.1509,-3.6658 -1.1509,-3.6658 0,0 -1.8391,-0.5929 -2.177,-0.5611 -0.3379,0.0319 -1.196,0.226 -1.196,0.226z"/>
  <path class="fil17 str0" d="M37.2522 80.2364c0.2345,0.0183 1.491,-7.8588 1.56,-8.3204 0.069,-0.4616 -1.3904,-2.0141 -1.0384,-4.0481 0.3519,-2.034 2.4356,-4.4992 3.3012,-4.4082 0.8657,0.0911 1.8117,2.7216 1.2502,5.0836 -0.5614,2.3621 -2.2361,3.0441 -2.3124,3.5381 -0.0763,0.4941 -1.5841,8.2675 -1.5841,8.2675l-1.1765 -0.1125z"/>
  <path class="fil9 str0" d="M26.7396 75.6251c0,0 0.556,0.3395 0.8046,0.8431 0.2486,0.5037 0.306,1.1668 0.306,1.1668l-0.4399 0.3761c0,0 0.1339,-0.5546 -0.4335,-1.0966 -0.5674,-0.5419 -0.8352,-0.765 -0.8352,-0.765l0.598 -0.5244z"/>
  <path class="fil18 str0" d="M31.5961 92.6788c0,0 -0.4809,0.301 -0.4937,0.9895 -0.0127,0.6886 0.0383,1.7851 0.0383,1.7851 0,0 1.6448,0.0382 2.1166,-0.051 0.4718,-0.0892 1.6703,0.1657 2.2314,0.1657 0.561,0 1.1985,-0.0254 1.7085,-0.2932 0.5101,-0.2678 0.3825,-0.9818 0.3825,-0.9818 0,0 -0.1147,-0.5993 -0.4462,-1.0201 -0.3315,-0.4207 -1.3133,-1.0965 -1.6193,-1.122 -0.3061,-0.0255 -2.0401,-0.4718 -2.0401,-0.4718l-1.6959 0.4718 -0.1821 0.5278z"/>
  <path class="fil18 str0" d="M28.8711 92.1637c0,0 0.1913,-0.306 0.4463,0.5483 0.255,0.8543 0.1275,1.8489 0.1913,2.1166 0.0637,0.2678 0.204,0.4846 0.0382,0.5483 -0.1657,0.0638 -0.051,0.2933 -0.561,0.2678 -0.51,-0.0255 -1.1603,-0.2423 -1.6448,-0.2423 -0.4846,0 -1.1985,0.6376 -2.6649,0.2168 -1.4663,-0.4208 -1.9126,-0.561 -2.1421,-0.8415 -0.2295,-0.2805 0.0255,-0.561 0.153,-0.7268 0.1275,-0.1658 0.2805,-0.6375 0.7651,-1.0073 0.4845,-0.3698 1.0583,-0.51 1.6831,-0.561 0.6247,-0.0511 1.6321,-0.7651 1.7213,-0.7906 0.0892,-0.0255 1.5428,-0.1147 1.5428,-0.1147l0.4717 0.5864z"/>
  <path class="fil19 str0" d="M26.7472 82.9223c0,0 -0.4135,3.4399 -1.1786,4.46 -0.765,1.02 -1.9891,4.8452 -1.9891,4.8452 0,0 2.2951,-0.2805 3.0092,0.1275 0.714,0.408 3.2386,0.2295 3.2386,0.2295l0.3571 -8.2879 0.408 8.2624c0,0 1.6831,0.2805 2.8051,0.102 1.1221,-0.1785 3.3152,-0.255 3.3152,-0.255 0,0 -1.1731,-2.2951 -1.9126,-4.7687 -0.7396,-2.4736 -1.1514,-4.871 -1.1514,-4.871 0,0 -2.146,0.5097 -3.3152,0.612 -1.1692,0.1023 -3.5863,-0.456 -3.5863,-0.456z"/>
  <path class="fil9 str0" d="M36.2264 76.5988c0,0 0.0765,0.6152 -0.0669,1.1156 -0.1435,0.5005 -0.6084,1.4113 -0.6084,1.4113l-0.6227 -0.2056c0,0 0.5394,-1.177 0.5904,-1.6487 0.051,-0.4718 0.0476,-0.9473 0.0476,-0.9473l0.66 0.2747z"/>
  <path class="fil9 str0" d="M33.9951 75.8497c0,0 0.2168,0.2359 0.0956,0.8415 -0.1211,0.6057 -0.51,1.7341 -0.51,1.7341 0,0 0.5693,0.3877 0.6512,0.3054 0.082,-0.0823 0.6112,-1.6761 0.6175,-1.9885 0.0064,-0.3124 -0.0227,-0.6458 -0.0227,-0.6458l-0.8316 -0.2467z"/>
  <path class="fil9 str0" d="M33.1218 75.4736c0,0 0.1912,0.2678 0.1211,0.5865 -0.0701,0.3188 -0.4144,1.9573 -0.4144,1.9573l-0.2269 -0.2112 -0.2576 -1.0894c0,0 0.255,-0.8862 0.153,-1.1412 -0.102,-0.255 -0.1147,-0.4463 -0.1147,-0.4463l0.7395 0.3443z"/>
  <path class="fil12 str4" d="M27.9613 74.6906c0,0 0.7808,0.5344 1.533,0.4579 0.7523,-0.0765 1.4536,-0.7013 1.4536,-0.7013l0.7587 0.4953c0,0 -0.2104,0.716 -1.715,0.8945 -1.5046,0.1785 -2.5692,-0.5807 -2.5692,-0.5807l0.5389 -0.5657z"/>
  <path class="fil9 str0" d="M31.9707 75.9959c0,0 -1.5541,0.7654 -3.0282,0.6316 -1.4742,-0.1337 -1.4599,-0.0902 -1.4599,-0.0902l-0.0399 0.8418c0,0 1.3169,0.345 2.6424,0.1665 1.3254,-0.1785 2.2422,-0.574 2.2422,-0.574l-0.3566 -0.9757z"/>
  <path class="fil9 str0" d="M32.5508 77.6468c0,0 -0.7038,0.6511 -2.1191,0.6639 -1.4153,0.0127 -3.1771,-0.2051 -3.1771,-0.2051l-0.0627 0.9152c0,0 2.1305,0.4374 3.4055,0.2462 1.2751,-0.1913 2.2786,-0.6004 2.2786,-0.6004l-0.3252 -1.0198z"/>
  <path class="fil9 str0" d="M27.1167 79.7543c0,0 1.3642,0.4944 3.1493,0.3925 1.7851,-0.102 2.8526,-0.5093 2.8526,-0.5093l0.0865 0.7388c0,0 -1.0391,0.5355 -2.8879,0.5865 -1.8489,0.051 -3.2973,-0.5228 -3.2973,-0.5228l0.0968 -0.6857z"/>
  <path class="fil9 str0" d="M33.3455 81.1095l0.1148 0.7522c0,0 -0.9754,0.6949 -3.143,0.7715 -2.1676,0.0765 -3.5544,-0.5549 -3.5544,-0.5549l0.144 -0.9204c0,0 1.6253,0.6975 3.4742,0.5445 1.8488,-0.1531 2.9644,-0.5929 2.9644,-0.5929z"/>
  <path class="fil9 str0" d="M25.4672 76.6655c0,0 0.4449,0.1725 0.9358,0.7017 0.4909,0.5291 0.6822,1.0774 0.6822,1.0774l-0.5037 0.5419c0,0 -0.2103,-0.5355 -0.7268,-0.9435 -0.5164,-0.408 -1.0249,-0.7622 -1.0249,-0.7622l0.6374 -0.6153z"/>
  <path class="fil9 str0" d="M24.2385 77.9793c0,0 0.7747,0.3378 1.1126,0.6629 0.3379,0.3252 0.8033,0.9245 0.8033,0.9245 0,0 -0.4016,0.6056 -0.4526,0.5865 -0.051,-0.0191 -0.153,-0.357 -0.9946,-0.7969 -0.8415,-0.4399 -1.0793,-0.552 -1.0793,-0.552l0.6106 -0.825z"/>
 </g>
 <g id="Layer_x0020_1_0_1">
  <metadata id="CorelCorpID_2Corel-Layer"/>
  <path class="fil17 str0" d="M66.3333 83.3542c-0.1564,0.1757 -6.5217,-4.6315 -6.8914,-4.9164 -0.3697,-0.285 -0.3937,-2.4156 -2.0572,-3.6378 -1.6635,-1.2223 -4.8741,-1.5551 -5.435,-0.8895 -0.5609,0.6656 0.5804,3.2175 2.6222,4.5309 2.0419,1.3136 3.7218,0.6445 4.1192,0.9477 0.3974,0.3033 6.8721,4.8616 6.8721,4.8616l0.7701 -0.8965z"/>
  <path class="fil0 str7" d="M64.0962 82.8237c0.2601,0.0793 -0.1877,0.4862 -0.1589,0.6052 0.0289,0.119 0.7332,-0.8465 0.8054,-0.7341 0.0722,0.1124 -0.4589,0.8863 -0.3723,0.9789 0.0866,0.0926 0.5129,-0.6548 0.6501,-0.549 0.1373,0.1058 -0.3542,0.6813 -0.2675,0.7276 0.0867,0.0463 0.3503,-0.4894 0.4514,-0.3902 0.1012,0.0992 -0.2781,0.4631 -0.1554,0.5954 0.1228,0.1323 -0.1878,0.3637 -0.2889,0.3439 -0.1011,-0.0198 -1.1701,-0.6415 -1.1847,-0.7474 -0.0145,-0.1059 0.3178,-1.0286 0.5208,-0.8303z"/>
  <path class="fil0 str8" d="M64.7123 82.1819c-0.1016,-0.0993 -0.7174,0.296 -0.4962,0.4724 0.2212,0.1764 0.7334,-0.2766 0.7427,-0.3463 0.0093,-0.0697 -0.2465,-0.1261 -0.2465,-0.1261z"/>
  <path class="fil0 str8" d="M38.922 77.2573c0,0 -0.7072,-0.1559 -0.745,-0.0201 -0.0378,0.1358 0.6843,0.5823 0.6843,0.5823 0,0 -0.8064,-0.1622 -0.8166,-0.0232 -0.0102,0.139 0.8056,0.5414 0.8056,0.5414 0,0 -0.8459,-0.0165 -0.8667,0.1185 -0.0208,0.135 0.8006,0.3721 0.8006,0.3721 0,0 -0.5461,0.0051 -0.6838,0.2644 -0.1377,0.2593 0.8325,0.2482 0.8325,0.2482 0,0 0.5512,-1.797 0.3748,-1.9844 -0.1764,-0.1874 -0.3857,-0.0992 -0.3857,-0.0992z"/>
  <ellipse class="fil20 str9" cx="64.8894" cy="82.2054" rx="0.157" ry="0.1744"/>
 </g>
</svg>
