<?xml version="1.0" encoding="UTF-8"?>
<!DOCTYPE svg PUBLIC "-//W3C//DTD SVG 1.1//EN" "http://www.w3.org/Graphics/SVG/1.1/DTD/svg11.dtd">
<!-- Creator: CorelDRAW 2019 (64-Bit) -->
<svg xmlns="http://www.w3.org/2000/svg" xml:space="preserve" width="100mm" height="100mm" version="1.1" style="shape-rendering:geometricPrecision; text-rendering:geometricPrecision; image-rendering:optimizeQuality; fill-rule:evenodd; clip-rule:evenodd"
viewBox="0 0 100 100"
 xmlns:xlink="http://www.w3.org/1999/xlink"
 xmlns:xodm="http://www.corel.com/coreldraw/odm/2003"
 inkscape:version="1.1 (c68e22c387, 2021-05-23)"
 sodipodi:docname="schedule.svg"
 xmlns:inkscape="http://www.inkscape.org/namespaces/inkscape"
 xmlns:sodipodi="http://sodipodi.sourceforge.net/DTD/sodipodi-0.dtd"
 xmlns:svg="http://www.w3.org/2000/svg">
 <defs>
  <style type="text/css">
   <![CDATA[
    .str3 {stroke:#2B2A29;stroke-width:0.03;stroke-miterlimit:22.9256}
    .str9 {stroke:black;stroke-width:0.0331;stroke-miterlimit:22.9256}
    .str8 {stroke:#1A1A1A;stroke-width:0.0331;stroke-miterlimit:22.9256}
    .str7 {stroke:black;stroke-width:0.469;stroke-miterlimit:22.9256}
    .str4 {stroke:black;stroke-width:0.266;stroke-miterlimit:22.9256}
    .str6 {stroke:black;stroke-width:0.2673;stroke-miterlimit:22.9256}
    .str5 {stroke:black;stroke-width:0.0133;stroke-miterlimit:22.9256}
    .str2 {stroke:#2B2A29;stroke-width:0.0942;stroke-miterlimit:22.9256}
    .str1 {stroke:#2B2A29;stroke-width:0.0185;stroke-miterlimit:22.9256}
    .str0 {stroke:#2B2A29;stroke-width:0.2;stroke-miterlimit:22.9256}
    .fil3 {fill:none}
    .fil16 {fill:none;fill-rule:nonzero}
    .fil8 {fill:#1C1B17}
    .fil5 {fill:#2B2A29}
    .fil11 {fill:#714684}
    .fil1 {fill:#771700}
    .fil10 {fill:#834E98}
    .fil12 {fill:#A75F4A}
    .fil9 {fill:#CD7372}
    .fil4 {fill:#E31E24}
    .fil0 {fill:#FBC382}
    .fil7 {fill:#FEDE91}
    .fil6 {fill:#FEFEFE}
    .fil14 {fill:#FFE587}
    .fil13 {fill:#FFFBDB}
    .fil2 {fill:white}
    .fil15 {fill:aqua;fill-rule:nonzero}
    .fil19 {fill:#AA4400;fill-rule:nonzero}
    .fil21 {fill:#C08A4F;fill-rule:nonzero}
    .fil22 {fill:#C8B7B7;fill-rule:nonzero}
    .fil20 {fill:#ED653D;fill-rule:nonzero}
    .fil18 {fill:#FBC382;fill-rule:nonzero}
    .fil17 {fill:yellow;fill-rule:nonzero}
    .fil23 {fill:white;fill-rule:nonzero}
   ]]>
  </style>
 </defs>
 <g id="Layer_x0020_1">
  <metadata id="CorelCorpID_0Corel-Layer"/>
  <g id="_2435291028944">
   <polygon class="fil0 str0" points="46.6639,13.9651 46.6332,20.0159 49.6688,20.4057 49.1253,15.77 48.6842,13.9036 "/>
   <g>
    <path class="fil0 str0" d="M47.4792 14.6686c-1.586,0.0466 -2.8691,-1.1546 -3.1955,-1.9943 -0.3266,-0.8397 -0.5131,-1.8078 -0.5131,-1.8078 0,0 -0.0722,0.2943 -0.3987,0.3409 -0.3266,0.0465 -0.7165,-0.8631 -0.7165,-1.2828 0,-0.4198 0.2286,-0.6909 0.4853,-0.6909 0.2565,0 0.4899,0.5831 0.4899,0.5831l0.14 -3.0323 7.2308 -0.0466c0,0 0.0933,2.9391 0.1633,2.7058 0.07,-0.2332 -0.1484,-0.8726 0.4513,-0.6808 0.5997,0.1919 0.4871,0.806 0.4405,1.0391 -0.0468,0.2331 -0.0338,1.1391 -0.3837,1.0925 -0.3499,-0.0467 -0.4848,-0.4945 -0.4848,-0.4945 0.2924,1.4356 -0.2111,3.0896 -1.5162,3.8488 -1.0378,0.6037 -2.1926,0.4198 -2.1926,0.4198z"/>
    <path class="fil1 str0" d="M42.3472 10.3249c-0.0617,-0.0291 -0.6897,-1.5027 -0.4096,-2.3267 0.2802,-0.8243 0.3522,-2.0405 1.2419,-2.8997 0.8895,-0.8593 2.3241,-1.3568 2.785,-1.3178 0.461,0.0389 -0.0867,-0.7484 -0.3287,-0.871 -0.2418,-0.1227 -0.5462,-0.2907 -0.5462,-0.2907 0,0 0.6441,-0.1436 1.0699,0.2823 0.4259,0.426 0.4685,0.5518 0.5215,0.7125 0.0529,0.1607 -0.1282,-0.6381 0.1685,-1.0578 0.2965,-0.4197 0.6624,-0.4422 0.6624,-0.4422 0,0 -0.24,0.3851 -0.3542,0.6756 -0.1143,0.2904 -0.1548,0.9153 -0.1548,0.9153 0,0 0.6884,-0.7495 1.0075,-0.8989 0.319,-0.1494 0.553,-0.0646 0.553,-0.0646 0,0 -0.3233,0.1468 -0.5117,0.2887 -0.1883,0.1419 -0.4981,0.5666 -0.4981,0.5666l1.3845 -0.4183c0,0 -0.1796,0.2479 -0.3897,0.391 -0.2101,0.1431 -0.1041,0.3253 -0.1041,0.3253 0,0 0.5675,-0.1964 0.9795,-0.0563 0.4121,0.1401 0.8342,0.4543 1.1565,0.7415 0.3223,0.2872 0.1942,0.3382 0.6521,0.705 0.4579,0.3667 0.8188,0.3787 0.8552,1.0099 0.0364,0.6312 0.0708,0.662 0.3799,1.2885 0.3092,0.6265 0.1015,0.8131 -0.0706,1.2379 -0.1721,0.4248 -0.6483,-0.438 -0.874,-0.1848 -0.2256,0.2532 -0.404,0.6624 -0.3489,0.1023 0.0551,-0.5599 -0.2994,0.9652 -0.5206,0.7268 -0.2212,-0.2385 -0.4541,-1.2604 -0.5231,-1.3218 -0.0691,-0.0615 -0.0541,0.8042 -0.3765,0.7026 -0.3227,-0.1016 -0.5077,-1.0776 -0.5077,-1.0776 0,0 -0.214,1.1975 -0.53,1.0192 -0.316,-0.1783 -0.7701,-1.5995 -0.8612,-1.4741 -0.0911,0.1253 0.2195,1.4334 0.0314,1.3896 -0.1882,-0.0438 -1.1172,-1.2835 -1.1172,-1.2835 0,0 0.4491,1.4162 0.2865,1.4365 -0.1626,0.0203 -0.8362,-1.121 -1.0296,-1.0661 -0.1933,0.0548 -0.0488,1.1665 -0.2344,1.1663 -0.1856,-0.0003 -1.1038,-0.801 -1.3305,-0.7552 -0.2266,0.0459 -0.8385,1.513 -0.8385,1.513 0,0 -0.0309,-0.3487 -0.413,-0.4414 -0.382,-0.0926 -0.5445,0.0758 -0.6145,0.2354 -0.0699,0.1596 -0.0939,0.4068 -0.1637,0.5199 -0.07,0.1133 -0.0842,0.2968 -0.0842,0.2968z"/>
    <ellipse class="fil2 str1" transform="matrix(0.388133 0.0457884 -0.0457884 0.388133 46.7433 10.8575)" rx="1.808" ry="1.4993"/>
    <path class="fil3 str0" d="M47.8323 11.8252c0.0885,0.1319 0.086,0.0795 0.2309,0.3222 0.1449,0.2426 0.2432,0.2196 -0.0096,0.3026"/>
    <path class="fil4 str0" d="M46.7301 12.8369c0.1389,0.1465 0.484,0.2739 0.8228,0.2706 0.3387,-0.0035 0.8128,-0.1601 0.9644,-0.3419 0.1515,-0.1816 -0.6762,0.8596 -0.8393,0.8816 -0.1632,0.0219 -0.2602,0.017 -0.6004,-0.3354 -0.3402,-0.3526 -0.3475,-0.4749 -0.3475,-0.4749z"/>
    <ellipse class="fil2 str1" transform="matrix(0.388133 0.0457884 -0.0457884 0.388133 48.4703 10.7239)" rx="1.808" ry="1.4993"/>
    <ellipse class="fil5 str1" transform="matrix(0.388133 0.0457884 -0.0457884 0.388133 46.6049 10.887)" rx="0.7386" ry="0.5512"/>
    <ellipse class="fil5 str1" transform="matrix(0.388133 0.0457884 -0.0457884 0.388133 48.2771 10.7192)" rx="0.7386" ry="0.5512"/>
    <path class="fil3 str0" d="M46.1945 9.4938c0.2659,-0.2261 0.9196,-0.2456 1.078,-0.0541"/>
    <line class="fil3 str0" x1="46.2188" y1="10.313" x2="46.0543" y2= "10.1216" />
    <line class="fil3 str0" x1="46.7088" y1="9.9215" x2="46.7172" y2= "10.1171" />
    <line class="fil3 str0" x1="46.3838" y1="9.9461" x2="46.482" y2= "10.1443" />
    <line class="fil3 str0" x1="47.0942" y1="9.9725" x2="47.0186" y2= "10.1996" />
    <line class="fil3 str0" x1="47.4947" y1="10.103" x2="47.3359" y2= "10.3099" />
    <line class="fil3 str0" x1="47.9216" y1="9.9824" x2="48.0782" y2= "10.1606" />
    <line class="fil3 str0" x1="48.3471" y1="9.8391" x2="48.414" y2= "10.0272" />
    <line class="fil3 str0" x1="48.8389" y1="9.9321" x2="48.7559" y2= "10.1305" />
    <line class="fil3 str0" x1="49.15" y1="10.0241" x2="48.9805" y2= "10.2214" />
    <line class="fil3 str0" x1="49.2947" y1="10.3025" x2="49.1734" y2= "10.375" />
    <path class="fil3 str0" d="M47.8456 9.4224c0.2659,-0.2261 0.9196,-0.2457 1.0779,-0.0542"/>
   </g>
   <path class="fil6 str0" d="M41.9359 7.5675c0,0 -1.9795,-1.795 -1.8154,-2.6155 0.1641,-0.8205 0.9435,-4.1638 6.8098,-4.4305 5.8663,-0.2666 7.5688,2.8102 7.7739,3.6511 0.2051,0.841 -0.8,2.2357 -1.1691,2.564 -0.3692,0.3281 -3.0973,-1.6 -5.4151,-1.559 -2.3178,0.0411 -5.1385,1.5486 -5.6612,1.9692 -0.5229,0.4207 -0.5229,0.4207 -0.5229,0.4207z"/>
   <path class="fil0 str0" d="M41.2462 10.2884c0,0 0.8205,-1.1076 1.3948,-1.3127 0.5744,-0.2051 3.3639,-1.2922 3.7125,-1.2307 0.3488,0.0615 -2.5228,1.9076 -2.5228,1.9076 0,0 -0.9238,1.5348 -1.0974,1.5691 -0.1736,0.0344 -1.4871,-0.9333 -1.4871,-0.9333z"/>
   <path class="fil7 str0" d="M43.4742 9.0493c0,0 1.5999,-0.9128 1.7846,-0.8307 0.1846,0.0821 -1.3053,1.3543 -1.3053,1.3543l-0.4793 -0.5236z"/>
   <path class="fil6 str0" d="M40.9717 10.0749l2.123 1.4152 -1.1281 3.2101 3.0972 0.6769c0,0 -0.2871,2.8717 -0.4512,2.8717 -0.1642,0 -5.5381,-0.9025 -5.7638,-1.641 -0.2256,-0.7384 2.1229,-6.5329 2.1229,-6.5329z"/>
   <path class="fil6 str0" d="M45.0741 15.2028l-0.7487 9.4353 7.179 -0.1846c-0.1641,-2.9058 -0.0609,-8.6143 -0.4922,-8.7175 -0.4185,-0.0999 -0.7347,-0.3369 -1.9465,-0.1141 -0.3759,0.0692 -0.2727,3.6153 -1.0242,3.455 -0.4148,-0.0884 -1.0431,-3.2102 -1.404,-3.5111 -0.9406,-0.7842 -1.5342,-0.7318 -1.5634,-0.363z"/>
   <path class="fil7 str0" d="M53.2018 23.21c0,0 0.1568,1.0213 0.1811,1.8697 0.0162,0.5655 -0.2132,1.1846 -0.271,1.1821 -0.0748,-0.0031 0.0958,-0.8041 0.022,-1.2637 -0.0689,-0.4288 -0.1229,-0.7341 -0.1444,-0.7311 -0.0444,0.0062 0.0457,0.9116 -0.201,0.9588 -0.2466,0.0472 -0.1995,-1.7893 -0.1883,-1.9267 0.0111,-0.1372 -0.0777,0.0444 -0.4646,-0.2809 -0.3868,-0.3253 0.2103,-0.5247 0.2253,-0.512l0.8409 0.7038z"/>
   <path class="fil6 str0" d="M51.1979 16.289c0,0 2.5115,3.534 2.532,4.1288 0.0205,0.5949 -0.3282,3.3639 -0.3282,3.3639l-1.9258 0.0794 0.3464 -2.7049 -0.5521 -1.4659 -0.0723 -3.4013z"/>
   <polygon class="fil6 str0" points="44.9633,24.6217 44.7766,30.9198 47.361,30.9403 47.5066,24.5563 "/>
   <polygon class="fil6 str0" points="48.0811,24.5415 48.202,31.33 51.1762,30.9813 51.1978,24.4614 "/>
   <path class="fil8 str0" d="M44.7809 30.7756l2.5801 0.1647c0,0 0.6359,1.2717 0.1642,1.7229 -0.4718,0.4513 -1.2718,0.3898 -1.8051,0.5949 -0.5333,0.2051 -1.9896,0.7383 -2.5229,0.1231 -0.5333,-0.6154 -0.2052,-1.6615 0.2872,-1.9282 0.4922,-0.2666 1.2965,-0.6774 1.2965,-0.6774z"/>
   <path class="fil8 str0" d="M48.198 31.1048c0,0 -0.6729,1.1277 0.1271,1.7225 0.8,0.5949 3.3639,0.5539 3.6921,0.4308 0.3282,-0.1231 0.5743,-0.2461 0.7384,-0.6564 0.1641,-0.4102 -0.6973,-1.2102 -1.0461,-1.2922 -0.3487,-0.0821 -0.5333,-0.3282 -0.5333,-0.3282l-2.9742 0.3487 -0.004 -0.2252z"/>
   <path class="fil9 str0" d="M48.8352 38.4422c0,0 -0.2051,-16.3273 0.1435,-16.8605 0.3487,-0.5334 2.687,-0.4307 2.9332,-0.0205 0.2462,0.4102 0.2667,16.7169 0.2667,16.7169l-3.3434 0.1641z"/>
   <path class="fil10 str0" d="M41.8567 7.4939l0.2199 0.5503c0,0 2.6871,-2.4102 5.5792,-2.2255 2.8922,0.1846 5.4561,2.3178 5.4561,2.3178l0.208 -1.3696c0,0 -2.4835,-2.8434 -5.8988,-2.7306 -3.4152,0.1128 -5.6058,3.4182 -5.6058,3.4182l0.2613 0.5897 -0.2199 -0.5503z"/>
   <circle class="fil11 str0" cx="48.1355" cy="21.421" r="0.2666"/>
   <circle class="fil11 str0" cx="48.1202" cy="20.1851" r="0.2666"/>
   <g>
    <ellipse class="fil12 str0" cx="50.324" cy="24.1745" rx="5.5675" ry="5.4842"/>
    <path class="fil12 str0" d="M49.7047 18.6617l0.0238 -0.3092c0,0 0.2558,-0.2082 0.2379,-0.3747 -0.0179,-0.1666 -0.6364,-2.1473 0.3332,-2.07 0.9695,0.0773 0.3151,1.7903 0.339,1.9926 0.0238,0.2022 0.1903,0.4462 0.1903,0.4462l0.0015 0.2958 -1.1257 0.0193z"/>
    <path class="fil12 str0" d="M53.7479 19.9296l0.2254 -0.2132c0,0 0.3293,0.0177 0.4279,-0.1177 0.0987,-0.1354 0.971,-2.0181 1.6373,-1.3096 0.6663,0.7087 -0.9692,1.5381 -1.0875,1.7038 -0.1181,0.1658 -0.1586,0.4584 -0.1586,0.4584l-0.1977 0.2201 -0.8468 -0.7418z"/>
    <path class="fil12 str0" d="M55.7938 23.6628l0.3089 0.0297c0,0 0.2031,0.2597 0.3701,0.2452 0.1668,-0.0147 2.1591,-0.5952 2.0631,0.3727 -0.0959,0.9679 -1.7961,0.2808 -1.9987,0.3007 -0.2027,0.0199 -0.4497,0.1817 -0.4497,0.1817l-0.2959 -0.0041 0.0022 -1.1259z"/>
    <path class="fil12 str0" d="M54.5798 27.7053l0.1965 0.2399c0,0 -0.0409,0.3273 0.0871,0.4354 0.1281,0.108 1.944,1.112 1.1898,1.7262 -0.7542,0.6142 -1.4651,-1.0761 -1.6222,-1.2059 -0.1569,-0.1297 -0.4458,-0.1909 -0.4458,-0.1909l-0.2056 -0.2128 0.8002 -0.7919z"/>
    <path class="fil12 str0" d="M50.8831 29.6779l-0.0184 0.3097c0,0 -0.2521,0.2126 -0.2314,0.3788 0.0207,0.1662 0.6735,2.1359 -0.2972,2.0754 -0.9708,-0.0605 -0.3462,-1.7847 -0.3735,-1.9865 -0.0273,-0.2017 -0.1981,-0.4427 -0.1981,-0.4427l-0.0066 -0.2958 1.1252 -0.0389z"/>
    <path class="fil12 str0" d="M46.8203 28.505l-0.2413 0.1951c0,0 -0.3269,-0.0429 -0.4358,0.0843 -0.1089,0.1274 -1.1241,1.9371 -1.7336,1.1792 -0.6095,-0.758 1.0852,-1.4586 1.2159,-1.6146 0.1307,-0.1562 0.1936,-0.4448 0.1936,-0.4448l0.2142 -0.2043 0.787 0.8051z"/>
    <path class="fil12 str0" d="M44.7731 24.7798l-0.3093 -0.0248c0,0 -0.2072,-0.2563 -0.3739,-0.239 -0.1666,0.0173 -2.1493,0.6293 -2.0688,-0.34 0.0804,-0.9693 1.7914,-0.3094 1.9937,-0.3325 0.2023,-0.0231 0.4468,-0.1888 0.4468,-0.1888l0.2959 -0.0006 0.0156 1.1257z"/>
    <path class="fil12 str0" d="M46.0498 20.7139l-0.2049 -0.2329c0,0 0.0294,-0.3285 -0.1023,-0.4319 -0.1318,-0.1035 -1.9822,-1.0426 -1.2502,-1.6832 0.7321,-0.6404 1.5024,1.0237 1.6638,1.1478 0.1615,0.1241 0.4524,0.1751 0.4524,0.1751l0.213 0.2053 -0.7718 0.8198z"/>
    <ellipse class="fil6 str0" cx="50.3537" cy="24.1468" rx="3.918" ry="3.7467"/>
    <path class="fil12 str0" d="M47.9 27.2585l0.146 -0.1312c0,0 0.0287,-0.3232 0.081,-0.4062 0.0525,-0.0829 1.428,-1.3383 1.428,-1.3383l-0.4456 -0.5615c0,0 -1.4206,1.389 -1.4588,1.4006 -0.0381,0.0118 -0.4359,0.1119 -0.4359,0.1119l-0.1359 0.1209 0.8212 0.8038z"/>
    <path class="fil12 str0" d="M50.8498 28.0498l0.005 -0.1964c0,0 -0.2151,-0.2429 -0.2394,-0.3379 -0.0242,-0.0952 0.0093,-1.957 0.0093,-1.957l-0.714 -0.0624c0,0 0.0323,1.9866 0.0147,2.0223 -0.0176,0.0358 -0.2183,0.3935 -0.2183,0.3935l-0.0056 0.1819 1.1483 -0.044z"/>
    <path class="fil12 str0" d="M49.7139 20.351l-0.006 0.1964c0,0 0.2142,0.2438 0.2379,0.339 0.0238,0.0952 -0.0179,1.957 -0.0179,1.957l0.7138 0.0653c0,0 -0.0237,-1.9866 -0.0059,-2.0223 0.0178,-0.0356 0.22,-0.3927 0.22,-0.3927l0.0065 -0.1817 -1.1484 0.039z"/>
    <path class="fil12 str0" d="M52.6979 21.0641l-0.1454 0.132c0,0 -0.0268,0.3235 -0.0788,0.4066 -0.0519,0.0832 -1.4206,1.3461 -1.4206,1.3461l0.4485 0.559c0,0 1.4132,-1.3967 1.4512,-1.4086 0.0382,-0.0119 0.4353,-0.1142 0.4353,-0.1142l0.1353 -0.1215 -0.8255 -0.7994z"/>
    <path class="fil12 str0" d="M47.0963 21.9296l0.1353 0.1423c0,0 0.324,0.0193 0.4084,0.0693 0.0843,0.0499 1.3788,1.3888 1.3788,1.3888l0.5484 -0.4615c0,0 -1.4292,-1.3801 -1.442,-1.4179 -0.0129,-0.0378 -0.1243,-0.4326 -0.1243,-0.4326l-0.1248 -0.1322 -0.7798 0.8438z"/>
    <path class="fil12 str0" d="M46.388 24.7869l0.1962 0.0069c0,0 0.2449,-0.213 0.3402,-0.2363 0.0952,-0.0234 1.9568,0.0272 1.9568,0.0272l0.0688 -0.7135c0,0 -1.9868,0.0143 -2.0223,-0.0037 -0.0357,-0.018 -0.3916,-0.222 -0.3916,-0.222l-0.1816 -0.0073 0.0335 1.1487z"/>
    <path class="fil12 str0" d="M53.3902 26.5004l-0.1357 -0.142c0,0 -0.324,-0.0185 -0.4085,-0.0684 -0.0846,-0.0498 -1.3817,-1.386 -1.3817,-1.386l-0.5475 0.4626c0,0 1.432,1.3773 1.445,1.4149 0.0129,0.0378 0.1252,0.4324 0.1252,0.4324l0.125 0.132 0.7782 -0.8455z"/>
    <path class="fil12 str0" d="M54.2388 23.681l-0.1963 -0.0078c0,0 -0.246,0.2115 -0.3415,0.2344 -0.0954,0.0228 -1.9566,-0.0377 -1.9566,-0.0377l-0.0726 0.7131c0,0 1.9868,-0.0037 2.0223,0.0145 0.0354,0.0183 0.3903,0.2241 0.3903,0.2241l0.1817 0.0082 -0.0273 -1.1488z"/>
    <ellipse class="fil12 str0" cx="50.3187" cy="24.2218" rx="1.4135" ry="1.4053"/>
    <ellipse class="fil13 str0" cx="50.2763" cy="24.2502" rx="0.6276" ry="0.6483"/>
   </g>
  </g>
  <path class="fil14 str2" d="M54.1355 19.0786c-0.0094,-0.0938 -0.009,-0.8037 0.3561,-1.1484 0.2551,-0.241 0.8845,-0.1473 0.9827,-0.2062 0.2388,-0.1434 0.5261,0.717 0.4463,0.8128 -0.0798,0.0956 -0.7479,-0.5724 -0.7479,-0.5724 0,0 0.5524,0.6283 0.4249,0.8035 -0.1275,0.1752 -0.6659,-0.4489 -0.6659,-0.4489 0,0 0.5477,0.8009 0.3226,0.9584 -0.2402,0.1676 -0.5041,-0.6903 -0.6455,-0.5789 -0.1576,0.1244 0.3893,0.4781 0.1436,0.7369 -0.1751,0.1842 -0.6169,-0.3568 -0.6169,-0.3568z"/>
  <path class="fil3 str2" d="M54.0183 19.189c0.0785,-0.3297 -0.0158,-0.9421 0.3455,-1.319 0.3612,-0.3768 1.2011,-0.1728 1.2011,-0.1728"/>
  <line class="fil3 str2" x1="54.3932" y1="17.7735" x2="53.0025" y2= "18.9963" />
  <line class="fil3 str2" x1="54.0309" y1="19.1231" x2="53.6371" y2= "19.6295" />
 </g>
 <g id="Layer_x0020_1_0">
  <metadata id="CorelCorpID_1Corel-Layer"/>
  <path class="fil0 str0" d="M18.681 83.553c-2.1562,0.0634 -3.9003,-1.5696 -4.3442,-2.7111 -0.4439,-1.1416 -0.6975,-2.4576 -0.6975,-2.4576 0,0 -0.0981,0.4001 -0.5419,0.4634 -0.4439,0.0633 -0.974,-1.1732 -0.974,-1.7439 0,-0.5707 0.3108,-0.9391 0.6597,-0.9391 0.3487,0 0.6659,0.7927 0.6659,0.7927l0.1903 -4.1222 9.8299 -0.0634c0,0 0.1268,3.9954 0.222,3.6783 0.095,-0.3171 -0.2018,-1.1863 0.6134,-0.9255 0.8152,0.2609 0.6622,1.0957 0.5988,1.4127 -0.0634,0.3169 -0.0458,1.5485 -0.5215,1.485 -0.4757,-0.0634 -0.659,-0.6721 -0.659,-0.6721 0.3975,1.9514 -0.287,4.2 -2.0612,5.2321 -1.4108,0.8207 -2.9807,0.5707 -2.9807,0.5707z"/>
  <path class="fil1 str0" d="M11.7044 77.648c-0.0839,-0.0396 -0.9377,-2.0427 -0.5568,-3.1631 0.3808,-1.1205 0.4788,-2.7737 1.6882,-3.9419 1.2093,-1.168 3.1595,-1.8443 3.786,-1.7914 0.6266,0.053 -0.1179,-1.0175 -0.4467,-1.1841 -0.3288,-0.1667 -0.7427,-0.3951 -0.7427,-0.3951 0,0 0.8758,-0.1952 1.4546,0.3838 0.5789,0.579 0.6369,0.7501 0.7089,0.9686 0.072,0.2185 -0.1743,-0.8675 0.229,-1.4381 0.4031,-0.5706 0.9005,-0.6011 0.9005,-0.6011 0,0 -0.3261,0.5235 -0.4815,0.9184 -0.1554,0.3949 -0.2104,1.2442 -0.2104,1.2442 0,0 0.9359,-1.0188 1.3696,-1.2219 0.4336,-0.2031 0.7519,-0.0878 0.7519,-0.0878 0,0 -0.4397,0.1996 -0.6958,0.3925 -0.256,0.1929 -0.6771,0.7702 -0.6771,0.7702l1.8821 -0.5686c0,0 -0.2441,0.337 -0.5297,0.5315 -0.2857,0.1946 -0.1415,0.4423 -0.1415,0.4423 0,0 0.7714,-0.267 1.3315,-0.0766 0.5602,0.1904 1.1341,0.6176 1.5722,1.008 0.4381,0.3904 0.264,0.4598 0.8865,0.9584 0.6224,0.4985 1.1132,0.5148 1.1626,1.3729 0.0494,0.8581 0.0963,0.9 0.5165,1.7516 0.4202,0.8517 0.1378,1.1054 -0.0961,1.6829 -0.2339,0.5775 -0.8813,-0.5956 -1.1881,-0.2513 -0.3068,0.3442 -0.5492,0.9005 -0.4743,0.1392 0.0749,-0.7613 -0.4071,1.312 -0.7078,0.9879 -0.3006,-0.3241 -0.6173,-1.7133 -0.7111,-1.7969 -0.0938,-0.0836 -0.0734,1.0932 -0.5118,0.9552 -0.4385,-0.1381 -0.6902,-1.4649 -0.6902,-1.4649 0,0 -0.2909,1.628 -0.7205,1.3855 -0.4295,-0.2424 -1.0469,-2.1744 -1.1707,-2.004 -0.1238,0.1704 0.2984,1.9486 0.0426,1.8891 -0.2558,-0.0595 -1.5187,-1.7448 -1.5187,-1.7448 0,0 0.6105,1.9253 0.3895,1.9529 -0.221,0.0275 -1.1367,-1.5239 -1.3996,-1.4494 -0.2629,0.0745 -0.0663,1.5859 -0.3187,1.5855 -0.2523,-0.0003 -1.5006,-1.0888 -1.8087,-1.0265 -0.3081,0.0623 -1.14,2.0567 -1.14,2.0567 0,0 -0.0419,-0.4741 -0.5613,-0.6 -0.5193,-0.126 -0.7403,0.103 -0.8354,0.32 -0.0951,0.2169 -0.1276,0.5529 -0.2226,0.7067 -0.0951,0.154 -0.1144,0.4035 -0.1144,0.4035z"/>
  <path class="fil3 str0" d="M23.9554 68.2959c-0.1465,-0.0059 -0.1875,0.1757 -0.1523,0.3631 0.0352,0.1875 0.0937,0.4393 0.2636,0.5272 0.1698,0.0878 0.2811,0.164 0.3807,0.0644"/>
  <ellipse class="fil2 str3" transform="matrix(0.52764 0.0622462 -0.0622462 0.52764 17.6806 78.3721)" rx="1.808" ry="1.4993"/>
  <path class="fil3 str0" d="M19.1609 79.6875c0.1204,0.1794 0.117,0.1082 0.314,0.4381 0.197,0.3299 0.3305,0.2985 -0.0131,0.4113"/>
  <path class="fil4 str0" d="M17.6627 81.0629c0.1888,0.1992 0.6579,0.3725 1.1185,0.3679 0.4605,-0.0047 1.1049,-0.2177 1.311,-0.4647 0.2061,-0.2469 -0.9193,1.1686 -1.141,1.1984 -0.2217,0.0298 -0.3537,0.0232 -0.8162,-0.4561 -0.4624,-0.4792 -0.4723,-0.6455 -0.4723,-0.6455z"/>
  <ellipse class="fil2 str3" transform="matrix(0.52764 0.0622462 -0.0622462 0.52764 20.0283 78.1904)" rx="1.808" ry="1.4993"/>
  <ellipse class="fil5 str3" transform="matrix(0.52764 0.0622462 -0.0622462 0.52764 17.9483 78.6964)" rx="0.7386" ry="0.5512"/>
  <ellipse class="fil5 str3" transform="matrix(0.52764 0.0622462 -0.0622462 0.52764 20.1677 78.574)" rx="0.7386" ry="0.5512"/>
  <path class="fil3 str0" d="M16.9345 76.5182c0.3614,-0.3073 1.2501,-0.334 1.4655,-0.0736"/>
  <line class="fil3 str0" x1="16.9675" y1="77.6318" x2="16.7439" y2= "77.3716" />
  <line class="fil3 str0" x1="17.6337" y1="77.0996" x2="17.6451" y2= "77.3655" />
  <line class="fil3 str0" x1="17.1919" y1="77.1331" x2="17.3253" y2= "77.4024" />
  <line class="fil3 str0" x1="18.1576" y1="77.169" x2="18.0547" y2= "77.4776" />
  <line class="fil3 str0" x1="18.7021" y1="77.3464" x2="18.4861" y2= "77.6276" />
  <line class="fil3 str0" x1="19.2823" y1="77.1825" x2="19.4954" y2= "77.4246" />
  <line class="fil3 str0" x1="19.8608" y1="76.9877" x2="19.9518" y2= "77.2432" />
  <line class="fil3 str0" x1="20.5294" y1="77.1141" x2="20.4165" y2= "77.3838" />
  <line class="fil3 str0" x1="20.9523" y1="77.2391" x2="20.722" y2= "77.5073" />
  <line class="fil3 str0" x1="21.1491" y1="77.6176" x2="20.9841" y2= "77.7161" />
  <path class="fil3 str0" d="M19.1791 76.4211c0.3614,-0.3073 1.2501,-0.334 1.4654,-0.0736"/>
  <sodipodi:namedview id="namedview41611" pagecolor="#ffffff" bordercolor="#666666" borderopacity="1.0" inkscape:pageshadow="2" inkscape:pageopacity="0.0" inkscape:pagecheckerboard="0" inkscape:document-units="mm" showgrid="false" inkscape:zoom="0.592" inkscape:cx="799" inkscape:cy="195" inkscape:window-width="1902" inkscape:window-height="1033" inkscape:window-x="-2" inkscape:window-y="0" inkscape:window-maximized="0" inkscape:current-layer="layer1"/>
  <polygon id="path42918" class="fil15 str4" points="7.1,78.85 18.6,82.7 18.1,94.35 6.1,91.55 "/>
  <g id="_2637843645952">
   <path id="path42920" class="fil15" d="M18.6 82.7l2.5 -0.15 -0.5 11.65 -2.5 0.15 0.5 -11.65zm0 0l0 0 0 0z"/>
   <path id="_1" class="fil16 str4" d="M18.6 82.7l2.5 -0.15 -0.5 11.65 -2.5 0.15m0.5 -11.65l0 0 0 0z"/>
  </g>
  <g id="_2637843644960">
   <path id="path42922" class="fil15" d="M20.6 94.2l10.5 -3.15 0.5 -12.85 -10.5 4.35 -0.5 11.65zm0 0l0 0 0 0z"/>
   <path id="_1_0" class="fil16 str4" d="M20.6 94.2l10.5 -3.15 0.5 -12.85 -10.5 4.35m-0.5 11.65l0 0 0 0z"/>
  </g>
  <ellipse id="path42970" class="fil17 str5" cx="27.1" cy="87.45" rx="1.2" ry="1.31"/>
  <polygon id="path43111-0" class="fil17 str4" points="25.6,87.9 24.6,87.7 24.6,88.7 "/>
  <path id="path43448" class="fil17 str4" d="M12.6 89.7l0.5 -1.6c0,0 1.5,0.4 1.5,0.3 0,0 -1,-1.1 -1,-1.1l1 -1.15 -1.5 0.35 0 -1.55c0,0 -1,1.55 -1,1.45 0,0 -1.5,-0.95 -1.5,-0.95l1 1.45 -2 0.55 1.5 0.25c0,0 -0.5,1.75 -0.5,1.6 0.5,0 1.5,-1.2 1.5,-1.2l0.5 1.6z"/>
  <ellipse id="path44194" class="fil18 str5" cx="6.1" cy="82" rx="0.695" ry="0.52"/>
  <ellipse id="path44194-3" class="fil18 str5" cx="6.1" cy="83.15" rx="0.695" ry="0.52"/>
  <ellipse id="path44194-6" class="fil18 str5" cx="6.1" cy="84.3" rx="0.695" ry="0.52"/>
  <ellipse id="path44509" class="fil18 str5" cx="31.1" cy="81.45" rx="0.67" ry="0.428"/>
  <ellipse id="path44509-5" class="fil18 str5" cx="31.1" cy="82.8" rx="0.67" ry="0.428"/>
  <ellipse id="path44509-7" class="fil18 str5" cx="31.1" cy="84" rx="0.67" ry="0.428"/>
  <polygon id="path44659" class="fil18 str4" points="22.1,93.95 24.1,95.65 24.1,96.75 20.6,94.2 "/>
  <polygon id="path44661" class="fil18 str4" points="16.6,94.2 16.6,95.4 17.6,96.7 18.1,94.35 16.6,94.1 " sodipodi:nodetypes="cccccc"/>
  <polygon id="path43111-5" class="fil17 str4" points="25.6,84.9 25.1,85.9 26.1,86.15 "/>
  <polygon id="path43111-3" class="fil17 str4" points="28.6,86.4 29.6,85.95 29.1,85.1 "/>
  <polygon id="path43111-39" class="fil17 str4" points="29.1,89.2 29.6,88.1 28.6,88.05 "/>
  <polygon id="path43111" class="fil17 str4" points="27.1,89.25 26.6,90.25 27.6,90.5 "/>
  <path id="path13514" class="fil19 str4" d="M24.6 97.5c-0.5,-0.75 -0.5,-0.65 -0.5,-1.85 0.5,-1.3 2,-2.25 2.5,-1.7 0.5,0.5 0.5,1.45 0,2.4 -0.5,0.75 -2,1.15 -2,1.15z" sodipodi:nodetypes="csssc"/>
  <path id="path13905" class="fil19 str4" d="M17.6 98.7c-1.5,0.95 -3.5,-2.9 -2.5,-3.45 0.5,-0.4 4,1.6 2.5,3.45z"/>
  <path id="path33254" class="fil20 str6" d="M89.7 81.67c0,0 1.74,0.29 1.74,0.928 0,0.58 1.74,7.192 1.74,7.192 0,0 -2.9,1.276 -4.64,1.102 -0.58,0 -3.77,0.464 -3.77,0.464l-3.074 -2.03c0,0 0.928,-1.334 1.334,-2.436 0.348,-1.102 0,-4.466 0,-4.466l6.67 -0.754z"/>
  <g id="_2637843635136">
   <path id="path33256" class="fil18" d="M84.1123 81.9806c0,0 -0.522,1.856 1.276,1.856 1.508,0 1.566,-2.204 1.566,-2.204l-2.842 0.348zm0 0l0 0 0 0z" sodipodi:nodetypes="csc"/>
   <path id="_1_1" class="fil16 str6" d="M84.1123 81.9806c0,0 -0.522,1.856 1.276,1.856 1.508,0 1.566,-2.204 1.566,-2.204m-2.842 0.348l0 0 0 0z"/>
  </g>
  <path id="path33310" class="fil16 str7" d="M86.278 86.6l2.262 2.146c0,0 2.9,-3.19 1.74,-4.002 -2.32,-1.566 -4.002,1.856 -4.002,1.856z" sodipodi:nodetypes="ccsc"/>
  <polygon id="path33312" class="fil20 str6" points="81.058,83.99 83.378,86.252 83.03,82.25 "/>
  <path id="path33522" class="fil21 str6" d="M92.02 90.138c0,0 0.58,1.798 0.58,2.726 0,0.58 -1.16,1.392 -1.16,1.392l-6.554 -2.9 7.134 -1.218z" sodipodi:nodetypes="caccc"/>
  <g id="_2637843633760">
   <path id="path34689" class="fil18" d="M81.696 84.28l-5.684 2.61c0,0 -1.624,-1.334 -2.03,-0.754 -0.406,0.522 1.682,1.682 1.218,1.508 0,0 -2.146,-0.754 -2.262,0 -0.116,0.754 2.436,0.464 2.262,0.638 -0.29,0.116 -1.508,1.392 -1.508,1.392 0.116,0 2.32,-1.102 2.32,-1.102 -0.174,0.174 -1.218,1.566 -0.638,1.856 0.58,0.29 1.102,-1.566 1.102,-1.566 0,0 1.508,1.392 1.972,0.812 0.464,-0.638 -1.392,-1.682 -1.392,-1.856 0.174,0 5.568,-2.494 5.568,-2.494l-0.928 -1.044zm0 0l0 0 0 0z" sodipodi:nodetypes="ccssssccscssc"/>
   <path id="_1_2" class="fil16 str6" d="M81.696 84.28l-5.684 2.61c0,0 -1.624,-1.334 -2.03,-0.754 -0.406,0.522 1.682,1.682 1.218,1.508 0,0 -2.146,-0.754 -2.262,0 -0.116,0.754 2.436,0.464 2.262,0.638 -0.29,0.116 -1.508,1.392 -1.508,1.392 0.116,0 2.32,-1.102 2.32,-1.102 -0.174,0.174 -1.218,1.566 -0.638,1.856 0.58,0.29 1.102,-1.566 1.102,-1.566 0,0 1.508,1.392 1.972,0.812 0.464,-0.638 -1.392,-1.682 -1.392,-1.856 0.174,0 5.568,-2.494 5.568,-2.494m-0.928 -1.044l0 0 0 0z"/>
  </g>
  <path id="path34804" class="fil22 str6" d="M77.81 83.642c-1.972,1.334 -0.754,4.176 1.74,4.466 0.58,0.058 3.364,5.858 3.364,5.858 0.116,0 1.218,-0.29 1.218,-0.464 0,-0.174 -3.364,-5.684 -3.364,-5.974 0.638,-2.32 -1.16,-4.988 -2.958,-3.886z" sodipodi:nodetypes="cscscc"/>
  <g id="_2637843631840">
   <path id="path33704" class="fil18" d="M86.742 86.89c0,0 -1.972,2.9 -2.784,2.9 -0.58,0 -1.682,-0.58 -1.682,-0.58 0,0 0.29,0.638 0,0.928 -0.464,0.406 -1.044,0.464 -1.218,0.464 -0.29,-0.174 -0.638,-0.638 -0.638,-0.638l-0.116 0.928c0,0 0.464,0.522 0.928,0.522 0.638,0 1.218,-0.348 1.218,-0.348 0,0 -0.406,0.406 -0.638,0.522 -0.348,0.174 -1.16,-0.232 -1.218,0.232 0,0.406 0.754,0.29 1.102,0.29 0.29,0 1.218,-0.29 1.218,-0.29 0,0 -0.348,0.348 -0.696,0.464 -0.29,0.174 -1.16,-0.116 -1.16,0.29 0,0.406 0.928,0.464 1.218,0.29 0.464,-0.116 1.276,-0.174 1.682,-0.754 0.174,-0.232 0.174,-1.044 0.174,-1.044l4.408 -2.784 -1.798 -1.566 0 0.174zm0 0l0 0 0 0z" sodipodi:nodetypes="cscssccscasscssssccc"/>
   <path id="_1_3" class="fil16 str6" d="M86.742 86.89c0,0 -1.972,2.9 -2.784,2.9 -0.58,0 -1.682,-0.58 -1.682,-0.58 0,0 0.29,0.638 0,0.928 -0.464,0.406 -1.044,0.464 -1.218,0.464 -0.29,-0.174 -0.638,-0.638 -0.638,-0.638l-0.116 0.928c0,0 0.464,0.522 0.928,0.522 0.638,0 1.218,-0.348 1.218,-0.348 0,0 -0.406,0.406 -0.638,0.522 -0.348,0.174 -1.16,-0.232 -1.218,0.232 0,0.406 0.754,0.29 1.102,0.29 0.29,0 1.218,-0.29 1.218,-0.29 0,0 -0.348,0.348 -0.696,0.464 -0.29,0.174 -1.16,-0.116 -1.16,0.29 0,0.406 0.928,0.464 1.218,0.29 0.464,-0.116 1.276,-0.174 1.682,-0.754 0.174,-0.232 0.174,-1.044 0.174,-1.044l4.408 -2.784 -1.798 -1.566m0 0.174l0 0 0 0z"/>
  </g>
  <ellipse id="path35801" class="fil23 str8" cx="72.358" cy="93.618" rx="7.076" ry="4.5936"/>
  <ellipse id="path35923" class="fil23 str9" cx="72.648" cy="93.676" rx="4.2282" ry="2.7666"/>
  <polygon id="path36078" class="fil17 str6" points="70.734,92.748 71.372,91.646 72.59,92.284 72.126,93.502 "/>
  <polygon id="path36080" class="fil17 str6" points="73.808,92.748 73.692,91.646 74.91,91.936 74.62,93.212 "/>
  <polygon id="path36082" class="fil17 str6" points="71.372,94.43 70.328,93.966 69.864,95.184 71.198,95.648 "/>
  <polygon id="path36084" class="fil17 str6" points="73.228,94.256 72.59,95.184 73.228,95.822 73.982,95.358 74.156,94.43 "/>
  <polygon id="path36084-2" class="fil17 str6" points="69.922,91.994 69.284,92.922 69.922,93.56 70.676,93.096 70.85,92.168 "/>
  <polygon id="path36084-8" class="fil17 str6" points="72.474,93.154 71.836,94.082 72.474,94.72 73.228,94.256 73.402,93.328 "/>
  <polygon id="path36084-1" class="fil17 str6" points="75.374,93.966 74.736,94.894 75.374,95.532 76.128,95.068 76.302,94.14 "/>
  <path class="fil0 str0" d="M84.3244 81.8168c0.3371,0.0306 0.6845,-0.0613 1.3077,-0.2146 0.6233,-0.1532 1.5326,-0.5517 1.6654,-0.6743 0.1328,-0.1226 0.1635,-0.4801 0.1635,-0.4801 0,0 0.6181,0.1021 0.7918,-0.0307 0.1737,-0.1328 1.2515,-0.991 0.5977,-1.6347 -0.6539,-0.6437 -0.6743,0.1532 -0.9094,0.2043 -0.235,0.0511 0.0717,-1.2362 0.0409,-1.369 -0.0307,-0.1328 0.5415,-4.5467 0.0102,-5.2414 -0.5312,-0.6947 -2.6154,-2.6563 -3.5146,-2.6155 -0.899,0.0409 -2.4417,0.9908 -2.7481,0.9501 -0.3065,-0.0409 -1.042,1.1136 -1.1544,2.36 -0.1123,1.2465 0.0715,1.5838 -0.3065,2.5235 -0.3016,0.75 -0.5476,4.2816 1.4189,5.8764 0.687,0.5572 2.6369,0.346 2.6369,0.346z"/>
  <path class="fil1 str0" d="M88.5802 80.5954c0.0868,0.0256 2.0075,-0.8787 2.4571,-1.9412 0.4495,-1.0626 1.4506,-2.3295 1.328,-3.9643 -0.1226,-1.6346 -1.1034,-3.3919 -1.5938,-3.7597 -0.4905,-0.3679 0.7458,-0.6642 1.0932,-0.5722 0.3474,0.0919 0.7969,0.1941 0.7969,0.1941 0,0 -0.5108,-0.7101 -1.3077,-0.6641 -0.7969,0.046 -0.9502,0.1328 -1.1443,0.2452 -0.1941,0.1124 0.6895,-0.5184 0.7662,-1.1953 0.0767,-0.6769 -0.2656,-1.0217 -0.2656,-1.0217 0,0 -0.1022,0.5926 -0.2452,0.9809 -0.1431,0.3882 -0.6539,1.0421 -0.6539,1.0421 0,0 -0.0204,-1.3487 -0.2044,-1.7778 -0.1839,-0.4291 -0.4903,-0.5517 -0.4903,-0.5517 0,0 0.1906,0.4306 0.2518,0.7371 0.0614,0.3065 -0.0067,0.9997 -0.0067,0.9997l-1.0012 -1.6346c0,0 -0.0408,0.4036 0.0409,0.7305 0.0817,0.3269 -0.184,0.4138 -0.184,0.4138 0,0 -0.3882,-0.6948 -0.9195,-0.9195 -0.5313,-0.2248 -1.226,-0.2861 -1.7981,-0.2861 -0.5722,0 -0.4904,0.1634 -1.2669,0.1226 -0.7765,-0.0409 -1.1443,-0.3473 -1.7369,0.2452 -0.5926,0.5926 -0.6539,0.5926 -1.5121,0.9399 -0.8582,0.3474 -0.8173,0.7152 -1.0216,1.2874 -0.2045,0.5721 -0.184,0.9399 -0.184,1.3894 0,0.4496 0.7152,0.3372 1.1545,-0.2656 0.4393,-0.6027 -0.1328,1.4713 0.2963,1.4303 0.4291,-0.0408 1.4509,-1.2259 1.5734,-1.2259 0.1226,0 -0.8378,1.6142 -0.4291,1.7981 0.4087,0.184 1.6347,-1.3895 1.6347,-1.3895 0,0 -0.9808,1.3691 -0.5108,1.4712 0.4699,0.1023 2.309,-0.8991 2.2886,-0.6947 -0.0205,0.2044 -1.4509,1.3282 -1.2261,1.4508 0.2247,0.1226 2.2068,-0.3882 2.2068,-0.3882 0,0 -1.7777,1.0829 -1.6346,1.2464 0.143,0.1635 1.9003,-0.4495 2.0433,-0.2248 0.143,0.2248 -0.7765,1.226 -0.5925,1.3895 0.1838,0.1635 0.8581,0.4291 1.042,0.6743 0.184,0.2453 0.2322,1.9595 0.2322,1.9595 0,0 0.3298,-0.6005 0.7895,-0.3553 0.4598,0.2451 0.4803,0.8378 0.4087,1.0575 -0.0715,0.2196 -0.2657,0.4852 -0.2963,0.6588 -0.0306,0.1737 -0.1785,0.3679 -0.1785,0.3679z"/>
  <ellipse class="fil2 str0" cx="83.9871" cy="77.0092" rx="0.8378" ry="0.6948"/>
  <ellipse class="fil2 str0" cx="81.9765" cy="76.5982" rx="0.6824" ry="0.6255"/>
  <path class="fil3 str0" d="M82.5704 77.9973c-0.1226,0.1431 -0.1123,0.0818 -0.3167,0.3474 -0.2044,0.2656 -0.3168,0.2247 -0.0307,0.3576"/>
  <path class="fil4 str0" d="M83.7276 79.3417c-0.1839,0.1533 -0.6079,0.2554 -1.0063,0.2044 -0.3985,-0.0512 -0.9348,-0.3014 -1.0881,-0.5365 -0.1533,-0.235 0.6768,1.1061 0.8658,1.1546 0.1889,0.0485 0.304,0.0562 0.7535,-0.3117 0.4495,-0.3678 0.4751,-0.5108 0.4751,-0.5108z"/>
  <ellipse class="fil5 str0" cx="83.631" cy="77.1398" rx="0.3423" ry="0.2554"/>
  <ellipse class="fil5 str0" cx="81.8391" cy="76.7707" rx="0.3423" ry="0.2554"/>
  <path class="fil3 str0" d="M88.3278 79.0683c0.1278,-0.0051 0.1635,0.1532 0.1328,0.3167 -0.0306,0.1635 -0.0817,0.3832 -0.2298,0.4598 -0.1482,0.0766 -0.2452,0.143 -0.332,0.0562"/>
  <path class="fil3 str0" d="M84.8368 75.7298c-0.2247,-0.3474 -0.9603,-0.5926 -1.2055,-0.4291"/>
  <path class="fil3 str0" d="M82.4257 74.9329c-0.2452,-0.3065 -0.8582,-0.4087 -1.0422,-0.1022"/>
  <line class="fil3 str0" x1="84.5884" y1="76.5255" x2="84.8086" y2= "76.3229" />
  <line class="fil3 str0" x1="84.1854" y1="76.0982" x2="84.1483" y2= "76.3273" />
  <line class="fil3 str0" x1="84.5328" y1="76.1237" x2="84.3897" y2= "76.3433" />
  <line class="fil3 str0" x1="83.7256" y1="76.0573" x2="83.7832" y2= "76.3352" />
  <line class="fil3 str0" x1="83.2862" y1="76.1493" x2="83.4447" y2= "76.4149" />
  <line class="fil3 str0" x1="82.6017" y1="75.9144" x2="82.3923" y2= "76.1023" />
  <line class="fil3 str0" x1="82.1725" y1="75.7662" x2="82.0676" y2= "75.9782" />
  <line class="fil3 str0" x1="81.7026" y1="75.756" x2="81.7727" y2= "76.0011" />
  <line class="fil3 str0" x1="81.4011" y1="75.8377" x2="81.5732" y2= "76.0936" />
  <line class="fil3 str0" x1="81.2173" y1="76.1443" x2="81.3501" y2= "76.2464" />
 </g>
</svg>
