<?xml version="1.0" encoding="UTF-8" standalone="no"?>
<!-- Created with Inkscape (http://www.inkscape.org/) -->

<svg
   width="100mm"
   height="100mm"
   viewBox="0 0 100 100"
   version="1.1"
   id="svg51840"
   inkscape:version="1.1 (c68e22c387, 2021-05-23)"
   sodipodi:docname="timetable.svg"
   xmlns:inkscape="http://www.inkscape.org/namespaces/inkscape"
   xmlns:sodipodi="http://sodipodi.sourceforge.net/DTD/sodipodi-0.dtd"
   xmlns="http://www.w3.org/2000/svg"
   xmlns:svg="http://www.w3.org/2000/svg">
  <sodipodi:namedview
     id="namedview51842"
     pagecolor="#ffffff"
     bordercolor="#666666"
     borderopacity="1.0"
     inkscape:pageshadow="2"
     inkscape:pageopacity="0.0"
     inkscape:pagecheckerboard="0"
     inkscape:document-units="mm"
     showgrid="false"
     inkscape:zoom="1.41"
     inkscape:cx="266"
     inkscape:cy="163"
     inkscape:window-width="1920"
     inkscape:window-height="1001"
     inkscape:window-x="-9"
     inkscape:window-y="-9"
     inkscape:window-maximized="1"
     inkscape:current-layer="layer1" />
  <defs
     id="defs51837" />
  <g
     inkscape:label="Layer 1"
     inkscape:groupmode="layer"
     id="layer1">
    <g
       id="g57502"
       transform="matrix(0.332,0.02,-0.02,0.332,19.4,4.16)"
       style="stroke-width:3.00215">
      <path
         style="fill:none;stroke:#000000;stroke-width:1.396;stroke-linecap:butt;stroke-linejoin:miter;stroke-miterlimit:4;stroke-dasharray:none;stroke-opacity:1"
         d="m 57.9,60.4 c 0,0 8.2,-1.8 9.7,-7.3 C 70,44.3 60.9,31.4 46.8,27.7 38.6,25.5 1.4,32.7 8.2,81.6 13.4,118 71.1,198 80.7,225 c 5,13 -3.9,41 -23.9,39 -25.1,-2 -8,-31 0.7,-21"
         id="path51936"
         sodipodi:nodetypes="csssssc" />
      <path
         style="fill:none;stroke:#000000;stroke-width:1.39572;stroke-linecap:butt;stroke-linejoin:miter;stroke-miterlimit:4;stroke-dasharray:none;stroke-opacity:1"
         d="m 160,74.1 c 0,0 7,-1.4 8,-6.1 2,-7.4 -5,-18.3 -18,-21.4 -7,-1.8 -37,4.3 -32,45.2 5,31.2 52,98.2 61,121.2 5,11 -3,35 -20,33 -21,-2 -7,-26 1,-17"
         id="path51936-1"
         sodipodi:nodetypes="csssssc" />
      <path
         style="fill:#fff6d5;stroke:#000000;stroke-width:0.795573px;stroke-linecap:butt;stroke-linejoin:miter;stroke-opacity:1"
         d="M 43.8,27.2 150,46.1 c 12,3.4 29,22.5 10,28.1 L 58,60.4 C 80.4,54.1 58.9,28 43.8,27.2 Z"
         id="path53231"
         sodipodi:nodetypes="ccccc" />
      <path
         style="fill:#ffeeaa;stroke:#000000;stroke-width:0.795573px;stroke-linecap:butt;stroke-linejoin:miter;stroke-opacity:1"
         d="m 166,228 -1,-5 c 0,0 -76.8,11 -112.8,18 -1,0 1.7,0 3.5,0 1.4,1 1.8,2 1.8,2"
         id="path54553"
         sodipodi:nodetypes="ccssc" />
      <path
         style="fill:none;stroke:#000000;stroke-width:1.396;stroke-linecap:butt;stroke-linejoin:miter;stroke-miterlimit:4;stroke-dasharray:none;stroke-opacity:1"
         d="M 57.5,243 166,228"
         id="path54518" />
      <path
         style="fill:#ffeeaa;stroke:#000000;stroke-width:0.795573px;stroke-linecap:butt;stroke-linejoin:miter;stroke-opacity:1"
         d="M 80.8,223 175,203 c 0,0 7,13 6,20 -1,8 -4,16 -8,19 -5,3 -15,4 -15,4 -29,5 -17,5 -91.4,16 0,0 8.4,-5 11,-10 2.7,-5 2.7,-4 4.3,-11 1.6,-8 -1.1,-19 -1.1,-19"
         id="path54245"
         sodipodi:nodetypes="ccssccssc" />
      <path
         style="fill:#ffeeaa;stroke:#000000;stroke-width:0.795573px;stroke-linecap:butt;stroke-linejoin:miter;stroke-opacity:1"
         d="m 57.5,243 c 0,0 -1.1,-2 -5.3,-2 -4.2,1 -9.5,8 -8.7,13 0.8,6 6.3,10 13.5,10 7.4,0 9.8,-2 9.8,-2 0,0 9.5,-7 10.8,-10 1.4,-3 4.3,-12 4.3,-12 z"
         id="path55419" />
      <path
         style="fill:#ffeeaa;stroke:#000000;stroke-width:0.795573px;stroke-linecap:butt;stroke-linejoin:miter;stroke-opacity:1"
         d="m 58,60.4 c 0,0 9.8,-1 9.8,-9 C 67.8,43.7 58,26.4 44,27.3 29.9,28.1 21.3,32.1 15.6,41.6 9.94,51.1 6.91,64.6 7.1,73.9 7.27,82 6.39,82.1 11.4,96.5 16.2,110 80.8,223 80.8,223 l 1.4,17 c 0,0 -2.4,9 -5.1,13 -2.6,4 -10.3,9 -10.3,9 0,0 83.2,-9 106.2,-19 7,-3 10,-14 10,-21 0,-7 -8,-19 -8,-19 0,0 -46,-70 -57,-109.1 -2,-5.7 1,-25.3 1,-25.3 z"
         id="path55725"
         sodipodi:nodetypes="csssssccacszcscc" />
    </g>
  </g>
</svg>
