<?xml version="1.0" encoding="UTF-8" standalone="no"?>
<!-- Created with Inkscape (http://www.inkscape.org/) -->

<svg
   width="64mm"
   height="40mm"
   viewBox="0 0 64 40"
   version="1.1"
   id="svg5"
   inkscape:version="1.1 (c68e22c387, 2021-05-23)"
   sodipodi:docname="kg1.svg"
   xmlns:inkscape="http://www.inkscape.org/namespaces/inkscape"
   xmlns:sodipodi="http://sodipodi.sourceforge.net/DTD/sodipodi-0.dtd"
   xmlns="http://www.w3.org/2000/svg"
   xmlns:svg="http://www.w3.org/2000/svg">
  <sodipodi:namedview
     id="namedview7"
     pagecolor="#ffffff"
     bordercolor="#666666"
     borderopacity="1.0"
     inkscape:pageshadow="2"
     inkscape:pageopacity="0.0"
     inkscape:pagecheckerboard="0"
     inkscape:document-units="mm"
     showgrid="false"
     units="mm"
     inkscape:zoom="4"
     inkscape:cx="113"
     inkscape:cy="71.6"
     inkscape:window-width="1920"
     inkscape:window-height="1001"
     inkscape:window-x="-9"
     inkscape:window-y="-9"
     inkscape:window-maximized="1"
     inkscape:current-layer="g3926" />
  <defs
     id="defs2" />
  <g
     inkscape:label="Layer 1"
     inkscape:groupmode="layer"
     id="layer1">
    <g
       id="g3926"
       transform="matrix(0.336,0,0,0.335,0.62,-39)"
       style="stroke-width:2.97111">
      <path
         style="fill:#00ffff;stroke:#00ffff;stroke-width:0.789221px;stroke-linecap:butt;stroke-linejoin:miter;stroke-opacity:1"
         d="m 11.9,226 c 0,0 -12.99,-4 -4.48,-7 5.78,-3 17.68,3 18.98,4 1.6,2 9.6,10 9.6,10 h 30 c 0,0 -25.8,-20 -42.5,-20 -11.1,-2 -23.436,0 -24.55,3 -2.86,10 12.95,10 12.95,10 z"
         id="path4397"
         sodipodi:nodetypes="cssccssc" />
      <path
         style="fill:#00ffff;stroke:#00ffff;stroke-width:0.789221px;stroke-linecap:butt;stroke-linejoin:miter;stroke-opacity:1"
         d="m 66,226 c 0,0 -13,-4 -4.6,-7 6,-3 18.2,3 18.9,4 2.1,2 10,10 10,10 H 120 c 0,0 -25.4,-20 -42.6,-20 -10.9,-2 -23.2,0 -24.4,3 -2.8,10 13,10 13,10 z"
         id="path4397-8"
         sodipodi:nodetypes="cssccssc" />
      <a
         id="a2111"
         transform="matrix(0.962,0,0,0.977,7.13,5.17)"
         style="stroke-width:3.0645">
        <g
           id="g4328"
           transform="matrix(1.72,0,0,-1.71,0.996,438)"
           style="stroke:#ffe680;stroke-width:1.7945">
          <path
             style="fill:#ffcc00;stroke:#838ced;stroke-width:1.72971;stroke-linecap:butt;stroke-linejoin:miter;stroke-miterlimit:4;stroke-dasharray:none;stroke-opacity:1"
             d="m -5.83,184 c -0.69,-1 5.181,2 8.05,1 3.86,-2 4.56,-6 4.9,-7 0.63,-2 0.1,-21 7.58,-32 8.7,-13 35.1,-17 38,-19 2.7,-1 5.1,-4 5.1,-4 h 10.8 c 0,0 1.6,2 4,4 4.3,4 16.8,6 22.3,9 4.1,2 9.1,16 11.1,21 2,6 1,25 1,25 l -24.6,3 c 0,0 2.1,-11 1.2,-12 -2.9,-2 -32.3,-2 -33.2,-1 0,0 0.5,9 0.4,12 0,2 -13.9,2 -13.9,2 -5.1,0 -27.23,-1 -28.23,-1 -0.56,0 -3.91,3 -7.45,4 -4.16,0 -6.42,-3 -7.05,-5 z"
             id="path1016"
             sodipodi:nodetypes="sssssccsssccscsssss" />
          <path
             style="fill:#ffe680;stroke:#368689;stroke-width:1.19234;stroke-linecap:butt;stroke-linejoin:miter;stroke-miterlimit:4;stroke-dasharray:none;stroke-opacity:1"
             d="m 51,184 c -0.3,3 -42.33,-1 -42.33,-2 0,0 -0.91,-25 10.03,-37 6.4,-7 28.4,-16 43.6,-16 17.7,0 24.5,0 33.6,7 6.1,5 10.1,19 10.1,21 0,1 4,31 1,29 0,0 -22.5,1 -24.6,-1 -1.4,-1 -1.5,-10 -1.5,-10 0,0 -16.5,-2 -28.6,-1 -0.8,4 -0.6,3 -1.3,10 z"
             id="path1536"
             sodipodi:nodetypes="scssssssccs" />
        </g>
      </a>
      <path
         style="fill:#00ffff;stroke:#00ffff;stroke-width:0.789221px;stroke-linecap:butt;stroke-linejoin:miter;stroke-opacity:1"
         d="m 132,226 c 0,0 -13,-4 -5,-7 6,-3 18,3 19,4 2,2 10,10 10,10 h 29 c 0,0 -25,-20 -42,-20 -11,-2 -23,0 -24,3 -3,10 13,10 13,10 z"
         id="path4397-5"
         sodipodi:nodetypes="cssccssc" />
      <path
         style="fill:#4d4d4d;stroke:#4d4d4d;stroke-width:0.788499px;stroke-linecap:butt;stroke-linejoin:miter;stroke-opacity:1"
         d="m 32.5,138 5.9,17 10.7,-25 -10,17 z"
         id="path862" />
      <ellipse
         style="fill:none;stroke:#4d4d4d;stroke-width:1.9815"
         id="path1032"
         cx="38.9"
         cy="154"
         rx="7.08"
         ry="5.83" />
    </g>
  </g>
</svg>
