<?xml version="1.0" encoding="UTF-8" standalone="no"?>
<!-- Created with Inkscape (http://www.inkscape.org/) -->

<svg
   width="210mm"
   height="297mm"
   viewBox="0 0 210 297"
   version="1.1"
   id="svg67766"
   inkscape:version="1.1 (c68e22c387, 2021-05-23)"
   sodipodi:docname="reserved_copy.svg"
   xmlns:inkscape="http://www.inkscape.org/namespaces/inkscape"
   xmlns:sodipodi="http://sodipodi.sourceforge.net/DTD/sodipodi-0.dtd"
   xmlns="http://www.w3.org/2000/svg"
   xmlns:svg="http://www.w3.org/2000/svg">
  <sodipodi:namedview
     id="namedview67768"
     pagecolor="#ffffff"
     bordercolor="#666666"
     borderopacity="1.0"
     inkscape:pageshadow="2"
     inkscape:pageopacity="0.0"
     inkscape:pagecheckerboard="0"
     inkscape:document-units="mm"
     showgrid="false"
     inkscape:zoom="0.741"
     inkscape:cx="397"
     inkscape:cy="670"
     inkscape:window-width="1920"
     inkscape:window-height="1017"
     inkscape:window-x="-8"
     inkscape:window-y="-8"
     inkscape:window-maximized="1"
     inkscape:current-layer="layer1" />
  <defs
     id="defs67763" />
  <g
     inkscape:label="Layer 1"
     inkscape:groupmode="layer"
     id="layer1">
    <path
       style="fill:#fc7614;fill-opacity:1;stroke:#000000;stroke-width:0.265px;stroke-linecap:butt;stroke-linejoin:miter;stroke-opacity:1"
       d="m -9,129 c -5,-8 3,-14 6,-19 3,-4 -10,-8 -9,-13 2,-3 9,-4 11,-12 3,-8 -8,-69 12,-88 20,-18 71,-11 81,-3 24,21 10,88 15,93 13,15 -1,21 -1,26 2,8 5,8 5,11 -3,2 -9,8 -9,8 z"
       id="path15539"
       sodipodi:nodetypes="csssssssscc" />
    <path
       style="fill:#fcca95;fill-opacity:1;stroke:#000000;stroke-width:0.265px;stroke-linecap:butt;stroke-linejoin:miter;stroke-opacity:1"
       d="M 46,95 C 16,91 0,65 3,49 5,36 12,14 35,4 c 8,-4 -7,13 37,25 19,5 14,31 14,31 0,0 10,-14 11,-1 1,9 -10,9 -10,9 0,0 -9,31 -41,27 z"
       id="path1994"
       sodipodi:nodetypes="sssscscs" />
    <path
       style="fill:#856ec5;fill-opacity:1;stroke:#000000;stroke-width:0.265px;stroke-linecap:butt;stroke-linejoin:miter;stroke-opacity:1"
       d="m 35,93 c 0,0 -22,2 -29,9 -8,11 -26,56 -26,56 0,0 7,16 6,21 -1,6 18,-29 20,-34 2,-5 5,-21 5,-21 0,0 -2,18 2,26 3,5 5,5 6,11 1,2 1,16 -1,21 -1,5 -17,19 -17,19 12,28 96,23 91,13 -4,-8 -13,-29 -15,-40 -4,-22 10,-53 10,-53 0,0 0,58 1,58 2,3 18,11 18,11 0,0 -5,-69 -7,-77 C 96,105 74,89 74,89 68,121 38,143 38,143 35,138 25,100 35,93 Z"
       id="path2647"
       sodipodi:nodetypes="cscsscsssssscscsssc" />
    <path
       style="fill:#fffaf0;stroke:#000000;stroke-width:0.265px;stroke-linecap:butt;stroke-linejoin:miter;stroke-opacity:1"
       d="m 32,116 c 0,0 7,16 29,2 5,-3 -23,27 -23,27 0,0 -10,-25 -6,-29 z"
       id="path2739"
       sodipodi:nodetypes="sscs" />
    <path
       style="fill:none;stroke:#000000;stroke-width:0.265px;stroke-linecap:butt;stroke-linejoin:miter;stroke-opacity:1"
       d="m 13,150 c 0,0 7,11 14,11 7,2 11,0 11,0"
       id="path3367" />
    <path
       style="fill:none;stroke:#000000;stroke-width:0.265px;stroke-linecap:butt;stroke-linejoin:miter;stroke-opacity:1"
       d="m 58,162 c 14,3 20,-10 20,-10"
       id="path3369"
       sodipodi:nodetypes="cc" />
    <path
       style="fill:#fcca95;fill-opacity:1;stroke:#000000;stroke-width:0.265px;stroke-linecap:butt;stroke-linejoin:miter;stroke-opacity:1"
       d="m 88,179 c 0,0 -13,12 -21,14 -4,1 -14,0 -14,0 -2,0 -7,-9 -10,-6 -2,2 4,8 4,8 0,0 -12,6 -11,8 1,2 9,-2 9,-2 0,0 -10,5 -9,7 1,2 12,-5 12,-5 0,0 -7,6 -6,8 1,2 9,-5 9,-5 0,0 -3,4 -2,5 1,2 8,-5 8,-5 0,0 4,-5 5,-5 2,0 40,-13 40,-13 z"
       id="path3789"
       sodipodi:nodetypes="casscscscscscscc" />
    <path
       style="fill:#434343;fill-opacity:1;stroke:#000000;stroke-width:0.265px;stroke-linecap:butt;stroke-linejoin:miter;stroke-opacity:1"
       d="m 1,203 c -14,5 -41,16 -35,27 1,1 -2,5 2,7 3,1 11,2 13,2 17,1 48,-20 48,-20 0,0 -34,19 -30,28 1,2 -2,7 2,9 5,4 17,5 25,3 14,-3 74,-25 74,-25 l -7,-16 c 0,0 -55,29 -64,32 -5,2 64,-32 64,-32 C 20,225 3,202 1,203 Z"
       id="path3843"
       sodipodi:nodetypes="sssscsssccsss" />
    <path
       style="fill:#fcca95;fill-opacity:1;stroke:#000000;stroke-width:0.265px;stroke-linecap:butt;stroke-linejoin:miter;stroke-opacity:1"
       d="m 35,93 c 0,0 20,10 39,-4 0,0 -5,20 -12,29 -4,6 -23,7 -30,0 -5,-6 3,-25 3,-25"
       id="path10385"
       sodipodi:nodetypes="csssc" />
    <ellipse
       style="fill:#00ffff;fill-opacity:1;stroke:#d2691e;stroke-width:0.600946"
       id="path17322"
       cx="20"
       cy="48"
       rx="4.37"
       ry="3.68" />
    <ellipse
       style="fill:#40e0d0;fill-opacity:1;stroke:#d2691e;stroke-width:0.600946"
       id="path17322-1"
       cx="65"
       cy="53"
       rx="4.37"
       ry="3.68" />
    <ellipse
       style="fill:#000000;fill-opacity:1;stroke:#000000;stroke-width:0.908165"
       id="path17674"
       cx="20"
       cy="48"
       rx="2.02"
       ry="2.3" />
    <ellipse
       style="fill:#000000;fill-opacity:1;stroke:#000000;stroke-width:0.908165"
       id="path17674-0"
       cx="65"
       cy="53"
       rx="2.02"
       ry="2.3" />
    <path
       style="fill:#fff5ee;stroke:#000000;stroke-width:0.265px;stroke-linecap:butt;stroke-linejoin:miter;stroke-opacity:1"
       d="m 27,71 c 0,0 9,2 13,2 4,0 13,-2 13,-2 0,0 -7,13 -13,13 C 34,84 27,71 27,71 Z"
       id="path17855"
       sodipodi:nodetypes="cscsc" />
    <path
       style="fill:none;stroke:#000000;stroke-width:0.265px;stroke-linecap:butt;stroke-linejoin:miter;stroke-opacity:1"
       d="m 21,28 c 0,0 3,-1 4,0 1,1 2,3 2,3"
       id="path18099"
       sodipodi:nodetypes="csc" />
    <path
       style="fill:none;stroke:#000000;stroke-width:0.265px;stroke-linecap:butt;stroke-linejoin:miter;stroke-opacity:1"
       d="m 63,35 c 0,0 2,-2 3,-2 1,0 4,2 4,2"
       id="path18101"
       sodipodi:nodetypes="csc" />
    <path
       style="fill:none;stroke:#000000;stroke-width:0.265px;stroke-linecap:butt;stroke-linejoin:miter;stroke-opacity:1"
       d="m 40,55 c 0,0 -6,7 -4,10 2,2 7,1 7,1"
       id="path23993"
       sodipodi:nodetypes="csc" />
    <path
       style="fill:#fcca95;fill-opacity:1;stroke:#000000;stroke-width:0.265px;stroke-linecap:butt;stroke-linejoin:miter;stroke-opacity:1"
       d="m -14,176 c 0,0 -4,7 -6,6 -13,-7 -11,-33 -12,-41 -1,-5 2,-31 2,-31 l 3,14 c 0,0 6,-1 6,1 0,2 -6,3 -6,3 0,0 6,-1 6,1 0,2 -6,2 -6,2 0,0 6,0 6,2 0,2 -6,2 -6,2 0,0 6,0 6,2 0,1 -4,2 -4,2 0,0 -2,2 -2,6 1,13 7,13 7,13 z"
       id="path24689"
       sodipodi:nodetypes="cssccscscscscscc" />
    <path
       style="fill:#d29c11;fill-opacity:1;stroke:#000000;stroke-width:0.265px;stroke-linecap:butt;stroke-linejoin:miter;stroke-opacity:1"
       d="m 178,199 21,18 -5,11 2,16 c 0,0 24,-5 19,-5 -5,-3 -11,-6 -13,-8 -3,-3 10,-77 10,-85 -2,-8 -5,-37 -29,-45 -26,-8 -62,4 -72,28 -8,18 3,75 3,75 z"
       id="path27215"
       sodipodi:nodetypes="ccccssssscc" />
    <path
       style="fill:#fcca95;fill-opacity:1;stroke:#000000;stroke-width:0.265px;stroke-linecap:butt;stroke-linejoin:miter;stroke-opacity:1"
       d="m 146,204 c -11,0 -32,-13 -37,-37 -5,-26 16,-40 19,-40 2,-2 26,-10 29,-8 0,0 8,22 21,30 13,10 13,23 13,23 0,0 11,-8 11,3 -3,11 -11,8 -11,8 0,0 -10,24 -45,21 z"
       id="path27213" />
    <path
       style="fill:#800000;stroke:#000000;stroke-width:0.265px;stroke-linecap:butt;stroke-linejoin:miter;stroke-opacity:1"
       d="m 72,222 3,-8 c 0,0 28,-21 31,-19 0,0 2,6 2,6 l -26,18 z"
       id="path33397" />
    <path
       style="fill:#fcca95;fill-opacity:1;stroke:#000000;stroke-width:0.265px;stroke-linecap:butt;stroke-linejoin:miter;stroke-opacity:1"
       d="m 111,215 c 0,0 -3,10 -6,11 0,0 -5,-4 -5,-7 0,0 2,-9 0,-13 -2,-2 -8,-3 -8,-3 0,0 5,7 3,8 -3,2 -8,5 -8,5 h 4 c 0,0 4,27 10,27 7,0 21,-16 21,-16 z"
       id="path32735"
       sodipodi:nodetypes="cssscsccscc" />
    <path
       style="fill:#fc78b4;fill-opacity:1;stroke:#000000;stroke-width:0.265px;stroke-linecap:butt;stroke-linejoin:miter;stroke-opacity:1"
       d="m 189,278 c 0,0 -49,24 -78,-17 -2,-3 15,-38 11,-34 l -3,3 -12,-20 9,-7 11,-7 8,5 c 0,0 0,15 13,18 11,0 19,-16 19,-16 l 13,-5 21,18 c 0,0 -11,18 -16,14 0,0 -2,-9 -5,-14 l 9,62"
       id="path27387"
       sodipodi:nodetypes="csscccccscccscc" />
    <path
       style="fill:#8b0000;stroke:#000000;stroke-width:0.265px;stroke-linecap:butt;stroke-linejoin:miter;stroke-opacity:1"
       d="m 153,240 6,-2 13,29 c 0,0 0,9 -2,7 l -6,-5 z"
       id="path31764"
       sodipodi:nodetypes="cccscc" />
    <path
       style="fill:#fcca95;fill-opacity:1;stroke:#000000;stroke-width:0.265px;stroke-linecap:butt;stroke-linejoin:miter;stroke-opacity:1"
       d="m 185,230 c 0,0 4,18 0,18 h -16 c -3,0 -2,-6 -6,-4 v 4 c 0,0 -10,-1 -9,2 0,2 5,1 5,1 0,1 -4,1 -4,2 1,1 5,0 5,0 0,0 -5,1 -4,3 1,2 5,-1 5,-1 0,0 -4,2 -4,4 1,1 4,-1 4,-1 3,-1 4,-2 7,-2 3,-3 28,5 30,0 4,-17 0,-26 -1,-33 -1,-3 -4,6 -12,7 z"
       id="path30057"
       sodipodi:nodetypes="cssccssacscsssccc" />
    <path
       style="fill:#256e8e;fill-opacity:1;stroke:#000000;stroke-width:0.265px;stroke-linecap:butt;stroke-linejoin:miter;stroke-opacity:1"
       d="m 133,280 c 0,0 -10,-5 -13,-9 -4,-4 -9,-10 -9,-10 0,0 -8,-15 -20,-10 -12,3 -8,26 -8,26 0,0 22,-3 22,-6 0,-5 11,17 17,16 18,-4 11,-7 11,-7 z"
       id="path28011"
       sodipodi:nodetypes="cscscssc" />
    <path
       style="fill:#2a6b8b;fill-opacity:1;stroke:#000000;stroke-width:0.265px;stroke-linecap:butt;stroke-linejoin:miter;stroke-opacity:1"
       d="m 151,288 38,-10 c 0,0 -1,14 -6,16 -5,6 -26,13 -28,10 -3,0 -4,-16 -4,-16 z"
       id="path28013"
       sodipodi:nodetypes="ccssc" />
    <path
       style="fill:#fcca95;fill-opacity:1;stroke:#000000;stroke-width:0.265px;stroke-linecap:butt;stroke-linejoin:miter;stroke-opacity:1"
       d="m 151,288 c 0,0 -9,4 -19,3 -5,-1 -4,13 -4,13 l 26,-1"
       id="path28524"
       sodipodi:nodetypes="cscc" />
    <path
       style="fill:#fcca95;fill-opacity:1;stroke:#000000;stroke-width:0.265px;stroke-linecap:butt;stroke-linejoin:miter;stroke-opacity:1"
       d="m 87,276 25,20 7,-6 -15,-18 z"
       id="path28806"
       sodipodi:nodetypes="ccccc" />
    <path
       style="fill:#ff4500;stroke:#000000;stroke-width:0.265px;stroke-linecap:butt;stroke-linejoin:miter;stroke-opacity:1"
       d="m 130,304 c 0,0 -16,-3 -14,-5 3,-3 6,-8 8,-8 h 8"
       id="path29562"
       sodipodi:nodetypes="cssc" />
    <path
       style="fill:#ff6347;stroke:#000000;stroke-width:0.265px;stroke-linecap:butt;stroke-linejoin:miter;stroke-opacity:1"
       d="m 119,290 c 0,0 13,0 13,5 0,5 -13,8 -16,5 l -4,-4 z"
       id="path29126"
       sodipodi:nodetypes="csscc" />
    <path
       style="fill:#fcca95;fill-opacity:1;stroke:#000000;stroke-width:0.265px;stroke-linecap:butt;stroke-linejoin:miter;stroke-opacity:1"
       d="m 135,203 c 0,0 3,16 13,16 11,0 19,-16 19,-16 0,0 -11,2 -17,2 -5,0 -15,-4 -15,-4"
       id="path39221"
       sodipodi:nodetypes="cscsc" />
    <path
       style="fill:#00ffff;stroke:#000000;stroke-width:0.265px;stroke-linecap:butt;stroke-linejoin:miter;stroke-opacity:1"
       d="m 117,154 c 0,0 3,-3 5,-3 6,0 6,5 6,5 l -6,-2 z"
       id="path50062"
       sodipodi:nodetypes="csccc" />
    <path
       style="fill:#00ffff;stroke:#000000;stroke-width:0.265px;stroke-linecap:butt;stroke-linejoin:miter;stroke-opacity:1"
       d="m 161,163 c 0,0 3,-3 5,-3 6,0 6,5 6,5 l -6,-2 z"
       id="path50062-3"
       sodipodi:nodetypes="csccc" />
    <path
       style="fill:none;stroke:#000000;stroke-width:0.265px;stroke-linecap:butt;stroke-linejoin:miter;stroke-opacity:1"
       d="m 124,136 h 8"
       id="path50408" />
    <path
       style="fill:none;stroke:#000000;stroke-width:0.265px;stroke-linecap:butt;stroke-linejoin:miter;stroke-opacity:1"
       d="m 163,145 c 2,0 5,0 5,0"
       id="path50410" />
    <path
       style="fill:#ffffff;stroke:#000000;stroke-width:0.265px;stroke-linecap:butt;stroke-linejoin:miter;stroke-opacity:1"
       d="m 127,175 c 0,0 8,3 12,4 5,1 15,1 15,1 0,0 -3,12 -16,11 -10,-1 -11,-16 -11,-16 z"
       id="path50525"
       sodipodi:nodetypes="cscsc" />
    <path
       style="fill:none;stroke:#000000;stroke-width:0.265px;stroke-linecap:butt;stroke-linejoin:miter;stroke-opacity:1"
       d="m 138,162 c -3,5 -5,5 -3,8 3,2 8,2 8,2"
       id="path50769" />
    <path
       style="fill:#000000;stroke:#000000;stroke-width:0.265px;stroke-linecap:butt;stroke-linejoin:miter;stroke-opacity:1"
       d="m 121,154 c 0,0 2,-3 3,-2 1,0 1,3 1,3 z"
       id="path51012-4"
       sodipodi:nodetypes="cacc" />
    <path
       style="fill:#000000;stroke:#000000;stroke-width:0.265px;stroke-linecap:butt;stroke-linejoin:miter;stroke-opacity:1"
       d="m 164,163 c 0,0 2,-3 3,-2 1,0 1,3 1,3 z"
       id="path51012-9"
       sodipodi:nodetypes="cacc" />
  </g>
</svg>
